%TF.GenerationSoftware,KiCad,Pcbnew,8.0.1*%
%TF.CreationDate,2024-04-14T13:59:04+09:00*%
%TF.ProjectId,lazyboy36,6c617a79-626f-4793-9336-2e6b69636164,v1.0.0*%
%TF.SameCoordinates,Original*%
%TF.FileFunction,Legend,Bot*%
%TF.FilePolarity,Positive*%
%FSLAX46Y46*%
G04 Gerber Fmt 4.6, Leading zero omitted, Abs format (unit mm)*
G04 Created by KiCad (PCBNEW 8.0.1) date 2024-04-14 13:59:04*
%MOMM*%
%LPD*%
G01*
G04 APERTURE LIST*
%ADD10C,0.100000*%
%ADD11R,1.752600X1.752600*%
%ADD12C,1.752600*%
G04 APERTURE END LIST*
D10*
%TO.C,D2*%
X60148555Y-118300492D02*
X60524432Y-118437300D01*
X60524432Y-118437300D02*
X60336320Y-118954133D01*
X60524432Y-118437300D02*
X60712542Y-117920470D01*
X60524432Y-118437300D02*
X61225055Y-118266635D01*
X60951439Y-119018389D02*
X60524432Y-118437300D01*
X61088250Y-118642511D02*
X61558093Y-118813522D01*
X61225055Y-118266635D02*
X60951439Y-119018389D01*
%TO.C,D19*%
X255747711Y-134788302D02*
X256123587Y-134651493D01*
X256123587Y-134651493D02*
X255935478Y-134134666D01*
X256123587Y-134651493D02*
X256311698Y-135168324D01*
X256123587Y-134651493D02*
X256550596Y-134070405D01*
X256550596Y-134070405D02*
X256824211Y-134822158D01*
X256687403Y-134446280D02*
X257157249Y-134275272D01*
X256824211Y-134822158D02*
X256123587Y-134651493D01*
%TO.C,D35*%
X192322660Y-175408173D02*
X192685177Y-175239124D01*
X192685177Y-175239124D02*
X192452745Y-174740656D01*
X192685177Y-175239124D02*
X192917623Y-175737593D01*
X192685177Y-175239124D02*
X193059921Y-174623030D01*
X193059921Y-174623030D02*
X193398015Y-175348077D01*
X193228969Y-174985551D02*
X193682122Y-174774243D01*
X193398015Y-175348077D02*
X192685177Y-175239124D01*
%TO.C,D3*%
X65962892Y-102325728D02*
X66338769Y-102462536D01*
X66338769Y-102462536D02*
X66150657Y-102979369D01*
X66338769Y-102462536D02*
X66526879Y-101945706D01*
X66338769Y-102462536D02*
X67039392Y-102291871D01*
X66765776Y-103043625D02*
X66338769Y-102462536D01*
X66902587Y-102667747D02*
X67372430Y-102838758D01*
X67039392Y-102291871D02*
X66765776Y-103043625D01*
%TO.C,D36*%
X175459646Y-188596627D02*
X175742490Y-188313781D01*
X175742490Y-188313781D02*
X175353580Y-187924875D01*
X175742490Y-188313781D02*
X175883909Y-187606678D01*
X175742490Y-188313781D02*
X176131397Y-188702692D01*
X175883909Y-187606678D02*
X176449596Y-188172362D01*
X176166755Y-187889521D02*
X176520304Y-187535967D01*
X176449596Y-188172362D02*
X175742490Y-188313781D01*
%TO.C,D20*%
X249933377Y-118813532D02*
X250309253Y-118676723D01*
X250309253Y-118676723D02*
X250121144Y-118159896D01*
X250309253Y-118676723D02*
X250497364Y-119193554D01*
X250309253Y-118676723D02*
X250736262Y-118095635D01*
X250736262Y-118095635D02*
X251009877Y-118847388D01*
X250873069Y-118471510D02*
X251342915Y-118300502D01*
X251009877Y-118847388D02*
X250309253Y-118676723D01*
%TO.C,D32*%
X180565400Y-138740531D02*
X180941276Y-138603722D01*
X180941276Y-138603722D02*
X180753167Y-138086895D01*
X180941276Y-138603722D02*
X181129387Y-139120553D01*
X180941276Y-138603722D02*
X181368285Y-138022634D01*
X181368285Y-138022634D02*
X181641900Y-138774387D01*
X181505092Y-138398509D02*
X181974938Y-138227501D01*
X181641900Y-138774387D02*
X180941276Y-138603722D01*
%TO.C,D31*%
X186379756Y-154715293D02*
X186755632Y-154578484D01*
X186755632Y-154578484D02*
X186567523Y-154061657D01*
X186755632Y-154578484D02*
X186943743Y-155095315D01*
X186755632Y-154578484D02*
X187182641Y-153997396D01*
X187182641Y-153997396D02*
X187456256Y-154749149D01*
X187319448Y-154373271D02*
X187789294Y-154202263D01*
X187456256Y-154749149D02*
X186755632Y-154578484D01*
%TO.C,D22*%
X235413048Y-131547740D02*
X235788924Y-131410931D01*
X235788924Y-131410931D02*
X235600815Y-130894104D01*
X235788924Y-131410931D02*
X235977035Y-131927762D01*
X235788924Y-131410931D02*
X236215933Y-130829843D01*
X236215933Y-130829843D02*
X236489548Y-131581596D01*
X236352740Y-131205718D02*
X236822586Y-131034710D01*
X236489548Y-131581596D02*
X235788924Y-131410931D01*
%TO.C,D4*%
X74668876Y-131034707D02*
X75044753Y-131171515D01*
X75044753Y-131171515D02*
X74856641Y-131688348D01*
X75044753Y-131171515D02*
X75232863Y-130654685D01*
X75044753Y-131171515D02*
X75745376Y-131000850D01*
X75471760Y-131752604D02*
X75044753Y-131171515D01*
X75608571Y-131376726D02*
X76078414Y-131547737D01*
X75745376Y-131000850D02*
X75471760Y-131752604D01*
%TO.C,D28*%
X201584115Y-143860479D02*
X201959991Y-143723670D01*
X201959991Y-143723670D02*
X201771882Y-143206843D01*
X201959991Y-143723670D02*
X202148102Y-144240501D01*
X201959991Y-143723670D02*
X202387000Y-143142582D01*
X202387000Y-143142582D02*
X202660615Y-143894335D01*
X202523807Y-143518457D02*
X202993653Y-143347449D01*
X202660615Y-143894335D02*
X201959991Y-143723670D01*
%TO.C,D9*%
X104922134Y-100543065D02*
X105298011Y-100679873D01*
X105298011Y-100679873D02*
X105109899Y-101196706D01*
X105298011Y-100679873D02*
X105486121Y-100163043D01*
X105298011Y-100679873D02*
X105998634Y-100509208D01*
X105725018Y-101260962D02*
X105298011Y-100679873D01*
X105861829Y-100885084D02*
X106331672Y-101056095D01*
X105998634Y-100509208D02*
X105725018Y-101260962D01*
%TO.C,D18*%
X134971164Y-187535965D02*
X135254010Y-187818809D01*
X135254010Y-187818809D02*
X134865099Y-188207716D01*
X135254010Y-187818809D02*
X135642916Y-187429899D01*
X135254010Y-187818809D02*
X135961113Y-187960228D01*
X135395429Y-188525915D02*
X135254010Y-187818809D01*
X135678270Y-188243074D02*
X136031824Y-188596623D01*
X135961113Y-187960228D02*
X135395429Y-188525915D01*
%TO.C,D8*%
X99107782Y-116517836D02*
X99483659Y-116654644D01*
X99483659Y-116654644D02*
X99295547Y-117171477D01*
X99483659Y-116654644D02*
X99671769Y-116137814D01*
X99483659Y-116654644D02*
X100184282Y-116483979D01*
X99910666Y-117235733D02*
X99483659Y-116654644D01*
X100047477Y-116859855D02*
X100517320Y-117030866D01*
X100184282Y-116483979D02*
X99910666Y-117235733D01*
%TO.C,D27*%
X205159804Y-101056100D02*
X205535680Y-100919291D01*
X205535680Y-100919291D02*
X205347571Y-100402464D01*
X205535680Y-100919291D02*
X205723791Y-101436122D01*
X205535680Y-100919291D02*
X205962689Y-100338203D01*
X205962689Y-100338203D02*
X206236304Y-101089956D01*
X206099496Y-100714078D02*
X206569342Y-100543070D01*
X206236304Y-101089956D02*
X205535680Y-100919291D01*
%TO.C,D29*%
X195769771Y-127885706D02*
X196145647Y-127748897D01*
X196145647Y-127748897D02*
X195957538Y-127232070D01*
X196145647Y-127748897D02*
X196333758Y-128265728D01*
X196145647Y-127748897D02*
X196572656Y-127167809D01*
X196572656Y-127167809D02*
X196846271Y-127919562D01*
X196709463Y-127543684D02*
X197179309Y-127372676D01*
X196846271Y-127919562D02*
X196145647Y-127748897D01*
%TO.C,D24*%
X223784357Y-99598209D02*
X224160233Y-99461400D01*
X224160233Y-99461400D02*
X223972124Y-98944573D01*
X224160233Y-99461400D02*
X224348344Y-99978231D01*
X224160233Y-99461400D02*
X224587242Y-98880312D01*
X224587242Y-98880312D02*
X224860857Y-99632065D01*
X224724049Y-99256187D02*
X225193895Y-99085179D01*
X224860857Y-99632065D02*
X224160233Y-99461400D01*
%TO.C,D14*%
X129516520Y-138227493D02*
X129892397Y-138364301D01*
X129892397Y-138364301D02*
X129704285Y-138881134D01*
X129892397Y-138364301D02*
X130080507Y-137847471D01*
X129892397Y-138364301D02*
X130593020Y-138193636D01*
X130319404Y-138945390D02*
X129892397Y-138364301D01*
X130456215Y-138569512D02*
X130926058Y-138740523D01*
X130593020Y-138193636D02*
X130319404Y-138945390D01*
%TO.C,D17*%
X117809344Y-174774248D02*
X118171870Y-174943294D01*
X118171870Y-174943294D02*
X117939430Y-175441762D01*
X118171870Y-174943294D02*
X118404307Y-174444827D01*
X118171870Y-174943294D02*
X118884699Y-174834343D01*
X118546605Y-175559390D02*
X118171870Y-174943294D01*
X118715654Y-175196867D02*
X119168806Y-175408176D01*
X118884699Y-174834343D02*
X118546605Y-175559390D01*
%TO.C,D13*%
X123702178Y-154202268D02*
X124078055Y-154339076D01*
X124078055Y-154339076D02*
X123889943Y-154855909D01*
X124078055Y-154339076D02*
X124266165Y-153822246D01*
X124078055Y-154339076D02*
X124778678Y-154168411D01*
X124505062Y-154920165D02*
X124078055Y-154339076D01*
X124641873Y-154544287D02*
X125111716Y-154715298D01*
X124778678Y-154168411D02*
X124505062Y-154920165D01*
%TO.C,D16*%
X97850906Y-167569313D02*
X98237277Y-167672842D01*
X98237277Y-167672842D02*
X98094927Y-168204101D01*
X98237277Y-167672842D02*
X98379623Y-167141584D01*
X98237277Y-167672842D02*
X98920360Y-167441762D01*
X98713305Y-168214502D02*
X98237277Y-167672842D01*
X98816835Y-167828131D02*
X99299796Y-167957543D01*
X98920360Y-167441762D02*
X98713305Y-168214502D01*
%TO.C,D11*%
X114312149Y-127372657D02*
X114688026Y-127509465D01*
X114688026Y-127509465D02*
X114499914Y-128026298D01*
X114688026Y-127509465D02*
X114876136Y-126992635D01*
X114688026Y-127509465D02*
X115388649Y-127338800D01*
X115115033Y-128090554D02*
X114688026Y-127509465D01*
X115251844Y-127714676D02*
X115721687Y-127885687D01*
X115388649Y-127338800D02*
X115115033Y-128090554D01*
%TO.C,D1*%
X54334208Y-134275277D02*
X54710085Y-134412085D01*
X54710085Y-134412085D02*
X54521973Y-134928918D01*
X54710085Y-134412085D02*
X54898195Y-133895255D01*
X54710085Y-134412085D02*
X55410708Y-134241420D01*
X55137092Y-134993174D02*
X54710085Y-134412085D01*
X55273903Y-134617296D02*
X55743746Y-134788307D01*
X55410708Y-134241420D02*
X55137092Y-134993174D01*
%TO.C,D23*%
X229598706Y-115572962D02*
X229974582Y-115436153D01*
X229974582Y-115436153D02*
X229786473Y-114919326D01*
X229974582Y-115436153D02*
X230162693Y-115952984D01*
X229974582Y-115436153D02*
X230401591Y-114855065D01*
X230401591Y-114855065D02*
X230675206Y-115606818D01*
X230538398Y-115230940D02*
X231008244Y-115059932D01*
X230675206Y-115606818D02*
X229974582Y-115436153D01*
%TO.C,D30*%
X189955428Y-111910913D02*
X190331304Y-111774104D01*
X190331304Y-111774104D02*
X190143195Y-111257277D01*
X190331304Y-111774104D02*
X190519415Y-112290935D01*
X190331304Y-111774104D02*
X190758313Y-111193016D01*
X190758313Y-111193016D02*
X191031928Y-111944769D01*
X190895120Y-111568891D02*
X191364966Y-111397883D01*
X191031928Y-111944769D02*
X190331304Y-111774104D01*
%TO.C,D21*%
X244119032Y-102838747D02*
X244494908Y-102701938D01*
X244494908Y-102701938D02*
X244306799Y-102185111D01*
X244494908Y-102701938D02*
X244683019Y-103218769D01*
X244494908Y-102701938D02*
X244921917Y-102120850D01*
X244921917Y-102120850D02*
X245195532Y-102872603D01*
X245058724Y-102496725D02*
X245528570Y-102325717D01*
X245195532Y-102872603D02*
X244494908Y-102701938D01*
%TO.C,D12*%
X120126484Y-111397891D02*
X120502361Y-111534699D01*
X120502361Y-111534699D02*
X120314249Y-112051532D01*
X120502361Y-111534699D02*
X120690471Y-111017869D01*
X120502361Y-111534699D02*
X121202984Y-111364034D01*
X120929368Y-112115788D02*
X120502361Y-111534699D01*
X121066179Y-111739910D02*
X121536022Y-111910921D01*
X121202984Y-111364034D02*
X120929368Y-112115788D01*
%TO.C,D7*%
X93293441Y-132492604D02*
X93669318Y-132629412D01*
X93669318Y-132629412D02*
X93481206Y-133146245D01*
X93669318Y-132629412D02*
X93857428Y-132112582D01*
X93669318Y-132629412D02*
X94369941Y-132458747D01*
X94096325Y-133210501D02*
X93669318Y-132629412D01*
X94233136Y-132834623D02*
X94702979Y-133005634D01*
X94369941Y-132458747D02*
X94096325Y-133210501D01*
%TO.C,D33*%
X174751064Y-122765736D02*
X175126940Y-122628927D01*
X175126940Y-122628927D02*
X174938831Y-122112100D01*
X175126940Y-122628927D02*
X175315051Y-123145758D01*
X175126940Y-122628927D02*
X175553949Y-122047839D01*
X175553949Y-122047839D02*
X175827564Y-122799592D01*
X175690756Y-122423714D02*
X176160602Y-122252706D01*
X175827564Y-122799592D02*
X175126940Y-122628927D01*
%TO.C,D25*%
X216788483Y-133005642D02*
X217164359Y-132868833D01*
X217164359Y-132868833D02*
X216976250Y-132352006D01*
X217164359Y-132868833D02*
X217352470Y-133385664D01*
X217164359Y-132868833D02*
X217591368Y-132287745D01*
X217591368Y-132287745D02*
X217864983Y-133039498D01*
X217728175Y-132663620D02*
X218198021Y-132492612D01*
X217864983Y-133039498D02*
X217164359Y-132868833D01*
%TO.C,D10*%
X108497803Y-143347443D02*
X108873680Y-143484251D01*
X108873680Y-143484251D02*
X108685568Y-144001084D01*
X108873680Y-143484251D02*
X109061790Y-142967421D01*
X108873680Y-143484251D02*
X109574303Y-143313586D01*
X109300687Y-144065340D02*
X108873680Y-143484251D01*
X109437498Y-143689462D02*
X109907341Y-143860473D01*
X109574303Y-143313586D02*
X109300687Y-144065340D01*
%TO.C,D5*%
X80483212Y-115059939D02*
X80859089Y-115196747D01*
X80859089Y-115196747D02*
X80670977Y-115713580D01*
X80859089Y-115196747D02*
X81047199Y-114679917D01*
X80859089Y-115196747D02*
X81559712Y-115026082D01*
X81286096Y-115777836D02*
X80859089Y-115196747D01*
X81422907Y-115401958D02*
X81892750Y-115572969D01*
X81559712Y-115026082D02*
X81286096Y-115777836D01*
%TO.C,D15*%
X135330859Y-122252717D02*
X135706736Y-122389525D01*
X135706736Y-122389525D02*
X135518624Y-122906358D01*
X135706736Y-122389525D02*
X135894846Y-121872695D01*
X135706736Y-122389525D02*
X136407359Y-122218860D01*
X136133743Y-122970614D02*
X135706736Y-122389525D01*
X136270554Y-122594736D02*
X136740397Y-122765747D01*
X136407359Y-122218860D02*
X136133743Y-122970614D01*
%TO.C,D6*%
X86297564Y-99085174D02*
X86673441Y-99221982D01*
X86673441Y-99221982D02*
X86485329Y-99738815D01*
X86673441Y-99221982D02*
X86861551Y-98705152D01*
X86673441Y-99221982D02*
X87374064Y-99051317D01*
X87100448Y-99803071D02*
X86673441Y-99221982D01*
X87237259Y-99427193D02*
X87707102Y-99598204D01*
X87374064Y-99051317D02*
X87100448Y-99803071D01*
%TO.C,D26*%
X210974133Y-117030864D02*
X211350009Y-116894055D01*
X211350009Y-116894055D02*
X211161900Y-116377228D01*
X211350009Y-116894055D02*
X211538120Y-117410886D01*
X211350009Y-116894055D02*
X211777018Y-116312967D01*
X211777018Y-116312967D02*
X212050633Y-117064720D01*
X211913825Y-116688842D02*
X212383671Y-116517834D01*
X212050633Y-117064720D02*
X211350009Y-116894055D01*
%TO.C,D34*%
X212191678Y-167957529D02*
X212578048Y-167854001D01*
X212578048Y-167854001D02*
X212435698Y-167322744D01*
X212578048Y-167854001D02*
X212720399Y-168385259D01*
X212578048Y-167854001D02*
X213054077Y-167312339D01*
X213054077Y-167312339D02*
X213261135Y-168085081D01*
X213157606Y-167698709D02*
X213640568Y-167569299D01*
X213261135Y-168085081D02*
X212578048Y-167854001D01*
%TD*%
D11*
%TO.C,MCU1*%
X148125722Y-135790344D03*
D12*
X148125725Y-138330340D03*
X148125723Y-140870338D03*
X148125725Y-143410340D03*
X148125723Y-145950339D03*
X148125723Y-148490340D03*
X148125724Y-151030340D03*
X148125723Y-153570339D03*
X148125727Y-156110339D03*
X148125723Y-158650342D03*
X148125720Y-161190342D03*
X148125724Y-163730340D03*
X163365722Y-135790340D03*
X163365726Y-138330338D03*
X163365723Y-140870338D03*
X163365719Y-143410341D03*
X163365723Y-145950341D03*
X163365722Y-148490340D03*
X163365723Y-151030340D03*
X163365723Y-153570341D03*
X163365721Y-156110340D03*
X163365723Y-158650342D03*
X163365721Y-161190340D03*
X163365724Y-163730336D03*
%TD*%
M02*
