%TF.GenerationSoftware,KiCad,Pcbnew,8.0.1*%
%TF.CreationDate,2024-04-14T13:59:04+09:00*%
%TF.ProjectId,lazyboy36,6c617a79-626f-4793-9336-2e6b69636164,v1.0.0*%
%TF.SameCoordinates,Original*%
%TF.FileFunction,Copper,L1,Top*%
%TF.FilePolarity,Positive*%
%FSLAX46Y46*%
G04 Gerber Fmt 4.6, Leading zero omitted, Abs format (unit mm)*
G04 Created by KiCad (PCBNEW 8.0.1) date 2024-04-14 13:59:04*
%MOMM*%
%LPD*%
G01*
G04 APERTURE LIST*
G04 Aperture macros list*
%AMRotRect*
0 Rectangle, with rotation*
0 The origin of the aperture is its center*
0 $1 length*
0 $2 width*
0 $3 Rotation angle, in degrees counterclockwise*
0 Add horizontal line*
21,1,$1,$2,0,0,$3*%
G04 Aperture macros list end*
%TA.AperFunction,SMDPad,CuDef*%
%ADD10R,1.100000X1.800000*%
%TD*%
%TA.AperFunction,ComponentPad*%
%ADD11RotRect,1.778000X1.778000X340.000000*%
%TD*%
%TA.AperFunction,SMDPad,CuDef*%
%ADD12RotRect,0.900000X1.200000X340.000000*%
%TD*%
%TA.AperFunction,ComponentPad*%
%ADD13C,1.905000*%
%TD*%
%TA.AperFunction,ComponentPad*%
%ADD14C,0.700000*%
%TD*%
%TA.AperFunction,ComponentPad*%
%ADD15C,4.400000*%
%TD*%
%TA.AperFunction,ComponentPad*%
%ADD16RotRect,1.778000X1.778000X20.000000*%
%TD*%
%TA.AperFunction,SMDPad,CuDef*%
%ADD17RotRect,0.900000X1.200000X20.000000*%
%TD*%
%TA.AperFunction,ComponentPad*%
%ADD18RotRect,1.778000X1.778000X25.000000*%
%TD*%
%TA.AperFunction,SMDPad,CuDef*%
%ADD19RotRect,0.900000X1.200000X25.000000*%
%TD*%
%TA.AperFunction,ComponentPad*%
%ADD20RotRect,1.778000X1.778000X45.000000*%
%TD*%
%TA.AperFunction,SMDPad,CuDef*%
%ADD21RotRect,0.900000X1.200000X45.000000*%
%TD*%
%TA.AperFunction,ComponentPad*%
%ADD22R,1.752600X1.752600*%
%TD*%
%TA.AperFunction,ComponentPad*%
%ADD23C,1.752600*%
%TD*%
%TA.AperFunction,ComponentPad*%
%ADD24RotRect,1.778000X1.778000X315.000000*%
%TD*%
%TA.AperFunction,SMDPad,CuDef*%
%ADD25RotRect,0.900000X1.200000X315.000000*%
%TD*%
%TA.AperFunction,ComponentPad*%
%ADD26RotRect,1.778000X1.778000X335.000000*%
%TD*%
%TA.AperFunction,SMDPad,CuDef*%
%ADD27RotRect,0.900000X1.200000X335.000000*%
%TD*%
%TA.AperFunction,ComponentPad*%
%ADD28RotRect,1.778000X1.778000X345.000000*%
%TD*%
%TA.AperFunction,SMDPad,CuDef*%
%ADD29RotRect,0.900000X1.200000X345.000000*%
%TD*%
%TA.AperFunction,ComponentPad*%
%ADD30R,1.700000X1.700000*%
%TD*%
%TA.AperFunction,ComponentPad*%
%ADD31O,1.700000X1.700000*%
%TD*%
%TA.AperFunction,ComponentPad*%
%ADD32RotRect,1.778000X1.778000X15.000000*%
%TD*%
%TA.AperFunction,SMDPad,CuDef*%
%ADD33RotRect,0.900000X1.200000X15.000000*%
%TD*%
%TA.AperFunction,ViaPad*%
%ADD34C,0.800000*%
%TD*%
%TA.AperFunction,Conductor*%
%ADD35C,0.250000*%
%TD*%
G04 APERTURE END LIST*
D10*
%TO.P,B1,1*%
%TO.N,GND*%
X157595730Y-169805495D03*
X157595726Y-176005492D03*
%TO.P,B1,2*%
%TO.N,RST*%
X153895734Y-169805498D03*
X153895730Y-176005495D03*
%TD*%
D11*
%TO.P,D2,1*%
%TO.N,P19*%
X57273094Y-117253912D03*
D12*
X59302831Y-117992675D03*
%TO.P,D2,2*%
%TO.N,pinky_home*%
X62403817Y-119121339D03*
D13*
X64433554Y-119860102D03*
%TD*%
D14*
%TO.P,_5,1*%
%TO.N,N/C*%
X230198802Y-93538899D03*
X230253885Y-92277248D03*
X231051974Y-94469975D03*
X232313625Y-94525058D03*
D15*
X231749293Y-92974567D03*
D14*
X231184961Y-91424076D03*
X232446612Y-91479159D03*
X233244701Y-93671886D03*
X233299784Y-92410235D03*
%TD*%
D16*
%TO.P,D19,1*%
%TO.N,P5*%
X252872252Y-135834884D03*
D17*
X254901989Y-135096119D03*
%TO.P,D19,2*%
%TO.N,mirror_pinky_bottom*%
X258002971Y-133967455D03*
D13*
X260032708Y-133228690D03*
%TD*%
D18*
%TO.P,D35,1*%
%TO.N,P6*%
X189549358Y-176701383D03*
D19*
X191506985Y-175788528D03*
%TO.P,D35,2*%
%TO.N,mirror_middle_cluster*%
X194497797Y-174393888D03*
D13*
X196455424Y-173481033D03*
%TD*%
D11*
%TO.P,D3,1*%
%TO.N,P20*%
X63087431Y-101279148D03*
D12*
X65117168Y-102017911D03*
%TO.P,D3,2*%
%TO.N,pinky_top*%
X68218154Y-103146575D03*
D13*
X70247891Y-103885338D03*
%TD*%
D20*
%TO.P,D36,1*%
%TO.N,P6*%
X173295897Y-190760373D03*
D21*
X174823250Y-189233024D03*
%TO.P,D36,2*%
%TO.N,mirror_inner_cluster*%
X177156700Y-186899570D03*
D13*
X178684053Y-185372221D03*
%TD*%
D16*
%TO.P,D20,1*%
%TO.N,P4*%
X247057918Y-119860114D03*
D17*
X249087655Y-119121349D03*
%TO.P,D20,2*%
%TO.N,mirror_pinky_home*%
X252188637Y-117992685D03*
D13*
X254218374Y-117253920D03*
%TD*%
D16*
%TO.P,D32,1*%
%TO.N,P4*%
X177689941Y-139787113D03*
D17*
X179719678Y-139048348D03*
%TO.P,D32,2*%
%TO.N,mirror_inner_home*%
X182820660Y-137919684D03*
D13*
X184850397Y-137180919D03*
%TD*%
D16*
%TO.P,D31,1*%
%TO.N,P5*%
X183504297Y-155761875D03*
D17*
X185534034Y-155023110D03*
%TO.P,D31,2*%
%TO.N,mirror_inner_bottom*%
X188635016Y-153894446D03*
D13*
X190664753Y-153155681D03*
%TD*%
D16*
%TO.P,D22,1*%
%TO.N,P5*%
X232537589Y-132594322D03*
D17*
X234567326Y-131855557D03*
%TO.P,D22,2*%
%TO.N,mirror_ring_bottom*%
X237668308Y-130726893D03*
D13*
X239698045Y-129988128D03*
%TD*%
D11*
%TO.P,D4,1*%
%TO.N,P18*%
X71793415Y-129988127D03*
D12*
X73823152Y-130726890D03*
%TO.P,D4,2*%
%TO.N,ring_bottom*%
X76924138Y-131855554D03*
D13*
X78953875Y-132594317D03*
%TD*%
D16*
%TO.P,D28,1*%
%TO.N,P5*%
X198708656Y-144907061D03*
D17*
X200738393Y-144168296D03*
%TO.P,D28,2*%
%TO.N,mirror_index_bottom*%
X203839375Y-143039632D03*
D13*
X205869112Y-142300867D03*
%TD*%
D22*
%TO.P,MCU1,1*%
%TO.N,RAW*%
X148125722Y-135790344D03*
D23*
%TO.P,MCU1,2*%
%TO.N,GND*%
X148125725Y-138330340D03*
%TO.P,MCU1,3*%
%TO.N,RST*%
X148125723Y-140870338D03*
%TO.P,MCU1,4*%
%TO.N,VCC*%
X148125725Y-143410340D03*
%TO.P,MCU1,5*%
%TO.N,P21*%
X148125723Y-145950339D03*
%TO.P,MCU1,6*%
%TO.N,P20*%
X148125723Y-148490340D03*
%TO.P,MCU1,7*%
%TO.N,P19*%
X148125724Y-151030340D03*
%TO.P,MCU1,8*%
%TO.N,P18*%
X148125723Y-153570339D03*
%TO.P,MCU1,9*%
%TO.N,P15*%
X148125727Y-156110339D03*
%TO.P,MCU1,10*%
%TO.N,P14*%
X148125723Y-158650342D03*
%TO.P,MCU1,11*%
%TO.N,P16*%
X148125720Y-161190342D03*
%TO.P,MCU1,12*%
%TO.N,P10*%
X148125724Y-163730340D03*
%TO.P,MCU1,13*%
%TO.N,P1*%
X163365722Y-135790340D03*
%TO.P,MCU1,14*%
%TO.N,P0*%
X163365726Y-138330338D03*
%TO.P,MCU1,15*%
%TO.N,GND*%
X163365723Y-140870338D03*
%TO.P,MCU1,16*%
X163365719Y-143410341D03*
%TO.P,MCU1,17*%
%TO.N,P2*%
X163365723Y-145950341D03*
%TO.P,MCU1,18*%
%TO.N,P3*%
X163365722Y-148490340D03*
%TO.P,MCU1,19*%
%TO.N,P4*%
X163365723Y-151030340D03*
%TO.P,MCU1,20*%
%TO.N,P5*%
X163365723Y-153570341D03*
%TO.P,MCU1,21*%
%TO.N,P6*%
X163365721Y-156110340D03*
%TO.P,MCU1,22*%
%TO.N,P7*%
X163365723Y-158650342D03*
%TO.P,MCU1,23*%
%TO.N,P8*%
X163365721Y-161190340D03*
%TO.P,MCU1,24*%
%TO.N,P9*%
X163365724Y-163730336D03*
%TD*%
D14*
%TO.P,_2,1*%
%TO.N,N/C*%
X60748638Y-140334568D03*
X61601811Y-139403495D03*
X60803726Y-141596220D03*
X62863463Y-139348407D03*
D15*
X62299131Y-140898900D03*
D14*
X61734799Y-142449393D03*
X63794536Y-140201580D03*
X62996451Y-142394305D03*
X63849624Y-141463232D03*
%TD*%
D11*
%TO.P,D9,1*%
%TO.N,P20*%
X102046673Y-99496485D03*
D12*
X104076410Y-100235248D03*
%TO.P,D9,2*%
%TO.N,middle_top*%
X107177396Y-101363912D03*
D13*
X109207133Y-102102675D03*
%TD*%
D24*
%TO.P,D18,1*%
%TO.N,P15*%
X132807418Y-185372216D03*
D25*
X134334767Y-186899569D03*
%TO.P,D18,2*%
%TO.N,inner_cluster*%
X136668221Y-189233019D03*
D13*
X138195570Y-190760372D03*
%TD*%
D11*
%TO.P,D8,1*%
%TO.N,P19*%
X96232321Y-115471256D03*
D12*
X98262058Y-116210019D03*
%TO.P,D8,2*%
%TO.N,middle_home*%
X101363044Y-117338683D03*
D13*
X103392781Y-118077446D03*
%TD*%
D16*
%TO.P,D27,1*%
%TO.N,P0*%
X202284345Y-102102682D03*
D17*
X204314082Y-101363917D03*
%TO.P,D27,2*%
%TO.N,mirror_middle_top*%
X207415064Y-100235253D03*
D13*
X209444801Y-99496488D03*
%TD*%
D16*
%TO.P,D29,1*%
%TO.N,P4*%
X192894312Y-128932288D03*
D17*
X194924049Y-128193523D03*
%TO.P,D29,2*%
%TO.N,mirror_index_home*%
X198025031Y-127064859D03*
D13*
X200054768Y-126326094D03*
%TD*%
D16*
%TO.P,D24,1*%
%TO.N,P0*%
X220908898Y-100644791D03*
D17*
X222938635Y-99906026D03*
%TO.P,D24,2*%
%TO.N,mirror_ring_top*%
X226039617Y-98777362D03*
D13*
X228069354Y-98038597D03*
%TD*%
D11*
%TO.P,D14,1*%
%TO.N,P19*%
X126641059Y-137180913D03*
D12*
X128670796Y-137919676D03*
%TO.P,D14,2*%
%TO.N,inner_home*%
X131771782Y-139048340D03*
D13*
X133801519Y-139787103D03*
%TD*%
D26*
%TO.P,D17,1*%
%TO.N,P15*%
X115036043Y-173481036D03*
D27*
X116993667Y-174393893D03*
%TO.P,D17,2*%
%TO.N,middle_cluster*%
X119984483Y-175788531D03*
D13*
X121942107Y-176701388D03*
%TD*%
D11*
%TO.P,D13,1*%
%TO.N,P18*%
X120826717Y-153155688D03*
D12*
X122856454Y-153894451D03*
%TO.P,D13,2*%
%TO.N,inner_bottom*%
X125957440Y-155023115D03*
D13*
X127987177Y-155761878D03*
%TD*%
D28*
%TO.P,D16,1*%
%TO.N,P15*%
X94895174Y-166777329D03*
D29*
X96981573Y-167336378D03*
%TO.P,D16,2*%
%TO.N,outer_cluster*%
X100169129Y-168190478D03*
D13*
X102255528Y-168749527D03*
%TD*%
D11*
%TO.P,D11,1*%
%TO.N,P19*%
X111436688Y-126326077D03*
D12*
X113466425Y-127064840D03*
%TO.P,D11,2*%
%TO.N,index_home*%
X116567411Y-128193504D03*
D13*
X118597148Y-128932267D03*
%TD*%
D11*
%TO.P,D1,1*%
%TO.N,P18*%
X51458747Y-133228697D03*
D12*
X53488484Y-133967460D03*
%TO.P,D1,2*%
%TO.N,pinky_bottom*%
X56589470Y-135096124D03*
D13*
X58619207Y-135834887D03*
%TD*%
D16*
%TO.P,D23,1*%
%TO.N,P4*%
X226723247Y-116619544D03*
D17*
X228752984Y-115880779D03*
%TO.P,D23,2*%
%TO.N,mirror_ring_home*%
X231853966Y-114752115D03*
D13*
X233883703Y-114013350D03*
%TD*%
D16*
%TO.P,D30,1*%
%TO.N,P0*%
X187079969Y-112957495D03*
D17*
X189109706Y-112218730D03*
%TO.P,D30,2*%
%TO.N,mirror_index_top*%
X192210688Y-111090066D03*
D13*
X194240425Y-110351301D03*
%TD*%
D16*
%TO.P,D21,1*%
%TO.N,P0*%
X241243573Y-103885329D03*
D17*
X243273310Y-103146564D03*
%TO.P,D21,2*%
%TO.N,mirror_pinky_top*%
X246374292Y-102017900D03*
D13*
X248404029Y-101279135D03*
%TD*%
D30*
%TO.P,OLED1,1*%
%TO.N,GND*%
X159545735Y-167160318D03*
D31*
%TO.P,OLED1,2*%
%TO.N,VCC*%
X157005737Y-167160316D03*
%TO.P,OLED1,3*%
%TO.N,P3*%
X154465736Y-167160319D03*
%TO.P,OLED1,4*%
%TO.N,P2*%
X151925734Y-167160315D03*
%TD*%
D14*
%TO.P,_1,1*%
%TO.N,N/C*%
X78191675Y-92410243D03*
X79044848Y-91479170D03*
X78246763Y-93671895D03*
X80306500Y-91424082D03*
D15*
X79742168Y-92974575D03*
D14*
X79177836Y-94525068D03*
X81237573Y-92277255D03*
X80439488Y-94469980D03*
X81292661Y-93538907D03*
%TD*%
D11*
%TO.P,D12,1*%
%TO.N,P20*%
X117251023Y-110351311D03*
D12*
X119280760Y-111090074D03*
%TO.P,D12,2*%
%TO.N,index_top*%
X122381746Y-112218738D03*
D13*
X124411483Y-112957501D03*
%TD*%
D11*
%TO.P,D7,1*%
%TO.N,P18*%
X90417980Y-131446024D03*
D12*
X92447717Y-132184787D03*
%TO.P,D7,2*%
%TO.N,middle_bottom*%
X95548703Y-133313451D03*
D13*
X97578440Y-134052214D03*
%TD*%
D16*
%TO.P,D33,1*%
%TO.N,P0*%
X171875605Y-123812318D03*
D17*
X173905342Y-123073553D03*
%TO.P,D33,2*%
%TO.N,mirror_inner_top*%
X177006324Y-121944889D03*
D13*
X179036061Y-121206124D03*
%TD*%
D14*
%TO.P,_4,1*%
%TO.N,N/C*%
X123671277Y-181369525D03*
X123616195Y-182631175D03*
X124602354Y-180516354D03*
X125864004Y-180571436D03*
D15*
X125166685Y-182066844D03*
D14*
X124469366Y-183562252D03*
X125731016Y-183617334D03*
X126717175Y-181502513D03*
X126662093Y-182764163D03*
%TD*%
%TO.P,_3,1*%
%TO.N,N/C*%
X126540926Y-117457172D03*
X127394099Y-116526099D03*
X126596014Y-118718824D03*
X128655751Y-116471011D03*
D15*
X128091419Y-118021504D03*
D14*
X127527087Y-119571997D03*
X129586824Y-117324184D03*
X128788739Y-119516909D03*
X129641912Y-118585836D03*
%TD*%
%TO.P,_6,1*%
%TO.N,N/C*%
X247641830Y-141463225D03*
X247696913Y-140201574D03*
X248495002Y-142394301D03*
X249756653Y-142449384D03*
D15*
X249192321Y-140898893D03*
D14*
X248627989Y-139348402D03*
X249889640Y-139403485D03*
X250687729Y-141596212D03*
X250742812Y-140334561D03*
%TD*%
D16*
%TO.P,D25,1*%
%TO.N,P5*%
X213913024Y-134052224D03*
D17*
X215942761Y-133313459D03*
%TO.P,D25,2*%
%TO.N,mirror_middle_bottom*%
X219043743Y-132184795D03*
D13*
X221073480Y-131446030D03*
%TD*%
D11*
%TO.P,D10,1*%
%TO.N,P18*%
X105622342Y-142300863D03*
D12*
X107652079Y-143039626D03*
%TO.P,D10,2*%
%TO.N,index_bottom*%
X110753065Y-144168290D03*
D13*
X112782802Y-144907053D03*
%TD*%
D11*
%TO.P,D5,1*%
%TO.N,P19*%
X77607751Y-114013359D03*
D12*
X79637488Y-114752122D03*
%TO.P,D5,2*%
%TO.N,ring_home*%
X82738474Y-115880786D03*
D13*
X84768211Y-116619549D03*
%TD*%
D11*
%TO.P,D15,1*%
%TO.N,P20*%
X132455398Y-121206137D03*
D12*
X134485135Y-121944900D03*
%TO.P,D15,2*%
%TO.N,inner_top*%
X137586121Y-123073564D03*
D13*
X139615858Y-123812327D03*
%TD*%
D14*
%TO.P,_8,1*%
%TO.N,N/C*%
X184829380Y-182764170D03*
X184774293Y-181502518D03*
X185760454Y-183617343D03*
X185627466Y-180571444D03*
D15*
X186324786Y-182066850D03*
D14*
X187022106Y-183562256D03*
X186889118Y-180516357D03*
X187875279Y-182631182D03*
X187820192Y-181369530D03*
%TD*%
D11*
%TO.P,D6,1*%
%TO.N,P20*%
X83422103Y-98038594D03*
D12*
X85451840Y-98777357D03*
%TO.P,D6,2*%
%TO.N,ring_top*%
X88552826Y-99906021D03*
D13*
X90582563Y-100644784D03*
%TD*%
D16*
%TO.P,D26,1*%
%TO.N,P4*%
X208098674Y-118077446D03*
D17*
X210128411Y-117338681D03*
%TO.P,D26,2*%
%TO.N,mirror_middle_home*%
X213229393Y-116210017D03*
D13*
X215259130Y-115471252D03*
%TD*%
D14*
%TO.P,_7,1*%
%TO.N,N/C*%
X181849545Y-118585843D03*
X181904628Y-117324192D03*
X182702717Y-119516919D03*
X183964368Y-119572002D03*
D15*
X183400036Y-118021511D03*
D14*
X182835704Y-116471020D03*
X184097355Y-116526103D03*
X184895444Y-118718830D03*
X184950527Y-117457179D03*
%TD*%
D32*
%TO.P,D34,1*%
%TO.N,P6*%
X209235946Y-168749516D03*
D33*
X211322347Y-168190465D03*
%TO.P,D34,2*%
%TO.N,mirror_outer_cluster*%
X214509899Y-167336363D03*
D13*
X216596300Y-166777312D03*
%TD*%
D34*
%TO.N,P16*%
X64601807Y-98916621D03*
%TO.N,P10*%
X85495802Y-96624561D03*
%TO.N,P7*%
X197206957Y-106405422D03*
%TO.N,P8*%
X178326862Y-131072326D03*
%TO.N,P9*%
X179148808Y-147906511D03*
%TD*%
D35*
%TO.N,P16*%
X115814015Y-106595310D02*
X113034837Y-100635350D01*
X73054550Y-102738091D02*
X65020177Y-99813826D01*
X80106196Y-97690483D02*
X79334944Y-99809496D01*
X113034837Y-100635350D02*
X102612319Y-96841856D01*
X121654427Y-109998057D02*
X121295824Y-109229028D01*
X146556252Y-159620868D02*
X146974672Y-160039292D01*
X134675074Y-116028683D02*
X133949736Y-114473190D01*
X95819243Y-100009527D02*
X86743139Y-96706093D01*
X102612319Y-96841856D02*
X95819243Y-100009527D01*
X84970283Y-95422322D02*
X80106196Y-97690483D01*
X133546408Y-119129670D02*
X134675074Y-116028683D01*
X133949736Y-114473190D02*
X121654427Y-109998057D01*
X148125725Y-161190337D02*
X146974672Y-160039292D01*
X86743139Y-96706093D02*
X86384532Y-95937069D01*
X65020177Y-99813826D02*
X64601807Y-98916621D01*
X79334944Y-99809496D02*
X73054550Y-102738091D01*
X121295824Y-109229028D02*
X119884402Y-108715324D01*
X119525797Y-107946291D02*
X115814015Y-106595310D01*
X119884402Y-108715324D02*
X119525797Y-107946291D01*
X146556250Y-134564347D02*
X146556252Y-159620868D01*
X146556250Y-134564347D02*
X140897589Y-122429307D01*
X140897589Y-122429307D02*
X133896878Y-119881257D01*
X133896878Y-119881257D02*
X133546408Y-119129670D01*
X86384532Y-95937069D02*
X84970283Y-95422322D01*
%TO.N,pinky_bottom*%
X58619206Y-135834881D02*
X56589474Y-135096120D01*
%TO.N,pinky_home*%
X64433546Y-119860105D02*
X62403809Y-119121352D01*
%TO.N,pinky_top*%
X70247892Y-103885335D02*
X68218155Y-103146570D01*
%TO.N,P10*%
X119183953Y-108300757D02*
X115484950Y-106954421D01*
X148125724Y-163730333D02*
X146069641Y-161674251D01*
X112705772Y-100994459D02*
X102633563Y-97328471D01*
X133574089Y-120253818D02*
X133059791Y-119150912D01*
X102633563Y-97328471D02*
X95840490Y-100496135D01*
X115484950Y-106954421D02*
X112705772Y-100994459D01*
X133059791Y-119150912D02*
X134188463Y-116049921D01*
X121310698Y-110351831D02*
X120952094Y-109582804D01*
X140574796Y-122801866D02*
X133574089Y-120253818D01*
X119542556Y-109069778D02*
X119183953Y-108300757D01*
X146069639Y-134585593D02*
X140574796Y-122801866D01*
X146069641Y-161674251D02*
X146069639Y-134585593D01*
X133620670Y-114832292D02*
X121310698Y-110351831D01*
X85555565Y-96752737D02*
X85495802Y-96624561D01*
X134188463Y-116049921D02*
X133620670Y-114832292D01*
X120952094Y-109582804D02*
X119542556Y-109069778D01*
X95840490Y-100496135D02*
X85555565Y-96752737D01*
%TO.N,ring_bottom*%
X78953876Y-132594327D02*
X76924147Y-131855557D01*
%TO.N,ring_home*%
X84768211Y-116619550D02*
X82738476Y-115880786D01*
%TO.N,ring_top*%
X90582558Y-100644782D02*
X88552826Y-99906013D01*
%TO.N,P7*%
X182563256Y-112450351D02*
X179515128Y-118987086D01*
X179515128Y-118987086D02*
X167487060Y-123364946D01*
X166829622Y-124774829D02*
X166829622Y-155186440D01*
X196805357Y-107266650D02*
X182563256Y-112450351D01*
X167487060Y-123364946D02*
X166829622Y-124774829D01*
X166829622Y-155186440D02*
X163365724Y-158650341D01*
X197206957Y-106405422D02*
X196805357Y-107266650D01*
%TO.N,middle_bottom*%
X97578444Y-134052220D02*
X95548705Y-133313455D01*
%TO.N,middle_home*%
X103392779Y-118077453D02*
X101363042Y-117338675D01*
%TO.N,middle_top*%
X109207126Y-102102673D02*
X107177395Y-101363911D01*
%TO.N,P8*%
X178326862Y-131072326D02*
X171044244Y-133722983D01*
X171044244Y-133722983D02*
X167279624Y-137487607D01*
X167279624Y-137487607D02*
X167279623Y-157276435D01*
X167279623Y-157276435D02*
X163365719Y-161190337D01*
%TO.N,index_bottom*%
X112782813Y-144907050D02*
X110753067Y-144168288D01*
%TO.N,index_home*%
X118597148Y-128932268D02*
X116567409Y-128193508D01*
%TO.N,index_top*%
X124411502Y-112957508D02*
X122381753Y-112218740D01*
%TO.N,P9*%
X167729622Y-159366433D02*
X163365725Y-163730331D01*
X167729622Y-151068064D02*
X167729622Y-159366433D01*
X170891175Y-147906515D02*
X167729622Y-151068064D01*
X179148808Y-147906511D02*
X170891175Y-147906515D01*
%TO.N,inner_bottom*%
X127987172Y-155761871D02*
X125957441Y-155023113D01*
%TO.N,inner_home*%
X133801513Y-139787094D02*
X131771780Y-139048335D01*
%TO.N,inner_top*%
X139615860Y-123812330D02*
X137586122Y-123073560D01*
%TO.N,outer_cluster*%
X102255518Y-168749530D02*
X100169122Y-168190481D01*
%TO.N,middle_cluster*%
X121942113Y-176701380D02*
X119984485Y-175788524D01*
X119984485Y-175788524D02*
X119984485Y-175788528D01*
%TO.N,inner_cluster*%
X138195569Y-190760376D02*
X136668220Y-189233022D01*
%TO.N,mirror_pinky_bottom*%
X260032713Y-133228692D02*
X258002969Y-133967458D01*
%TO.N,mirror_pinky_home*%
X254218369Y-117253925D02*
X254218378Y-117253923D01*
X252188637Y-117992688D02*
X254218369Y-117253925D01*
%TO.N,mirror_pinky_top*%
X248404027Y-101279136D02*
X246374297Y-102017901D01*
%TO.N,mirror_ring_bottom*%
X239698041Y-129988133D02*
X237668308Y-130726890D01*
X237668308Y-130726890D02*
X237668308Y-130726897D01*
%TO.N,mirror_ring_home*%
X233883707Y-114013363D02*
X233883706Y-114013358D01*
X231853967Y-114752123D02*
X233883707Y-114013363D01*
%TO.N,mirror_ring_top*%
X228069351Y-98038595D02*
X226039624Y-98777358D01*
X226039624Y-98777358D02*
X226039614Y-98777358D01*
%TO.N,mirror_middle_bottom*%
X221073478Y-131446030D02*
X219043743Y-132184795D01*
%TO.N,mirror_middle_home*%
X213229403Y-116210028D02*
X215259131Y-115471253D01*
%TO.N,mirror_middle_top*%
X209444795Y-99496489D02*
X207415063Y-100235248D01*
%TO.N,mirror_index_bottom*%
X205869108Y-142300863D02*
X203839377Y-143039630D01*
%TO.N,mirror_index_home*%
X198025029Y-127064859D02*
X200054766Y-126326100D01*
X200054766Y-126326100D02*
X200054769Y-126326096D01*
%TO.N,mirror_index_top*%
X194240425Y-110351301D02*
X192210687Y-111090070D01*
%TO.N,mirror_inner_bottom*%
X190664748Y-153155678D02*
X188635016Y-153894443D01*
X188635016Y-153894443D02*
X188635019Y-153894448D01*
%TO.N,mirror_inner_home*%
X182820669Y-137919672D02*
X182820665Y-137919687D01*
X184850405Y-137180914D02*
X182820669Y-137919672D01*
%TO.N,mirror_inner_top*%
X179036061Y-121206128D02*
X177006331Y-121944893D01*
%TO.N,mirror_outer_cluster*%
X216596306Y-166777319D02*
X214509904Y-167336370D01*
%TO.N,mirror_middle_cluster*%
X196455417Y-173481028D02*
X194497799Y-174393891D01*
%TO.N,mirror_inner_cluster*%
X178684040Y-185372216D02*
X177156699Y-186899565D01*
%TO.N,P18*%
X92516101Y-135945457D02*
X90417986Y-131446024D01*
X73891536Y-134487554D02*
X79509991Y-136532513D01*
X64136413Y-135832191D02*
X70796759Y-132726413D01*
X51458751Y-133228697D02*
X53880579Y-132099377D01*
X105622343Y-142300863D02*
X104732108Y-140391721D01*
X79509991Y-136532513D02*
X90417986Y-131446024D01*
X104732108Y-140391721D02*
X92516101Y-135945457D01*
X73823159Y-130726901D02*
X71793414Y-129988133D01*
X107652089Y-143039630D02*
X105622343Y-142300863D01*
X122856450Y-153894451D02*
X120826712Y-153155681D01*
X107720453Y-146800279D02*
X105622343Y-142300863D01*
X92447722Y-132184797D02*
X90417986Y-131446024D01*
X53488487Y-133967455D02*
X51458751Y-133228697D01*
X53880579Y-132099377D02*
X64136413Y-135832191D01*
X120826712Y-153155681D02*
X119936462Y-151246542D01*
X70796759Y-132726413D02*
X71793414Y-129988133D01*
X71793414Y-129988133D02*
X73891536Y-134487554D01*
X119936462Y-151246542D02*
X107720453Y-146800279D01*
%TO.N,P19*%
X85324340Y-120557736D02*
X79705866Y-118512778D01*
X98262057Y-116210021D02*
X96232326Y-115471261D01*
X110546436Y-124416942D02*
X98330436Y-119970683D01*
X79705866Y-118512778D02*
X77607761Y-114013361D01*
X113534798Y-130825507D02*
X111436691Y-126326086D01*
X122267437Y-134003927D02*
X113534798Y-130825507D01*
X59302828Y-117992683D02*
X57273092Y-117253922D01*
X123157697Y-135913067D02*
X122267437Y-134003927D01*
X126641065Y-137180912D02*
X123157697Y-135913067D01*
X128670798Y-137919679D02*
X126641065Y-137180912D01*
X113466428Y-127064844D02*
X111436691Y-126326086D01*
X59630833Y-116154492D02*
X69933642Y-119904416D01*
X76593991Y-116798642D02*
X77607761Y-114013361D01*
X98330436Y-119970683D02*
X96232326Y-115471261D01*
X96232326Y-115471261D02*
X85324340Y-120557736D01*
X111436691Y-126326086D02*
X110546436Y-124416942D01*
X79637484Y-114752118D02*
X77607761Y-114013361D01*
X57273092Y-117253922D02*
X59630833Y-116154492D01*
X69933642Y-119904416D02*
X76593991Y-116798642D01*
%TO.N,P20*%
X123806187Y-116472958D02*
X119349148Y-114850733D01*
X65117167Y-102017904D02*
X63087445Y-101279139D01*
X117251032Y-110351315D02*
X116360789Y-108442173D01*
X119280771Y-111090079D02*
X117251032Y-110351315D01*
X91138689Y-104582965D02*
X85520208Y-102538000D01*
X125539436Y-120189926D02*
X123806187Y-116472958D01*
X134485139Y-121944905D02*
X132455400Y-121206133D01*
X132455400Y-121206133D02*
X131012056Y-120680804D01*
X64260067Y-103793878D02*
X63087433Y-101279142D01*
X70640596Y-106116196D02*
X82493846Y-100588939D01*
X83422096Y-98038586D02*
X82493846Y-100588939D01*
X116360789Y-108442173D02*
X104144788Y-103995907D01*
X104144788Y-103995907D02*
X102046671Y-99496474D01*
X85520208Y-102538000D02*
X83422096Y-98038586D01*
X129204235Y-121523806D02*
X125539436Y-120189926D01*
X85451841Y-98777352D02*
X83422096Y-98038586D01*
X70640596Y-106116196D02*
X64260067Y-103793878D01*
X119349148Y-114850733D02*
X117251032Y-110351315D01*
X102046671Y-99496474D02*
X91138689Y-104582965D01*
X131012056Y-120680804D02*
X129204235Y-121523806D01*
X104076416Y-100235259D02*
X102046671Y-99496474D01*
%TO.N,P15*%
X128793736Y-176764851D02*
X117111941Y-172513021D01*
X134334760Y-186899569D02*
X132807423Y-185372214D01*
X132807423Y-185372214D02*
X132807424Y-185372220D01*
X115036044Y-173481030D02*
X115036047Y-173481030D01*
X116993668Y-174393892D02*
X115036044Y-173481030D01*
X132807424Y-185372222D02*
X128793736Y-176764851D01*
X117111941Y-172513021D02*
X115036045Y-173481036D01*
X114068026Y-171405132D02*
X97726214Y-165457193D01*
X97726214Y-165457193D02*
X94895165Y-166777335D01*
X96981567Y-167336376D02*
X94895162Y-166777334D01*
X115036045Y-173481036D02*
X114068026Y-171405132D01*
%TO.N,P5*%
X244531957Y-131945745D02*
X237014412Y-134681907D01*
X218389844Y-136139801D02*
X213913025Y-134052225D01*
X215942758Y-133313459D02*
X213913026Y-134052221D01*
X230605846Y-131693537D02*
X218389844Y-136139801D01*
X234567322Y-131855556D02*
X232537591Y-132594322D01*
X210161131Y-142098186D02*
X213913025Y-134052225D01*
X183504300Y-155761880D02*
X185141682Y-156525401D01*
X213913026Y-134052221D02*
X213913025Y-134052225D01*
X194956770Y-152953010D02*
X198708654Y-144907062D01*
X237014412Y-134681907D02*
X232537589Y-132594327D01*
X198708654Y-144907062D02*
X200346041Y-145670583D01*
X200346041Y-145670583D02*
X210161131Y-142098186D01*
X185141682Y-156525401D02*
X194956770Y-152953010D01*
X200738390Y-144168297D02*
X198708657Y-144907061D01*
X232537591Y-132594322D02*
X232537589Y-132594327D01*
X183504299Y-155761875D02*
X183504300Y-155761880D01*
X252872255Y-135834890D02*
X252872256Y-135834893D01*
X254901988Y-135096117D02*
X252872255Y-135834890D01*
X232537589Y-132594327D02*
X230605846Y-131693537D01*
X252872256Y-135834893D02*
X244531957Y-131945745D01*
X198708657Y-144907061D02*
X198708654Y-144907062D01*
X185534033Y-155023110D02*
X183504299Y-155761875D01*
%TO.N,P4*%
X203022735Y-128962841D02*
X208098677Y-118077449D01*
X177689952Y-139787105D02*
X177689948Y-139787102D01*
X179719680Y-139048337D02*
X177689952Y-139787105D01*
X197371120Y-131019855D02*
X203022735Y-128962841D01*
X247057915Y-119860115D02*
X238717612Y-115970966D01*
X192894315Y-128932291D02*
X197371120Y-131019855D01*
X194924048Y-128193521D02*
X194924049Y-128193521D01*
X249087649Y-119121353D02*
X249087656Y-119121349D01*
X187818378Y-139817667D02*
X192894315Y-128932291D01*
X212575501Y-120165028D02*
X208098677Y-118077449D01*
X224791515Y-115718764D02*
X212575501Y-120165028D01*
X226723249Y-116619553D02*
X224791515Y-115718764D01*
X238717612Y-115970966D02*
X231200075Y-118707130D01*
X177689948Y-139787102D02*
X182166763Y-141874681D01*
X182166763Y-141874681D02*
X187818378Y-139817667D01*
X210128414Y-117338690D02*
X210128407Y-117338680D01*
X247057915Y-119860115D02*
X249087649Y-119121353D01*
X208098677Y-118077449D02*
X210128414Y-117338690D01*
X192894315Y-128932291D02*
X194924048Y-128193521D01*
X228752988Y-115880786D02*
X228752989Y-115880783D01*
X226723249Y-116619553D02*
X228752988Y-115880786D01*
X231200075Y-118707130D02*
X226723249Y-116619553D01*
%TO.N,P0*%
X202284342Y-102102689D02*
X197208408Y-112988061D01*
X171875605Y-123812318D02*
X171875607Y-123812323D01*
X191556800Y-115045084D02*
X187079972Y-112957493D01*
X188074950Y-115691190D02*
X187079972Y-112957493D01*
X222938639Y-99906018D02*
X220908905Y-100644781D01*
X220908899Y-100644785D02*
X218977154Y-99743993D01*
X204314078Y-101363919D02*
X202284344Y-102102680D01*
X176352437Y-125899898D02*
X184737711Y-122847903D01*
X171875607Y-123812323D02*
X176352437Y-125899898D01*
X197208408Y-112988061D02*
X191556800Y-115045084D01*
X173905344Y-123073552D02*
X171875605Y-123812318D01*
X241243577Y-103885329D02*
X232903281Y-99996191D01*
X184737711Y-122847903D02*
X188074950Y-115691190D01*
X202284344Y-102102680D02*
X202284342Y-102102689D01*
X241243576Y-103885326D02*
X241243577Y-103885329D01*
X220908905Y-100644781D02*
X220908899Y-100644785D01*
X218977154Y-99743993D02*
X206761154Y-104190256D01*
X189109702Y-112218736D02*
X187079971Y-112957491D01*
X225385715Y-102732358D02*
X220908899Y-100644785D01*
X206761154Y-104190256D02*
X202284342Y-102102689D01*
X187079971Y-112957491D02*
X187079972Y-112957493D01*
X243273310Y-103146563D02*
X241243576Y-103885326D01*
X232903281Y-99996191D02*
X225385715Y-102732358D01*
%TO.N,P6*%
X174823246Y-189233017D02*
X173295894Y-190760373D01*
X191193791Y-173174896D02*
X189549357Y-176701378D01*
X211322347Y-168190464D02*
X209235950Y-168749522D01*
X184764712Y-176701383D02*
X189549360Y-176701380D01*
X209235951Y-168749523D02*
X206656764Y-167546827D01*
X191506986Y-175788524D02*
X189549360Y-176701381D01*
X173295895Y-188170194D02*
X184764712Y-176701383D01*
X173295894Y-190760373D02*
X173295895Y-188170194D01*
X206656764Y-167546827D02*
X191193791Y-173174896D01*
%TO.N,GND*%
X157595732Y-169805497D02*
X157595729Y-176005493D01*
X157595732Y-169805497D02*
X159545735Y-167855491D01*
X159545735Y-167855491D02*
X159545741Y-167160321D01*
%TO.N,RST*%
X149782409Y-142527014D02*
X148125725Y-140870331D01*
X153895728Y-176005496D02*
X153895729Y-169805502D01*
X149782408Y-167212383D02*
X149782409Y-142527014D01*
X153895737Y-169805500D02*
X152375527Y-169805502D01*
X152375527Y-169805502D02*
X149782408Y-167212383D01*
X153895729Y-169805502D02*
X153895737Y-169805500D01*
%TO.N,P2*%
X151925736Y-167160319D02*
X151925733Y-157390321D01*
X151925733Y-157390321D02*
X163365720Y-145950337D01*
%TO.N,P3*%
X154465733Y-157390317D02*
X163365724Y-148490339D01*
X154465735Y-167160325D02*
X154465733Y-157390317D01*
%TD*%
M02*
