M48
; DRILL file {KiCad 8.0.1} date 2024-04-14T13:59:15+0900
; FORMAT={-:-/ absolute / inch / decimal}
; #@! TF.CreationDate,2024-04-14T13:59:15+09:00
; #@! TF.GenerationSoftware,Kicad,Pcbnew,8.0.1
; #@! TF.FileFunction,NonPlated,1,2,NPTH
FMAT,2
INCH
; #@! TA.AperFunction,NonPlated,NPTH,ComponentDrill
T1C0.0670
; #@! TA.AperFunction,NonPlated,NPTH,ComponentDrill
T2C0.1181
; #@! TA.AperFunction,NonPlated,NPTH,ComponentDrill
T3C0.1350
%
G90
G05
T1
X2.0307Y-5.0375
X2.2596Y-4.4086
X2.4377Y-5.1856
X2.4886Y-3.7796
X2.6666Y-4.5567
X2.8313Y-4.9099
X2.8955Y-3.9278
X3.0602Y-4.281
X3.2383Y-5.058
X3.2891Y-3.6521
X3.4672Y-4.4291
X3.5646Y-4.9673
X3.6961Y-3.8002
X3.7227Y-6.3587
X3.7935Y-4.3384
X3.9715Y-5.1154
X4.0224Y-3.7094
X4.141Y-6.4708
X4.1632Y-5.3947
X4.2004Y-4.4865
X4.3921Y-4.7657
X4.4293Y-3.8576
X4.5519Y-6.6234
X4.5701Y-5.5428
X4.621Y-4.1368
X4.7618Y-5.822
X4.799Y-4.9139
X4.9444Y-6.8065
X4.9907Y-5.1931
X5.0279Y-4.2849
X5.1687Y-5.9701
X5.2196Y-4.5642
X5.3208Y-7.1119
X5.3976Y-5.3412
X5.6265Y-4.7123
X5.627Y-7.4181
X6.6364Y-7.4181
X6.6369Y-4.7123
X6.8658Y-5.3412
X6.9427Y-7.1119
X7.0439Y-4.5642
X7.0947Y-5.9701
X7.2355Y-4.2849
X7.2728Y-5.1931
X7.3191Y-6.8065
X7.4644Y-4.9139
X7.5017Y-5.822
X7.6425Y-4.1368
X7.6933Y-5.5428
X7.7116Y-6.6234
X7.8341Y-3.8576
X7.8714Y-4.7657
X8.063Y-4.4865
X8.1003Y-5.3947
X8.1224Y-6.4708
X8.2411Y-3.7094
X8.2919Y-5.1154
X8.47Y-4.3384
X8.5407Y-6.3587
X8.5674Y-3.8002
X8.6989Y-4.9673
X8.7963Y-4.4291
X8.9743Y-3.6521
X9.0252Y-5.058
X9.2032Y-4.281
X9.3679Y-3.9278
X9.4321Y-4.9099
X9.5968Y-4.5567
X9.7749Y-3.7796
X9.8258Y-5.1856
X10.0038Y-4.4086
X10.2327Y-5.0375
T2
X2.3143Y-4.8914
X2.4697Y-5.0401
X2.5432Y-4.2625
X2.6986Y-4.4112
X2.7722Y-3.6336
X2.9275Y-3.7823
X3.1149Y-4.7638
X3.2703Y-4.9126
X3.3438Y-4.1349
X3.4992Y-4.2836
X3.5727Y-3.506
X3.7281Y-3.6547
X3.8482Y-4.8212
X3.9925Y-6.1884
X4.0035Y-4.97
X4.0771Y-4.1923
X4.1602Y-6.3231
X4.2324Y-4.341
X4.306Y-3.5634
X4.4468Y-5.2486
X4.4613Y-3.7121
X4.6021Y-5.3973
X4.6757Y-4.6197
X4.831Y-4.7684
X4.8471Y-6.5026
X4.9046Y-3.9907
X4.9889Y-6.6643
X5.0454Y-5.676
X5.0599Y-4.1395
X5.2007Y-5.8247
X5.2743Y-5.047
X5.4296Y-5.1957
X5.5032Y-4.4181
X5.6395Y-7.0993
X5.6585Y-4.5668
X5.7175Y-7.2998
X6.6239Y-7.0993
X6.7603Y-4.4181
X6.8243Y-7.0214
X6.9749Y-4.4322
X6.9892Y-5.047
X7.2038Y-5.0611
X7.2181Y-5.676
X7.3589Y-3.9907
X7.4163Y-6.5026
X7.4327Y-5.69
X7.5735Y-4.0048
X7.5878Y-4.6197
X7.6313Y-6.4979
X7.8024Y-4.6337
X7.8167Y-5.2486
X7.9575Y-3.5634
X8.0313Y-5.2627
X8.1721Y-3.5774
X8.1864Y-4.1923
X8.2709Y-6.1884
X8.401Y-4.2064
X8.4153Y-4.8212
X8.4835Y-6.2212
X8.6299Y-4.8353
X8.6907Y-3.506
X8.9053Y-3.52
X8.9196Y-4.1349
X9.1342Y-4.149
X9.1485Y-4.7638
X9.3631Y-4.7779
X9.4913Y-3.6336
X9.7059Y-3.6476
X9.7202Y-4.2625
X9.9348Y-4.2766
X9.9491Y-4.8914
X10.1637Y-4.9055
T3
X2.2342Y-5.1115
X2.4631Y-4.4826
X2.692Y-3.8537
X3.0348Y-4.984
X3.2637Y-4.355
X3.4926Y-3.7261
X3.768Y-5.0414
X3.9319Y-6.4147
X3.997Y-4.4124
X4.2259Y-3.7835
X4.3666Y-5.4687
X4.5956Y-4.8398
X4.7481Y-6.7149
X4.8245Y-4.2109
X4.9652Y-5.8961
X5.1941Y-5.2671
X5.4231Y-4.6382
X5.4739Y-7.265
X6.7895Y-7.265
X6.8404Y-4.6382
X7.0693Y-5.2671
X7.2982Y-5.8961
X7.439Y-4.2109
X7.5153Y-6.7149
X7.6679Y-4.8398
X7.8968Y-5.4687
X8.0376Y-3.7835
X8.2665Y-4.4124
X8.3316Y-6.4147
X8.4954Y-5.0414
X8.7708Y-3.7261
X8.9997Y-4.355
X9.2287Y-4.984
X9.5714Y-3.8537
X9.8003Y-4.4826
X10.0292Y-5.1115
M30
