%TF.GenerationSoftware,KiCad,Pcbnew,8.0.1*%
%TF.CreationDate,2024-04-14T13:59:04+09:00*%
%TF.ProjectId,lazyboy36,6c617a79-626f-4793-9336-2e6b69636164,v1.0.0*%
%TF.SameCoordinates,Original*%
%TF.FileFunction,Soldermask,Top*%
%TF.FilePolarity,Negative*%
%FSLAX46Y46*%
G04 Gerber Fmt 4.6, Leading zero omitted, Abs format (unit mm)*
G04 Created by KiCad (PCBNEW 8.0.1) date 2024-04-14 13:59:04*
%MOMM*%
%LPD*%
G01*
G04 APERTURE LIST*
G04 Aperture macros list*
%AMRoundRect*
0 Rectangle with rounded corners*
0 $1 Rounding radius*
0 $2 $3 $4 $5 $6 $7 $8 $9 X,Y pos of 4 corners*
0 Add a 4 corners polygon primitive as box body*
4,1,4,$2,$3,$4,$5,$6,$7,$8,$9,$2,$3,0*
0 Add four circle primitives for the rounded corners*
1,1,$1+$1,$2,$3*
1,1,$1+$1,$4,$5*
1,1,$1+$1,$6,$7*
1,1,$1+$1,$8,$9*
0 Add four rect primitives between the rounded corners*
20,1,$1+$1,$2,$3,$4,$5,0*
20,1,$1+$1,$4,$5,$6,$7,0*
20,1,$1+$1,$6,$7,$8,$9,0*
20,1,$1+$1,$8,$9,$2,$3,0*%
G04 Aperture macros list end*
%ADD10RoundRect,0.050000X-0.550000X0.900000X-0.550000X-0.900000X0.550000X-0.900000X0.550000X0.900000X0*%
%ADD11C,1.801800*%
%ADD12C,3.529000*%
%ADD13C,3.100000*%
%ADD14RoundRect,0.050000X-1.139443X-0.531331X0.531331X-1.139443X1.139443X0.531331X-0.531331X1.139443X0*%
%ADD15RoundRect,0.050000X-0.628074X-0.409907X0.217650X-0.717725X0.628074X0.409907X-0.217650X0.717725X0*%
%ADD16C,2.005000*%
%ADD17C,0.800000*%
%ADD18C,4.500000*%
%ADD19RoundRect,0.050000X-0.531331X-1.139443X1.139443X-0.531331X0.531331X1.139443X-1.139443X0.531331X0*%
%ADD20RoundRect,0.050000X-0.217650X-0.717725X0.628074X-0.409907X0.217650X0.717725X-0.628074X0.409907X0*%
%ADD21RoundRect,0.050000X-0.430000X-1.181415X1.181415X-0.430000X0.430000X1.181415X-1.181415X0.430000X0*%
%ADD22RoundRect,0.050000X-0.154268X-0.733963X0.661409X-0.353606X0.154268X0.733963X-0.661409X0.353606X0*%
%ADD23RoundRect,0.050000X0.000000X-1.257236X1.257236X0.000000X0.000000X1.257236X-1.257236X0.000000X0*%
%ADD24RoundRect,0.050000X0.106066X-0.742462X0.742462X-0.106066X-0.106066X0.742462X-0.742462X0.106066X0*%
%ADD25RoundRect,0.050000X-0.876300X0.876300X-0.876300X-0.876300X0.876300X-0.876300X0.876300X0.876300X0*%
%ADD26C,1.852600*%
%ADD27RoundRect,0.050000X-1.257236X0.000000X0.000000X-1.257236X1.257236X0.000000X0.000000X1.257236X0*%
%ADD28RoundRect,0.050000X-0.742462X-0.106066X-0.106066X-0.742462X0.742462X0.106066X0.106066X0.742462X0*%
%ADD29RoundRect,0.050000X-1.181415X-0.430000X0.430000X-1.181415X1.181415X0.430000X-0.430000X1.181415X0*%
%ADD30RoundRect,0.050000X-0.661409X-0.353606X0.154268X-0.733963X0.661409X0.353606X-0.154268X0.733963X0*%
%ADD31RoundRect,0.050000X-1.088798X-0.628618X0.628618X-1.088798X1.088798X0.628618X-0.628618X1.088798X0*%
%ADD32RoundRect,0.050000X-0.589958X-0.463087X0.279375X-0.696024X0.589958X0.463087X-0.279375X0.696024X0*%
%ADD33RoundRect,0.050000X-0.850000X-0.850000X0.850000X-0.850000X0.850000X0.850000X-0.850000X0.850000X0*%
%ADD34O,1.800000X1.800000*%
%ADD35RoundRect,0.050000X-0.628618X-1.088798X1.088798X-0.628618X0.628618X1.088798X-1.088798X0.628618X0*%
%ADD36RoundRect,0.050000X-0.279375X-0.696024X0.589958X-0.463087X0.279375X0.696024X-0.589958X0.463087X0*%
G04 APERTURE END LIST*
D10*
%TO.C,B1*%
X157595730Y-169805495D03*
X157595726Y-176005492D03*
X153895734Y-169805498D03*
X153895730Y-176005495D03*
%TD*%
D11*
%TO.C,S8*%
X96354346Y-110194788D03*
D12*
X101522655Y-112075899D03*
D13*
X103557678Y-106484729D03*
X107503697Y-110262154D03*
D11*
X106690964Y-113957010D03*
%TD*%
%TO.C,S30*%
X183781786Y-108837045D03*
D13*
X186915075Y-101364766D03*
D12*
X188950098Y-106955936D03*
D13*
X192365989Y-101721987D03*
D11*
X194118410Y-105074827D03*
%TD*%
%TO.C,S15*%
X132577420Y-115929657D03*
D12*
X137745729Y-117810768D03*
D13*
X139780752Y-112219598D03*
X143726771Y-115997023D03*
D11*
X142914038Y-119691879D03*
%TD*%
%TO.C,S21*%
X237945384Y-99764893D03*
D13*
X241078673Y-92292614D03*
D12*
X243113696Y-97883784D03*
D13*
X246529587Y-92649835D03*
D11*
X248282008Y-96002675D03*
%TD*%
D14*
%TO.C,D2*%
X57273094Y-117253912D03*
D15*
X59302831Y-117992675D03*
X62403817Y-119121339D03*
D16*
X64433554Y-119860102D03*
%TD*%
D11*
%TO.C,S35*%
X185904606Y-172884070D03*
D13*
X188374714Y-165167139D03*
D12*
X190889297Y-170559668D03*
D13*
X193836020Y-165047921D03*
D11*
X195873988Y-168235266D03*
%TD*%
D17*
%TO.C,_5*%
X230198802Y-93538899D03*
X230253885Y-92277248D03*
X231051974Y-94469975D03*
X232313625Y-94525058D03*
D18*
X231749293Y-92974567D03*
D17*
X231184961Y-91424076D03*
X232446612Y-91479159D03*
X233244701Y-93671886D03*
X233299784Y-92410235D03*
%TD*%
D19*
%TO.C,D19*%
X252872252Y-135834884D03*
D20*
X254901989Y-135096119D03*
X258002971Y-133967455D03*
D16*
X260032708Y-133228690D03*
%TD*%
D11*
%TO.C,S14*%
X126763082Y-131904420D03*
D12*
X131931391Y-133785531D03*
D13*
X133966414Y-128194361D03*
X137912433Y-131971786D03*
D11*
X137099700Y-135666642D03*
%TD*%
D21*
%TO.C,D35*%
X189549358Y-176701383D03*
D22*
X191506985Y-175788528D03*
X194497797Y-174393888D03*
D16*
X196455424Y-173481033D03*
%TD*%
D14*
%TO.C,D3*%
X63087431Y-101279148D03*
D15*
X65117168Y-102017911D03*
X68218154Y-103146575D03*
D16*
X70247891Y-103885338D03*
%TD*%
D11*
%TO.C,S5*%
X77729785Y-108736883D03*
D12*
X82898094Y-110617994D03*
D13*
X84933117Y-105026824D03*
X88879136Y-108804249D03*
D11*
X88066403Y-112499105D03*
%TD*%
D23*
%TO.C,D36*%
X173295897Y-190760373D03*
D24*
X174823250Y-189233024D03*
X177156700Y-186899570D03*
D16*
X178684053Y-185372221D03*
%TD*%
D11*
%TO.C,S23*%
X223425072Y-112499105D03*
D13*
X226558361Y-105026826D03*
D12*
X228593384Y-110617996D03*
D13*
X232009275Y-105384047D03*
D11*
X233761696Y-108736887D03*
%TD*%
D19*
%TO.C,D20*%
X247057918Y-119860114D03*
D20*
X249087655Y-119121349D03*
X252188637Y-117992685D03*
D16*
X254218374Y-117253920D03*
%TD*%
D19*
%TO.C,D32*%
X177689941Y-139787113D03*
D20*
X179719678Y-139048348D03*
X182820660Y-137919684D03*
D16*
X184850397Y-137180919D03*
%TD*%
D11*
%TO.C,S24*%
X217610720Y-96524322D03*
D13*
X220744009Y-89052043D03*
D12*
X222779032Y-94643213D03*
D13*
X226194923Y-89409264D03*
D11*
X227947344Y-92762104D03*
%TD*%
%TO.C,S16*%
X94556844Y-161510289D03*
D12*
X99869436Y-162933794D03*
D13*
X101409413Y-157186536D03*
X105669640Y-160605669D03*
D11*
X105182028Y-164357299D03*
%TD*%
D19*
%TO.C,D31*%
X183504297Y-155761875D03*
D20*
X185534034Y-155023110D03*
X188635016Y-153894446D03*
D16*
X190664753Y-153155681D03*
%TD*%
D11*
%TO.C,S34*%
X206309435Y-164357305D03*
D12*
X211622028Y-162933801D03*
D13*
X210082057Y-157186541D03*
X215481088Y-158017483D03*
D11*
X216934621Y-161510297D03*
%TD*%
%TO.C,S26*%
X204800490Y-113956998D03*
D13*
X207933779Y-106484719D03*
D12*
X209968802Y-112075889D03*
D13*
X213384693Y-106841940D03*
D11*
X215137114Y-110194780D03*
%TD*%
%TO.C,S27*%
X198986156Y-97982226D03*
D13*
X202119445Y-90509947D03*
D12*
X204154468Y-96101117D03*
D13*
X207570359Y-90867168D03*
D11*
X209322780Y-94220008D03*
%TD*%
D19*
%TO.C,D22*%
X232537589Y-132594322D03*
D20*
X234567326Y-131855557D03*
X237668308Y-130726893D03*
D16*
X239698045Y-129988128D03*
%TD*%
D14*
%TO.C,D4*%
X71793415Y-129988127D03*
D15*
X73823152Y-130726890D03*
X76924138Y-131855554D03*
D16*
X78953875Y-132594317D03*
%TD*%
D19*
%TO.C,D28*%
X198708656Y-144907061D03*
D20*
X200738393Y-144168296D03*
X203839375Y-143039632D03*
D16*
X205869112Y-142300867D03*
%TD*%
D25*
%TO.C,MCU1*%
X148125722Y-135790344D03*
D26*
X148125725Y-138330340D03*
X148125723Y-140870338D03*
X148125725Y-143410340D03*
X148125723Y-145950339D03*
X148125723Y-148490340D03*
X148125724Y-151030340D03*
X148125723Y-153570339D03*
X148125727Y-156110339D03*
X148125723Y-158650342D03*
X148125720Y-161190342D03*
X148125724Y-163730340D03*
X163365722Y-135790340D03*
X163365726Y-138330338D03*
X163365723Y-140870338D03*
X163365719Y-143410341D03*
X163365723Y-145950341D03*
X163365722Y-148490340D03*
X163365723Y-151030340D03*
X163365723Y-153570341D03*
X163365721Y-156110340D03*
X163365723Y-158650342D03*
X163365721Y-161190340D03*
X163365724Y-163730336D03*
%TD*%
D17*
%TO.C,_2*%
X60748638Y-140334568D03*
X61601811Y-139403495D03*
X60803726Y-141596220D03*
X62863463Y-139348407D03*
D18*
X62299131Y-140898900D03*
D17*
X61734799Y-142449393D03*
X63794536Y-140201580D03*
X62996451Y-142394305D03*
X63849624Y-141463232D03*
%TD*%
D14*
%TO.C,D9*%
X102046673Y-99496485D03*
D15*
X104076410Y-100235248D03*
X107177396Y-101363912D03*
D16*
X109207133Y-102102675D03*
%TD*%
D27*
%TO.C,D18*%
X132807418Y-185372216D03*
D28*
X134334767Y-186899569D03*
X136668221Y-189233019D03*
D16*
X138195570Y-190760372D03*
%TD*%
D14*
%TO.C,D8*%
X96232321Y-115471256D03*
D15*
X98262058Y-116210019D03*
X101363044Y-117338683D03*
D16*
X103392781Y-118077446D03*
%TD*%
D19*
%TO.C,D27*%
X202284345Y-102102682D03*
D20*
X204314082Y-101363917D03*
X207415064Y-100235253D03*
D16*
X209444801Y-99496488D03*
%TD*%
D11*
%TO.C,S18*%
X135147939Y-180641678D03*
D13*
X143244309Y-180323475D03*
D12*
X139037025Y-184530765D03*
D13*
X145224211Y-185414652D03*
D11*
X142926111Y-188419852D03*
%TD*%
D19*
%TO.C,D29*%
X192894312Y-128932288D03*
D20*
X194924049Y-128193523D03*
X198025031Y-127064859D03*
D16*
X200054768Y-126326094D03*
%TD*%
D11*
%TO.C,S33*%
X168577419Y-119691872D03*
D13*
X171710708Y-112219593D03*
D12*
X173745731Y-117810763D03*
D13*
X177161622Y-112576814D03*
D11*
X178914043Y-115929654D03*
%TD*%
D19*
%TO.C,D24*%
X220908898Y-100644791D03*
D20*
X222938635Y-99906026D03*
X226039617Y-98777362D03*
D16*
X228069354Y-98038597D03*
%TD*%
D14*
%TO.C,D14*%
X126641059Y-137180913D03*
D15*
X128670796Y-137919676D03*
X131771782Y-139048340D03*
D16*
X133801519Y-139787103D03*
%TD*%
D29*
%TO.C,D17*%
X115036043Y-173481036D03*
D30*
X116993667Y-174393893D03*
X119984483Y-175788531D03*
D16*
X121942107Y-176701388D03*
%TD*%
D11*
%TO.C,S2*%
X57395107Y-111977438D03*
D12*
X62563416Y-113858549D03*
D13*
X64598439Y-108267379D03*
X68544458Y-112044804D03*
D11*
X67731725Y-115739660D03*
%TD*%
%TO.C,S29*%
X189596125Y-124811835D03*
D13*
X192729414Y-117339556D03*
D12*
X194764437Y-122930726D03*
D13*
X198180328Y-117696777D03*
D11*
X199932749Y-121049617D03*
%TD*%
%TO.C,S36*%
X168565354Y-188419851D03*
D13*
X168247151Y-180323481D03*
D12*
X172454441Y-184530765D03*
D13*
X173338328Y-178343579D03*
D11*
X176343528Y-180641679D03*
%TD*%
D14*
%TO.C,D13*%
X120826717Y-153155688D03*
D15*
X122856454Y-153894451D03*
X125957440Y-155023115D03*
D16*
X127987177Y-155761878D03*
%TD*%
D11*
%TO.C,S31*%
X180206095Y-151641438D03*
D13*
X183339384Y-144169159D03*
D12*
X185374407Y-149760329D03*
D13*
X188790298Y-144526380D03*
D11*
X190542719Y-147879220D03*
%TD*%
%TO.C,S19*%
X249574076Y-131714451D03*
D13*
X252707365Y-124242172D03*
D12*
X254742388Y-129833342D03*
D13*
X258158279Y-124599393D03*
D11*
X259910700Y-127952233D03*
%TD*%
%TO.C,S1*%
X51580765Y-127952229D03*
D12*
X56749074Y-129833340D03*
D13*
X58784097Y-124242170D03*
X62730116Y-128019595D03*
D11*
X61917383Y-131714451D03*
%TD*%
D31*
%TO.C,D16*%
X94895174Y-166777329D03*
D32*
X96981573Y-167336378D03*
X100169129Y-168190478D03*
D16*
X102255528Y-168749527D03*
%TD*%
D14*
%TO.C,D11*%
X111436688Y-126326077D03*
D15*
X113466425Y-127064840D03*
X116567411Y-128193504D03*
D16*
X118597148Y-128932267D03*
%TD*%
D11*
%TO.C,S25*%
X210614840Y-129931770D03*
D13*
X213748129Y-122459491D03*
D12*
X215783152Y-128050661D03*
D13*
X219199043Y-122816712D03*
D11*
X220951464Y-126169552D03*
%TD*%
D14*
%TO.C,D1*%
X51458747Y-133228697D03*
D15*
X53488484Y-133967460D03*
X56589470Y-135096124D03*
D16*
X58619207Y-135834887D03*
%TD*%
D19*
%TO.C,D23*%
X226723247Y-116619544D03*
D20*
X228752984Y-115880779D03*
X231853966Y-114752115D03*
D16*
X233883703Y-114013350D03*
%TD*%
D19*
%TO.C,D30*%
X187079969Y-112957495D03*
D20*
X189109706Y-112218730D03*
X192210688Y-111090066D03*
D16*
X194240425Y-110351301D03*
%TD*%
D19*
%TO.C,D21*%
X241243573Y-103885329D03*
D20*
X243273310Y-103146564D03*
X246374292Y-102017900D03*
D16*
X248404029Y-101279135D03*
%TD*%
D33*
%TO.C,OLED1*%
X159545735Y-167160318D03*
D34*
X157005737Y-167160316D03*
X154465736Y-167160319D03*
X151925734Y-167160315D03*
%TD*%
D11*
%TO.C,S6*%
X83544124Y-92762107D03*
D12*
X88712433Y-94643218D03*
D13*
X90747456Y-89052048D03*
X94693475Y-92829473D03*
D11*
X93880742Y-96524329D03*
%TD*%
D17*
%TO.C,_1*%
X78191675Y-92410243D03*
X79044848Y-91479170D03*
X78246763Y-93671895D03*
X80306500Y-91424082D03*
D18*
X79742168Y-92974575D03*
D17*
X79177836Y-94525068D03*
X81237573Y-92277255D03*
X80439488Y-94469980D03*
X81292661Y-93538907D03*
%TD*%
D14*
%TO.C,D12*%
X117251023Y-110351311D03*
D15*
X119280760Y-111090074D03*
X122381746Y-112218738D03*
D16*
X124411483Y-112957501D03*
%TD*%
D14*
%TO.C,D7*%
X90417980Y-131446024D03*
D15*
X92447717Y-132184787D03*
X95548703Y-133313451D03*
D16*
X97578440Y-134052214D03*
%TD*%
D11*
%TO.C,S17*%
X115617477Y-168235264D03*
D12*
X120602168Y-170559665D03*
D13*
X123116750Y-165167135D03*
X126718529Y-169274104D03*
D11*
X125586859Y-172884066D03*
%TD*%
D19*
%TO.C,D33*%
X171875605Y-123812318D03*
D20*
X173905342Y-123073553D03*
X177006324Y-121944889D03*
D16*
X179036061Y-121206124D03*
%TD*%
D17*
%TO.C,_4*%
X123671277Y-181369525D03*
X123616195Y-182631175D03*
X124602354Y-180516354D03*
X125864004Y-180571436D03*
D18*
X125166685Y-182066844D03*
D17*
X124469366Y-183562252D03*
X125731016Y-183617334D03*
X126717175Y-181502513D03*
X126662093Y-182764163D03*
%TD*%
D11*
%TO.C,S32*%
X174391759Y-135666664D03*
D13*
X177525048Y-128194385D03*
D12*
X179560071Y-133785555D03*
D13*
X182975962Y-128551606D03*
D11*
X184728383Y-131904446D03*
%TD*%
%TO.C,S20*%
X243759731Y-115739658D03*
D13*
X246893020Y-108267379D03*
D12*
X248928043Y-113858549D03*
D13*
X252343934Y-108624600D03*
D11*
X254096355Y-111977440D03*
%TD*%
D17*
%TO.C,_3*%
X126540926Y-117457172D03*
X127394099Y-116526099D03*
X126596014Y-118718824D03*
X128655751Y-116471011D03*
D18*
X128091419Y-118021504D03*
D17*
X127527087Y-119571997D03*
X129586824Y-117324184D03*
X128788739Y-119516909D03*
X129641912Y-118585836D03*
%TD*%
D11*
%TO.C,S13*%
X120948740Y-147879207D03*
D12*
X126117049Y-149760318D03*
D13*
X128152072Y-144169148D03*
X132098091Y-147946573D03*
D11*
X131285358Y-151641429D03*
%TD*%
D17*
%TO.C,_6*%
X247641830Y-141463225D03*
X247696913Y-140201574D03*
X248495002Y-142394301D03*
X249756653Y-142449384D03*
D18*
X249192321Y-140898893D03*
D17*
X248627989Y-139348402D03*
X249889640Y-139403485D03*
X250687729Y-141596212D03*
X250742812Y-140334561D03*
%TD*%
D11*
%TO.C,S3*%
X63209462Y-96002674D03*
D12*
X68377771Y-97883785D03*
D13*
X70412794Y-92292615D03*
X74358813Y-96070040D03*
D11*
X73546080Y-99764896D03*
%TD*%
D19*
%TO.C,D25*%
X213913024Y-134052224D03*
D20*
X215942761Y-133313459D03*
X219043743Y-132184795D03*
D16*
X221073480Y-131446030D03*
%TD*%
D14*
%TO.C,D10*%
X105622342Y-142300863D03*
D15*
X107652079Y-143039626D03*
X110753065Y-144168290D03*
D16*
X112782802Y-144907053D03*
%TD*%
D11*
%TO.C,S9*%
X102168689Y-94219997D03*
D12*
X107336998Y-96101108D03*
D13*
X109372021Y-90509938D03*
X113318040Y-94287363D03*
D11*
X112505307Y-97982219D03*
%TD*%
%TO.C,S10*%
X105744373Y-137024377D03*
D12*
X110912682Y-138905488D03*
D13*
X112947705Y-133314318D03*
X116893724Y-137091743D03*
D11*
X116080991Y-140786599D03*
%TD*%
D14*
%TO.C,D5*%
X77607751Y-114013359D03*
D15*
X79637488Y-114752122D03*
X82738474Y-115880786D03*
D16*
X84768211Y-116619549D03*
%TD*%
D11*
%TO.C,S11*%
X111558714Y-121049603D03*
D12*
X116727023Y-122930714D03*
D13*
X118762046Y-117339544D03*
X122708065Y-121116969D03*
D11*
X121895332Y-124811825D03*
%TD*%
D14*
%TO.C,D15*%
X132455398Y-121206137D03*
D15*
X134485135Y-121944900D03*
X137586121Y-123073564D03*
D16*
X139615858Y-123812327D03*
%TD*%
D17*
%TO.C,_8*%
X184829380Y-182764170D03*
X184774293Y-181502518D03*
X185760454Y-183617343D03*
X185627466Y-180571444D03*
D18*
X186324786Y-182066850D03*
D17*
X187022106Y-183562256D03*
X186889118Y-180516357D03*
X187875279Y-182631182D03*
X187820192Y-181369530D03*
%TD*%
D14*
%TO.C,D6*%
X83422103Y-98038594D03*
D15*
X85451840Y-98777357D03*
X88552826Y-99906021D03*
D16*
X90582563Y-100644784D03*
%TD*%
D11*
%TO.C,S22*%
X229239408Y-128473880D03*
D13*
X232372697Y-121001601D03*
D12*
X234407720Y-126592771D03*
D13*
X237823611Y-121358822D03*
D11*
X239576032Y-124711662D03*
%TD*%
%TO.C,S4*%
X71915437Y-124711661D03*
D12*
X77083746Y-126592772D03*
D13*
X79118769Y-121001602D03*
X83064788Y-124779027D03*
D11*
X82252055Y-128473883D03*
%TD*%
%TO.C,S28*%
X195410470Y-140786608D03*
D13*
X198543759Y-133314329D03*
D12*
X200578782Y-138905499D03*
D13*
X203994673Y-133671550D03*
D11*
X205747094Y-137024390D03*
%TD*%
D19*
%TO.C,D26*%
X208098674Y-118077446D03*
D20*
X210128411Y-117338681D03*
X213229393Y-116210017D03*
D16*
X215259130Y-115471252D03*
%TD*%
D11*
%TO.C,S7*%
X90540009Y-126169548D03*
D12*
X95708318Y-128050659D03*
D13*
X97743341Y-122459489D03*
X101689360Y-126236914D03*
D11*
X100876627Y-129931770D03*
%TD*%
D17*
%TO.C,_7*%
X181849545Y-118585843D03*
X181904628Y-117324192D03*
X182702717Y-119516919D03*
X183964368Y-119572002D03*
D18*
X183400036Y-118021511D03*
D17*
X182835704Y-116471020D03*
X184097355Y-116526103D03*
X184895444Y-118718830D03*
X184950527Y-117457179D03*
%TD*%
D35*
%TO.C,D34*%
X209235946Y-168749516D03*
D36*
X211322347Y-168190465D03*
X214509899Y-167336363D03*
D16*
X216596300Y-166777312D03*
%TD*%
D11*
%TO.C,S12*%
X117373063Y-105074825D03*
D12*
X122541372Y-106955936D03*
D13*
X124576395Y-101364766D03*
X128522414Y-105142191D03*
D11*
X127709681Y-108837047D03*
%TD*%
M02*
