M48
; DRILL file {KiCad 8.0.1} date 2024-04-14T13:59:15+0900
; FORMAT={-:-/ absolute / inch / decimal}
; #@! TF.CreationDate,2024-04-14T13:59:15+09:00
; #@! TF.GenerationSoftware,Kicad,Pcbnew,8.0.1
; #@! TF.FileFunction,Plated,1,2,PTH
FMAT,2
INCH
; #@! TA.AperFunction,Plated,PTH,ViaDrill
T1C0.0157
; #@! TA.AperFunction,Plated,PTH,ComponentDrill
T2C0.0157
; #@! TA.AperFunction,Plated,PTH,ComponentDrill
T3C0.0390
; #@! TA.AperFunction,Plated,PTH,ComponentDrill
T4C0.0394
; #@! TA.AperFunction,Plated,PTH,ComponentDrill
T5C0.0430
; #@! TA.AperFunction,Plated,PTH,ComponentDrill
T6C0.0866
%
G90
G05
T1
X2.5434Y-3.8944
X3.366Y-3.8041
X7.0207Y-5.1603
X7.0531Y-5.8231
X7.7641Y-4.1892
T2
X2.3917Y-5.525
X2.3938Y-5.5747
X2.4253Y-5.4883
X2.4305Y-5.6082
X2.4749Y-5.4862
X2.4802Y-5.6061
X2.5116Y-5.5197
X2.5138Y-5.5694
X3.0784Y-3.6382
X3.0806Y-3.6879
X3.112Y-3.6015
X3.1172Y-3.7215
X3.1617Y-3.5994
X3.1669Y-3.7193
X3.1983Y-3.633
X3.2005Y-3.6826
X4.8668Y-7.1902
X4.8689Y-7.1405
X4.9004Y-7.2269
X4.9056Y-7.1069
X4.95Y-7.229
X4.9553Y-7.1091
X4.9819Y-4.6243
X4.9841Y-4.674
X4.9867Y-7.1954
X4.9889Y-7.1458
X5.0155Y-4.5876
X5.0208Y-4.7076
X5.0652Y-4.5855
X5.0704Y-4.7054
X5.1018Y-4.6191
X5.104Y-4.6687
X7.1594Y-4.6687
X7.1616Y-4.6191
X7.193Y-4.7054
X7.1983Y-4.5855
X7.2427Y-4.7076
X7.2479Y-4.5876
X7.2746Y-7.1458
X7.2767Y-7.1954
X7.2793Y-4.674
X7.2815Y-4.6243
X7.3082Y-7.1091
X7.3134Y-7.229
X7.3578Y-7.1069
X7.3631Y-7.2269
X7.3945Y-7.1405
X7.3967Y-7.1902
X9.0629Y-3.6826
X9.0651Y-3.633
X9.0965Y-3.7193
X9.1018Y-3.5994
X9.1462Y-3.7215
X9.1514Y-3.6015
X9.1829Y-3.6879
X9.185Y-3.6382
X9.7497Y-5.5694
X9.7518Y-5.5197
X9.7833Y-5.6061
X9.7885Y-5.4862
X9.8329Y-5.6082
X9.8382Y-5.4883
X9.8696Y-5.5747
X9.8718Y-5.525
T3
X2.0259Y-5.2452
X2.2548Y-4.6163
X2.3078Y-5.3478
X2.4838Y-3.9874
X2.5368Y-4.7189
X2.7657Y-4.09
X2.8265Y-5.1176
X3.0554Y-4.4887
X3.1084Y-5.2202
X3.2843Y-3.8598
X3.3373Y-4.5913
X3.5598Y-5.175
X3.5662Y-3.9624
X3.736Y-6.566
X3.7887Y-4.5461
X3.8417Y-5.2776
X4.0176Y-3.9172
X4.0258Y-6.6437
X4.0706Y-4.6487
X4.1584Y-5.6024
X4.2995Y-4.0198
X4.3873Y-4.9735
X4.4403Y-5.705
X4.529Y-6.83
X4.6162Y-4.3445
X4.6692Y-5.0761
X4.757Y-6.0298
X4.8009Y-6.9567
X4.8981Y-4.4471
X4.9859Y-5.4008
X5.0389Y-6.1324
X5.2148Y-4.7719
X5.2286Y-7.2981
X5.2678Y-5.5034
X5.4408Y-7.5103
X5.4967Y-4.8745
X6.7668Y-4.8745
X6.8227Y-7.5103
X6.9957Y-5.5034
X7.0348Y-7.2981
X7.0487Y-4.7719
X7.2246Y-6.1324
X7.2776Y-5.4008
X7.3654Y-4.4471
X7.4626Y-6.9567
X7.5065Y-6.0298
X7.5943Y-5.0761
X7.6473Y-4.3445
X7.7345Y-6.83
X7.8232Y-5.705
X7.8762Y-4.9735
X7.964Y-4.0198
X8.1051Y-5.6024
X8.1929Y-4.6487
X8.2376Y-6.6437
X8.2459Y-3.9172
X8.4218Y-5.2776
X8.4748Y-4.5461
X8.5274Y-6.566
X8.6972Y-3.9624
X8.7037Y-5.175
X8.9261Y-4.5913
X8.9791Y-3.8598
X9.155Y-5.2202
X9.208Y-4.4887
X9.4369Y-5.1176
X9.4978Y-4.09
X9.7267Y-4.7189
X9.7797Y-3.9874
X9.9556Y-5.3478
X10.0086Y-4.6163
X10.2375Y-5.2452
T4
X5.9813Y-6.5811
X6.0813Y-6.5811
X6.1813Y-6.5811
X6.2813Y-6.5811
T5
X5.8317Y-6.3461
X5.8317Y-5.3461
X5.8317Y-5.5461
X5.8317Y-5.7461
X5.8317Y-5.8461
X5.8317Y-6.0461
X5.8317Y-6.2461
X5.8317Y-5.9461
X5.8317Y-6.4461
X5.8317Y-5.4461
X5.8317Y-5.6461
X5.8317Y-6.1461
X6.4317Y-5.6461
X6.4317Y-6.1461
X6.4317Y-6.3461
X6.4317Y-5.3461
X6.4317Y-5.8461
X6.4317Y-5.5461
X6.4317Y-5.7461
X6.4317Y-5.9461
X6.4317Y-6.0461
X6.4317Y-6.2461
X6.4317Y-6.4461
X6.4317Y-5.4461
T6
X2.4527Y-5.5472
X3.1395Y-3.6604
X4.9278Y-7.168
X5.043Y-4.6465
X7.2205Y-4.6465
X7.3356Y-7.168
X9.124Y-3.6604
X9.8107Y-5.5472
M30
