%TF.GenerationSoftware,KiCad,Pcbnew,8.0.1*%
%TF.CreationDate,2024-04-14T13:59:20+09:00*%
%TF.ProjectId,lazyboy36,6c617a79-626f-4793-9336-2e6b69636164,v1.0.0*%
%TF.SameCoordinates,Original*%
%TF.FileFunction,Drillmap*%
%TF.FilePolarity,Positive*%
%FSLAX45Y45*%
G04 Gerber Fmt 4.5, Leading zero omitted, Abs format (unit mm)*
G04 Created by KiCad (PCBNEW 8.0.1) date 2024-04-14 13:59:20*
%MOMM*%
%LPD*%
G01*
G04 APERTURE LIST*
%ADD10C,0.150000*%
%ADD11C,0.200000*%
%ADD12C,0.170180*%
%ADD13C,0.300000*%
%ADD14C,0.342900*%
G04 APERTURE END LIST*
D10*
X17228151Y-19973355D02*
X13920996Y-19973357D01*
X24869697Y-8406959D02*
G75*
G02*
X25026162Y-8536061I-31467J-197501D01*
G01*
X26817430Y-13457536D02*
G75*
G02*
X26752947Y-13683290I-187940J-68404D01*
G01*
X6122987Y-8536062D02*
G75*
G02*
X6279449Y-8406958I187943J-68408D01*
G01*
X8640805Y-17013595D02*
X4396199Y-13683289D01*
X14871552Y-12768099D02*
G75*
G02*
X14683604Y-12499692I-12J199999D01*
G01*
X16465533Y-12499695D02*
X16033783Y-11313471D01*
X4396199Y-13683291D02*
G75*
G02*
X4331718Y-13457538I123431J157341D01*
G01*
X16465532Y-12499695D02*
G75*
G02*
X16277594Y-12768091I-187943J-68395D01*
G01*
X12148670Y-9015496D02*
X15043634Y-11082292D01*
X6279449Y-8406958D02*
X8173272Y-8105156D01*
X13920996Y-19973357D02*
G75*
G02*
X13822523Y-19947432I4J199997D01*
G01*
X13822522Y-19947434D02*
X8665787Y-17030323D01*
X16033783Y-11313471D02*
G75*
G02*
X16105513Y-11082293I187947J68401D01*
G01*
X22508342Y-17013596D02*
G75*
G02*
X22483359Y-17030323I-123392J157266D01*
G01*
X8173272Y-8105156D02*
G75*
G02*
X8220356Y-8103274I31468J-197404D01*
G01*
X22483360Y-17030324D02*
X17326624Y-19947432D01*
X21117166Y-8245085D02*
X22928792Y-8103274D01*
X25026159Y-8536062D02*
X26817431Y-13457537D01*
X8665787Y-17030323D02*
G75*
G02*
X8640806Y-17013595I98543J174173D01*
G01*
X14871552Y-12768099D02*
X16277594Y-12768099D01*
X19000477Y-9015497D02*
G75*
G02*
X19048281Y-8990333I116214J-162783D01*
G01*
X22928792Y-8103275D02*
G75*
G02*
X22975874Y-8105155I15608J-199575D01*
G01*
X15043634Y-11082292D02*
G75*
G02*
X15115365Y-11313472I-116214J-162778D01*
G01*
X17326624Y-19947432D02*
G75*
G02*
X17228151Y-19973357I-98474J174062D01*
G01*
X26752947Y-13683291D02*
X22508342Y-17013596D01*
X15115363Y-11313471D02*
X14683613Y-12499696D01*
X8220356Y-8103274D02*
X10031981Y-8245085D01*
X16105512Y-11082292D02*
X19000476Y-9015497D01*
X10031981Y-8245085D02*
G75*
G02*
X10084777Y-8256536I-15601J-199375D01*
G01*
X21064369Y-8256537D02*
G75*
G02*
X21117166Y-8245085I68401J-187913D01*
G01*
X10084777Y-8256536D02*
X12100866Y-8990333D01*
X12100866Y-8990333D02*
G75*
G02*
X12148670Y-9015497I-68436J-187997D01*
G01*
X22975874Y-8105155D02*
X24869695Y-8406959D01*
X19048281Y-8990333D02*
X21064369Y-8256537D01*
X4331717Y-13457537D02*
X6122987Y-8536062D01*
D11*
D12*
X5072987Y-12710133D02*
X5243167Y-12880313D01*
X5243167Y-12710133D02*
X5072987Y-12880313D01*
X5654421Y-11112654D02*
X5824601Y-11282834D01*
X5824601Y-11112654D02*
X5654421Y-11282834D01*
X6106648Y-13086355D02*
X6276828Y-13256535D01*
X6276828Y-13086355D02*
X6106648Y-13256535D01*
X6235856Y-9515177D02*
X6406036Y-9685357D01*
X6406036Y-9515177D02*
X6235856Y-9685357D01*
X6688082Y-11488876D02*
X6858262Y-11659056D01*
X6858262Y-11488876D02*
X6688082Y-11659056D01*
X7106454Y-12386076D02*
X7276634Y-12556256D01*
X7276634Y-12386076D02*
X7106454Y-12556256D01*
X7269518Y-9891400D02*
X7439698Y-10061580D01*
X7439698Y-9891400D02*
X7269518Y-10061580D01*
X7687888Y-10788598D02*
X7858068Y-10958778D01*
X7858068Y-10788598D02*
X7687888Y-10958778D01*
X8140115Y-12762298D02*
X8310295Y-12932478D01*
X8310295Y-12762298D02*
X8140115Y-12932478D01*
X8269322Y-9191121D02*
X8439502Y-9361301D01*
X8439502Y-9191121D02*
X8269322Y-9361301D01*
X8721550Y-11164821D02*
X8891730Y-11335000D01*
X8891730Y-11164821D02*
X8721550Y-11335000D01*
X8968911Y-12531865D02*
X9139091Y-12702045D01*
X9139091Y-12531865D02*
X8968911Y-12702045D01*
X9302984Y-9567343D02*
X9473164Y-9737523D01*
X9473164Y-9567343D02*
X9302984Y-9737523D01*
X9370594Y-16065939D02*
X9540774Y-16236119D01*
X9540774Y-16065939D02*
X9370594Y-16236119D01*
X9550345Y-10934389D02*
X9720525Y-11104569D01*
X9720525Y-10934389D02*
X9550345Y-11104569D01*
X10002573Y-12908087D02*
X10172753Y-13078267D01*
X10172753Y-12908087D02*
X10002573Y-13078267D01*
X10131779Y-9336910D02*
X10301959Y-9507090D01*
X10301959Y-9336910D02*
X10131779Y-9507090D01*
X10433113Y-16350640D02*
X10603293Y-16520820D01*
X10603293Y-16350640D02*
X10433113Y-16520820D01*
X10489347Y-13617348D02*
X10659527Y-13787528D01*
X10659527Y-13617348D02*
X10489347Y-13787528D01*
X10584006Y-11310611D02*
X10754186Y-11480791D01*
X10754186Y-11310611D02*
X10584006Y-11480791D01*
X11070781Y-12019870D02*
X11240961Y-12190050D01*
X11240961Y-12019870D02*
X11070781Y-12190050D01*
X11165441Y-9713132D02*
X11335621Y-9883312D01*
X11335621Y-9713132D02*
X11165441Y-9883312D01*
X11476658Y-16738436D02*
X11646838Y-16908616D01*
X11646838Y-16738436D02*
X11476658Y-16908616D01*
X11523009Y-13993570D02*
X11693189Y-14163750D01*
X11693189Y-13993570D02*
X11523009Y-14163750D01*
X11652216Y-10422393D02*
X11822396Y-10592573D01*
X11822396Y-10422393D02*
X11652216Y-10592573D01*
X12009784Y-14702831D02*
X12179964Y-14873011D01*
X12179964Y-14702831D02*
X12009784Y-14873011D01*
X12104443Y-12396092D02*
X12274623Y-12566272D01*
X12274623Y-12396092D02*
X12104443Y-12566272D01*
X12473596Y-17203317D02*
X12643776Y-17373497D01*
X12643776Y-17203317D02*
X12473596Y-17373497D01*
X12591218Y-13105352D02*
X12761398Y-13275532D01*
X12761398Y-13105352D02*
X12591218Y-13275532D01*
X12685878Y-10798615D02*
X12856058Y-10968795D01*
X12856058Y-10798615D02*
X12685878Y-10968795D01*
X13043446Y-15079053D02*
X13213626Y-15249233D01*
X13213626Y-15079053D02*
X13043446Y-15249233D01*
X13172652Y-11507876D02*
X13342832Y-11678056D01*
X13342832Y-11507876D02*
X13172652Y-11678056D01*
X13429704Y-17979078D02*
X13599884Y-18149258D01*
X13599884Y-17979078D02*
X13429704Y-18149258D01*
X13624880Y-13481574D02*
X13795060Y-13651754D01*
X13795060Y-13481574D02*
X13624880Y-13651754D01*
X14206314Y-11884098D02*
X14376494Y-12054278D01*
X14376494Y-11884098D02*
X14206314Y-12054278D01*
X14207521Y-18756895D02*
X14377701Y-18927075D01*
X14377701Y-18756895D02*
X14207521Y-18927075D01*
X16771445Y-18756895D02*
X16941625Y-18927075D01*
X16941625Y-18756895D02*
X16771445Y-18927075D01*
X16772652Y-11884097D02*
X16942832Y-12054277D01*
X16942832Y-11884097D02*
X16772652Y-12054277D01*
X17354086Y-13481576D02*
X17524266Y-13651756D01*
X17524266Y-13481576D02*
X17354086Y-13651756D01*
X17549263Y-17979078D02*
X17719443Y-18149258D01*
X17719443Y-17979078D02*
X17549263Y-18149258D01*
X17806314Y-11507875D02*
X17976494Y-11678055D01*
X17976494Y-11507875D02*
X17806314Y-11678055D01*
X17935520Y-15079054D02*
X18105700Y-15249234D01*
X18105700Y-15079054D02*
X17935520Y-15249234D01*
X18293089Y-10798615D02*
X18463269Y-10968795D01*
X18463269Y-10798615D02*
X18293089Y-10968795D01*
X18387748Y-13105355D02*
X18557928Y-13275535D01*
X18557928Y-13105355D02*
X18387748Y-13275535D01*
X18505371Y-17203317D02*
X18675551Y-17373497D01*
X18675551Y-17203317D02*
X18505371Y-17373497D01*
X18874523Y-12396093D02*
X19044703Y-12566273D01*
X19044703Y-12396093D02*
X18874523Y-12566273D01*
X18969182Y-14702832D02*
X19139362Y-14873012D01*
X19139362Y-14702832D02*
X18969182Y-14873012D01*
X19326751Y-10422393D02*
X19496931Y-10592573D01*
X19496931Y-10422393D02*
X19326751Y-10592573D01*
X19455957Y-13993571D02*
X19626137Y-14163751D01*
X19626137Y-13993571D02*
X19455957Y-14163751D01*
X19502309Y-16738437D02*
X19672489Y-16908617D01*
X19672489Y-16738437D02*
X19502309Y-16908617D01*
X19813526Y-9713133D02*
X19983706Y-9883313D01*
X19983706Y-9713133D02*
X19813526Y-9883313D01*
X19908185Y-12019872D02*
X20078365Y-12190052D01*
X20078365Y-12019872D02*
X19908185Y-12190052D01*
X20394959Y-11310610D02*
X20565139Y-11480790D01*
X20565139Y-11310610D02*
X20394959Y-11480790D01*
X20489619Y-13617349D02*
X20659799Y-13787529D01*
X20659799Y-13617349D02*
X20489619Y-13787529D01*
X20545854Y-16350640D02*
X20716034Y-16520820D01*
X20716034Y-16350640D02*
X20545854Y-16520820D01*
X20847188Y-9336911D02*
X21017368Y-9507091D01*
X21017368Y-9336911D02*
X20847188Y-9507091D01*
X20976394Y-12908087D02*
X21146574Y-13078267D01*
X21146574Y-12908087D02*
X20976394Y-13078267D01*
X21428621Y-10934388D02*
X21598801Y-11104568D01*
X21598801Y-10934388D02*
X21428621Y-11104568D01*
X21608372Y-16065940D02*
X21778552Y-16236120D01*
X21778552Y-16065940D02*
X21608372Y-16236120D01*
X21675982Y-9567342D02*
X21846162Y-9737522D01*
X21846162Y-9567342D02*
X21675982Y-9737522D01*
X22010056Y-12531865D02*
X22180236Y-12702045D01*
X22180236Y-12531865D02*
X22010056Y-12702045D01*
X22257417Y-11164821D02*
X22427597Y-11335000D01*
X22427597Y-11164821D02*
X22257417Y-11335000D01*
X22709644Y-9191120D02*
X22879824Y-9361300D01*
X22879824Y-9191120D02*
X22709644Y-9361300D01*
X22838851Y-12762298D02*
X23009031Y-12932478D01*
X23009031Y-12762298D02*
X22838851Y-12932478D01*
X23291080Y-10788599D02*
X23461260Y-10958779D01*
X23461260Y-10788599D02*
X23291080Y-10958779D01*
X23709448Y-9891399D02*
X23879628Y-10061579D01*
X23879628Y-9891399D02*
X23709448Y-10061579D01*
X23872513Y-12386076D02*
X24042693Y-12556256D01*
X24042693Y-12386076D02*
X23872513Y-12556256D01*
X24290883Y-11488876D02*
X24461063Y-11659056D01*
X24461063Y-11488876D02*
X24290883Y-11659056D01*
X24743111Y-9515178D02*
X24913291Y-9685358D01*
X24913291Y-9515178D02*
X24743111Y-9685358D01*
X24872318Y-13086355D02*
X25042498Y-13256535D01*
X25042498Y-13086355D02*
X24872318Y-13256535D01*
X25324545Y-11112654D02*
X25494725Y-11282834D01*
X25494725Y-11112654D02*
X25324545Y-11282834D01*
X25905980Y-12710133D02*
X26076160Y-12880313D01*
X26076160Y-12710133D02*
X25905980Y-12880313D01*
D13*
X6028410Y-12424217D02*
G75*
G02*
X5728410Y-12424217I-150000J0D01*
G01*
X5728410Y-12424217D02*
G75*
G02*
X6028410Y-12424217I150000J0D01*
G01*
X6423012Y-12801959D02*
G75*
G02*
X6123012Y-12801959I-150000J0D01*
G01*
X6123012Y-12801959D02*
G75*
G02*
X6423012Y-12801959I150000J0D01*
G01*
X6609844Y-10826738D02*
G75*
G02*
X6309844Y-10826738I-150000J0D01*
G01*
X6309844Y-10826738D02*
G75*
G02*
X6609844Y-10826738I150000J0D01*
G01*
X7004446Y-11204480D02*
G75*
G02*
X6704446Y-11204480I-150000J0D01*
G01*
X6704446Y-11204480D02*
G75*
G02*
X7004446Y-11204480I150000J0D01*
G01*
X7191279Y-9229262D02*
G75*
G02*
X6891279Y-9229262I-150000J0D01*
G01*
X6891279Y-9229262D02*
G75*
G02*
X7191279Y-9229262I150000J0D01*
G01*
X7585881Y-9607004D02*
G75*
G02*
X7285881Y-9607004I-150000J0D01*
G01*
X7285881Y-9607004D02*
G75*
G02*
X7585881Y-9607004I150000J0D01*
G01*
X8061877Y-12100160D02*
G75*
G02*
X7761877Y-12100160I-150000J0D01*
G01*
X7761877Y-12100160D02*
G75*
G02*
X8061877Y-12100160I150000J0D01*
G01*
X8456479Y-12477903D02*
G75*
G02*
X8156479Y-12477903I-150000J0D01*
G01*
X8156479Y-12477903D02*
G75*
G02*
X8456479Y-12477903I150000J0D01*
G01*
X8643312Y-10502682D02*
G75*
G02*
X8343312Y-10502682I-150000J0D01*
G01*
X8343312Y-10502682D02*
G75*
G02*
X8643312Y-10502682I150000J0D01*
G01*
X9037914Y-10880425D02*
G75*
G02*
X8737914Y-10880425I-150000J0D01*
G01*
X8737914Y-10880425D02*
G75*
G02*
X9037914Y-10880425I150000J0D01*
G01*
X9224746Y-8905205D02*
G75*
G02*
X8924746Y-8905205I-150000J0D01*
G01*
X8924746Y-8905205D02*
G75*
G02*
X9224746Y-8905205I150000J0D01*
G01*
X9619348Y-9282947D02*
G75*
G02*
X9319348Y-9282947I-150000J0D01*
G01*
X9319348Y-9282947D02*
G75*
G02*
X9619348Y-9282947I150000J0D01*
G01*
X9924334Y-12245949D02*
G75*
G02*
X9624334Y-12245949I-150000J0D01*
G01*
X9624334Y-12245949D02*
G75*
G02*
X9924334Y-12245949I150000J0D01*
G01*
X10290941Y-15718654D02*
G75*
G02*
X9990941Y-15718654I-150000J0D01*
G01*
X9990941Y-15718654D02*
G75*
G02*
X10290941Y-15718654I150000J0D01*
G01*
X10318936Y-12623691D02*
G75*
G02*
X10018936Y-12623691I-150000J0D01*
G01*
X10018936Y-12623691D02*
G75*
G02*
X10318936Y-12623691I150000J0D01*
G01*
X10505768Y-10648473D02*
G75*
G02*
X10205768Y-10648473I-150000J0D01*
G01*
X10205768Y-10648473D02*
G75*
G02*
X10505768Y-10648473I150000J0D01*
G01*
X10716964Y-16060567D02*
G75*
G02*
X10416964Y-16060567I-150000J0D01*
G01*
X10416964Y-16060567D02*
G75*
G02*
X10716964Y-16060567I150000J0D01*
G01*
X10900370Y-11026215D02*
G75*
G02*
X10600370Y-11026215I-150000J0D01*
G01*
X10600370Y-11026215D02*
G75*
G02*
X10900370Y-11026215I150000J0D01*
G01*
X11087202Y-9050994D02*
G75*
G02*
X10787202Y-9050994I-150000J0D01*
G01*
X10787202Y-9050994D02*
G75*
G02*
X11087202Y-9050994I150000J0D01*
G01*
X11444770Y-13331432D02*
G75*
G02*
X11144771Y-13331432I-150000J0D01*
G01*
X11144771Y-13331432D02*
G75*
G02*
X11444770Y-13331432I150000J0D01*
G01*
X11481804Y-9428736D02*
G75*
G02*
X11181804Y-9428736I-150000J0D01*
G01*
X11181804Y-9428736D02*
G75*
G02*
X11481804Y-9428736I150000J0D01*
G01*
X11839372Y-13709174D02*
G75*
G02*
X11539372Y-13709174I-150000J0D01*
G01*
X11539372Y-13709174D02*
G75*
G02*
X11839372Y-13709174I150000J0D01*
G01*
X12026205Y-11733954D02*
G75*
G02*
X11726205Y-11733954I-150000J0D01*
G01*
X11726205Y-11733954D02*
G75*
G02*
X12026205Y-11733954I150000J0D01*
G01*
X12420806Y-12111697D02*
G75*
G02*
X12120806Y-12111697I-150000J0D01*
G01*
X12120806Y-12111697D02*
G75*
G02*
X12420806Y-12111697I150000J0D01*
G01*
X12461675Y-16516713D02*
G75*
G02*
X12161675Y-16516713I-150000J0D01*
G01*
X12161675Y-16516713D02*
G75*
G02*
X12461675Y-16516713I150000J0D01*
G01*
X12607639Y-10136477D02*
G75*
G02*
X12307639Y-10136477I-150000J0D01*
G01*
X12307639Y-10136477D02*
G75*
G02*
X12607639Y-10136477I150000J0D01*
G01*
X12821853Y-16927410D02*
G75*
G02*
X12521853Y-16927410I-150000J0D01*
G01*
X12521853Y-16927410D02*
G75*
G02*
X12821853Y-16927410I150000J0D01*
G01*
X12965207Y-14416915D02*
G75*
G02*
X12665207Y-14416915I-150000J0D01*
G01*
X12665207Y-14416915D02*
G75*
G02*
X12965207Y-14416915I150000J0D01*
G01*
X13002241Y-10514219D02*
G75*
G02*
X12702241Y-10514219I-150000J0D01*
G01*
X12702241Y-10514219D02*
G75*
G02*
X13002241Y-10514219I150000J0D01*
G01*
X13359809Y-14794657D02*
G75*
G02*
X13059809Y-14794657I-150000J0D01*
G01*
X13059809Y-14794657D02*
G75*
G02*
X13359809Y-14794657I150000J0D01*
G01*
X13546641Y-12819436D02*
G75*
G02*
X13246641Y-12819436I-150000J0D01*
G01*
X13246641Y-12819436D02*
G75*
G02*
X13546641Y-12819436I150000J0D01*
G01*
X13941243Y-13197179D02*
G75*
G02*
X13641243Y-13197179I-150000J0D01*
G01*
X13641243Y-13197179D02*
G75*
G02*
X13941243Y-13197179I150000J0D01*
G01*
X14128075Y-11221960D02*
G75*
G02*
X13828075Y-11221960I-150000J0D01*
G01*
X13828075Y-11221960D02*
G75*
G02*
X14128075Y-11221960I150000J0D01*
G01*
X14474431Y-18032348D02*
G75*
G02*
X14174431Y-18032348I-150000J0D01*
G01*
X14174431Y-18032348D02*
G75*
G02*
X14474431Y-18032348I150000J0D01*
G01*
X14522677Y-11599702D02*
G75*
G02*
X14222677Y-11599702I-150000J0D01*
G01*
X14222677Y-11599702D02*
G75*
G02*
X14522677Y-11599702I150000J0D01*
G01*
X14672421Y-18541465D02*
G75*
G02*
X14372421Y-18541465I-150000J0D01*
G01*
X14372421Y-18541465D02*
G75*
G02*
X14672421Y-18541465I150000J0D01*
G01*
X16974715Y-18032348D02*
G75*
G02*
X16674715Y-18032348I-150000J0D01*
G01*
X16674715Y-18032348D02*
G75*
G02*
X16974715Y-18032348I150000J0D01*
G01*
X17321071Y-11221959D02*
G75*
G02*
X17021071Y-11221959I-150000J0D01*
G01*
X17021071Y-11221959D02*
G75*
G02*
X17321071Y-11221959I150000J0D01*
G01*
X17483833Y-17834358D02*
G75*
G02*
X17183833Y-17834358I-150000J0D01*
G01*
X17183833Y-17834358D02*
G75*
G02*
X17483833Y-17834358I150000J0D01*
G01*
X17866162Y-11257681D02*
G75*
G02*
X17566162Y-11257681I-150000J0D01*
G01*
X17566162Y-11257681D02*
G75*
G02*
X17866162Y-11257681I150000J0D01*
G01*
X17902505Y-12819438D02*
G75*
G02*
X17602505Y-12819438I-150000J0D01*
G01*
X17602505Y-12819438D02*
G75*
G02*
X17902505Y-12819438I150000J0D01*
G01*
X18447596Y-12855161D02*
G75*
G02*
X18147596Y-12855161I-150000J0D01*
G01*
X18147596Y-12855161D02*
G75*
G02*
X18447596Y-12855161I150000J0D01*
G01*
X18483938Y-14416916D02*
G75*
G02*
X18183938Y-14416916I-150000J0D01*
G01*
X18183938Y-14416916D02*
G75*
G02*
X18483938Y-14416916I150000J0D01*
G01*
X18841508Y-10136477D02*
G75*
G02*
X18541508Y-10136477I-150000J0D01*
G01*
X18541508Y-10136477D02*
G75*
G02*
X18841508Y-10136477I150000J0D01*
G01*
X18987471Y-16516714D02*
G75*
G02*
X18687471Y-16516714I-150000J0D01*
G01*
X18687471Y-16516714D02*
G75*
G02*
X18987471Y-16516714I150000J0D01*
G01*
X19029030Y-14452638D02*
G75*
G02*
X18729030Y-14452638I-150000J0D01*
G01*
X18729030Y-14452638D02*
G75*
G02*
X19029030Y-14452638I150000J0D01*
G01*
X19386599Y-10172199D02*
G75*
G02*
X19086599Y-10172199I-150000J0D01*
G01*
X19086599Y-10172199D02*
G75*
G02*
X19386599Y-10172199I150000J0D01*
G01*
X19422941Y-11733956D02*
G75*
G02*
X19122941Y-11733956I-150000J0D01*
G01*
X19122941Y-11733956D02*
G75*
G02*
X19422941Y-11733956I150000J0D01*
G01*
X19533602Y-16504792D02*
G75*
G02*
X19233602Y-16504792I-150000J0D01*
G01*
X19233602Y-16504792D02*
G75*
G02*
X19533602Y-16504792I150000J0D01*
G01*
X19968033Y-11769678D02*
G75*
G02*
X19668033Y-11769678I-150000J0D01*
G01*
X19668033Y-11769678D02*
G75*
G02*
X19968033Y-11769678I150000J0D01*
G01*
X20004376Y-13331433D02*
G75*
G02*
X19704376Y-13331433I-150000J0D01*
G01*
X19704376Y-13331433D02*
G75*
G02*
X20004376Y-13331433I150000J0D01*
G01*
X20361945Y-9050995D02*
G75*
G02*
X20061945Y-9050995I-150000J0D01*
G01*
X20061945Y-9050995D02*
G75*
G02*
X20361945Y-9050995I150000J0D01*
G01*
X20549467Y-13367155D02*
G75*
G02*
X20249467Y-13367155I-150000J0D01*
G01*
X20249467Y-13367155D02*
G75*
G02*
X20549467Y-13367155I150000J0D01*
G01*
X20907036Y-9086717D02*
G75*
G02*
X20607036Y-9086717I-150000J0D01*
G01*
X20607036Y-9086717D02*
G75*
G02*
X20907036Y-9086717I150000J0D01*
G01*
X20943378Y-10648472D02*
G75*
G02*
X20643378Y-10648472I-150000J0D01*
G01*
X20643378Y-10648472D02*
G75*
G02*
X20943378Y-10648472I150000J0D01*
G01*
X21158206Y-15718654D02*
G75*
G02*
X20858206Y-15718654I-150000J0D01*
G01*
X20858206Y-15718654D02*
G75*
G02*
X21158206Y-15718654I150000J0D01*
G01*
X21488469Y-10684194D02*
G75*
G02*
X21188469Y-10684194I-150000J0D01*
G01*
X21188469Y-10684194D02*
G75*
G02*
X21488469Y-10684194I150000J0D01*
G01*
X21524813Y-12245949D02*
G75*
G02*
X21224813Y-12245949I-150000J0D01*
G01*
X21224813Y-12245949D02*
G75*
G02*
X21524813Y-12245949I150000J0D01*
G01*
X21698109Y-15801748D02*
G75*
G02*
X21398109Y-15801748I-150000J0D01*
G01*
X21398109Y-15801748D02*
G75*
G02*
X21698109Y-15801748I150000J0D01*
G01*
X22069904Y-12281671D02*
G75*
G02*
X21769904Y-12281671I-150000J0D01*
G01*
X21769904Y-12281671D02*
G75*
G02*
X22069904Y-12281671I150000J0D01*
G01*
X22224401Y-8905204D02*
G75*
G02*
X21924401Y-8905204I-150000J0D01*
G01*
X21924401Y-8905204D02*
G75*
G02*
X22224401Y-8905204I150000J0D01*
G01*
X22769492Y-8940926D02*
G75*
G02*
X22469492Y-8940926I-150000J0D01*
G01*
X22469492Y-8940926D02*
G75*
G02*
X22769492Y-8940926I150000J0D01*
G01*
X22805836Y-10502683D02*
G75*
G02*
X22505836Y-10502683I-150000J0D01*
G01*
X22505836Y-10502683D02*
G75*
G02*
X22805836Y-10502683I150000J0D01*
G01*
X23350927Y-10538405D02*
G75*
G02*
X23050927Y-10538405I-150000J0D01*
G01*
X23050927Y-10538405D02*
G75*
G02*
X23350927Y-10538405I150000J0D01*
G01*
X23387270Y-12100160D02*
G75*
G02*
X23087270Y-12100160I-150000J0D01*
G01*
X23087270Y-12100160D02*
G75*
G02*
X23387270Y-12100160I150000J0D01*
G01*
X23932361Y-12135882D02*
G75*
G02*
X23632361Y-12135882I-150000J0D01*
G01*
X23632361Y-12135882D02*
G75*
G02*
X23932361Y-12135882I150000J0D01*
G01*
X24257867Y-9229261D02*
G75*
G02*
X23957867Y-9229261I-150000J0D01*
G01*
X23957867Y-9229261D02*
G75*
G02*
X24257867Y-9229261I150000J0D01*
G01*
X24802959Y-9264984D02*
G75*
G02*
X24502959Y-9264984I-150000J0D01*
G01*
X24502959Y-9264984D02*
G75*
G02*
X24802959Y-9264984I150000J0D01*
G01*
X24839302Y-10826738D02*
G75*
G02*
X24539302Y-10826738I-150000J0D01*
G01*
X24539302Y-10826738D02*
G75*
G02*
X24839302Y-10826738I150000J0D01*
G01*
X25384393Y-10862460D02*
G75*
G02*
X25084393Y-10862460I-150000J0D01*
G01*
X25084393Y-10862460D02*
G75*
G02*
X25384393Y-10862460I150000J0D01*
G01*
X25420736Y-12424217D02*
G75*
G02*
X25120736Y-12424217I-150000J0D01*
G01*
X25120736Y-12424217D02*
G75*
G02*
X25420736Y-12424217I150000J0D01*
G01*
X25965828Y-12459939D02*
G75*
G02*
X25665828Y-12459939I-150000J0D01*
G01*
X25665828Y-12459939D02*
G75*
G02*
X25965828Y-12459939I150000J0D01*
G01*
D14*
X5674907Y-12811884D02*
X5674907Y-13154784D01*
X5503457Y-12983334D02*
X5846357Y-12983334D01*
X6256342Y-11214405D02*
X6256342Y-11557305D01*
X6084892Y-11385855D02*
X6427792Y-11385855D01*
X6837777Y-9616929D02*
X6837777Y-9959829D01*
X6666327Y-9788379D02*
X7009227Y-9788379D01*
X7708375Y-12487827D02*
X7708375Y-12830727D01*
X7536925Y-12659277D02*
X7879825Y-12659277D01*
X8289809Y-10890349D02*
X8289809Y-11233249D01*
X8118359Y-11061799D02*
X8461259Y-11061799D01*
X8871243Y-9292872D02*
X8871243Y-9635772D01*
X8699793Y-9464322D02*
X9042693Y-9464322D01*
X9570832Y-12633616D02*
X9570832Y-12976516D01*
X9399382Y-12805066D02*
X9742282Y-12805066D01*
X9986944Y-16121929D02*
X9986944Y-16464829D01*
X9815494Y-16293379D02*
X10158394Y-16293379D01*
X10152266Y-11036140D02*
X10152266Y-11379040D01*
X9980816Y-11207590D02*
X10323716Y-11207590D01*
X10733700Y-9438661D02*
X10733700Y-9781561D01*
X10562250Y-9610111D02*
X10905150Y-9610111D01*
X11091268Y-13719099D02*
X11091268Y-14061999D01*
X10919818Y-13890549D02*
X11262718Y-13890549D01*
X11672702Y-12121621D02*
X11672702Y-12464521D01*
X11501252Y-12293071D02*
X11844152Y-12293071D01*
X12060217Y-16884517D02*
X12060217Y-17227417D01*
X11888767Y-17055967D02*
X12231667Y-17055967D01*
X12254137Y-10524144D02*
X12254137Y-10867044D01*
X12082687Y-10695594D02*
X12425587Y-10695594D01*
X12611705Y-14804582D02*
X12611705Y-15147482D01*
X12440255Y-14976032D02*
X12783155Y-14976032D01*
X13193139Y-13207103D02*
X13193139Y-13550003D01*
X13021689Y-13378553D02*
X13364589Y-13378553D01*
X13774573Y-11609627D02*
X13774573Y-11952527D01*
X13603123Y-11781077D02*
X13946023Y-11781077D01*
X13903702Y-18281627D02*
X13903702Y-18624527D01*
X13732252Y-18453077D02*
X14075152Y-18453077D01*
X17245444Y-18281627D02*
X17245444Y-18624527D01*
X17073994Y-18453077D02*
X17416894Y-18453077D01*
X17374573Y-11609626D02*
X17374573Y-11952526D01*
X17203123Y-11781076D02*
X17546023Y-11781076D01*
X17956007Y-13207105D02*
X17956007Y-13550005D01*
X17784557Y-13378555D02*
X18127457Y-13378555D01*
X18537441Y-14804583D02*
X18537441Y-15147483D01*
X18365991Y-14976033D02*
X18708891Y-14976033D01*
X18895010Y-10524144D02*
X18895010Y-10867044D01*
X18723560Y-10695594D02*
X19066460Y-10695594D01*
X19088930Y-16884517D02*
X19088930Y-17227417D01*
X18917480Y-17055967D02*
X19260380Y-17055967D01*
X19476444Y-12121623D02*
X19476444Y-12464523D01*
X19304994Y-12293073D02*
X19647894Y-12293073D01*
X20057878Y-13719100D02*
X20057878Y-14062000D01*
X19886428Y-13890550D02*
X20229328Y-13890550D01*
X20415447Y-9438662D02*
X20415447Y-9781562D01*
X20243997Y-9610112D02*
X20586897Y-9610112D01*
X20996880Y-11036139D02*
X20996880Y-11379039D01*
X20825430Y-11207589D02*
X21168330Y-11207589D01*
X21162203Y-16121930D02*
X21162203Y-16464830D01*
X20990753Y-16293380D02*
X21333653Y-16293380D01*
X21578315Y-12633616D02*
X21578315Y-12976516D01*
X21406865Y-12805066D02*
X21749765Y-12805066D01*
X22277903Y-9292871D02*
X22277903Y-9635771D01*
X22106453Y-9464321D02*
X22449353Y-9464321D01*
X22859338Y-10890350D02*
X22859338Y-11233250D01*
X22687888Y-11061800D02*
X23030788Y-11061800D01*
X23440772Y-12487827D02*
X23440772Y-12830727D01*
X23269322Y-12659277D02*
X23612222Y-12659277D01*
X24311370Y-9616928D02*
X24311370Y-9959828D01*
X24139920Y-9788378D02*
X24482820Y-9788378D01*
X24892804Y-11214405D02*
X24892804Y-11557305D01*
X24721354Y-11385855D02*
X25064254Y-11385855D01*
X25474239Y-12811884D02*
X25474239Y-13154784D01*
X25302789Y-12983334D02*
X25645689Y-12983334D01*
D11*
X4572929Y-20292341D02*
X4572929Y-20092341D01*
X4572929Y-20092341D02*
X4620548Y-20092341D01*
X4620548Y-20092341D02*
X4649119Y-20101865D01*
X4649119Y-20101865D02*
X4668167Y-20120912D01*
X4668167Y-20120912D02*
X4677690Y-20139960D01*
X4677690Y-20139960D02*
X4687214Y-20178055D01*
X4687214Y-20178055D02*
X4687214Y-20206626D01*
X4687214Y-20206626D02*
X4677690Y-20244722D01*
X4677690Y-20244722D02*
X4668167Y-20263769D01*
X4668167Y-20263769D02*
X4649119Y-20282817D01*
X4649119Y-20282817D02*
X4620548Y-20292341D01*
X4620548Y-20292341D02*
X4572929Y-20292341D01*
X4772929Y-20292341D02*
X4772929Y-20159007D01*
X4772929Y-20197103D02*
X4782452Y-20178055D01*
X4782452Y-20178055D02*
X4791976Y-20168531D01*
X4791976Y-20168531D02*
X4811024Y-20159007D01*
X4811024Y-20159007D02*
X4830071Y-20159007D01*
X4896738Y-20292341D02*
X4896738Y-20159007D01*
X4896738Y-20092341D02*
X4887214Y-20101865D01*
X4887214Y-20101865D02*
X4896738Y-20111388D01*
X4896738Y-20111388D02*
X4906262Y-20101865D01*
X4906262Y-20101865D02*
X4896738Y-20092341D01*
X4896738Y-20092341D02*
X4896738Y-20111388D01*
X5020548Y-20292341D02*
X5001500Y-20282817D01*
X5001500Y-20282817D02*
X4991976Y-20263769D01*
X4991976Y-20263769D02*
X4991976Y-20092341D01*
X5125309Y-20292341D02*
X5106262Y-20282817D01*
X5106262Y-20282817D02*
X5096738Y-20263769D01*
X5096738Y-20263769D02*
X5096738Y-20092341D01*
X5353881Y-20292341D02*
X5353881Y-20092341D01*
X5353881Y-20092341D02*
X5420548Y-20235198D01*
X5420548Y-20235198D02*
X5487214Y-20092341D01*
X5487214Y-20092341D02*
X5487214Y-20292341D01*
X5668167Y-20292341D02*
X5668167Y-20187579D01*
X5668167Y-20187579D02*
X5658643Y-20168531D01*
X5658643Y-20168531D02*
X5639595Y-20159007D01*
X5639595Y-20159007D02*
X5601500Y-20159007D01*
X5601500Y-20159007D02*
X5582452Y-20168531D01*
X5668167Y-20282817D02*
X5649119Y-20292341D01*
X5649119Y-20292341D02*
X5601500Y-20292341D01*
X5601500Y-20292341D02*
X5582452Y-20282817D01*
X5582452Y-20282817D02*
X5572929Y-20263769D01*
X5572929Y-20263769D02*
X5572929Y-20244722D01*
X5572929Y-20244722D02*
X5582452Y-20225674D01*
X5582452Y-20225674D02*
X5601500Y-20216150D01*
X5601500Y-20216150D02*
X5649119Y-20216150D01*
X5649119Y-20216150D02*
X5668167Y-20206626D01*
X5763405Y-20159007D02*
X5763405Y-20359007D01*
X5763405Y-20168531D02*
X5782452Y-20159007D01*
X5782452Y-20159007D02*
X5820548Y-20159007D01*
X5820548Y-20159007D02*
X5839595Y-20168531D01*
X5839595Y-20168531D02*
X5849119Y-20178055D01*
X5849119Y-20178055D02*
X5858643Y-20197103D01*
X5858643Y-20197103D02*
X5858643Y-20254245D01*
X5858643Y-20254245D02*
X5849119Y-20273293D01*
X5849119Y-20273293D02*
X5839595Y-20282817D01*
X5839595Y-20282817D02*
X5820548Y-20292341D01*
X5820548Y-20292341D02*
X5782452Y-20292341D01*
X5782452Y-20292341D02*
X5763405Y-20282817D01*
X5944357Y-20273293D02*
X5953881Y-20282817D01*
X5953881Y-20282817D02*
X5944357Y-20292341D01*
X5944357Y-20292341D02*
X5934833Y-20282817D01*
X5934833Y-20282817D02*
X5944357Y-20273293D01*
X5944357Y-20273293D02*
X5944357Y-20292341D01*
X5944357Y-20168531D02*
X5953881Y-20178055D01*
X5953881Y-20178055D02*
X5944357Y-20187579D01*
X5944357Y-20187579D02*
X5934833Y-20178055D01*
X5934833Y-20178055D02*
X5944357Y-20168531D01*
X5944357Y-20168531D02*
X5944357Y-20187579D01*
D12*
X4141972Y-20535767D02*
X4312152Y-20705947D01*
X4312152Y-20535767D02*
X4141972Y-20705947D01*
D11*
X4677690Y-20712341D02*
X4563405Y-20712341D01*
X4620548Y-20712341D02*
X4620548Y-20512341D01*
X4620548Y-20512341D02*
X4601500Y-20540912D01*
X4601500Y-20540912D02*
X4582452Y-20559960D01*
X4582452Y-20559960D02*
X4563405Y-20569484D01*
X4763405Y-20693293D02*
X4772929Y-20702817D01*
X4772929Y-20702817D02*
X4763405Y-20712341D01*
X4763405Y-20712341D02*
X4753881Y-20702817D01*
X4753881Y-20702817D02*
X4763405Y-20693293D01*
X4763405Y-20693293D02*
X4763405Y-20712341D01*
X4839595Y-20512341D02*
X4972929Y-20512341D01*
X4972929Y-20512341D02*
X4887214Y-20712341D01*
X5087214Y-20512341D02*
X5106262Y-20512341D01*
X5106262Y-20512341D02*
X5125310Y-20521865D01*
X5125310Y-20521865D02*
X5134833Y-20531388D01*
X5134833Y-20531388D02*
X5144357Y-20550436D01*
X5144357Y-20550436D02*
X5153881Y-20588531D01*
X5153881Y-20588531D02*
X5153881Y-20636150D01*
X5153881Y-20636150D02*
X5144357Y-20674245D01*
X5144357Y-20674245D02*
X5134833Y-20693293D01*
X5134833Y-20693293D02*
X5125310Y-20702817D01*
X5125310Y-20702817D02*
X5106262Y-20712341D01*
X5106262Y-20712341D02*
X5087214Y-20712341D01*
X5087214Y-20712341D02*
X5068167Y-20702817D01*
X5068167Y-20702817D02*
X5058643Y-20693293D01*
X5058643Y-20693293D02*
X5049119Y-20674245D01*
X5049119Y-20674245D02*
X5039595Y-20636150D01*
X5039595Y-20636150D02*
X5039595Y-20588531D01*
X5039595Y-20588531D02*
X5049119Y-20550436D01*
X5049119Y-20550436D02*
X5058643Y-20531388D01*
X5058643Y-20531388D02*
X5068167Y-20521865D01*
X5068167Y-20521865D02*
X5087214Y-20512341D01*
X5230071Y-20531388D02*
X5239595Y-20521865D01*
X5239595Y-20521865D02*
X5258643Y-20512341D01*
X5258643Y-20512341D02*
X5306262Y-20512341D01*
X5306262Y-20512341D02*
X5325310Y-20521865D01*
X5325310Y-20521865D02*
X5334833Y-20531388D01*
X5334833Y-20531388D02*
X5344357Y-20550436D01*
X5344357Y-20550436D02*
X5344357Y-20569484D01*
X5344357Y-20569484D02*
X5334833Y-20598055D01*
X5334833Y-20598055D02*
X5220548Y-20712341D01*
X5220548Y-20712341D02*
X5344357Y-20712341D01*
X5430071Y-20712341D02*
X5430071Y-20579007D01*
X5430071Y-20598055D02*
X5439595Y-20588531D01*
X5439595Y-20588531D02*
X5458643Y-20579007D01*
X5458643Y-20579007D02*
X5487214Y-20579007D01*
X5487214Y-20579007D02*
X5506262Y-20588531D01*
X5506262Y-20588531D02*
X5515786Y-20607579D01*
X5515786Y-20607579D02*
X5515786Y-20712341D01*
X5515786Y-20607579D02*
X5525310Y-20588531D01*
X5525310Y-20588531D02*
X5544357Y-20579007D01*
X5544357Y-20579007D02*
X5572929Y-20579007D01*
X5572929Y-20579007D02*
X5591976Y-20588531D01*
X5591976Y-20588531D02*
X5601500Y-20607579D01*
X5601500Y-20607579D02*
X5601500Y-20712341D01*
X5696738Y-20712341D02*
X5696738Y-20579007D01*
X5696738Y-20598055D02*
X5706262Y-20588531D01*
X5706262Y-20588531D02*
X5725309Y-20579007D01*
X5725309Y-20579007D02*
X5753881Y-20579007D01*
X5753881Y-20579007D02*
X5772929Y-20588531D01*
X5772929Y-20588531D02*
X5782452Y-20607579D01*
X5782452Y-20607579D02*
X5782452Y-20712341D01*
X5782452Y-20607579D02*
X5791976Y-20588531D01*
X5791976Y-20588531D02*
X5811024Y-20579007D01*
X5811024Y-20579007D02*
X5839595Y-20579007D01*
X5839595Y-20579007D02*
X5858643Y-20588531D01*
X5858643Y-20588531D02*
X5868167Y-20607579D01*
X5868167Y-20607579D02*
X5868167Y-20712341D01*
X6258643Y-20502817D02*
X6087214Y-20759960D01*
X6515786Y-20512341D02*
X6534833Y-20512341D01*
X6534833Y-20512341D02*
X6553881Y-20521865D01*
X6553881Y-20521865D02*
X6563405Y-20531388D01*
X6563405Y-20531388D02*
X6572929Y-20550436D01*
X6572929Y-20550436D02*
X6582452Y-20588531D01*
X6582452Y-20588531D02*
X6582452Y-20636150D01*
X6582452Y-20636150D02*
X6572929Y-20674245D01*
X6572929Y-20674245D02*
X6563405Y-20693293D01*
X6563405Y-20693293D02*
X6553881Y-20702817D01*
X6553881Y-20702817D02*
X6534833Y-20712341D01*
X6534833Y-20712341D02*
X6515786Y-20712341D01*
X6515786Y-20712341D02*
X6496738Y-20702817D01*
X6496738Y-20702817D02*
X6487214Y-20693293D01*
X6487214Y-20693293D02*
X6477691Y-20674245D01*
X6477691Y-20674245D02*
X6468167Y-20636150D01*
X6468167Y-20636150D02*
X6468167Y-20588531D01*
X6468167Y-20588531D02*
X6477691Y-20550436D01*
X6477691Y-20550436D02*
X6487214Y-20531388D01*
X6487214Y-20531388D02*
X6496738Y-20521865D01*
X6496738Y-20521865D02*
X6515786Y-20512341D01*
X6668167Y-20693293D02*
X6677691Y-20702817D01*
X6677691Y-20702817D02*
X6668167Y-20712341D01*
X6668167Y-20712341D02*
X6658643Y-20702817D01*
X6658643Y-20702817D02*
X6668167Y-20693293D01*
X6668167Y-20693293D02*
X6668167Y-20712341D01*
X6801500Y-20512341D02*
X6820548Y-20512341D01*
X6820548Y-20512341D02*
X6839595Y-20521865D01*
X6839595Y-20521865D02*
X6849119Y-20531388D01*
X6849119Y-20531388D02*
X6858643Y-20550436D01*
X6858643Y-20550436D02*
X6868167Y-20588531D01*
X6868167Y-20588531D02*
X6868167Y-20636150D01*
X6868167Y-20636150D02*
X6858643Y-20674245D01*
X6858643Y-20674245D02*
X6849119Y-20693293D01*
X6849119Y-20693293D02*
X6839595Y-20702817D01*
X6839595Y-20702817D02*
X6820548Y-20712341D01*
X6820548Y-20712341D02*
X6801500Y-20712341D01*
X6801500Y-20712341D02*
X6782452Y-20702817D01*
X6782452Y-20702817D02*
X6772929Y-20693293D01*
X6772929Y-20693293D02*
X6763405Y-20674245D01*
X6763405Y-20674245D02*
X6753881Y-20636150D01*
X6753881Y-20636150D02*
X6753881Y-20588531D01*
X6753881Y-20588531D02*
X6763405Y-20550436D01*
X6763405Y-20550436D02*
X6772929Y-20531388D01*
X6772929Y-20531388D02*
X6782452Y-20521865D01*
X6782452Y-20521865D02*
X6801500Y-20512341D01*
X7039595Y-20512341D02*
X7001500Y-20512341D01*
X7001500Y-20512341D02*
X6982452Y-20521865D01*
X6982452Y-20521865D02*
X6972929Y-20531388D01*
X6972929Y-20531388D02*
X6953881Y-20559960D01*
X6953881Y-20559960D02*
X6944357Y-20598055D01*
X6944357Y-20598055D02*
X6944357Y-20674245D01*
X6944357Y-20674245D02*
X6953881Y-20693293D01*
X6953881Y-20693293D02*
X6963405Y-20702817D01*
X6963405Y-20702817D02*
X6982452Y-20712341D01*
X6982452Y-20712341D02*
X7020548Y-20712341D01*
X7020548Y-20712341D02*
X7039595Y-20702817D01*
X7039595Y-20702817D02*
X7049119Y-20693293D01*
X7049119Y-20693293D02*
X7058643Y-20674245D01*
X7058643Y-20674245D02*
X7058643Y-20626626D01*
X7058643Y-20626626D02*
X7049119Y-20607579D01*
X7049119Y-20607579D02*
X7039595Y-20598055D01*
X7039595Y-20598055D02*
X7020548Y-20588531D01*
X7020548Y-20588531D02*
X6982452Y-20588531D01*
X6982452Y-20588531D02*
X6963405Y-20598055D01*
X6963405Y-20598055D02*
X6953881Y-20607579D01*
X6953881Y-20607579D02*
X6944357Y-20626626D01*
X7125310Y-20512341D02*
X7258643Y-20512341D01*
X7258643Y-20512341D02*
X7172929Y-20712341D01*
X7372929Y-20512341D02*
X7391976Y-20512341D01*
X7391976Y-20512341D02*
X7411024Y-20521865D01*
X7411024Y-20521865D02*
X7420548Y-20531388D01*
X7420548Y-20531388D02*
X7430072Y-20550436D01*
X7430072Y-20550436D02*
X7439595Y-20588531D01*
X7439595Y-20588531D02*
X7439595Y-20636150D01*
X7439595Y-20636150D02*
X7430072Y-20674245D01*
X7430072Y-20674245D02*
X7420548Y-20693293D01*
X7420548Y-20693293D02*
X7411024Y-20702817D01*
X7411024Y-20702817D02*
X7391976Y-20712341D01*
X7391976Y-20712341D02*
X7372929Y-20712341D01*
X7372929Y-20712341D02*
X7353881Y-20702817D01*
X7353881Y-20702817D02*
X7344357Y-20693293D01*
X7344357Y-20693293D02*
X7334833Y-20674245D01*
X7334833Y-20674245D02*
X7325310Y-20636150D01*
X7325310Y-20636150D02*
X7325310Y-20588531D01*
X7325310Y-20588531D02*
X7334833Y-20550436D01*
X7334833Y-20550436D02*
X7344357Y-20531388D01*
X7344357Y-20531388D02*
X7353881Y-20521865D01*
X7353881Y-20521865D02*
X7372929Y-20512341D01*
X7515786Y-20512341D02*
X7515786Y-20550436D01*
X7591976Y-20512341D02*
X7591976Y-20550436D01*
X7887215Y-20788531D02*
X7877691Y-20779007D01*
X7877691Y-20779007D02*
X7858643Y-20750436D01*
X7858643Y-20750436D02*
X7849119Y-20731388D01*
X7849119Y-20731388D02*
X7839595Y-20702817D01*
X7839595Y-20702817D02*
X7830072Y-20655198D01*
X7830072Y-20655198D02*
X7830072Y-20617103D01*
X7830072Y-20617103D02*
X7839595Y-20569484D01*
X7839595Y-20569484D02*
X7849119Y-20540912D01*
X7849119Y-20540912D02*
X7858643Y-20521865D01*
X7858643Y-20521865D02*
X7877691Y-20493293D01*
X7877691Y-20493293D02*
X7887215Y-20483769D01*
X7944357Y-20512341D02*
X8077691Y-20512341D01*
X8077691Y-20512341D02*
X7991976Y-20712341D01*
X8144357Y-20531388D02*
X8153881Y-20521865D01*
X8153881Y-20521865D02*
X8172929Y-20512341D01*
X8172929Y-20512341D02*
X8220548Y-20512341D01*
X8220548Y-20512341D02*
X8239595Y-20521865D01*
X8239595Y-20521865D02*
X8249119Y-20531388D01*
X8249119Y-20531388D02*
X8258643Y-20550436D01*
X8258643Y-20550436D02*
X8258643Y-20569484D01*
X8258643Y-20569484D02*
X8249119Y-20598055D01*
X8249119Y-20598055D02*
X8134834Y-20712341D01*
X8134834Y-20712341D02*
X8258643Y-20712341D01*
X8496738Y-20712341D02*
X8496738Y-20512341D01*
X8582453Y-20712341D02*
X8582453Y-20607579D01*
X8582453Y-20607579D02*
X8572929Y-20588531D01*
X8572929Y-20588531D02*
X8553881Y-20579007D01*
X8553881Y-20579007D02*
X8525310Y-20579007D01*
X8525310Y-20579007D02*
X8506262Y-20588531D01*
X8506262Y-20588531D02*
X8496738Y-20598055D01*
X8706262Y-20712341D02*
X8687215Y-20702817D01*
X8687215Y-20702817D02*
X8677691Y-20693293D01*
X8677691Y-20693293D02*
X8668167Y-20674245D01*
X8668167Y-20674245D02*
X8668167Y-20617103D01*
X8668167Y-20617103D02*
X8677691Y-20598055D01*
X8677691Y-20598055D02*
X8687215Y-20588531D01*
X8687215Y-20588531D02*
X8706262Y-20579007D01*
X8706262Y-20579007D02*
X8734834Y-20579007D01*
X8734834Y-20579007D02*
X8753881Y-20588531D01*
X8753881Y-20588531D02*
X8763405Y-20598055D01*
X8763405Y-20598055D02*
X8772929Y-20617103D01*
X8772929Y-20617103D02*
X8772929Y-20674245D01*
X8772929Y-20674245D02*
X8763405Y-20693293D01*
X8763405Y-20693293D02*
X8753881Y-20702817D01*
X8753881Y-20702817D02*
X8734834Y-20712341D01*
X8734834Y-20712341D02*
X8706262Y-20712341D01*
X8887215Y-20712341D02*
X8868167Y-20702817D01*
X8868167Y-20702817D02*
X8858643Y-20683769D01*
X8858643Y-20683769D02*
X8858643Y-20512341D01*
X9039596Y-20702817D02*
X9020548Y-20712341D01*
X9020548Y-20712341D02*
X8982453Y-20712341D01*
X8982453Y-20712341D02*
X8963405Y-20702817D01*
X8963405Y-20702817D02*
X8953881Y-20683769D01*
X8953881Y-20683769D02*
X8953881Y-20607579D01*
X8953881Y-20607579D02*
X8963405Y-20588531D01*
X8963405Y-20588531D02*
X8982453Y-20579007D01*
X8982453Y-20579007D02*
X9020548Y-20579007D01*
X9020548Y-20579007D02*
X9039596Y-20588531D01*
X9039596Y-20588531D02*
X9049119Y-20607579D01*
X9049119Y-20607579D02*
X9049119Y-20626626D01*
X9049119Y-20626626D02*
X8953881Y-20645674D01*
X9125310Y-20702817D02*
X9144358Y-20712341D01*
X9144358Y-20712341D02*
X9182453Y-20712341D01*
X9182453Y-20712341D02*
X9201500Y-20702817D01*
X9201500Y-20702817D02*
X9211024Y-20683769D01*
X9211024Y-20683769D02*
X9211024Y-20674245D01*
X9211024Y-20674245D02*
X9201500Y-20655198D01*
X9201500Y-20655198D02*
X9182453Y-20645674D01*
X9182453Y-20645674D02*
X9153881Y-20645674D01*
X9153881Y-20645674D02*
X9134834Y-20636150D01*
X9134834Y-20636150D02*
X9125310Y-20617103D01*
X9125310Y-20617103D02*
X9125310Y-20607579D01*
X9125310Y-20607579D02*
X9134834Y-20588531D01*
X9134834Y-20588531D02*
X9153881Y-20579007D01*
X9153881Y-20579007D02*
X9182453Y-20579007D01*
X9182453Y-20579007D02*
X9201500Y-20588531D01*
X9277691Y-20788531D02*
X9287215Y-20779007D01*
X9287215Y-20779007D02*
X9306262Y-20750436D01*
X9306262Y-20750436D02*
X9315786Y-20731388D01*
X9315786Y-20731388D02*
X9325310Y-20702817D01*
X9325310Y-20702817D02*
X9334834Y-20655198D01*
X9334834Y-20655198D02*
X9334834Y-20617103D01*
X9334834Y-20617103D02*
X9325310Y-20569484D01*
X9325310Y-20569484D02*
X9315786Y-20540912D01*
X9315786Y-20540912D02*
X9306262Y-20521865D01*
X9306262Y-20521865D02*
X9287215Y-20493293D01*
X9287215Y-20493293D02*
X9277691Y-20483769D01*
X9639596Y-20788531D02*
X9630072Y-20779007D01*
X9630072Y-20779007D02*
X9611024Y-20750436D01*
X9611024Y-20750436D02*
X9601500Y-20731388D01*
X9601500Y-20731388D02*
X9591977Y-20702817D01*
X9591977Y-20702817D02*
X9582453Y-20655198D01*
X9582453Y-20655198D02*
X9582453Y-20617103D01*
X9582453Y-20617103D02*
X9591977Y-20569484D01*
X9591977Y-20569484D02*
X9601500Y-20540912D01*
X9601500Y-20540912D02*
X9611024Y-20521865D01*
X9611024Y-20521865D02*
X9630072Y-20493293D01*
X9630072Y-20493293D02*
X9639596Y-20483769D01*
X9715786Y-20579007D02*
X9715786Y-20712341D01*
X9715786Y-20598055D02*
X9725310Y-20588531D01*
X9725310Y-20588531D02*
X9744358Y-20579007D01*
X9744358Y-20579007D02*
X9772929Y-20579007D01*
X9772929Y-20579007D02*
X9791977Y-20588531D01*
X9791977Y-20588531D02*
X9801500Y-20607579D01*
X9801500Y-20607579D02*
X9801500Y-20712341D01*
X9925310Y-20712341D02*
X9906262Y-20702817D01*
X9906262Y-20702817D02*
X9896739Y-20693293D01*
X9896739Y-20693293D02*
X9887215Y-20674245D01*
X9887215Y-20674245D02*
X9887215Y-20617103D01*
X9887215Y-20617103D02*
X9896739Y-20598055D01*
X9896739Y-20598055D02*
X9906262Y-20588531D01*
X9906262Y-20588531D02*
X9925310Y-20579007D01*
X9925310Y-20579007D02*
X9953881Y-20579007D01*
X9953881Y-20579007D02*
X9972929Y-20588531D01*
X9972929Y-20588531D02*
X9982453Y-20598055D01*
X9982453Y-20598055D02*
X9991977Y-20617103D01*
X9991977Y-20617103D02*
X9991977Y-20674245D01*
X9991977Y-20674245D02*
X9982453Y-20693293D01*
X9982453Y-20693293D02*
X9972929Y-20702817D01*
X9972929Y-20702817D02*
X9953881Y-20712341D01*
X9953881Y-20712341D02*
X9925310Y-20712341D01*
X10049120Y-20579007D02*
X10125310Y-20579007D01*
X10077691Y-20512341D02*
X10077691Y-20683769D01*
X10077691Y-20683769D02*
X10087215Y-20702817D01*
X10087215Y-20702817D02*
X10106262Y-20712341D01*
X10106262Y-20712341D02*
X10125310Y-20712341D01*
X10344358Y-20579007D02*
X10344358Y-20779007D01*
X10344358Y-20588531D02*
X10363405Y-20579007D01*
X10363405Y-20579007D02*
X10401501Y-20579007D01*
X10401501Y-20579007D02*
X10420548Y-20588531D01*
X10420548Y-20588531D02*
X10430072Y-20598055D01*
X10430072Y-20598055D02*
X10439596Y-20617103D01*
X10439596Y-20617103D02*
X10439596Y-20674245D01*
X10439596Y-20674245D02*
X10430072Y-20693293D01*
X10430072Y-20693293D02*
X10420548Y-20702817D01*
X10420548Y-20702817D02*
X10401501Y-20712341D01*
X10401501Y-20712341D02*
X10363405Y-20712341D01*
X10363405Y-20712341D02*
X10344358Y-20702817D01*
X10553881Y-20712341D02*
X10534834Y-20702817D01*
X10534834Y-20702817D02*
X10525310Y-20683769D01*
X10525310Y-20683769D02*
X10525310Y-20512341D01*
X10715786Y-20712341D02*
X10715786Y-20607579D01*
X10715786Y-20607579D02*
X10706262Y-20588531D01*
X10706262Y-20588531D02*
X10687215Y-20579007D01*
X10687215Y-20579007D02*
X10649120Y-20579007D01*
X10649120Y-20579007D02*
X10630072Y-20588531D01*
X10715786Y-20702817D02*
X10696739Y-20712341D01*
X10696739Y-20712341D02*
X10649120Y-20712341D01*
X10649120Y-20712341D02*
X10630072Y-20702817D01*
X10630072Y-20702817D02*
X10620548Y-20683769D01*
X10620548Y-20683769D02*
X10620548Y-20664722D01*
X10620548Y-20664722D02*
X10630072Y-20645674D01*
X10630072Y-20645674D02*
X10649120Y-20636150D01*
X10649120Y-20636150D02*
X10696739Y-20636150D01*
X10696739Y-20636150D02*
X10715786Y-20626626D01*
X10782453Y-20579007D02*
X10858643Y-20579007D01*
X10811024Y-20512341D02*
X10811024Y-20683769D01*
X10811024Y-20683769D02*
X10820548Y-20702817D01*
X10820548Y-20702817D02*
X10839596Y-20712341D01*
X10839596Y-20712341D02*
X10858643Y-20712341D01*
X11001501Y-20702817D02*
X10982453Y-20712341D01*
X10982453Y-20712341D02*
X10944358Y-20712341D01*
X10944358Y-20712341D02*
X10925310Y-20702817D01*
X10925310Y-20702817D02*
X10915786Y-20683769D01*
X10915786Y-20683769D02*
X10915786Y-20607579D01*
X10915786Y-20607579D02*
X10925310Y-20588531D01*
X10925310Y-20588531D02*
X10944358Y-20579007D01*
X10944358Y-20579007D02*
X10982453Y-20579007D01*
X10982453Y-20579007D02*
X11001501Y-20588531D01*
X11001501Y-20588531D02*
X11011024Y-20607579D01*
X11011024Y-20607579D02*
X11011024Y-20626626D01*
X11011024Y-20626626D02*
X10915786Y-20645674D01*
X11182453Y-20712341D02*
X11182453Y-20512341D01*
X11182453Y-20702817D02*
X11163405Y-20712341D01*
X11163405Y-20712341D02*
X11125310Y-20712341D01*
X11125310Y-20712341D02*
X11106262Y-20702817D01*
X11106262Y-20702817D02*
X11096739Y-20693293D01*
X11096739Y-20693293D02*
X11087215Y-20674245D01*
X11087215Y-20674245D02*
X11087215Y-20617103D01*
X11087215Y-20617103D02*
X11096739Y-20598055D01*
X11096739Y-20598055D02*
X11106262Y-20588531D01*
X11106262Y-20588531D02*
X11125310Y-20579007D01*
X11125310Y-20579007D02*
X11163405Y-20579007D01*
X11163405Y-20579007D02*
X11182453Y-20588531D01*
X11258643Y-20788531D02*
X11268167Y-20779007D01*
X11268167Y-20779007D02*
X11287215Y-20750436D01*
X11287215Y-20750436D02*
X11296739Y-20731388D01*
X11296739Y-20731388D02*
X11306262Y-20702817D01*
X11306262Y-20702817D02*
X11315786Y-20655198D01*
X11315786Y-20655198D02*
X11315786Y-20617103D01*
X11315786Y-20617103D02*
X11306262Y-20569484D01*
X11306262Y-20569484D02*
X11296739Y-20540912D01*
X11296739Y-20540912D02*
X11287215Y-20521865D01*
X11287215Y-20521865D02*
X11268167Y-20493293D01*
X11268167Y-20493293D02*
X11258643Y-20483769D01*
X4312152Y-20911037D02*
G75*
G02*
X4112152Y-20911037I-100000J0D01*
G01*
X4112152Y-20911037D02*
G75*
G02*
X4312152Y-20911037I100000J0D01*
G01*
X4553881Y-20802521D02*
X4677690Y-20802521D01*
X4677690Y-20802521D02*
X4611024Y-20878711D01*
X4611024Y-20878711D02*
X4639595Y-20878711D01*
X4639595Y-20878711D02*
X4658643Y-20888235D01*
X4658643Y-20888235D02*
X4668167Y-20897759D01*
X4668167Y-20897759D02*
X4677690Y-20916806D01*
X4677690Y-20916806D02*
X4677690Y-20964425D01*
X4677690Y-20964425D02*
X4668167Y-20983473D01*
X4668167Y-20983473D02*
X4658643Y-20992997D01*
X4658643Y-20992997D02*
X4639595Y-21002521D01*
X4639595Y-21002521D02*
X4582452Y-21002521D01*
X4582452Y-21002521D02*
X4563405Y-20992997D01*
X4563405Y-20992997D02*
X4553881Y-20983473D01*
X4763405Y-20983473D02*
X4772929Y-20992997D01*
X4772929Y-20992997D02*
X4763405Y-21002521D01*
X4763405Y-21002521D02*
X4753881Y-20992997D01*
X4753881Y-20992997D02*
X4763405Y-20983473D01*
X4763405Y-20983473D02*
X4763405Y-21002521D01*
X4896738Y-20802521D02*
X4915786Y-20802521D01*
X4915786Y-20802521D02*
X4934833Y-20812045D01*
X4934833Y-20812045D02*
X4944357Y-20821568D01*
X4944357Y-20821568D02*
X4953881Y-20840616D01*
X4953881Y-20840616D02*
X4963405Y-20878711D01*
X4963405Y-20878711D02*
X4963405Y-20926330D01*
X4963405Y-20926330D02*
X4953881Y-20964425D01*
X4953881Y-20964425D02*
X4944357Y-20983473D01*
X4944357Y-20983473D02*
X4934833Y-20992997D01*
X4934833Y-20992997D02*
X4915786Y-21002521D01*
X4915786Y-21002521D02*
X4896738Y-21002521D01*
X4896738Y-21002521D02*
X4877690Y-20992997D01*
X4877690Y-20992997D02*
X4868167Y-20983473D01*
X4868167Y-20983473D02*
X4858643Y-20964425D01*
X4858643Y-20964425D02*
X4849119Y-20926330D01*
X4849119Y-20926330D02*
X4849119Y-20878711D01*
X4849119Y-20878711D02*
X4858643Y-20840616D01*
X4858643Y-20840616D02*
X4868167Y-20821568D01*
X4868167Y-20821568D02*
X4877690Y-20812045D01*
X4877690Y-20812045D02*
X4896738Y-20802521D01*
X5087214Y-20802521D02*
X5106262Y-20802521D01*
X5106262Y-20802521D02*
X5125310Y-20812045D01*
X5125310Y-20812045D02*
X5134833Y-20821568D01*
X5134833Y-20821568D02*
X5144357Y-20840616D01*
X5144357Y-20840616D02*
X5153881Y-20878711D01*
X5153881Y-20878711D02*
X5153881Y-20926330D01*
X5153881Y-20926330D02*
X5144357Y-20964425D01*
X5144357Y-20964425D02*
X5134833Y-20983473D01*
X5134833Y-20983473D02*
X5125310Y-20992997D01*
X5125310Y-20992997D02*
X5106262Y-21002521D01*
X5106262Y-21002521D02*
X5087214Y-21002521D01*
X5087214Y-21002521D02*
X5068167Y-20992997D01*
X5068167Y-20992997D02*
X5058643Y-20983473D01*
X5058643Y-20983473D02*
X5049119Y-20964425D01*
X5049119Y-20964425D02*
X5039595Y-20926330D01*
X5039595Y-20926330D02*
X5039595Y-20878711D01*
X5039595Y-20878711D02*
X5049119Y-20840616D01*
X5049119Y-20840616D02*
X5058643Y-20821568D01*
X5058643Y-20821568D02*
X5068167Y-20812045D01*
X5068167Y-20812045D02*
X5087214Y-20802521D01*
X5277690Y-20802521D02*
X5296738Y-20802521D01*
X5296738Y-20802521D02*
X5315786Y-20812045D01*
X5315786Y-20812045D02*
X5325310Y-20821568D01*
X5325310Y-20821568D02*
X5334833Y-20840616D01*
X5334833Y-20840616D02*
X5344357Y-20878711D01*
X5344357Y-20878711D02*
X5344357Y-20926330D01*
X5344357Y-20926330D02*
X5334833Y-20964425D01*
X5334833Y-20964425D02*
X5325310Y-20983473D01*
X5325310Y-20983473D02*
X5315786Y-20992997D01*
X5315786Y-20992997D02*
X5296738Y-21002521D01*
X5296738Y-21002521D02*
X5277690Y-21002521D01*
X5277690Y-21002521D02*
X5258643Y-20992997D01*
X5258643Y-20992997D02*
X5249119Y-20983473D01*
X5249119Y-20983473D02*
X5239595Y-20964425D01*
X5239595Y-20964425D02*
X5230071Y-20926330D01*
X5230071Y-20926330D02*
X5230071Y-20878711D01*
X5230071Y-20878711D02*
X5239595Y-20840616D01*
X5239595Y-20840616D02*
X5249119Y-20821568D01*
X5249119Y-20821568D02*
X5258643Y-20812045D01*
X5258643Y-20812045D02*
X5277690Y-20802521D01*
X5430071Y-21002521D02*
X5430071Y-20869187D01*
X5430071Y-20888235D02*
X5439595Y-20878711D01*
X5439595Y-20878711D02*
X5458643Y-20869187D01*
X5458643Y-20869187D02*
X5487214Y-20869187D01*
X5487214Y-20869187D02*
X5506262Y-20878711D01*
X5506262Y-20878711D02*
X5515786Y-20897759D01*
X5515786Y-20897759D02*
X5515786Y-21002521D01*
X5515786Y-20897759D02*
X5525310Y-20878711D01*
X5525310Y-20878711D02*
X5544357Y-20869187D01*
X5544357Y-20869187D02*
X5572929Y-20869187D01*
X5572929Y-20869187D02*
X5591976Y-20878711D01*
X5591976Y-20878711D02*
X5601500Y-20897759D01*
X5601500Y-20897759D02*
X5601500Y-21002521D01*
X5696738Y-21002521D02*
X5696738Y-20869187D01*
X5696738Y-20888235D02*
X5706262Y-20878711D01*
X5706262Y-20878711D02*
X5725309Y-20869187D01*
X5725309Y-20869187D02*
X5753881Y-20869187D01*
X5753881Y-20869187D02*
X5772929Y-20878711D01*
X5772929Y-20878711D02*
X5782452Y-20897759D01*
X5782452Y-20897759D02*
X5782452Y-21002521D01*
X5782452Y-20897759D02*
X5791976Y-20878711D01*
X5791976Y-20878711D02*
X5811024Y-20869187D01*
X5811024Y-20869187D02*
X5839595Y-20869187D01*
X5839595Y-20869187D02*
X5858643Y-20878711D01*
X5858643Y-20878711D02*
X5868167Y-20897759D01*
X5868167Y-20897759D02*
X5868167Y-21002521D01*
X6258643Y-20792997D02*
X6087214Y-21050140D01*
X6515786Y-20802521D02*
X6534833Y-20802521D01*
X6534833Y-20802521D02*
X6553881Y-20812045D01*
X6553881Y-20812045D02*
X6563405Y-20821568D01*
X6563405Y-20821568D02*
X6572929Y-20840616D01*
X6572929Y-20840616D02*
X6582452Y-20878711D01*
X6582452Y-20878711D02*
X6582452Y-20926330D01*
X6582452Y-20926330D02*
X6572929Y-20964425D01*
X6572929Y-20964425D02*
X6563405Y-20983473D01*
X6563405Y-20983473D02*
X6553881Y-20992997D01*
X6553881Y-20992997D02*
X6534833Y-21002521D01*
X6534833Y-21002521D02*
X6515786Y-21002521D01*
X6515786Y-21002521D02*
X6496738Y-20992997D01*
X6496738Y-20992997D02*
X6487214Y-20983473D01*
X6487214Y-20983473D02*
X6477691Y-20964425D01*
X6477691Y-20964425D02*
X6468167Y-20926330D01*
X6468167Y-20926330D02*
X6468167Y-20878711D01*
X6468167Y-20878711D02*
X6477691Y-20840616D01*
X6477691Y-20840616D02*
X6487214Y-20821568D01*
X6487214Y-20821568D02*
X6496738Y-20812045D01*
X6496738Y-20812045D02*
X6515786Y-20802521D01*
X6668167Y-20983473D02*
X6677691Y-20992997D01*
X6677691Y-20992997D02*
X6668167Y-21002521D01*
X6668167Y-21002521D02*
X6658643Y-20992997D01*
X6658643Y-20992997D02*
X6668167Y-20983473D01*
X6668167Y-20983473D02*
X6668167Y-21002521D01*
X6868167Y-21002521D02*
X6753881Y-21002521D01*
X6811024Y-21002521D02*
X6811024Y-20802521D01*
X6811024Y-20802521D02*
X6791976Y-20831092D01*
X6791976Y-20831092D02*
X6772929Y-20850140D01*
X6772929Y-20850140D02*
X6753881Y-20859664D01*
X7058643Y-21002521D02*
X6944357Y-21002521D01*
X7001500Y-21002521D02*
X7001500Y-20802521D01*
X7001500Y-20802521D02*
X6982452Y-20831092D01*
X6982452Y-20831092D02*
X6963405Y-20850140D01*
X6963405Y-20850140D02*
X6944357Y-20859664D01*
X7172929Y-20888235D02*
X7153881Y-20878711D01*
X7153881Y-20878711D02*
X7144357Y-20869187D01*
X7144357Y-20869187D02*
X7134833Y-20850140D01*
X7134833Y-20850140D02*
X7134833Y-20840616D01*
X7134833Y-20840616D02*
X7144357Y-20821568D01*
X7144357Y-20821568D02*
X7153881Y-20812045D01*
X7153881Y-20812045D02*
X7172929Y-20802521D01*
X7172929Y-20802521D02*
X7211024Y-20802521D01*
X7211024Y-20802521D02*
X7230072Y-20812045D01*
X7230072Y-20812045D02*
X7239595Y-20821568D01*
X7239595Y-20821568D02*
X7249119Y-20840616D01*
X7249119Y-20840616D02*
X7249119Y-20850140D01*
X7249119Y-20850140D02*
X7239595Y-20869187D01*
X7239595Y-20869187D02*
X7230072Y-20878711D01*
X7230072Y-20878711D02*
X7211024Y-20888235D01*
X7211024Y-20888235D02*
X7172929Y-20888235D01*
X7172929Y-20888235D02*
X7153881Y-20897759D01*
X7153881Y-20897759D02*
X7144357Y-20907283D01*
X7144357Y-20907283D02*
X7134833Y-20926330D01*
X7134833Y-20926330D02*
X7134833Y-20964425D01*
X7134833Y-20964425D02*
X7144357Y-20983473D01*
X7144357Y-20983473D02*
X7153881Y-20992997D01*
X7153881Y-20992997D02*
X7172929Y-21002521D01*
X7172929Y-21002521D02*
X7211024Y-21002521D01*
X7211024Y-21002521D02*
X7230072Y-20992997D01*
X7230072Y-20992997D02*
X7239595Y-20983473D01*
X7239595Y-20983473D02*
X7249119Y-20964425D01*
X7249119Y-20964425D02*
X7249119Y-20926330D01*
X7249119Y-20926330D02*
X7239595Y-20907283D01*
X7239595Y-20907283D02*
X7230072Y-20897759D01*
X7230072Y-20897759D02*
X7211024Y-20888235D01*
X7439595Y-21002521D02*
X7325310Y-21002521D01*
X7382452Y-21002521D02*
X7382452Y-20802521D01*
X7382452Y-20802521D02*
X7363405Y-20831092D01*
X7363405Y-20831092D02*
X7344357Y-20850140D01*
X7344357Y-20850140D02*
X7325310Y-20859664D01*
X7515786Y-20802521D02*
X7515786Y-20840616D01*
X7591976Y-20802521D02*
X7591976Y-20840616D01*
X7887215Y-21078711D02*
X7877691Y-21069187D01*
X7877691Y-21069187D02*
X7858643Y-21040616D01*
X7858643Y-21040616D02*
X7849119Y-21021568D01*
X7849119Y-21021568D02*
X7839595Y-20992997D01*
X7839595Y-20992997D02*
X7830072Y-20945378D01*
X7830072Y-20945378D02*
X7830072Y-20907283D01*
X7830072Y-20907283D02*
X7839595Y-20859664D01*
X7839595Y-20859664D02*
X7849119Y-20831092D01*
X7849119Y-20831092D02*
X7858643Y-20812045D01*
X7858643Y-20812045D02*
X7877691Y-20783473D01*
X7877691Y-20783473D02*
X7887215Y-20773949D01*
X7944357Y-20802521D02*
X8077691Y-20802521D01*
X8077691Y-20802521D02*
X7991976Y-21002521D01*
X8144357Y-20821568D02*
X8153881Y-20812045D01*
X8153881Y-20812045D02*
X8172929Y-20802521D01*
X8172929Y-20802521D02*
X8220548Y-20802521D01*
X8220548Y-20802521D02*
X8239595Y-20812045D01*
X8239595Y-20812045D02*
X8249119Y-20821568D01*
X8249119Y-20821568D02*
X8258643Y-20840616D01*
X8258643Y-20840616D02*
X8258643Y-20859664D01*
X8258643Y-20859664D02*
X8249119Y-20888235D01*
X8249119Y-20888235D02*
X8134834Y-21002521D01*
X8134834Y-21002521D02*
X8258643Y-21002521D01*
X8496738Y-21002521D02*
X8496738Y-20802521D01*
X8582453Y-21002521D02*
X8582453Y-20897759D01*
X8582453Y-20897759D02*
X8572929Y-20878711D01*
X8572929Y-20878711D02*
X8553881Y-20869187D01*
X8553881Y-20869187D02*
X8525310Y-20869187D01*
X8525310Y-20869187D02*
X8506262Y-20878711D01*
X8506262Y-20878711D02*
X8496738Y-20888235D01*
X8706262Y-21002521D02*
X8687215Y-20992997D01*
X8687215Y-20992997D02*
X8677691Y-20983473D01*
X8677691Y-20983473D02*
X8668167Y-20964425D01*
X8668167Y-20964425D02*
X8668167Y-20907283D01*
X8668167Y-20907283D02*
X8677691Y-20888235D01*
X8677691Y-20888235D02*
X8687215Y-20878711D01*
X8687215Y-20878711D02*
X8706262Y-20869187D01*
X8706262Y-20869187D02*
X8734834Y-20869187D01*
X8734834Y-20869187D02*
X8753881Y-20878711D01*
X8753881Y-20878711D02*
X8763405Y-20888235D01*
X8763405Y-20888235D02*
X8772929Y-20907283D01*
X8772929Y-20907283D02*
X8772929Y-20964425D01*
X8772929Y-20964425D02*
X8763405Y-20983473D01*
X8763405Y-20983473D02*
X8753881Y-20992997D01*
X8753881Y-20992997D02*
X8734834Y-21002521D01*
X8734834Y-21002521D02*
X8706262Y-21002521D01*
X8887215Y-21002521D02*
X8868167Y-20992997D01*
X8868167Y-20992997D02*
X8858643Y-20973949D01*
X8858643Y-20973949D02*
X8858643Y-20802521D01*
X9039596Y-20992997D02*
X9020548Y-21002521D01*
X9020548Y-21002521D02*
X8982453Y-21002521D01*
X8982453Y-21002521D02*
X8963405Y-20992997D01*
X8963405Y-20992997D02*
X8953881Y-20973949D01*
X8953881Y-20973949D02*
X8953881Y-20897759D01*
X8953881Y-20897759D02*
X8963405Y-20878711D01*
X8963405Y-20878711D02*
X8982453Y-20869187D01*
X8982453Y-20869187D02*
X9020548Y-20869187D01*
X9020548Y-20869187D02*
X9039596Y-20878711D01*
X9039596Y-20878711D02*
X9049119Y-20897759D01*
X9049119Y-20897759D02*
X9049119Y-20916806D01*
X9049119Y-20916806D02*
X8953881Y-20935854D01*
X9125310Y-20992997D02*
X9144358Y-21002521D01*
X9144358Y-21002521D02*
X9182453Y-21002521D01*
X9182453Y-21002521D02*
X9201500Y-20992997D01*
X9201500Y-20992997D02*
X9211024Y-20973949D01*
X9211024Y-20973949D02*
X9211024Y-20964425D01*
X9211024Y-20964425D02*
X9201500Y-20945378D01*
X9201500Y-20945378D02*
X9182453Y-20935854D01*
X9182453Y-20935854D02*
X9153881Y-20935854D01*
X9153881Y-20935854D02*
X9134834Y-20926330D01*
X9134834Y-20926330D02*
X9125310Y-20907283D01*
X9125310Y-20907283D02*
X9125310Y-20897759D01*
X9125310Y-20897759D02*
X9134834Y-20878711D01*
X9134834Y-20878711D02*
X9153881Y-20869187D01*
X9153881Y-20869187D02*
X9182453Y-20869187D01*
X9182453Y-20869187D02*
X9201500Y-20878711D01*
X9277691Y-21078711D02*
X9287215Y-21069187D01*
X9287215Y-21069187D02*
X9306262Y-21040616D01*
X9306262Y-21040616D02*
X9315786Y-21021568D01*
X9315786Y-21021568D02*
X9325310Y-20992997D01*
X9325310Y-20992997D02*
X9334834Y-20945378D01*
X9334834Y-20945378D02*
X9334834Y-20907283D01*
X9334834Y-20907283D02*
X9325310Y-20859664D01*
X9325310Y-20859664D02*
X9315786Y-20831092D01*
X9315786Y-20831092D02*
X9306262Y-20812045D01*
X9306262Y-20812045D02*
X9287215Y-20783473D01*
X9287215Y-20783473D02*
X9277691Y-20773949D01*
X9639596Y-21078711D02*
X9630072Y-21069187D01*
X9630072Y-21069187D02*
X9611024Y-21040616D01*
X9611024Y-21040616D02*
X9601500Y-21021568D01*
X9601500Y-21021568D02*
X9591977Y-20992997D01*
X9591977Y-20992997D02*
X9582453Y-20945378D01*
X9582453Y-20945378D02*
X9582453Y-20907283D01*
X9582453Y-20907283D02*
X9591977Y-20859664D01*
X9591977Y-20859664D02*
X9601500Y-20831092D01*
X9601500Y-20831092D02*
X9611024Y-20812045D01*
X9611024Y-20812045D02*
X9630072Y-20783473D01*
X9630072Y-20783473D02*
X9639596Y-20773949D01*
X9715786Y-20869187D02*
X9715786Y-21002521D01*
X9715786Y-20888235D02*
X9725310Y-20878711D01*
X9725310Y-20878711D02*
X9744358Y-20869187D01*
X9744358Y-20869187D02*
X9772929Y-20869187D01*
X9772929Y-20869187D02*
X9791977Y-20878711D01*
X9791977Y-20878711D02*
X9801500Y-20897759D01*
X9801500Y-20897759D02*
X9801500Y-21002521D01*
X9925310Y-21002521D02*
X9906262Y-20992997D01*
X9906262Y-20992997D02*
X9896739Y-20983473D01*
X9896739Y-20983473D02*
X9887215Y-20964425D01*
X9887215Y-20964425D02*
X9887215Y-20907283D01*
X9887215Y-20907283D02*
X9896739Y-20888235D01*
X9896739Y-20888235D02*
X9906262Y-20878711D01*
X9906262Y-20878711D02*
X9925310Y-20869187D01*
X9925310Y-20869187D02*
X9953881Y-20869187D01*
X9953881Y-20869187D02*
X9972929Y-20878711D01*
X9972929Y-20878711D02*
X9982453Y-20888235D01*
X9982453Y-20888235D02*
X9991977Y-20907283D01*
X9991977Y-20907283D02*
X9991977Y-20964425D01*
X9991977Y-20964425D02*
X9982453Y-20983473D01*
X9982453Y-20983473D02*
X9972929Y-20992997D01*
X9972929Y-20992997D02*
X9953881Y-21002521D01*
X9953881Y-21002521D02*
X9925310Y-21002521D01*
X10049120Y-20869187D02*
X10125310Y-20869187D01*
X10077691Y-20802521D02*
X10077691Y-20973949D01*
X10077691Y-20973949D02*
X10087215Y-20992997D01*
X10087215Y-20992997D02*
X10106262Y-21002521D01*
X10106262Y-21002521D02*
X10125310Y-21002521D01*
X10344358Y-20869187D02*
X10344358Y-21069187D01*
X10344358Y-20878711D02*
X10363405Y-20869187D01*
X10363405Y-20869187D02*
X10401501Y-20869187D01*
X10401501Y-20869187D02*
X10420548Y-20878711D01*
X10420548Y-20878711D02*
X10430072Y-20888235D01*
X10430072Y-20888235D02*
X10439596Y-20907283D01*
X10439596Y-20907283D02*
X10439596Y-20964425D01*
X10439596Y-20964425D02*
X10430072Y-20983473D01*
X10430072Y-20983473D02*
X10420548Y-20992997D01*
X10420548Y-20992997D02*
X10401501Y-21002521D01*
X10401501Y-21002521D02*
X10363405Y-21002521D01*
X10363405Y-21002521D02*
X10344358Y-20992997D01*
X10553881Y-21002521D02*
X10534834Y-20992997D01*
X10534834Y-20992997D02*
X10525310Y-20973949D01*
X10525310Y-20973949D02*
X10525310Y-20802521D01*
X10715786Y-21002521D02*
X10715786Y-20897759D01*
X10715786Y-20897759D02*
X10706262Y-20878711D01*
X10706262Y-20878711D02*
X10687215Y-20869187D01*
X10687215Y-20869187D02*
X10649120Y-20869187D01*
X10649120Y-20869187D02*
X10630072Y-20878711D01*
X10715786Y-20992997D02*
X10696739Y-21002521D01*
X10696739Y-21002521D02*
X10649120Y-21002521D01*
X10649120Y-21002521D02*
X10630072Y-20992997D01*
X10630072Y-20992997D02*
X10620548Y-20973949D01*
X10620548Y-20973949D02*
X10620548Y-20954902D01*
X10620548Y-20954902D02*
X10630072Y-20935854D01*
X10630072Y-20935854D02*
X10649120Y-20926330D01*
X10649120Y-20926330D02*
X10696739Y-20926330D01*
X10696739Y-20926330D02*
X10715786Y-20916806D01*
X10782453Y-20869187D02*
X10858643Y-20869187D01*
X10811024Y-20802521D02*
X10811024Y-20973949D01*
X10811024Y-20973949D02*
X10820548Y-20992997D01*
X10820548Y-20992997D02*
X10839596Y-21002521D01*
X10839596Y-21002521D02*
X10858643Y-21002521D01*
X11001501Y-20992997D02*
X10982453Y-21002521D01*
X10982453Y-21002521D02*
X10944358Y-21002521D01*
X10944358Y-21002521D02*
X10925310Y-20992997D01*
X10925310Y-20992997D02*
X10915786Y-20973949D01*
X10915786Y-20973949D02*
X10915786Y-20897759D01*
X10915786Y-20897759D02*
X10925310Y-20878711D01*
X10925310Y-20878711D02*
X10944358Y-20869187D01*
X10944358Y-20869187D02*
X10982453Y-20869187D01*
X10982453Y-20869187D02*
X11001501Y-20878711D01*
X11001501Y-20878711D02*
X11011024Y-20897759D01*
X11011024Y-20897759D02*
X11011024Y-20916806D01*
X11011024Y-20916806D02*
X10915786Y-20935854D01*
X11182453Y-21002521D02*
X11182453Y-20802521D01*
X11182453Y-20992997D02*
X11163405Y-21002521D01*
X11163405Y-21002521D02*
X11125310Y-21002521D01*
X11125310Y-21002521D02*
X11106262Y-20992997D01*
X11106262Y-20992997D02*
X11096739Y-20983473D01*
X11096739Y-20983473D02*
X11087215Y-20964425D01*
X11087215Y-20964425D02*
X11087215Y-20907283D01*
X11087215Y-20907283D02*
X11096739Y-20888235D01*
X11096739Y-20888235D02*
X11106262Y-20878711D01*
X11106262Y-20878711D02*
X11125310Y-20869187D01*
X11125310Y-20869187D02*
X11163405Y-20869187D01*
X11163405Y-20869187D02*
X11182453Y-20878711D01*
X11258643Y-21078711D02*
X11268167Y-21069187D01*
X11268167Y-21069187D02*
X11287215Y-21040616D01*
X11287215Y-21040616D02*
X11296739Y-21021568D01*
X11296739Y-21021568D02*
X11306262Y-20992997D01*
X11306262Y-20992997D02*
X11315786Y-20945378D01*
X11315786Y-20945378D02*
X11315786Y-20907283D01*
X11315786Y-20907283D02*
X11306262Y-20859664D01*
X11306262Y-20859664D02*
X11296739Y-20831092D01*
X11296739Y-20831092D02*
X11287215Y-20812045D01*
X11287215Y-20812045D02*
X11268167Y-20783473D01*
X11268167Y-20783473D02*
X11258643Y-20773949D01*
X4212152Y-21131037D02*
X4212152Y-21331037D01*
X4112152Y-21231037D02*
X4312152Y-21231037D01*
X4553881Y-21122521D02*
X4677690Y-21122521D01*
X4677690Y-21122521D02*
X4611024Y-21198711D01*
X4611024Y-21198711D02*
X4639595Y-21198711D01*
X4639595Y-21198711D02*
X4658643Y-21208235D01*
X4658643Y-21208235D02*
X4668167Y-21217759D01*
X4668167Y-21217759D02*
X4677690Y-21236806D01*
X4677690Y-21236806D02*
X4677690Y-21284425D01*
X4677690Y-21284425D02*
X4668167Y-21303473D01*
X4668167Y-21303473D02*
X4658643Y-21312997D01*
X4658643Y-21312997D02*
X4639595Y-21322521D01*
X4639595Y-21322521D02*
X4582452Y-21322521D01*
X4582452Y-21322521D02*
X4563405Y-21312997D01*
X4563405Y-21312997D02*
X4553881Y-21303473D01*
X4763405Y-21303473D02*
X4772929Y-21312997D01*
X4772929Y-21312997D02*
X4763405Y-21322521D01*
X4763405Y-21322521D02*
X4753881Y-21312997D01*
X4753881Y-21312997D02*
X4763405Y-21303473D01*
X4763405Y-21303473D02*
X4763405Y-21322521D01*
X4944357Y-21189187D02*
X4944357Y-21322521D01*
X4896738Y-21112997D02*
X4849119Y-21255854D01*
X4849119Y-21255854D02*
X4972929Y-21255854D01*
X5039595Y-21141568D02*
X5049119Y-21132045D01*
X5049119Y-21132045D02*
X5068167Y-21122521D01*
X5068167Y-21122521D02*
X5115786Y-21122521D01*
X5115786Y-21122521D02*
X5134833Y-21132045D01*
X5134833Y-21132045D02*
X5144357Y-21141568D01*
X5144357Y-21141568D02*
X5153881Y-21160616D01*
X5153881Y-21160616D02*
X5153881Y-21179664D01*
X5153881Y-21179664D02*
X5144357Y-21208235D01*
X5144357Y-21208235D02*
X5030071Y-21322521D01*
X5030071Y-21322521D02*
X5153881Y-21322521D01*
X5249119Y-21322521D02*
X5287214Y-21322521D01*
X5287214Y-21322521D02*
X5306262Y-21312997D01*
X5306262Y-21312997D02*
X5315786Y-21303473D01*
X5315786Y-21303473D02*
X5334833Y-21274902D01*
X5334833Y-21274902D02*
X5344357Y-21236806D01*
X5344357Y-21236806D02*
X5344357Y-21160616D01*
X5344357Y-21160616D02*
X5334833Y-21141568D01*
X5334833Y-21141568D02*
X5325310Y-21132045D01*
X5325310Y-21132045D02*
X5306262Y-21122521D01*
X5306262Y-21122521D02*
X5268167Y-21122521D01*
X5268167Y-21122521D02*
X5249119Y-21132045D01*
X5249119Y-21132045D02*
X5239595Y-21141568D01*
X5239595Y-21141568D02*
X5230071Y-21160616D01*
X5230071Y-21160616D02*
X5230071Y-21208235D01*
X5230071Y-21208235D02*
X5239595Y-21227283D01*
X5239595Y-21227283D02*
X5249119Y-21236806D01*
X5249119Y-21236806D02*
X5268167Y-21246330D01*
X5268167Y-21246330D02*
X5306262Y-21246330D01*
X5306262Y-21246330D02*
X5325310Y-21236806D01*
X5325310Y-21236806D02*
X5334833Y-21227283D01*
X5334833Y-21227283D02*
X5344357Y-21208235D01*
X5430071Y-21322521D02*
X5430071Y-21189187D01*
X5430071Y-21208235D02*
X5439595Y-21198711D01*
X5439595Y-21198711D02*
X5458643Y-21189187D01*
X5458643Y-21189187D02*
X5487214Y-21189187D01*
X5487214Y-21189187D02*
X5506262Y-21198711D01*
X5506262Y-21198711D02*
X5515786Y-21217759D01*
X5515786Y-21217759D02*
X5515786Y-21322521D01*
X5515786Y-21217759D02*
X5525310Y-21198711D01*
X5525310Y-21198711D02*
X5544357Y-21189187D01*
X5544357Y-21189187D02*
X5572929Y-21189187D01*
X5572929Y-21189187D02*
X5591976Y-21198711D01*
X5591976Y-21198711D02*
X5601500Y-21217759D01*
X5601500Y-21217759D02*
X5601500Y-21322521D01*
X5696738Y-21322521D02*
X5696738Y-21189187D01*
X5696738Y-21208235D02*
X5706262Y-21198711D01*
X5706262Y-21198711D02*
X5725309Y-21189187D01*
X5725309Y-21189187D02*
X5753881Y-21189187D01*
X5753881Y-21189187D02*
X5772929Y-21198711D01*
X5772929Y-21198711D02*
X5782452Y-21217759D01*
X5782452Y-21217759D02*
X5782452Y-21322521D01*
X5782452Y-21217759D02*
X5791976Y-21198711D01*
X5791976Y-21198711D02*
X5811024Y-21189187D01*
X5811024Y-21189187D02*
X5839595Y-21189187D01*
X5839595Y-21189187D02*
X5858643Y-21198711D01*
X5858643Y-21198711D02*
X5868167Y-21217759D01*
X5868167Y-21217759D02*
X5868167Y-21322521D01*
X6258643Y-21112997D02*
X6087214Y-21370140D01*
X6515786Y-21122521D02*
X6534833Y-21122521D01*
X6534833Y-21122521D02*
X6553881Y-21132045D01*
X6553881Y-21132045D02*
X6563405Y-21141568D01*
X6563405Y-21141568D02*
X6572929Y-21160616D01*
X6572929Y-21160616D02*
X6582452Y-21198711D01*
X6582452Y-21198711D02*
X6582452Y-21246330D01*
X6582452Y-21246330D02*
X6572929Y-21284425D01*
X6572929Y-21284425D02*
X6563405Y-21303473D01*
X6563405Y-21303473D02*
X6553881Y-21312997D01*
X6553881Y-21312997D02*
X6534833Y-21322521D01*
X6534833Y-21322521D02*
X6515786Y-21322521D01*
X6515786Y-21322521D02*
X6496738Y-21312997D01*
X6496738Y-21312997D02*
X6487214Y-21303473D01*
X6487214Y-21303473D02*
X6477691Y-21284425D01*
X6477691Y-21284425D02*
X6468167Y-21246330D01*
X6468167Y-21246330D02*
X6468167Y-21198711D01*
X6468167Y-21198711D02*
X6477691Y-21160616D01*
X6477691Y-21160616D02*
X6487214Y-21141568D01*
X6487214Y-21141568D02*
X6496738Y-21132045D01*
X6496738Y-21132045D02*
X6515786Y-21122521D01*
X6668167Y-21303473D02*
X6677691Y-21312997D01*
X6677691Y-21312997D02*
X6668167Y-21322521D01*
X6668167Y-21322521D02*
X6658643Y-21312997D01*
X6658643Y-21312997D02*
X6668167Y-21303473D01*
X6668167Y-21303473D02*
X6668167Y-21322521D01*
X6868167Y-21322521D02*
X6753881Y-21322521D01*
X6811024Y-21322521D02*
X6811024Y-21122521D01*
X6811024Y-21122521D02*
X6791976Y-21151092D01*
X6791976Y-21151092D02*
X6772929Y-21170140D01*
X6772929Y-21170140D02*
X6753881Y-21179664D01*
X6934833Y-21122521D02*
X7058643Y-21122521D01*
X7058643Y-21122521D02*
X6991976Y-21198711D01*
X6991976Y-21198711D02*
X7020548Y-21198711D01*
X7020548Y-21198711D02*
X7039595Y-21208235D01*
X7039595Y-21208235D02*
X7049119Y-21217759D01*
X7049119Y-21217759D02*
X7058643Y-21236806D01*
X7058643Y-21236806D02*
X7058643Y-21284425D01*
X7058643Y-21284425D02*
X7049119Y-21303473D01*
X7049119Y-21303473D02*
X7039595Y-21312997D01*
X7039595Y-21312997D02*
X7020548Y-21322521D01*
X7020548Y-21322521D02*
X6963405Y-21322521D01*
X6963405Y-21322521D02*
X6944357Y-21312997D01*
X6944357Y-21312997D02*
X6934833Y-21303473D01*
X7239595Y-21122521D02*
X7144357Y-21122521D01*
X7144357Y-21122521D02*
X7134833Y-21217759D01*
X7134833Y-21217759D02*
X7144357Y-21208235D01*
X7144357Y-21208235D02*
X7163405Y-21198711D01*
X7163405Y-21198711D02*
X7211024Y-21198711D01*
X7211024Y-21198711D02*
X7230072Y-21208235D01*
X7230072Y-21208235D02*
X7239595Y-21217759D01*
X7239595Y-21217759D02*
X7249119Y-21236806D01*
X7249119Y-21236806D02*
X7249119Y-21284425D01*
X7249119Y-21284425D02*
X7239595Y-21303473D01*
X7239595Y-21303473D02*
X7230072Y-21312997D01*
X7230072Y-21312997D02*
X7211024Y-21322521D01*
X7211024Y-21322521D02*
X7163405Y-21322521D01*
X7163405Y-21322521D02*
X7144357Y-21312997D01*
X7144357Y-21312997D02*
X7134833Y-21303473D01*
X7372929Y-21122521D02*
X7391976Y-21122521D01*
X7391976Y-21122521D02*
X7411024Y-21132045D01*
X7411024Y-21132045D02*
X7420548Y-21141568D01*
X7420548Y-21141568D02*
X7430072Y-21160616D01*
X7430072Y-21160616D02*
X7439595Y-21198711D01*
X7439595Y-21198711D02*
X7439595Y-21246330D01*
X7439595Y-21246330D02*
X7430072Y-21284425D01*
X7430072Y-21284425D02*
X7420548Y-21303473D01*
X7420548Y-21303473D02*
X7411024Y-21312997D01*
X7411024Y-21312997D02*
X7391976Y-21322521D01*
X7391976Y-21322521D02*
X7372929Y-21322521D01*
X7372929Y-21322521D02*
X7353881Y-21312997D01*
X7353881Y-21312997D02*
X7344357Y-21303473D01*
X7344357Y-21303473D02*
X7334833Y-21284425D01*
X7334833Y-21284425D02*
X7325310Y-21246330D01*
X7325310Y-21246330D02*
X7325310Y-21198711D01*
X7325310Y-21198711D02*
X7334833Y-21160616D01*
X7334833Y-21160616D02*
X7344357Y-21141568D01*
X7344357Y-21141568D02*
X7353881Y-21132045D01*
X7353881Y-21132045D02*
X7372929Y-21122521D01*
X7515786Y-21122521D02*
X7515786Y-21160616D01*
X7591976Y-21122521D02*
X7591976Y-21160616D01*
X7887215Y-21398711D02*
X7877691Y-21389187D01*
X7877691Y-21389187D02*
X7858643Y-21360616D01*
X7858643Y-21360616D02*
X7849119Y-21341568D01*
X7849119Y-21341568D02*
X7839595Y-21312997D01*
X7839595Y-21312997D02*
X7830072Y-21265378D01*
X7830072Y-21265378D02*
X7830072Y-21227283D01*
X7830072Y-21227283D02*
X7839595Y-21179664D01*
X7839595Y-21179664D02*
X7849119Y-21151092D01*
X7849119Y-21151092D02*
X7858643Y-21132045D01*
X7858643Y-21132045D02*
X7877691Y-21103473D01*
X7877691Y-21103473D02*
X7887215Y-21093949D01*
X7944357Y-21122521D02*
X8068167Y-21122521D01*
X8068167Y-21122521D02*
X8001500Y-21198711D01*
X8001500Y-21198711D02*
X8030072Y-21198711D01*
X8030072Y-21198711D02*
X8049119Y-21208235D01*
X8049119Y-21208235D02*
X8058643Y-21217759D01*
X8058643Y-21217759D02*
X8068167Y-21236806D01*
X8068167Y-21236806D02*
X8068167Y-21284425D01*
X8068167Y-21284425D02*
X8058643Y-21303473D01*
X8058643Y-21303473D02*
X8049119Y-21312997D01*
X8049119Y-21312997D02*
X8030072Y-21322521D01*
X8030072Y-21322521D02*
X7972929Y-21322521D01*
X7972929Y-21322521D02*
X7953881Y-21312997D01*
X7953881Y-21312997D02*
X7944357Y-21303473D01*
X8239595Y-21122521D02*
X8201500Y-21122521D01*
X8201500Y-21122521D02*
X8182453Y-21132045D01*
X8182453Y-21132045D02*
X8172929Y-21141568D01*
X8172929Y-21141568D02*
X8153881Y-21170140D01*
X8153881Y-21170140D02*
X8144357Y-21208235D01*
X8144357Y-21208235D02*
X8144357Y-21284425D01*
X8144357Y-21284425D02*
X8153881Y-21303473D01*
X8153881Y-21303473D02*
X8163405Y-21312997D01*
X8163405Y-21312997D02*
X8182453Y-21322521D01*
X8182453Y-21322521D02*
X8220548Y-21322521D01*
X8220548Y-21322521D02*
X8239595Y-21312997D01*
X8239595Y-21312997D02*
X8249119Y-21303473D01*
X8249119Y-21303473D02*
X8258643Y-21284425D01*
X8258643Y-21284425D02*
X8258643Y-21236806D01*
X8258643Y-21236806D02*
X8249119Y-21217759D01*
X8249119Y-21217759D02*
X8239595Y-21208235D01*
X8239595Y-21208235D02*
X8220548Y-21198711D01*
X8220548Y-21198711D02*
X8182453Y-21198711D01*
X8182453Y-21198711D02*
X8163405Y-21208235D01*
X8163405Y-21208235D02*
X8153881Y-21217759D01*
X8153881Y-21217759D02*
X8144357Y-21236806D01*
X8496738Y-21322521D02*
X8496738Y-21122521D01*
X8582453Y-21322521D02*
X8582453Y-21217759D01*
X8582453Y-21217759D02*
X8572929Y-21198711D01*
X8572929Y-21198711D02*
X8553881Y-21189187D01*
X8553881Y-21189187D02*
X8525310Y-21189187D01*
X8525310Y-21189187D02*
X8506262Y-21198711D01*
X8506262Y-21198711D02*
X8496738Y-21208235D01*
X8706262Y-21322521D02*
X8687215Y-21312997D01*
X8687215Y-21312997D02*
X8677691Y-21303473D01*
X8677691Y-21303473D02*
X8668167Y-21284425D01*
X8668167Y-21284425D02*
X8668167Y-21227283D01*
X8668167Y-21227283D02*
X8677691Y-21208235D01*
X8677691Y-21208235D02*
X8687215Y-21198711D01*
X8687215Y-21198711D02*
X8706262Y-21189187D01*
X8706262Y-21189187D02*
X8734834Y-21189187D01*
X8734834Y-21189187D02*
X8753881Y-21198711D01*
X8753881Y-21198711D02*
X8763405Y-21208235D01*
X8763405Y-21208235D02*
X8772929Y-21227283D01*
X8772929Y-21227283D02*
X8772929Y-21284425D01*
X8772929Y-21284425D02*
X8763405Y-21303473D01*
X8763405Y-21303473D02*
X8753881Y-21312997D01*
X8753881Y-21312997D02*
X8734834Y-21322521D01*
X8734834Y-21322521D02*
X8706262Y-21322521D01*
X8887215Y-21322521D02*
X8868167Y-21312997D01*
X8868167Y-21312997D02*
X8858643Y-21293949D01*
X8858643Y-21293949D02*
X8858643Y-21122521D01*
X9039596Y-21312997D02*
X9020548Y-21322521D01*
X9020548Y-21322521D02*
X8982453Y-21322521D01*
X8982453Y-21322521D02*
X8963405Y-21312997D01*
X8963405Y-21312997D02*
X8953881Y-21293949D01*
X8953881Y-21293949D02*
X8953881Y-21217759D01*
X8953881Y-21217759D02*
X8963405Y-21198711D01*
X8963405Y-21198711D02*
X8982453Y-21189187D01*
X8982453Y-21189187D02*
X9020548Y-21189187D01*
X9020548Y-21189187D02*
X9039596Y-21198711D01*
X9039596Y-21198711D02*
X9049119Y-21217759D01*
X9049119Y-21217759D02*
X9049119Y-21236806D01*
X9049119Y-21236806D02*
X8953881Y-21255854D01*
X9125310Y-21312997D02*
X9144358Y-21322521D01*
X9144358Y-21322521D02*
X9182453Y-21322521D01*
X9182453Y-21322521D02*
X9201500Y-21312997D01*
X9201500Y-21312997D02*
X9211024Y-21293949D01*
X9211024Y-21293949D02*
X9211024Y-21284425D01*
X9211024Y-21284425D02*
X9201500Y-21265378D01*
X9201500Y-21265378D02*
X9182453Y-21255854D01*
X9182453Y-21255854D02*
X9153881Y-21255854D01*
X9153881Y-21255854D02*
X9134834Y-21246330D01*
X9134834Y-21246330D02*
X9125310Y-21227283D01*
X9125310Y-21227283D02*
X9125310Y-21217759D01*
X9125310Y-21217759D02*
X9134834Y-21198711D01*
X9134834Y-21198711D02*
X9153881Y-21189187D01*
X9153881Y-21189187D02*
X9182453Y-21189187D01*
X9182453Y-21189187D02*
X9201500Y-21198711D01*
X9277691Y-21398711D02*
X9287215Y-21389187D01*
X9287215Y-21389187D02*
X9306262Y-21360616D01*
X9306262Y-21360616D02*
X9315786Y-21341568D01*
X9315786Y-21341568D02*
X9325310Y-21312997D01*
X9325310Y-21312997D02*
X9334834Y-21265378D01*
X9334834Y-21265378D02*
X9334834Y-21227283D01*
X9334834Y-21227283D02*
X9325310Y-21179664D01*
X9325310Y-21179664D02*
X9315786Y-21151092D01*
X9315786Y-21151092D02*
X9306262Y-21132045D01*
X9306262Y-21132045D02*
X9287215Y-21103473D01*
X9287215Y-21103473D02*
X9277691Y-21093949D01*
X9639596Y-21398711D02*
X9630072Y-21389187D01*
X9630072Y-21389187D02*
X9611024Y-21360616D01*
X9611024Y-21360616D02*
X9601500Y-21341568D01*
X9601500Y-21341568D02*
X9591977Y-21312997D01*
X9591977Y-21312997D02*
X9582453Y-21265378D01*
X9582453Y-21265378D02*
X9582453Y-21227283D01*
X9582453Y-21227283D02*
X9591977Y-21179664D01*
X9591977Y-21179664D02*
X9601500Y-21151092D01*
X9601500Y-21151092D02*
X9611024Y-21132045D01*
X9611024Y-21132045D02*
X9630072Y-21103473D01*
X9630072Y-21103473D02*
X9639596Y-21093949D01*
X9715786Y-21189187D02*
X9715786Y-21322521D01*
X9715786Y-21208235D02*
X9725310Y-21198711D01*
X9725310Y-21198711D02*
X9744358Y-21189187D01*
X9744358Y-21189187D02*
X9772929Y-21189187D01*
X9772929Y-21189187D02*
X9791977Y-21198711D01*
X9791977Y-21198711D02*
X9801500Y-21217759D01*
X9801500Y-21217759D02*
X9801500Y-21322521D01*
X9925310Y-21322521D02*
X9906262Y-21312997D01*
X9906262Y-21312997D02*
X9896739Y-21303473D01*
X9896739Y-21303473D02*
X9887215Y-21284425D01*
X9887215Y-21284425D02*
X9887215Y-21227283D01*
X9887215Y-21227283D02*
X9896739Y-21208235D01*
X9896739Y-21208235D02*
X9906262Y-21198711D01*
X9906262Y-21198711D02*
X9925310Y-21189187D01*
X9925310Y-21189187D02*
X9953881Y-21189187D01*
X9953881Y-21189187D02*
X9972929Y-21198711D01*
X9972929Y-21198711D02*
X9982453Y-21208235D01*
X9982453Y-21208235D02*
X9991977Y-21227283D01*
X9991977Y-21227283D02*
X9991977Y-21284425D01*
X9991977Y-21284425D02*
X9982453Y-21303473D01*
X9982453Y-21303473D02*
X9972929Y-21312997D01*
X9972929Y-21312997D02*
X9953881Y-21322521D01*
X9953881Y-21322521D02*
X9925310Y-21322521D01*
X10049120Y-21189187D02*
X10125310Y-21189187D01*
X10077691Y-21122521D02*
X10077691Y-21293949D01*
X10077691Y-21293949D02*
X10087215Y-21312997D01*
X10087215Y-21312997D02*
X10106262Y-21322521D01*
X10106262Y-21322521D02*
X10125310Y-21322521D01*
X10344358Y-21189187D02*
X10344358Y-21389187D01*
X10344358Y-21198711D02*
X10363405Y-21189187D01*
X10363405Y-21189187D02*
X10401501Y-21189187D01*
X10401501Y-21189187D02*
X10420548Y-21198711D01*
X10420548Y-21198711D02*
X10430072Y-21208235D01*
X10430072Y-21208235D02*
X10439596Y-21227283D01*
X10439596Y-21227283D02*
X10439596Y-21284425D01*
X10439596Y-21284425D02*
X10430072Y-21303473D01*
X10430072Y-21303473D02*
X10420548Y-21312997D01*
X10420548Y-21312997D02*
X10401501Y-21322521D01*
X10401501Y-21322521D02*
X10363405Y-21322521D01*
X10363405Y-21322521D02*
X10344358Y-21312997D01*
X10553881Y-21322521D02*
X10534834Y-21312997D01*
X10534834Y-21312997D02*
X10525310Y-21293949D01*
X10525310Y-21293949D02*
X10525310Y-21122521D01*
X10715786Y-21322521D02*
X10715786Y-21217759D01*
X10715786Y-21217759D02*
X10706262Y-21198711D01*
X10706262Y-21198711D02*
X10687215Y-21189187D01*
X10687215Y-21189187D02*
X10649120Y-21189187D01*
X10649120Y-21189187D02*
X10630072Y-21198711D01*
X10715786Y-21312997D02*
X10696739Y-21322521D01*
X10696739Y-21322521D02*
X10649120Y-21322521D01*
X10649120Y-21322521D02*
X10630072Y-21312997D01*
X10630072Y-21312997D02*
X10620548Y-21293949D01*
X10620548Y-21293949D02*
X10620548Y-21274902D01*
X10620548Y-21274902D02*
X10630072Y-21255854D01*
X10630072Y-21255854D02*
X10649120Y-21246330D01*
X10649120Y-21246330D02*
X10696739Y-21246330D01*
X10696739Y-21246330D02*
X10715786Y-21236806D01*
X10782453Y-21189187D02*
X10858643Y-21189187D01*
X10811024Y-21122521D02*
X10811024Y-21293949D01*
X10811024Y-21293949D02*
X10820548Y-21312997D01*
X10820548Y-21312997D02*
X10839596Y-21322521D01*
X10839596Y-21322521D02*
X10858643Y-21322521D01*
X11001501Y-21312997D02*
X10982453Y-21322521D01*
X10982453Y-21322521D02*
X10944358Y-21322521D01*
X10944358Y-21322521D02*
X10925310Y-21312997D01*
X10925310Y-21312997D02*
X10915786Y-21293949D01*
X10915786Y-21293949D02*
X10915786Y-21217759D01*
X10915786Y-21217759D02*
X10925310Y-21198711D01*
X10925310Y-21198711D02*
X10944358Y-21189187D01*
X10944358Y-21189187D02*
X10982453Y-21189187D01*
X10982453Y-21189187D02*
X11001501Y-21198711D01*
X11001501Y-21198711D02*
X11011024Y-21217759D01*
X11011024Y-21217759D02*
X11011024Y-21236806D01*
X11011024Y-21236806D02*
X10915786Y-21255854D01*
X11182453Y-21322521D02*
X11182453Y-21122521D01*
X11182453Y-21312997D02*
X11163405Y-21322521D01*
X11163405Y-21322521D02*
X11125310Y-21322521D01*
X11125310Y-21322521D02*
X11106262Y-21312997D01*
X11106262Y-21312997D02*
X11096739Y-21303473D01*
X11096739Y-21303473D02*
X11087215Y-21284425D01*
X11087215Y-21284425D02*
X11087215Y-21227283D01*
X11087215Y-21227283D02*
X11096739Y-21208235D01*
X11096739Y-21208235D02*
X11106262Y-21198711D01*
X11106262Y-21198711D02*
X11125310Y-21189187D01*
X11125310Y-21189187D02*
X11163405Y-21189187D01*
X11163405Y-21189187D02*
X11182453Y-21198711D01*
X11258643Y-21398711D02*
X11268167Y-21389187D01*
X11268167Y-21389187D02*
X11287215Y-21360616D01*
X11287215Y-21360616D02*
X11296739Y-21341568D01*
X11296739Y-21341568D02*
X11306262Y-21312997D01*
X11306262Y-21312997D02*
X11315786Y-21265378D01*
X11315786Y-21265378D02*
X11315786Y-21227283D01*
X11315786Y-21227283D02*
X11306262Y-21179664D01*
X11306262Y-21179664D02*
X11296739Y-21151092D01*
X11296739Y-21151092D02*
X11287215Y-21132045D01*
X11287215Y-21132045D02*
X11268167Y-21103473D01*
X11268167Y-21103473D02*
X11258643Y-21093949D01*
M02*
