%TF.GenerationSoftware,KiCad,Pcbnew,8.0.1*%
%TF.CreationDate,2024-04-14T13:59:04+09:00*%
%TF.ProjectId,lazyboy36,6c617a79-626f-4793-9336-2e6b69636164,v1.0.0*%
%TF.SameCoordinates,Original*%
%TF.FileFunction,Profile,NP*%
%FSLAX46Y46*%
G04 Gerber Fmt 4.6, Leading zero omitted, Abs format (unit mm)*
G04 Created by KiCad (PCBNEW 8.0.1) date 2024-04-14 13:59:04*
%MOMM*%
%LPD*%
G01*
G04 APERTURE LIST*
%TA.AperFunction,Profile*%
%ADD10C,0.150000*%
%TD*%
G04 APERTURE END LIST*
D10*
X172281505Y-199733552D02*
X139209959Y-199733569D01*
X248696971Y-84069590D02*
G75*
G02*
X250261621Y-85360614I-314671J-1975010D01*
G01*
X268174302Y-134575364D02*
G75*
G02*
X267529469Y-136832898I-1879402J-684036D01*
G01*
X61229873Y-85360620D02*
G75*
G02*
X62794493Y-84069578I1879427J-684080D01*
G01*
X86408051Y-170135950D02*
X43961993Y-136832894D01*
X148715516Y-127680992D02*
G75*
G02*
X146836037Y-124996922I-116J1999992D01*
G01*
X164655326Y-124996952D02*
X160337835Y-113134709D01*
X43961989Y-136832907D02*
G75*
G02*
X43317176Y-134575377I1234311J1573407D01*
G01*
X164655325Y-124996952D02*
G75*
G02*
X162775945Y-127680906I-1879425J-683948D01*
G01*
X121486698Y-90154963D02*
X150436340Y-110822924D01*
X62794494Y-84069583D02*
X81732724Y-81051557D01*
X139209959Y-199733569D02*
G75*
G02*
X138225233Y-199474321I41J1999969D01*
G01*
X138225225Y-199474335D02*
X86657867Y-170303232D01*
X160337835Y-113134709D02*
G75*
G02*
X161055132Y-110822934I1879465J684009D01*
G01*
X225083420Y-170135956D02*
G75*
G02*
X224833594Y-170303232I-1233920J1572656D01*
G01*
X81732723Y-81051559D02*
G75*
G02*
X82203564Y-81032744I314677J-1974041D01*
G01*
X224833597Y-170303237D02*
X173266240Y-199474324D01*
X211171656Y-82450852D02*
X229287919Y-81032741D01*
X250261594Y-85360624D02*
X268174315Y-134575372D01*
X86657867Y-170303231D02*
G75*
G02*
X86408055Y-170135945I985433J1741731D01*
G01*
X148715516Y-127680992D02*
X162775945Y-127680987D01*
X190004765Y-90154967D02*
G75*
G02*
X190482811Y-89903326I1162135J-1627833D01*
G01*
X229287919Y-81032746D02*
G75*
G02*
X229758737Y-81051549I156081J-1995754D01*
G01*
X150436340Y-110822924D02*
G75*
G02*
X151153652Y-113134722I-1162140J-1627776D01*
G01*
X173266240Y-199474324D02*
G75*
G02*
X172281505Y-199733571I-984740J1740624D01*
G01*
X267529475Y-136832906D02*
X225083420Y-170135956D01*
X151153631Y-113134714D02*
X146836129Y-124996956D01*
X82203564Y-81032743D02*
X100319806Y-82450853D01*
X161055121Y-110822919D02*
X190004764Y-90154966D01*
X100319806Y-82450853D02*
G75*
G02*
X100847768Y-82565358I-156006J-1993747D01*
G01*
X210643691Y-82565368D02*
G75*
G02*
X211171656Y-82450847I684009J-1879132D01*
G01*
X100847765Y-82565365D02*
X121008658Y-89903329D01*
X121008658Y-89903329D02*
G75*
G02*
X121486696Y-90154966I-684358J-1879971D01*
G01*
X229758736Y-81051555D02*
X248696954Y-84069589D01*
X190482812Y-89903329D02*
X210643691Y-82565368D01*
X43317168Y-134575374D02*
X61229869Y-85360621D01*
M02*
