%TF.GenerationSoftware,KiCad,Pcbnew,8.0.1*%
%TF.CreationDate,2024-04-14T13:59:04+09:00*%
%TF.ProjectId,lazyboy36,6c617a79-626f-4793-9336-2e6b69636164,v1.0.0*%
%TF.SameCoordinates,Original*%
%TF.FileFunction,Paste,Top*%
%TF.FilePolarity,Positive*%
%FSLAX46Y46*%
G04 Gerber Fmt 4.6, Leading zero omitted, Abs format (unit mm)*
G04 Created by KiCad (PCBNEW 8.0.1) date 2024-04-14 13:59:04*
%MOMM*%
%LPD*%
G01*
G04 APERTURE LIST*
G04 Aperture macros list*
%AMRotRect*
0 Rectangle, with rotation*
0 The origin of the aperture is its center*
0 $1 length*
0 $2 width*
0 $3 Rotation angle, in degrees counterclockwise*
0 Add horizontal line*
21,1,$1,$2,0,0,$3*%
G04 Aperture macros list end*
%ADD10R,1.100000X1.800000*%
%ADD11RotRect,0.900000X1.200000X340.000000*%
%ADD12RotRect,0.900000X1.200000X20.000000*%
%ADD13RotRect,0.900000X1.200000X25.000000*%
%ADD14RotRect,0.900000X1.200000X45.000000*%
%ADD15RotRect,0.900000X1.200000X315.000000*%
%ADD16RotRect,0.900000X1.200000X335.000000*%
%ADD17RotRect,0.900000X1.200000X345.000000*%
%ADD18RotRect,0.900000X1.200000X15.000000*%
G04 APERTURE END LIST*
D10*
%TO.C,B1*%
X157595730Y-169805495D03*
X157595726Y-176005492D03*
X153895734Y-169805498D03*
X153895730Y-176005495D03*
%TD*%
D11*
%TO.C,D2*%
X59302831Y-117992675D03*
X62403817Y-119121339D03*
%TD*%
D12*
%TO.C,D19*%
X254901989Y-135096119D03*
X258002971Y-133967455D03*
%TD*%
D13*
%TO.C,D35*%
X191506985Y-175788528D03*
X194497797Y-174393888D03*
%TD*%
D11*
%TO.C,D3*%
X65117168Y-102017911D03*
X68218154Y-103146575D03*
%TD*%
D14*
%TO.C,D36*%
X174823250Y-189233024D03*
X177156700Y-186899570D03*
%TD*%
D12*
%TO.C,D20*%
X249087655Y-119121349D03*
X252188637Y-117992685D03*
%TD*%
%TO.C,D32*%
X179719678Y-139048348D03*
X182820660Y-137919684D03*
%TD*%
%TO.C,D31*%
X185534034Y-155023110D03*
X188635016Y-153894446D03*
%TD*%
%TO.C,D22*%
X234567326Y-131855557D03*
X237668308Y-130726893D03*
%TD*%
D11*
%TO.C,D4*%
X73823152Y-130726890D03*
X76924138Y-131855554D03*
%TD*%
D12*
%TO.C,D28*%
X200738393Y-144168296D03*
X203839375Y-143039632D03*
%TD*%
D11*
%TO.C,D9*%
X104076410Y-100235248D03*
X107177396Y-101363912D03*
%TD*%
D15*
%TO.C,D18*%
X134334767Y-186899569D03*
X136668221Y-189233019D03*
%TD*%
D11*
%TO.C,D8*%
X98262058Y-116210019D03*
X101363044Y-117338683D03*
%TD*%
D12*
%TO.C,D27*%
X204314082Y-101363917D03*
X207415064Y-100235253D03*
%TD*%
%TO.C,D29*%
X194924049Y-128193523D03*
X198025031Y-127064859D03*
%TD*%
%TO.C,D24*%
X222938635Y-99906026D03*
X226039617Y-98777362D03*
%TD*%
D11*
%TO.C,D14*%
X128670796Y-137919676D03*
X131771782Y-139048340D03*
%TD*%
D16*
%TO.C,D17*%
X116993667Y-174393893D03*
X119984483Y-175788531D03*
%TD*%
D11*
%TO.C,D13*%
X122856454Y-153894451D03*
X125957440Y-155023115D03*
%TD*%
D17*
%TO.C,D16*%
X96981573Y-167336378D03*
X100169129Y-168190478D03*
%TD*%
D11*
%TO.C,D11*%
X113466425Y-127064840D03*
X116567411Y-128193504D03*
%TD*%
%TO.C,D1*%
X53488484Y-133967460D03*
X56589470Y-135096124D03*
%TD*%
D12*
%TO.C,D23*%
X228752984Y-115880779D03*
X231853966Y-114752115D03*
%TD*%
%TO.C,D30*%
X189109706Y-112218730D03*
X192210688Y-111090066D03*
%TD*%
%TO.C,D21*%
X243273310Y-103146564D03*
X246374292Y-102017900D03*
%TD*%
D11*
%TO.C,D12*%
X119280760Y-111090074D03*
X122381746Y-112218738D03*
%TD*%
%TO.C,D7*%
X92447717Y-132184787D03*
X95548703Y-133313451D03*
%TD*%
D12*
%TO.C,D33*%
X173905342Y-123073553D03*
X177006324Y-121944889D03*
%TD*%
%TO.C,D25*%
X215942761Y-133313459D03*
X219043743Y-132184795D03*
%TD*%
D11*
%TO.C,D10*%
X107652079Y-143039626D03*
X110753065Y-144168290D03*
%TD*%
%TO.C,D5*%
X79637488Y-114752122D03*
X82738474Y-115880786D03*
%TD*%
%TO.C,D15*%
X134485135Y-121944900D03*
X137586121Y-123073564D03*
%TD*%
%TO.C,D6*%
X85451840Y-98777357D03*
X88552826Y-99906021D03*
%TD*%
D12*
%TO.C,D26*%
X210128411Y-117338681D03*
X213229393Y-116210017D03*
%TD*%
D18*
%TO.C,D34*%
X211322347Y-168190465D03*
X214509899Y-167336363D03*
%TD*%
M02*
