%TF.GenerationSoftware,KiCad,Pcbnew,8.0.1*%
%TF.CreationDate,2024-04-14T13:59:20+09:00*%
%TF.ProjectId,lazyboy36,6c617a79-626f-4793-9336-2e6b69636164,v1.0.0*%
%TF.SameCoordinates,Original*%
%TF.FileFunction,Drillmap*%
%TF.FilePolarity,Positive*%
%FSLAX45Y45*%
G04 Gerber Fmt 4.5, Leading zero omitted, Abs format (unit mm)*
G04 Created by KiCad (PCBNEW 8.0.1) date 2024-04-14 13:59:20*
%MOMM*%
%LPD*%
G01*
G04 APERTURE LIST*
%ADD10C,0.150000*%
%ADD11C,0.200000*%
%ADD12C,0.100000*%
%ADD13C,0.109220*%
%ADD14C,0.220000*%
G04 APERTURE END LIST*
D10*
X17228151Y-19973355D02*
X13920996Y-19973357D01*
X24869697Y-8406959D02*
G75*
G02*
X25026162Y-8536061I-31467J-197501D01*
G01*
X26817430Y-13457536D02*
G75*
G02*
X26752947Y-13683290I-187940J-68404D01*
G01*
X6122987Y-8536062D02*
G75*
G02*
X6279449Y-8406958I187943J-68408D01*
G01*
X8640805Y-17013595D02*
X4396199Y-13683289D01*
X14871552Y-12768099D02*
G75*
G02*
X14683604Y-12499692I-12J199999D01*
G01*
X16465533Y-12499695D02*
X16033783Y-11313471D01*
X4396199Y-13683291D02*
G75*
G02*
X4331718Y-13457538I123431J157341D01*
G01*
X16465532Y-12499695D02*
G75*
G02*
X16277594Y-12768091I-187943J-68395D01*
G01*
X12148670Y-9015496D02*
X15043634Y-11082292D01*
X6279449Y-8406958D02*
X8173272Y-8105156D01*
X13920996Y-19973357D02*
G75*
G02*
X13822523Y-19947432I4J199997D01*
G01*
X13822522Y-19947434D02*
X8665787Y-17030323D01*
X16033783Y-11313471D02*
G75*
G02*
X16105513Y-11082293I187947J68401D01*
G01*
X22508342Y-17013596D02*
G75*
G02*
X22483359Y-17030323I-123392J157266D01*
G01*
X8173272Y-8105156D02*
G75*
G02*
X8220356Y-8103274I31468J-197404D01*
G01*
X22483360Y-17030324D02*
X17326624Y-19947432D01*
X21117166Y-8245085D02*
X22928792Y-8103274D01*
X25026159Y-8536062D02*
X26817431Y-13457537D01*
X8665787Y-17030323D02*
G75*
G02*
X8640806Y-17013595I98543J174173D01*
G01*
X14871552Y-12768099D02*
X16277594Y-12768099D01*
X19000477Y-9015497D02*
G75*
G02*
X19048281Y-8990333I116214J-162783D01*
G01*
X22928792Y-8103275D02*
G75*
G02*
X22975874Y-8105155I15608J-199575D01*
G01*
X15043634Y-11082292D02*
G75*
G02*
X15115365Y-11313472I-116214J-162778D01*
G01*
X17326624Y-19947432D02*
G75*
G02*
X17228151Y-19973357I-98474J174062D01*
G01*
X26752947Y-13683291D02*
X22508342Y-17013596D01*
X15115363Y-11313471D02*
X14683613Y-12499696D01*
X8220356Y-8103274D02*
X10031981Y-8245085D01*
X16105512Y-11082292D02*
X19000476Y-9015497D01*
X10031981Y-8245085D02*
G75*
G02*
X10084777Y-8256536I-15601J-199375D01*
G01*
X21064369Y-8256537D02*
G75*
G02*
X21117166Y-8245085I68401J-187913D01*
G01*
X10084777Y-8256536D02*
X12100866Y-8990333D01*
X12100866Y-8990333D02*
G75*
G02*
X12148670Y-9015497I-68436J-187997D01*
G01*
X22975874Y-8105155D02*
X24869695Y-8406959D01*
X19048281Y-8990333D02*
X21064369Y-8256537D01*
X4331717Y-13457537D02*
X6122987Y-8536062D01*
D11*
D12*
X6440181Y-9871662D02*
X6480181Y-9911662D01*
X6480181Y-9871662D02*
X6440181Y-9911662D01*
X8529580Y-9642456D02*
X8569580Y-9682456D01*
X8569580Y-9642456D02*
X8529580Y-9682456D01*
X17812686Y-13087233D02*
X17852686Y-13127233D01*
X17852686Y-13087233D02*
X17812686Y-13127233D01*
X17894881Y-14770651D02*
X17934881Y-14810651D01*
X17934881Y-14770651D02*
X17894881Y-14810651D01*
X19700696Y-10620542D02*
X19740696Y-10660542D01*
X19740696Y-10620542D02*
X19700696Y-10660542D01*
X6094864Y-14033457D02*
G75*
G02*
X6054864Y-14033457I-20000J0D01*
G01*
X6054864Y-14033457D02*
G75*
G02*
X6094864Y-14033457I20000J0D01*
G01*
X6100373Y-14159622D02*
G75*
G02*
X6060373Y-14159622I-20000J0D01*
G01*
X6060373Y-14159622D02*
G75*
G02*
X6100373Y-14159622I20000J0D01*
G01*
X6180181Y-13940349D02*
G75*
G02*
X6140181Y-13940349I-20000J0D01*
G01*
X6140181Y-13940349D02*
G75*
G02*
X6180181Y-13940349I20000J0D01*
G01*
X6193480Y-14244939D02*
G75*
G02*
X6153480Y-14244939I-20000J0D01*
G01*
X6153480Y-14244939D02*
G75*
G02*
X6193480Y-14244939I20000J0D01*
G01*
X6306346Y-13934841D02*
G75*
G02*
X6266346Y-13934841I-20000J0D01*
G01*
X6266346Y-13934841D02*
G75*
G02*
X6306346Y-13934841I20000J0D01*
G01*
X6319645Y-14239430D02*
G75*
G02*
X6279645Y-14239430I-20000J0D01*
G01*
X6279645Y-14239430D02*
G75*
G02*
X6319645Y-14239430I20000J0D01*
G01*
X6399454Y-14020158D02*
G75*
G02*
X6359454Y-14020158I-20000J0D01*
G01*
X6359454Y-14020158D02*
G75*
G02*
X6399454Y-14020158I20000J0D01*
G01*
X6404962Y-14146323D02*
G75*
G02*
X6364962Y-14146323I-20000J0D01*
G01*
X6364962Y-14146323D02*
G75*
G02*
X6404962Y-14146323I20000J0D01*
G01*
X7839167Y-9241024D02*
G75*
G02*
X7799167Y-9241024I-20000J0D01*
G01*
X7799167Y-9241024D02*
G75*
G02*
X7839167Y-9241024I20000J0D01*
G01*
X7844676Y-9367190D02*
G75*
G02*
X7804676Y-9367190I-20000J0D01*
G01*
X7804676Y-9367190D02*
G75*
G02*
X7844676Y-9367190I20000J0D01*
G01*
X7924485Y-9147917D02*
G75*
G02*
X7884485Y-9147917I-20000J0D01*
G01*
X7884485Y-9147917D02*
G75*
G02*
X7924485Y-9147917I20000J0D01*
G01*
X7937784Y-9452507D02*
G75*
G02*
X7897784Y-9452507I-20000J0D01*
G01*
X7897784Y-9452507D02*
G75*
G02*
X7937784Y-9452507I20000J0D01*
G01*
X8050650Y-9142408D02*
G75*
G02*
X8010650Y-9142408I-20000J0D01*
G01*
X8010650Y-9142408D02*
G75*
G02*
X8050650Y-9142408I20000J0D01*
G01*
X8063949Y-9446998D02*
G75*
G02*
X8023949Y-9446998I-20000J0D01*
G01*
X8023949Y-9446998D02*
G75*
G02*
X8063949Y-9446998I20000J0D01*
G01*
X8143757Y-9227726D02*
G75*
G02*
X8103757Y-9227726I-20000J0D01*
G01*
X8103757Y-9227726D02*
G75*
G02*
X8143757Y-9227726I20000J0D01*
G01*
X8149266Y-9353891D02*
G75*
G02*
X8109266Y-9353891I-20000J0D01*
G01*
X8109266Y-9353891D02*
G75*
G02*
X8149266Y-9353891I20000J0D01*
G01*
X12381619Y-18263118D02*
G75*
G02*
X12341619Y-18263118I-20000J0D01*
G01*
X12341619Y-18263118D02*
G75*
G02*
X12381619Y-18263118I20000J0D01*
G01*
X12387128Y-18136953D02*
G75*
G02*
X12347128Y-18136953I-20000J0D01*
G01*
X12347128Y-18136953D02*
G75*
G02*
X12387128Y-18136953I20000J0D01*
G01*
X12466937Y-18356225D02*
G75*
G02*
X12426937Y-18356225I-20000J0D01*
G01*
X12426937Y-18356225D02*
G75*
G02*
X12466937Y-18356225I20000J0D01*
G01*
X12480235Y-18051635D02*
G75*
G02*
X12440235Y-18051635I-20000J0D01*
G01*
X12440235Y-18051635D02*
G75*
G02*
X12480235Y-18051635I20000J0D01*
G01*
X12593102Y-18361733D02*
G75*
G02*
X12553102Y-18361733I-20000J0D01*
G01*
X12553102Y-18361733D02*
G75*
G02*
X12593102Y-18361733I20000J0D01*
G01*
X12606400Y-18057144D02*
G75*
G02*
X12566400Y-18057144I-20000J0D01*
G01*
X12566400Y-18057144D02*
G75*
G02*
X12606400Y-18057144I20000J0D01*
G01*
X12674093Y-11745717D02*
G75*
G02*
X12634093Y-11745717I-20000J0D01*
G01*
X12634093Y-11745717D02*
G75*
G02*
X12674093Y-11745717I20000J0D01*
G01*
X12679601Y-11871882D02*
G75*
G02*
X12639601Y-11871882I-20000J0D01*
G01*
X12639601Y-11871882D02*
G75*
G02*
X12679601Y-11871882I20000J0D01*
G01*
X12686209Y-18276416D02*
G75*
G02*
X12646209Y-18276416I-20000J0D01*
G01*
X12646209Y-18276416D02*
G75*
G02*
X12686209Y-18276416I20000J0D01*
G01*
X12691717Y-18150251D02*
G75*
G02*
X12651717Y-18150251I-20000J0D01*
G01*
X12651717Y-18150251D02*
G75*
G02*
X12691717Y-18150251I20000J0D01*
G01*
X12759410Y-11652610D02*
G75*
G02*
X12719410Y-11652610I-20000J0D01*
G01*
X12719410Y-11652610D02*
G75*
G02*
X12759410Y-11652610I20000J0D01*
G01*
X12772709Y-11957200D02*
G75*
G02*
X12732709Y-11957200I-20000J0D01*
G01*
X12732709Y-11957200D02*
G75*
G02*
X12772709Y-11957200I20000J0D01*
G01*
X12885575Y-11647101D02*
G75*
G02*
X12845575Y-11647101I-20000J0D01*
G01*
X12845575Y-11647101D02*
G75*
G02*
X12885575Y-11647101I20000J0D01*
G01*
X12898874Y-11951691D02*
G75*
G02*
X12858874Y-11951691I-20000J0D01*
G01*
X12858874Y-11951691D02*
G75*
G02*
X12898874Y-11951691I20000J0D01*
G01*
X12978682Y-11732418D02*
G75*
G02*
X12938682Y-11732418I-20000J0D01*
G01*
X12938682Y-11732418D02*
G75*
G02*
X12978682Y-11732418I20000J0D01*
G01*
X12984191Y-11858584D02*
G75*
G02*
X12944191Y-11858584I-20000J0D01*
G01*
X12944191Y-11858584D02*
G75*
G02*
X12984191Y-11858584I20000J0D01*
G01*
X18204955Y-11858584D02*
G75*
G02*
X18164955Y-11858584I-20000J0D01*
G01*
X18164955Y-11858584D02*
G75*
G02*
X18204955Y-11858584I20000J0D01*
G01*
X18210463Y-11732419D02*
G75*
G02*
X18170463Y-11732419I-20000J0D01*
G01*
X18170463Y-11732419D02*
G75*
G02*
X18210463Y-11732419I20000J0D01*
G01*
X18290272Y-11951692D02*
G75*
G02*
X18250272Y-11951692I-20000J0D01*
G01*
X18250272Y-11951692D02*
G75*
G02*
X18290272Y-11951692I20000J0D01*
G01*
X18303570Y-11647102D02*
G75*
G02*
X18263570Y-11647102I-20000J0D01*
G01*
X18263570Y-11647102D02*
G75*
G02*
X18303570Y-11647102I20000J0D01*
G01*
X18416437Y-11957200D02*
G75*
G02*
X18376437Y-11957200I-20000J0D01*
G01*
X18376437Y-11957200D02*
G75*
G02*
X18416437Y-11957200I20000J0D01*
G01*
X18429736Y-11652610D02*
G75*
G02*
X18389736Y-11652610I-20000J0D01*
G01*
X18389736Y-11652610D02*
G75*
G02*
X18429736Y-11652610I20000J0D01*
G01*
X18497429Y-18150252D02*
G75*
G02*
X18457429Y-18150252I-20000J0D01*
G01*
X18457429Y-18150252D02*
G75*
G02*
X18497429Y-18150252I20000J0D01*
G01*
X18502938Y-18276417D02*
G75*
G02*
X18462938Y-18276417I-20000J0D01*
G01*
X18462938Y-18276417D02*
G75*
G02*
X18502938Y-18276417I20000J0D01*
G01*
X18509544Y-11871883D02*
G75*
G02*
X18469544Y-11871883I-20000J0D01*
G01*
X18469544Y-11871883D02*
G75*
G02*
X18509544Y-11871883I20000J0D01*
G01*
X18515053Y-11745718D02*
G75*
G02*
X18475053Y-11745718I-20000J0D01*
G01*
X18475053Y-11745718D02*
G75*
G02*
X18515053Y-11745718I20000J0D01*
G01*
X18582747Y-18057144D02*
G75*
G02*
X18542747Y-18057144I-20000J0D01*
G01*
X18542747Y-18057144D02*
G75*
G02*
X18582747Y-18057144I20000J0D01*
G01*
X18596045Y-18361734D02*
G75*
G02*
X18556045Y-18361734I-20000J0D01*
G01*
X18556045Y-18361734D02*
G75*
G02*
X18596045Y-18361734I20000J0D01*
G01*
X18708912Y-18051636D02*
G75*
G02*
X18668912Y-18051636I-20000J0D01*
G01*
X18668912Y-18051636D02*
G75*
G02*
X18708912Y-18051636I20000J0D01*
G01*
X18722211Y-18356226D02*
G75*
G02*
X18682211Y-18356226I-20000J0D01*
G01*
X18682211Y-18356226D02*
G75*
G02*
X18722211Y-18356226I20000J0D01*
G01*
X18802019Y-18136953D02*
G75*
G02*
X18762019Y-18136953I-20000J0D01*
G01*
X18762019Y-18136953D02*
G75*
G02*
X18802019Y-18136953I20000J0D01*
G01*
X18807528Y-18263118D02*
G75*
G02*
X18767528Y-18263118I-20000J0D01*
G01*
X18767528Y-18263118D02*
G75*
G02*
X18807528Y-18263118I20000J0D01*
G01*
X23039880Y-9353890D02*
G75*
G02*
X22999880Y-9353890I-20000J0D01*
G01*
X22999880Y-9353890D02*
G75*
G02*
X23039880Y-9353890I20000J0D01*
G01*
X23045388Y-9227725D02*
G75*
G02*
X23005388Y-9227725I-20000J0D01*
G01*
X23005388Y-9227725D02*
G75*
G02*
X23045388Y-9227725I20000J0D01*
G01*
X23125197Y-9446998D02*
G75*
G02*
X23085197Y-9446998I-20000J0D01*
G01*
X23085197Y-9446998D02*
G75*
G02*
X23125197Y-9446998I20000J0D01*
G01*
X23138496Y-9142408D02*
G75*
G02*
X23098496Y-9142408I-20000J0D01*
G01*
X23098496Y-9142408D02*
G75*
G02*
X23138496Y-9142408I20000J0D01*
G01*
X23251362Y-9452506D02*
G75*
G02*
X23211362Y-9452506I-20000J0D01*
G01*
X23211362Y-9452506D02*
G75*
G02*
X23251362Y-9452506I20000J0D01*
G01*
X23264661Y-9147916D02*
G75*
G02*
X23224661Y-9147916I-20000J0D01*
G01*
X23224661Y-9147916D02*
G75*
G02*
X23264661Y-9147916I20000J0D01*
G01*
X23344470Y-9367189D02*
G75*
G02*
X23304470Y-9367189I-20000J0D01*
G01*
X23304470Y-9367189D02*
G75*
G02*
X23344470Y-9367189I20000J0D01*
G01*
X23349978Y-9241024D02*
G75*
G02*
X23309978Y-9241024I-20000J0D01*
G01*
X23309978Y-9241024D02*
G75*
G02*
X23349978Y-9241024I20000J0D01*
G01*
X24784183Y-14146322D02*
G75*
G02*
X24744183Y-14146322I-20000J0D01*
G01*
X24744183Y-14146322D02*
G75*
G02*
X24784183Y-14146322I20000J0D01*
G01*
X24789691Y-14020157D02*
G75*
G02*
X24749691Y-14020157I-20000J0D01*
G01*
X24749691Y-14020157D02*
G75*
G02*
X24789691Y-14020157I20000J0D01*
G01*
X24869500Y-14239430D02*
G75*
G02*
X24829500Y-14239430I-20000J0D01*
G01*
X24829500Y-14239430D02*
G75*
G02*
X24869500Y-14239430I20000J0D01*
G01*
X24882799Y-13934840D02*
G75*
G02*
X24842799Y-13934840I-20000J0D01*
G01*
X24842799Y-13934840D02*
G75*
G02*
X24882799Y-13934840I20000J0D01*
G01*
X24995665Y-14244938D02*
G75*
G02*
X24955665Y-14244938I-20000J0D01*
G01*
X24955665Y-14244938D02*
G75*
G02*
X24995665Y-14244938I20000J0D01*
G01*
X25008964Y-13940348D02*
G75*
G02*
X24968964Y-13940348I-20000J0D01*
G01*
X24968964Y-13940348D02*
G75*
G02*
X25008964Y-13940348I20000J0D01*
G01*
X25088773Y-14159621D02*
G75*
G02*
X25048773Y-14159621I-20000J0D01*
G01*
X25048773Y-14159621D02*
G75*
G02*
X25088773Y-14159621I20000J0D01*
G01*
X25094281Y-14033456D02*
G75*
G02*
X25054281Y-14033456I-20000J0D01*
G01*
X25054281Y-14033456D02*
G75*
G02*
X25094281Y-14033456I20000J0D01*
G01*
X5145875Y-13273340D02*
X5145875Y-13372400D01*
X5096345Y-13322870D02*
X5195405Y-13322870D01*
X5727309Y-11675861D02*
X5727309Y-11774921D01*
X5677779Y-11725391D02*
X5776839Y-11725391D01*
X5861921Y-13533959D02*
X5861921Y-13633019D01*
X5812391Y-13583489D02*
X5911451Y-13583489D01*
X6308743Y-10078385D02*
X6308743Y-10177445D01*
X6259213Y-10127915D02*
X6358273Y-10127915D01*
X6443355Y-11936480D02*
X6443355Y-12035540D01*
X6393825Y-11986010D02*
X6492885Y-11986010D01*
X7024789Y-10339004D02*
X7024789Y-10438064D01*
X6975259Y-10388534D02*
X7074319Y-10388534D01*
X7179341Y-12949283D02*
X7179341Y-13048343D01*
X7129811Y-12998813D02*
X7228871Y-12998813D01*
X7760775Y-11351806D02*
X7760775Y-11450866D01*
X7711245Y-11401336D02*
X7810305Y-11401336D01*
X7895387Y-13209902D02*
X7895387Y-13308962D01*
X7845857Y-13259432D02*
X7944917Y-13259432D01*
X8342210Y-9754329D02*
X8342210Y-9853389D01*
X8292680Y-9803859D02*
X8391740Y-9803859D01*
X8476821Y-11612425D02*
X8476821Y-11711485D01*
X8427291Y-11661955D02*
X8526351Y-11661955D01*
X9041798Y-13095072D02*
X9041798Y-13194132D01*
X8992268Y-13144602D02*
X9091328Y-13144602D01*
X9058256Y-10014948D02*
X9058256Y-10114008D01*
X9008726Y-10064478D02*
X9107786Y-10064478D01*
X9489517Y-16628203D02*
X9489517Y-16727263D01*
X9439987Y-16677733D02*
X9539047Y-16677733D01*
X9623232Y-11497596D02*
X9623232Y-11596656D01*
X9573702Y-11547126D02*
X9672762Y-11547126D01*
X9757844Y-13355691D02*
X9757844Y-13454751D01*
X9708314Y-13405221D02*
X9807374Y-13405221D01*
X10204667Y-9900119D02*
X10204667Y-9999179D01*
X10155137Y-9949649D02*
X10254197Y-9949649D01*
X10225553Y-16825423D02*
X10225553Y-16924483D01*
X10176023Y-16874953D02*
X10275083Y-16874953D01*
X10339278Y-11758215D02*
X10339278Y-11857275D01*
X10289748Y-11807745D02*
X10388808Y-11807745D01*
X10562234Y-14180556D02*
X10562234Y-14279616D01*
X10512704Y-14230086D02*
X10611764Y-14230086D01*
X10920713Y-10160738D02*
X10920713Y-10259798D01*
X10871183Y-10210268D02*
X10970243Y-10210268D01*
X11143669Y-12583078D02*
X11143669Y-12682138D01*
X11094139Y-12632608D02*
X11193199Y-12632608D01*
X11278280Y-14441175D02*
X11278280Y-14540235D01*
X11228750Y-14490705D02*
X11327810Y-14490705D01*
X11503604Y-17298574D02*
X11503604Y-17397634D01*
X11454074Y-17348104D02*
X11553134Y-17348104D01*
X11725102Y-10985601D02*
X11725102Y-11084661D01*
X11675572Y-11035131D02*
X11774632Y-11035131D01*
X11859715Y-12843697D02*
X11859715Y-12942757D01*
X11810185Y-12893227D02*
X11909245Y-12893227D01*
X12082672Y-15266039D02*
X12082672Y-15365099D01*
X12033142Y-15315569D02*
X12132202Y-15315569D01*
X12194211Y-17620609D02*
X12194211Y-17719669D01*
X12144681Y-17670139D02*
X12243741Y-17670139D01*
X12441148Y-11246220D02*
X12441148Y-11345280D01*
X12391618Y-11295750D02*
X12490678Y-11295750D01*
X12664106Y-13668561D02*
X12664106Y-13767621D01*
X12614576Y-13718091D02*
X12713636Y-13718091D01*
X12798718Y-15526658D02*
X12798718Y-15625718D01*
X12749188Y-15576188D02*
X12848248Y-15576188D01*
X13245540Y-12071084D02*
X13245540Y-12170144D01*
X13196010Y-12120614D02*
X13295070Y-12120614D01*
X13280742Y-18487692D02*
X13280742Y-18586752D01*
X13231212Y-18537222D02*
X13330272Y-18537222D01*
X13380152Y-13929180D02*
X13380152Y-14028240D01*
X13330622Y-13978710D02*
X13429682Y-13978710D01*
X13819557Y-19026507D02*
X13819557Y-19125567D01*
X13770027Y-19076037D02*
X13869087Y-19076037D01*
X13961586Y-12331703D02*
X13961586Y-12430763D01*
X13912056Y-12381233D02*
X14011116Y-12381233D01*
X17187561Y-12331702D02*
X17187561Y-12430762D01*
X17138031Y-12381232D02*
X17237091Y-12381232D01*
X17329590Y-19026507D02*
X17329590Y-19125567D01*
X17280060Y-19076037D02*
X17379120Y-19076037D01*
X17768994Y-13929181D02*
X17768994Y-14028241D01*
X17719464Y-13978711D02*
X17818524Y-13978711D01*
X17868405Y-18487692D02*
X17868405Y-18586752D01*
X17818875Y-18537222D02*
X17917935Y-18537222D01*
X17903606Y-12071082D02*
X17903606Y-12170142D01*
X17854076Y-12120612D02*
X17953136Y-12120612D01*
X18350430Y-15526657D02*
X18350430Y-15625717D01*
X18300900Y-15576187D02*
X18399960Y-15576187D01*
X18485040Y-13668562D02*
X18485040Y-13767622D01*
X18435510Y-13718092D02*
X18534570Y-13718092D01*
X18707997Y-11246219D02*
X18707997Y-11345279D01*
X18658467Y-11295749D02*
X18757527Y-11295749D01*
X18954936Y-17620608D02*
X18954936Y-17719668D01*
X18905406Y-17670138D02*
X19004466Y-17670138D01*
X19066475Y-15266038D02*
X19066475Y-15365098D01*
X19016945Y-15315568D02*
X19116005Y-15315568D01*
X19289431Y-12843699D02*
X19289431Y-12942759D01*
X19239901Y-12893229D02*
X19338961Y-12893229D01*
X19424043Y-10985600D02*
X19424043Y-11084660D01*
X19374513Y-11035130D02*
X19473573Y-11035130D01*
X19645542Y-17298573D02*
X19645542Y-17397633D01*
X19596012Y-17348103D02*
X19695072Y-17348103D01*
X19870866Y-14441176D02*
X19870866Y-14540236D01*
X19821336Y-14490706D02*
X19920396Y-14490706D01*
X20005477Y-12583079D02*
X20005477Y-12682139D01*
X19955947Y-12632609D02*
X20055007Y-12632609D01*
X20228435Y-10160738D02*
X20228435Y-10259798D01*
X20178905Y-10210268D02*
X20277965Y-10210268D01*
X20586911Y-14180557D02*
X20586911Y-14279617D01*
X20537381Y-14230087D02*
X20636441Y-14230087D01*
X20809867Y-11758215D02*
X20809867Y-11857275D01*
X20760337Y-11807745D02*
X20859397Y-11807745D01*
X20923595Y-16825422D02*
X20923595Y-16924482D01*
X20874065Y-16874952D02*
X20973125Y-16874952D01*
X20944480Y-9900119D02*
X20944480Y-9999179D01*
X20894950Y-9949649D02*
X20994010Y-9949649D01*
X21391302Y-13355692D02*
X21391302Y-13454752D01*
X21341772Y-13405222D02*
X21440832Y-13405222D01*
X21525913Y-11497595D02*
X21525913Y-11596655D01*
X21476383Y-11547125D02*
X21575443Y-11547125D01*
X21659630Y-16628201D02*
X21659630Y-16727261D01*
X21610100Y-16677731D02*
X21709160Y-16677731D01*
X22090890Y-10014949D02*
X22090890Y-10114009D01*
X22041360Y-10064479D02*
X22140420Y-10064479D01*
X22107348Y-13095073D02*
X22107348Y-13194133D01*
X22057818Y-13144603D02*
X22156878Y-13144603D01*
X22672325Y-11612424D02*
X22672325Y-11711484D01*
X22622795Y-11661954D02*
X22721855Y-11661954D01*
X22806935Y-9754330D02*
X22806935Y-9853390D01*
X22757405Y-9803860D02*
X22856465Y-9803860D01*
X23253759Y-13209902D02*
X23253759Y-13308962D01*
X23204229Y-13259432D02*
X23303289Y-13259432D01*
X23388370Y-11351805D02*
X23388370Y-11450865D01*
X23338840Y-11401335D02*
X23437900Y-11401335D01*
X23969804Y-12949283D02*
X23969804Y-13048343D01*
X23920274Y-12998813D02*
X24019334Y-12998813D01*
X24124357Y-10339003D02*
X24124357Y-10438063D01*
X24074827Y-10388533D02*
X24173887Y-10388533D01*
X24705792Y-11936481D02*
X24705792Y-12035541D01*
X24656262Y-11986011D02*
X24755322Y-11986011D01*
X24840403Y-10078384D02*
X24840403Y-10177444D01*
X24790873Y-10127914D02*
X24889933Y-10127914D01*
X25287225Y-13533958D02*
X25287225Y-13633018D01*
X25237695Y-13583488D02*
X25336755Y-13583488D01*
X25421837Y-11675862D02*
X25421837Y-11774922D01*
X25372307Y-11725392D02*
X25471367Y-11725392D01*
X26003271Y-13273339D02*
X26003271Y-13372399D01*
X25953741Y-13322869D02*
X26052801Y-13322869D01*
X15227929Y-16751387D02*
X15227929Y-16680676D01*
X15157218Y-16680676D01*
X15157218Y-16751387D01*
X15227929Y-16751387D01*
X15481929Y-16751388D02*
X15481929Y-16680676D01*
X15411218Y-16680676D01*
X15411218Y-16751388D01*
X15481929Y-16751388D01*
X15735929Y-16751387D02*
X15735929Y-16680676D01*
X15665218Y-16680676D01*
X15665218Y-16751387D01*
X15735929Y-16751387D01*
X15989929Y-16751387D02*
X15989929Y-16680676D01*
X15919218Y-16680676D01*
X15919218Y-16751387D01*
X15989929Y-16751387D01*
D13*
X14812572Y-16173644D02*
X14867182Y-16119034D01*
X14812572Y-16064424D01*
X14757962Y-16119034D01*
X14812572Y-16173644D01*
X14812572Y-13633644D02*
X14867182Y-13579034D01*
X14812572Y-13524424D01*
X14757962Y-13579034D01*
X14812572Y-13633644D01*
X14812572Y-14141644D02*
X14867182Y-14087034D01*
X14812572Y-14032424D01*
X14757962Y-14087034D01*
X14812572Y-14141644D01*
X14812572Y-14649644D02*
X14867182Y-14595034D01*
X14812572Y-14540424D01*
X14757962Y-14595034D01*
X14812572Y-14649644D01*
X14812572Y-14903644D02*
X14867182Y-14849034D01*
X14812572Y-14794424D01*
X14757962Y-14849034D01*
X14812572Y-14903644D01*
X14812572Y-15411644D02*
X14867182Y-15357034D01*
X14812572Y-15302424D01*
X14757962Y-15357034D01*
X14812572Y-15411644D01*
X14812572Y-15919644D02*
X14867182Y-15865034D01*
X14812572Y-15810424D01*
X14757962Y-15865034D01*
X14812572Y-15919644D01*
X14812572Y-15157644D02*
X14867182Y-15103034D01*
X14812572Y-15048424D01*
X14757962Y-15103034D01*
X14812572Y-15157644D01*
X14812572Y-16427644D02*
X14867182Y-16373034D01*
X14812572Y-16318424D01*
X14757962Y-16373034D01*
X14812572Y-16427644D01*
X14812572Y-13887644D02*
X14867182Y-13833034D01*
X14812572Y-13778424D01*
X14757962Y-13833034D01*
X14812572Y-13887644D01*
X14812572Y-14395644D02*
X14867182Y-14341034D01*
X14812572Y-14286424D01*
X14757962Y-14341034D01*
X14812572Y-14395644D01*
X14812573Y-15665644D02*
X14867183Y-15611034D01*
X14812573Y-15556424D01*
X14757963Y-15611034D01*
X14812573Y-15665644D01*
X16336572Y-14395644D02*
X16391182Y-14341034D01*
X16336572Y-14286424D01*
X16281962Y-14341034D01*
X16336572Y-14395644D01*
X16336572Y-15665644D02*
X16391182Y-15611034D01*
X16336572Y-15556424D01*
X16281962Y-15611034D01*
X16336572Y-15665644D01*
X16336572Y-16173644D02*
X16391182Y-16119034D01*
X16336572Y-16064424D01*
X16281962Y-16119034D01*
X16336572Y-16173644D01*
X16336572Y-13633644D02*
X16391182Y-13579034D01*
X16336572Y-13524424D01*
X16281962Y-13579034D01*
X16336572Y-13633644D01*
X16336572Y-14903644D02*
X16391182Y-14849034D01*
X16336572Y-14794424D01*
X16281962Y-14849034D01*
X16336572Y-14903644D01*
X16336572Y-14141644D02*
X16391182Y-14087034D01*
X16336572Y-14032424D01*
X16281962Y-14087034D01*
X16336572Y-14141644D01*
X16336572Y-14649644D02*
X16391182Y-14595034D01*
X16336572Y-14540424D01*
X16281962Y-14595034D01*
X16336572Y-14649644D01*
X16336572Y-15157644D02*
X16391182Y-15103034D01*
X16336572Y-15048424D01*
X16281962Y-15103034D01*
X16336572Y-15157644D01*
X16336572Y-15411644D02*
X16391182Y-15357034D01*
X16336572Y-15302424D01*
X16281962Y-15357034D01*
X16336572Y-15411644D01*
X16336572Y-15919644D02*
X16391182Y-15865034D01*
X16336572Y-15810424D01*
X16281962Y-15865034D01*
X16336572Y-15919644D01*
X16336572Y-16427644D02*
X16391182Y-16373034D01*
X16336572Y-16318424D01*
X16281962Y-16373034D01*
X16336572Y-16427644D01*
X16336573Y-13887644D02*
X16391183Y-13833034D01*
X16336573Y-13778424D01*
X16281963Y-13833034D01*
X16336573Y-13887644D01*
D14*
X6119913Y-13979890D02*
X6339913Y-14199890D01*
X6339913Y-13979890D02*
X6119913Y-14199890D01*
X6339913Y-14089890D02*
G75*
G02*
X6119913Y-14089890I-110000J0D01*
G01*
X6119913Y-14089890D02*
G75*
G02*
X6339913Y-14089890I110000J0D01*
G01*
X7864217Y-9187458D02*
X8084217Y-9407458D01*
X8084217Y-9187458D02*
X7864217Y-9407458D01*
X8084217Y-9297458D02*
G75*
G02*
X7864217Y-9297458I-110000J0D01*
G01*
X7864217Y-9297458D02*
G75*
G02*
X8084217Y-9297458I110000J0D01*
G01*
X12406668Y-18096684D02*
X12626668Y-18316684D01*
X12626668Y-18096684D02*
X12406668Y-18316684D01*
X12626668Y-18206684D02*
G75*
G02*
X12406668Y-18206684I-110000J0D01*
G01*
X12406668Y-18206684D02*
G75*
G02*
X12626668Y-18206684I110000J0D01*
G01*
X12699142Y-11692150D02*
X12919142Y-11912150D01*
X12919142Y-11692150D02*
X12699142Y-11912150D01*
X12919142Y-11802150D02*
G75*
G02*
X12699142Y-11802150I-110000J0D01*
G01*
X12699142Y-11802150D02*
G75*
G02*
X12919142Y-11802150I110000J0D01*
G01*
X18230004Y-11692151D02*
X18450004Y-11912151D01*
X18450004Y-11692151D02*
X18230004Y-11912151D01*
X18450004Y-11802151D02*
G75*
G02*
X18230004Y-11802151I-110000J0D01*
G01*
X18230004Y-11802151D02*
G75*
G02*
X18450004Y-11802151I110000J0D01*
G01*
X18522479Y-18096685D02*
X18742479Y-18316685D01*
X18742479Y-18096685D02*
X18522479Y-18316685D01*
X18742479Y-18206685D02*
G75*
G02*
X18522479Y-18206685I-110000J0D01*
G01*
X18522479Y-18206685D02*
G75*
G02*
X18742479Y-18206685I110000J0D01*
G01*
X23064929Y-9187457D02*
X23284929Y-9407457D01*
X23284929Y-9187457D02*
X23064929Y-9407457D01*
X23284929Y-9297457D02*
G75*
G02*
X23064929Y-9297457I-110000J0D01*
G01*
X23064929Y-9297457D02*
G75*
G02*
X23284929Y-9297457I110000J0D01*
G01*
X24809232Y-13979889D02*
X25029232Y-14199889D01*
X25029232Y-13979889D02*
X24809232Y-14199889D01*
X25029232Y-14089889D02*
G75*
G02*
X24809232Y-14089889I-110000J0D01*
G01*
X24809232Y-14089889D02*
G75*
G02*
X25029232Y-14089889I110000J0D01*
G01*
D11*
X4572929Y-20292341D02*
X4572929Y-20092341D01*
X4572929Y-20092341D02*
X4620548Y-20092341D01*
X4620548Y-20092341D02*
X4649119Y-20101865D01*
X4649119Y-20101865D02*
X4668167Y-20120912D01*
X4668167Y-20120912D02*
X4677690Y-20139960D01*
X4677690Y-20139960D02*
X4687214Y-20178055D01*
X4687214Y-20178055D02*
X4687214Y-20206626D01*
X4687214Y-20206626D02*
X4677690Y-20244722D01*
X4677690Y-20244722D02*
X4668167Y-20263769D01*
X4668167Y-20263769D02*
X4649119Y-20282817D01*
X4649119Y-20282817D02*
X4620548Y-20292341D01*
X4620548Y-20292341D02*
X4572929Y-20292341D01*
X4772929Y-20292341D02*
X4772929Y-20159007D01*
X4772929Y-20197103D02*
X4782452Y-20178055D01*
X4782452Y-20178055D02*
X4791976Y-20168531D01*
X4791976Y-20168531D02*
X4811024Y-20159007D01*
X4811024Y-20159007D02*
X4830071Y-20159007D01*
X4896738Y-20292341D02*
X4896738Y-20159007D01*
X4896738Y-20092341D02*
X4887214Y-20101865D01*
X4887214Y-20101865D02*
X4896738Y-20111388D01*
X4896738Y-20111388D02*
X4906262Y-20101865D01*
X4906262Y-20101865D02*
X4896738Y-20092341D01*
X4896738Y-20092341D02*
X4896738Y-20111388D01*
X5020548Y-20292341D02*
X5001500Y-20282817D01*
X5001500Y-20282817D02*
X4991976Y-20263769D01*
X4991976Y-20263769D02*
X4991976Y-20092341D01*
X5125309Y-20292341D02*
X5106262Y-20282817D01*
X5106262Y-20282817D02*
X5096738Y-20263769D01*
X5096738Y-20263769D02*
X5096738Y-20092341D01*
X5353881Y-20292341D02*
X5353881Y-20092341D01*
X5353881Y-20092341D02*
X5420548Y-20235198D01*
X5420548Y-20235198D02*
X5487214Y-20092341D01*
X5487214Y-20092341D02*
X5487214Y-20292341D01*
X5668167Y-20292341D02*
X5668167Y-20187579D01*
X5668167Y-20187579D02*
X5658643Y-20168531D01*
X5658643Y-20168531D02*
X5639595Y-20159007D01*
X5639595Y-20159007D02*
X5601500Y-20159007D01*
X5601500Y-20159007D02*
X5582452Y-20168531D01*
X5668167Y-20282817D02*
X5649119Y-20292341D01*
X5649119Y-20292341D02*
X5601500Y-20292341D01*
X5601500Y-20292341D02*
X5582452Y-20282817D01*
X5582452Y-20282817D02*
X5572929Y-20263769D01*
X5572929Y-20263769D02*
X5572929Y-20244722D01*
X5572929Y-20244722D02*
X5582452Y-20225674D01*
X5582452Y-20225674D02*
X5601500Y-20216150D01*
X5601500Y-20216150D02*
X5649119Y-20216150D01*
X5649119Y-20216150D02*
X5668167Y-20206626D01*
X5763405Y-20159007D02*
X5763405Y-20359007D01*
X5763405Y-20168531D02*
X5782452Y-20159007D01*
X5782452Y-20159007D02*
X5820548Y-20159007D01*
X5820548Y-20159007D02*
X5839595Y-20168531D01*
X5839595Y-20168531D02*
X5849119Y-20178055D01*
X5849119Y-20178055D02*
X5858643Y-20197103D01*
X5858643Y-20197103D02*
X5858643Y-20254245D01*
X5858643Y-20254245D02*
X5849119Y-20273293D01*
X5849119Y-20273293D02*
X5839595Y-20282817D01*
X5839595Y-20282817D02*
X5820548Y-20292341D01*
X5820548Y-20292341D02*
X5782452Y-20292341D01*
X5782452Y-20292341D02*
X5763405Y-20282817D01*
X5944357Y-20273293D02*
X5953881Y-20282817D01*
X5953881Y-20282817D02*
X5944357Y-20292341D01*
X5944357Y-20292341D02*
X5934833Y-20282817D01*
X5934833Y-20282817D02*
X5944357Y-20273293D01*
X5944357Y-20273293D02*
X5944357Y-20292341D01*
X5944357Y-20168531D02*
X5953881Y-20178055D01*
X5953881Y-20178055D02*
X5944357Y-20187579D01*
X5944357Y-20187579D02*
X5934833Y-20178055D01*
X5934833Y-20178055D02*
X5944357Y-20168531D01*
X5944357Y-20168531D02*
X5944357Y-20187579D01*
D12*
X4272152Y-20600857D02*
X4312152Y-20640857D01*
X4312152Y-20600857D02*
X4272152Y-20640857D01*
D11*
X4611024Y-20512341D02*
X4630071Y-20512341D01*
X4630071Y-20512341D02*
X4649119Y-20521865D01*
X4649119Y-20521865D02*
X4658643Y-20531388D01*
X4658643Y-20531388D02*
X4668167Y-20550436D01*
X4668167Y-20550436D02*
X4677690Y-20588531D01*
X4677690Y-20588531D02*
X4677690Y-20636150D01*
X4677690Y-20636150D02*
X4668167Y-20674245D01*
X4668167Y-20674245D02*
X4658643Y-20693293D01*
X4658643Y-20693293D02*
X4649119Y-20702817D01*
X4649119Y-20702817D02*
X4630071Y-20712341D01*
X4630071Y-20712341D02*
X4611024Y-20712341D01*
X4611024Y-20712341D02*
X4591976Y-20702817D01*
X4591976Y-20702817D02*
X4582452Y-20693293D01*
X4582452Y-20693293D02*
X4572929Y-20674245D01*
X4572929Y-20674245D02*
X4563405Y-20636150D01*
X4563405Y-20636150D02*
X4563405Y-20588531D01*
X4563405Y-20588531D02*
X4572929Y-20550436D01*
X4572929Y-20550436D02*
X4582452Y-20531388D01*
X4582452Y-20531388D02*
X4591976Y-20521865D01*
X4591976Y-20521865D02*
X4611024Y-20512341D01*
X4763405Y-20693293D02*
X4772929Y-20702817D01*
X4772929Y-20702817D02*
X4763405Y-20712341D01*
X4763405Y-20712341D02*
X4753881Y-20702817D01*
X4753881Y-20702817D02*
X4763405Y-20693293D01*
X4763405Y-20693293D02*
X4763405Y-20712341D01*
X4944357Y-20579007D02*
X4944357Y-20712341D01*
X4896738Y-20502817D02*
X4849119Y-20645674D01*
X4849119Y-20645674D02*
X4972929Y-20645674D01*
X5087214Y-20512341D02*
X5106262Y-20512341D01*
X5106262Y-20512341D02*
X5125310Y-20521865D01*
X5125310Y-20521865D02*
X5134833Y-20531388D01*
X5134833Y-20531388D02*
X5144357Y-20550436D01*
X5144357Y-20550436D02*
X5153881Y-20588531D01*
X5153881Y-20588531D02*
X5153881Y-20636150D01*
X5153881Y-20636150D02*
X5144357Y-20674245D01*
X5144357Y-20674245D02*
X5134833Y-20693293D01*
X5134833Y-20693293D02*
X5125310Y-20702817D01*
X5125310Y-20702817D02*
X5106262Y-20712341D01*
X5106262Y-20712341D02*
X5087214Y-20712341D01*
X5087214Y-20712341D02*
X5068167Y-20702817D01*
X5068167Y-20702817D02*
X5058643Y-20693293D01*
X5058643Y-20693293D02*
X5049119Y-20674245D01*
X5049119Y-20674245D02*
X5039595Y-20636150D01*
X5039595Y-20636150D02*
X5039595Y-20588531D01*
X5039595Y-20588531D02*
X5049119Y-20550436D01*
X5049119Y-20550436D02*
X5058643Y-20531388D01*
X5058643Y-20531388D02*
X5068167Y-20521865D01*
X5068167Y-20521865D02*
X5087214Y-20512341D01*
X5277690Y-20512341D02*
X5296738Y-20512341D01*
X5296738Y-20512341D02*
X5315786Y-20521865D01*
X5315786Y-20521865D02*
X5325310Y-20531388D01*
X5325310Y-20531388D02*
X5334833Y-20550436D01*
X5334833Y-20550436D02*
X5344357Y-20588531D01*
X5344357Y-20588531D02*
X5344357Y-20636150D01*
X5344357Y-20636150D02*
X5334833Y-20674245D01*
X5334833Y-20674245D02*
X5325310Y-20693293D01*
X5325310Y-20693293D02*
X5315786Y-20702817D01*
X5315786Y-20702817D02*
X5296738Y-20712341D01*
X5296738Y-20712341D02*
X5277690Y-20712341D01*
X5277690Y-20712341D02*
X5258643Y-20702817D01*
X5258643Y-20702817D02*
X5249119Y-20693293D01*
X5249119Y-20693293D02*
X5239595Y-20674245D01*
X5239595Y-20674245D02*
X5230071Y-20636150D01*
X5230071Y-20636150D02*
X5230071Y-20588531D01*
X5230071Y-20588531D02*
X5239595Y-20550436D01*
X5239595Y-20550436D02*
X5249119Y-20531388D01*
X5249119Y-20531388D02*
X5258643Y-20521865D01*
X5258643Y-20521865D02*
X5277690Y-20512341D01*
X5430071Y-20712341D02*
X5430071Y-20579007D01*
X5430071Y-20598055D02*
X5439595Y-20588531D01*
X5439595Y-20588531D02*
X5458643Y-20579007D01*
X5458643Y-20579007D02*
X5487214Y-20579007D01*
X5487214Y-20579007D02*
X5506262Y-20588531D01*
X5506262Y-20588531D02*
X5515786Y-20607579D01*
X5515786Y-20607579D02*
X5515786Y-20712341D01*
X5515786Y-20607579D02*
X5525310Y-20588531D01*
X5525310Y-20588531D02*
X5544357Y-20579007D01*
X5544357Y-20579007D02*
X5572929Y-20579007D01*
X5572929Y-20579007D02*
X5591976Y-20588531D01*
X5591976Y-20588531D02*
X5601500Y-20607579D01*
X5601500Y-20607579D02*
X5601500Y-20712341D01*
X5696738Y-20712341D02*
X5696738Y-20579007D01*
X5696738Y-20598055D02*
X5706262Y-20588531D01*
X5706262Y-20588531D02*
X5725309Y-20579007D01*
X5725309Y-20579007D02*
X5753881Y-20579007D01*
X5753881Y-20579007D02*
X5772929Y-20588531D01*
X5772929Y-20588531D02*
X5782452Y-20607579D01*
X5782452Y-20607579D02*
X5782452Y-20712341D01*
X5782452Y-20607579D02*
X5791976Y-20588531D01*
X5791976Y-20588531D02*
X5811024Y-20579007D01*
X5811024Y-20579007D02*
X5839595Y-20579007D01*
X5839595Y-20579007D02*
X5858643Y-20588531D01*
X5858643Y-20588531D02*
X5868167Y-20607579D01*
X5868167Y-20607579D02*
X5868167Y-20712341D01*
X6258643Y-20502817D02*
X6087214Y-20759960D01*
X6515786Y-20512341D02*
X6534833Y-20512341D01*
X6534833Y-20512341D02*
X6553881Y-20521865D01*
X6553881Y-20521865D02*
X6563405Y-20531388D01*
X6563405Y-20531388D02*
X6572929Y-20550436D01*
X6572929Y-20550436D02*
X6582452Y-20588531D01*
X6582452Y-20588531D02*
X6582452Y-20636150D01*
X6582452Y-20636150D02*
X6572929Y-20674245D01*
X6572929Y-20674245D02*
X6563405Y-20693293D01*
X6563405Y-20693293D02*
X6553881Y-20702817D01*
X6553881Y-20702817D02*
X6534833Y-20712341D01*
X6534833Y-20712341D02*
X6515786Y-20712341D01*
X6515786Y-20712341D02*
X6496738Y-20702817D01*
X6496738Y-20702817D02*
X6487214Y-20693293D01*
X6487214Y-20693293D02*
X6477691Y-20674245D01*
X6477691Y-20674245D02*
X6468167Y-20636150D01*
X6468167Y-20636150D02*
X6468167Y-20588531D01*
X6468167Y-20588531D02*
X6477691Y-20550436D01*
X6477691Y-20550436D02*
X6487214Y-20531388D01*
X6487214Y-20531388D02*
X6496738Y-20521865D01*
X6496738Y-20521865D02*
X6515786Y-20512341D01*
X6668167Y-20693293D02*
X6677691Y-20702817D01*
X6677691Y-20702817D02*
X6668167Y-20712341D01*
X6668167Y-20712341D02*
X6658643Y-20702817D01*
X6658643Y-20702817D02*
X6668167Y-20693293D01*
X6668167Y-20693293D02*
X6668167Y-20712341D01*
X6801500Y-20512341D02*
X6820548Y-20512341D01*
X6820548Y-20512341D02*
X6839595Y-20521865D01*
X6839595Y-20521865D02*
X6849119Y-20531388D01*
X6849119Y-20531388D02*
X6858643Y-20550436D01*
X6858643Y-20550436D02*
X6868167Y-20588531D01*
X6868167Y-20588531D02*
X6868167Y-20636150D01*
X6868167Y-20636150D02*
X6858643Y-20674245D01*
X6858643Y-20674245D02*
X6849119Y-20693293D01*
X6849119Y-20693293D02*
X6839595Y-20702817D01*
X6839595Y-20702817D02*
X6820548Y-20712341D01*
X6820548Y-20712341D02*
X6801500Y-20712341D01*
X6801500Y-20712341D02*
X6782452Y-20702817D01*
X6782452Y-20702817D02*
X6772929Y-20693293D01*
X6772929Y-20693293D02*
X6763405Y-20674245D01*
X6763405Y-20674245D02*
X6753881Y-20636150D01*
X6753881Y-20636150D02*
X6753881Y-20588531D01*
X6753881Y-20588531D02*
X6763405Y-20550436D01*
X6763405Y-20550436D02*
X6772929Y-20531388D01*
X6772929Y-20531388D02*
X6782452Y-20521865D01*
X6782452Y-20521865D02*
X6801500Y-20512341D01*
X7058643Y-20712341D02*
X6944357Y-20712341D01*
X7001500Y-20712341D02*
X7001500Y-20512341D01*
X7001500Y-20512341D02*
X6982452Y-20540912D01*
X6982452Y-20540912D02*
X6963405Y-20559960D01*
X6963405Y-20559960D02*
X6944357Y-20569484D01*
X7239595Y-20512341D02*
X7144357Y-20512341D01*
X7144357Y-20512341D02*
X7134833Y-20607579D01*
X7134833Y-20607579D02*
X7144357Y-20598055D01*
X7144357Y-20598055D02*
X7163405Y-20588531D01*
X7163405Y-20588531D02*
X7211024Y-20588531D01*
X7211024Y-20588531D02*
X7230072Y-20598055D01*
X7230072Y-20598055D02*
X7239595Y-20607579D01*
X7239595Y-20607579D02*
X7249119Y-20626626D01*
X7249119Y-20626626D02*
X7249119Y-20674245D01*
X7249119Y-20674245D02*
X7239595Y-20693293D01*
X7239595Y-20693293D02*
X7230072Y-20702817D01*
X7230072Y-20702817D02*
X7211024Y-20712341D01*
X7211024Y-20712341D02*
X7163405Y-20712341D01*
X7163405Y-20712341D02*
X7144357Y-20702817D01*
X7144357Y-20702817D02*
X7134833Y-20693293D01*
X7315786Y-20512341D02*
X7449119Y-20512341D01*
X7449119Y-20512341D02*
X7363405Y-20712341D01*
X7515786Y-20512341D02*
X7515786Y-20550436D01*
X7591976Y-20512341D02*
X7591976Y-20550436D01*
X7887215Y-20788531D02*
X7877691Y-20779007D01*
X7877691Y-20779007D02*
X7858643Y-20750436D01*
X7858643Y-20750436D02*
X7849119Y-20731388D01*
X7849119Y-20731388D02*
X7839595Y-20702817D01*
X7839595Y-20702817D02*
X7830072Y-20655198D01*
X7830072Y-20655198D02*
X7830072Y-20617103D01*
X7830072Y-20617103D02*
X7839595Y-20569484D01*
X7839595Y-20569484D02*
X7849119Y-20540912D01*
X7849119Y-20540912D02*
X7858643Y-20521865D01*
X7858643Y-20521865D02*
X7877691Y-20493293D01*
X7877691Y-20493293D02*
X7887215Y-20483769D01*
X8058643Y-20512341D02*
X7963405Y-20512341D01*
X7963405Y-20512341D02*
X7953881Y-20607579D01*
X7953881Y-20607579D02*
X7963405Y-20598055D01*
X7963405Y-20598055D02*
X7982453Y-20588531D01*
X7982453Y-20588531D02*
X8030072Y-20588531D01*
X8030072Y-20588531D02*
X8049119Y-20598055D01*
X8049119Y-20598055D02*
X8058643Y-20607579D01*
X8058643Y-20607579D02*
X8068167Y-20626626D01*
X8068167Y-20626626D02*
X8068167Y-20674245D01*
X8068167Y-20674245D02*
X8058643Y-20693293D01*
X8058643Y-20693293D02*
X8049119Y-20702817D01*
X8049119Y-20702817D02*
X8030072Y-20712341D01*
X8030072Y-20712341D02*
X7982453Y-20712341D01*
X7982453Y-20712341D02*
X7963405Y-20702817D01*
X7963405Y-20702817D02*
X7953881Y-20693293D01*
X8306262Y-20712341D02*
X8306262Y-20512341D01*
X8391977Y-20712341D02*
X8391977Y-20607579D01*
X8391977Y-20607579D02*
X8382453Y-20588531D01*
X8382453Y-20588531D02*
X8363405Y-20579007D01*
X8363405Y-20579007D02*
X8334834Y-20579007D01*
X8334834Y-20579007D02*
X8315786Y-20588531D01*
X8315786Y-20588531D02*
X8306262Y-20598055D01*
X8515786Y-20712341D02*
X8496738Y-20702817D01*
X8496738Y-20702817D02*
X8487215Y-20693293D01*
X8487215Y-20693293D02*
X8477691Y-20674245D01*
X8477691Y-20674245D02*
X8477691Y-20617103D01*
X8477691Y-20617103D02*
X8487215Y-20598055D01*
X8487215Y-20598055D02*
X8496738Y-20588531D01*
X8496738Y-20588531D02*
X8515786Y-20579007D01*
X8515786Y-20579007D02*
X8544358Y-20579007D01*
X8544358Y-20579007D02*
X8563405Y-20588531D01*
X8563405Y-20588531D02*
X8572929Y-20598055D01*
X8572929Y-20598055D02*
X8582453Y-20617103D01*
X8582453Y-20617103D02*
X8582453Y-20674245D01*
X8582453Y-20674245D02*
X8572929Y-20693293D01*
X8572929Y-20693293D02*
X8563405Y-20702817D01*
X8563405Y-20702817D02*
X8544358Y-20712341D01*
X8544358Y-20712341D02*
X8515786Y-20712341D01*
X8696738Y-20712341D02*
X8677691Y-20702817D01*
X8677691Y-20702817D02*
X8668167Y-20683769D01*
X8668167Y-20683769D02*
X8668167Y-20512341D01*
X8849119Y-20702817D02*
X8830072Y-20712341D01*
X8830072Y-20712341D02*
X8791977Y-20712341D01*
X8791977Y-20712341D02*
X8772929Y-20702817D01*
X8772929Y-20702817D02*
X8763405Y-20683769D01*
X8763405Y-20683769D02*
X8763405Y-20607579D01*
X8763405Y-20607579D02*
X8772929Y-20588531D01*
X8772929Y-20588531D02*
X8791977Y-20579007D01*
X8791977Y-20579007D02*
X8830072Y-20579007D01*
X8830072Y-20579007D02*
X8849119Y-20588531D01*
X8849119Y-20588531D02*
X8858643Y-20607579D01*
X8858643Y-20607579D02*
X8858643Y-20626626D01*
X8858643Y-20626626D02*
X8763405Y-20645674D01*
X8934834Y-20702817D02*
X8953881Y-20712341D01*
X8953881Y-20712341D02*
X8991977Y-20712341D01*
X8991977Y-20712341D02*
X9011024Y-20702817D01*
X9011024Y-20702817D02*
X9020548Y-20683769D01*
X9020548Y-20683769D02*
X9020548Y-20674245D01*
X9020548Y-20674245D02*
X9011024Y-20655198D01*
X9011024Y-20655198D02*
X8991977Y-20645674D01*
X8991977Y-20645674D02*
X8963405Y-20645674D01*
X8963405Y-20645674D02*
X8944358Y-20636150D01*
X8944358Y-20636150D02*
X8934834Y-20617103D01*
X8934834Y-20617103D02*
X8934834Y-20607579D01*
X8934834Y-20607579D02*
X8944358Y-20588531D01*
X8944358Y-20588531D02*
X8963405Y-20579007D01*
X8963405Y-20579007D02*
X8991977Y-20579007D01*
X8991977Y-20579007D02*
X9011024Y-20588531D01*
X9087215Y-20788531D02*
X9096739Y-20779007D01*
X9096739Y-20779007D02*
X9115786Y-20750436D01*
X9115786Y-20750436D02*
X9125310Y-20731388D01*
X9125310Y-20731388D02*
X9134834Y-20702817D01*
X9134834Y-20702817D02*
X9144358Y-20655198D01*
X9144358Y-20655198D02*
X9144358Y-20617103D01*
X9144358Y-20617103D02*
X9134834Y-20569484D01*
X9134834Y-20569484D02*
X9125310Y-20540912D01*
X9125310Y-20540912D02*
X9115786Y-20521865D01*
X9115786Y-20521865D02*
X9096739Y-20493293D01*
X9096739Y-20493293D02*
X9087215Y-20483769D01*
D12*
X4312152Y-20884857D02*
G75*
G02*
X4272152Y-20884857I-20000J0D01*
G01*
X4272152Y-20884857D02*
G75*
G02*
X4312152Y-20884857I20000J0D01*
G01*
D11*
X4611024Y-20776341D02*
X4630071Y-20776341D01*
X4630071Y-20776341D02*
X4649119Y-20785865D01*
X4649119Y-20785865D02*
X4658643Y-20795388D01*
X4658643Y-20795388D02*
X4668167Y-20814436D01*
X4668167Y-20814436D02*
X4677690Y-20852531D01*
X4677690Y-20852531D02*
X4677690Y-20900150D01*
X4677690Y-20900150D02*
X4668167Y-20938245D01*
X4668167Y-20938245D02*
X4658643Y-20957293D01*
X4658643Y-20957293D02*
X4649119Y-20966817D01*
X4649119Y-20966817D02*
X4630071Y-20976341D01*
X4630071Y-20976341D02*
X4611024Y-20976341D01*
X4611024Y-20976341D02*
X4591976Y-20966817D01*
X4591976Y-20966817D02*
X4582452Y-20957293D01*
X4582452Y-20957293D02*
X4572929Y-20938245D01*
X4572929Y-20938245D02*
X4563405Y-20900150D01*
X4563405Y-20900150D02*
X4563405Y-20852531D01*
X4563405Y-20852531D02*
X4572929Y-20814436D01*
X4572929Y-20814436D02*
X4582452Y-20795388D01*
X4582452Y-20795388D02*
X4591976Y-20785865D01*
X4591976Y-20785865D02*
X4611024Y-20776341D01*
X4763405Y-20957293D02*
X4772929Y-20966817D01*
X4772929Y-20966817D02*
X4763405Y-20976341D01*
X4763405Y-20976341D02*
X4753881Y-20966817D01*
X4753881Y-20966817D02*
X4763405Y-20957293D01*
X4763405Y-20957293D02*
X4763405Y-20976341D01*
X4944357Y-20843007D02*
X4944357Y-20976341D01*
X4896738Y-20766817D02*
X4849119Y-20909674D01*
X4849119Y-20909674D02*
X4972929Y-20909674D01*
X5087214Y-20776341D02*
X5106262Y-20776341D01*
X5106262Y-20776341D02*
X5125310Y-20785865D01*
X5125310Y-20785865D02*
X5134833Y-20795388D01*
X5134833Y-20795388D02*
X5144357Y-20814436D01*
X5144357Y-20814436D02*
X5153881Y-20852531D01*
X5153881Y-20852531D02*
X5153881Y-20900150D01*
X5153881Y-20900150D02*
X5144357Y-20938245D01*
X5144357Y-20938245D02*
X5134833Y-20957293D01*
X5134833Y-20957293D02*
X5125310Y-20966817D01*
X5125310Y-20966817D02*
X5106262Y-20976341D01*
X5106262Y-20976341D02*
X5087214Y-20976341D01*
X5087214Y-20976341D02*
X5068167Y-20966817D01*
X5068167Y-20966817D02*
X5058643Y-20957293D01*
X5058643Y-20957293D02*
X5049119Y-20938245D01*
X5049119Y-20938245D02*
X5039595Y-20900150D01*
X5039595Y-20900150D02*
X5039595Y-20852531D01*
X5039595Y-20852531D02*
X5049119Y-20814436D01*
X5049119Y-20814436D02*
X5058643Y-20795388D01*
X5058643Y-20795388D02*
X5068167Y-20785865D01*
X5068167Y-20785865D02*
X5087214Y-20776341D01*
X5277690Y-20776341D02*
X5296738Y-20776341D01*
X5296738Y-20776341D02*
X5315786Y-20785865D01*
X5315786Y-20785865D02*
X5325310Y-20795388D01*
X5325310Y-20795388D02*
X5334833Y-20814436D01*
X5334833Y-20814436D02*
X5344357Y-20852531D01*
X5344357Y-20852531D02*
X5344357Y-20900150D01*
X5344357Y-20900150D02*
X5334833Y-20938245D01*
X5334833Y-20938245D02*
X5325310Y-20957293D01*
X5325310Y-20957293D02*
X5315786Y-20966817D01*
X5315786Y-20966817D02*
X5296738Y-20976341D01*
X5296738Y-20976341D02*
X5277690Y-20976341D01*
X5277690Y-20976341D02*
X5258643Y-20966817D01*
X5258643Y-20966817D02*
X5249119Y-20957293D01*
X5249119Y-20957293D02*
X5239595Y-20938245D01*
X5239595Y-20938245D02*
X5230071Y-20900150D01*
X5230071Y-20900150D02*
X5230071Y-20852531D01*
X5230071Y-20852531D02*
X5239595Y-20814436D01*
X5239595Y-20814436D02*
X5249119Y-20795388D01*
X5249119Y-20795388D02*
X5258643Y-20785865D01*
X5258643Y-20785865D02*
X5277690Y-20776341D01*
X5430071Y-20976341D02*
X5430071Y-20843007D01*
X5430071Y-20862055D02*
X5439595Y-20852531D01*
X5439595Y-20852531D02*
X5458643Y-20843007D01*
X5458643Y-20843007D02*
X5487214Y-20843007D01*
X5487214Y-20843007D02*
X5506262Y-20852531D01*
X5506262Y-20852531D02*
X5515786Y-20871579D01*
X5515786Y-20871579D02*
X5515786Y-20976341D01*
X5515786Y-20871579D02*
X5525310Y-20852531D01*
X5525310Y-20852531D02*
X5544357Y-20843007D01*
X5544357Y-20843007D02*
X5572929Y-20843007D01*
X5572929Y-20843007D02*
X5591976Y-20852531D01*
X5591976Y-20852531D02*
X5601500Y-20871579D01*
X5601500Y-20871579D02*
X5601500Y-20976341D01*
X5696738Y-20976341D02*
X5696738Y-20843007D01*
X5696738Y-20862055D02*
X5706262Y-20852531D01*
X5706262Y-20852531D02*
X5725309Y-20843007D01*
X5725309Y-20843007D02*
X5753881Y-20843007D01*
X5753881Y-20843007D02*
X5772929Y-20852531D01*
X5772929Y-20852531D02*
X5782452Y-20871579D01*
X5782452Y-20871579D02*
X5782452Y-20976341D01*
X5782452Y-20871579D02*
X5791976Y-20852531D01*
X5791976Y-20852531D02*
X5811024Y-20843007D01*
X5811024Y-20843007D02*
X5839595Y-20843007D01*
X5839595Y-20843007D02*
X5858643Y-20852531D01*
X5858643Y-20852531D02*
X5868167Y-20871579D01*
X5868167Y-20871579D02*
X5868167Y-20976341D01*
X6258643Y-20766817D02*
X6087214Y-21023960D01*
X6515786Y-20776341D02*
X6534833Y-20776341D01*
X6534833Y-20776341D02*
X6553881Y-20785865D01*
X6553881Y-20785865D02*
X6563405Y-20795388D01*
X6563405Y-20795388D02*
X6572929Y-20814436D01*
X6572929Y-20814436D02*
X6582452Y-20852531D01*
X6582452Y-20852531D02*
X6582452Y-20900150D01*
X6582452Y-20900150D02*
X6572929Y-20938245D01*
X6572929Y-20938245D02*
X6563405Y-20957293D01*
X6563405Y-20957293D02*
X6553881Y-20966817D01*
X6553881Y-20966817D02*
X6534833Y-20976341D01*
X6534833Y-20976341D02*
X6515786Y-20976341D01*
X6515786Y-20976341D02*
X6496738Y-20966817D01*
X6496738Y-20966817D02*
X6487214Y-20957293D01*
X6487214Y-20957293D02*
X6477691Y-20938245D01*
X6477691Y-20938245D02*
X6468167Y-20900150D01*
X6468167Y-20900150D02*
X6468167Y-20852531D01*
X6468167Y-20852531D02*
X6477691Y-20814436D01*
X6477691Y-20814436D02*
X6487214Y-20795388D01*
X6487214Y-20795388D02*
X6496738Y-20785865D01*
X6496738Y-20785865D02*
X6515786Y-20776341D01*
X6668167Y-20957293D02*
X6677691Y-20966817D01*
X6677691Y-20966817D02*
X6668167Y-20976341D01*
X6668167Y-20976341D02*
X6658643Y-20966817D01*
X6658643Y-20966817D02*
X6668167Y-20957293D01*
X6668167Y-20957293D02*
X6668167Y-20976341D01*
X6801500Y-20776341D02*
X6820548Y-20776341D01*
X6820548Y-20776341D02*
X6839595Y-20785865D01*
X6839595Y-20785865D02*
X6849119Y-20795388D01*
X6849119Y-20795388D02*
X6858643Y-20814436D01*
X6858643Y-20814436D02*
X6868167Y-20852531D01*
X6868167Y-20852531D02*
X6868167Y-20900150D01*
X6868167Y-20900150D02*
X6858643Y-20938245D01*
X6858643Y-20938245D02*
X6849119Y-20957293D01*
X6849119Y-20957293D02*
X6839595Y-20966817D01*
X6839595Y-20966817D02*
X6820548Y-20976341D01*
X6820548Y-20976341D02*
X6801500Y-20976341D01*
X6801500Y-20976341D02*
X6782452Y-20966817D01*
X6782452Y-20966817D02*
X6772929Y-20957293D01*
X6772929Y-20957293D02*
X6763405Y-20938245D01*
X6763405Y-20938245D02*
X6753881Y-20900150D01*
X6753881Y-20900150D02*
X6753881Y-20852531D01*
X6753881Y-20852531D02*
X6763405Y-20814436D01*
X6763405Y-20814436D02*
X6772929Y-20795388D01*
X6772929Y-20795388D02*
X6782452Y-20785865D01*
X6782452Y-20785865D02*
X6801500Y-20776341D01*
X7058643Y-20976341D02*
X6944357Y-20976341D01*
X7001500Y-20976341D02*
X7001500Y-20776341D01*
X7001500Y-20776341D02*
X6982452Y-20804912D01*
X6982452Y-20804912D02*
X6963405Y-20823960D01*
X6963405Y-20823960D02*
X6944357Y-20833484D01*
X7239595Y-20776341D02*
X7144357Y-20776341D01*
X7144357Y-20776341D02*
X7134833Y-20871579D01*
X7134833Y-20871579D02*
X7144357Y-20862055D01*
X7144357Y-20862055D02*
X7163405Y-20852531D01*
X7163405Y-20852531D02*
X7211024Y-20852531D01*
X7211024Y-20852531D02*
X7230072Y-20862055D01*
X7230072Y-20862055D02*
X7239595Y-20871579D01*
X7239595Y-20871579D02*
X7249119Y-20890626D01*
X7249119Y-20890626D02*
X7249119Y-20938245D01*
X7249119Y-20938245D02*
X7239595Y-20957293D01*
X7239595Y-20957293D02*
X7230072Y-20966817D01*
X7230072Y-20966817D02*
X7211024Y-20976341D01*
X7211024Y-20976341D02*
X7163405Y-20976341D01*
X7163405Y-20976341D02*
X7144357Y-20966817D01*
X7144357Y-20966817D02*
X7134833Y-20957293D01*
X7315786Y-20776341D02*
X7449119Y-20776341D01*
X7449119Y-20776341D02*
X7363405Y-20976341D01*
X7515786Y-20776341D02*
X7515786Y-20814436D01*
X7591976Y-20776341D02*
X7591976Y-20814436D01*
X7887215Y-21052531D02*
X7877691Y-21043007D01*
X7877691Y-21043007D02*
X7858643Y-21014436D01*
X7858643Y-21014436D02*
X7849119Y-20995388D01*
X7849119Y-20995388D02*
X7839595Y-20966817D01*
X7839595Y-20966817D02*
X7830072Y-20919198D01*
X7830072Y-20919198D02*
X7830072Y-20881103D01*
X7830072Y-20881103D02*
X7839595Y-20833484D01*
X7839595Y-20833484D02*
X7849119Y-20804912D01*
X7849119Y-20804912D02*
X7858643Y-20785865D01*
X7858643Y-20785865D02*
X7877691Y-20757293D01*
X7877691Y-20757293D02*
X7887215Y-20747769D01*
X8049119Y-20776341D02*
X8011024Y-20776341D01*
X8011024Y-20776341D02*
X7991976Y-20785865D01*
X7991976Y-20785865D02*
X7982453Y-20795388D01*
X7982453Y-20795388D02*
X7963405Y-20823960D01*
X7963405Y-20823960D02*
X7953881Y-20862055D01*
X7953881Y-20862055D02*
X7953881Y-20938245D01*
X7953881Y-20938245D02*
X7963405Y-20957293D01*
X7963405Y-20957293D02*
X7972929Y-20966817D01*
X7972929Y-20966817D02*
X7991976Y-20976341D01*
X7991976Y-20976341D02*
X8030072Y-20976341D01*
X8030072Y-20976341D02*
X8049119Y-20966817D01*
X8049119Y-20966817D02*
X8058643Y-20957293D01*
X8058643Y-20957293D02*
X8068167Y-20938245D01*
X8068167Y-20938245D02*
X8068167Y-20890626D01*
X8068167Y-20890626D02*
X8058643Y-20871579D01*
X8058643Y-20871579D02*
X8049119Y-20862055D01*
X8049119Y-20862055D02*
X8030072Y-20852531D01*
X8030072Y-20852531D02*
X7991976Y-20852531D01*
X7991976Y-20852531D02*
X7972929Y-20862055D01*
X7972929Y-20862055D02*
X7963405Y-20871579D01*
X7963405Y-20871579D02*
X7953881Y-20890626D01*
X8239595Y-20843007D02*
X8239595Y-20976341D01*
X8191976Y-20766817D02*
X8144357Y-20909674D01*
X8144357Y-20909674D02*
X8268167Y-20909674D01*
X8496738Y-20976341D02*
X8496738Y-20776341D01*
X8582453Y-20976341D02*
X8582453Y-20871579D01*
X8582453Y-20871579D02*
X8572929Y-20852531D01*
X8572929Y-20852531D02*
X8553881Y-20843007D01*
X8553881Y-20843007D02*
X8525310Y-20843007D01*
X8525310Y-20843007D02*
X8506262Y-20852531D01*
X8506262Y-20852531D02*
X8496738Y-20862055D01*
X8706262Y-20976341D02*
X8687215Y-20966817D01*
X8687215Y-20966817D02*
X8677691Y-20957293D01*
X8677691Y-20957293D02*
X8668167Y-20938245D01*
X8668167Y-20938245D02*
X8668167Y-20881103D01*
X8668167Y-20881103D02*
X8677691Y-20862055D01*
X8677691Y-20862055D02*
X8687215Y-20852531D01*
X8687215Y-20852531D02*
X8706262Y-20843007D01*
X8706262Y-20843007D02*
X8734834Y-20843007D01*
X8734834Y-20843007D02*
X8753881Y-20852531D01*
X8753881Y-20852531D02*
X8763405Y-20862055D01*
X8763405Y-20862055D02*
X8772929Y-20881103D01*
X8772929Y-20881103D02*
X8772929Y-20938245D01*
X8772929Y-20938245D02*
X8763405Y-20957293D01*
X8763405Y-20957293D02*
X8753881Y-20966817D01*
X8753881Y-20966817D02*
X8734834Y-20976341D01*
X8734834Y-20976341D02*
X8706262Y-20976341D01*
X8887215Y-20976341D02*
X8868167Y-20966817D01*
X8868167Y-20966817D02*
X8858643Y-20947769D01*
X8858643Y-20947769D02*
X8858643Y-20776341D01*
X9039596Y-20966817D02*
X9020548Y-20976341D01*
X9020548Y-20976341D02*
X8982453Y-20976341D01*
X8982453Y-20976341D02*
X8963405Y-20966817D01*
X8963405Y-20966817D02*
X8953881Y-20947769D01*
X8953881Y-20947769D02*
X8953881Y-20871579D01*
X8953881Y-20871579D02*
X8963405Y-20852531D01*
X8963405Y-20852531D02*
X8982453Y-20843007D01*
X8982453Y-20843007D02*
X9020548Y-20843007D01*
X9020548Y-20843007D02*
X9039596Y-20852531D01*
X9039596Y-20852531D02*
X9049119Y-20871579D01*
X9049119Y-20871579D02*
X9049119Y-20890626D01*
X9049119Y-20890626D02*
X8953881Y-20909674D01*
X9125310Y-20966817D02*
X9144358Y-20976341D01*
X9144358Y-20976341D02*
X9182453Y-20976341D01*
X9182453Y-20976341D02*
X9201500Y-20966817D01*
X9201500Y-20966817D02*
X9211024Y-20947769D01*
X9211024Y-20947769D02*
X9211024Y-20938245D01*
X9211024Y-20938245D02*
X9201500Y-20919198D01*
X9201500Y-20919198D02*
X9182453Y-20909674D01*
X9182453Y-20909674D02*
X9153881Y-20909674D01*
X9153881Y-20909674D02*
X9134834Y-20900150D01*
X9134834Y-20900150D02*
X9125310Y-20881103D01*
X9125310Y-20881103D02*
X9125310Y-20871579D01*
X9125310Y-20871579D02*
X9134834Y-20852531D01*
X9134834Y-20852531D02*
X9153881Y-20843007D01*
X9153881Y-20843007D02*
X9182453Y-20843007D01*
X9182453Y-20843007D02*
X9201500Y-20852531D01*
X9277691Y-21052531D02*
X9287215Y-21043007D01*
X9287215Y-21043007D02*
X9306262Y-21014436D01*
X9306262Y-21014436D02*
X9315786Y-20995388D01*
X9315786Y-20995388D02*
X9325310Y-20966817D01*
X9325310Y-20966817D02*
X9334834Y-20919198D01*
X9334834Y-20919198D02*
X9334834Y-20881103D01*
X9334834Y-20881103D02*
X9325310Y-20833484D01*
X9325310Y-20833484D02*
X9315786Y-20804912D01*
X9315786Y-20804912D02*
X9306262Y-20785865D01*
X9306262Y-20785865D02*
X9287215Y-20757293D01*
X9287215Y-20757293D02*
X9277691Y-20747769D01*
D12*
X4262622Y-21099327D02*
X4262622Y-21198387D01*
X4213092Y-21148857D02*
X4312152Y-21148857D01*
D11*
X4611024Y-21040341D02*
X4630071Y-21040341D01*
X4630071Y-21040341D02*
X4649119Y-21049865D01*
X4649119Y-21049865D02*
X4658643Y-21059388D01*
X4658643Y-21059388D02*
X4668167Y-21078436D01*
X4668167Y-21078436D02*
X4677690Y-21116531D01*
X4677690Y-21116531D02*
X4677690Y-21164150D01*
X4677690Y-21164150D02*
X4668167Y-21202245D01*
X4668167Y-21202245D02*
X4658643Y-21221293D01*
X4658643Y-21221293D02*
X4649119Y-21230817D01*
X4649119Y-21230817D02*
X4630071Y-21240341D01*
X4630071Y-21240341D02*
X4611024Y-21240341D01*
X4611024Y-21240341D02*
X4591976Y-21230817D01*
X4591976Y-21230817D02*
X4582452Y-21221293D01*
X4582452Y-21221293D02*
X4572929Y-21202245D01*
X4572929Y-21202245D02*
X4563405Y-21164150D01*
X4563405Y-21164150D02*
X4563405Y-21116531D01*
X4563405Y-21116531D02*
X4572929Y-21078436D01*
X4572929Y-21078436D02*
X4582452Y-21059388D01*
X4582452Y-21059388D02*
X4591976Y-21049865D01*
X4591976Y-21049865D02*
X4611024Y-21040341D01*
X4763405Y-21221293D02*
X4772929Y-21230817D01*
X4772929Y-21230817D02*
X4763405Y-21240341D01*
X4763405Y-21240341D02*
X4753881Y-21230817D01*
X4753881Y-21230817D02*
X4763405Y-21221293D01*
X4763405Y-21221293D02*
X4763405Y-21240341D01*
X4868167Y-21240341D02*
X4906262Y-21240341D01*
X4906262Y-21240341D02*
X4925310Y-21230817D01*
X4925310Y-21230817D02*
X4934833Y-21221293D01*
X4934833Y-21221293D02*
X4953881Y-21192722D01*
X4953881Y-21192722D02*
X4963405Y-21154626D01*
X4963405Y-21154626D02*
X4963405Y-21078436D01*
X4963405Y-21078436D02*
X4953881Y-21059388D01*
X4953881Y-21059388D02*
X4944357Y-21049865D01*
X4944357Y-21049865D02*
X4925310Y-21040341D01*
X4925310Y-21040341D02*
X4887214Y-21040341D01*
X4887214Y-21040341D02*
X4868167Y-21049865D01*
X4868167Y-21049865D02*
X4858643Y-21059388D01*
X4858643Y-21059388D02*
X4849119Y-21078436D01*
X4849119Y-21078436D02*
X4849119Y-21126055D01*
X4849119Y-21126055D02*
X4858643Y-21145103D01*
X4858643Y-21145103D02*
X4868167Y-21154626D01*
X4868167Y-21154626D02*
X4887214Y-21164150D01*
X4887214Y-21164150D02*
X4925310Y-21164150D01*
X4925310Y-21164150D02*
X4944357Y-21154626D01*
X4944357Y-21154626D02*
X4953881Y-21145103D01*
X4953881Y-21145103D02*
X4963405Y-21126055D01*
X5058643Y-21240341D02*
X5096738Y-21240341D01*
X5096738Y-21240341D02*
X5115786Y-21230817D01*
X5115786Y-21230817D02*
X5125310Y-21221293D01*
X5125310Y-21221293D02*
X5144357Y-21192722D01*
X5144357Y-21192722D02*
X5153881Y-21154626D01*
X5153881Y-21154626D02*
X5153881Y-21078436D01*
X5153881Y-21078436D02*
X5144357Y-21059388D01*
X5144357Y-21059388D02*
X5134833Y-21049865D01*
X5134833Y-21049865D02*
X5115786Y-21040341D01*
X5115786Y-21040341D02*
X5077690Y-21040341D01*
X5077690Y-21040341D02*
X5058643Y-21049865D01*
X5058643Y-21049865D02*
X5049119Y-21059388D01*
X5049119Y-21059388D02*
X5039595Y-21078436D01*
X5039595Y-21078436D02*
X5039595Y-21126055D01*
X5039595Y-21126055D02*
X5049119Y-21145103D01*
X5049119Y-21145103D02*
X5058643Y-21154626D01*
X5058643Y-21154626D02*
X5077690Y-21164150D01*
X5077690Y-21164150D02*
X5115786Y-21164150D01*
X5115786Y-21164150D02*
X5134833Y-21154626D01*
X5134833Y-21154626D02*
X5144357Y-21145103D01*
X5144357Y-21145103D02*
X5153881Y-21126055D01*
X5344357Y-21240341D02*
X5230071Y-21240341D01*
X5287214Y-21240341D02*
X5287214Y-21040341D01*
X5287214Y-21040341D02*
X5268167Y-21068912D01*
X5268167Y-21068912D02*
X5249119Y-21087960D01*
X5249119Y-21087960D02*
X5230071Y-21097484D01*
X5430071Y-21240341D02*
X5430071Y-21107007D01*
X5430071Y-21126055D02*
X5439595Y-21116531D01*
X5439595Y-21116531D02*
X5458643Y-21107007D01*
X5458643Y-21107007D02*
X5487214Y-21107007D01*
X5487214Y-21107007D02*
X5506262Y-21116531D01*
X5506262Y-21116531D02*
X5515786Y-21135579D01*
X5515786Y-21135579D02*
X5515786Y-21240341D01*
X5515786Y-21135579D02*
X5525310Y-21116531D01*
X5525310Y-21116531D02*
X5544357Y-21107007D01*
X5544357Y-21107007D02*
X5572929Y-21107007D01*
X5572929Y-21107007D02*
X5591976Y-21116531D01*
X5591976Y-21116531D02*
X5601500Y-21135579D01*
X5601500Y-21135579D02*
X5601500Y-21240341D01*
X5696738Y-21240341D02*
X5696738Y-21107007D01*
X5696738Y-21126055D02*
X5706262Y-21116531D01*
X5706262Y-21116531D02*
X5725309Y-21107007D01*
X5725309Y-21107007D02*
X5753881Y-21107007D01*
X5753881Y-21107007D02*
X5772929Y-21116531D01*
X5772929Y-21116531D02*
X5782452Y-21135579D01*
X5782452Y-21135579D02*
X5782452Y-21240341D01*
X5782452Y-21135579D02*
X5791976Y-21116531D01*
X5791976Y-21116531D02*
X5811024Y-21107007D01*
X5811024Y-21107007D02*
X5839595Y-21107007D01*
X5839595Y-21107007D02*
X5858643Y-21116531D01*
X5858643Y-21116531D02*
X5868167Y-21135579D01*
X5868167Y-21135579D02*
X5868167Y-21240341D01*
X6258643Y-21030817D02*
X6087214Y-21287960D01*
X6515786Y-21040341D02*
X6534833Y-21040341D01*
X6534833Y-21040341D02*
X6553881Y-21049865D01*
X6553881Y-21049865D02*
X6563405Y-21059388D01*
X6563405Y-21059388D02*
X6572929Y-21078436D01*
X6572929Y-21078436D02*
X6582452Y-21116531D01*
X6582452Y-21116531D02*
X6582452Y-21164150D01*
X6582452Y-21164150D02*
X6572929Y-21202245D01*
X6572929Y-21202245D02*
X6563405Y-21221293D01*
X6563405Y-21221293D02*
X6553881Y-21230817D01*
X6553881Y-21230817D02*
X6534833Y-21240341D01*
X6534833Y-21240341D02*
X6515786Y-21240341D01*
X6515786Y-21240341D02*
X6496738Y-21230817D01*
X6496738Y-21230817D02*
X6487214Y-21221293D01*
X6487214Y-21221293D02*
X6477691Y-21202245D01*
X6477691Y-21202245D02*
X6468167Y-21164150D01*
X6468167Y-21164150D02*
X6468167Y-21116531D01*
X6468167Y-21116531D02*
X6477691Y-21078436D01*
X6477691Y-21078436D02*
X6487214Y-21059388D01*
X6487214Y-21059388D02*
X6496738Y-21049865D01*
X6496738Y-21049865D02*
X6515786Y-21040341D01*
X6668167Y-21221293D02*
X6677691Y-21230817D01*
X6677691Y-21230817D02*
X6668167Y-21240341D01*
X6668167Y-21240341D02*
X6658643Y-21230817D01*
X6658643Y-21230817D02*
X6668167Y-21221293D01*
X6668167Y-21221293D02*
X6668167Y-21240341D01*
X6801500Y-21040341D02*
X6820548Y-21040341D01*
X6820548Y-21040341D02*
X6839595Y-21049865D01*
X6839595Y-21049865D02*
X6849119Y-21059388D01*
X6849119Y-21059388D02*
X6858643Y-21078436D01*
X6858643Y-21078436D02*
X6868167Y-21116531D01*
X6868167Y-21116531D02*
X6868167Y-21164150D01*
X6868167Y-21164150D02*
X6858643Y-21202245D01*
X6858643Y-21202245D02*
X6849119Y-21221293D01*
X6849119Y-21221293D02*
X6839595Y-21230817D01*
X6839595Y-21230817D02*
X6820548Y-21240341D01*
X6820548Y-21240341D02*
X6801500Y-21240341D01*
X6801500Y-21240341D02*
X6782452Y-21230817D01*
X6782452Y-21230817D02*
X6772929Y-21221293D01*
X6772929Y-21221293D02*
X6763405Y-21202245D01*
X6763405Y-21202245D02*
X6753881Y-21164150D01*
X6753881Y-21164150D02*
X6753881Y-21116531D01*
X6753881Y-21116531D02*
X6763405Y-21078436D01*
X6763405Y-21078436D02*
X6772929Y-21059388D01*
X6772929Y-21059388D02*
X6782452Y-21049865D01*
X6782452Y-21049865D02*
X6801500Y-21040341D01*
X6934833Y-21040341D02*
X7058643Y-21040341D01*
X7058643Y-21040341D02*
X6991976Y-21116531D01*
X6991976Y-21116531D02*
X7020548Y-21116531D01*
X7020548Y-21116531D02*
X7039595Y-21126055D01*
X7039595Y-21126055D02*
X7049119Y-21135579D01*
X7049119Y-21135579D02*
X7058643Y-21154626D01*
X7058643Y-21154626D02*
X7058643Y-21202245D01*
X7058643Y-21202245D02*
X7049119Y-21221293D01*
X7049119Y-21221293D02*
X7039595Y-21230817D01*
X7039595Y-21230817D02*
X7020548Y-21240341D01*
X7020548Y-21240341D02*
X6963405Y-21240341D01*
X6963405Y-21240341D02*
X6944357Y-21230817D01*
X6944357Y-21230817D02*
X6934833Y-21221293D01*
X7153881Y-21240341D02*
X7191976Y-21240341D01*
X7191976Y-21240341D02*
X7211024Y-21230817D01*
X7211024Y-21230817D02*
X7220548Y-21221293D01*
X7220548Y-21221293D02*
X7239595Y-21192722D01*
X7239595Y-21192722D02*
X7249119Y-21154626D01*
X7249119Y-21154626D02*
X7249119Y-21078436D01*
X7249119Y-21078436D02*
X7239595Y-21059388D01*
X7239595Y-21059388D02*
X7230072Y-21049865D01*
X7230072Y-21049865D02*
X7211024Y-21040341D01*
X7211024Y-21040341D02*
X7172929Y-21040341D01*
X7172929Y-21040341D02*
X7153881Y-21049865D01*
X7153881Y-21049865D02*
X7144357Y-21059388D01*
X7144357Y-21059388D02*
X7134833Y-21078436D01*
X7134833Y-21078436D02*
X7134833Y-21126055D01*
X7134833Y-21126055D02*
X7144357Y-21145103D01*
X7144357Y-21145103D02*
X7153881Y-21154626D01*
X7153881Y-21154626D02*
X7172929Y-21164150D01*
X7172929Y-21164150D02*
X7211024Y-21164150D01*
X7211024Y-21164150D02*
X7230072Y-21154626D01*
X7230072Y-21154626D02*
X7239595Y-21145103D01*
X7239595Y-21145103D02*
X7249119Y-21126055D01*
X7372929Y-21040341D02*
X7391976Y-21040341D01*
X7391976Y-21040341D02*
X7411024Y-21049865D01*
X7411024Y-21049865D02*
X7420548Y-21059388D01*
X7420548Y-21059388D02*
X7430072Y-21078436D01*
X7430072Y-21078436D02*
X7439595Y-21116531D01*
X7439595Y-21116531D02*
X7439595Y-21164150D01*
X7439595Y-21164150D02*
X7430072Y-21202245D01*
X7430072Y-21202245D02*
X7420548Y-21221293D01*
X7420548Y-21221293D02*
X7411024Y-21230817D01*
X7411024Y-21230817D02*
X7391976Y-21240341D01*
X7391976Y-21240341D02*
X7372929Y-21240341D01*
X7372929Y-21240341D02*
X7353881Y-21230817D01*
X7353881Y-21230817D02*
X7344357Y-21221293D01*
X7344357Y-21221293D02*
X7334833Y-21202245D01*
X7334833Y-21202245D02*
X7325310Y-21164150D01*
X7325310Y-21164150D02*
X7325310Y-21116531D01*
X7325310Y-21116531D02*
X7334833Y-21078436D01*
X7334833Y-21078436D02*
X7344357Y-21059388D01*
X7344357Y-21059388D02*
X7353881Y-21049865D01*
X7353881Y-21049865D02*
X7372929Y-21040341D01*
X7515786Y-21040341D02*
X7515786Y-21078436D01*
X7591976Y-21040341D02*
X7591976Y-21078436D01*
X7887215Y-21316531D02*
X7877691Y-21307007D01*
X7877691Y-21307007D02*
X7858643Y-21278436D01*
X7858643Y-21278436D02*
X7849119Y-21259388D01*
X7849119Y-21259388D02*
X7839595Y-21230817D01*
X7839595Y-21230817D02*
X7830072Y-21183198D01*
X7830072Y-21183198D02*
X7830072Y-21145103D01*
X7830072Y-21145103D02*
X7839595Y-21097484D01*
X7839595Y-21097484D02*
X7849119Y-21068912D01*
X7849119Y-21068912D02*
X7858643Y-21049865D01*
X7858643Y-21049865D02*
X7877691Y-21021293D01*
X7877691Y-21021293D02*
X7887215Y-21011769D01*
X7944357Y-21040341D02*
X8077691Y-21040341D01*
X8077691Y-21040341D02*
X7991976Y-21240341D01*
X8144357Y-21059388D02*
X8153881Y-21049865D01*
X8153881Y-21049865D02*
X8172929Y-21040341D01*
X8172929Y-21040341D02*
X8220548Y-21040341D01*
X8220548Y-21040341D02*
X8239595Y-21049865D01*
X8239595Y-21049865D02*
X8249119Y-21059388D01*
X8249119Y-21059388D02*
X8258643Y-21078436D01*
X8258643Y-21078436D02*
X8258643Y-21097484D01*
X8258643Y-21097484D02*
X8249119Y-21126055D01*
X8249119Y-21126055D02*
X8134834Y-21240341D01*
X8134834Y-21240341D02*
X8258643Y-21240341D01*
X8496738Y-21240341D02*
X8496738Y-21040341D01*
X8582453Y-21240341D02*
X8582453Y-21135579D01*
X8582453Y-21135579D02*
X8572929Y-21116531D01*
X8572929Y-21116531D02*
X8553881Y-21107007D01*
X8553881Y-21107007D02*
X8525310Y-21107007D01*
X8525310Y-21107007D02*
X8506262Y-21116531D01*
X8506262Y-21116531D02*
X8496738Y-21126055D01*
X8706262Y-21240341D02*
X8687215Y-21230817D01*
X8687215Y-21230817D02*
X8677691Y-21221293D01*
X8677691Y-21221293D02*
X8668167Y-21202245D01*
X8668167Y-21202245D02*
X8668167Y-21145103D01*
X8668167Y-21145103D02*
X8677691Y-21126055D01*
X8677691Y-21126055D02*
X8687215Y-21116531D01*
X8687215Y-21116531D02*
X8706262Y-21107007D01*
X8706262Y-21107007D02*
X8734834Y-21107007D01*
X8734834Y-21107007D02*
X8753881Y-21116531D01*
X8753881Y-21116531D02*
X8763405Y-21126055D01*
X8763405Y-21126055D02*
X8772929Y-21145103D01*
X8772929Y-21145103D02*
X8772929Y-21202245D01*
X8772929Y-21202245D02*
X8763405Y-21221293D01*
X8763405Y-21221293D02*
X8753881Y-21230817D01*
X8753881Y-21230817D02*
X8734834Y-21240341D01*
X8734834Y-21240341D02*
X8706262Y-21240341D01*
X8887215Y-21240341D02*
X8868167Y-21230817D01*
X8868167Y-21230817D02*
X8858643Y-21211769D01*
X8858643Y-21211769D02*
X8858643Y-21040341D01*
X9039596Y-21230817D02*
X9020548Y-21240341D01*
X9020548Y-21240341D02*
X8982453Y-21240341D01*
X8982453Y-21240341D02*
X8963405Y-21230817D01*
X8963405Y-21230817D02*
X8953881Y-21211769D01*
X8953881Y-21211769D02*
X8953881Y-21135579D01*
X8953881Y-21135579D02*
X8963405Y-21116531D01*
X8963405Y-21116531D02*
X8982453Y-21107007D01*
X8982453Y-21107007D02*
X9020548Y-21107007D01*
X9020548Y-21107007D02*
X9039596Y-21116531D01*
X9039596Y-21116531D02*
X9049119Y-21135579D01*
X9049119Y-21135579D02*
X9049119Y-21154626D01*
X9049119Y-21154626D02*
X8953881Y-21173674D01*
X9125310Y-21230817D02*
X9144358Y-21240341D01*
X9144358Y-21240341D02*
X9182453Y-21240341D01*
X9182453Y-21240341D02*
X9201500Y-21230817D01*
X9201500Y-21230817D02*
X9211024Y-21211769D01*
X9211024Y-21211769D02*
X9211024Y-21202245D01*
X9211024Y-21202245D02*
X9201500Y-21183198D01*
X9201500Y-21183198D02*
X9182453Y-21173674D01*
X9182453Y-21173674D02*
X9153881Y-21173674D01*
X9153881Y-21173674D02*
X9134834Y-21164150D01*
X9134834Y-21164150D02*
X9125310Y-21145103D01*
X9125310Y-21145103D02*
X9125310Y-21135579D01*
X9125310Y-21135579D02*
X9134834Y-21116531D01*
X9134834Y-21116531D02*
X9153881Y-21107007D01*
X9153881Y-21107007D02*
X9182453Y-21107007D01*
X9182453Y-21107007D02*
X9201500Y-21116531D01*
X9277691Y-21316531D02*
X9287215Y-21307007D01*
X9287215Y-21307007D02*
X9306262Y-21278436D01*
X9306262Y-21278436D02*
X9315786Y-21259388D01*
X9315786Y-21259388D02*
X9325310Y-21230817D01*
X9325310Y-21230817D02*
X9334834Y-21183198D01*
X9334834Y-21183198D02*
X9334834Y-21145103D01*
X9334834Y-21145103D02*
X9325310Y-21097484D01*
X9325310Y-21097484D02*
X9315786Y-21068912D01*
X9315786Y-21068912D02*
X9306262Y-21049865D01*
X9306262Y-21049865D02*
X9287215Y-21021293D01*
X9287215Y-21021293D02*
X9277691Y-21011769D01*
D12*
X4297507Y-21448213D02*
X4297507Y-21377501D01*
X4226796Y-21377501D01*
X4226796Y-21448213D01*
X4297507Y-21448213D01*
D11*
X4677690Y-21504341D02*
X4563405Y-21504341D01*
X4620548Y-21504341D02*
X4620548Y-21304341D01*
X4620548Y-21304341D02*
X4601500Y-21332912D01*
X4601500Y-21332912D02*
X4582452Y-21351960D01*
X4582452Y-21351960D02*
X4563405Y-21361484D01*
X4763405Y-21485293D02*
X4772929Y-21494817D01*
X4772929Y-21494817D02*
X4763405Y-21504341D01*
X4763405Y-21504341D02*
X4753881Y-21494817D01*
X4753881Y-21494817D02*
X4763405Y-21485293D01*
X4763405Y-21485293D02*
X4763405Y-21504341D01*
X4896738Y-21304341D02*
X4915786Y-21304341D01*
X4915786Y-21304341D02*
X4934833Y-21313865D01*
X4934833Y-21313865D02*
X4944357Y-21323388D01*
X4944357Y-21323388D02*
X4953881Y-21342436D01*
X4953881Y-21342436D02*
X4963405Y-21380531D01*
X4963405Y-21380531D02*
X4963405Y-21428150D01*
X4963405Y-21428150D02*
X4953881Y-21466245D01*
X4953881Y-21466245D02*
X4944357Y-21485293D01*
X4944357Y-21485293D02*
X4934833Y-21494817D01*
X4934833Y-21494817D02*
X4915786Y-21504341D01*
X4915786Y-21504341D02*
X4896738Y-21504341D01*
X4896738Y-21504341D02*
X4877690Y-21494817D01*
X4877690Y-21494817D02*
X4868167Y-21485293D01*
X4868167Y-21485293D02*
X4858643Y-21466245D01*
X4858643Y-21466245D02*
X4849119Y-21428150D01*
X4849119Y-21428150D02*
X4849119Y-21380531D01*
X4849119Y-21380531D02*
X4858643Y-21342436D01*
X4858643Y-21342436D02*
X4868167Y-21323388D01*
X4868167Y-21323388D02*
X4877690Y-21313865D01*
X4877690Y-21313865D02*
X4896738Y-21304341D01*
X5087214Y-21304341D02*
X5106262Y-21304341D01*
X5106262Y-21304341D02*
X5125310Y-21313865D01*
X5125310Y-21313865D02*
X5134833Y-21323388D01*
X5134833Y-21323388D02*
X5144357Y-21342436D01*
X5144357Y-21342436D02*
X5153881Y-21380531D01*
X5153881Y-21380531D02*
X5153881Y-21428150D01*
X5153881Y-21428150D02*
X5144357Y-21466245D01*
X5144357Y-21466245D02*
X5134833Y-21485293D01*
X5134833Y-21485293D02*
X5125310Y-21494817D01*
X5125310Y-21494817D02*
X5106262Y-21504341D01*
X5106262Y-21504341D02*
X5087214Y-21504341D01*
X5087214Y-21504341D02*
X5068167Y-21494817D01*
X5068167Y-21494817D02*
X5058643Y-21485293D01*
X5058643Y-21485293D02*
X5049119Y-21466245D01*
X5049119Y-21466245D02*
X5039595Y-21428150D01*
X5039595Y-21428150D02*
X5039595Y-21380531D01*
X5039595Y-21380531D02*
X5049119Y-21342436D01*
X5049119Y-21342436D02*
X5058643Y-21323388D01*
X5058643Y-21323388D02*
X5068167Y-21313865D01*
X5068167Y-21313865D02*
X5087214Y-21304341D01*
X5277690Y-21304341D02*
X5296738Y-21304341D01*
X5296738Y-21304341D02*
X5315786Y-21313865D01*
X5315786Y-21313865D02*
X5325310Y-21323388D01*
X5325310Y-21323388D02*
X5334833Y-21342436D01*
X5334833Y-21342436D02*
X5344357Y-21380531D01*
X5344357Y-21380531D02*
X5344357Y-21428150D01*
X5344357Y-21428150D02*
X5334833Y-21466245D01*
X5334833Y-21466245D02*
X5325310Y-21485293D01*
X5325310Y-21485293D02*
X5315786Y-21494817D01*
X5315786Y-21494817D02*
X5296738Y-21504341D01*
X5296738Y-21504341D02*
X5277690Y-21504341D01*
X5277690Y-21504341D02*
X5258643Y-21494817D01*
X5258643Y-21494817D02*
X5249119Y-21485293D01*
X5249119Y-21485293D02*
X5239595Y-21466245D01*
X5239595Y-21466245D02*
X5230071Y-21428150D01*
X5230071Y-21428150D02*
X5230071Y-21380531D01*
X5230071Y-21380531D02*
X5239595Y-21342436D01*
X5239595Y-21342436D02*
X5249119Y-21323388D01*
X5249119Y-21323388D02*
X5258643Y-21313865D01*
X5258643Y-21313865D02*
X5277690Y-21304341D01*
X5430071Y-21504341D02*
X5430071Y-21371007D01*
X5430071Y-21390055D02*
X5439595Y-21380531D01*
X5439595Y-21380531D02*
X5458643Y-21371007D01*
X5458643Y-21371007D02*
X5487214Y-21371007D01*
X5487214Y-21371007D02*
X5506262Y-21380531D01*
X5506262Y-21380531D02*
X5515786Y-21399579D01*
X5515786Y-21399579D02*
X5515786Y-21504341D01*
X5515786Y-21399579D02*
X5525310Y-21380531D01*
X5525310Y-21380531D02*
X5544357Y-21371007D01*
X5544357Y-21371007D02*
X5572929Y-21371007D01*
X5572929Y-21371007D02*
X5591976Y-21380531D01*
X5591976Y-21380531D02*
X5601500Y-21399579D01*
X5601500Y-21399579D02*
X5601500Y-21504341D01*
X5696738Y-21504341D02*
X5696738Y-21371007D01*
X5696738Y-21390055D02*
X5706262Y-21380531D01*
X5706262Y-21380531D02*
X5725309Y-21371007D01*
X5725309Y-21371007D02*
X5753881Y-21371007D01*
X5753881Y-21371007D02*
X5772929Y-21380531D01*
X5772929Y-21380531D02*
X5782452Y-21399579D01*
X5782452Y-21399579D02*
X5782452Y-21504341D01*
X5782452Y-21399579D02*
X5791976Y-21380531D01*
X5791976Y-21380531D02*
X5811024Y-21371007D01*
X5811024Y-21371007D02*
X5839595Y-21371007D01*
X5839595Y-21371007D02*
X5858643Y-21380531D01*
X5858643Y-21380531D02*
X5868167Y-21399579D01*
X5868167Y-21399579D02*
X5868167Y-21504341D01*
X6258643Y-21294817D02*
X6087214Y-21551960D01*
X6515786Y-21304341D02*
X6534833Y-21304341D01*
X6534833Y-21304341D02*
X6553881Y-21313865D01*
X6553881Y-21313865D02*
X6563405Y-21323388D01*
X6563405Y-21323388D02*
X6572929Y-21342436D01*
X6572929Y-21342436D02*
X6582452Y-21380531D01*
X6582452Y-21380531D02*
X6582452Y-21428150D01*
X6582452Y-21428150D02*
X6572929Y-21466245D01*
X6572929Y-21466245D02*
X6563405Y-21485293D01*
X6563405Y-21485293D02*
X6553881Y-21494817D01*
X6553881Y-21494817D02*
X6534833Y-21504341D01*
X6534833Y-21504341D02*
X6515786Y-21504341D01*
X6515786Y-21504341D02*
X6496738Y-21494817D01*
X6496738Y-21494817D02*
X6487214Y-21485293D01*
X6487214Y-21485293D02*
X6477691Y-21466245D01*
X6477691Y-21466245D02*
X6468167Y-21428150D01*
X6468167Y-21428150D02*
X6468167Y-21380531D01*
X6468167Y-21380531D02*
X6477691Y-21342436D01*
X6477691Y-21342436D02*
X6487214Y-21323388D01*
X6487214Y-21323388D02*
X6496738Y-21313865D01*
X6496738Y-21313865D02*
X6515786Y-21304341D01*
X6668167Y-21485293D02*
X6677691Y-21494817D01*
X6677691Y-21494817D02*
X6668167Y-21504341D01*
X6668167Y-21504341D02*
X6658643Y-21494817D01*
X6658643Y-21494817D02*
X6668167Y-21485293D01*
X6668167Y-21485293D02*
X6668167Y-21504341D01*
X6801500Y-21304341D02*
X6820548Y-21304341D01*
X6820548Y-21304341D02*
X6839595Y-21313865D01*
X6839595Y-21313865D02*
X6849119Y-21323388D01*
X6849119Y-21323388D02*
X6858643Y-21342436D01*
X6858643Y-21342436D02*
X6868167Y-21380531D01*
X6868167Y-21380531D02*
X6868167Y-21428150D01*
X6868167Y-21428150D02*
X6858643Y-21466245D01*
X6858643Y-21466245D02*
X6849119Y-21485293D01*
X6849119Y-21485293D02*
X6839595Y-21494817D01*
X6839595Y-21494817D02*
X6820548Y-21504341D01*
X6820548Y-21504341D02*
X6801500Y-21504341D01*
X6801500Y-21504341D02*
X6782452Y-21494817D01*
X6782452Y-21494817D02*
X6772929Y-21485293D01*
X6772929Y-21485293D02*
X6763405Y-21466245D01*
X6763405Y-21466245D02*
X6753881Y-21428150D01*
X6753881Y-21428150D02*
X6753881Y-21380531D01*
X6753881Y-21380531D02*
X6763405Y-21342436D01*
X6763405Y-21342436D02*
X6772929Y-21323388D01*
X6772929Y-21323388D02*
X6782452Y-21313865D01*
X6782452Y-21313865D02*
X6801500Y-21304341D01*
X6934833Y-21304341D02*
X7058643Y-21304341D01*
X7058643Y-21304341D02*
X6991976Y-21380531D01*
X6991976Y-21380531D02*
X7020548Y-21380531D01*
X7020548Y-21380531D02*
X7039595Y-21390055D01*
X7039595Y-21390055D02*
X7049119Y-21399579D01*
X7049119Y-21399579D02*
X7058643Y-21418626D01*
X7058643Y-21418626D02*
X7058643Y-21466245D01*
X7058643Y-21466245D02*
X7049119Y-21485293D01*
X7049119Y-21485293D02*
X7039595Y-21494817D01*
X7039595Y-21494817D02*
X7020548Y-21504341D01*
X7020548Y-21504341D02*
X6963405Y-21504341D01*
X6963405Y-21504341D02*
X6944357Y-21494817D01*
X6944357Y-21494817D02*
X6934833Y-21485293D01*
X7153881Y-21504341D02*
X7191976Y-21504341D01*
X7191976Y-21504341D02*
X7211024Y-21494817D01*
X7211024Y-21494817D02*
X7220548Y-21485293D01*
X7220548Y-21485293D02*
X7239595Y-21456722D01*
X7239595Y-21456722D02*
X7249119Y-21418626D01*
X7249119Y-21418626D02*
X7249119Y-21342436D01*
X7249119Y-21342436D02*
X7239595Y-21323388D01*
X7239595Y-21323388D02*
X7230072Y-21313865D01*
X7230072Y-21313865D02*
X7211024Y-21304341D01*
X7211024Y-21304341D02*
X7172929Y-21304341D01*
X7172929Y-21304341D02*
X7153881Y-21313865D01*
X7153881Y-21313865D02*
X7144357Y-21323388D01*
X7144357Y-21323388D02*
X7134833Y-21342436D01*
X7134833Y-21342436D02*
X7134833Y-21390055D01*
X7134833Y-21390055D02*
X7144357Y-21409103D01*
X7144357Y-21409103D02*
X7153881Y-21418626D01*
X7153881Y-21418626D02*
X7172929Y-21428150D01*
X7172929Y-21428150D02*
X7211024Y-21428150D01*
X7211024Y-21428150D02*
X7230072Y-21418626D01*
X7230072Y-21418626D02*
X7239595Y-21409103D01*
X7239595Y-21409103D02*
X7249119Y-21390055D01*
X7420548Y-21371007D02*
X7420548Y-21504341D01*
X7372929Y-21294817D02*
X7325310Y-21437674D01*
X7325310Y-21437674D02*
X7449119Y-21437674D01*
X7515786Y-21304341D02*
X7515786Y-21342436D01*
X7591976Y-21304341D02*
X7591976Y-21342436D01*
X7887215Y-21580531D02*
X7877691Y-21571007D01*
X7877691Y-21571007D02*
X7858643Y-21542436D01*
X7858643Y-21542436D02*
X7849119Y-21523388D01*
X7849119Y-21523388D02*
X7839595Y-21494817D01*
X7839595Y-21494817D02*
X7830072Y-21447198D01*
X7830072Y-21447198D02*
X7830072Y-21409103D01*
X7830072Y-21409103D02*
X7839595Y-21361484D01*
X7839595Y-21361484D02*
X7849119Y-21332912D01*
X7849119Y-21332912D02*
X7858643Y-21313865D01*
X7858643Y-21313865D02*
X7877691Y-21285293D01*
X7877691Y-21285293D02*
X7887215Y-21275769D01*
X8049119Y-21371007D02*
X8049119Y-21504341D01*
X8001500Y-21294817D02*
X7953881Y-21437674D01*
X7953881Y-21437674D02*
X8077691Y-21437674D01*
X8306262Y-21504341D02*
X8306262Y-21304341D01*
X8391977Y-21504341D02*
X8391977Y-21399579D01*
X8391977Y-21399579D02*
X8382453Y-21380531D01*
X8382453Y-21380531D02*
X8363405Y-21371007D01*
X8363405Y-21371007D02*
X8334834Y-21371007D01*
X8334834Y-21371007D02*
X8315786Y-21380531D01*
X8315786Y-21380531D02*
X8306262Y-21390055D01*
X8515786Y-21504341D02*
X8496738Y-21494817D01*
X8496738Y-21494817D02*
X8487215Y-21485293D01*
X8487215Y-21485293D02*
X8477691Y-21466245D01*
X8477691Y-21466245D02*
X8477691Y-21409103D01*
X8477691Y-21409103D02*
X8487215Y-21390055D01*
X8487215Y-21390055D02*
X8496738Y-21380531D01*
X8496738Y-21380531D02*
X8515786Y-21371007D01*
X8515786Y-21371007D02*
X8544358Y-21371007D01*
X8544358Y-21371007D02*
X8563405Y-21380531D01*
X8563405Y-21380531D02*
X8572929Y-21390055D01*
X8572929Y-21390055D02*
X8582453Y-21409103D01*
X8582453Y-21409103D02*
X8582453Y-21466245D01*
X8582453Y-21466245D02*
X8572929Y-21485293D01*
X8572929Y-21485293D02*
X8563405Y-21494817D01*
X8563405Y-21494817D02*
X8544358Y-21504341D01*
X8544358Y-21504341D02*
X8515786Y-21504341D01*
X8696738Y-21504341D02*
X8677691Y-21494817D01*
X8677691Y-21494817D02*
X8668167Y-21475769D01*
X8668167Y-21475769D02*
X8668167Y-21304341D01*
X8849119Y-21494817D02*
X8830072Y-21504341D01*
X8830072Y-21504341D02*
X8791977Y-21504341D01*
X8791977Y-21504341D02*
X8772929Y-21494817D01*
X8772929Y-21494817D02*
X8763405Y-21475769D01*
X8763405Y-21475769D02*
X8763405Y-21399579D01*
X8763405Y-21399579D02*
X8772929Y-21380531D01*
X8772929Y-21380531D02*
X8791977Y-21371007D01*
X8791977Y-21371007D02*
X8830072Y-21371007D01*
X8830072Y-21371007D02*
X8849119Y-21380531D01*
X8849119Y-21380531D02*
X8858643Y-21399579D01*
X8858643Y-21399579D02*
X8858643Y-21418626D01*
X8858643Y-21418626D02*
X8763405Y-21437674D01*
X8934834Y-21494817D02*
X8953881Y-21504341D01*
X8953881Y-21504341D02*
X8991977Y-21504341D01*
X8991977Y-21504341D02*
X9011024Y-21494817D01*
X9011024Y-21494817D02*
X9020548Y-21475769D01*
X9020548Y-21475769D02*
X9020548Y-21466245D01*
X9020548Y-21466245D02*
X9011024Y-21447198D01*
X9011024Y-21447198D02*
X8991977Y-21437674D01*
X8991977Y-21437674D02*
X8963405Y-21437674D01*
X8963405Y-21437674D02*
X8944358Y-21428150D01*
X8944358Y-21428150D02*
X8934834Y-21409103D01*
X8934834Y-21409103D02*
X8934834Y-21399579D01*
X8934834Y-21399579D02*
X8944358Y-21380531D01*
X8944358Y-21380531D02*
X8963405Y-21371007D01*
X8963405Y-21371007D02*
X8991977Y-21371007D01*
X8991977Y-21371007D02*
X9011024Y-21380531D01*
X9087215Y-21580531D02*
X9096739Y-21571007D01*
X9096739Y-21571007D02*
X9115786Y-21542436D01*
X9115786Y-21542436D02*
X9125310Y-21523388D01*
X9125310Y-21523388D02*
X9134834Y-21494817D01*
X9134834Y-21494817D02*
X9144358Y-21447198D01*
X9144358Y-21447198D02*
X9144358Y-21409103D01*
X9144358Y-21409103D02*
X9134834Y-21361484D01*
X9134834Y-21361484D02*
X9125310Y-21332912D01*
X9125310Y-21332912D02*
X9115786Y-21313865D01*
X9115786Y-21313865D02*
X9096739Y-21285293D01*
X9096739Y-21285293D02*
X9087215Y-21275769D01*
D13*
X4257542Y-21731467D02*
X4312152Y-21676857D01*
X4257542Y-21622247D01*
X4202932Y-21676857D01*
X4257542Y-21731467D01*
D11*
X4677690Y-21768341D02*
X4563405Y-21768341D01*
X4620548Y-21768341D02*
X4620548Y-21568341D01*
X4620548Y-21568341D02*
X4601500Y-21596912D01*
X4601500Y-21596912D02*
X4582452Y-21615960D01*
X4582452Y-21615960D02*
X4563405Y-21625484D01*
X4763405Y-21749293D02*
X4772929Y-21758817D01*
X4772929Y-21758817D02*
X4763405Y-21768341D01*
X4763405Y-21768341D02*
X4753881Y-21758817D01*
X4753881Y-21758817D02*
X4763405Y-21749293D01*
X4763405Y-21749293D02*
X4763405Y-21768341D01*
X4896738Y-21568341D02*
X4915786Y-21568341D01*
X4915786Y-21568341D02*
X4934833Y-21577865D01*
X4934833Y-21577865D02*
X4944357Y-21587388D01*
X4944357Y-21587388D02*
X4953881Y-21606436D01*
X4953881Y-21606436D02*
X4963405Y-21644531D01*
X4963405Y-21644531D02*
X4963405Y-21692150D01*
X4963405Y-21692150D02*
X4953881Y-21730245D01*
X4953881Y-21730245D02*
X4944357Y-21749293D01*
X4944357Y-21749293D02*
X4934833Y-21758817D01*
X4934833Y-21758817D02*
X4915786Y-21768341D01*
X4915786Y-21768341D02*
X4896738Y-21768341D01*
X4896738Y-21768341D02*
X4877690Y-21758817D01*
X4877690Y-21758817D02*
X4868167Y-21749293D01*
X4868167Y-21749293D02*
X4858643Y-21730245D01*
X4858643Y-21730245D02*
X4849119Y-21692150D01*
X4849119Y-21692150D02*
X4849119Y-21644531D01*
X4849119Y-21644531D02*
X4858643Y-21606436D01*
X4858643Y-21606436D02*
X4868167Y-21587388D01*
X4868167Y-21587388D02*
X4877690Y-21577865D01*
X4877690Y-21577865D02*
X4896738Y-21568341D01*
X5058643Y-21768341D02*
X5096738Y-21768341D01*
X5096738Y-21768341D02*
X5115786Y-21758817D01*
X5115786Y-21758817D02*
X5125310Y-21749293D01*
X5125310Y-21749293D02*
X5144357Y-21720722D01*
X5144357Y-21720722D02*
X5153881Y-21682626D01*
X5153881Y-21682626D02*
X5153881Y-21606436D01*
X5153881Y-21606436D02*
X5144357Y-21587388D01*
X5144357Y-21587388D02*
X5134833Y-21577865D01*
X5134833Y-21577865D02*
X5115786Y-21568341D01*
X5115786Y-21568341D02*
X5077690Y-21568341D01*
X5077690Y-21568341D02*
X5058643Y-21577865D01*
X5058643Y-21577865D02*
X5049119Y-21587388D01*
X5049119Y-21587388D02*
X5039595Y-21606436D01*
X5039595Y-21606436D02*
X5039595Y-21654055D01*
X5039595Y-21654055D02*
X5049119Y-21673103D01*
X5049119Y-21673103D02*
X5058643Y-21682626D01*
X5058643Y-21682626D02*
X5077690Y-21692150D01*
X5077690Y-21692150D02*
X5115786Y-21692150D01*
X5115786Y-21692150D02*
X5134833Y-21682626D01*
X5134833Y-21682626D02*
X5144357Y-21673103D01*
X5144357Y-21673103D02*
X5153881Y-21654055D01*
X5230071Y-21587388D02*
X5239595Y-21577865D01*
X5239595Y-21577865D02*
X5258643Y-21568341D01*
X5258643Y-21568341D02*
X5306262Y-21568341D01*
X5306262Y-21568341D02*
X5325310Y-21577865D01*
X5325310Y-21577865D02*
X5334833Y-21587388D01*
X5334833Y-21587388D02*
X5344357Y-21606436D01*
X5344357Y-21606436D02*
X5344357Y-21625484D01*
X5344357Y-21625484D02*
X5334833Y-21654055D01*
X5334833Y-21654055D02*
X5220548Y-21768341D01*
X5220548Y-21768341D02*
X5344357Y-21768341D01*
X5430071Y-21768341D02*
X5430071Y-21635007D01*
X5430071Y-21654055D02*
X5439595Y-21644531D01*
X5439595Y-21644531D02*
X5458643Y-21635007D01*
X5458643Y-21635007D02*
X5487214Y-21635007D01*
X5487214Y-21635007D02*
X5506262Y-21644531D01*
X5506262Y-21644531D02*
X5515786Y-21663579D01*
X5515786Y-21663579D02*
X5515786Y-21768341D01*
X5515786Y-21663579D02*
X5525310Y-21644531D01*
X5525310Y-21644531D02*
X5544357Y-21635007D01*
X5544357Y-21635007D02*
X5572929Y-21635007D01*
X5572929Y-21635007D02*
X5591976Y-21644531D01*
X5591976Y-21644531D02*
X5601500Y-21663579D01*
X5601500Y-21663579D02*
X5601500Y-21768341D01*
X5696738Y-21768341D02*
X5696738Y-21635007D01*
X5696738Y-21654055D02*
X5706262Y-21644531D01*
X5706262Y-21644531D02*
X5725309Y-21635007D01*
X5725309Y-21635007D02*
X5753881Y-21635007D01*
X5753881Y-21635007D02*
X5772929Y-21644531D01*
X5772929Y-21644531D02*
X5782452Y-21663579D01*
X5782452Y-21663579D02*
X5782452Y-21768341D01*
X5782452Y-21663579D02*
X5791976Y-21644531D01*
X5791976Y-21644531D02*
X5811024Y-21635007D01*
X5811024Y-21635007D02*
X5839595Y-21635007D01*
X5839595Y-21635007D02*
X5858643Y-21644531D01*
X5858643Y-21644531D02*
X5868167Y-21663579D01*
X5868167Y-21663579D02*
X5868167Y-21768341D01*
X6258643Y-21558817D02*
X6087214Y-21815960D01*
X6515786Y-21568341D02*
X6534833Y-21568341D01*
X6534833Y-21568341D02*
X6553881Y-21577865D01*
X6553881Y-21577865D02*
X6563405Y-21587388D01*
X6563405Y-21587388D02*
X6572929Y-21606436D01*
X6572929Y-21606436D02*
X6582452Y-21644531D01*
X6582452Y-21644531D02*
X6582452Y-21692150D01*
X6582452Y-21692150D02*
X6572929Y-21730245D01*
X6572929Y-21730245D02*
X6563405Y-21749293D01*
X6563405Y-21749293D02*
X6553881Y-21758817D01*
X6553881Y-21758817D02*
X6534833Y-21768341D01*
X6534833Y-21768341D02*
X6515786Y-21768341D01*
X6515786Y-21768341D02*
X6496738Y-21758817D01*
X6496738Y-21758817D02*
X6487214Y-21749293D01*
X6487214Y-21749293D02*
X6477691Y-21730245D01*
X6477691Y-21730245D02*
X6468167Y-21692150D01*
X6468167Y-21692150D02*
X6468167Y-21644531D01*
X6468167Y-21644531D02*
X6477691Y-21606436D01*
X6477691Y-21606436D02*
X6487214Y-21587388D01*
X6487214Y-21587388D02*
X6496738Y-21577865D01*
X6496738Y-21577865D02*
X6515786Y-21568341D01*
X6668167Y-21749293D02*
X6677691Y-21758817D01*
X6677691Y-21758817D02*
X6668167Y-21768341D01*
X6668167Y-21768341D02*
X6658643Y-21758817D01*
X6658643Y-21758817D02*
X6668167Y-21749293D01*
X6668167Y-21749293D02*
X6668167Y-21768341D01*
X6801500Y-21568341D02*
X6820548Y-21568341D01*
X6820548Y-21568341D02*
X6839595Y-21577865D01*
X6839595Y-21577865D02*
X6849119Y-21587388D01*
X6849119Y-21587388D02*
X6858643Y-21606436D01*
X6858643Y-21606436D02*
X6868167Y-21644531D01*
X6868167Y-21644531D02*
X6868167Y-21692150D01*
X6868167Y-21692150D02*
X6858643Y-21730245D01*
X6858643Y-21730245D02*
X6849119Y-21749293D01*
X6849119Y-21749293D02*
X6839595Y-21758817D01*
X6839595Y-21758817D02*
X6820548Y-21768341D01*
X6820548Y-21768341D02*
X6801500Y-21768341D01*
X6801500Y-21768341D02*
X6782452Y-21758817D01*
X6782452Y-21758817D02*
X6772929Y-21749293D01*
X6772929Y-21749293D02*
X6763405Y-21730245D01*
X6763405Y-21730245D02*
X6753881Y-21692150D01*
X6753881Y-21692150D02*
X6753881Y-21644531D01*
X6753881Y-21644531D02*
X6763405Y-21606436D01*
X6763405Y-21606436D02*
X6772929Y-21587388D01*
X6772929Y-21587388D02*
X6782452Y-21577865D01*
X6782452Y-21577865D02*
X6801500Y-21568341D01*
X7039595Y-21635007D02*
X7039595Y-21768341D01*
X6991976Y-21558817D02*
X6944357Y-21701674D01*
X6944357Y-21701674D02*
X7068167Y-21701674D01*
X7125310Y-21568341D02*
X7249119Y-21568341D01*
X7249119Y-21568341D02*
X7182452Y-21644531D01*
X7182452Y-21644531D02*
X7211024Y-21644531D01*
X7211024Y-21644531D02*
X7230072Y-21654055D01*
X7230072Y-21654055D02*
X7239595Y-21663579D01*
X7239595Y-21663579D02*
X7249119Y-21682626D01*
X7249119Y-21682626D02*
X7249119Y-21730245D01*
X7249119Y-21730245D02*
X7239595Y-21749293D01*
X7239595Y-21749293D02*
X7230072Y-21758817D01*
X7230072Y-21758817D02*
X7211024Y-21768341D01*
X7211024Y-21768341D02*
X7153881Y-21768341D01*
X7153881Y-21768341D02*
X7134833Y-21758817D01*
X7134833Y-21758817D02*
X7125310Y-21749293D01*
X7372929Y-21568341D02*
X7391976Y-21568341D01*
X7391976Y-21568341D02*
X7411024Y-21577865D01*
X7411024Y-21577865D02*
X7420548Y-21587388D01*
X7420548Y-21587388D02*
X7430072Y-21606436D01*
X7430072Y-21606436D02*
X7439595Y-21644531D01*
X7439595Y-21644531D02*
X7439595Y-21692150D01*
X7439595Y-21692150D02*
X7430072Y-21730245D01*
X7430072Y-21730245D02*
X7420548Y-21749293D01*
X7420548Y-21749293D02*
X7411024Y-21758817D01*
X7411024Y-21758817D02*
X7391976Y-21768341D01*
X7391976Y-21768341D02*
X7372929Y-21768341D01*
X7372929Y-21768341D02*
X7353881Y-21758817D01*
X7353881Y-21758817D02*
X7344357Y-21749293D01*
X7344357Y-21749293D02*
X7334833Y-21730245D01*
X7334833Y-21730245D02*
X7325310Y-21692150D01*
X7325310Y-21692150D02*
X7325310Y-21644531D01*
X7325310Y-21644531D02*
X7334833Y-21606436D01*
X7334833Y-21606436D02*
X7344357Y-21587388D01*
X7344357Y-21587388D02*
X7353881Y-21577865D01*
X7353881Y-21577865D02*
X7372929Y-21568341D01*
X7515786Y-21568341D02*
X7515786Y-21606436D01*
X7591976Y-21568341D02*
X7591976Y-21606436D01*
X7887215Y-21844531D02*
X7877691Y-21835007D01*
X7877691Y-21835007D02*
X7858643Y-21806436D01*
X7858643Y-21806436D02*
X7849119Y-21787388D01*
X7849119Y-21787388D02*
X7839595Y-21758817D01*
X7839595Y-21758817D02*
X7830072Y-21711198D01*
X7830072Y-21711198D02*
X7830072Y-21673103D01*
X7830072Y-21673103D02*
X7839595Y-21625484D01*
X7839595Y-21625484D02*
X7849119Y-21596912D01*
X7849119Y-21596912D02*
X7858643Y-21577865D01*
X7858643Y-21577865D02*
X7877691Y-21549293D01*
X7877691Y-21549293D02*
X7887215Y-21539769D01*
X7953881Y-21587388D02*
X7963405Y-21577865D01*
X7963405Y-21577865D02*
X7982453Y-21568341D01*
X7982453Y-21568341D02*
X8030072Y-21568341D01*
X8030072Y-21568341D02*
X8049119Y-21577865D01*
X8049119Y-21577865D02*
X8058643Y-21587388D01*
X8058643Y-21587388D02*
X8068167Y-21606436D01*
X8068167Y-21606436D02*
X8068167Y-21625484D01*
X8068167Y-21625484D02*
X8058643Y-21654055D01*
X8058643Y-21654055D02*
X7944357Y-21768341D01*
X7944357Y-21768341D02*
X8068167Y-21768341D01*
X8239595Y-21635007D02*
X8239595Y-21768341D01*
X8191976Y-21558817D02*
X8144357Y-21701674D01*
X8144357Y-21701674D02*
X8268167Y-21701674D01*
X8496738Y-21768341D02*
X8496738Y-21568341D01*
X8582453Y-21768341D02*
X8582453Y-21663579D01*
X8582453Y-21663579D02*
X8572929Y-21644531D01*
X8572929Y-21644531D02*
X8553881Y-21635007D01*
X8553881Y-21635007D02*
X8525310Y-21635007D01*
X8525310Y-21635007D02*
X8506262Y-21644531D01*
X8506262Y-21644531D02*
X8496738Y-21654055D01*
X8706262Y-21768341D02*
X8687215Y-21758817D01*
X8687215Y-21758817D02*
X8677691Y-21749293D01*
X8677691Y-21749293D02*
X8668167Y-21730245D01*
X8668167Y-21730245D02*
X8668167Y-21673103D01*
X8668167Y-21673103D02*
X8677691Y-21654055D01*
X8677691Y-21654055D02*
X8687215Y-21644531D01*
X8687215Y-21644531D02*
X8706262Y-21635007D01*
X8706262Y-21635007D02*
X8734834Y-21635007D01*
X8734834Y-21635007D02*
X8753881Y-21644531D01*
X8753881Y-21644531D02*
X8763405Y-21654055D01*
X8763405Y-21654055D02*
X8772929Y-21673103D01*
X8772929Y-21673103D02*
X8772929Y-21730245D01*
X8772929Y-21730245D02*
X8763405Y-21749293D01*
X8763405Y-21749293D02*
X8753881Y-21758817D01*
X8753881Y-21758817D02*
X8734834Y-21768341D01*
X8734834Y-21768341D02*
X8706262Y-21768341D01*
X8887215Y-21768341D02*
X8868167Y-21758817D01*
X8868167Y-21758817D02*
X8858643Y-21739769D01*
X8858643Y-21739769D02*
X8858643Y-21568341D01*
X9039596Y-21758817D02*
X9020548Y-21768341D01*
X9020548Y-21768341D02*
X8982453Y-21768341D01*
X8982453Y-21768341D02*
X8963405Y-21758817D01*
X8963405Y-21758817D02*
X8953881Y-21739769D01*
X8953881Y-21739769D02*
X8953881Y-21663579D01*
X8953881Y-21663579D02*
X8963405Y-21644531D01*
X8963405Y-21644531D02*
X8982453Y-21635007D01*
X8982453Y-21635007D02*
X9020548Y-21635007D01*
X9020548Y-21635007D02*
X9039596Y-21644531D01*
X9039596Y-21644531D02*
X9049119Y-21663579D01*
X9049119Y-21663579D02*
X9049119Y-21682626D01*
X9049119Y-21682626D02*
X8953881Y-21701674D01*
X9125310Y-21758817D02*
X9144358Y-21768341D01*
X9144358Y-21768341D02*
X9182453Y-21768341D01*
X9182453Y-21768341D02*
X9201500Y-21758817D01*
X9201500Y-21758817D02*
X9211024Y-21739769D01*
X9211024Y-21739769D02*
X9211024Y-21730245D01*
X9211024Y-21730245D02*
X9201500Y-21711198D01*
X9201500Y-21711198D02*
X9182453Y-21701674D01*
X9182453Y-21701674D02*
X9153881Y-21701674D01*
X9153881Y-21701674D02*
X9134834Y-21692150D01*
X9134834Y-21692150D02*
X9125310Y-21673103D01*
X9125310Y-21673103D02*
X9125310Y-21663579D01*
X9125310Y-21663579D02*
X9134834Y-21644531D01*
X9134834Y-21644531D02*
X9153881Y-21635007D01*
X9153881Y-21635007D02*
X9182453Y-21635007D01*
X9182453Y-21635007D02*
X9201500Y-21644531D01*
X9277691Y-21844531D02*
X9287215Y-21835007D01*
X9287215Y-21835007D02*
X9306262Y-21806436D01*
X9306262Y-21806436D02*
X9315786Y-21787388D01*
X9315786Y-21787388D02*
X9325310Y-21758817D01*
X9325310Y-21758817D02*
X9334834Y-21711198D01*
X9334834Y-21711198D02*
X9334834Y-21673103D01*
X9334834Y-21673103D02*
X9325310Y-21625484D01*
X9325310Y-21625484D02*
X9315786Y-21596912D01*
X9315786Y-21596912D02*
X9306262Y-21577865D01*
X9306262Y-21577865D02*
X9287215Y-21549293D01*
X9287215Y-21549293D02*
X9277691Y-21539769D01*
X4112152Y-21840857D02*
X4312152Y-22040857D01*
X4312152Y-21840857D02*
X4112152Y-22040857D01*
X4312152Y-21940857D02*
G75*
G02*
X4112152Y-21940857I-100000J0D01*
G01*
X4112152Y-21940857D02*
G75*
G02*
X4312152Y-21940857I100000J0D01*
G01*
X4563405Y-21851388D02*
X4572929Y-21841865D01*
X4572929Y-21841865D02*
X4591976Y-21832341D01*
X4591976Y-21832341D02*
X4639595Y-21832341D01*
X4639595Y-21832341D02*
X4658643Y-21841865D01*
X4658643Y-21841865D02*
X4668167Y-21851388D01*
X4668167Y-21851388D02*
X4677690Y-21870436D01*
X4677690Y-21870436D02*
X4677690Y-21889484D01*
X4677690Y-21889484D02*
X4668167Y-21918055D01*
X4668167Y-21918055D02*
X4553881Y-22032341D01*
X4553881Y-22032341D02*
X4677690Y-22032341D01*
X4763405Y-22013293D02*
X4772929Y-22022817D01*
X4772929Y-22022817D02*
X4763405Y-22032341D01*
X4763405Y-22032341D02*
X4753881Y-22022817D01*
X4753881Y-22022817D02*
X4763405Y-22013293D01*
X4763405Y-22013293D02*
X4763405Y-22032341D01*
X4849119Y-21851388D02*
X4858643Y-21841865D01*
X4858643Y-21841865D02*
X4877690Y-21832341D01*
X4877690Y-21832341D02*
X4925310Y-21832341D01*
X4925310Y-21832341D02*
X4944357Y-21841865D01*
X4944357Y-21841865D02*
X4953881Y-21851388D01*
X4953881Y-21851388D02*
X4963405Y-21870436D01*
X4963405Y-21870436D02*
X4963405Y-21889484D01*
X4963405Y-21889484D02*
X4953881Y-21918055D01*
X4953881Y-21918055D02*
X4839595Y-22032341D01*
X4839595Y-22032341D02*
X4963405Y-22032341D01*
X5087214Y-21832341D02*
X5106262Y-21832341D01*
X5106262Y-21832341D02*
X5125310Y-21841865D01*
X5125310Y-21841865D02*
X5134833Y-21851388D01*
X5134833Y-21851388D02*
X5144357Y-21870436D01*
X5144357Y-21870436D02*
X5153881Y-21908531D01*
X5153881Y-21908531D02*
X5153881Y-21956150D01*
X5153881Y-21956150D02*
X5144357Y-21994245D01*
X5144357Y-21994245D02*
X5134833Y-22013293D01*
X5134833Y-22013293D02*
X5125310Y-22022817D01*
X5125310Y-22022817D02*
X5106262Y-22032341D01*
X5106262Y-22032341D02*
X5087214Y-22032341D01*
X5087214Y-22032341D02*
X5068167Y-22022817D01*
X5068167Y-22022817D02*
X5058643Y-22013293D01*
X5058643Y-22013293D02*
X5049119Y-21994245D01*
X5049119Y-21994245D02*
X5039595Y-21956150D01*
X5039595Y-21956150D02*
X5039595Y-21908531D01*
X5039595Y-21908531D02*
X5049119Y-21870436D01*
X5049119Y-21870436D02*
X5058643Y-21851388D01*
X5058643Y-21851388D02*
X5068167Y-21841865D01*
X5068167Y-21841865D02*
X5087214Y-21832341D01*
X5277690Y-21832341D02*
X5296738Y-21832341D01*
X5296738Y-21832341D02*
X5315786Y-21841865D01*
X5315786Y-21841865D02*
X5325310Y-21851388D01*
X5325310Y-21851388D02*
X5334833Y-21870436D01*
X5334833Y-21870436D02*
X5344357Y-21908531D01*
X5344357Y-21908531D02*
X5344357Y-21956150D01*
X5344357Y-21956150D02*
X5334833Y-21994245D01*
X5334833Y-21994245D02*
X5325310Y-22013293D01*
X5325310Y-22013293D02*
X5315786Y-22022817D01*
X5315786Y-22022817D02*
X5296738Y-22032341D01*
X5296738Y-22032341D02*
X5277690Y-22032341D01*
X5277690Y-22032341D02*
X5258643Y-22022817D01*
X5258643Y-22022817D02*
X5249119Y-22013293D01*
X5249119Y-22013293D02*
X5239595Y-21994245D01*
X5239595Y-21994245D02*
X5230071Y-21956150D01*
X5230071Y-21956150D02*
X5230071Y-21908531D01*
X5230071Y-21908531D02*
X5239595Y-21870436D01*
X5239595Y-21870436D02*
X5249119Y-21851388D01*
X5249119Y-21851388D02*
X5258643Y-21841865D01*
X5258643Y-21841865D02*
X5277690Y-21832341D01*
X5430071Y-22032341D02*
X5430071Y-21899007D01*
X5430071Y-21918055D02*
X5439595Y-21908531D01*
X5439595Y-21908531D02*
X5458643Y-21899007D01*
X5458643Y-21899007D02*
X5487214Y-21899007D01*
X5487214Y-21899007D02*
X5506262Y-21908531D01*
X5506262Y-21908531D02*
X5515786Y-21927579D01*
X5515786Y-21927579D02*
X5515786Y-22032341D01*
X5515786Y-21927579D02*
X5525310Y-21908531D01*
X5525310Y-21908531D02*
X5544357Y-21899007D01*
X5544357Y-21899007D02*
X5572929Y-21899007D01*
X5572929Y-21899007D02*
X5591976Y-21908531D01*
X5591976Y-21908531D02*
X5601500Y-21927579D01*
X5601500Y-21927579D02*
X5601500Y-22032341D01*
X5696738Y-22032341D02*
X5696738Y-21899007D01*
X5696738Y-21918055D02*
X5706262Y-21908531D01*
X5706262Y-21908531D02*
X5725309Y-21899007D01*
X5725309Y-21899007D02*
X5753881Y-21899007D01*
X5753881Y-21899007D02*
X5772929Y-21908531D01*
X5772929Y-21908531D02*
X5782452Y-21927579D01*
X5782452Y-21927579D02*
X5782452Y-22032341D01*
X5782452Y-21927579D02*
X5791976Y-21908531D01*
X5791976Y-21908531D02*
X5811024Y-21899007D01*
X5811024Y-21899007D02*
X5839595Y-21899007D01*
X5839595Y-21899007D02*
X5858643Y-21908531D01*
X5858643Y-21908531D02*
X5868167Y-21927579D01*
X5868167Y-21927579D02*
X5868167Y-22032341D01*
X6258643Y-21822817D02*
X6087214Y-22079960D01*
X6515786Y-21832341D02*
X6534833Y-21832341D01*
X6534833Y-21832341D02*
X6553881Y-21841865D01*
X6553881Y-21841865D02*
X6563405Y-21851388D01*
X6563405Y-21851388D02*
X6572929Y-21870436D01*
X6572929Y-21870436D02*
X6582452Y-21908531D01*
X6582452Y-21908531D02*
X6582452Y-21956150D01*
X6582452Y-21956150D02*
X6572929Y-21994245D01*
X6572929Y-21994245D02*
X6563405Y-22013293D01*
X6563405Y-22013293D02*
X6553881Y-22022817D01*
X6553881Y-22022817D02*
X6534833Y-22032341D01*
X6534833Y-22032341D02*
X6515786Y-22032341D01*
X6515786Y-22032341D02*
X6496738Y-22022817D01*
X6496738Y-22022817D02*
X6487214Y-22013293D01*
X6487214Y-22013293D02*
X6477691Y-21994245D01*
X6477691Y-21994245D02*
X6468167Y-21956150D01*
X6468167Y-21956150D02*
X6468167Y-21908531D01*
X6468167Y-21908531D02*
X6477691Y-21870436D01*
X6477691Y-21870436D02*
X6487214Y-21851388D01*
X6487214Y-21851388D02*
X6496738Y-21841865D01*
X6496738Y-21841865D02*
X6515786Y-21832341D01*
X6668167Y-22013293D02*
X6677691Y-22022817D01*
X6677691Y-22022817D02*
X6668167Y-22032341D01*
X6668167Y-22032341D02*
X6658643Y-22022817D01*
X6658643Y-22022817D02*
X6668167Y-22013293D01*
X6668167Y-22013293D02*
X6668167Y-22032341D01*
X6801500Y-21832341D02*
X6820548Y-21832341D01*
X6820548Y-21832341D02*
X6839595Y-21841865D01*
X6839595Y-21841865D02*
X6849119Y-21851388D01*
X6849119Y-21851388D02*
X6858643Y-21870436D01*
X6858643Y-21870436D02*
X6868167Y-21908531D01*
X6868167Y-21908531D02*
X6868167Y-21956150D01*
X6868167Y-21956150D02*
X6858643Y-21994245D01*
X6858643Y-21994245D02*
X6849119Y-22013293D01*
X6849119Y-22013293D02*
X6839595Y-22022817D01*
X6839595Y-22022817D02*
X6820548Y-22032341D01*
X6820548Y-22032341D02*
X6801500Y-22032341D01*
X6801500Y-22032341D02*
X6782452Y-22022817D01*
X6782452Y-22022817D02*
X6772929Y-22013293D01*
X6772929Y-22013293D02*
X6763405Y-21994245D01*
X6763405Y-21994245D02*
X6753881Y-21956150D01*
X6753881Y-21956150D02*
X6753881Y-21908531D01*
X6753881Y-21908531D02*
X6763405Y-21870436D01*
X6763405Y-21870436D02*
X6772929Y-21851388D01*
X6772929Y-21851388D02*
X6782452Y-21841865D01*
X6782452Y-21841865D02*
X6801500Y-21832341D01*
X6982452Y-21918055D02*
X6963405Y-21908531D01*
X6963405Y-21908531D02*
X6953881Y-21899007D01*
X6953881Y-21899007D02*
X6944357Y-21879960D01*
X6944357Y-21879960D02*
X6944357Y-21870436D01*
X6944357Y-21870436D02*
X6953881Y-21851388D01*
X6953881Y-21851388D02*
X6963405Y-21841865D01*
X6963405Y-21841865D02*
X6982452Y-21832341D01*
X6982452Y-21832341D02*
X7020548Y-21832341D01*
X7020548Y-21832341D02*
X7039595Y-21841865D01*
X7039595Y-21841865D02*
X7049119Y-21851388D01*
X7049119Y-21851388D02*
X7058643Y-21870436D01*
X7058643Y-21870436D02*
X7058643Y-21879960D01*
X7058643Y-21879960D02*
X7049119Y-21899007D01*
X7049119Y-21899007D02*
X7039595Y-21908531D01*
X7039595Y-21908531D02*
X7020548Y-21918055D01*
X7020548Y-21918055D02*
X6982452Y-21918055D01*
X6982452Y-21918055D02*
X6963405Y-21927579D01*
X6963405Y-21927579D02*
X6953881Y-21937103D01*
X6953881Y-21937103D02*
X6944357Y-21956150D01*
X6944357Y-21956150D02*
X6944357Y-21994245D01*
X6944357Y-21994245D02*
X6953881Y-22013293D01*
X6953881Y-22013293D02*
X6963405Y-22022817D01*
X6963405Y-22022817D02*
X6982452Y-22032341D01*
X6982452Y-22032341D02*
X7020548Y-22032341D01*
X7020548Y-22032341D02*
X7039595Y-22022817D01*
X7039595Y-22022817D02*
X7049119Y-22013293D01*
X7049119Y-22013293D02*
X7058643Y-21994245D01*
X7058643Y-21994245D02*
X7058643Y-21956150D01*
X7058643Y-21956150D02*
X7049119Y-21937103D01*
X7049119Y-21937103D02*
X7039595Y-21927579D01*
X7039595Y-21927579D02*
X7020548Y-21918055D01*
X7230072Y-21832341D02*
X7191976Y-21832341D01*
X7191976Y-21832341D02*
X7172929Y-21841865D01*
X7172929Y-21841865D02*
X7163405Y-21851388D01*
X7163405Y-21851388D02*
X7144357Y-21879960D01*
X7144357Y-21879960D02*
X7134833Y-21918055D01*
X7134833Y-21918055D02*
X7134833Y-21994245D01*
X7134833Y-21994245D02*
X7144357Y-22013293D01*
X7144357Y-22013293D02*
X7153881Y-22022817D01*
X7153881Y-22022817D02*
X7172929Y-22032341D01*
X7172929Y-22032341D02*
X7211024Y-22032341D01*
X7211024Y-22032341D02*
X7230072Y-22022817D01*
X7230072Y-22022817D02*
X7239595Y-22013293D01*
X7239595Y-22013293D02*
X7249119Y-21994245D01*
X7249119Y-21994245D02*
X7249119Y-21946626D01*
X7249119Y-21946626D02*
X7239595Y-21927579D01*
X7239595Y-21927579D02*
X7230072Y-21918055D01*
X7230072Y-21918055D02*
X7211024Y-21908531D01*
X7211024Y-21908531D02*
X7172929Y-21908531D01*
X7172929Y-21908531D02*
X7153881Y-21918055D01*
X7153881Y-21918055D02*
X7144357Y-21927579D01*
X7144357Y-21927579D02*
X7134833Y-21946626D01*
X7420548Y-21832341D02*
X7382452Y-21832341D01*
X7382452Y-21832341D02*
X7363405Y-21841865D01*
X7363405Y-21841865D02*
X7353881Y-21851388D01*
X7353881Y-21851388D02*
X7334833Y-21879960D01*
X7334833Y-21879960D02*
X7325310Y-21918055D01*
X7325310Y-21918055D02*
X7325310Y-21994245D01*
X7325310Y-21994245D02*
X7334833Y-22013293D01*
X7334833Y-22013293D02*
X7344357Y-22022817D01*
X7344357Y-22022817D02*
X7363405Y-22032341D01*
X7363405Y-22032341D02*
X7401500Y-22032341D01*
X7401500Y-22032341D02*
X7420548Y-22022817D01*
X7420548Y-22022817D02*
X7430072Y-22013293D01*
X7430072Y-22013293D02*
X7439595Y-21994245D01*
X7439595Y-21994245D02*
X7439595Y-21946626D01*
X7439595Y-21946626D02*
X7430072Y-21927579D01*
X7430072Y-21927579D02*
X7420548Y-21918055D01*
X7420548Y-21918055D02*
X7401500Y-21908531D01*
X7401500Y-21908531D02*
X7363405Y-21908531D01*
X7363405Y-21908531D02*
X7344357Y-21918055D01*
X7344357Y-21918055D02*
X7334833Y-21927579D01*
X7334833Y-21927579D02*
X7325310Y-21946626D01*
X7515786Y-21832341D02*
X7515786Y-21870436D01*
X7591976Y-21832341D02*
X7591976Y-21870436D01*
X7887215Y-22108531D02*
X7877691Y-22099007D01*
X7877691Y-22099007D02*
X7858643Y-22070436D01*
X7858643Y-22070436D02*
X7849119Y-22051388D01*
X7849119Y-22051388D02*
X7839595Y-22022817D01*
X7839595Y-22022817D02*
X7830072Y-21975198D01*
X7830072Y-21975198D02*
X7830072Y-21937103D01*
X7830072Y-21937103D02*
X7839595Y-21889484D01*
X7839595Y-21889484D02*
X7849119Y-21860912D01*
X7849119Y-21860912D02*
X7858643Y-21841865D01*
X7858643Y-21841865D02*
X7877691Y-21813293D01*
X7877691Y-21813293D02*
X7887215Y-21803769D01*
X7991976Y-21918055D02*
X7972929Y-21908531D01*
X7972929Y-21908531D02*
X7963405Y-21899007D01*
X7963405Y-21899007D02*
X7953881Y-21879960D01*
X7953881Y-21879960D02*
X7953881Y-21870436D01*
X7953881Y-21870436D02*
X7963405Y-21851388D01*
X7963405Y-21851388D02*
X7972929Y-21841865D01*
X7972929Y-21841865D02*
X7991976Y-21832341D01*
X7991976Y-21832341D02*
X8030072Y-21832341D01*
X8030072Y-21832341D02*
X8049119Y-21841865D01*
X8049119Y-21841865D02*
X8058643Y-21851388D01*
X8058643Y-21851388D02*
X8068167Y-21870436D01*
X8068167Y-21870436D02*
X8068167Y-21879960D01*
X8068167Y-21879960D02*
X8058643Y-21899007D01*
X8058643Y-21899007D02*
X8049119Y-21908531D01*
X8049119Y-21908531D02*
X8030072Y-21918055D01*
X8030072Y-21918055D02*
X7991976Y-21918055D01*
X7991976Y-21918055D02*
X7972929Y-21927579D01*
X7972929Y-21927579D02*
X7963405Y-21937103D01*
X7963405Y-21937103D02*
X7953881Y-21956150D01*
X7953881Y-21956150D02*
X7953881Y-21994245D01*
X7953881Y-21994245D02*
X7963405Y-22013293D01*
X7963405Y-22013293D02*
X7972929Y-22022817D01*
X7972929Y-22022817D02*
X7991976Y-22032341D01*
X7991976Y-22032341D02*
X8030072Y-22032341D01*
X8030072Y-22032341D02*
X8049119Y-22022817D01*
X8049119Y-22022817D02*
X8058643Y-22013293D01*
X8058643Y-22013293D02*
X8068167Y-21994245D01*
X8068167Y-21994245D02*
X8068167Y-21956150D01*
X8068167Y-21956150D02*
X8058643Y-21937103D01*
X8058643Y-21937103D02*
X8049119Y-21927579D01*
X8049119Y-21927579D02*
X8030072Y-21918055D01*
X8306262Y-22032341D02*
X8306262Y-21832341D01*
X8391977Y-22032341D02*
X8391977Y-21927579D01*
X8391977Y-21927579D02*
X8382453Y-21908531D01*
X8382453Y-21908531D02*
X8363405Y-21899007D01*
X8363405Y-21899007D02*
X8334834Y-21899007D01*
X8334834Y-21899007D02*
X8315786Y-21908531D01*
X8315786Y-21908531D02*
X8306262Y-21918055D01*
X8515786Y-22032341D02*
X8496738Y-22022817D01*
X8496738Y-22022817D02*
X8487215Y-22013293D01*
X8487215Y-22013293D02*
X8477691Y-21994245D01*
X8477691Y-21994245D02*
X8477691Y-21937103D01*
X8477691Y-21937103D02*
X8487215Y-21918055D01*
X8487215Y-21918055D02*
X8496738Y-21908531D01*
X8496738Y-21908531D02*
X8515786Y-21899007D01*
X8515786Y-21899007D02*
X8544358Y-21899007D01*
X8544358Y-21899007D02*
X8563405Y-21908531D01*
X8563405Y-21908531D02*
X8572929Y-21918055D01*
X8572929Y-21918055D02*
X8582453Y-21937103D01*
X8582453Y-21937103D02*
X8582453Y-21994245D01*
X8582453Y-21994245D02*
X8572929Y-22013293D01*
X8572929Y-22013293D02*
X8563405Y-22022817D01*
X8563405Y-22022817D02*
X8544358Y-22032341D01*
X8544358Y-22032341D02*
X8515786Y-22032341D01*
X8696738Y-22032341D02*
X8677691Y-22022817D01*
X8677691Y-22022817D02*
X8668167Y-22003769D01*
X8668167Y-22003769D02*
X8668167Y-21832341D01*
X8849119Y-22022817D02*
X8830072Y-22032341D01*
X8830072Y-22032341D02*
X8791977Y-22032341D01*
X8791977Y-22032341D02*
X8772929Y-22022817D01*
X8772929Y-22022817D02*
X8763405Y-22003769D01*
X8763405Y-22003769D02*
X8763405Y-21927579D01*
X8763405Y-21927579D02*
X8772929Y-21908531D01*
X8772929Y-21908531D02*
X8791977Y-21899007D01*
X8791977Y-21899007D02*
X8830072Y-21899007D01*
X8830072Y-21899007D02*
X8849119Y-21908531D01*
X8849119Y-21908531D02*
X8858643Y-21927579D01*
X8858643Y-21927579D02*
X8858643Y-21946626D01*
X8858643Y-21946626D02*
X8763405Y-21965674D01*
X8934834Y-22022817D02*
X8953881Y-22032341D01*
X8953881Y-22032341D02*
X8991977Y-22032341D01*
X8991977Y-22032341D02*
X9011024Y-22022817D01*
X9011024Y-22022817D02*
X9020548Y-22003769D01*
X9020548Y-22003769D02*
X9020548Y-21994245D01*
X9020548Y-21994245D02*
X9011024Y-21975198D01*
X9011024Y-21975198D02*
X8991977Y-21965674D01*
X8991977Y-21965674D02*
X8963405Y-21965674D01*
X8963405Y-21965674D02*
X8944358Y-21956150D01*
X8944358Y-21956150D02*
X8934834Y-21937103D01*
X8934834Y-21937103D02*
X8934834Y-21927579D01*
X8934834Y-21927579D02*
X8944358Y-21908531D01*
X8944358Y-21908531D02*
X8963405Y-21899007D01*
X8963405Y-21899007D02*
X8991977Y-21899007D01*
X8991977Y-21899007D02*
X9011024Y-21908531D01*
X9087215Y-22108531D02*
X9096739Y-22099007D01*
X9096739Y-22099007D02*
X9115786Y-22070436D01*
X9115786Y-22070436D02*
X9125310Y-22051388D01*
X9125310Y-22051388D02*
X9134834Y-22022817D01*
X9134834Y-22022817D02*
X9144358Y-21975198D01*
X9144358Y-21975198D02*
X9144358Y-21937103D01*
X9144358Y-21937103D02*
X9134834Y-21889484D01*
X9134834Y-21889484D02*
X9125310Y-21860912D01*
X9125310Y-21860912D02*
X9115786Y-21841865D01*
X9115786Y-21841865D02*
X9096739Y-21813293D01*
X9096739Y-21813293D02*
X9087215Y-21803769D01*
M02*
