%TF.GenerationSoftware,KiCad,Pcbnew,8.0.1*%
%TF.CreationDate,2024-04-02T20:58:10+09:00*%
%TF.ProjectId,lazyboy36,6c617a79-626f-4793-9336-2e6b69636164,rev?*%
%TF.SameCoordinates,Original*%
%TF.FileFunction,Soldermask,Bot*%
%TF.FilePolarity,Negative*%
%FSLAX46Y46*%
G04 Gerber Fmt 4.6, Leading zero omitted, Abs format (unit mm)*
G04 Created by KiCad (PCBNEW 8.0.1) date 2024-04-02 20:58:10*
%MOMM*%
%LPD*%
G01*
G04 APERTURE LIST*
G04 Aperture macros list*
%AMRoundRect*
0 Rectangle with rounded corners*
0 $1 Rounding radius*
0 $2 $3 $4 $5 $6 $7 $8 $9 X,Y pos of 4 corners*
0 Add a 4 corners polygon primitive as box body*
4,1,4,$2,$3,$4,$5,$6,$7,$8,$9,$2,$3,0*
0 Add four circle primitives for the rounded corners*
1,1,$1+$1,$2,$3*
1,1,$1+$1,$4,$5*
1,1,$1+$1,$6,$7*
1,1,$1+$1,$8,$9*
0 Add four rect primitives between the rounded corners*
20,1,$1+$1,$2,$3,$4,$5,0*
20,1,$1+$1,$4,$5,$6,$7,0*
20,1,$1+$1,$6,$7,$8,$9,0*
20,1,$1+$1,$8,$9,$2,$3,0*%
%AMRotRect*
0 Rectangle, with rotation*
0 The origin of the aperture is its center*
0 $1 length*
0 $2 width*
0 $3 Rotation angle, in degrees counterclockwise*
0 Add horizontal line*
21,1,$1,$2,0,0,$3*%
G04 Aperture macros list end*
%ADD10C,5.250000*%
%ADD11RoundRect,0.500000X-0.925029X-0.554478X0.523860X-0.942707X0.925029X0.554478X-0.523860X0.942707X0*%
%ADD12C,4.000000*%
%ADD13RoundRect,0.500000X-0.523860X-0.942707X0.925029X-0.554478X0.523860X0.942707X-0.925029X0.554478X0*%
%ADD14C,1.524000*%
%ADD15RoundRect,0.500000X-0.352202X-1.019352X1.007260X-0.385425X0.352202X1.019352X-1.007260X0.385425X0*%
%ADD16RoundRect,0.500000X-0.873183X-0.632990X0.604028X-0.893462X0.873183X0.632990X-0.604028X0.893462X0*%
%ADD17RoundRect,0.500000X-1.007260X-0.385425X0.352202X-1.019352X1.007260X0.385425X-0.352202X1.019352X0*%
%ADD18RoundRect,0.500000X-0.076373X-1.075775X1.072694X-0.111594X0.076373X1.075775X-1.072694X0.111594X0*%
%ADD19RoundRect,0.500000X-1.072694X-0.111594X0.076373X-1.075775X1.072694X0.111594X-0.076373X1.075775X0*%
%ADD20RoundRect,0.500000X-0.604028X-0.893462X0.873183X-0.632990X0.604028X0.893462X-0.873183X0.632990X0*%
%ADD21RotRect,1.524000X1.524000X195.000000*%
%ADD22RotRect,1.524000X1.524000X170.000000*%
%ADD23RotRect,1.524000X1.524000X220.000000*%
%ADD24RotRect,1.524000X1.524000X165.000000*%
%ADD25RotRect,1.524000X1.524000X205.000000*%
%ADD26RotRect,1.524000X1.524000X140.000000*%
%ADD27RotRect,1.524000X1.524000X155.000000*%
%ADD28RotRect,1.524000X1.524000X190.000000*%
G04 APERTURE END LIST*
D10*
%TO.C,SW21*%
X23276873Y-103887713D03*
D11*
X14260572Y-106337602D03*
D12*
X17810350Y-107288761D03*
X24300071Y-110114716D03*
D11*
X27849848Y-111065876D03*
%TD*%
D10*
%TO.C,SW4*%
X91446368Y-70286338D03*
D11*
X82430067Y-72736227D03*
D12*
X85979845Y-73687386D03*
X92469566Y-76513341D03*
D11*
X96019343Y-77464501D03*
%TD*%
D10*
%TO.C,SW24*%
X81585361Y-107088112D03*
D11*
X72569060Y-109538001D03*
D12*
X76118838Y-110489160D03*
X82608559Y-113315115D03*
D11*
X86158336Y-114266275D03*
%TD*%
D13*
%TO.C,SW29*%
X259755783Y-101157224D03*
D12*
X256206006Y-102108384D03*
X249172765Y-102905895D03*
D13*
X245622987Y-103857055D03*
D10*
X252206389Y-97227240D03*
%TD*%
%TO.C,SW25*%
X99468610Y-113950466D03*
D11*
X90452309Y-116400355D03*
D12*
X94002087Y-117351514D03*
X100491808Y-120177469D03*
D11*
X104041585Y-121128629D03*
%TD*%
D13*
%TO.C,SW26*%
X205070760Y-117880584D03*
D12*
X201520983Y-118831744D03*
X194487742Y-119629255D03*
D13*
X190937964Y-120580415D03*
D10*
X197521366Y-113950600D03*
%TD*%
D14*
%TO.C,U1*%
X156176400Y-72597000D03*
X156176400Y-75137000D03*
X156176400Y-77677000D03*
X156176400Y-80217000D03*
X156176400Y-82757000D03*
X156176400Y-85297000D03*
X156176400Y-87837000D03*
X156176400Y-90377000D03*
X156176400Y-92917000D03*
X156176400Y-95457000D03*
X156176400Y-97997000D03*
X156176400Y-100537000D03*
X156176400Y-103077000D03*
X153636400Y-103077000D03*
X151096400Y-103077000D03*
X148556400Y-103077000D03*
X146016400Y-103077000D03*
X143476400Y-103077000D03*
X140936400Y-103077000D03*
X140936400Y-100537000D03*
X140936400Y-97997000D03*
X140936400Y-95457000D03*
X140936400Y-92917000D03*
X140936400Y-90377000D03*
X140936400Y-87837000D03*
X140936400Y-85297000D03*
X140936400Y-82757000D03*
X140936400Y-80217000D03*
X140936400Y-77677000D03*
X140936400Y-75137000D03*
X140936400Y-72597000D03*
X153635000Y-100537000D03*
%TD*%
D13*
%TO.C,SW16*%
X200140257Y-99479697D03*
D12*
X196590480Y-100430857D03*
X189557239Y-101228368D03*
D13*
X186007461Y-102179528D03*
D10*
X192590863Y-95549713D03*
%TD*%
%TO.C,SW14*%
X86515865Y-88687225D03*
D11*
X77499564Y-91137114D03*
D12*
X81049342Y-92088273D03*
X87539063Y-94914228D03*
D11*
X91088840Y-95865388D03*
%TD*%
D13*
%TO.C,SW9*%
X249894777Y-64355450D03*
D12*
X246345000Y-65306610D03*
X239311759Y-66104121D03*
D13*
X235761981Y-67055281D03*
D10*
X242345383Y-60425466D03*
%TD*%
%TO.C,SW12*%
X49714090Y-78826219D03*
D11*
X40697789Y-81276108D03*
D12*
X44247567Y-82227267D03*
X50737288Y-85053222D03*
D11*
X54287065Y-86004382D03*
%TD*%
D10*
%TO.C,SW1*%
X33137877Y-67085939D03*
D11*
X24121576Y-69535828D03*
D12*
X27671354Y-70486987D03*
X34161075Y-73312942D03*
D11*
X37710852Y-74264102D03*
%TD*%
D13*
%TO.C,SW6*%
X195209754Y-81078810D03*
D12*
X191659977Y-82029970D03*
X184626736Y-82827481D03*
D13*
X181076958Y-83778641D03*
D10*
X187660360Y-77148826D03*
%TD*%
D13*
%TO.C,SW10*%
X271401494Y-71016056D03*
D12*
X267851717Y-71967216D03*
X260818476Y-72764727D03*
D13*
X257268698Y-73715887D03*
D10*
X263852100Y-67086072D03*
%TD*%
D13*
%TO.C,SW17*%
X218023506Y-92617342D03*
D12*
X214473729Y-93568502D03*
X207440488Y-94366013D03*
D13*
X203890710Y-95317173D03*
D10*
X210474112Y-88687358D03*
%TD*%
D15*
%TO.C,SW35*%
X208382489Y-138337570D03*
D12*
X205051808Y-139890692D03*
X198263905Y-141897397D03*
D15*
X194933223Y-143450519D03*
D10*
X200265353Y-135778230D03*
%TD*%
D13*
%TO.C,SW28*%
X240060802Y-101258097D03*
D12*
X236511025Y-102209257D03*
X229477784Y-103006768D03*
D13*
X225928006Y-103957928D03*
D10*
X232511408Y-97328113D03*
%TD*%
%TO.C,SW3*%
X74339576Y-60526206D03*
D11*
X65323275Y-62976095D03*
D12*
X68873053Y-63927254D03*
X75362774Y-66753209D03*
D11*
X78912551Y-67704369D03*
%TD*%
D10*
%TO.C,SW31*%
X75603400Y-129349116D03*
D16*
X66834931Y-132575503D03*
D12*
X70454097Y-133213660D03*
X77165423Y-135463246D03*
D16*
X80784592Y-136101403D03*
%TD*%
D10*
%TO.C,SW32*%
X96724623Y-135778098D03*
D17*
X87419882Y-136625102D03*
D12*
X90750563Y-138178224D03*
X96650968Y-142088175D03*
D17*
X99981649Y-143641297D03*
%TD*%
D10*
%TO.C,SW23*%
X64478569Y-97327980D03*
D11*
X55462268Y-99777869D03*
D12*
X59012046Y-100729028D03*
X65501767Y-103554983D03*
D11*
X69051544Y-104506143D03*
%TD*%
D10*
%TO.C,SW22*%
X44783587Y-97227106D03*
D11*
X35767286Y-99676995D03*
D12*
X39317064Y-100628154D03*
X45806785Y-103454109D03*
D11*
X49356562Y-104405269D03*
%TD*%
D18*
%TO.C,SW34*%
X190205474Y-148385764D03*
D12*
X187390260Y-150748009D03*
X181353022Y-154443175D03*
D18*
X178537809Y-156805420D03*
D10*
X181702516Y-148014501D03*
%TD*%
D13*
%TO.C,SW19*%
X254825280Y-82756337D03*
D12*
X251275503Y-83707497D03*
X244242262Y-84505008D03*
D13*
X240692484Y-85456168D03*
D10*
X247275886Y-78826353D03*
%TD*%
D13*
%TO.C,SW7*%
X213093003Y-74216455D03*
D12*
X209543226Y-75167615D03*
X202509985Y-75965126D03*
D13*
X198960207Y-76916286D03*
D10*
X205543609Y-70286471D03*
%TD*%
%TO.C,SW13*%
X69409072Y-78927093D03*
D11*
X60392771Y-81376982D03*
D12*
X63942549Y-82328141D03*
X70432270Y-85154096D03*
D11*
X73982047Y-86105256D03*
%TD*%
D10*
%TO.C,SW2*%
X54644594Y-60425332D03*
D11*
X45628293Y-62875221D03*
D12*
X49178071Y-63826380D03*
X55667792Y-66652335D03*
D11*
X59217569Y-67603495D03*
%TD*%
D10*
%TO.C,SW33*%
X115287460Y-148014369D03*
D19*
X106080549Y-146424268D03*
D12*
X108895763Y-148786512D03*
X113583147Y-154090372D03*
D19*
X116398360Y-156452617D03*
%TD*%
D13*
%TO.C,SW18*%
X235130298Y-82857210D03*
D12*
X231580521Y-83808370D03*
X224547280Y-84605881D03*
D13*
X220997502Y-85557041D03*
D10*
X227580904Y-78927226D03*
%TD*%
%TO.C,SW15*%
X104399114Y-95549579D03*
D11*
X95382813Y-97999468D03*
D12*
X98932591Y-98950627D03*
X105422312Y-101776582D03*
D11*
X108972089Y-102727742D03*
%TD*%
D10*
%TO.C,SW11*%
X28207375Y-85486826D03*
D11*
X19191074Y-87936715D03*
D12*
X22740852Y-88887874D03*
X29230573Y-91713829D03*
D11*
X32780350Y-92664989D03*
%TD*%
D13*
%TO.C,SW27*%
X222954009Y-111018229D03*
D12*
X219404232Y-111969389D03*
X212370991Y-112766900D03*
D13*
X208821213Y-113718060D03*
D10*
X215404615Y-107088245D03*
%TD*%
D13*
%TO.C,SW20*%
X276331997Y-89416943D03*
D12*
X272782220Y-90368103D03*
X265748979Y-91165614D03*
D13*
X262199201Y-92116774D03*
D10*
X268782603Y-85486959D03*
%TD*%
D13*
%TO.C,SW30*%
X281262498Y-107817831D03*
D12*
X277712721Y-108768991D03*
X270679480Y-109566502D03*
D13*
X267129702Y-110517662D03*
D10*
X273713104Y-103887847D03*
%TD*%
D13*
%TO.C,SW8*%
X230199795Y-64456323D03*
D12*
X226650018Y-65407483D03*
X219616777Y-66204994D03*
D13*
X216066999Y-67156154D03*
D10*
X222650401Y-60526339D03*
%TD*%
%TO.C,SW5*%
X109329617Y-77148692D03*
D11*
X100313316Y-79598581D03*
D12*
X103863094Y-80549740D03*
X110352815Y-83375695D03*
D11*
X113902592Y-84326855D03*
%TD*%
D20*
%TO.C,SW36*%
X228564723Y-133922250D03*
D12*
X224945554Y-134560407D03*
X217869569Y-134741896D03*
D20*
X214250401Y-135380053D03*
D10*
X221386577Y-129349248D03*
%TD*%
D21*
%TO.C,D26*%
X197869346Y-108680978D03*
X194585198Y-109560962D03*
%TD*%
%TO.C,D17*%
X210822091Y-83417737D03*
X207537943Y-84297721D03*
%TD*%
D22*
%TO.C,D31*%
X74797469Y-124129875D03*
X78145815Y-124720279D03*
%TD*%
D23*
%TO.C,D34*%
X179791854Y-143091540D03*
X177187302Y-145277018D03*
%TD*%
D21*
%TO.C,D7*%
X205891588Y-65016850D03*
X202607440Y-65896834D03*
%TD*%
%TO.C,D30*%
X274061083Y-98618226D03*
X270776935Y-99498210D03*
%TD*%
%TO.C,D20*%
X269130580Y-80217339D03*
X265846432Y-81097323D03*
%TD*%
D24*
%TO.C,D24*%
X81237382Y-101818491D03*
X84521530Y-102698475D03*
%TD*%
D21*
%TO.C,D18*%
X227928884Y-73657605D03*
X224644736Y-74537589D03*
%TD*%
%TO.C,D9*%
X242693362Y-55155845D03*
X239409214Y-56035829D03*
%TD*%
D25*
%TO.C,D35*%
X199692984Y-130528240D03*
X196611538Y-131965142D03*
%TD*%
D24*
%TO.C,D12*%
X49366111Y-73556598D03*
X52650259Y-74436582D03*
%TD*%
D21*
%TO.C,D27*%
X215752594Y-101818624D03*
X212468446Y-102698608D03*
%TD*%
D24*
%TO.C,D5*%
X108981638Y-71879071D03*
X112265786Y-72759055D03*
%TD*%
D21*
%TO.C,D28*%
X232859385Y-92058492D03*
X229575237Y-92938476D03*
%TD*%
D24*
%TO.C,D4*%
X91098389Y-65016717D03*
X94382537Y-65896701D03*
%TD*%
%TO.C,D13*%
X69061094Y-73657472D03*
X72345242Y-74537456D03*
%TD*%
D21*
%TO.C,D29*%
X252554369Y-91957618D03*
X249270221Y-92837602D03*
%TD*%
D26*
%TO.C,D33*%
X117199123Y-143091408D03*
X119803675Y-145276886D03*
%TD*%
D24*
%TO.C,D2*%
X54296614Y-55155711D03*
X57580762Y-56035695D03*
%TD*%
%TO.C,D23*%
X64130592Y-92058359D03*
X67414740Y-92938343D03*
%TD*%
%TO.C,D25*%
X99120631Y-108680845D03*
X102404779Y-109560829D03*
%TD*%
D21*
%TO.C,D10*%
X264200078Y-61816451D03*
X260915930Y-62696435D03*
%TD*%
D24*
%TO.C,D22*%
X44435608Y-91957485D03*
X47719756Y-92837469D03*
%TD*%
%TO.C,D15*%
X104051134Y-90279958D03*
X107335282Y-91159942D03*
%TD*%
%TO.C,D21*%
X22928894Y-98618092D03*
X26213042Y-99498076D03*
%TD*%
D21*
%TO.C,D16*%
X192938842Y-90280092D03*
X189654694Y-91160076D03*
%TD*%
%TO.C,D19*%
X247623865Y-73556732D03*
X244339717Y-74436716D03*
%TD*%
D27*
%TO.C,D32*%
X97296992Y-130528107D03*
X100378438Y-131965009D03*
%TD*%
D24*
%TO.C,D14*%
X86167885Y-83417604D03*
X89452033Y-84297588D03*
%TD*%
%TO.C,D1*%
X32789900Y-61816318D03*
X36074048Y-62696302D03*
%TD*%
%TO.C,D3*%
X73991596Y-55256585D03*
X77275744Y-56136569D03*
%TD*%
D21*
%TO.C,D8*%
X222998380Y-55256718D03*
X219714232Y-56136702D03*
%TD*%
D28*
%TO.C,D36*%
X222192508Y-124130009D03*
X218844162Y-124720413D03*
%TD*%
D24*
%TO.C,D11*%
X27859397Y-80217205D03*
X31143545Y-81097189D03*
%TD*%
D21*
%TO.C,D6*%
X188008339Y-71879205D03*
X184724191Y-72759189D03*
%TD*%
M02*
