M48
; DRILL file {KiCad 8.0.1} date 2024-04-02T20:58:02+0900
; FORMAT={-:-/ absolute / inch / decimal}
; #@! TF.CreationDate,2024-04-02T20:58:02+09:00
; #@! TF.GenerationSoftware,Kicad,Pcbnew,8.0.1
; #@! TF.FileFunction,Plated,1,2,PTH
FMAT,2
INCH
; #@! TA.AperFunction,Plated,PTH,ViaDrill
T1C0.0118
; #@! TA.AperFunction,Plated,PTH,ComponentDrill
T2C0.0320
; #@! TA.AperFunction,Plated,PTH,ComponentDrill
T3C0.1181
%
G90
G05
T1
X0.9497Y-3.0276
X1.7973Y-2.7805
X2.5718Y-2.7874
X3.2453Y-3.0787
X3.9489Y-3.3789
X4.8574Y-3.5965
X4.8574Y-3.628
X4.8574Y-3.6594
X4.8574Y-3.6909
X4.8574Y-3.7224
X5.4764Y-4.0315
X5.6791Y-4.1654
X6.1339Y-4.2933
X6.2992Y-4.1339
X6.2992Y-4.1654
X6.7941Y-3.689
X6.7944Y-3.626
X6.7946Y-3.5945
X6.7947Y-3.7204
X6.7953Y-3.6575
T2
X0.5614Y-4.1865
X0.7556Y-3.4621
X0.8533Y-3.8694
X0.9497Y-2.7376
X1.0474Y-3.1449
X1.0814Y-3.9305
X1.0965Y-4.3727
X1.2415Y-2.4205
X1.2756Y-3.206
X1.2906Y-3.6482
X1.4082Y-3.9243
X1.4697Y-2.4816
X1.4847Y-2.9238
X1.6023Y-3.1998
X1.7Y-3.6071
X1.7964Y-2.4754
X1.8941Y-2.8827
X1.9282Y-3.6683
X1.9432Y-4.1104
X2.0882Y-2.1582
X2.1223Y-2.9438
X2.1373Y-3.386
X2.1836Y-3.9283
X2.3164Y-2.2194
X2.3314Y-2.6616
X2.3777Y-3.2038
X2.4754Y-3.6111
X2.5718Y-2.4794
X2.6313Y-5.2195
X2.6695Y-2.8867
X2.7036Y-3.6722
X2.7186Y-4.1144
X2.857Y-4.3125
X2.8636Y-2.1622
X2.8944Y-4.8781
X2.8977Y-2.9478
X2.9127Y-3.39
X3.0512Y-3.5881
X3.0918Y-2.2233
X3.1068Y-2.6655
X3.127Y-4.9191
X3.1489Y-3.9954
X3.1805Y-5.3583
X3.2453Y-2.8636
X3.343Y-3.2709
X3.3771Y-4.0565
X3.3921Y-4.4987
X3.4417Y-5.3789
X3.5371Y-2.5465
X3.5611Y-4.5827
X3.5712Y-3.332
X3.5862Y-3.7742
X3.7552Y-3.8582
X3.7653Y-2.6076
X3.7803Y-3.0498
X3.7842Y-5.1173
X3.8529Y-4.2655
X3.9363Y-5.6552
X3.9493Y-3.1338
X3.9983Y-5.2171
X4.0471Y-3.5411
X4.0811Y-4.3267
X4.0961Y-4.7688
X4.1764Y-5.7647
X4.2412Y-2.8166
X4.2752Y-3.6022
X4.2902Y-4.0444
X4.4693Y-2.8778
X4.4844Y-3.32
X4.5749Y-5.6006
X4.5826Y-6.1596
X4.7559Y-5.7525
X5.5487Y-2.8581
X5.5487Y-2.9581
X5.5487Y-3.0581
X5.5487Y-3.1581
X5.5487Y-3.2581
X5.5487Y-3.3581
X5.5487Y-3.4581
X5.5487Y-3.5581
X5.5487Y-3.6581
X5.5487Y-3.7581
X5.5487Y-3.8581
X5.5487Y-3.9581
X5.5487Y-4.0581
X5.6487Y-4.0581
X5.7487Y-4.0581
X5.8487Y-4.0581
X5.9487Y-4.0581
X6.0486Y-3.9581
X6.0487Y-4.0581
X6.1487Y-2.8581
X6.1487Y-2.9581
X6.1487Y-3.0581
X6.1487Y-3.1581
X6.1487Y-3.2581
X6.1487Y-3.3581
X6.1487Y-3.4581
X6.1487Y-3.5581
X6.1487Y-3.6581
X6.1487Y-3.7581
X6.1487Y-3.8581
X6.1487Y-3.9581
X6.1487Y-4.0581
X6.9367Y-5.7525
X7.029Y-6.1734
X7.1176Y-5.6006
X7.129Y-3.2984
X7.2232Y-2.8778
X7.3231Y-4.0228
X7.4173Y-3.6022
X7.4513Y-2.8166
X7.4884Y-5.842
X7.5172Y-4.7473
X7.6114Y-4.3267
X7.6455Y-3.5411
X7.6745Y-5.6477
X7.6854Y-3.1921
X7.6942Y-5.2171
X7.8331Y-3.0282
X7.8396Y-4.2655
X7.8795Y-3.9165
X7.9083Y-5.1173
X7.9272Y-2.6076
X8.0272Y-3.7526
X8.0737Y-4.641
X8.1213Y-3.3321
X8.1554Y-2.5465
X8.204Y-5.4464
X8.2213Y-4.4771
X8.3155Y-4.0565
X8.3495Y-3.2709
X8.3895Y-2.9219
X8.4351Y-5.3299
X8.5066Y-2.6439
X8.5436Y-3.9954
X8.5655Y-4.9191
X8.5836Y-3.6464
X8.6007Y-2.2234
X8.7007Y-3.3684
X8.7777Y-4.3708
X8.7948Y-2.9478
X8.7981Y-4.8781
X8.8289Y-2.1622
X8.8948Y-4.0928
X8.989Y-3.6722
X8.9986Y-5.2725
X9.023Y-2.8867
X9.063Y-2.5377
X9.2171Y-3.6111
X9.2571Y-3.2621
X9.282Y-2.64
X9.3761Y-2.2194
X9.4512Y-3.9865
X9.4761Y-3.3644
X9.5702Y-2.9438
X9.6043Y-2.1582
X9.6702Y-4.0889
X9.7644Y-3.6683
X9.7984Y-2.8827
X9.8384Y-2.5337
X9.9925Y-3.6071
X10.0325Y-3.2581
X10.1287Y-2.9022
X10.2228Y-2.4816
X10.2266Y-3.9826
X10.3228Y-3.6266
X10.417Y-3.2061
X10.451Y-2.4205
X10.5169Y-4.3511
X10.6111Y-3.9305
X10.6451Y-3.1449
X10.6851Y-2.7959
X10.8392Y-3.8694
X10.8792Y-3.5204
X11.0733Y-4.2448
T3
X0.7012Y-4.224
X0.8953Y-3.4995
X0.9567Y-4.3352
X1.0894Y-2.7751
X1.1508Y-3.6108
X1.3449Y-2.8863
X1.5479Y-3.9617
X1.742Y-3.2373
X1.8034Y-4.073
X1.9361Y-2.5128
X1.9975Y-3.3486
X2.1916Y-2.6241
X2.3233Y-3.9657
X2.5174Y-3.2413
X2.5788Y-4.077
X2.7115Y-2.5168
X2.7729Y-3.3525
X2.7738Y-5.2446
X2.967Y-2.6281
X2.9968Y-4.35
X3.038Y-5.3332
X3.1909Y-3.6255
X3.2523Y-4.4612
X3.385Y-2.9011
X3.4464Y-3.7368
X3.5729Y-5.4401
X3.6405Y-3.0123
X3.7009Y-4.6201
X3.8052Y-5.594
X3.895Y-3.8957
X3.9564Y-4.7314
X4.0891Y-3.1712
X4.1505Y-4.007
X4.2872Y-5.8577
X4.3446Y-3.2825
X4.4718Y-6.0666
X7.1399Y-6.0804
X7.2688Y-3.2609
X7.3776Y-5.935
X7.4629Y-3.9854
X7.5457Y-3.2295
X7.657Y-4.7098
X7.7398Y-3.954
X7.8057Y-5.5865
X7.9339Y-4.6784
X7.9728Y-2.9908
X8.0729Y-5.5075
X8.1669Y-3.7152
X8.2497Y-2.9594
X8.3611Y-4.4396
X8.4438Y-3.6838
X8.5775Y-5.3048
X8.638Y-4.4082
X8.6463Y-2.6065
X8.8404Y-3.3309
X8.8561Y-5.2977
X8.9232Y-2.5751
X9.0346Y-4.0554
X9.1173Y-3.2995
X9.3115Y-4.024
X9.4217Y-2.6025
X9.6158Y-3.327
X9.6986Y-2.5711
X9.81Y-4.0514
X9.8927Y-3.2956
X10.0869Y-4.02
X10.2684Y-2.8648
X10.4626Y-3.5892
X10.5453Y-2.8334
X10.6567Y-4.3136
X10.7395Y-3.5578
X10.9336Y-4.2822
M30
