%TF.GenerationSoftware,KiCad,Pcbnew,8.0.1*%
%TF.CreationDate,2024-04-02T20:58:10+09:00*%
%TF.ProjectId,lazyboy36,6c617a79-626f-4793-9336-2e6b69636164,rev?*%
%TF.SameCoordinates,Original*%
%TF.FileFunction,Paste,Bot*%
%TF.FilePolarity,Positive*%
%FSLAX46Y46*%
G04 Gerber Fmt 4.6, Leading zero omitted, Abs format (unit mm)*
G04 Created by KiCad (PCBNEW 8.0.1) date 2024-04-02 20:58:10*
%MOMM*%
%LPD*%
G01*
G04 APERTURE LIST*
G04 Aperture macros list*
%AMRotRect*
0 Rectangle, with rotation*
0 The origin of the aperture is its center*
0 $1 length*
0 $2 width*
0 $3 Rotation angle, in degrees counterclockwise*
0 Add horizontal line*
21,1,$1,$2,0,0,$3*%
G04 Aperture macros list end*
%ADD10RotRect,1.524000X1.524000X195.000000*%
%ADD11RotRect,1.524000X1.524000X170.000000*%
%ADD12RotRect,1.524000X1.524000X220.000000*%
%ADD13RotRect,1.524000X1.524000X165.000000*%
%ADD14RotRect,1.524000X1.524000X205.000000*%
%ADD15RotRect,1.524000X1.524000X140.000000*%
%ADD16RotRect,1.524000X1.524000X155.000000*%
%ADD17RotRect,1.524000X1.524000X190.000000*%
G04 APERTURE END LIST*
D10*
%TO.C,D26*%
X197869346Y-108680978D03*
X194585198Y-109560962D03*
%TD*%
%TO.C,D17*%
X210822091Y-83417737D03*
X207537943Y-84297721D03*
%TD*%
D11*
%TO.C,D31*%
X74797469Y-124129875D03*
X78145815Y-124720279D03*
%TD*%
D12*
%TO.C,D34*%
X179791854Y-143091540D03*
X177187302Y-145277018D03*
%TD*%
D10*
%TO.C,D7*%
X205891588Y-65016850D03*
X202607440Y-65896834D03*
%TD*%
%TO.C,D30*%
X274061083Y-98618226D03*
X270776935Y-99498210D03*
%TD*%
%TO.C,D20*%
X269130580Y-80217339D03*
X265846432Y-81097323D03*
%TD*%
D13*
%TO.C,D24*%
X81237382Y-101818491D03*
X84521530Y-102698475D03*
%TD*%
D10*
%TO.C,D18*%
X227928884Y-73657605D03*
X224644736Y-74537589D03*
%TD*%
%TO.C,D9*%
X242693362Y-55155845D03*
X239409214Y-56035829D03*
%TD*%
D14*
%TO.C,D35*%
X199692984Y-130528240D03*
X196611538Y-131965142D03*
%TD*%
D13*
%TO.C,D12*%
X49366111Y-73556598D03*
X52650259Y-74436582D03*
%TD*%
D10*
%TO.C,D27*%
X215752594Y-101818624D03*
X212468446Y-102698608D03*
%TD*%
D13*
%TO.C,D5*%
X108981638Y-71879071D03*
X112265786Y-72759055D03*
%TD*%
D10*
%TO.C,D28*%
X232859385Y-92058492D03*
X229575237Y-92938476D03*
%TD*%
D13*
%TO.C,D4*%
X91098389Y-65016717D03*
X94382537Y-65896701D03*
%TD*%
%TO.C,D13*%
X69061094Y-73657472D03*
X72345242Y-74537456D03*
%TD*%
D10*
%TO.C,D29*%
X252554369Y-91957618D03*
X249270221Y-92837602D03*
%TD*%
D15*
%TO.C,D33*%
X117199123Y-143091408D03*
X119803675Y-145276886D03*
%TD*%
D13*
%TO.C,D2*%
X54296614Y-55155711D03*
X57580762Y-56035695D03*
%TD*%
%TO.C,D23*%
X64130592Y-92058359D03*
X67414740Y-92938343D03*
%TD*%
%TO.C,D25*%
X99120631Y-108680845D03*
X102404779Y-109560829D03*
%TD*%
D10*
%TO.C,D10*%
X264200078Y-61816451D03*
X260915930Y-62696435D03*
%TD*%
D13*
%TO.C,D22*%
X44435608Y-91957485D03*
X47719756Y-92837469D03*
%TD*%
%TO.C,D15*%
X104051134Y-90279958D03*
X107335282Y-91159942D03*
%TD*%
%TO.C,D21*%
X22928894Y-98618092D03*
X26213042Y-99498076D03*
%TD*%
D10*
%TO.C,D16*%
X192938842Y-90280092D03*
X189654694Y-91160076D03*
%TD*%
%TO.C,D19*%
X247623865Y-73556732D03*
X244339717Y-74436716D03*
%TD*%
D16*
%TO.C,D32*%
X97296992Y-130528107D03*
X100378438Y-131965009D03*
%TD*%
D13*
%TO.C,D14*%
X86167885Y-83417604D03*
X89452033Y-84297588D03*
%TD*%
%TO.C,D1*%
X32789900Y-61816318D03*
X36074048Y-62696302D03*
%TD*%
%TO.C,D3*%
X73991596Y-55256585D03*
X77275744Y-56136569D03*
%TD*%
D10*
%TO.C,D8*%
X222998380Y-55256718D03*
X219714232Y-56136702D03*
%TD*%
D17*
%TO.C,D36*%
X222192508Y-124130009D03*
X218844162Y-124720413D03*
%TD*%
D13*
%TO.C,D11*%
X27859397Y-80217205D03*
X31143545Y-81097189D03*
%TD*%
D10*
%TO.C,D6*%
X188008339Y-71879205D03*
X184724191Y-72759189D03*
%TD*%
M02*
