<?xml version="1.0" standalone="no"?>
 <!DOCTYPE svg PUBLIC "-//W3C//DTD SVG 1.1//EN" 
 "http://www.w3.org/Graphics/SVG/1.1/DTD/svg11.dtd"> 
<svg
  xmlns:svg="http://www.w3.org/2000/svg"
  xmlns="http://www.w3.org/2000/svg"
  xmlns:xlink="http://www.w3.org/1999/xlink"
  version="1.1"
  width="297.0022mm" height="210.0072mm" viewBox="0.0000 0.0000 297.0022 210.0072">
<title>SVG Image created as lazyboy36-Edge_Cuts.svg date 2024/04/03 20:40:40 </title>
  <desc>Image generated by PCBNEW </desc>
<g style="fill:#000000; fill-opacity:1.0000;stroke:#000000; stroke-opacity:1.0000;
stroke-linecap:round; stroke-linejoin:round;"
 transform="translate(0 0) scale(1 1)">
</g>
<g style="fill:none; 
stroke:#000000; stroke-width:0.0500; stroke-opacity:1; 
stroke-linecap:round; stroke-linejoin:round;">
<path d="M232.4000 137.1000
L286.2945 110.1528
" />
<path d="M157.5000 71.3000
L154.5000 71.3000
" />
<path d="M230.7000 53.7000
L229.4000 48.8500
" />
<path d="M249.1000 48.7500
L230.7000 53.7000
" />
<path d="M229.4000 48.8500
L211.0000 53.8000
" />
<path d="M142.6500 71.3000
L142.6500 101.3000
" />
<path d="M211.0000 53.8000
L212.2500 58.6000
" />
<path d="M10.7052 110.1535
L64.5500 137.0500
" />
<path d="M103.1000 63.5500
L102.6000 65.4500
" />
<path d="M176.0000 70.4000
L157.5000 71.3000
" />
<path d="M286.2945 110.1528
L271.5657 55.1403
" />
<path d="M102.6000 65.4500
L121.0000 70.4000
" />
<path d="M139.6500 71.3000
L142.6500 71.3000
" />
<path d="M66.3000 53.7000
L67.6000 48.8500
" />
<path d="M67.6000 48.8500
L86.0000 53.8000
" />
<path d="M25.4343 55.1403
L44.8000 60.3500
" />
<path d="M194.4000 65.4500
L176.0000 70.4000
" />
<path d="M25.4343 55.1403
L10.7052 110.1535
" />
<path d="M128.7000 146.8500
L168.3000 146.8500
" />
<path d="M154.5000 101.3000
L142.6500 101.3000
" />
<path d="M154.5000 71.3000
L154.5000 101.3000
" />
<path d="M117.3549 161.8756
L128.7000 146.8500
" />
<path d="M44.8000 60.3500
L47.9000 48.7500
" />
<path d="M252.2000 60.3500
L249.1000 48.7500
" />
<path d="M47.9000 48.7500
L66.3000 53.7000
" />
<path d="M168.3000 146.8500
L179.6449 161.8752
" />
<path d="M64.5500 137.0500
L117.3549 161.8756
" />
<path d="M179.6449 161.8752
L232.4000 137.1000
" />
<path d="M84.7000 58.6000
L103.1000 63.5500
" />
<path d="M139.6500 71.3000
L121.0000 70.4000
" />
<path d="M212.2500 58.6000
L193.9000 63.5500
" />
<path d="M86.0000 53.8000
L84.7000 58.6000
" />
<path d="M193.9000 63.5500
L194.4000 65.4500
" />
<path d="M271.5657 55.1403
L252.2000 60.3500
" />
</g> 
</svg>
