  0
SECTION
  2
HEADER
  9
$ANGBASE
  50
0.0
  9
$ANGDIR
  70
1
  9
$MEASUREMENT
  70
1
  0
ENDSEC
  0
SECTION
  2
TABLES
  0
TABLE
  2
LTYPE
  70
4
  0
LTYPE
  5
40F
  2
CONTINUOUS
  70
0
  3
Solid line
  72
65
  73
0
  40
0.0
  0
LTYPE
  5
410
  2
DASHDOT
 70
0
  3
Dash Dot ____ _ ____ _
 72
65
 73
4
 40
2.0
 49
1.25
 49
-0.25
 49
0.25
 49
-0.25
  0
LTYPE
  5
411
  2
DASHED
 70
0
  3
Dashed __ __ __ __ __
 72
65
 73
2
 40
0.75
 49
0.5
 49
-0.25
  0
LTYPE
  5
43B
  2
DOTTED
 70
0
  3
Dotted .  .  .  .
 72
65
 73
2
 40
0.2
 49
0.0
 49
-0.2
  0
ENDTAB
  0
TABLE
  2
STYLE
  70
4
  0
STYLE
  2
KICAD
  70
0
  40
0
  41
1
  42
1
  50
0
  71
0
  3
isocp.shx
  0
STYLE
  2
KICADB
  70
0
  40
0
  41
1
  42
1
  50
0
  71
0
  3
isocp.shx
  0
STYLE
  2
KICADI
  70
0
  40
0
  41
1
  42
1
  50
15
  71
0
  3
isocp.shx
  0
STYLE
  2
KICADBI
  70
0
  40
0
  41
1
  42
1
  50
15
  71
0
  3
isocp.shx
  0
ENDTAB
  0
TABLE
  2
LAYER
  70
1
  0
LAYER
  2
BLACK
  70
0
  62
7
  6
CONTINUOUS
  0
ENDTAB
  0
ENDSEC
  0
SECTION
  2
ENTITIES
0
LINE
8
BLACK
6
CONTINUOUS
10
232.3999999999999773
20
-137.0999999999999943
11
286.2944509999999809
21
-110.1528349999999961
0
LINE
8
BLACK
6
CONTINUOUS
10
157.5
20
-71.2999999999999972
11
154.5
21
-71.2999999999999972
0
LINE
8
BLACK
6
CONTINUOUS
10
230.6999999999999886
20
-53.6999999999999957
11
229.3999999999999773
21
-48.8499999999999943
0
LINE
8
BLACK
6
CONTINUOUS
10
249.0999999999999943
20
-48.75
11
230.6999999999999886
21
-53.6999999999999957
0
LINE
8
BLACK
6
CONTINUOUS
10
229.3999999999999773
20
-48.8499999999999943
11
211.
21
-53.7999999999999972
0
LINE
8
BLACK
6
CONTINUOUS
10
142.6500000000000057
20
-71.2999999999999972
11
142.6500000000000057
21
-101.3000449999999972
0
LINE
8
BLACK
6
CONTINUOUS
10
211.
20
-53.7999999999999972
11
212.25
21
-58.5999999999999943
0
LINE
8
BLACK
6
CONTINUOUS
10
10.7052129999999988
20
-110.1535049999999956
11
64.5499999999999972
21
-137.0499999999999829
0
LINE
8
BLACK
6
CONTINUOUS
10
103.0999999999999943
20
-63.5499999999999972
11
102.5999999999999943
21
-65.4500000000000028
0
LINE
8
BLACK
6
CONTINUOUS
10
176.
20
-70.3999999999999915
11
157.5
21
-71.2999999999999972
0
LINE
8
BLACK
6
CONTINUOUS
10
286.2944509999999809
20
-110.1528349999999961
11
271.5656960000000026
21
-55.1403229999999951
0
LINE
8
BLACK
6
CONTINUOUS
10
102.5999999999999943
20
-65.4500000000000028
11
121.
21
-70.3999999999999915
0
LINE
8
BLACK
6
CONTINUOUS
10
139.6500000000000057
20
-71.2999999999999972
11
142.6500000000000057
21
-71.2999999999999972
0
LINE
8
BLACK
6
CONTINUOUS
10
66.2999999999999972
20
-53.6999999999999957
11
67.5999999999999943
21
-48.8499999999999943
0
LINE
8
BLACK
6
CONTINUOUS
10
67.5999999999999943
20
-48.8499999999999943
11
86.
21
-53.7999999999999972
0
LINE
8
BLACK
6
CONTINUOUS
10
25.4343039999999974
20
-55.1403229999999951
11
44.7999999999999972
21
-60.3499999999999943
0
LINE
8
BLACK
6
CONTINUOUS
10
194.3999999999999773
20
-65.4500000000000028
11
176.
21
-70.3999999999999915
0
LINE
8
BLACK
6
CONTINUOUS
10
25.4343039999999974
20
-55.1403229999999951
11
10.7052129999999988
21
-110.1535049999999956
0
LINE
8
BLACK
6
CONTINUOUS
10
128.6999999999999886
20
-146.8499999999999943
11
168.2999999999999829
21
-146.8499999999999943
0
LINE
8
BLACK
6
CONTINUOUS
10
154.5
20
-101.2999999999999972
11
142.6500000000000057
21
-101.3000449999999972
0
LINE
8
BLACK
6
CONTINUOUS
10
154.5
20
-71.2999999999999972
11
154.5
21
-101.2999999999999972
0
LINE
8
BLACK
6
CONTINUOUS
10
117.3549129999999963
20
-161.8755960000000016
11
128.6999999999999886
21
-146.8499999999999943
0
LINE
8
BLACK
6
CONTINUOUS
10
44.7999999999999972
20
-60.3499999999999943
11
47.8999999999999986
21
-48.75
0
LINE
8
BLACK
6
CONTINUOUS
10
252.1999999999999886
20
-60.3499999999999943
11
249.0999999999999943
21
-48.75
0
LINE
8
BLACK
6
CONTINUOUS
10
47.8999999999999986
20
-48.75
11
66.2999999999999972
21
-53.6999999999999957
0
LINE
8
BLACK
6
CONTINUOUS
10
168.2999999999999829
20
-146.8499999999999943
11
179.6449010000000044
21
-161.8751989999999807
0
LINE
8
BLACK
6
CONTINUOUS
10
64.5499999999999972
20
-137.0499999999999829
11
117.3549129999999963
21
-161.8755960000000016
0
LINE
8
BLACK
6
CONTINUOUS
10
179.6449010000000044
20
-161.8751989999999807
11
232.3999999999999773
21
-137.0999999999999943
0
LINE
8
BLACK
6
CONTINUOUS
10
84.7000000000000028
20
-58.5999999999999943
11
103.0999999999999943
21
-63.5499999999999972
0
LINE
8
BLACK
6
CONTINUOUS
10
139.6500000000000057
20
-71.2999999999999972
11
121.
21
-70.3999999999999915
0
LINE
8
BLACK
6
CONTINUOUS
10
212.25
20
-58.5999999999999943
11
193.8999999999999773
21
-63.5499999999999972
0
LINE
8
BLACK
6
CONTINUOUS
10
86.
20
-53.7999999999999972
11
84.7000000000000028
21
-58.5999999999999943
0
LINE
8
BLACK
6
CONTINUOUS
10
193.8999999999999773
20
-63.5499999999999972
11
194.3999999999999773
21
-65.4500000000000028
0
LINE
8
BLACK
6
CONTINUOUS
10
271.5656960000000026
20
-55.1403229999999951
11
252.1999999999999886
21
-60.3499999999999943
  0
ENDSEC
  0
EOF
