M48
; DRILL file {KiCad 8.0.1} date 2024-04-02T20:58:02+0900
; FORMAT={-:-/ absolute / inch / decimal}
; #@! TF.CreationDate,2024-04-02T20:58:02+09:00
; #@! TF.GenerationSoftware,Kicad,Pcbnew,8.0.1
; #@! TF.FileFunction,NonPlated,1,2,NPTH
FMAT,2
INCH
; #@! TA.AperFunction,NonPlated,NPTH,ComponentDrill
T1C0.2067
%
G90
G05
T1
X0.9164Y-4.0901
X1.1105Y-3.3656
X1.3046Y-2.6412
X1.7631Y-3.8278
X1.9572Y-3.1034
X2.1514Y-2.379
X2.5385Y-3.8318
X2.7326Y-3.1074
X2.9268Y-2.3829
X2.9765Y-5.0925
X3.212Y-4.2161
X3.4061Y-3.4916
X3.6003Y-2.7672
X3.8081Y-5.3456
X3.9161Y-4.4862
X4.1102Y-3.7618
X4.3043Y-3.0374
X4.5389Y-5.8273
X7.1536Y-5.8273
X7.3882Y-3.0374
X7.5823Y-3.7618
X7.7764Y-4.4862
X7.8845Y-5.3456
X8.0923Y-2.7672
X8.2864Y-3.4916
X8.4805Y-4.2161
X8.716Y-5.0925
X8.7658Y-2.3829
X8.9599Y-3.1074
X9.154Y-3.8318
X9.5412Y-2.379
X9.7353Y-3.1034
X9.9294Y-3.8278
X10.3879Y-2.6412
X10.582Y-3.3656
X10.7761Y-4.0901
M30
