  0
SECTION
  2
HEADER
  9
$ANGBASE
  50
0.0
  9
$ANGDIR
  70
1
  9
$MEASUREMENT
  70
1
  0
ENDSEC
  0
SECTION
  2
TABLES
  0
TABLE
  2
LTYPE
  70
4
  0
LTYPE
  5
40F
  2
CONTINUOUS
  70
0
  3
Solid line
  72
65
  73
0
  40
0.0
  0
LTYPE
  5
410
  2
DASHDOT
 70
0
  3
Dash Dot ____ _ ____ _
 72
65
 73
4
 40
2.0
 49
1.25
 49
-0.25
 49
0.25
 49
-0.25
  0
LTYPE
  5
411
  2
DASHED
 70
0
  3
Dashed __ __ __ __ __
 72
65
 73
2
 40
0.75
 49
0.5
 49
-0.25
  0
LTYPE
  5
43B
  2
DOTTED
 70
0
  3
Dotted .  .  .  .
 72
65
 73
2
 40
0.2
 49
0.0
 49
-0.2
  0
ENDTAB
  0
TABLE
  2
STYLE
  70
4
  0
STYLE
  2
KICAD
  70
0
  40
0
  41
1
  42
1
  50
0
  71
0
  3
isocp.shx
  0
STYLE
  2
KICADB
  70
0
  40
0
  41
1
  42
1
  50
0
  71
0
  3
isocp.shx
  0
STYLE
  2
KICADI
  70
0
  40
0
  41
1
  42
1
  50
15
  71
0
  3
isocp.shx
  0
STYLE
  2
KICADBI
  70
0
  40
0
  41
1
  42
1
  50
15
  71
0
  3
isocp.shx
  0
ENDTAB
  0
TABLE
  2
LAYER
  70
1
  0
LAYER
  2
BLACK
  70
0
  62
7
  6
CONTINUOUS
  0
ENDTAB
  0
ENDSEC
  0
SECTION
  2
ENTITIES
0
LINE
8
BLACK
6
CONTINUOUS
10
230.3182239999999865
20
-135.9485420000000033
11
213.5764920000000018
21
-138.900560999999982
0
LINE
8
BLACK
6
CONTINUOUS
10
213.5764920000000018
20
-138.900560999999982
11
212.6040629999999965
21
-133.3856370000000027
0
LINE
8
BLACK
6
CONTINUOUS
10
212.6040629999999965
20
-133.3856370000000027
11
229.3457939999999837
21
-130.4336179999999956
0
LINE
8
BLACK
6
CONTINUOUS
10
229.3457939999999837
20
-130.4336179999999956
11
230.3182239999999865
21
-135.9485420000000033
0
LINE
8
BLACK
6
CONTINUOUS
10
210.6006849999999986
20
-139.8409780000000069
11
195.1934519999999793
21
-147.0254879999999957
0
LINE
8
BLACK
6
CONTINUOUS
10
195.1934519999999793
20
-147.0254879999999957
11
192.8267899999999884
21
-141.9501649999999984
0
LINE
8
BLACK
6
CONTINUOUS
10
192.8267899999999884
20
-141.9501649999999984
11
208.2340219999999817
21
-134.7656539999999836
0
LINE
8
BLACK
6
CONTINUOUS
10
208.2340219999999817
20
-134.7656539999999836
11
210.6006849999999986
21
-139.8409780000000069
0
LINE
8
BLACK
6
CONTINUOUS
10
192.7371959999999831
20
-149.2638340000000028
11
179.7144409999999937
21
-160.1912229999999795
0
LINE
8
BLACK
6
CONTINUOUS
10
179.7144409999999937
20
-160.1912229999999795
11
176.1148299999999836
21
-155.9013740000000041
0
LINE
8
BLACK
6
CONTINUOUS
10
176.1148299999999836
20
-155.9013740000000041
11
189.1375859999999989
21
-144.973984999999999
0
LINE
8
BLACK
6
CONTINUOUS
10
189.1375859999999989
20
-144.973984999999999
11
192.7371959999999831
21
-149.2638340000000028
0
LINE
8
BLACK
6
CONTINUOUS
10
119.5728699999999947
20
-154.8085030000000017
11
115.9732599999999962
21
-159.0983520000000055
0
LINE
8
BLACK
6
CONTINUOUS
10
115.9732599999999962
20
-159.0983520000000055
11
102.9505039999999951
21
-148.1709630000000004
0
LINE
8
BLACK
6
CONTINUOUS
10
102.9505039999999951
20
-148.1709630000000004
11
106.550114999999991
21
-143.8811139999999966
0
LINE
8
BLACK
6
CONTINUOUS
10
106.550114999999991
20
-143.8811139999999966
11
119.5728699999999947
21
-154.8085030000000017
0
LINE
8
BLACK
6
CONTINUOUS
10
102.6224629999999962
20
-141.2315820000000031
11
100.2558009999999911
21
-146.3069050000000004
0
LINE
8
BLACK
6
CONTINUOUS
10
100.2558009999999911
20
-146.3069050000000004
11
84.8485680000000002
21
-139.1223949999999832
0
LINE
8
BLACK
6
CONTINUOUS
10
84.8485680000000002
20
-139.1223949999999832
11
87.2152299999999912
21
-134.0470709999999883
0
LINE
8
BLACK
6
CONTINUOUS
10
87.2152299999999912
20
-134.0470709999999883
11
102.6224629999999962
21
-141.2315820000000031
0
LINE
8
BLACK
6
CONTINUOUS
10
82.7117409999999893
20
-133.0903040000000033
11
81.7393110000000007
21
-138.6052269999999851
0
LINE
8
BLACK
6
CONTINUOUS
10
81.7393110000000007
20
-138.6052269999999851
11
64.9975799999999992
21
-135.6532080000000065
0
LINE
8
BLACK
6
CONTINUOUS
10
64.9975799999999992
20
-135.6532080000000065
11
65.9700089999999904
21
-130.1382849999999962
0
LINE
8
BLACK
6
CONTINUOUS
10
65.9700089999999904
20
-130.1382849999999962
11
82.7117409999999893
21
-133.0903040000000033
0
LINE
8
BLACK
6
CONTINUOUS
10
283.1859299999999848
20
-109.6835839999999962
11
266.7651910000000157
21
-114.0835079999999948
0
LINE
8
BLACK
6
CONTINUOUS
10
266.7651910000000157
20
-114.0835079999999948
11
265.3158040000000142
21
-108.6743230000000011
0
LINE
8
BLACK
6
CONTINUOUS
10
265.3158040000000142
20
-108.6743230000000011
11
281.7365429999999833
21
-104.2744
0
LINE
8
BLACK
6
CONTINUOUS
10
281.7365429999999833
20
-104.2744
11
283.1859299999999848
21
-109.6835839999999962
0
LINE
8
BLACK
6
CONTINUOUS
10
261.6792149999999992
20
-103.0229769999999974
11
245.2584760000000017
21
-107.422900999999996
0
LINE
8
BLACK
6
CONTINUOUS
10
245.2584760000000017
20
-107.422900999999996
11
243.8090890000000002
21
-102.0137160000000023
0
LINE
8
BLACK
6
CONTINUOUS
10
243.8090890000000002
20
-102.0137160000000023
11
260.2298279999999977
21
-97.6137930000000011
0
LINE
8
BLACK
6
CONTINUOUS
10
260.2298279999999977
20
-97.6137930000000011
11
261.6792149999999992
21
-103.0229769999999974
0
LINE
8
BLACK
6
CONTINUOUS
10
241.9842339999999865
20
-103.1238499999999902
11
225.563494999999989
21
-107.5237739999999889
0
LINE
8
BLACK
6
CONTINUOUS
10
225.563494999999989
20
-107.5237739999999889
11
224.1141079999999874
21
-102.1145889999999952
0
LINE
8
BLACK
6
CONTINUOUS
10
224.1141079999999874
20
-102.1145889999999952
11
240.534846999999985
21
-97.714665999999994
0
LINE
8
BLACK
6
CONTINUOUS
10
240.534846999999985
20
-97.714665999999994
11
241.9842339999999865
21
-103.1238499999999902
0
LINE
8
BLACK
6
CONTINUOUS
10
224.8774409999999762
20
-112.8839819999999889
11
208.4567019999999786
21
-117.2839060000000018
0
LINE
8
BLACK
6
CONTINUOUS
10
208.4567019999999786
20
-117.2839060000000018
11
207.0073149999999771
21
-111.8747209999999939
0
LINE
8
BLACK
6
CONTINUOUS
10
207.0073149999999771
20
-111.8747209999999939
11
223.428054000000003
21
-107.4747979999999927
0
LINE
8
BLACK
6
CONTINUOUS
10
223.428054000000003
20
-107.4747979999999927
11
224.8774409999999762
21
-112.8839819999999889
0
LINE
8
BLACK
6
CONTINUOUS
10
206.9941919999999982
20
-119.7463369999999969
11
190.5734530000000007
21
-124.1462609999999955
0
LINE
8
BLACK
6
CONTINUOUS
10
190.5734530000000007
20
-124.1462609999999955
11
189.1240659999999991
21
-118.7370759999999876
0
LINE
8
BLACK
6
CONTINUOUS
10
189.1240659999999991
20
-118.7370759999999876
11
205.5448049999999967
21
-114.3371530000000007
0
LINE
8
BLACK
6
CONTINUOUS
10
205.5448049999999967
20
-114.3371530000000007
11
206.9941919999999982
21
-119.7463369999999969
0
LINE
8
BLACK
6
CONTINUOUS
10
106.2238359999999915
20
-118.2969499999999954
11
104.77444899999999
21
-123.7061349999999891
0
LINE
8
BLACK
6
CONTINUOUS
10
104.77444899999999
20
-123.7061349999999891
11
88.3537099999999924
21
-119.3062109999999905
0
LINE
8
BLACK
6
CONTINUOUS
10
88.3537099999999924
20
-119.3062109999999905
11
89.803096999999994
21
-113.8970259999999968
0
LINE
8
BLACK
6
CONTINUOUS
10
89.803096999999994
20
-113.8970259999999968
11
106.2238359999999915
21
-118.2969499999999954
0
LINE
8
BLACK
6
CONTINUOUS
10
88.3405869999999993
20
-111.4345959999999991
11
86.8911999999999978
21
-116.8437809999999928
0
LINE
8
BLACK
6
CONTINUOUS
10
86.8911999999999978
20
-116.8437809999999928
11
70.4704610000000002
21
-112.4438569999999942
0
LINE
8
BLACK
6
CONTINUOUS
10
70.4704610000000002
20
-112.4438569999999942
11
71.9198480000000018
21
-107.0346720000000005
0
LINE
8
BLACK
6
CONTINUOUS
10
71.9198480000000018
20
-107.0346720000000005
11
88.3405869999999993
21
-111.4345959999999991
0
LINE
8
BLACK
6
CONTINUOUS
10
71.2337950000000006
20
-101.6744640000000004
11
69.7844079999999991
21
-107.0836489999999941
0
LINE
8
BLACK
6
CONTINUOUS
10
69.7844079999999991
20
-107.0836489999999941
11
53.3636689999999945
21
-102.6837249999999955
0
LINE
8
BLACK
6
CONTINUOUS
10
53.3636689999999945
20
-102.6837249999999955
11
54.813055999999996
21
-97.2745400000000018
0
LINE
8
BLACK
6
CONTINUOUS
10
54.813055999999996
20
-97.2745400000000018
11
71.2337950000000006
21
-101.6744640000000004
0
LINE
8
BLACK
6
CONTINUOUS
10
51.5388129999999975
20
-101.5735899999999958
11
50.089425999999996
21
-106.9827749999999895
0
LINE
8
BLACK
6
CONTINUOUS
10
50.089425999999996
20
-106.9827749999999895
11
33.6686869999999985
21
-102.5828509999999909
0
LINE
8
BLACK
6
CONTINUOUS
10
33.6686869999999985
20
-102.5828509999999909
11
35.118074
21
-97.1736659999999972
0
LINE
8
BLACK
6
CONTINUOUS
10
35.118074
20
-97.1736659999999972
11
51.5388129999999975
21
-101.5735899999999958
0
LINE
8
BLACK
6
CONTINUOUS
10
30.0320989999999988
20
-108.2341969999999947
11
28.5827119999999972
21
-113.6433819999999884
0
LINE
8
BLACK
6
CONTINUOUS
10
28.5827119999999972
20
-113.6433819999999884
11
12.1619729999999997
21
-109.2434579999999897
0
LINE
8
BLACK
6
CONTINUOUS
10
12.1619729999999997
20
-109.2434579999999897
11
13.6113599999999995
21
-103.834272999999996
0
LINE
8
BLACK
6
CONTINUOUS
10
13.6113599999999995
20
-103.834272999999996
11
30.0320989999999988
21
-108.2341969999999947
0
LINE
8
BLACK
6
CONTINUOUS
10
278.2554289999999924
20
-91.2826960000000014
11
261.8346899999999664
21
-95.68262
0
LINE
8
BLACK
6
CONTINUOUS
10
261.8346899999999664
20
-95.68262
11
260.3853029999999649
21
-90.2734349999999921
0
LINE
8
BLACK
6
CONTINUOUS
10
260.3853029999999649
20
-90.2734349999999921
11
276.8060419999999908
21
-85.873511999999991
0
LINE
8
BLACK
6
CONTINUOUS
10
276.8060419999999908
20
-85.873511999999991
11
278.2554289999999924
21
-91.2826960000000014
0
LINE
8
BLACK
6
CONTINUOUS
10
256.7487120000000118
20
-84.62209
11
240.3279729999999859
21
-89.0220139999999986
0
LINE
8
BLACK
6
CONTINUOUS
10
240.3279729999999859
20
-89.0220139999999986
11
238.8785859999999843
21
-83.6128289999999907
0
LINE
8
BLACK
6
CONTINUOUS
10
238.8785859999999843
20
-83.6128289999999907
11
255.2993249999999819
21
-79.2129059999999896
0
LINE
8
BLACK
6
CONTINUOUS
10
255.2993249999999819
20
-79.2129059999999896
11
256.7487120000000118
21
-84.62209
0
LINE
8
BLACK
6
CONTINUOUS
10
237.0537300000000016
20
-84.7229629999999929
11
220.6329910000000041
21
-89.1228869999999915
0
LINE
8
BLACK
6
CONTINUOUS
10
220.6329910000000041
20
-89.1228869999999915
11
219.1836040000000025
21
-83.7137019999999978
0
LINE
8
BLACK
6
CONTINUOUS
10
219.1836040000000025
20
-83.7137019999999978
11
235.6043430000000001
21
-79.3137789999999967
0
LINE
8
BLACK
6
CONTINUOUS
10
235.6043430000000001
20
-79.3137789999999967
11
237.0537300000000016
21
-84.7229629999999929
0
LINE
8
BLACK
6
CONTINUOUS
10
219.9469379999999887
20
-94.4830949999999916
11
203.5261989999999912
21
-98.8830189999999902
0
LINE
8
BLACK
6
CONTINUOUS
10
203.5261989999999912
20
-98.8830189999999902
11
202.0768119999999897
21
-93.4738339999999965
0
LINE
8
BLACK
6
CONTINUOUS
10
202.0768119999999897
20
-93.4738339999999965
11
218.4975509999999872
21
-89.0739109999999954
0
LINE
8
BLACK
6
CONTINUOUS
10
218.4975509999999872
20
-89.0739109999999954
11
219.9469379999999887
21
-94.4830949999999916
0
LINE
8
BLACK
6
CONTINUOUS
10
202.0636889999999823
20
-101.3454499999999996
11
185.6429499999999848
21
-105.7453739999999982
0
LINE
8
BLACK
6
CONTINUOUS
10
185.6429499999999848
20
-105.7453739999999982
11
184.1935629999999833
21
-100.3361889999999903
0
LINE
8
BLACK
6
CONTINUOUS
10
184.1935629999999833
20
-100.3361889999999903
11
200.6143019999999808
21
-95.9362659999999892
0
LINE
8
BLACK
6
CONTINUOUS
10
200.6143019999999808
20
-95.9362659999999892
11
202.0636889999999823
21
-101.3454499999999996
0
LINE
8
BLACK
6
CONTINUOUS
10
111.1543399999999906
20
-99.8960629999999981
11
109.7049529999999891
21
-105.3052479999999917
0
LINE
8
BLACK
6
CONTINUOUS
10
109.7049529999999891
20
-105.3052479999999917
11
93.2842139999999915
21
-100.9053239999999931
0
LINE
8
BLACK
6
CONTINUOUS
10
93.2842139999999915
20
-100.9053239999999931
11
94.7336009999999931
21
-95.4961389999999994
0
LINE
8
BLACK
6
CONTINUOUS
10
94.7336009999999931
20
-95.4961389999999994
11
111.1543399999999906
21
-99.8960629999999981
0
LINE
8
BLACK
6
CONTINUOUS
10
93.2710909999999984
20
-93.0337090000000018
11
91.8217039999999969
21
-98.4428939999999955
0
LINE
8
BLACK
6
CONTINUOUS
10
91.8217039999999969
20
-98.4428939999999955
11
75.4009649999999993
21
-94.0429699999999968
0
LINE
8
BLACK
6
CONTINUOUS
10
75.4009649999999993
20
-94.0429699999999968
11
76.8503520000000009
21
-88.6337849999999889
0
LINE
8
BLACK
6
CONTINUOUS
10
76.8503520000000009
20
-88.6337849999999889
11
93.2710909999999984
21
-93.0337090000000018
0
LINE
8
BLACK
6
CONTINUOUS
10
76.1642980000000023
20
-83.2735770000000031
11
74.7149110000000007
21
-88.6827619999999968
0
LINE
8
BLACK
6
CONTINUOUS
10
74.7149110000000007
20
-88.6827619999999968
11
58.2941719999999961
21
-84.2828379999999981
0
LINE
8
BLACK
6
CONTINUOUS
10
58.2941719999999961
20
-84.2828379999999981
11
59.7435589999999976
21
-78.8736529999999902
0
LINE
8
BLACK
6
CONTINUOUS
10
59.7435589999999976
20
-78.8736529999999902
11
76.1642980000000023
21
-83.2735770000000031
0
LINE
8
BLACK
6
CONTINUOUS
10
56.4693159999999992
20
-83.1727029999999985
11
55.0199289999999976
21
-88.5818879999999922
0
LINE
8
BLACK
6
CONTINUOUS
10
55.0199289999999976
20
-88.5818879999999922
11
38.5991900000000001
21
-84.1819639999999936
0
LINE
8
BLACK
6
CONTINUOUS
10
38.5991900000000001
20
-84.1819639999999936
11
40.0485770000000016
21
-78.7727789999999999
0
LINE
8
BLACK
6
CONTINUOUS
10
40.0485770000000016
20
-78.7727789999999999
11
56.4693159999999992
21
-83.1727029999999985
0
LINE
8
BLACK
6
CONTINUOUS
10
34.9626009999999994
20
-89.8333099999999973
11
33.5132139999999978
21
-95.242494999999991
0
LINE
8
BLACK
6
CONTINUOUS
10
33.5132139999999978
20
-95.242494999999991
11
17.0924750000000003
21
-90.8425709999999924
0
LINE
8
BLACK
6
CONTINUOUS
10
17.0924750000000003
20
-90.8425709999999924
11
18.5418619999999983
21
-85.4333859999999987
0
LINE
8
BLACK
6
CONTINUOUS
10
18.5418619999999983
20
-85.4333859999999987
11
34.9626009999999994
21
-89.8333099999999973
0
LINE
8
BLACK
6
CONTINUOUS
10
273.3249260000000049
20
-72.8818089999999899
11
256.904186999999979
21
-77.2817330000000027
0
LINE
8
BLACK
6
CONTINUOUS
10
256.904186999999979
20
-77.2817330000000027
11
255.4547999999999774
21
-71.8725479999999948
0
LINE
8
BLACK
6
CONTINUOUS
10
255.4547999999999774
20
-71.8725479999999948
11
271.8755390000000034
21
-67.4726249999999936
0
LINE
8
BLACK
6
CONTINUOUS
10
271.8755390000000034
20
-67.4726249999999936
11
273.3249260000000049
21
-72.8818089999999899
0
LINE
8
BLACK
6
CONTINUOUS
10
251.818208999999996
20
-66.2212030000000027
11
235.3974699999999984
21
-70.6211270000000013
0
LINE
8
BLACK
6
CONTINUOUS
10
235.3974699999999984
20
-70.6211270000000013
11
233.9480829999999969
21
-65.2119419999999934
0
LINE
8
BLACK
6
CONTINUOUS
10
233.9480829999999969
20
-65.2119419999999934
11
250.3688219999999944
21
-60.8120189999999994
0
LINE
8
BLACK
6
CONTINUOUS
10
250.3688219999999944
20
-60.8120189999999994
11
251.818208999999996
21
-66.2212030000000027
0
LINE
8
BLACK
6
CONTINUOUS
10
232.1232269999999858
20
-66.3220759999999956
11
215.7024879999999882
21
-70.7219999999999942
0
LINE
8
BLACK
6
CONTINUOUS
10
215.7024879999999882
20
-70.7219999999999942
11
214.2531009999999867
21
-65.3128150000000005
0
LINE
8
BLACK
6
CONTINUOUS
10
214.2531009999999867
20
-65.3128150000000005
11
230.6738399999999842
21
-60.9128919999999994
0
LINE
8
BLACK
6
CONTINUOUS
10
230.6738399999999842
20
-60.9128919999999994
11
232.1232269999999858
21
-66.3220759999999956
0
LINE
8
BLACK
6
CONTINUOUS
10
215.0164350000000013
20
-76.0822079999999943
11
198.5956960000000038
21
-80.4821319999999929
0
LINE
8
BLACK
6
CONTINUOUS
10
198.5956960000000038
20
-80.4821319999999929
11
197.1463090000000022
21
-75.0729469999999992
0
LINE
8
BLACK
6
CONTINUOUS
10
197.1463090000000022
20
-75.0729469999999992
11
213.5670479999999998
21
-70.6730239999999981
0
LINE
8
BLACK
6
CONTINUOUS
10
213.5670479999999998
20
-70.6730239999999981
11
215.0164350000000013
21
-76.0822079999999943
0
LINE
8
BLACK
6
CONTINUOUS
10
197.1331859999999949
20
-82.9445630000000023
11
180.7124469999999974
21
-87.3444870000000009
0
LINE
8
BLACK
6
CONTINUOUS
10
180.7124469999999974
20
-87.3444870000000009
11
179.2630599999999959
21
-81.935301999999993
0
LINE
8
BLACK
6
CONTINUOUS
10
179.2630599999999959
20
-81.935301999999993
11
195.6837989999999934
21
-77.5353789999999918
0
LINE
8
BLACK
6
CONTINUOUS
10
195.6837989999999934
20
-77.5353789999999918
11
197.1331859999999949
21
-82.9445630000000023
0
LINE
8
BLACK
6
CONTINUOUS
10
116.0848429999999922
20
-81.4951760000000007
11
114.6354559999999907
21
-86.9043609999999944
0
LINE
8
BLACK
6
CONTINUOUS
10
114.6354559999999907
20
-86.9043609999999944
11
98.2147169999999932
21
-82.5044369999999958
0
LINE
8
BLACK
6
CONTINUOUS
10
98.2147169999999932
20
-82.5044369999999958
11
99.6641039999999947
21
-77.0952520000000021
0
LINE
8
BLACK
6
CONTINUOUS
10
99.6641039999999947
20
-77.0952520000000021
11
116.0848429999999922
21
-81.4951760000000007
0
LINE
8
BLACK
6
CONTINUOUS
10
98.2015940000000001
20
-74.6328219999999902
11
96.7522069999999985
21
-80.0420069999999981
0
LINE
8
BLACK
6
CONTINUOUS
10
96.7522069999999985
20
-80.0420069999999981
11
80.331468000000001
21
-75.6420829999999995
0
LINE
8
BLACK
6
CONTINUOUS
10
80.331468000000001
20
-75.6420829999999995
11
81.7808550000000025
21
-70.2328979999999916
0
LINE
8
BLACK
6
CONTINUOUS
10
81.7808550000000025
20
-70.2328979999999916
11
98.2015940000000001
21
-74.6328219999999902
0
LINE
8
BLACK
6
CONTINUOUS
10
81.0948020000000014
20
-64.8726899999999915
11
79.6454149999999998
21
-70.2818749999999994
0
LINE
8
BLACK
6
CONTINUOUS
10
79.6454149999999998
20
-70.2818749999999994
11
63.2246759999999952
21
-65.8819510000000008
0
LINE
8
BLACK
6
CONTINUOUS
10
63.2246759999999952
20
-65.8819510000000008
11
64.6740630000000039
21
-60.472766
0
LINE
8
BLACK
6
CONTINUOUS
10
64.6740630000000039
20
-60.472766
11
81.0948020000000014
21
-64.8726899999999915
0
LINE
8
BLACK
6
CONTINUOUS
10
61.3998199999999983
20
-64.7718160000000012
11
59.9504329999999968
21
-70.1810009999999949
0
LINE
8
BLACK
6
CONTINUOUS
10
59.9504329999999968
20
-70.1810009999999949
11
43.5296939999999992
21
-65.7810769999999962
0
LINE
8
BLACK
6
CONTINUOUS
10
43.5296939999999992
20
-65.7810769999999962
11
44.9790810000000008
21
-60.3718919999999954
0
LINE
8
BLACK
6
CONTINUOUS
10
44.9790810000000008
20
-60.3718919999999954
11
61.3998199999999983
21
-64.7718160000000012
0
LINE
8
BLACK
6
CONTINUOUS
10
39.8931029999999964
20
-71.432423
11
38.4437159999999949
21
-76.8416079999999937
0
LINE
8
BLACK
6
CONTINUOUS
10
38.4437159999999949
20
-76.8416079999999937
11
22.0229769999999974
21
-72.4416839999999951
0
LINE
8
BLACK
6
CONTINUOUS
10
22.0229769999999974
20
-72.4416839999999951
11
23.4723639999999989
21
-67.0324990000000014
0
LINE
8
BLACK
6
CONTINUOUS
10
23.4723639999999989
20
-67.0324990000000014
11
39.8931029999999964
21
-71.432423
  0
ENDSEC
  0
EOF
