<?xml version="1.0" standalone="no"?>
 <!DOCTYPE svg PUBLIC "-//W3C//DTD SVG 1.1//EN" 
 "http://www.w3.org/Graphics/SVG/1.1/DTD/svg11.dtd"> 
<svg
  xmlns:svg="http://www.w3.org/2000/svg"
  xmlns="http://www.w3.org/2000/svg"
  xmlns:xlink="http://www.w3.org/1999/xlink"
  version="1.1"
  width="297.0022mm" height="210.0072mm" viewBox="0.0000 0.0000 297.0022 210.0072">
<title>SVG Image created as lazyboy36-B_Fab.svg date 2024/04/02 21:51:48 </title>
  <desc>Image generated by PCBNEW </desc>
<g style="fill:#000000; fill-opacity:1.0000;stroke:#000000; stroke-opacity:1.0000;
stroke-linecap:round; stroke-linejoin:round;"
 transform="translate(0 0) scale(1 1)">
</g>
<g style="fill:none; 
stroke:#000000; stroke-width:0.1500; stroke-opacity:1; 
stroke-linecap:round; stroke-linejoin:round;">
<path d="M177.0022 166.0072
L285.0022 166.0072
L285.0022 198.0072
L177.0022 198.0072
L177.0022 166.0072
" />
</g>
<g style="fill:none; 
stroke:#000000; stroke-width:0.1500; stroke-opacity:1; 
stroke-linecap:round; stroke-linejoin:round;">
<path d="M10.0000 10.0000
L287.0022 10.0000
L287.0022 200.0072
L10.0000 200.0072
L10.0000 10.0000
" />
</g>
<g style="fill:none; 
stroke:#000000; stroke-width:0.1500; stroke-opacity:1; 
stroke-linecap:round; stroke-linejoin:round;">
<path d="M12.0000 12.0000
L285.0022 12.0000
L285.0022 198.0072
L12.0000 198.0072
L12.0000 12.0000
" />
</g>
<g style="fill:none; 
stroke:#000000; stroke-width:0.1500; stroke-opacity:1; 
stroke-linecap:round; stroke-linejoin:round;">
<path d="M60.0000 12.0000
L60.0000 10.0000
" />
</g>
<g style="fill:none; 
stroke:#000000; stroke-width:0.1500; stroke-opacity:1; 
stroke-linecap:round; stroke-linejoin:round;">
<path d="M110.0000 12.0000
L110.0000 10.0000
" />
</g>
<g style="fill:none; 
stroke:#000000; stroke-width:0.1500; stroke-opacity:1; 
stroke-linecap:round; stroke-linejoin:round;">
<path d="M160.0000 12.0000
L160.0000 10.0000
" />
</g>
<g style="fill:none; 
stroke:#000000; stroke-width:0.1500; stroke-opacity:1; 
stroke-linecap:round; stroke-linejoin:round;">
<path d="M210.0000 12.0000
L210.0000 10.0000
" />
</g>
<g style="fill:none; 
stroke:#000000; stroke-width:0.1500; stroke-opacity:1; 
stroke-linecap:round; stroke-linejoin:round;">
<path d="M260.0000 12.0000
L260.0000 10.0000
" />
</g>
<g style="fill:none; 
stroke:#000000; stroke-width:0.1500; stroke-opacity:1; 
stroke-linecap:round; stroke-linejoin:round;">
<text x="35.0000" y="11.6500"
textLength="1.4281" font-size="1.7333" lengthAdjust="spacingAndGlyphs"
text-anchor="start" opacity="0">1</text>
<g class="stroked-text"><desc>1</desc>
<path d="M36.0892 11.5936
L35.3463 11.5936
" />
<path d="M35.7177 11.5936
L35.7177 10.2936
" />
<path d="M35.7177 10.2936
L35.5939 10.4793
" />
<path d="M35.5939 10.4793
L35.4701 10.6031
" />
<path d="M35.4701 10.6031
L35.3463 10.6650
" />
</g></g>
<g style="fill:none; 
stroke:#000000; stroke-width:0.1500; stroke-opacity:1; 
stroke-linecap:round; stroke-linejoin:round;">
<text x="85.0000" y="11.6500"
textLength="1.4281" font-size="1.7333" lengthAdjust="spacingAndGlyphs"
text-anchor="start" opacity="0">2</text>
<g class="stroked-text"><desc>2</desc>
<path d="M85.3463 10.4174
L85.4082 10.3555
" />
<path d="M85.4082 10.3555
L85.5320 10.2936
" />
<path d="M85.5320 10.2936
L85.8415 10.2936
" />
<path d="M85.8415 10.2936
L85.9654 10.3555
" />
<path d="M85.9654 10.3555
L86.0273 10.4174
" />
<path d="M86.0273 10.4174
L86.0892 10.5412
" />
<path d="M86.0892 10.5412
L86.0892 10.6650
" />
<path d="M86.0892 10.6650
L86.0273 10.8507
" />
<path d="M86.0273 10.8507
L85.2844 11.5936
" />
<path d="M85.2844 11.5936
L86.0892 11.5936
" />
</g></g>
<g style="fill:none; 
stroke:#000000; stroke-width:0.1500; stroke-opacity:1; 
stroke-linecap:round; stroke-linejoin:round;">
<text x="135.0000" y="11.6500"
textLength="1.4281" font-size="1.7333" lengthAdjust="spacingAndGlyphs"
text-anchor="start" opacity="0">3</text>
<g class="stroked-text"><desc>3</desc>
<path d="M135.2844 10.2936
L136.0892 10.2936
" />
<path d="M136.0892 10.2936
L135.6558 10.7888
" />
<path d="M135.6558 10.7888
L135.8415 10.7888
" />
<path d="M135.8415 10.7888
L135.9654 10.8507
" />
<path d="M135.9654 10.8507
L136.0273 10.9127
" />
<path d="M136.0273 10.9127
L136.0892 11.0365
" />
<path d="M136.0892 11.0365
L136.0892 11.3460
" />
<path d="M136.0892 11.3460
L136.0273 11.4698
" />
<path d="M136.0273 11.4698
L135.9654 11.5317
" />
<path d="M135.9654 11.5317
L135.8415 11.5936
" />
<path d="M135.8415 11.5936
L135.4701 11.5936
" />
<path d="M135.4701 11.5936
L135.3463 11.5317
" />
<path d="M135.3463 11.5317
L135.2844 11.4698
" />
</g></g>
<g style="fill:none; 
stroke:#000000; stroke-width:0.1500; stroke-opacity:1; 
stroke-linecap:round; stroke-linejoin:round;">
<text x="185.0000" y="11.6500"
textLength="1.4281" font-size="1.7333" lengthAdjust="spacingAndGlyphs"
text-anchor="start" opacity="0">4</text>
<g class="stroked-text"><desc>4</desc>
<path d="M185.9654 10.7269
L185.9654 11.5936
" />
<path d="M185.6558 10.2317
L185.3463 11.1603
" />
<path d="M185.3463 11.1603
L186.1511 11.1603
" />
</g></g>
<g style="fill:none; 
stroke:#000000; stroke-width:0.1500; stroke-opacity:1; 
stroke-linecap:round; stroke-linejoin:round;">
<text x="235.0000" y="11.6500"
textLength="1.4281" font-size="1.7333" lengthAdjust="spacingAndGlyphs"
text-anchor="start" opacity="0">5</text>
<g class="stroked-text"><desc>5</desc>
<path d="M236.0273 10.2936
L235.4082 10.2936
" />
<path d="M235.4082 10.2936
L235.3463 10.9127
" />
<path d="M235.3463 10.9127
L235.4082 10.8507
" />
<path d="M235.4082 10.8507
L235.5320 10.7888
" />
<path d="M235.5320 10.7888
L235.8415 10.7888
" />
<path d="M235.8415 10.7888
L235.9654 10.8507
" />
<path d="M235.9654 10.8507
L236.0273 10.9127
" />
<path d="M236.0273 10.9127
L236.0892 11.0365
" />
<path d="M236.0892 11.0365
L236.0892 11.3460
" />
<path d="M236.0892 11.3460
L236.0273 11.4698
" />
<path d="M236.0273 11.4698
L235.9654 11.5317
" />
<path d="M235.9654 11.5317
L235.8415 11.5936
" />
<path d="M235.8415 11.5936
L235.5320 11.5936
" />
<path d="M235.5320 11.5936
L235.4082 11.5317
" />
<path d="M235.4082 11.5317
L235.3463 11.4698
" />
</g></g>
<g style="fill:none; 
stroke:#000000; stroke-width:0.1500; stroke-opacity:1; 
stroke-linecap:round; stroke-linejoin:round;">
<text x="285.0000" y="11.6500"
textLength="1.4281" font-size="1.7333" lengthAdjust="spacingAndGlyphs"
text-anchor="start" opacity="0">6</text>
<g class="stroked-text"><desc>6</desc>
<path d="M285.9654 10.2936
L285.7177 10.2936
" />
<path d="M285.7177 10.2936
L285.5939 10.3555
" />
<path d="M285.5939 10.3555
L285.5320 10.4174
" />
<path d="M285.5320 10.4174
L285.4082 10.6031
" />
<path d="M285.4082 10.6031
L285.3463 10.8507
" />
<path d="M285.3463 10.8507
L285.3463 11.3460
" />
<path d="M285.3463 11.3460
L285.4082 11.4698
" />
<path d="M285.4082 11.4698
L285.4701 11.5317
" />
<path d="M285.4701 11.5317
L285.5939 11.5936
" />
<path d="M285.5939 11.5936
L285.8415 11.5936
" />
<path d="M285.8415 11.5936
L285.9654 11.5317
" />
<path d="M285.9654 11.5317
L286.0273 11.4698
" />
<path d="M286.0273 11.4698
L286.0892 11.3460
" />
<path d="M286.0892 11.3460
L286.0892 11.0365
" />
<path d="M286.0892 11.0365
L286.0273 10.9127
" />
<path d="M286.0273 10.9127
L285.9654 10.8507
" />
<path d="M285.9654 10.8507
L285.8415 10.7888
" />
<path d="M285.8415 10.7888
L285.5939 10.7888
" />
<path d="M285.5939 10.7888
L285.4701 10.8507
" />
<path d="M285.4701 10.8507
L285.4082 10.9127
" />
<path d="M285.4082 10.9127
L285.3463 11.0365
" />
</g></g>
<g style="fill:none; 
stroke:#000000; stroke-width:0.1500; stroke-opacity:1; 
stroke-linecap:round; stroke-linejoin:round;">
<path d="M60.0000 198.0072
L60.0000 200.0072
" />
</g>
<g style="fill:none; 
stroke:#000000; stroke-width:0.1500; stroke-opacity:1; 
stroke-linecap:round; stroke-linejoin:round;">
<path d="M110.0000 198.0072
L110.0000 200.0072
" />
</g>
<g style="fill:none; 
stroke:#000000; stroke-width:0.1500; stroke-opacity:1; 
stroke-linecap:round; stroke-linejoin:round;">
<path d="M160.0000 198.0072
L160.0000 200.0072
" />
</g>
<g style="fill:none; 
stroke:#000000; stroke-width:0.1500; stroke-opacity:1; 
stroke-linecap:round; stroke-linejoin:round;">
<path d="M210.0000 198.0072
L210.0000 200.0072
" />
</g>
<g style="fill:none; 
stroke:#000000; stroke-width:0.1500; stroke-opacity:1; 
stroke-linecap:round; stroke-linejoin:round;">
<path d="M260.0000 198.0072
L260.0000 200.0072
" />
</g>
<g style="fill:none; 
stroke:#000000; stroke-width:0.1500; stroke-opacity:1; 
stroke-linecap:round; stroke-linejoin:round;">
<text x="35.0000" y="199.6572"
textLength="1.4281" font-size="1.7333" lengthAdjust="spacingAndGlyphs"
text-anchor="start" opacity="0">1</text>
<g class="stroked-text"><desc>1</desc>
<path d="M36.0892 199.6008
L35.3463 199.6008
" />
<path d="M35.7177 199.6008
L35.7177 198.3008
" />
<path d="M35.7177 198.3008
L35.5939 198.4865
" />
<path d="M35.5939 198.4865
L35.4701 198.6103
" />
<path d="M35.4701 198.6103
L35.3463 198.6722
" />
</g></g>
<g style="fill:none; 
stroke:#000000; stroke-width:0.1500; stroke-opacity:1; 
stroke-linecap:round; stroke-linejoin:round;">
<text x="85.0000" y="199.6572"
textLength="1.4281" font-size="1.7333" lengthAdjust="spacingAndGlyphs"
text-anchor="start" opacity="0">2</text>
<g class="stroked-text"><desc>2</desc>
<path d="M85.3463 198.4246
L85.4082 198.3627
" />
<path d="M85.4082 198.3627
L85.5320 198.3008
" />
<path d="M85.5320 198.3008
L85.8415 198.3008
" />
<path d="M85.8415 198.3008
L85.9654 198.3627
" />
<path d="M85.9654 198.3627
L86.0273 198.4246
" />
<path d="M86.0273 198.4246
L86.0892 198.5484
" />
<path d="M86.0892 198.5484
L86.0892 198.6722
" />
<path d="M86.0892 198.6722
L86.0273 198.8579
" />
<path d="M86.0273 198.8579
L85.2844 199.6008
" />
<path d="M85.2844 199.6008
L86.0892 199.6008
" />
</g></g>
<g style="fill:none; 
stroke:#000000; stroke-width:0.1500; stroke-opacity:1; 
stroke-linecap:round; stroke-linejoin:round;">
<text x="135.0000" y="199.6572"
textLength="1.4281" font-size="1.7333" lengthAdjust="spacingAndGlyphs"
text-anchor="start" opacity="0">3</text>
<g class="stroked-text"><desc>3</desc>
<path d="M135.2844 198.3008
L136.0892 198.3008
" />
<path d="M136.0892 198.3008
L135.6558 198.7960
" />
<path d="M135.6558 198.7960
L135.8415 198.7960
" />
<path d="M135.8415 198.7960
L135.9654 198.8579
" />
<path d="M135.9654 198.8579
L136.0273 198.9199
" />
<path d="M136.0273 198.9199
L136.0892 199.0437
" />
<path d="M136.0892 199.0437
L136.0892 199.3532
" />
<path d="M136.0892 199.3532
L136.0273 199.4770
" />
<path d="M136.0273 199.4770
L135.9654 199.5389
" />
<path d="M135.9654 199.5389
L135.8415 199.6008
" />
<path d="M135.8415 199.6008
L135.4701 199.6008
" />
<path d="M135.4701 199.6008
L135.3463 199.5389
" />
<path d="M135.3463 199.5389
L135.2844 199.4770
" />
</g></g>
<g style="fill:none; 
stroke:#000000; stroke-width:0.1500; stroke-opacity:1; 
stroke-linecap:round; stroke-linejoin:round;">
<text x="185.0000" y="199.6572"
textLength="1.4281" font-size="1.7333" lengthAdjust="spacingAndGlyphs"
text-anchor="start" opacity="0">4</text>
<g class="stroked-text"><desc>4</desc>
<path d="M185.9654 198.7341
L185.9654 199.6008
" />
<path d="M185.6558 198.2389
L185.3463 199.1675
" />
<path d="M185.3463 199.1675
L186.1511 199.1675
" />
</g></g>
<g style="fill:none; 
stroke:#000000; stroke-width:0.1500; stroke-opacity:1; 
stroke-linecap:round; stroke-linejoin:round;">
<text x="235.0000" y="199.6572"
textLength="1.4281" font-size="1.7333" lengthAdjust="spacingAndGlyphs"
text-anchor="start" opacity="0">5</text>
<g class="stroked-text"><desc>5</desc>
<path d="M236.0273 198.3008
L235.4082 198.3008
" />
<path d="M235.4082 198.3008
L235.3463 198.9199
" />
<path d="M235.3463 198.9199
L235.4082 198.8579
" />
<path d="M235.4082 198.8579
L235.5320 198.7960
" />
<path d="M235.5320 198.7960
L235.8415 198.7960
" />
<path d="M235.8415 198.7960
L235.9654 198.8579
" />
<path d="M235.9654 198.8579
L236.0273 198.9199
" />
<path d="M236.0273 198.9199
L236.0892 199.0437
" />
<path d="M236.0892 199.0437
L236.0892 199.3532
" />
<path d="M236.0892 199.3532
L236.0273 199.4770
" />
<path d="M236.0273 199.4770
L235.9654 199.5389
" />
<path d="M235.9654 199.5389
L235.8415 199.6008
" />
<path d="M235.8415 199.6008
L235.5320 199.6008
" />
<path d="M235.5320 199.6008
L235.4082 199.5389
" />
<path d="M235.4082 199.5389
L235.3463 199.4770
" />
</g></g>
<g style="fill:none; 
stroke:#000000; stroke-width:0.1500; stroke-opacity:1; 
stroke-linecap:round; stroke-linejoin:round;">
<text x="285.0000" y="199.6572"
textLength="1.4281" font-size="1.7333" lengthAdjust="spacingAndGlyphs"
text-anchor="start" opacity="0">6</text>
<g class="stroked-text"><desc>6</desc>
<path d="M285.9654 198.3008
L285.7177 198.3008
" />
<path d="M285.7177 198.3008
L285.5939 198.3627
" />
<path d="M285.5939 198.3627
L285.5320 198.4246
" />
<path d="M285.5320 198.4246
L285.4082 198.6103
" />
<path d="M285.4082 198.6103
L285.3463 198.8579
" />
<path d="M285.3463 198.8579
L285.3463 199.3532
" />
<path d="M285.3463 199.3532
L285.4082 199.4770
" />
<path d="M285.4082 199.4770
L285.4701 199.5389
" />
<path d="M285.4701 199.5389
L285.5939 199.6008
" />
<path d="M285.5939 199.6008
L285.8415 199.6008
" />
<path d="M285.8415 199.6008
L285.9654 199.5389
" />
<path d="M285.9654 199.5389
L286.0273 199.4770
" />
<path d="M286.0273 199.4770
L286.0892 199.3532
" />
<path d="M286.0892 199.3532
L286.0892 199.0437
" />
<path d="M286.0892 199.0437
L286.0273 198.9199
" />
<path d="M286.0273 198.9199
L285.9654 198.8579
" />
<path d="M285.9654 198.8579
L285.8415 198.7960
" />
<path d="M285.8415 198.7960
L285.5939 198.7960
" />
<path d="M285.5939 198.7960
L285.4701 198.8579
" />
<path d="M285.4701 198.8579
L285.4082 198.9199
" />
<path d="M285.4082 198.9199
L285.3463 199.0437
" />
</g></g>
<g style="fill:none; 
stroke:#000000; stroke-width:0.1500; stroke-opacity:1; 
stroke-linecap:round; stroke-linejoin:round;">
<path d="M10.0000 60.0000
L12.0000 60.0000
" />
</g>
<g style="fill:none; 
stroke:#000000; stroke-width:0.1500; stroke-opacity:1; 
stroke-linecap:round; stroke-linejoin:round;">
<path d="M10.0000 110.0000
L12.0000 110.0000
" />
</g>
<g style="fill:none; 
stroke:#000000; stroke-width:0.1500; stroke-opacity:1; 
stroke-linecap:round; stroke-linejoin:round;">
<path d="M10.0000 160.0000
L12.0000 160.0000
" />
</g>
<g style="fill:none; 
stroke:#000000; stroke-width:0.1500; stroke-opacity:1; 
stroke-linecap:round; stroke-linejoin:round;">
<text x="11.0000" y="35.6500"
textLength="1.3043" font-size="1.7333" lengthAdjust="spacingAndGlyphs"
text-anchor="middle" opacity="0">A</text>
<g class="stroked-text"><desc>A</desc>
<path d="M10.6905 35.2222
L11.3095 35.2222
" />
<path d="M10.5667 35.5936
L11.0000 34.2936
" />
<path d="M11.0000 34.2936
L11.4333 35.5936
" />
</g></g>
<g style="fill:none; 
stroke:#000000; stroke-width:0.1500; stroke-opacity:1; 
stroke-linecap:round; stroke-linejoin:round;">
<text x="11.0000" y="85.6500"
textLength="1.4900" font-size="1.7333" lengthAdjust="spacingAndGlyphs"
text-anchor="middle" opacity="0">B</text>
<g class="stroked-text"><desc>B</desc>
<path d="M11.0929 84.9127
L11.2786 84.9746
" />
<path d="M11.2786 84.9746
L11.3405 85.0365
" />
<path d="M11.3405 85.0365
L11.4024 85.1603
" />
<path d="M11.4024 85.1603
L11.4024 85.3460
" />
<path d="M11.4024 85.3460
L11.3405 85.4698
" />
<path d="M11.3405 85.4698
L11.2786 85.5317
" />
<path d="M11.2786 85.5317
L11.1548 85.5936
" />
<path d="M11.1548 85.5936
L10.6595 85.5936
" />
<path d="M10.6595 85.5936
L10.6595 84.2936
" />
<path d="M10.6595 84.2936
L11.0929 84.2936
" />
<path d="M11.0929 84.2936
L11.2167 84.3555
" />
<path d="M11.2167 84.3555
L11.2786 84.4174
" />
<path d="M11.2786 84.4174
L11.3405 84.5412
" />
<path d="M11.3405 84.5412
L11.3405 84.6650
" />
<path d="M11.3405 84.6650
L11.2786 84.7888
" />
<path d="M11.2786 84.7888
L11.2167 84.8507
" />
<path d="M11.2167 84.8507
L11.0929 84.9127
" />
<path d="M11.0929 84.9127
L10.6595 84.9127
" />
</g></g>
<g style="fill:none; 
stroke:#000000; stroke-width:0.1500; stroke-opacity:1; 
stroke-linecap:round; stroke-linejoin:round;">
<text x="11.0000" y="135.6500"
textLength="1.4900" font-size="1.7333" lengthAdjust="spacingAndGlyphs"
text-anchor="middle" opacity="0">C</text>
<g class="stroked-text"><desc>C</desc>
<path d="M11.4024 135.4698
L11.3405 135.5317
" />
<path d="M11.3405 135.5317
L11.1548 135.5936
" />
<path d="M11.1548 135.5936
L11.0310 135.5936
" />
<path d="M11.0310 135.5936
L10.8452 135.5317
" />
<path d="M10.8452 135.5317
L10.7214 135.4079
" />
<path d="M10.7214 135.4079
L10.6595 135.2841
" />
<path d="M10.6595 135.2841
L10.5976 135.0365
" />
<path d="M10.5976 135.0365
L10.5976 134.8507
" />
<path d="M10.5976 134.8507
L10.6595 134.6031
" />
<path d="M10.6595 134.6031
L10.7214 134.4793
" />
<path d="M10.7214 134.4793
L10.8452 134.3555
" />
<path d="M10.8452 134.3555
L11.0310 134.2936
" />
<path d="M11.0310 134.2936
L11.1548 134.2936
" />
<path d="M11.1548 134.2936
L11.3405 134.3555
" />
<path d="M11.3405 134.3555
L11.4024 134.4174
" />
</g></g>
<g style="fill:none; 
stroke:#000000; stroke-width:0.1500; stroke-opacity:1; 
stroke-linecap:round; stroke-linejoin:round;">
<text x="11.0000" y="185.6500"
textLength="1.4900" font-size="1.7333" lengthAdjust="spacingAndGlyphs"
text-anchor="middle" opacity="0">D</text>
<g class="stroked-text"><desc>D</desc>
<path d="M10.6595 185.5936
L10.6595 184.2936
" />
<path d="M10.6595 184.2936
L10.9690 184.2936
" />
<path d="M10.9690 184.2936
L11.1548 184.3555
" />
<path d="M11.1548 184.3555
L11.2786 184.4793
" />
<path d="M11.2786 184.4793
L11.3405 184.6031
" />
<path d="M11.3405 184.6031
L11.4024 184.8507
" />
<path d="M11.4024 184.8507
L11.4024 185.0365
" />
<path d="M11.4024 185.0365
L11.3405 185.2841
" />
<path d="M11.3405 185.2841
L11.2786 185.4079
" />
<path d="M11.2786 185.4079
L11.1548 185.5317
" />
<path d="M11.1548 185.5317
L10.9690 185.5936
" />
<path d="M10.9690 185.5936
L10.6595 185.5936
" />
</g></g>
<g style="fill:none; 
stroke:#000000; stroke-width:0.1500; stroke-opacity:1; 
stroke-linecap:round; stroke-linejoin:round;">
<path d="M287.0022 60.0000
L285.0022 60.0000
" />
</g>
<g style="fill:none; 
stroke:#000000; stroke-width:0.1500; stroke-opacity:1; 
stroke-linecap:round; stroke-linejoin:round;">
<path d="M287.0022 110.0000
L285.0022 110.0000
" />
</g>
<g style="fill:none; 
stroke:#000000; stroke-width:0.1500; stroke-opacity:1; 
stroke-linecap:round; stroke-linejoin:round;">
<path d="M287.0022 160.0000
L285.0022 160.0000
" />
</g>
<g style="fill:none; 
stroke:#000000; stroke-width:0.1500; stroke-opacity:1; 
stroke-linecap:round; stroke-linejoin:round;">
<text x="286.0022" y="35.6500"
textLength="1.3043" font-size="1.7333" lengthAdjust="spacingAndGlyphs"
text-anchor="middle" opacity="0">A</text>
<g class="stroked-text"><desc>A</desc>
<path d="M285.6927 35.2222
L286.3117 35.2222
" />
<path d="M285.5689 35.5936
L286.0022 34.2936
" />
<path d="M286.0022 34.2936
L286.4355 35.5936
" />
</g></g>
<g style="fill:none; 
stroke:#000000; stroke-width:0.1500; stroke-opacity:1; 
stroke-linecap:round; stroke-linejoin:round;">
<text x="286.0022" y="85.6500"
textLength="1.4900" font-size="1.7333" lengthAdjust="spacingAndGlyphs"
text-anchor="middle" opacity="0">B</text>
<g class="stroked-text"><desc>B</desc>
<path d="M286.0951 84.9127
L286.2808 84.9746
" />
<path d="M286.2808 84.9746
L286.3427 85.0365
" />
<path d="M286.3427 85.0365
L286.4046 85.1603
" />
<path d="M286.4046 85.1603
L286.4046 85.3460
" />
<path d="M286.4046 85.3460
L286.3427 85.4698
" />
<path d="M286.3427 85.4698
L286.2808 85.5317
" />
<path d="M286.2808 85.5317
L286.1570 85.5936
" />
<path d="M286.1570 85.5936
L285.6617 85.5936
" />
<path d="M285.6617 85.5936
L285.6617 84.2936
" />
<path d="M285.6617 84.2936
L286.0951 84.2936
" />
<path d="M286.0951 84.2936
L286.2189 84.3555
" />
<path d="M286.2189 84.3555
L286.2808 84.4174
" />
<path d="M286.2808 84.4174
L286.3427 84.5412
" />
<path d="M286.3427 84.5412
L286.3427 84.6650
" />
<path d="M286.3427 84.6650
L286.2808 84.7888
" />
<path d="M286.2808 84.7888
L286.2189 84.8507
" />
<path d="M286.2189 84.8507
L286.0951 84.9127
" />
<path d="M286.0951 84.9127
L285.6617 84.9127
" />
</g></g>
<g style="fill:none; 
stroke:#000000; stroke-width:0.1500; stroke-opacity:1; 
stroke-linecap:round; stroke-linejoin:round;">
<text x="286.0022" y="135.6500"
textLength="1.4900" font-size="1.7333" lengthAdjust="spacingAndGlyphs"
text-anchor="middle" opacity="0">C</text>
<g class="stroked-text"><desc>C</desc>
<path d="M286.4046 135.4698
L286.3427 135.5317
" />
<path d="M286.3427 135.5317
L286.1570 135.5936
" />
<path d="M286.1570 135.5936
L286.0332 135.5936
" />
<path d="M286.0332 135.5936
L285.8474 135.5317
" />
<path d="M285.8474 135.5317
L285.7236 135.4079
" />
<path d="M285.7236 135.4079
L285.6617 135.2841
" />
<path d="M285.6617 135.2841
L285.5998 135.0365
" />
<path d="M285.5998 135.0365
L285.5998 134.8507
" />
<path d="M285.5998 134.8507
L285.6617 134.6031
" />
<path d="M285.6617 134.6031
L285.7236 134.4793
" />
<path d="M285.7236 134.4793
L285.8474 134.3555
" />
<path d="M285.8474 134.3555
L286.0332 134.2936
" />
<path d="M286.0332 134.2936
L286.1570 134.2936
" />
<path d="M286.1570 134.2936
L286.3427 134.3555
" />
<path d="M286.3427 134.3555
L286.4046 134.4174
" />
</g></g>
<g style="fill:none; 
stroke:#000000; stroke-width:0.1500; stroke-opacity:1; 
stroke-linecap:round; stroke-linejoin:round;">
<text x="286.0022" y="185.6500"
textLength="1.4900" font-size="1.7333" lengthAdjust="spacingAndGlyphs"
text-anchor="middle" opacity="0">D</text>
<g class="stroked-text"><desc>D</desc>
<path d="M285.6617 185.5936
L285.6617 184.2936
" />
<path d="M285.6617 184.2936
L285.9712 184.2936
" />
<path d="M285.9712 184.2936
L286.1570 184.3555
" />
<path d="M286.1570 184.3555
L286.2808 184.4793
" />
<path d="M286.2808 184.4793
L286.3427 184.6031
" />
<path d="M286.3427 184.6031
L286.4046 184.8507
" />
<path d="M286.4046 184.8507
L286.4046 185.0365
" />
<path d="M286.4046 185.0365
L286.3427 185.2841
" />
<path d="M286.3427 185.2841
L286.2808 185.4079
" />
<path d="M286.2808 185.4079
L286.1570 185.5317
" />
<path d="M286.1570 185.5317
L285.9712 185.5936
" />
<path d="M285.9712 185.5936
L285.6617 185.5936
" />
</g></g>
<g style="fill:none; 
stroke:#000000; stroke-width:0.1500; stroke-opacity:1; 
stroke-linecap:round; stroke-linejoin:round;">
<text x="200.0022" y="193.8572"
textLength="7.0071" font-size="2.0000" lengthAdjust="spacingAndGlyphs"
text-anchor="start" opacity="0">Date: </text>
<g class="stroked-text"><desc>Date: </desc>
<path d="M200.4580 193.7933
L200.4580 192.2933
" />
<path d="M200.4580 192.2933
L200.8152 192.2933
" />
<path d="M200.8152 192.2933
L201.0295 192.3648
" />
<path d="M201.0295 192.3648
L201.1723 192.5076
" />
<path d="M201.1723 192.5076
L201.2437 192.6505
" />
<path d="M201.2437 192.6505
L201.3152 192.9362
" />
<path d="M201.3152 192.9362
L201.3152 193.1505
" />
<path d="M201.3152 193.1505
L201.2437 193.4362
" />
<path d="M201.2437 193.4362
L201.1723 193.5790
" />
<path d="M201.1723 193.5790
L201.0295 193.7219
" />
<path d="M201.0295 193.7219
L200.8152 193.7933
" />
<path d="M200.8152 193.7933
L200.4580 193.7933
" />
<path d="M202.6009 193.7933
L202.6009 193.0076
" />
<path d="M202.6009 193.0076
L202.5295 192.8648
" />
<path d="M202.5295 192.8648
L202.3866 192.7933
" />
<path d="M202.3866 192.7933
L202.1009 192.7933
" />
<path d="M202.1009 192.7933
L201.9580 192.8648
" />
<path d="M202.6009 193.7219
L202.4580 193.7933
" />
<path d="M202.4580 193.7933
L202.1009 193.7933
" />
<path d="M202.1009 193.7933
L201.9580 193.7219
" />
<path d="M201.9580 193.7219
L201.8866 193.5790
" />
<path d="M201.8866 193.5790
L201.8866 193.4362
" />
<path d="M201.8866 193.4362
L201.9580 193.2933
" />
<path d="M201.9580 193.2933
L202.1009 193.2219
" />
<path d="M202.1009 193.2219
L202.4580 193.2219
" />
<path d="M202.4580 193.2219
L202.6009 193.1505
" />
<path d="M203.1009 192.7933
L203.6723 192.7933
" />
<path d="M203.3152 192.2933
L203.3152 193.5790
" />
<path d="M203.3152 193.5790
L203.3866 193.7219
" />
<path d="M203.3866 193.7219
L203.5295 193.7933
" />
<path d="M203.5295 193.7933
L203.6723 193.7933
" />
<path d="M204.7437 193.7219
L204.6009 193.7933
" />
<path d="M204.6009 193.7933
L204.3152 193.7933
" />
<path d="M204.3152 193.7933
L204.1723 193.7219
" />
<path d="M204.1723 193.7219
L204.1009 193.5790
" />
<path d="M204.1009 193.5790
L204.1009 193.0076
" />
<path d="M204.1009 193.0076
L204.1723 192.8648
" />
<path d="M204.1723 192.8648
L204.3152 192.7933
" />
<path d="M204.3152 192.7933
L204.6009 192.7933
" />
<path d="M204.6009 192.7933
L204.7437 192.8648
" />
<path d="M204.7437 192.8648
L204.8152 193.0076
" />
<path d="M204.8152 193.0076
L204.8152 193.1505
" />
<path d="M204.8152 193.1505
L204.1009 193.2933
" />
<path d="M205.4580 193.6505
L205.5295 193.7219
" />
<path d="M205.5295 193.7219
L205.4580 193.7933
" />
<path d="M205.4580 193.7933
L205.3866 193.7219
" />
<path d="M205.3866 193.7219
L205.4580 193.6505
" />
<path d="M205.4580 193.6505
L205.4580 193.7933
" />
<path d="M205.4580 192.8648
L205.5295 192.9362
" />
<path d="M205.5295 192.9362
L205.4580 193.0076
" />
<path d="M205.4580 193.0076
L205.3866 192.9362
" />
<path d="M205.3866 192.9362
L205.4580 192.8648
" />
<path d="M205.4580 192.8648
L205.4580 193.0076
" />
</g></g>
<g style="fill:none; 
stroke:#000000; stroke-width:0.1500; stroke-opacity:1; 
stroke-linecap:round; stroke-linejoin:round;">
<path d="M177.0022 194.5072
L285.0022 194.5072
" />
</g>
<g style="fill:none; 
stroke:#000000; stroke-width:0.1500; stroke-opacity:1; 
stroke-linecap:round; stroke-linejoin:round;">
<text x="178.0022" y="196.6572"
textLength="20.8643" font-size="2.0000" lengthAdjust="spacingAndGlyphs"
text-anchor="start" opacity="0">KiCad E.D.A. 8.0.1</text>
<g class="stroked-text"><desc>KiCad E.D.A. 8.0.1</desc>
<path d="M178.4580 196.5933
L178.4580 195.0933
" />
<path d="M179.3152 196.5933
L178.6723 195.7362
" />
<path d="M179.3152 195.0933
L178.4580 195.9505
" />
<path d="M179.9580 196.5933
L179.9580 195.5933
" />
<path d="M179.9580 195.0933
L179.8866 195.1648
" />
<path d="M179.8866 195.1648
L179.9580 195.2362
" />
<path d="M179.9580 195.2362
L180.0295 195.1648
" />
<path d="M180.0295 195.1648
L179.9580 195.0933
" />
<path d="M179.9580 195.0933
L179.9580 195.2362
" />
<path d="M181.5295 196.4505
L181.4580 196.5219
" />
<path d="M181.4580 196.5219
L181.2437 196.5933
" />
<path d="M181.2437 196.5933
L181.1009 196.5933
" />
<path d="M181.1009 196.5933
L180.8866 196.5219
" />
<path d="M180.8866 196.5219
L180.7437 196.3790
" />
<path d="M180.7437 196.3790
L180.6723 196.2362
" />
<path d="M180.6723 196.2362
L180.6009 195.9505
" />
<path d="M180.6009 195.9505
L180.6009 195.7362
" />
<path d="M180.6009 195.7362
L180.6723 195.4505
" />
<path d="M180.6723 195.4505
L180.7437 195.3076
" />
<path d="M180.7437 195.3076
L180.8866 195.1648
" />
<path d="M180.8866 195.1648
L181.1009 195.0933
" />
<path d="M181.1009 195.0933
L181.2437 195.0933
" />
<path d="M181.2437 195.0933
L181.4580 195.1648
" />
<path d="M181.4580 195.1648
L181.5295 195.2362
" />
<path d="M182.8152 196.5933
L182.8152 195.8076
" />
<path d="M182.8152 195.8076
L182.7437 195.6648
" />
<path d="M182.7437 195.6648
L182.6009 195.5933
" />
<path d="M182.6009 195.5933
L182.3152 195.5933
" />
<path d="M182.3152 195.5933
L182.1723 195.6648
" />
<path d="M182.8152 196.5219
L182.6723 196.5933
" />
<path d="M182.6723 196.5933
L182.3152 196.5933
" />
<path d="M182.3152 196.5933
L182.1723 196.5219
" />
<path d="M182.1723 196.5219
L182.1009 196.3790
" />
<path d="M182.1009 196.3790
L182.1009 196.2362
" />
<path d="M182.1009 196.2362
L182.1723 196.0933
" />
<path d="M182.1723 196.0933
L182.3152 196.0219
" />
<path d="M182.3152 196.0219
L182.6723 196.0219
" />
<path d="M182.6723 196.0219
L182.8152 195.9505
" />
<path d="M184.1723 196.5933
L184.1723 195.0933
" />
<path d="M184.1723 196.5219
L184.0295 196.5933
" />
<path d="M184.0295 196.5933
L183.7437 196.5933
" />
<path d="M183.7437 196.5933
L183.6009 196.5219
" />
<path d="M183.6009 196.5219
L183.5295 196.4505
" />
<path d="M183.5295 196.4505
L183.4580 196.3076
" />
<path d="M183.4580 196.3076
L183.4580 195.8790
" />
<path d="M183.4580 195.8790
L183.5295 195.7362
" />
<path d="M183.5295 195.7362
L183.6009 195.6648
" />
<path d="M183.6009 195.6648
L183.7437 195.5933
" />
<path d="M183.7437 195.5933
L184.0295 195.5933
" />
<path d="M184.0295 195.5933
L184.1723 195.6648
" />
<path d="M186.0295 195.8076
L186.5295 195.8076
" />
<path d="M186.7437 196.5933
L186.0295 196.5933
" />
<path d="M186.0295 196.5933
L186.0295 195.0933
" />
<path d="M186.0295 195.0933
L186.7437 195.0933
" />
<path d="M187.3866 196.4505
L187.4580 196.5219
" />
<path d="M187.4580 196.5219
L187.3866 196.5933
" />
<path d="M187.3866 196.5933
L187.3152 196.5219
" />
<path d="M187.3152 196.5219
L187.3866 196.4505
" />
<path d="M187.3866 196.4505
L187.3866 196.5933
" />
<path d="M188.1009 196.5933
L188.1009 195.0933
" />
<path d="M188.1009 195.0933
L188.4580 195.0933
" />
<path d="M188.4580 195.0933
L188.6723 195.1648
" />
<path d="M188.6723 195.1648
L188.8152 195.3076
" />
<path d="M188.8152 195.3076
L188.8866 195.4505
" />
<path d="M188.8866 195.4505
L188.9580 195.7362
" />
<path d="M188.9580 195.7362
L188.9580 195.9505
" />
<path d="M188.9580 195.9505
L188.8866 196.2362
" />
<path d="M188.8866 196.2362
L188.8152 196.3790
" />
<path d="M188.8152 196.3790
L188.6723 196.5219
" />
<path d="M188.6723 196.5219
L188.4580 196.5933
" />
<path d="M188.4580 196.5933
L188.1009 196.5933
" />
<path d="M189.6009 196.4505
L189.6723 196.5219
" />
<path d="M189.6723 196.5219
L189.6009 196.5933
" />
<path d="M189.6009 196.5933
L189.5295 196.5219
" />
<path d="M189.5295 196.5219
L189.6009 196.4505
" />
<path d="M189.6009 196.4505
L189.6009 196.5933
" />
<path d="M190.2437 196.1648
L190.9580 196.1648
" />
<path d="M190.1009 196.5933
L190.6009 195.0933
" />
<path d="M190.6009 195.0933
L191.1009 196.5933
" />
<path d="M191.6009 196.4505
L191.6723 196.5219
" />
<path d="M191.6723 196.5219
L191.6009 196.5933
" />
<path d="M191.6009 196.5933
L191.5295 196.5219
" />
<path d="M191.5295 196.5219
L191.6009 196.4505
" />
<path d="M191.6009 196.4505
L191.6009 196.5933
" />
<path d="M193.6723 195.7362
L193.5295 195.6648
" />
<path d="M193.5295 195.6648
L193.4580 195.5933
" />
<path d="M193.4580 195.5933
L193.3866 195.4505
" />
<path d="M193.3866 195.4505
L193.3866 195.3790
" />
<path d="M193.3866 195.3790
L193.4580 195.2362
" />
<path d="M193.4580 195.2362
L193.5295 195.1648
" />
<path d="M193.5295 195.1648
L193.6723 195.0933
" />
<path d="M193.6723 195.0933
L193.9580 195.0933
" />
<path d="M193.9580 195.0933
L194.1009 195.1648
" />
<path d="M194.1009 195.1648
L194.1723 195.2362
" />
<path d="M194.1723 195.2362
L194.2437 195.3790
" />
<path d="M194.2437 195.3790
L194.2437 195.4505
" />
<path d="M194.2437 195.4505
L194.1723 195.5933
" />
<path d="M194.1723 195.5933
L194.1009 195.6648
" />
<path d="M194.1009 195.6648
L193.9580 195.7362
" />
<path d="M193.9580 195.7362
L193.6723 195.7362
" />
<path d="M193.6723 195.7362
L193.5295 195.8076
" />
<path d="M193.5295 195.8076
L193.4580 195.8790
" />
<path d="M193.4580 195.8790
L193.3866 196.0219
" />
<path d="M193.3866 196.0219
L193.3866 196.3076
" />
<path d="M193.3866 196.3076
L193.4580 196.4505
" />
<path d="M193.4580 196.4505
L193.5295 196.5219
" />
<path d="M193.5295 196.5219
L193.6723 196.5933
" />
<path d="M193.6723 196.5933
L193.9580 196.5933
" />
<path d="M193.9580 196.5933
L194.1009 196.5219
" />
<path d="M194.1009 196.5219
L194.1723 196.4505
" />
<path d="M194.1723 196.4505
L194.2437 196.3076
" />
<path d="M194.2437 196.3076
L194.2437 196.0219
" />
<path d="M194.2437 196.0219
L194.1723 195.8790
" />
<path d="M194.1723 195.8790
L194.1009 195.8076
" />
<path d="M194.1009 195.8076
L193.9580 195.7362
" />
<path d="M194.8866 196.4505
L194.9580 196.5219
" />
<path d="M194.9580 196.5219
L194.8866 196.5933
" />
<path d="M194.8866 196.5933
L194.8152 196.5219
" />
<path d="M194.8152 196.5219
L194.8866 196.4505
" />
<path d="M194.8866 196.4505
L194.8866 196.5933
" />
<path d="M195.8866 195.0933
L196.0295 195.0933
" />
<path d="M196.0295 195.0933
L196.1723 195.1648
" />
<path d="M196.1723 195.1648
L196.2437 195.2362
" />
<path d="M196.2437 195.2362
L196.3152 195.3790
" />
<path d="M196.3152 195.3790
L196.3866 195.6648
" />
<path d="M196.3866 195.6648
L196.3866 196.0219
" />
<path d="M196.3866 196.0219
L196.3152 196.3076
" />
<path d="M196.3152 196.3076
L196.2437 196.4505
" />
<path d="M196.2437 196.4505
L196.1723 196.5219
" />
<path d="M196.1723 196.5219
L196.0295 196.5933
" />
<path d="M196.0295 196.5933
L195.8866 196.5933
" />
<path d="M195.8866 196.5933
L195.7437 196.5219
" />
<path d="M195.7437 196.5219
L195.6723 196.4505
" />
<path d="M195.6723 196.4505
L195.6009 196.3076
" />
<path d="M195.6009 196.3076
L195.5295 196.0219
" />
<path d="M195.5295 196.0219
L195.5295 195.6648
" />
<path d="M195.5295 195.6648
L195.6009 195.3790
" />
<path d="M195.6009 195.3790
L195.6723 195.2362
" />
<path d="M195.6723 195.2362
L195.7437 195.1648
" />
<path d="M195.7437 195.1648
L195.8866 195.0933
" />
<path d="M197.0295 196.4505
L197.1009 196.5219
" />
<path d="M197.1009 196.5219
L197.0295 196.5933
" />
<path d="M197.0295 196.5933
L196.9580 196.5219
" />
<path d="M196.9580 196.5219
L197.0295 196.4505
" />
<path d="M197.0295 196.4505
L197.0295 196.5933
" />
<path d="M198.5295 196.5933
L197.6723 196.5933
" />
<path d="M198.1009 196.5933
L198.1009 195.0933
" />
<path d="M198.1009 195.0933
L197.9580 195.3076
" />
<path d="M197.9580 195.3076
L197.8152 195.4505
" />
<path d="M197.8152 195.4505
L197.6723 195.5219
" />
</g></g>
<g style="fill:none; 
stroke:#000000; stroke-width:0.1500; stroke-opacity:1; 
stroke-linecap:round; stroke-linejoin:round;">
<path d="M177.0022 191.5072
L285.0022 191.5072
" />
</g>
<g style="fill:none; 
stroke:#000000; stroke-width:0.3000; stroke-opacity:1; 
stroke-linecap:round; stroke-linejoin:round;">
<text x="263.0022" y="193.8572"
textLength="6.3857" font-size="2.0000" lengthAdjust="spacingAndGlyphs"
text-anchor="start" opacity="0">Rev: </text>
<g class="stroked-text"><desc>Rev: </desc>
<path d="M264.4139 193.7855
L263.9139 193.0712
" />
<path d="M263.5567 193.7855
L263.5567 192.2855
" />
<path d="M263.5567 192.2855
L264.1281 192.2855
" />
<path d="M264.1281 192.2855
L264.2710 192.3570
" />
<path d="M264.2710 192.3570
L264.3424 192.4284
" />
<path d="M264.3424 192.4284
L264.4139 192.5712
" />
<path d="M264.4139 192.5712
L264.4139 192.7855
" />
<path d="M264.4139 192.7855
L264.3424 192.9284
" />
<path d="M264.3424 192.9284
L264.2710 192.9998
" />
<path d="M264.2710 192.9998
L264.1281 193.0712
" />
<path d="M264.1281 193.0712
L263.5567 193.0712
" />
<path d="M265.6281 193.7141
L265.4853 193.7855
" />
<path d="M265.4853 193.7855
L265.1996 193.7855
" />
<path d="M265.1996 193.7855
L265.0567 193.7141
" />
<path d="M265.0567 193.7141
L264.9853 193.5712
" />
<path d="M264.9853 193.5712
L264.9853 192.9998
" />
<path d="M264.9853 192.9998
L265.0567 192.8570
" />
<path d="M265.0567 192.8570
L265.1996 192.7855
" />
<path d="M265.1996 192.7855
L265.4853 192.7855
" />
<path d="M265.4853 192.7855
L265.6281 192.8570
" />
<path d="M265.6281 192.8570
L265.6996 192.9998
" />
<path d="M265.6996 192.9998
L265.6996 193.1427
" />
<path d="M265.6996 193.1427
L264.9853 193.2855
" />
<path d="M266.1996 192.7855
L266.5567 193.7855
" />
<path d="M266.5567 193.7855
L266.9139 192.7855
" />
<path d="M267.4853 193.6427
L267.5567 193.7141
" />
<path d="M267.5567 193.7141
L267.4853 193.7855
" />
<path d="M267.4853 193.7855
L267.4139 193.7141
" />
<path d="M267.4139 193.7141
L267.4853 193.6427
" />
<path d="M267.4853 193.6427
L267.4853 193.7855
" />
<path d="M267.4853 192.8570
L267.5567 192.9284
" />
<path d="M267.5567 192.9284
L267.4853 192.9998
" />
<path d="M267.4853 192.9998
L267.4139 192.9284
" />
<path d="M267.4139 192.9284
L267.4853 192.8570
" />
<path d="M267.4853 192.8570
L267.4853 192.9998
" />
</g></g>
<g style="fill:none; 
stroke:#000000; stroke-width:0.1500; stroke-opacity:1; 
stroke-linecap:round; stroke-linejoin:round;">
<text x="178.0022" y="193.8572"
textLength="9.3643" font-size="2.0000" lengthAdjust="spacingAndGlyphs"
text-anchor="start" opacity="0">Size: A4</text>
<g class="stroked-text"><desc>Size: A4</desc>
<path d="M178.3866 193.7219
L178.6009 193.7933
" />
<path d="M178.6009 193.7933
L178.9580 193.7933
" />
<path d="M178.9580 193.7933
L179.1009 193.7219
" />
<path d="M179.1009 193.7219
L179.1723 193.6505
" />
<path d="M179.1723 193.6505
L179.2437 193.5076
" />
<path d="M179.2437 193.5076
L179.2437 193.3648
" />
<path d="M179.2437 193.3648
L179.1723 193.2219
" />
<path d="M179.1723 193.2219
L179.1009 193.1505
" />
<path d="M179.1009 193.1505
L178.9580 193.0790
" />
<path d="M178.9580 193.0790
L178.6723 193.0076
" />
<path d="M178.6723 193.0076
L178.5295 192.9362
" />
<path d="M178.5295 192.9362
L178.4580 192.8648
" />
<path d="M178.4580 192.8648
L178.3866 192.7219
" />
<path d="M178.3866 192.7219
L178.3866 192.5790
" />
<path d="M178.3866 192.5790
L178.4580 192.4362
" />
<path d="M178.4580 192.4362
L178.5295 192.3648
" />
<path d="M178.5295 192.3648
L178.6723 192.2933
" />
<path d="M178.6723 192.2933
L179.0295 192.2933
" />
<path d="M179.0295 192.2933
L179.2437 192.3648
" />
<path d="M179.8866 193.7933
L179.8866 192.7933
" />
<path d="M179.8866 192.2933
L179.8152 192.3648
" />
<path d="M179.8152 192.3648
L179.8866 192.4362
" />
<path d="M179.8866 192.4362
L179.9580 192.3648
" />
<path d="M179.9580 192.3648
L179.8866 192.2933
" />
<path d="M179.8866 192.2933
L179.8866 192.4362
" />
<path d="M180.4580 192.7933
L181.2437 192.7933
" />
<path d="M181.2437 192.7933
L180.4580 193.7933
" />
<path d="M180.4580 193.7933
L181.2437 193.7933
" />
<path d="M182.3866 193.7219
L182.2437 193.7933
" />
<path d="M182.2437 193.7933
L181.9580 193.7933
" />
<path d="M181.9580 193.7933
L181.8152 193.7219
" />
<path d="M181.8152 193.7219
L181.7437 193.5790
" />
<path d="M181.7437 193.5790
L181.7437 193.0076
" />
<path d="M181.7437 193.0076
L181.8152 192.8648
" />
<path d="M181.8152 192.8648
L181.9580 192.7933
" />
<path d="M181.9580 192.7933
L182.2437 192.7933
" />
<path d="M182.2437 192.7933
L182.3866 192.8648
" />
<path d="M182.3866 192.8648
L182.4580 193.0076
" />
<path d="M182.4580 193.0076
L182.4580 193.1505
" />
<path d="M182.4580 193.1505
L181.7437 193.2933
" />
<path d="M183.1009 193.6505
L183.1723 193.7219
" />
<path d="M183.1723 193.7219
L183.1009 193.7933
" />
<path d="M183.1009 193.7933
L183.0295 193.7219
" />
<path d="M183.0295 193.7219
L183.1009 193.6505
" />
<path d="M183.1009 193.6505
L183.1009 193.7933
" />
<path d="M183.1009 192.8648
L183.1723 192.9362
" />
<path d="M183.1723 192.9362
L183.1009 193.0076
" />
<path d="M183.1009 193.0076
L183.0295 192.9362
" />
<path d="M183.0295 192.9362
L183.1009 192.8648
" />
<path d="M183.1009 192.8648
L183.1009 193.0076
" />
<path d="M184.8866 193.3648
L185.6009 193.3648
" />
<path d="M184.7437 193.7933
L185.2437 192.2933
" />
<path d="M185.2437 192.2933
L185.7437 193.7933
" />
<path d="M186.8866 192.7933
L186.8866 193.7933
" />
<path d="M186.5295 192.2219
L186.1723 193.2933
" />
<path d="M186.1723 193.2933
L187.1009 193.2933
" />
</g></g>
<g style="fill:none; 
stroke:#000000; stroke-width:0.1500; stroke-opacity:1; 
stroke-linecap:round; stroke-linejoin:round;">
<text x="263.0022" y="196.6572"
textLength="8.5071" font-size="2.0000" lengthAdjust="spacingAndGlyphs"
text-anchor="start" opacity="0">Id: 1/1</text>
<g class="stroked-text"><desc>Id: 1/1</desc>
<path d="M263.4580 196.5933
L263.4580 195.0933
" />
<path d="M264.8152 196.5933
L264.8152 195.0933
" />
<path d="M264.8152 196.5219
L264.6723 196.5933
" />
<path d="M264.6723 196.5933
L264.3866 196.5933
" />
<path d="M264.3866 196.5933
L264.2437 196.5219
" />
<path d="M264.2437 196.5219
L264.1723 196.4505
" />
<path d="M264.1723 196.4505
L264.1009 196.3076
" />
<path d="M264.1009 196.3076
L264.1009 195.8790
" />
<path d="M264.1009 195.8790
L264.1723 195.7362
" />
<path d="M264.1723 195.7362
L264.2437 195.6648
" />
<path d="M264.2437 195.6648
L264.3866 195.5933
" />
<path d="M264.3866 195.5933
L264.6723 195.5933
" />
<path d="M264.6723 195.5933
L264.8152 195.6648
" />
<path d="M265.5295 196.4505
L265.6009 196.5219
" />
<path d="M265.6009 196.5219
L265.5295 196.5933
" />
<path d="M265.5295 196.5933
L265.4580 196.5219
" />
<path d="M265.4580 196.5219
L265.5295 196.4505
" />
<path d="M265.5295 196.4505
L265.5295 196.5933
" />
<path d="M265.5295 195.6648
L265.6009 195.7362
" />
<path d="M265.6009 195.7362
L265.5295 195.8076
" />
<path d="M265.5295 195.8076
L265.4580 195.7362
" />
<path d="M265.4580 195.7362
L265.5295 195.6648
" />
<path d="M265.5295 195.6648
L265.5295 195.8076
" />
<path d="M268.1723 196.5933
L267.3152 196.5933
" />
<path d="M267.7437 196.5933
L267.7437 195.0933
" />
<path d="M267.7437 195.0933
L267.6009 195.3076
" />
<path d="M267.6009 195.3076
L267.4580 195.4505
" />
<path d="M267.4580 195.4505
L267.3152 195.5219
" />
<path d="M269.8866 195.0219
L268.6009 196.9505
" />
<path d="M271.1723 196.5933
L270.3152 196.5933
" />
<path d="M270.7437 196.5933
L270.7437 195.0933
" />
<path d="M270.7437 195.0933
L270.6009 195.3076
" />
<path d="M270.6009 195.3076
L270.4580 195.4505
" />
<path d="M270.4580 195.4505
L270.3152 195.5219
" />
</g></g>
<g style="fill:none; 
stroke:#000000; stroke-width:0.1500; stroke-opacity:1; 
stroke-linecap:round; stroke-linejoin:round;">
<path d="M177.0022 187.5072
L285.0022 187.5072
" />
</g>
<g style="fill:none; 
stroke:#000000; stroke-width:0.4000; stroke-opacity:1; 
stroke-linecap:round; stroke-linejoin:round;">
<text x="178.0022" y="190.3072"
textLength="9.6571" font-size="2.6667" lengthAdjust="spacingAndGlyphs"
text-anchor="start" opacity="0">Title: </text>
<g class="stroked-text"><desc>Title: </desc>
<path d="M178.6939 188.2116
L179.8368 188.2116
" />
<path d="M179.0154 190.2116
L179.2654 188.2116
" />
<path d="M180.2535 190.2116
L180.4201 188.8783
" />
<path d="M180.5035 188.2116
L180.3963 188.3069
" />
<path d="M180.3963 188.3069
L180.4796 188.4021
" />
<path d="M180.4796 188.4021
L180.5868 188.3069
" />
<path d="M180.5868 188.3069
L180.5035 188.2116
" />
<path d="M180.5035 188.2116
L180.4796 188.4021
" />
<path d="M181.0868 188.8783
L181.8487 188.8783
" />
<path d="M181.4558 188.2116
L181.2415 189.9259
" />
<path d="M181.2415 189.9259
L181.3130 190.1164
" />
<path d="M181.3130 190.1164
L181.4915 190.2116
" />
<path d="M181.4915 190.2116
L181.6820 190.2116
" />
<path d="M182.6344 190.2116
L182.4558 190.1164
" />
<path d="M182.4558 190.1164
L182.3844 189.9259
" />
<path d="M182.3844 189.9259
L182.5987 188.2116
" />
<path d="M184.1701 190.1164
L183.9677 190.2116
" />
<path d="M183.9677 190.2116
L183.5868 190.2116
" />
<path d="M183.5868 190.2116
L183.4082 190.1164
" />
<path d="M183.4082 190.1164
L183.3368 189.9259
" />
<path d="M183.3368 189.9259
L183.4320 189.1640
" />
<path d="M183.4320 189.1640
L183.5511 188.9735
" />
<path d="M183.5511 188.9735
L183.7535 188.8783
" />
<path d="M183.7535 188.8783
L184.1344 188.8783
" />
<path d="M184.1344 188.8783
L184.3130 188.9735
" />
<path d="M184.3130 188.9735
L184.3844 189.1640
" />
<path d="M184.3844 189.1640
L184.3606 189.3545
" />
<path d="M184.3606 189.3545
L183.3844 189.5450
" />
<path d="M185.1344 190.0212
L185.2177 190.1164
" />
<path d="M185.2177 190.1164
L185.1106 190.2116
" />
<path d="M185.1106 190.2116
L185.0273 190.1164
" />
<path d="M185.0273 190.1164
L185.1344 190.0212
" />
<path d="M185.1344 190.0212
L185.1106 190.2116
" />
<path d="M185.2654 188.9735
L185.3487 189.0688
" />
<path d="M185.3487 189.0688
L185.2415 189.1640
" />
<path d="M185.2415 189.1640
L185.1582 189.0688
" />
<path d="M185.1582 189.0688
L185.2654 188.9735
" />
<path d="M185.2654 188.9735
L185.2415 189.1640
" />
</g></g>
<g style="fill:none; 
stroke:#000000; stroke-width:0.1500; stroke-opacity:1; 
stroke-linecap:round; stroke-linejoin:round;">
<text x="178.0022" y="186.4572"
textLength="29.0786" font-size="2.0000" lengthAdjust="spacingAndGlyphs"
text-anchor="start" opacity="0">File: lazyboy36.kicad_pcb</text>
<g class="stroked-text"><desc>File: lazyboy36.kicad_pcb</desc>
<path d="M178.9580 185.6076
L178.4580 185.6076
" />
<path d="M178.4580 186.3933
L178.4580 184.8933
" />
<path d="M178.4580 184.8933
L179.1723 184.8933
" />
<path d="M179.7437 186.3933
L179.7437 185.3933
" />
<path d="M179.7437 184.8933
L179.6723 184.9648
" />
<path d="M179.6723 184.9648
L179.7437 185.0362
" />
<path d="M179.7437 185.0362
L179.8152 184.9648
" />
<path d="M179.8152 184.9648
L179.7437 184.8933
" />
<path d="M179.7437 184.8933
L179.7437 185.0362
" />
<path d="M180.6723 186.3933
L180.5295 186.3219
" />
<path d="M180.5295 186.3219
L180.4580 186.1790
" />
<path d="M180.4580 186.1790
L180.4580 184.8933
" />
<path d="M181.8152 186.3219
L181.6723 186.3933
" />
<path d="M181.6723 186.3933
L181.3866 186.3933
" />
<path d="M181.3866 186.3933
L181.2437 186.3219
" />
<path d="M181.2437 186.3219
L181.1723 186.1790
" />
<path d="M181.1723 186.1790
L181.1723 185.6076
" />
<path d="M181.1723 185.6076
L181.2437 185.4648
" />
<path d="M181.2437 185.4648
L181.3866 185.3933
" />
<path d="M181.3866 185.3933
L181.6723 185.3933
" />
<path d="M181.6723 185.3933
L181.8152 185.4648
" />
<path d="M181.8152 185.4648
L181.8866 185.6076
" />
<path d="M181.8866 185.6076
L181.8866 185.7505
" />
<path d="M181.8866 185.7505
L181.1723 185.8933
" />
<path d="M182.5295 186.2505
L182.6009 186.3219
" />
<path d="M182.6009 186.3219
L182.5295 186.3933
" />
<path d="M182.5295 186.3933
L182.4580 186.3219
" />
<path d="M182.4580 186.3219
L182.5295 186.2505
" />
<path d="M182.5295 186.2505
L182.5295 186.3933
" />
<path d="M182.5295 185.4648
L182.6009 185.5362
" />
<path d="M182.6009 185.5362
L182.5295 185.6076
" />
<path d="M182.5295 185.6076
L182.4580 185.5362
" />
<path d="M182.4580 185.5362
L182.5295 185.4648
" />
<path d="M182.5295 185.4648
L182.5295 185.6076
" />
<path d="M184.6009 186.3933
L184.4580 186.3219
" />
<path d="M184.4580 186.3219
L184.3866 186.1790
" />
<path d="M184.3866 186.1790
L184.3866 184.8933
" />
<path d="M185.8152 186.3933
L185.8152 185.6076
" />
<path d="M185.8152 185.6076
L185.7437 185.4648
" />
<path d="M185.7437 185.4648
L185.6009 185.3933
" />
<path d="M185.6009 185.3933
L185.3152 185.3933
" />
<path d="M185.3152 185.3933
L185.1723 185.4648
" />
<path d="M185.8152 186.3219
L185.6723 186.3933
" />
<path d="M185.6723 186.3933
L185.3152 186.3933
" />
<path d="M185.3152 186.3933
L185.1723 186.3219
" />
<path d="M185.1723 186.3219
L185.1009 186.1790
" />
<path d="M185.1009 186.1790
L185.1009 186.0362
" />
<path d="M185.1009 186.0362
L185.1723 185.8933
" />
<path d="M185.1723 185.8933
L185.3152 185.8219
" />
<path d="M185.3152 185.8219
L185.6723 185.8219
" />
<path d="M185.6723 185.8219
L185.8152 185.7505
" />
<path d="M186.3866 185.3933
L187.1723 185.3933
" />
<path d="M187.1723 185.3933
L186.3866 186.3933
" />
<path d="M186.3866 186.3933
L187.1723 186.3933
" />
<path d="M187.6009 185.3933
L187.9580 186.3933
" />
<path d="M188.3152 185.3933
L187.9580 186.3933
" />
<path d="M187.9580 186.3933
L187.8152 186.7505
" />
<path d="M187.8152 186.7505
L187.7437 186.8219
" />
<path d="M187.7437 186.8219
L187.6009 186.8933
" />
<path d="M188.8866 186.3933
L188.8866 184.8933
" />
<path d="M188.8866 185.4648
L189.0295 185.3933
" />
<path d="M189.0295 185.3933
L189.3152 185.3933
" />
<path d="M189.3152 185.3933
L189.4580 185.4648
" />
<path d="M189.4580 185.4648
L189.5295 185.5362
" />
<path d="M189.5295 185.5362
L189.6009 185.6790
" />
<path d="M189.6009 185.6790
L189.6009 186.1076
" />
<path d="M189.6009 186.1076
L189.5295 186.2505
" />
<path d="M189.5295 186.2505
L189.4580 186.3219
" />
<path d="M189.4580 186.3219
L189.3152 186.3933
" />
<path d="M189.3152 186.3933
L189.0295 186.3933
" />
<path d="M189.0295 186.3933
L188.8866 186.3219
" />
<path d="M190.4580 186.3933
L190.3152 186.3219
" />
<path d="M190.3152 186.3219
L190.2437 186.2505
" />
<path d="M190.2437 186.2505
L190.1723 186.1076
" />
<path d="M190.1723 186.1076
L190.1723 185.6790
" />
<path d="M190.1723 185.6790
L190.2437 185.5362
" />
<path d="M190.2437 185.5362
L190.3152 185.4648
" />
<path d="M190.3152 185.4648
L190.4580 185.3933
" />
<path d="M190.4580 185.3933
L190.6723 185.3933
" />
<path d="M190.6723 185.3933
L190.8152 185.4648
" />
<path d="M190.8152 185.4648
L190.8866 185.5362
" />
<path d="M190.8866 185.5362
L190.9580 185.6790
" />
<path d="M190.9580 185.6790
L190.9580 186.1076
" />
<path d="M190.9580 186.1076
L190.8866 186.2505
" />
<path d="M190.8866 186.2505
L190.8152 186.3219
" />
<path d="M190.8152 186.3219
L190.6723 186.3933
" />
<path d="M190.6723 186.3933
L190.4580 186.3933
" />
<path d="M191.4580 185.3933
L191.8152 186.3933
" />
<path d="M192.1723 185.3933
L191.8152 186.3933
" />
<path d="M191.8152 186.3933
L191.6723 186.7505
" />
<path d="M191.6723 186.7505
L191.6009 186.8219
" />
<path d="M191.6009 186.8219
L191.4580 186.8933
" />
<path d="M192.6009 184.8933
L193.5295 184.8933
" />
<path d="M193.5295 184.8933
L193.0295 185.4648
" />
<path d="M193.0295 185.4648
L193.2437 185.4648
" />
<path d="M193.2437 185.4648
L193.3866 185.5362
" />
<path d="M193.3866 185.5362
L193.4580 185.6076
" />
<path d="M193.4580 185.6076
L193.5295 185.7505
" />
<path d="M193.5295 185.7505
L193.5295 186.1076
" />
<path d="M193.5295 186.1076
L193.4580 186.2505
" />
<path d="M193.4580 186.2505
L193.3866 186.3219
" />
<path d="M193.3866 186.3219
L193.2437 186.3933
" />
<path d="M193.2437 186.3933
L192.8152 186.3933
" />
<path d="M192.8152 186.3933
L192.6723 186.3219
" />
<path d="M192.6723 186.3219
L192.6009 186.2505
" />
<path d="M194.8152 184.8933
L194.5295 184.8933
" />
<path d="M194.5295 184.8933
L194.3866 184.9648
" />
<path d="M194.3866 184.9648
L194.3152 185.0362
" />
<path d="M194.3152 185.0362
L194.1723 185.2505
" />
<path d="M194.1723 185.2505
L194.1009 185.5362
" />
<path d="M194.1009 185.5362
L194.1009 186.1076
" />
<path d="M194.1009 186.1076
L194.1723 186.2505
" />
<path d="M194.1723 186.2505
L194.2437 186.3219
" />
<path d="M194.2437 186.3219
L194.3866 186.3933
" />
<path d="M194.3866 186.3933
L194.6723 186.3933
" />
<path d="M194.6723 186.3933
L194.8152 186.3219
" />
<path d="M194.8152 186.3219
L194.8866 186.2505
" />
<path d="M194.8866 186.2505
L194.9580 186.1076
" />
<path d="M194.9580 186.1076
L194.9580 185.7505
" />
<path d="M194.9580 185.7505
L194.8866 185.6076
" />
<path d="M194.8866 185.6076
L194.8152 185.5362
" />
<path d="M194.8152 185.5362
L194.6723 185.4648
" />
<path d="M194.6723 185.4648
L194.3866 185.4648
" />
<path d="M194.3866 185.4648
L194.2437 185.5362
" />
<path d="M194.2437 185.5362
L194.1723 185.6076
" />
<path d="M194.1723 185.6076
L194.1009 185.7505
" />
<path d="M195.6009 186.2505
L195.6723 186.3219
" />
<path d="M195.6723 186.3219
L195.6009 186.3933
" />
<path d="M195.6009 186.3933
L195.5295 186.3219
" />
<path d="M195.5295 186.3219
L195.6009 186.2505
" />
<path d="M195.6009 186.2505
L195.6009 186.3933
" />
<path d="M196.3152 186.3933
L196.3152 184.8933
" />
<path d="M196.4580 185.8219
L196.8866 186.3933
" />
<path d="M196.8866 185.3933
L196.3152 185.9648
" />
<path d="M197.5295 186.3933
L197.5295 185.3933
" />
<path d="M197.5295 184.8933
L197.4580 184.9648
" />
<path d="M197.4580 184.9648
L197.5295 185.0362
" />
<path d="M197.5295 185.0362
L197.6009 184.9648
" />
<path d="M197.6009 184.9648
L197.5295 184.8933
" />
<path d="M197.5295 184.8933
L197.5295 185.0362
" />
<path d="M198.8866 186.3219
L198.7437 186.3933
" />
<path d="M198.7437 186.3933
L198.4580 186.3933
" />
<path d="M198.4580 186.3933
L198.3152 186.3219
" />
<path d="M198.3152 186.3219
L198.2437 186.2505
" />
<path d="M198.2437 186.2505
L198.1723 186.1076
" />
<path d="M198.1723 186.1076
L198.1723 185.6790
" />
<path d="M198.1723 185.6790
L198.2437 185.5362
" />
<path d="M198.2437 185.5362
L198.3152 185.4648
" />
<path d="M198.3152 185.4648
L198.4580 185.3933
" />
<path d="M198.4580 185.3933
L198.7437 185.3933
" />
<path d="M198.7437 185.3933
L198.8866 185.4648
" />
<path d="M200.1723 186.3933
L200.1723 185.6076
" />
<path d="M200.1723 185.6076
L200.1009 185.4648
" />
<path d="M200.1009 185.4648
L199.9580 185.3933
" />
<path d="M199.9580 185.3933
L199.6723 185.3933
" />
<path d="M199.6723 185.3933
L199.5295 185.4648
" />
<path d="M200.1723 186.3219
L200.0295 186.3933
" />
<path d="M200.0295 186.3933
L199.6723 186.3933
" />
<path d="M199.6723 186.3933
L199.5295 186.3219
" />
<path d="M199.5295 186.3219
L199.4580 186.1790
" />
<path d="M199.4580 186.1790
L199.4580 186.0362
" />
<path d="M199.4580 186.0362
L199.5295 185.8933
" />
<path d="M199.5295 185.8933
L199.6723 185.8219
" />
<path d="M199.6723 185.8219
L200.0295 185.8219
" />
<path d="M200.0295 185.8219
L200.1723 185.7505
" />
<path d="M201.5295 186.3933
L201.5295 184.8933
" />
<path d="M201.5295 186.3219
L201.3866 186.3933
" />
<path d="M201.3866 186.3933
L201.1009 186.3933
" />
<path d="M201.1009 186.3933
L200.9580 186.3219
" />
<path d="M200.9580 186.3219
L200.8866 186.2505
" />
<path d="M200.8866 186.2505
L200.8152 186.1076
" />
<path d="M200.8152 186.1076
L200.8152 185.6790
" />
<path d="M200.8152 185.6790
L200.8866 185.5362
" />
<path d="M200.8866 185.5362
L200.9580 185.4648
" />
<path d="M200.9580 185.4648
L201.1009 185.3933
" />
<path d="M201.1009 185.3933
L201.3866 185.3933
" />
<path d="M201.3866 185.3933
L201.5295 185.4648
" />
<path d="M201.8866 186.5362
L203.0295 186.5362
" />
<path d="M203.3866 185.3933
L203.3866 186.8933
" />
<path d="M203.3866 185.4648
L203.5295 185.3933
" />
<path d="M203.5295 185.3933
L203.8152 185.3933
" />
<path d="M203.8152 185.3933
L203.9580 185.4648
" />
<path d="M203.9580 185.4648
L204.0295 185.5362
" />
<path d="M204.0295 185.5362
L204.1009 185.6790
" />
<path d="M204.1009 185.6790
L204.1009 186.1076
" />
<path d="M204.1009 186.1076
L204.0295 186.2505
" />
<path d="M204.0295 186.2505
L203.9580 186.3219
" />
<path d="M203.9580 186.3219
L203.8152 186.3933
" />
<path d="M203.8152 186.3933
L203.5295 186.3933
" />
<path d="M203.5295 186.3933
L203.3866 186.3219
" />
<path d="M205.3866 186.3219
L205.2437 186.3933
" />
<path d="M205.2437 186.3933
L204.9580 186.3933
" />
<path d="M204.9580 186.3933
L204.8152 186.3219
" />
<path d="M204.8152 186.3219
L204.7437 186.2505
" />
<path d="M204.7437 186.2505
L204.6723 186.1076
" />
<path d="M204.6723 186.1076
L204.6723 185.6790
" />
<path d="M204.6723 185.6790
L204.7437 185.5362
" />
<path d="M204.7437 185.5362
L204.8152 185.4648
" />
<path d="M204.8152 185.4648
L204.9580 185.3933
" />
<path d="M204.9580 185.3933
L205.2437 185.3933
" />
<path d="M205.2437 185.3933
L205.3866 185.4648
" />
<path d="M206.0295 186.3933
L206.0295 184.8933
" />
<path d="M206.0295 185.4648
L206.1723 185.3933
" />
<path d="M206.1723 185.3933
L206.4580 185.3933
" />
<path d="M206.4580 185.3933
L206.6009 185.4648
" />
<path d="M206.6009 185.4648
L206.6723 185.5362
" />
<path d="M206.6723 185.5362
L206.7437 185.6790
" />
<path d="M206.7437 185.6790
L206.7437 186.1076
" />
<path d="M206.7437 186.1076
L206.6723 186.2505
" />
<path d="M206.6723 186.2505
L206.6009 186.3219
" />
<path d="M206.6009 186.3219
L206.4580 186.3933
" />
<path d="M206.4580 186.3933
L206.1723 186.3933
" />
<path d="M206.1723 186.3933
L206.0295 186.3219
" />
</g></g>
<g style="fill:none; 
stroke:#000000; stroke-width:0.1500; stroke-opacity:1; 
stroke-linecap:round; stroke-linejoin:round;">
<path d="M177.0022 181.5072
L285.0022 181.5072
" />
</g>
<g style="fill:none; 
stroke:#000000; stroke-width:0.1500; stroke-opacity:1; 
stroke-linecap:round; stroke-linejoin:round;">
<text x="178.0022" y="183.7572"
textLength="8.2214" font-size="2.0000" lengthAdjust="spacingAndGlyphs"
text-anchor="start" opacity="0">Sheet: </text>
<g class="stroked-text"><desc>Sheet: </desc>
<path d="M178.3866 183.6219
L178.6009 183.6933
" />
<path d="M178.6009 183.6933
L178.9580 183.6933
" />
<path d="M178.9580 183.6933
L179.1009 183.6219
" />
<path d="M179.1009 183.6219
L179.1723 183.5505
" />
<path d="M179.1723 183.5505
L179.2437 183.4076
" />
<path d="M179.2437 183.4076
L179.2437 183.2648
" />
<path d="M179.2437 183.2648
L179.1723 183.1219
" />
<path d="M179.1723 183.1219
L179.1009 183.0505
" />
<path d="M179.1009 183.0505
L178.9580 182.9790
" />
<path d="M178.9580 182.9790
L178.6723 182.9076
" />
<path d="M178.6723 182.9076
L178.5295 182.8362
" />
<path d="M178.5295 182.8362
L178.4580 182.7648
" />
<path d="M178.4580 182.7648
L178.3866 182.6219
" />
<path d="M178.3866 182.6219
L178.3866 182.4790
" />
<path d="M178.3866 182.4790
L178.4580 182.3362
" />
<path d="M178.4580 182.3362
L178.5295 182.2648
" />
<path d="M178.5295 182.2648
L178.6723 182.1933
" />
<path d="M178.6723 182.1933
L179.0295 182.1933
" />
<path d="M179.0295 182.1933
L179.2437 182.2648
" />
<path d="M179.8866 183.6933
L179.8866 182.1933
" />
<path d="M180.5295 183.6933
L180.5295 182.9076
" />
<path d="M180.5295 182.9076
L180.4580 182.7648
" />
<path d="M180.4580 182.7648
L180.3152 182.6933
" />
<path d="M180.3152 182.6933
L180.1009 182.6933
" />
<path d="M180.1009 182.6933
L179.9580 182.7648
" />
<path d="M179.9580 182.7648
L179.8866 182.8362
" />
<path d="M181.8152 183.6219
L181.6723 183.6933
" />
<path d="M181.6723 183.6933
L181.3866 183.6933
" />
<path d="M181.3866 183.6933
L181.2437 183.6219
" />
<path d="M181.2437 183.6219
L181.1723 183.4790
" />
<path d="M181.1723 183.4790
L181.1723 182.9076
" />
<path d="M181.1723 182.9076
L181.2437 182.7648
" />
<path d="M181.2437 182.7648
L181.3866 182.6933
" />
<path d="M181.3866 182.6933
L181.6723 182.6933
" />
<path d="M181.6723 182.6933
L181.8152 182.7648
" />
<path d="M181.8152 182.7648
L181.8866 182.9076
" />
<path d="M181.8866 182.9076
L181.8866 183.0505
" />
<path d="M181.8866 183.0505
L181.1723 183.1933
" />
<path d="M183.1009 183.6219
L182.9580 183.6933
" />
<path d="M182.9580 183.6933
L182.6723 183.6933
" />
<path d="M182.6723 183.6933
L182.5295 183.6219
" />
<path d="M182.5295 183.6219
L182.4580 183.4790
" />
<path d="M182.4580 183.4790
L182.4580 182.9076
" />
<path d="M182.4580 182.9076
L182.5295 182.7648
" />
<path d="M182.5295 182.7648
L182.6723 182.6933
" />
<path d="M182.6723 182.6933
L182.9580 182.6933
" />
<path d="M182.9580 182.6933
L183.1009 182.7648
" />
<path d="M183.1009 182.7648
L183.1723 182.9076
" />
<path d="M183.1723 182.9076
L183.1723 183.0505
" />
<path d="M183.1723 183.0505
L182.4580 183.1933
" />
<path d="M183.6009 182.6933
L184.1723 182.6933
" />
<path d="M183.8152 182.1933
L183.8152 183.4790
" />
<path d="M183.8152 183.4790
L183.8866 183.6219
" />
<path d="M183.8866 183.6219
L184.0295 183.6933
" />
<path d="M184.0295 183.6933
L184.1723 183.6933
" />
<path d="M184.6723 183.5505
L184.7437 183.6219
" />
<path d="M184.7437 183.6219
L184.6723 183.6933
" />
<path d="M184.6723 183.6933
L184.6009 183.6219
" />
<path d="M184.6009 183.6219
L184.6723 183.5505
" />
<path d="M184.6723 183.5505
L184.6723 183.6933
" />
<path d="M184.6723 182.7648
L184.7437 182.8362
" />
<path d="M184.7437 182.8362
L184.6723 182.9076
" />
<path d="M184.6723 182.9076
L184.6009 182.8362
" />
<path d="M184.6009 182.8362
L184.6723 182.7648
" />
<path d="M184.6723 182.7648
L184.6723 182.9076
" />
</g></g>
<g style="fill:none; 
stroke:#000000; stroke-width:0.3000; stroke-opacity:1; 
stroke-linecap:round; stroke-linejoin:round;">
<text x="178.0022" y="180.7572"
textLength="0.9000" font-size="2.0000" lengthAdjust="spacingAndGlyphs"
text-anchor="start" opacity="0"></text>
<g class="stroked-text"><desc></desc>
</g></g>
<g style="fill:none; 
stroke:#000000; stroke-width:0.1500; stroke-opacity:1; 
stroke-linecap:round; stroke-linejoin:round;">
<text x="178.0022" y="177.7572"
textLength="0.4500" font-size="2.0000" lengthAdjust="spacingAndGlyphs"
text-anchor="start" opacity="0"></text>
<g class="stroked-text"><desc></desc>
</g></g>
<g style="fill:none; 
stroke:#000000; stroke-width:0.1500; stroke-opacity:1; 
stroke-linecap:round; stroke-linejoin:round;">
<text x="178.0022" y="174.7572"
textLength="0.4500" font-size="2.0000" lengthAdjust="spacingAndGlyphs"
text-anchor="start" opacity="0"></text>
<g class="stroked-text"><desc></desc>
</g></g>
<g style="fill:none; 
stroke:#000000; stroke-width:0.1500; stroke-opacity:1; 
stroke-linecap:round; stroke-linejoin:round;">
<text x="178.0022" y="171.7572"
textLength="0.4500" font-size="2.0000" lengthAdjust="spacingAndGlyphs"
text-anchor="start" opacity="0"></text>
<g class="stroked-text"><desc></desc>
</g></g>
<g style="fill:none; 
stroke:#000000; stroke-width:0.1500; stroke-opacity:1; 
stroke-linecap:round; stroke-linejoin:round;">
<text x="178.0022" y="168.7572"
textLength="0.4500" font-size="2.0000" lengthAdjust="spacingAndGlyphs"
text-anchor="start" opacity="0"></text>
<g class="stroked-text"><desc></desc>
</g></g>
<g style="fill:none; 
stroke:#000000; stroke-width:0.1500; stroke-opacity:1; 
stroke-linecap:round; stroke-linejoin:round;">
<path d="M197.0022 191.5072
L197.0022 194.5072
" />
</g>
<g style="fill:none; 
stroke:#000000; stroke-width:0.1500; stroke-opacity:1; 
stroke-linecap:round; stroke-linejoin:round;">
<path d="M261.0022 191.5072
L261.0022 198.0072
" />
</g>
<g style="fill:none; 
stroke:#585D84; stroke-width:0.1000; stroke-opacity:1; 
stroke-linecap:round; stroke-linejoin:round;">
<path d="M14.9147 108.7646
L18.9909 109.8568
" />
<path d="M16.0406 104.5628
L14.9147 108.7646
" />
<path d="M16.0406 104.5628
L20.1168 105.6550
" />
<path d="M18.9909 109.8568
L20.8442 111.4404
" />
<path d="M20.1168 105.6550
L21.9701 107.2387
" />
<path d="M20.9024 111.2231
L20.8442 111.4404
" />
<path d="M21.6169 111.6475
L21.6752 111.4302
" />
<path d="M21.6752 111.4302
L20.9024 111.2231
" />
<path d="M26.0795 112.8432
L21.6169 111.6475
" />
<path d="M27.2054 108.6415
L21.9701 107.2387
" />
<path d="M27.2054 108.6415
L26.0795 112.8432
" />
<path d="M83.0842 75.1632
L87.1604 76.2554
" />
<path d="M84.2101 70.9614
L83.0842 75.1632
" />
<path d="M84.2101 70.9614
L88.2863 72.0537
" />
<path d="M87.1604 76.2554
L89.0137 77.8391
" />
<path d="M88.2863 72.0537
L90.1395 73.6373
" />
<path d="M89.0719 77.6217
L89.0137 77.8391
" />
<path d="M89.7864 78.0461
L89.8447 77.8288
" />
<path d="M89.8447 77.8288
L89.0719 77.6217
" />
<path d="M94.2490 79.2419
L89.7864 78.0461
" />
<path d="M95.3749 75.0401
L90.1395 73.6373
" />
<path d="M95.3749 75.0401
L94.2490 79.2419
" />
<path d="M73.2232 111.9650
L77.2994 113.0572
" />
<path d="M74.3491 107.7632
L73.2232 111.9650
" />
<path d="M74.3491 107.7632
L78.4253 108.8554
" />
<path d="M77.2994 113.0572
L79.1527 114.6408
" />
<path d="M78.4253 108.8554
L80.2785 110.4391
" />
<path d="M79.2109 114.4235
L79.1527 114.6408
" />
<path d="M79.9254 114.8479
L79.9837 114.6306
" />
<path d="M79.9837 114.6306
L79.2109 114.4235
" />
<path d="M84.3880 116.0436
L79.9254 114.8479
" />
<path d="M85.5139 111.8419
L80.2785 110.4391
" />
<path d="M85.5139 111.8419
L84.3880 116.0436
" />
<path d="M246.2771 101.4301
L247.4030 105.6318
" />
<path d="M246.2771 101.4301
L250.3533 100.3378
" />
<path d="M247.4030 105.6318
L251.4792 104.5396
" />
<path d="M250.3533 100.3378
L252.7501 100.7827
" />
<path d="M251.4792 104.5396
L253.8760 104.9844
" />
<path d="M253.8178 104.7671
L253.8760 104.9844
" />
<path d="M254.5905 104.5600
L253.8178 104.7671
" />
<path d="M254.6487 104.7774
L254.5905 104.5600
" />
<path d="M257.9854 99.3799
L252.7501 100.7827
" />
<path d="M257.9854 99.3799
L259.1113 103.5816
" />
<path d="M259.1113 103.5816
L254.6487 104.7774
" />
<path d="M91.1064 118.8274
L95.1827 119.9196
" />
<path d="M92.2323 114.6256
L91.1064 118.8274
" />
<path d="M92.2323 114.6256
L96.3085 115.7178
" />
<path d="M95.1827 119.9196
L97.0359 121.5032
" />
<path d="M96.3085 115.7178
L98.1618 117.3014
" />
<path d="M97.0942 121.2859
L97.0359 121.5032
" />
<path d="M97.8087 121.7102
L97.8669 121.4929
" />
<path d="M97.8669 121.4929
L97.0942 121.2859
" />
<path d="M102.2712 122.9060
L97.8087 121.7102
" />
<path d="M103.3971 118.7042
L98.1618 117.3014
" />
<path d="M103.3971 118.7042
L102.2712 122.9060
" />
<path d="M191.5921 118.1534
L192.7180 122.3552
" />
<path d="M191.5921 118.1534
L195.6683 117.0612
" />
<path d="M192.7180 122.3552
L196.7942 121.2630
" />
<path d="M195.6683 117.0612
L198.0651 117.5060
" />
<path d="M196.7942 121.2630
L199.1910 121.7078
" />
<path d="M199.1327 121.4905
L199.1910 121.7078
" />
<path d="M199.9055 121.2834
L199.1327 121.4905
" />
<path d="M199.9637 121.5007
L199.9055 121.2834
" />
<path d="M203.3004 116.1032
L198.0651 117.5060
" />
<path d="M203.3004 116.1032
L204.4263 120.3050
" />
<path d="M204.4263 120.3050
L199.9637 121.5007
" />
<path d="M186.6616 99.7525
L187.7875 103.9543
" />
<path d="M186.6616 99.7525
L190.7378 98.6603
" />
<path d="M187.7875 103.9543
L191.8637 102.8621
" />
<path d="M190.7378 98.6603
L193.1346 99.1051
" />
<path d="M191.8637 102.8621
L194.2605 103.3069
" />
<path d="M194.2022 103.0896
L194.2605 103.3069
" />
<path d="M194.9750 102.8825
L194.2022 103.0896
" />
<path d="M195.0332 103.0999
L194.9750 102.8825
" />
<path d="M198.3699 97.7023
L193.1346 99.1051
" />
<path d="M198.3699 97.7023
L199.4958 101.9041
" />
<path d="M199.4958 101.9041
L195.0332 103.0999
" />
<path d="M78.1537 93.5641
L82.2299 94.6563
" />
<path d="M79.2796 89.3623
L78.1537 93.5641
" />
<path d="M79.2796 89.3623
L83.3558 90.4546
" />
<path d="M82.2299 94.6563
L84.0832 96.2400
" />
<path d="M83.3558 90.4546
L85.2090 92.0382
" />
<path d="M84.1414 96.0226
L84.0832 96.2400
" />
<path d="M84.8559 96.4470
L84.9142 96.2297
" />
<path d="M84.9142 96.2297
L84.1414 96.0226
" />
<path d="M89.3185 97.6428
L84.8559 96.4470
" />
<path d="M90.4444 93.4410
L85.2090 92.0382
" />
<path d="M90.4444 93.4410
L89.3185 97.6428
" />
<path d="M236.4161 64.6283
L237.5420 68.8301
" />
<path d="M236.4161 64.6283
L240.4923 63.5361
" />
<path d="M237.5420 68.8301
L241.6182 67.7378
" />
<path d="M240.4923 63.5361
L242.8891 63.9809
" />
<path d="M241.6182 67.7378
L244.0150 68.1827
" />
<path d="M243.9567 67.9653
L244.0150 68.1827
" />
<path d="M244.7295 67.7583
L243.9567 67.9653
" />
<path d="M244.7877 67.9756
L244.7295 67.7583
" />
<path d="M248.1244 62.5781
L242.8891 63.9809
" />
<path d="M248.1244 62.5781
L249.2503 66.7799
" />
<path d="M249.2503 66.7799
L244.7877 67.9756
" />
<path d="M41.3519 83.7031
L45.4281 84.7953
" />
<path d="M42.4778 79.5013
L41.3519 83.7031
" />
<path d="M42.4778 79.5013
L46.5540 80.5935
" />
<path d="M45.4281 84.7953
L47.2814 86.3789
" />
<path d="M46.5540 80.5935
L48.4073 82.1772
" />
<path d="M47.3396 86.1616
L47.2814 86.3789
" />
<path d="M48.0541 86.5860
L48.1124 86.3687
" />
<path d="M48.1124 86.3687
L47.3396 86.1616
" />
<path d="M52.5167 87.7817
L48.0541 86.5860
" />
<path d="M53.6426 83.5800
L48.4073 82.1772
" />
<path d="M53.6426 83.5800
L52.5167 87.7817
" />
<path d="M24.7757 71.9628
L28.8519 73.0550
" />
<path d="M25.9016 67.7610
L24.7757 71.9628
" />
<path d="M25.9016 67.7610
L29.9778 68.8533
" />
<path d="M28.8519 73.0550
L30.7052 74.6387
" />
<path d="M29.9778 68.8533
L31.8311 70.4369
" />
<path d="M30.7634 74.4213
L30.7052 74.6387
" />
<path d="M31.4779 74.8457
L31.5362 74.6284
" />
<path d="M31.5362 74.6284
L30.7634 74.4213
" />
<path d="M35.9405 76.0415
L31.4779 74.8457
" />
<path d="M37.0664 71.8397
L31.8311 70.4369
" />
<path d="M37.0664 71.8397
L35.9405 76.0415
" />
<path d="M181.7311 81.3516
L182.8570 85.5534
" />
<path d="M181.7311 81.3516
L185.8073 80.2594
" />
<path d="M182.8570 85.5534
L186.9332 84.4612
" />
<path d="M185.8073 80.2594
L188.2041 80.7042
" />
<path d="M186.9332 84.4612
L189.3300 84.9060
" />
<path d="M189.2717 84.6887
L189.3300 84.9060
" />
<path d="M190.0445 84.4816
L189.2717 84.6887
" />
<path d="M190.1027 84.6990
L190.0445 84.4816
" />
<path d="M193.4394 79.3014
L188.2041 80.7042
" />
<path d="M193.4394 79.3014
L194.5653 83.5032
" />
<path d="M194.5653 83.5032
L190.1027 84.6990
" />
<path d="M257.9228 71.2889
L259.0487 75.4907
" />
<path d="M257.9228 71.2889
L261.9990 70.1967
" />
<path d="M259.0487 75.4907
L263.1249 74.3984
" />
<path d="M261.9990 70.1967
L264.3958 70.6415
" />
<path d="M263.1249 74.3984
L265.5217 74.8433
" />
<path d="M265.4635 74.6259
L265.5217 74.8433
" />
<path d="M266.2362 74.4189
L265.4635 74.6259
" />
<path d="M266.2944 74.6362
L266.2362 74.4189
" />
<path d="M269.6312 69.2387
L264.3958 70.6415
" />
<path d="M269.6312 69.2387
L270.7570 73.4405
" />
<path d="M270.7570 73.4405
L266.2944 74.6362
" />
<path d="M204.5448 92.8902
L205.6707 97.0919
" />
<path d="M204.5448 92.8902
L208.6211 91.7980
" />
<path d="M205.6707 97.0919
L209.7469 95.9997
" />
<path d="M208.6211 91.7980
L211.0178 92.2428
" />
<path d="M209.7469 95.9997
L212.1437 96.4446
" />
<path d="M212.0855 96.2272
L212.1437 96.4446
" />
<path d="M212.8582 96.0202
L212.0855 96.2272
" />
<path d="M212.9165 96.2375
L212.8582 96.0202
" />
<path d="M216.2532 90.8400
L211.0178 92.2428
" />
<path d="M216.2532 90.8400
L217.3790 95.0418
" />
<path d="M217.3790 95.0418
L212.9165 96.2375
" />
<path d="M195.1560 140.9468
L196.9944 144.8892
" />
<path d="M195.1560 140.9468
L198.9806 139.1634
" />
<path d="M196.9944 144.8892
L200.8190 143.1058
" />
<path d="M198.9806 139.1634
L201.4182 139.1852
" />
<path d="M200.8190 143.1058
L203.2566 143.1277
" />
<path d="M203.1615 142.9237
L203.2566 143.1277
" />
<path d="M203.8866 142.5856
L203.1615 142.9237
" />
<path d="M203.9817 142.7896
L203.8866 142.5856
" />
<path d="M206.3304 136.8946
L201.4182 139.1852
" />
<path d="M206.3304 136.8946
L208.1688 140.8371
" />
<path d="M208.1688 140.8371
L203.9817 142.7896
" />
<path d="M226.5821 101.5309
L227.7080 105.7327
" />
<path d="M226.5821 101.5309
L230.6583 100.4387
" />
<path d="M227.7080 105.7327
L231.7842 104.6405
" />
<path d="M230.6583 100.4387
L233.0551 100.8835
" />
<path d="M231.7842 104.6405
L234.1810 105.0853
" />
<path d="M234.1228 104.8680
L234.1810 105.0853
" />
<path d="M234.8955 104.6609
L234.1228 104.8680
" />
<path d="M234.9537 104.8783
L234.8955 104.6609
" />
<path d="M238.2905 99.4807
L233.0551 100.8835
" />
<path d="M238.2905 99.4807
L239.4163 103.6825
" />
<path d="M239.4163 103.6825
L234.9537 104.8783
" />
<path d="M65.9774 65.4031
L70.0536 66.4953
" />
<path d="M67.1033 61.2013
L65.9774 65.4031
" />
<path d="M67.1033 61.2013
L71.1795 62.2935
" />
<path d="M70.0536 66.4953
L71.9069 68.0789
" />
<path d="M71.1795 62.2935
L73.0328 63.8772
" />
<path d="M71.9651 67.8616
L71.9069 68.0789
" />
<path d="M72.6796 68.2860
L72.7379 68.0687
" />
<path d="M72.7379 68.0687
L71.9651 67.8616
" />
<path d="M77.1422 69.4817
L72.6796 68.2860
" />
<path d="M78.2681 65.2800
L73.0328 63.8772
" />
<path d="M78.2681 65.2800
L77.1422 69.4817
" />
<path d="M67.6981 134.9363
L71.8540 135.6691
" />
<path d="M68.4535 130.6523
L67.6981 134.9363
" />
<path d="M68.4535 130.6523
L72.6094 131.3851
" />
<path d="M71.8540 135.6691
L73.8382 137.0851
" />
<path d="M72.6094 131.3851
L74.5936 132.8012
" />
<path d="M73.8773 136.8635
L73.8382 137.0851
" />
<path d="M74.6261 137.2240
L74.6652 137.0025
" />
<path d="M74.6652 137.0025
L73.8773 136.8635
" />
<path d="M79.1759 138.0263
L74.6261 137.2240
" />
<path d="M79.9313 133.7424
L74.5936 132.8012
" />
<path d="M79.9313 133.7424
L79.1759 138.0263
" />
<path d="M87.6426 139.1288
L91.4673 140.9123
" />
<path d="M89.4810 135.1864
L87.6426 139.1288
" />
<path d="M89.4810 135.1864
L93.3056 136.9698
" />
<path d="M91.4673 140.9123
L93.0174 142.7937
" />
<path d="M93.1125 142.5897
L93.0174 142.7937
" />
<path d="M93.3056 136.9698
L94.8558 138.8512
" />
<path d="M93.7424 143.1317
L93.8375 142.9278
" />
<path d="M93.8375 142.9278
L93.1125 142.5897
" />
<path d="M97.9296 145.0842
L93.7424 143.1317
" />
<path d="M99.7680 141.1418
L94.8558 138.8512
" />
<path d="M99.7680 141.1418
L97.9296 145.0842
" />
<path d="M56.1164 102.2049
L60.1926 103.2971
" />
<path d="M57.2423 98.0031
L56.1164 102.2049
" />
<path d="M57.2423 98.0031
L61.3185 99.0953
" />
<path d="M60.1926 103.2971
L62.0459 104.8807
" />
<path d="M61.3185 99.0953
L63.1717 100.6789
" />
<path d="M62.1041 104.6634
L62.0459 104.8807
" />
<path d="M62.8186 105.0878
L62.8769 104.8704
" />
<path d="M62.8769 104.8704
L62.1041 104.6634
" />
<path d="M67.2812 106.2835
L62.8186 105.0878
" />
<path d="M68.4071 102.0817
L63.1717 100.6789
" />
<path d="M68.4071 102.0817
L67.2812 106.2835
" />
<path d="M36.4214 102.1040
L40.4976 103.1962
" />
<path d="M37.5473 97.9022
L36.4214 102.1040
" />
<path d="M37.5473 97.9022
L41.6235 98.9944
" />
<path d="M40.4976 103.1962
L42.3509 104.7798
" />
<path d="M41.6235 98.9944
L43.4768 100.5781
" />
<path d="M42.4091 104.5625
L42.3509 104.7798
" />
<path d="M43.1236 104.9869
L43.1819 104.7696
" />
<path d="M43.1819 104.7696
L42.4091 104.5625
" />
<path d="M47.5862 106.1826
L43.1236 104.9869
" />
<path d="M48.7121 101.9809
L43.4768 100.5781
" />
<path d="M48.7121 101.9809
L47.5862 106.1826
" />
<path d="M178.1050 154.3294
L180.9011 157.6617
" />
<path d="M178.1050 154.3294
L181.3377 151.6168
" />
<path d="M180.9011 157.6617
L184.1338 154.9491
" />
<path d="M181.3377 151.6168
L183.6979 151.0070
" />
<path d="M184.1338 154.9491
L186.4940 154.3393
" />
<path d="M186.3494 154.1669
L186.4940 154.3393
" />
<path d="M186.9622 153.6527
L186.3494 154.1669
" />
<path d="M187.1069 153.8251
L186.9622 153.6527
" />
<path d="M187.8499 147.5231
L183.6979 151.0070
" />
<path d="M187.8499 147.5231
L190.6460 150.8554
" />
<path d="M190.6460 150.8554
L187.1069 153.8251
" />
<path d="M241.3466 83.0292
L242.4725 87.2309
" />
<path d="M241.3466 83.0292
L245.4228 81.9370
" />
<path d="M242.4725 87.2309
L246.5487 86.1387
" />
<path d="M245.4228 81.9370
L247.8196 82.3818
" />
<path d="M246.5487 86.1387
L248.9455 86.5835
" />
<path d="M248.8873 86.3662
L248.9455 86.5835
" />
<path d="M249.6600 86.1592
L248.8873 86.3662
" />
<path d="M249.7182 86.3765
L249.6600 86.1592
" />
<path d="M253.0549 80.9790
L247.8196 82.3818
" />
<path d="M253.0549 80.9790
L254.1808 85.1807
" />
<path d="M254.1808 85.1807
L249.7182 86.3765
" />
<path d="M199.6143 74.4893
L200.7402 78.6911
" />
<path d="M199.6143 74.4893
L203.6906 73.3971
" />
<path d="M200.7402 78.6911
L204.8164 77.5988
" />
<path d="M203.6906 73.3971
L206.0873 73.8419
" />
<path d="M204.8164 77.5988
L207.2132 78.0437
" />
<path d="M207.1550 77.8263
L207.2132 78.0437
" />
<path d="M207.9277 77.6193
L207.1550 77.8263
" />
<path d="M207.9860 77.8366
L207.9277 77.6193
" />
<path d="M211.3227 72.4391
L206.0873 73.8419
" />
<path d="M211.3227 72.4391
L212.4485 76.6409
" />
<path d="M212.4485 76.6409
L207.9860 77.8366
" />
<path d="M61.0469 83.8040
L65.1231 84.8962
" />
<path d="M62.1728 79.6022
L61.0469 83.8040
" />
<path d="M62.1728 79.6022
L66.2490 80.6944
" />
<path d="M65.1231 84.8962
L66.9764 86.4798
" />
<path d="M66.2490 80.6944
L68.1023 82.2780
" />
<path d="M67.0346 86.2625
L66.9764 86.4798
" />
<path d="M67.7491 86.6869
L67.8074 86.4695
" />
<path d="M67.8074 86.4695
L67.0346 86.2625
" />
<path d="M72.2117 87.8826
L67.7491 86.6869
" />
<path d="M73.3376 83.6808
L68.1023 82.2780
" />
<path d="M73.3376 83.6808
L72.2117 87.8826
" />
<path d="M46.2824 65.3022
L50.3586 66.3944
" />
<path d="M47.4083 61.1004
L46.2824 65.3022
" />
<path d="M47.4083 61.1004
L51.4845 62.1927
" />
<path d="M50.3586 66.3944
L52.2119 67.9781
" />
<path d="M51.4845 62.1927
L53.3378 63.7763
" />
<path d="M52.2701 67.7607
L52.2119 67.9781
" />
<path d="M52.9847 68.1851
L53.0429 67.9678
" />
<path d="M53.0429 67.9678
L52.2701 67.7607
" />
<path d="M57.4472 69.3809
L52.9847 68.1851
" />
<path d="M58.5731 65.1791
L53.3378 63.7763
" />
<path d="M58.5731 65.1791
L57.4472 69.3809
" />
<path d="M105.6477 148.9003
L108.8804 151.6129
" />
<path d="M108.4438 145.5680
L105.6477 148.9003
" />
<path d="M108.4438 145.5680
L111.6765 148.2806
" />
<path d="M108.8804 151.6129
L109.8908 153.8314
" />
<path d="M110.0354 153.6590
L109.8908 153.8314
" />
<path d="M110.5036 154.3456
L110.6482 154.1732
" />
<path d="M110.6482 154.1732
L110.0354 153.6590
" />
<path d="M111.6765 148.2806
L112.6869 150.4991
" />
<path d="M114.0427 157.3153
L110.5036 154.3456
" />
<path d="M116.8389 153.9830
L112.6869 150.4991
" />
<path d="M116.8389 153.9830
L114.0427 157.3153
" />
<path d="M221.6516 83.1300
L222.7775 87.3318
" />
<path d="M221.6516 83.1300
L225.7278 82.0378
" />
<path d="M222.7775 87.3318
L226.8537 86.2396
" />
<path d="M225.7278 82.0378
L228.1246 82.4826
" />
<path d="M226.8537 86.2396
L229.2505 86.6844
" />
<path d="M229.1923 86.4671
L229.2505 86.6844
" />
<path d="M229.9650 86.2600
L229.1923 86.4671
" />
<path d="M230.0232 86.4774
L229.9650 86.2600
" />
<path d="M233.3600 81.0798
L228.1246 82.4826
" />
<path d="M233.3600 81.0798
L234.4858 85.2816
" />
<path d="M234.4858 85.2816
L230.0232 86.4774
" />
<path d="M96.0369 100.4265
L100.1132 101.5187
" />
<path d="M97.1628 96.2247
L96.0369 100.4265
" />
<path d="M97.1628 96.2247
L101.2390 97.3169
" />
<path d="M100.1132 101.5187
L101.9664 103.1023
" />
<path d="M101.2390 97.3169
L103.0923 98.9005
" />
<path d="M102.0247 102.8850
L101.9664 103.1023
" />
<path d="M102.7392 103.3094
L102.7974 103.0920
" />
<path d="M102.7974 103.0920
L102.0247 102.8850
" />
<path d="M107.2017 104.5051
L102.7392 103.3094
" />
<path d="M108.3276 100.3033
L103.0923 98.9005
" />
<path d="M108.3276 100.3033
L107.2017 104.5051
" />
<path d="M19.8452 90.3637
L23.9214 91.4559
" />
<path d="M20.9711 86.1619
L19.8452 90.3637
" />
<path d="M20.9711 86.1619
L25.0473 87.2542
" />
<path d="M23.9214 91.4559
L25.7747 93.0396
" />
<path d="M25.0473 87.2542
L26.9006 88.8378
" />
<path d="M25.8329 92.8222
L25.7747 93.0396
" />
<path d="M26.5474 93.2466
L26.6057 93.0293
" />
<path d="M26.6057 93.0293
L25.8329 92.8222
" />
<path d="M31.0100 94.4424
L26.5474 93.2466
" />
<path d="M32.1359 90.2406
L26.9006 88.8378
" />
<path d="M32.1359 90.2406
L31.0100 94.4424
" />
<path d="M209.4753 111.2911
L210.6012 115.4928
" />
<path d="M209.4753 111.2911
L213.5516 110.1988
" />
<path d="M210.6012 115.4928
L214.6774 114.4006
" />
<path d="M213.5516 110.1988
L215.9484 110.6437
" />
<path d="M214.6774 114.4006
L217.0742 114.8454
" />
<path d="M217.0160 114.6281
L217.0742 114.8454
" />
<path d="M217.7887 114.4211
L217.0160 114.6281
" />
<path d="M217.8470 114.6384
L217.7887 114.4211
" />
<path d="M221.1837 109.2409
L215.9484 110.6437
" />
<path d="M221.1837 109.2409
L222.3095 113.4426
" />
<path d="M222.3095 113.4426
L217.8470 114.6384
" />
<path d="M262.8533 89.6898
L263.9792 93.8916
" />
<path d="M262.8533 89.6898
L266.9295 88.5976
" />
<path d="M263.9792 93.8916
L268.0554 92.7993
" />
<path d="M266.9295 88.5976
L269.3263 89.0424
" />
<path d="M268.0554 92.7993
L270.4522 93.2442
" />
<path d="M270.3940 93.0268
L270.4522 93.2442
" />
<path d="M271.1667 92.8198
L270.3940 93.0268
" />
<path d="M271.2249 93.0371
L271.1667 92.8198
" />
<path d="M274.5617 87.6396
L269.3263 89.0424
" />
<path d="M274.5617 87.6396
L275.6875 91.8414
" />
<path d="M275.6875 91.8414
L271.2249 93.0371
" />
<path d="M267.7838 108.0907
L268.9097 112.2924
" />
<path d="M267.7838 108.0907
L271.8600 106.9984
" />
<path d="M268.9097 112.2924
L272.9859 111.2002
" />
<path d="M271.8600 106.9984
L274.2568 107.4433
" />
<path d="M272.9859 111.2002
L275.3827 111.6450
" />
<path d="M275.3245 111.4277
L275.3827 111.6450
" />
<path d="M276.0972 111.2207
L275.3245 111.4277
" />
<path d="M276.1554 111.4380
L276.0972 111.2207
" />
<path d="M279.4922 106.0405
L274.2568 107.4433
" />
<path d="M279.4922 106.0405
L280.6180 110.2422
" />
<path d="M280.6180 110.2422
L276.1554 111.4380
" />
<path d="M216.7211 64.7292
L217.8470 68.9309
" />
<path d="M216.7211 64.7292
L220.7973 63.6369
" />
<path d="M217.8470 68.9309
L221.9232 67.8387
" />
<path d="M220.7973 63.6369
L223.1941 64.0818
" />
<path d="M221.9232 67.8387
L224.3200 68.2835
" />
<path d="M224.2618 68.0662
L224.3200 68.2835
" />
<path d="M225.0345 67.8591
L224.2618 68.0662
" />
<path d="M225.0927 68.0765
L225.0345 67.8591
" />
<path d="M228.4295 62.6790
L223.1941 64.0818
" />
<path d="M228.4295 62.6790
L229.5553 66.8807
" />
<path d="M229.5553 66.8807
L225.0927 68.0765
" />
<path d="M100.9675 82.0256
L105.0437 83.1178
" />
<path d="M102.0933 77.8238
L100.9675 82.0256
" />
<path d="M102.0933 77.8238
L106.1695 78.9160
" />
<path d="M105.0437 83.1178
L106.8969 84.7014
" />
<path d="M106.1695 78.9160
L108.0228 80.4996
" />
<path d="M106.9552 84.4841
L106.8969 84.7014
" />
<path d="M107.6697 84.9085
L107.7279 84.6911
" />
<path d="M107.7279 84.6911
L106.9552 84.4841
" />
<path d="M112.1323 86.1042
L107.6697 84.9085
" />
<path d="M113.2581 81.9024
L108.0228 80.4996
" />
<path d="M113.2581 81.9024
L112.1323 86.1042
" />
<path d="M215.1136 133.0193
L215.8689 137.3032
" />
<path d="M215.1136 133.0193
L219.2695 132.2865
" />
<path d="M215.8689 137.3032
L220.0248 136.5704
" />
<path d="M219.2695 132.2865
L221.6184 132.9385
" />
<path d="M220.0248 136.5704
L222.3737 137.2224
" />
<path d="M222.3347 137.0009
L222.3737 137.2224
" />
<path d="M223.1225 136.8619
L222.3347 137.0009
" />
<path d="M223.1616 137.0835
L223.1225 136.8619
" />
<path d="M226.9560 131.9974
L221.6184 132.9385
" />
<path d="M226.9560 131.9974
L227.7114 136.2813
" />
<path d="M227.7114 136.2813
L223.1616 137.0835
" />
</g>
<g style="fill:none; 
stroke:#D0D2CD; stroke-width:0.0500; stroke-opacity:1; 
stroke-linecap:round; stroke-linejoin:round;">
<path d="M232.4000 137.1000
L286.2945 110.1528
" />
<path d="M157.5000 71.3000
L154.5000 71.3000
" />
<path d="M230.7000 53.7000
L229.4000 48.8500
" />
<path d="M249.1000 48.7500
L230.7000 53.7000
" />
<path d="M229.4000 48.8500
L211.0000 53.8000
" />
<path d="M142.6500 71.3000
L142.6500 101.3000
" />
<path d="M211.0000 53.8000
L212.2500 58.6000
" />
<path d="M10.7052 110.1535
L64.5500 137.0500
" />
<path d="M103.1000 63.5500
L102.6000 65.4500
" />
<path d="M176.0000 70.4000
L157.5000 71.3000
" />
<path d="M286.2945 110.1528
L271.5657 55.1403
" />
<path d="M102.6000 65.4500
L121.0000 70.4000
" />
<path d="M139.6500 71.3000
L142.6500 71.3000
" />
<path d="M66.3000 53.7000
L67.6000 48.8500
" />
<path d="M67.6000 48.8500
L86.0000 53.8000
" />
<path d="M25.4343 55.1403
L44.8000 60.3500
" />
<path d="M194.4000 65.4500
L176.0000 70.4000
" />
<path d="M25.4343 55.1403
L10.7052 110.1535
" />
<path d="M128.7000 146.8500
L168.3000 146.8500
" />
<path d="M154.5000 101.3000
L142.6500 101.3000
" />
<path d="M154.5000 71.3000
L154.5000 101.3000
" />
<path d="M117.3549 161.8756
L128.7000 146.8500
" />
<path d="M44.8000 60.3500
L47.9000 48.7500
" />
<path d="M252.2000 60.3500
L249.1000 48.7500
" />
<path d="M47.9000 48.7500
L66.3000 53.7000
" />
<path d="M168.3000 146.8500
L179.6449 161.8752
" />
<path d="M64.5500 137.0500
L117.3549 161.8756
" />
<path d="M179.6449 161.8752
L232.4000 137.1000
" />
<path d="M84.7000 58.6000
L103.1000 63.5500
" />
<path d="M139.6500 71.3000
L121.0000 70.4000
" />
<path d="M212.2500 58.6000
L193.9000 63.5500
" />
<path d="M86.0000 53.8000
L84.7000 58.6000
" />
<path d="M193.9000 63.5500
L194.4000 65.4500
" />
<path d="M271.5657 55.1403
L252.2000 60.3500
" />
</g> 
</svg>
