M48
; DRILL file {KiCad (7.0.0)} date Wed Mar  1 21:35:36 2023
; FORMAT={-:-/ absolute / metric / decimal}
; #@! TF.CreationDate,2023-03-01T21:35:36+09:00
; #@! TF.GenerationSoftware,Kicad,Pcbnew,(7.0.0)
; #@! TF.FileFunction,NonPlated,1,2,NPTH
FMAT,2
METRIC
; #@! TA.AperFunction,NonPlated,NPTH,ComponentDrill
T1C0.800
; #@! TA.AperFunction,NonPlated,NPTH,ComponentDrill
T2C1.702
; #@! TA.AperFunction,NonPlated,NPTH,ComponentDrill
T3C3.988
%
G90
G05
T1
X194.25Y-108.0
X194.25Y-110.1
X201.25Y-108.0
X201.25Y-110.1
T2
X82.72Y-65.9
X82.72Y-84.95
X82.72Y-104.0
X92.88Y-65.9
X92.88Y-84.95
X92.88Y-104.0
X101.77Y-53.9
X101.77Y-72.95
X101.77Y-92.0
X111.93Y-53.9
X111.93Y-72.95
X111.93Y-92.0
X120.82Y-48.9
X120.82Y-67.95
X120.82Y-87.0
X130.98Y-48.9
X130.98Y-67.95
X130.98Y-87.0
X134.889Y-115.493
X139.87Y-53.9
X139.87Y-72.95
X139.87Y-92.0
X145.011Y-114.607
X150.03Y-53.9
X150.03Y-72.95
X150.03Y-92.0
X157.997Y-115.168
X158.92Y-55.9
X158.92Y-74.95
X158.92Y-94.0
X168.003Y-116.932
X169.08Y-55.9
X169.08Y-74.95
X169.08Y-94.0
X180.446Y-120.903
X189.654Y-125.197
T3
X87.8Y-65.9
X87.8Y-84.95
X87.8Y-104.0
X106.85Y-53.9
X106.85Y-72.95
X106.85Y-92.0
X125.9Y-48.9
X125.9Y-67.95
X125.9Y-87.0
X139.95Y-115.05
X144.95Y-53.9
X144.95Y-72.95
X144.95Y-92.0
X163.0Y-116.05
X164.0Y-55.9
X164.0Y-74.95
X164.0Y-94.0
X185.05Y-123.05
T0
M30
