%TF.GenerationSoftware,KiCad,Pcbnew,(7.0.0)*%
%TF.CreationDate,2023-03-01T21:35:38+09:00*%
%TF.ProjectId,keyboard_pcb,6b657962-6f61-4726-945f-7063622e6b69,rev1.0*%
%TF.SameCoordinates,Original*%
%TF.FileFunction,Drillmap*%
%TF.FilePolarity,Positive*%
%FSLAX45Y45*%
G04 Gerber Fmt 4.5, Leading zero omitted, Abs format (unit mm)*
G04 Created by KiCad (PCBNEW (7.0.0)) date 2023-03-01 21:35:38*
%MOMM*%
%LPD*%
G01*
G04 APERTURE LIST*
%ADD10C,0.100000*%
%ADD11C,0.200000*%
%ADD12C,0.040000*%
%ADD13C,0.090000*%
%ADD14C,0.149860*%
G04 APERTURE END LIST*
D10*
X17352500Y-4736560D02*
X17352500Y-4936280D01*
X18290000Y-6990000D02*
X18290000Y-6430000D01*
X20280000Y-5220000D02*
G75*
G03*
X20100000Y-5040000I-180000J0D01*
G01*
X7927500Y-11353260D02*
X10650000Y-11354139D01*
X19082169Y-13496263D02*
X20243404Y-11548790D01*
X7926560Y-5637320D02*
G75*
G03*
X7826560Y-5737320I0J-100000D01*
G01*
X13543691Y-4338189D02*
G75*
G03*
X13643691Y-4438189I99999J-1D01*
G01*
X19210000Y-7090000D02*
X18390000Y-7090000D01*
X13143720Y-12595320D02*
X14378773Y-12515995D01*
X17252500Y-4636560D02*
X15547500Y-4638849D01*
X15447500Y-4535900D02*
G75*
G03*
X15347500Y-4435900I-100000J0D01*
G01*
X18390000Y-6330000D02*
G75*
G03*
X18290000Y-6430000I0J-100000D01*
G01*
X12873698Y-12464409D02*
G75*
G03*
X10649656Y-11356249I-2899898J-3034131D01*
G01*
X11637500Y-4038060D02*
X11637500Y-4336840D01*
X20100000Y-5040000D02*
X17452500Y-5036280D01*
X13543691Y-4338189D02*
X13543849Y-4037651D01*
X19210000Y-7090000D02*
G75*
G03*
X19310000Y-6990000I0J100000D01*
G01*
X11537500Y-4436840D02*
G75*
G03*
X11637500Y-4336840I0J100000D01*
G01*
X9632500Y-5638260D02*
G75*
G03*
X9732500Y-5538260I0J100000D01*
G01*
X19309289Y-6430000D02*
X19310000Y-6990000D01*
X17352500Y-4736560D02*
G75*
G03*
X17252500Y-4636560I-100000J0D01*
G01*
X20243404Y-11548790D02*
G75*
G03*
X20280000Y-11440000I-143404J108790D01*
G01*
X13543849Y-4037651D02*
G75*
G03*
X13443849Y-3937651I-99999J1D01*
G01*
X9732500Y-4538031D02*
X9732500Y-5538260D01*
X9632500Y-5638260D02*
X7926560Y-5637320D01*
X7827500Y-11253260D02*
G75*
G03*
X7927500Y-11353260I100000J0D01*
G01*
X15447500Y-4535900D02*
X15450040Y-4563840D01*
X20280000Y-11440000D02*
X20280000Y-11320000D01*
X18211713Y-13235995D02*
X18950160Y-13568140D01*
X9832500Y-4438030D02*
G75*
G03*
X9732500Y-4538031I0J-100000D01*
G01*
X7826560Y-5737320D02*
X7827500Y-11253260D01*
X19309290Y-6430000D02*
G75*
G03*
X19209289Y-6330000I-100000J0D01*
G01*
X18290000Y-6990000D02*
G75*
G03*
X18390000Y-7090000I100000J0D01*
G01*
X12873698Y-12464409D02*
G75*
G03*
X13143676Y-12592958I450362J598069D01*
G01*
X15450041Y-4563840D02*
G75*
G03*
X15547500Y-4639462I97459J24990D01*
G01*
X13443849Y-3937651D02*
X11737500Y-3938060D01*
X18390000Y-6330000D02*
X19209289Y-6330000D01*
X11537500Y-4436840D02*
X9832500Y-4438031D01*
X20280000Y-11320000D02*
X20280000Y-5220000D01*
X17352500Y-4936280D02*
G75*
G03*
X17452500Y-5036280I100000J0D01*
G01*
X18950160Y-13568141D02*
G75*
G03*
X19083332Y-13497026I1430J157571D01*
G01*
X15347500Y-4435900D02*
X13643691Y-4438189D01*
X11737500Y-3938060D02*
G75*
G03*
X11637500Y-4038060I0J-100000D01*
G01*
X18211713Y-13235995D02*
G75*
G03*
X14378773Y-12515995I-3200547J-6475820D01*
G01*
D11*
D12*
X17580000Y-6960000D02*
X17620000Y-7000000D01*
X17620000Y-6960000D02*
X17580000Y-7000000D01*
X17610000Y-8650000D02*
X17650000Y-8690000D01*
X17650000Y-8650000D02*
X17610000Y-8690000D01*
X17655000Y-6565000D02*
X17695000Y-6605000D01*
X17695000Y-6565000D02*
X17655000Y-6605000D01*
X17690000Y-8230000D02*
X17730000Y-8270000D01*
X17730000Y-8230000D02*
X17690000Y-8270000D01*
X19025000Y-7255000D02*
X19065000Y-7295000D01*
X19065000Y-7255000D02*
X19025000Y-7295000D01*
X19973000Y-8465000D02*
X20013000Y-8505000D01*
X20013000Y-8465000D02*
X19973000Y-8505000D01*
X19978000Y-5656000D02*
X20018000Y-5696000D01*
X20018000Y-5656000D02*
X19978000Y-5696000D01*
D13*
X19200000Y-10780000D02*
G75*
G03*
X19200000Y-10780000I-45000J0D01*
G01*
D11*
X19175000Y-10735000D02*
X19135000Y-10735000D01*
X19135000Y-10735000D02*
G75*
G03*
X19135000Y-10825000I0J-45000D01*
G01*
X19135000Y-10825000D02*
X19175000Y-10825000D01*
X19175000Y-10825000D02*
G75*
G03*
X19175000Y-10735000I0J45000D01*
G01*
D13*
X19200000Y-11030000D02*
G75*
G03*
X19200000Y-11030000I-45000J0D01*
G01*
D11*
X19175000Y-10985000D02*
X19135000Y-10985000D01*
X19135000Y-10985000D02*
G75*
G03*
X19135000Y-11075000I0J-45000D01*
G01*
X19135000Y-11075000D02*
X19175000Y-11075000D01*
X19175000Y-11075000D02*
G75*
G03*
X19175000Y-10985000I0J45000D01*
G01*
D13*
X19310000Y-10570000D02*
G75*
G03*
X19310000Y-10570000I-45000J0D01*
G01*
D11*
X19285000Y-10525000D02*
X19245000Y-10525000D01*
X19245000Y-10525000D02*
G75*
G03*
X19245000Y-10615000I0J-45000D01*
G01*
X19245000Y-10615000D02*
X19285000Y-10615000D01*
X19285000Y-10615000D02*
G75*
G03*
X19285000Y-10525000I0J45000D01*
G01*
D13*
X19310000Y-11240000D02*
G75*
G03*
X19310000Y-11240000I-45000J0D01*
G01*
D11*
X19285000Y-11195000D02*
X19245000Y-11195000D01*
X19245000Y-11195000D02*
G75*
G03*
X19245000Y-11285000I0J-45000D01*
G01*
X19245000Y-11285000D02*
X19285000Y-11285000D01*
X19285000Y-11285000D02*
G75*
G03*
X19285000Y-11195000I0J45000D01*
G01*
D13*
X19710000Y-10570000D02*
G75*
G03*
X19710000Y-10570000I-45000J0D01*
G01*
D11*
X19685000Y-10525000D02*
X19645000Y-10525000D01*
X19645000Y-10525000D02*
G75*
G03*
X19645000Y-10615000I0J-45000D01*
G01*
X19645000Y-10615000D02*
X19685000Y-10615000D01*
X19685000Y-10615000D02*
G75*
G03*
X19685000Y-10525000I0J45000D01*
G01*
D13*
X19710000Y-11240000D02*
G75*
G03*
X19710000Y-11240000I-45000J0D01*
G01*
D11*
X19685000Y-11195000D02*
X19645000Y-11195000D01*
X19645000Y-11195000D02*
G75*
G03*
X19645000Y-11285000I0J-45000D01*
G01*
X19645000Y-11285000D02*
X19685000Y-11285000D01*
X19685000Y-11285000D02*
G75*
G03*
X19685000Y-11195000I0J45000D01*
G01*
D13*
X20010000Y-10570000D02*
G75*
G03*
X20010000Y-10570000I-45000J0D01*
G01*
D11*
X19985000Y-10525000D02*
X19945000Y-10525000D01*
X19945000Y-10525000D02*
G75*
G03*
X19945000Y-10615000I0J-45000D01*
G01*
X19945000Y-10615000D02*
X19985000Y-10615000D01*
X19985000Y-10615000D02*
G75*
G03*
X19985000Y-10525000I0J45000D01*
G01*
D13*
X20010000Y-11240000D02*
G75*
G03*
X20010000Y-11240000I-45000J0D01*
G01*
D11*
X19985000Y-11195000D02*
X19945000Y-11195000D01*
X19945000Y-11195000D02*
G75*
G03*
X19945000Y-11285000I0J-45000D01*
G01*
X19945000Y-11285000D02*
X19985000Y-11285000D01*
X19985000Y-11285000D02*
G75*
G03*
X19985000Y-11195000I0J45000D01*
G01*
D10*
X17903500Y-5252000D02*
X17903500Y-5352000D01*
X17853500Y-5302000D02*
X17953500Y-5302000D01*
X17903500Y-5506000D02*
X17903500Y-5606000D01*
X17853500Y-5556000D02*
X17953500Y-5556000D01*
X17903500Y-5760000D02*
X17903500Y-5860000D01*
X17853500Y-5810000D02*
X17953500Y-5810000D01*
X17903500Y-6014000D02*
X17903500Y-6114000D01*
X17853500Y-6064000D02*
X17953500Y-6064000D01*
X17903500Y-6268000D02*
X17903500Y-6368000D01*
X17853500Y-6318000D02*
X17953500Y-6318000D01*
X17903500Y-6522000D02*
X17903500Y-6622000D01*
X17853500Y-6572000D02*
X17953500Y-6572000D01*
X17903500Y-6776000D02*
X17903500Y-6876000D01*
X17853500Y-6826000D02*
X17953500Y-6826000D01*
X17903500Y-7030000D02*
X17903500Y-7130000D01*
X17853500Y-7080000D02*
X17953500Y-7080000D01*
X17903500Y-7284000D02*
X17903500Y-7384000D01*
X17853500Y-7334000D02*
X17953500Y-7334000D01*
X17903500Y-7538000D02*
X17903500Y-7638000D01*
X17853500Y-7588000D02*
X17953500Y-7588000D01*
X17903500Y-7792000D02*
X17903500Y-7892000D01*
X17853500Y-7842000D02*
X17953500Y-7842000D01*
X17903500Y-8046000D02*
X17903500Y-8146000D01*
X17853500Y-8096000D02*
X17953500Y-8096000D01*
X17903500Y-8300000D02*
X17903500Y-8400000D01*
X17853500Y-8350000D02*
X17953500Y-8350000D01*
X17903500Y-8554000D02*
X17903500Y-8654000D01*
X17853500Y-8604000D02*
X17953500Y-8604000D01*
X17903500Y-8808000D02*
X17903500Y-8908000D01*
X17853500Y-8858000D02*
X17953500Y-8858000D01*
X17903500Y-9062000D02*
X17903500Y-9162000D01*
X17853500Y-9112000D02*
X17953500Y-9112000D01*
X17903500Y-9316000D02*
X17903500Y-9416000D01*
X17853500Y-9366000D02*
X17953500Y-9366000D01*
X17903500Y-9570000D02*
X17903500Y-9670000D01*
X17853500Y-9620000D02*
X17953500Y-9620000D01*
X17903500Y-9824000D02*
X17903500Y-9924000D01*
X17853500Y-9874000D02*
X17953500Y-9874000D01*
X17903500Y-10078000D02*
X17903500Y-10178000D01*
X17853500Y-10128000D02*
X17953500Y-10128000D01*
X18169500Y-5250000D02*
X18169500Y-5350000D01*
X18119500Y-5300000D02*
X18219500Y-5300000D01*
X18169500Y-5504000D02*
X18169500Y-5604000D01*
X18119500Y-5554000D02*
X18219500Y-5554000D01*
X18169500Y-5758000D02*
X18169500Y-5858000D01*
X18119500Y-5808000D02*
X18219500Y-5808000D01*
X18169500Y-6012000D02*
X18169500Y-6112000D01*
X18119500Y-6062000D02*
X18219500Y-6062000D01*
X18169500Y-6266000D02*
X18169500Y-6366000D01*
X18119500Y-6316000D02*
X18219500Y-6316000D01*
X18169500Y-6520000D02*
X18169500Y-6620000D01*
X18119500Y-6570000D02*
X18219500Y-6570000D01*
X18169500Y-6774000D02*
X18169500Y-6874000D01*
X18119500Y-6824000D02*
X18219500Y-6824000D01*
X18169500Y-7028000D02*
X18169500Y-7128000D01*
X18119500Y-7078000D02*
X18219500Y-7078000D01*
X18169500Y-7282000D02*
X18169500Y-7382000D01*
X18119500Y-7332000D02*
X18219500Y-7332000D01*
X18169500Y-7536000D02*
X18169500Y-7636000D01*
X18119500Y-7586000D02*
X18219500Y-7586000D01*
X18169500Y-7790000D02*
X18169500Y-7890000D01*
X18119500Y-7840000D02*
X18219500Y-7840000D01*
X18169500Y-8044000D02*
X18169500Y-8144000D01*
X18119500Y-8094000D02*
X18219500Y-8094000D01*
X18169500Y-8298000D02*
X18169500Y-8398000D01*
X18119500Y-8348000D02*
X18219500Y-8348000D01*
X18169500Y-8552000D02*
X18169500Y-8652000D01*
X18119500Y-8602000D02*
X18219500Y-8602000D01*
X18169500Y-8806000D02*
X18169500Y-8906000D01*
X18119500Y-8856000D02*
X18219500Y-8856000D01*
X18169500Y-9060000D02*
X18169500Y-9160000D01*
X18119500Y-9110000D02*
X18219500Y-9110000D01*
X18169500Y-9314000D02*
X18169500Y-9414000D01*
X18119500Y-9364000D02*
X18219500Y-9364000D01*
X18169500Y-9568000D02*
X18169500Y-9668000D01*
X18119500Y-9618000D02*
X18219500Y-9618000D01*
X18169500Y-9822000D02*
X18169500Y-9922000D01*
X18119500Y-9872000D02*
X18219500Y-9872000D01*
X18169500Y-10076000D02*
X18169500Y-10176000D01*
X18119500Y-10126000D02*
X18219500Y-10126000D01*
X19427500Y-5252000D02*
X19427500Y-5352000D01*
X19377500Y-5302000D02*
X19477500Y-5302000D01*
X19427500Y-5506000D02*
X19427500Y-5606000D01*
X19377500Y-5556000D02*
X19477500Y-5556000D01*
X19427500Y-5760000D02*
X19427500Y-5860000D01*
X19377500Y-5810000D02*
X19477500Y-5810000D01*
X19427500Y-6014000D02*
X19427500Y-6114000D01*
X19377500Y-6064000D02*
X19477500Y-6064000D01*
X19427500Y-6268000D02*
X19427500Y-6368000D01*
X19377500Y-6318000D02*
X19477500Y-6318000D01*
X19427500Y-6522000D02*
X19427500Y-6622000D01*
X19377500Y-6572000D02*
X19477500Y-6572000D01*
X19427500Y-6776000D02*
X19427500Y-6876000D01*
X19377500Y-6826000D02*
X19477500Y-6826000D01*
X19427500Y-7030000D02*
X19427500Y-7130000D01*
X19377500Y-7080000D02*
X19477500Y-7080000D01*
X19427500Y-7284000D02*
X19427500Y-7384000D01*
X19377500Y-7334000D02*
X19477500Y-7334000D01*
X19427500Y-7538000D02*
X19427500Y-7638000D01*
X19377500Y-7588000D02*
X19477500Y-7588000D01*
X19427500Y-7792000D02*
X19427500Y-7892000D01*
X19377500Y-7842000D02*
X19477500Y-7842000D01*
X19427500Y-8046000D02*
X19427500Y-8146000D01*
X19377500Y-8096000D02*
X19477500Y-8096000D01*
X19427500Y-8300000D02*
X19427500Y-8400000D01*
X19377500Y-8350000D02*
X19477500Y-8350000D01*
X19427500Y-8554000D02*
X19427500Y-8654000D01*
X19377500Y-8604000D02*
X19477500Y-8604000D01*
X19427500Y-8808000D02*
X19427500Y-8908000D01*
X19377500Y-8858000D02*
X19477500Y-8858000D01*
X19427500Y-9062000D02*
X19427500Y-9162000D01*
X19377500Y-9112000D02*
X19477500Y-9112000D01*
X19427500Y-9316000D02*
X19427500Y-9416000D01*
X19377500Y-9366000D02*
X19477500Y-9366000D01*
X19427500Y-9570000D02*
X19427500Y-9670000D01*
X19377500Y-9620000D02*
X19477500Y-9620000D01*
X19427500Y-9824000D02*
X19427500Y-9924000D01*
X19377500Y-9874000D02*
X19477500Y-9874000D01*
X19427500Y-10078000D02*
X19427500Y-10178000D01*
X19377500Y-10128000D02*
X19477500Y-10128000D01*
X19693500Y-5250000D02*
X19693500Y-5350000D01*
X19643500Y-5300000D02*
X19743500Y-5300000D01*
X19693500Y-5504000D02*
X19693500Y-5604000D01*
X19643500Y-5554000D02*
X19743500Y-5554000D01*
X19693500Y-5758000D02*
X19693500Y-5858000D01*
X19643500Y-5808000D02*
X19743500Y-5808000D01*
X19693500Y-6012000D02*
X19693500Y-6112000D01*
X19643500Y-6062000D02*
X19743500Y-6062000D01*
X19693500Y-6266000D02*
X19693500Y-6366000D01*
X19643500Y-6316000D02*
X19743500Y-6316000D01*
X19693500Y-6520000D02*
X19693500Y-6620000D01*
X19643500Y-6570000D02*
X19743500Y-6570000D01*
X19693500Y-6774000D02*
X19693500Y-6874000D01*
X19643500Y-6824000D02*
X19743500Y-6824000D01*
X19693500Y-7028000D02*
X19693500Y-7128000D01*
X19643500Y-7078000D02*
X19743500Y-7078000D01*
X19693500Y-7282000D02*
X19693500Y-7382000D01*
X19643500Y-7332000D02*
X19743500Y-7332000D01*
X19693500Y-7536000D02*
X19693500Y-7636000D01*
X19643500Y-7586000D02*
X19743500Y-7586000D01*
X19693500Y-7790000D02*
X19693500Y-7890000D01*
X19643500Y-7840000D02*
X19743500Y-7840000D01*
X19693500Y-8044000D02*
X19693500Y-8144000D01*
X19643500Y-8094000D02*
X19743500Y-8094000D01*
X19693500Y-8298000D02*
X19693500Y-8398000D01*
X19643500Y-8348000D02*
X19743500Y-8348000D01*
X19693500Y-8552000D02*
X19693500Y-8652000D01*
X19643500Y-8602000D02*
X19743500Y-8602000D01*
X19693500Y-8806000D02*
X19693500Y-8906000D01*
X19643500Y-8856000D02*
X19743500Y-8856000D01*
X19693500Y-9060000D02*
X19693500Y-9160000D01*
X19643500Y-9110000D02*
X19743500Y-9110000D01*
X19693500Y-9314000D02*
X19693500Y-9414000D01*
X19643500Y-9364000D02*
X19743500Y-9364000D01*
X19693500Y-9568000D02*
X19693500Y-9668000D01*
X19643500Y-9618000D02*
X19743500Y-9618000D01*
X19693500Y-9822000D02*
X19693500Y-9922000D01*
X19643500Y-9872000D02*
X19743500Y-9872000D01*
X19693500Y-10076000D02*
X19693500Y-10176000D01*
X19643500Y-10126000D02*
X19743500Y-10126000D01*
D14*
X8451984Y-6388984D02*
X8451984Y-6283016D01*
X8346016Y-6283016D01*
X8346016Y-6388984D01*
X8451984Y-6388984D01*
X8451984Y-8293984D02*
X8451984Y-8188016D01*
X8346016Y-8188016D01*
X8346016Y-8293984D01*
X8451984Y-8293984D01*
X8451984Y-10198984D02*
X8451984Y-10093016D01*
X8346016Y-10093016D01*
X8346016Y-10198984D01*
X8451984Y-10198984D01*
X8578984Y-6134984D02*
X8578984Y-6029016D01*
X8473016Y-6029016D01*
X8473016Y-6134984D01*
X8578984Y-6134984D01*
X8578984Y-8039984D02*
X8578984Y-7934016D01*
X8473016Y-7934016D01*
X8473016Y-8039984D01*
X8578984Y-8039984D01*
X8578984Y-9944984D02*
X8578984Y-9839016D01*
X8473016Y-9839016D01*
X8473016Y-9944984D01*
X8578984Y-9944984D01*
X9086984Y-6134984D02*
X9086984Y-6029016D01*
X8981016Y-6029016D01*
X8981016Y-6134984D01*
X9086984Y-6134984D01*
X9086984Y-8039984D02*
X9086984Y-7934016D01*
X8981016Y-7934016D01*
X8981016Y-8039984D01*
X9086984Y-8039984D01*
X9086984Y-9944984D02*
X9086984Y-9839016D01*
X8981016Y-9839016D01*
X8981016Y-9944984D01*
X9086984Y-9944984D01*
X9213984Y-6388984D02*
X9213984Y-6283016D01*
X9108016Y-6283016D01*
X9108016Y-6388984D01*
X9213984Y-6388984D01*
X9213984Y-8293984D02*
X9213984Y-8188016D01*
X9108016Y-8188016D01*
X9108016Y-8293984D01*
X9213984Y-8293984D01*
X9213984Y-10198984D02*
X9213984Y-10093016D01*
X9108016Y-10093016D01*
X9108016Y-10198984D01*
X9213984Y-10198984D01*
X10356984Y-5188984D02*
X10356984Y-5083016D01*
X10251016Y-5083016D01*
X10251016Y-5188984D01*
X10356984Y-5188984D01*
X10356984Y-7093984D02*
X10356984Y-6988016D01*
X10251016Y-6988016D01*
X10251016Y-7093984D01*
X10356984Y-7093984D01*
X10356984Y-8998984D02*
X10356984Y-8893016D01*
X10251016Y-8893016D01*
X10251016Y-8998984D01*
X10356984Y-8998984D01*
X10483984Y-4934984D02*
X10483984Y-4829016D01*
X10378016Y-4829016D01*
X10378016Y-4934984D01*
X10483984Y-4934984D01*
X10483984Y-6839984D02*
X10483984Y-6734016D01*
X10378016Y-6734016D01*
X10378016Y-6839984D01*
X10483984Y-6839984D01*
X10483984Y-8744984D02*
X10483984Y-8639016D01*
X10378016Y-8639016D01*
X10378016Y-8744984D01*
X10483984Y-8744984D01*
X10991984Y-4934984D02*
X10991984Y-4829016D01*
X10886016Y-4829016D01*
X10886016Y-4934984D01*
X10991984Y-4934984D01*
X10991984Y-6839984D02*
X10991984Y-6734016D01*
X10886016Y-6734016D01*
X10886016Y-6839984D01*
X10991984Y-6839984D01*
X10991984Y-8744984D02*
X10991984Y-8639016D01*
X10886016Y-8639016D01*
X10886016Y-8744984D01*
X10991984Y-8744984D01*
X11118984Y-5188984D02*
X11118984Y-5083016D01*
X11013016Y-5083016D01*
X11013016Y-5188984D01*
X11118984Y-5188984D01*
X11118984Y-7093984D02*
X11118984Y-6988016D01*
X11013016Y-6988016D01*
X11013016Y-7093984D01*
X11118984Y-7093984D01*
X11118984Y-8998984D02*
X11118984Y-8893016D01*
X11013016Y-8893016D01*
X11013016Y-8998984D01*
X11118984Y-8998984D01*
X12261984Y-4688984D02*
X12261984Y-4583016D01*
X12156016Y-4583016D01*
X12156016Y-4688984D01*
X12261984Y-4688984D01*
X12261984Y-6593984D02*
X12261984Y-6488016D01*
X12156016Y-6488016D01*
X12156016Y-6593984D01*
X12261984Y-6593984D01*
X12261984Y-8498984D02*
X12261984Y-8393016D01*
X12156016Y-8393016D01*
X12156016Y-8498984D01*
X12261984Y-8498984D01*
X12388984Y-4434984D02*
X12388984Y-4329016D01*
X12283016Y-4329016D01*
X12283016Y-4434984D01*
X12388984Y-4434984D01*
X12388984Y-6339984D02*
X12388984Y-6234016D01*
X12283016Y-6234016D01*
X12283016Y-6339984D01*
X12388984Y-6339984D01*
X12388984Y-8244984D02*
X12388984Y-8139016D01*
X12283016Y-8139016D01*
X12283016Y-8244984D01*
X12388984Y-8244984D01*
X12896984Y-4434984D02*
X12896984Y-4329016D01*
X12791016Y-4329016D01*
X12791016Y-4434984D01*
X12896984Y-4434984D01*
X12896984Y-6339984D02*
X12896984Y-6234016D01*
X12791016Y-6234016D01*
X12791016Y-6339984D01*
X12896984Y-6339984D01*
X12896984Y-8244984D02*
X12896984Y-8139016D01*
X12791016Y-8139016D01*
X12791016Y-8244984D01*
X12896984Y-8244984D01*
X13023984Y-4688984D02*
X13023984Y-4583016D01*
X12918016Y-4583016D01*
X12918016Y-4688984D01*
X13023984Y-4688984D01*
X13023984Y-6593984D02*
X13023984Y-6488016D01*
X12918016Y-6488016D01*
X12918016Y-6593984D01*
X13023984Y-6593984D01*
X13023984Y-8498984D02*
X13023984Y-8393016D01*
X12918016Y-8393016D01*
X12918016Y-8498984D01*
X13023984Y-8498984D01*
X13646296Y-11338157D02*
X13646296Y-11232189D01*
X13540328Y-11232189D01*
X13540328Y-11338157D01*
X13646296Y-11338157D01*
X13750675Y-11074055D02*
X13750675Y-10968087D01*
X13644707Y-10968087D01*
X13644707Y-11074055D01*
X13750675Y-11074055D01*
X14166984Y-5188984D02*
X14166984Y-5083016D01*
X14061016Y-5083016D01*
X14061016Y-5188984D01*
X14166984Y-5188984D01*
X14166984Y-7093984D02*
X14166984Y-6988016D01*
X14061016Y-6988016D01*
X14061016Y-7093984D01*
X14166984Y-7093984D01*
X14166984Y-8998984D02*
X14166984Y-8893016D01*
X14061016Y-8893016D01*
X14061016Y-8998984D01*
X14166984Y-8998984D01*
X14256742Y-11029780D02*
X14256742Y-10923812D01*
X14150774Y-10923812D01*
X14150774Y-11029780D01*
X14256742Y-11029780D01*
X14293984Y-4934984D02*
X14293984Y-4829016D01*
X14188016Y-4829016D01*
X14188016Y-4934984D01*
X14293984Y-4934984D01*
X14293984Y-6839984D02*
X14293984Y-6734016D01*
X14188016Y-6734016D01*
X14188016Y-6839984D01*
X14293984Y-6839984D01*
X14293984Y-8744984D02*
X14293984Y-8639016D01*
X14188016Y-8639016D01*
X14188016Y-8744984D01*
X14293984Y-8744984D01*
X14405397Y-11271744D02*
X14405397Y-11165776D01*
X14299429Y-11165776D01*
X14299429Y-11271744D01*
X14405397Y-11271744D01*
X14801984Y-4934984D02*
X14801984Y-4829016D01*
X14696016Y-4829016D01*
X14696016Y-4934984D01*
X14801984Y-4934984D01*
X14801984Y-6839984D02*
X14801984Y-6734016D01*
X14696016Y-6734016D01*
X14696016Y-6839984D01*
X14801984Y-6839984D01*
X14801984Y-8744984D02*
X14801984Y-8639016D01*
X14696016Y-8639016D01*
X14696016Y-8744984D01*
X14801984Y-8744984D01*
X14928984Y-5188984D02*
X14928984Y-5083016D01*
X14823016Y-5083016D01*
X14823016Y-5188984D01*
X14928984Y-5188984D01*
X14928984Y-7093984D02*
X14928984Y-6988016D01*
X14823016Y-6988016D01*
X14823016Y-7093984D01*
X14928984Y-7093984D01*
X14928984Y-8998984D02*
X14928984Y-8893016D01*
X14823016Y-8893016D01*
X14823016Y-8998984D01*
X14928984Y-8998984D01*
X16021879Y-11341683D02*
X16021879Y-11235715D01*
X15915911Y-11235715D01*
X15915911Y-11341683D01*
X16021879Y-11341683D01*
X16071984Y-5388984D02*
X16071984Y-5283016D01*
X15966016Y-5283016D01*
X15966016Y-5388984D01*
X16071984Y-5388984D01*
X16071984Y-7293984D02*
X16071984Y-7188016D01*
X15966016Y-7188016D01*
X15966016Y-7293984D01*
X16071984Y-7293984D01*
X16071984Y-9198984D02*
X16071984Y-9093016D01*
X15966016Y-9093016D01*
X15966016Y-9198984D01*
X16071984Y-9198984D01*
X16191056Y-11113595D02*
X16191056Y-11007627D01*
X16085088Y-11007627D01*
X16085088Y-11113595D01*
X16191056Y-11113595D01*
X16198984Y-5134984D02*
X16198984Y-5029016D01*
X16093016Y-5029016D01*
X16093016Y-5134984D01*
X16198984Y-5134984D01*
X16198984Y-7039984D02*
X16198984Y-6934016D01*
X16093016Y-6934016D01*
X16093016Y-7039984D01*
X16198984Y-7039984D01*
X16198984Y-8944984D02*
X16198984Y-8839016D01*
X16093016Y-8839016D01*
X16093016Y-8944984D01*
X16198984Y-8944984D01*
X16691338Y-11201808D02*
X16691338Y-11095840D01*
X16585370Y-11095840D01*
X16585370Y-11201808D01*
X16691338Y-11201808D01*
X16706984Y-5134984D02*
X16706984Y-5029016D01*
X16601016Y-5029016D01*
X16601016Y-5134984D01*
X16706984Y-5134984D01*
X16706984Y-7039984D02*
X16706984Y-6934016D01*
X16601016Y-6934016D01*
X16601016Y-7039984D01*
X16706984Y-7039984D01*
X16706984Y-8944984D02*
X16706984Y-8839016D01*
X16601016Y-8839016D01*
X16601016Y-8944984D01*
X16706984Y-8944984D01*
X16772302Y-11474003D02*
X16772302Y-11368035D01*
X16666334Y-11368035D01*
X16666334Y-11474003D01*
X16772302Y-11474003D01*
X16833984Y-5388984D02*
X16833984Y-5283016D01*
X16728016Y-5283016D01*
X16728016Y-5388984D01*
X16833984Y-5388984D01*
X16833984Y-7293984D02*
X16833984Y-7188016D01*
X16728016Y-7188016D01*
X16728016Y-7293984D01*
X16833984Y-7293984D01*
X16833984Y-9198984D02*
X16833984Y-9093016D01*
X16728016Y-9093016D01*
X16728016Y-9198984D01*
X16833984Y-9198984D01*
X18320026Y-11966764D02*
X18320026Y-11860796D01*
X18214058Y-11860796D01*
X18214058Y-11966764D01*
X18320026Y-11966764D01*
X18542472Y-11790235D02*
X18542472Y-11684267D01*
X18436504Y-11684267D01*
X18436504Y-11790235D01*
X18542472Y-11790235D01*
X19002876Y-12004925D02*
X19002876Y-11898957D01*
X18896908Y-11898957D01*
X18896908Y-12004925D01*
X19002876Y-12004925D01*
X19010632Y-12288799D02*
X19010632Y-12182831D01*
X18904664Y-12182831D01*
X18904664Y-12288799D01*
X19010632Y-12288799D01*
D11*
X8069179Y-13866624D02*
X8069179Y-13666624D01*
X8069179Y-13666624D02*
X8116798Y-13666624D01*
X8116798Y-13666624D02*
X8145369Y-13676148D01*
X8145369Y-13676148D02*
X8164417Y-13695195D01*
X8164417Y-13695195D02*
X8173941Y-13714243D01*
X8173941Y-13714243D02*
X8183465Y-13752338D01*
X8183465Y-13752338D02*
X8183465Y-13780910D01*
X8183465Y-13780910D02*
X8173941Y-13819005D01*
X8173941Y-13819005D02*
X8164417Y-13838052D01*
X8164417Y-13838052D02*
X8145369Y-13857100D01*
X8145369Y-13857100D02*
X8116798Y-13866624D01*
X8116798Y-13866624D02*
X8069179Y-13866624D01*
X8269179Y-13866624D02*
X8269179Y-13733290D01*
X8269179Y-13771386D02*
X8278703Y-13752338D01*
X8278703Y-13752338D02*
X8288226Y-13742814D01*
X8288226Y-13742814D02*
X8307274Y-13733290D01*
X8307274Y-13733290D02*
X8326322Y-13733290D01*
X8392988Y-13866624D02*
X8392988Y-13733290D01*
X8392988Y-13666624D02*
X8383465Y-13676148D01*
X8383465Y-13676148D02*
X8392988Y-13685671D01*
X8392988Y-13685671D02*
X8402512Y-13676148D01*
X8402512Y-13676148D02*
X8392988Y-13666624D01*
X8392988Y-13666624D02*
X8392988Y-13685671D01*
X8516798Y-13866624D02*
X8497750Y-13857100D01*
X8497750Y-13857100D02*
X8488227Y-13838052D01*
X8488227Y-13838052D02*
X8488227Y-13666624D01*
X8621560Y-13866624D02*
X8602512Y-13857100D01*
X8602512Y-13857100D02*
X8592988Y-13838052D01*
X8592988Y-13838052D02*
X8592988Y-13666624D01*
X8817750Y-13866624D02*
X8817750Y-13666624D01*
X8817750Y-13666624D02*
X8884417Y-13809481D01*
X8884417Y-13809481D02*
X8951084Y-13666624D01*
X8951084Y-13666624D02*
X8951084Y-13866624D01*
X9132036Y-13866624D02*
X9132036Y-13761862D01*
X9132036Y-13761862D02*
X9122512Y-13742814D01*
X9122512Y-13742814D02*
X9103465Y-13733290D01*
X9103465Y-13733290D02*
X9065369Y-13733290D01*
X9065369Y-13733290D02*
X9046322Y-13742814D01*
X9132036Y-13857100D02*
X9112988Y-13866624D01*
X9112988Y-13866624D02*
X9065369Y-13866624D01*
X9065369Y-13866624D02*
X9046322Y-13857100D01*
X9046322Y-13857100D02*
X9036798Y-13838052D01*
X9036798Y-13838052D02*
X9036798Y-13819005D01*
X9036798Y-13819005D02*
X9046322Y-13799957D01*
X9046322Y-13799957D02*
X9065369Y-13790433D01*
X9065369Y-13790433D02*
X9112988Y-13790433D01*
X9112988Y-13790433D02*
X9132036Y-13780910D01*
X9227274Y-13733290D02*
X9227274Y-13933290D01*
X9227274Y-13742814D02*
X9246322Y-13733290D01*
X9246322Y-13733290D02*
X9284417Y-13733290D01*
X9284417Y-13733290D02*
X9303465Y-13742814D01*
X9303465Y-13742814D02*
X9312988Y-13752338D01*
X9312988Y-13752338D02*
X9322512Y-13771386D01*
X9322512Y-13771386D02*
X9322512Y-13828529D01*
X9322512Y-13828529D02*
X9312988Y-13847576D01*
X9312988Y-13847576D02*
X9303465Y-13857100D01*
X9303465Y-13857100D02*
X9284417Y-13866624D01*
X9284417Y-13866624D02*
X9246322Y-13866624D01*
X9246322Y-13866624D02*
X9227274Y-13857100D01*
X9408227Y-13847576D02*
X9417750Y-13857100D01*
X9417750Y-13857100D02*
X9408227Y-13866624D01*
X9408227Y-13866624D02*
X9398703Y-13857100D01*
X9398703Y-13857100D02*
X9408227Y-13847576D01*
X9408227Y-13847576D02*
X9408227Y-13866624D01*
X9408227Y-13742814D02*
X9417750Y-13752338D01*
X9417750Y-13752338D02*
X9408227Y-13761862D01*
X9408227Y-13761862D02*
X9398703Y-13752338D01*
X9398703Y-13752338D02*
X9408227Y-13742814D01*
X9408227Y-13742814D02*
X9408227Y-13761862D01*
D12*
X7781560Y-14193148D02*
X7821560Y-14233148D01*
X7821560Y-14193148D02*
X7781560Y-14233148D01*
D11*
X8107274Y-14086624D02*
X8126322Y-14086624D01*
X8126322Y-14086624D02*
X8145369Y-14096148D01*
X8145369Y-14096148D02*
X8154893Y-14105671D01*
X8154893Y-14105671D02*
X8164417Y-14124719D01*
X8164417Y-14124719D02*
X8173941Y-14162814D01*
X8173941Y-14162814D02*
X8173941Y-14210433D01*
X8173941Y-14210433D02*
X8164417Y-14248529D01*
X8164417Y-14248529D02*
X8154893Y-14267576D01*
X8154893Y-14267576D02*
X8145369Y-14277100D01*
X8145369Y-14277100D02*
X8126322Y-14286624D01*
X8126322Y-14286624D02*
X8107274Y-14286624D01*
X8107274Y-14286624D02*
X8088226Y-14277100D01*
X8088226Y-14277100D02*
X8078703Y-14267576D01*
X8078703Y-14267576D02*
X8069179Y-14248529D01*
X8069179Y-14248529D02*
X8059655Y-14210433D01*
X8059655Y-14210433D02*
X8059655Y-14162814D01*
X8059655Y-14162814D02*
X8069179Y-14124719D01*
X8069179Y-14124719D02*
X8078703Y-14105671D01*
X8078703Y-14105671D02*
X8088226Y-14096148D01*
X8088226Y-14096148D02*
X8107274Y-14086624D01*
X8259655Y-14267576D02*
X8269179Y-14277100D01*
X8269179Y-14277100D02*
X8259655Y-14286624D01*
X8259655Y-14286624D02*
X8250131Y-14277100D01*
X8250131Y-14277100D02*
X8259655Y-14267576D01*
X8259655Y-14267576D02*
X8259655Y-14286624D01*
X8440608Y-14153290D02*
X8440608Y-14286624D01*
X8392988Y-14077100D02*
X8345369Y-14219957D01*
X8345369Y-14219957D02*
X8469179Y-14219957D01*
X8583465Y-14086624D02*
X8602512Y-14086624D01*
X8602512Y-14086624D02*
X8621560Y-14096148D01*
X8621560Y-14096148D02*
X8631084Y-14105671D01*
X8631084Y-14105671D02*
X8640608Y-14124719D01*
X8640608Y-14124719D02*
X8650131Y-14162814D01*
X8650131Y-14162814D02*
X8650131Y-14210433D01*
X8650131Y-14210433D02*
X8640608Y-14248529D01*
X8640608Y-14248529D02*
X8631084Y-14267576D01*
X8631084Y-14267576D02*
X8621560Y-14277100D01*
X8621560Y-14277100D02*
X8602512Y-14286624D01*
X8602512Y-14286624D02*
X8583465Y-14286624D01*
X8583465Y-14286624D02*
X8564417Y-14277100D01*
X8564417Y-14277100D02*
X8554893Y-14267576D01*
X8554893Y-14267576D02*
X8545369Y-14248529D01*
X8545369Y-14248529D02*
X8535846Y-14210433D01*
X8535846Y-14210433D02*
X8535846Y-14162814D01*
X8535846Y-14162814D02*
X8545369Y-14124719D01*
X8545369Y-14124719D02*
X8554893Y-14105671D01*
X8554893Y-14105671D02*
X8564417Y-14096148D01*
X8564417Y-14096148D02*
X8583465Y-14086624D01*
X8773941Y-14086624D02*
X8792989Y-14086624D01*
X8792989Y-14086624D02*
X8812036Y-14096148D01*
X8812036Y-14096148D02*
X8821560Y-14105671D01*
X8821560Y-14105671D02*
X8831084Y-14124719D01*
X8831084Y-14124719D02*
X8840608Y-14162814D01*
X8840608Y-14162814D02*
X8840608Y-14210433D01*
X8840608Y-14210433D02*
X8831084Y-14248529D01*
X8831084Y-14248529D02*
X8821560Y-14267576D01*
X8821560Y-14267576D02*
X8812036Y-14277100D01*
X8812036Y-14277100D02*
X8792989Y-14286624D01*
X8792989Y-14286624D02*
X8773941Y-14286624D01*
X8773941Y-14286624D02*
X8754893Y-14277100D01*
X8754893Y-14277100D02*
X8745369Y-14267576D01*
X8745369Y-14267576D02*
X8735846Y-14248529D01*
X8735846Y-14248529D02*
X8726322Y-14210433D01*
X8726322Y-14210433D02*
X8726322Y-14162814D01*
X8726322Y-14162814D02*
X8735846Y-14124719D01*
X8735846Y-14124719D02*
X8745369Y-14105671D01*
X8745369Y-14105671D02*
X8754893Y-14096148D01*
X8754893Y-14096148D02*
X8773941Y-14086624D01*
X8926322Y-14286624D02*
X8926322Y-14153290D01*
X8926322Y-14172338D02*
X8935846Y-14162814D01*
X8935846Y-14162814D02*
X8954893Y-14153290D01*
X8954893Y-14153290D02*
X8983465Y-14153290D01*
X8983465Y-14153290D02*
X9002512Y-14162814D01*
X9002512Y-14162814D02*
X9012036Y-14181862D01*
X9012036Y-14181862D02*
X9012036Y-14286624D01*
X9012036Y-14181862D02*
X9021560Y-14162814D01*
X9021560Y-14162814D02*
X9040608Y-14153290D01*
X9040608Y-14153290D02*
X9069179Y-14153290D01*
X9069179Y-14153290D02*
X9088227Y-14162814D01*
X9088227Y-14162814D02*
X9097750Y-14181862D01*
X9097750Y-14181862D02*
X9097750Y-14286624D01*
X9192989Y-14286624D02*
X9192989Y-14153290D01*
X9192989Y-14172338D02*
X9202512Y-14162814D01*
X9202512Y-14162814D02*
X9221560Y-14153290D01*
X9221560Y-14153290D02*
X9250131Y-14153290D01*
X9250131Y-14153290D02*
X9269179Y-14162814D01*
X9269179Y-14162814D02*
X9278703Y-14181862D01*
X9278703Y-14181862D02*
X9278703Y-14286624D01*
X9278703Y-14181862D02*
X9288227Y-14162814D01*
X9288227Y-14162814D02*
X9307274Y-14153290D01*
X9307274Y-14153290D02*
X9335846Y-14153290D01*
X9335846Y-14153290D02*
X9354893Y-14162814D01*
X9354893Y-14162814D02*
X9364417Y-14181862D01*
X9364417Y-14181862D02*
X9364417Y-14286624D01*
X9722512Y-14077100D02*
X9551084Y-14334243D01*
X9947274Y-14086624D02*
X9966322Y-14086624D01*
X9966322Y-14086624D02*
X9985370Y-14096148D01*
X9985370Y-14096148D02*
X9994893Y-14105671D01*
X9994893Y-14105671D02*
X10004417Y-14124719D01*
X10004417Y-14124719D02*
X10013941Y-14162814D01*
X10013941Y-14162814D02*
X10013941Y-14210433D01*
X10013941Y-14210433D02*
X10004417Y-14248529D01*
X10004417Y-14248529D02*
X9994893Y-14267576D01*
X9994893Y-14267576D02*
X9985370Y-14277100D01*
X9985370Y-14277100D02*
X9966322Y-14286624D01*
X9966322Y-14286624D02*
X9947274Y-14286624D01*
X9947274Y-14286624D02*
X9928227Y-14277100D01*
X9928227Y-14277100D02*
X9918703Y-14267576D01*
X9918703Y-14267576D02*
X9909179Y-14248529D01*
X9909179Y-14248529D02*
X9899655Y-14210433D01*
X9899655Y-14210433D02*
X9899655Y-14162814D01*
X9899655Y-14162814D02*
X9909179Y-14124719D01*
X9909179Y-14124719D02*
X9918703Y-14105671D01*
X9918703Y-14105671D02*
X9928227Y-14096148D01*
X9928227Y-14096148D02*
X9947274Y-14086624D01*
X10099655Y-14267576D02*
X10109179Y-14277100D01*
X10109179Y-14277100D02*
X10099655Y-14286624D01*
X10099655Y-14286624D02*
X10090131Y-14277100D01*
X10090131Y-14277100D02*
X10099655Y-14267576D01*
X10099655Y-14267576D02*
X10099655Y-14286624D01*
X10232989Y-14086624D02*
X10252036Y-14086624D01*
X10252036Y-14086624D02*
X10271084Y-14096148D01*
X10271084Y-14096148D02*
X10280608Y-14105671D01*
X10280608Y-14105671D02*
X10290131Y-14124719D01*
X10290131Y-14124719D02*
X10299655Y-14162814D01*
X10299655Y-14162814D02*
X10299655Y-14210433D01*
X10299655Y-14210433D02*
X10290131Y-14248529D01*
X10290131Y-14248529D02*
X10280608Y-14267576D01*
X10280608Y-14267576D02*
X10271084Y-14277100D01*
X10271084Y-14277100D02*
X10252036Y-14286624D01*
X10252036Y-14286624D02*
X10232989Y-14286624D01*
X10232989Y-14286624D02*
X10213941Y-14277100D01*
X10213941Y-14277100D02*
X10204417Y-14267576D01*
X10204417Y-14267576D02*
X10194893Y-14248529D01*
X10194893Y-14248529D02*
X10185370Y-14210433D01*
X10185370Y-14210433D02*
X10185370Y-14162814D01*
X10185370Y-14162814D02*
X10194893Y-14124719D01*
X10194893Y-14124719D02*
X10204417Y-14105671D01*
X10204417Y-14105671D02*
X10213941Y-14096148D01*
X10213941Y-14096148D02*
X10232989Y-14086624D01*
X10490131Y-14286624D02*
X10375846Y-14286624D01*
X10432989Y-14286624D02*
X10432989Y-14086624D01*
X10432989Y-14086624D02*
X10413941Y-14115195D01*
X10413941Y-14115195D02*
X10394893Y-14134243D01*
X10394893Y-14134243D02*
X10375846Y-14143767D01*
X10671084Y-14086624D02*
X10575846Y-14086624D01*
X10575846Y-14086624D02*
X10566322Y-14181862D01*
X10566322Y-14181862D02*
X10575846Y-14172338D01*
X10575846Y-14172338D02*
X10594893Y-14162814D01*
X10594893Y-14162814D02*
X10642512Y-14162814D01*
X10642512Y-14162814D02*
X10661560Y-14172338D01*
X10661560Y-14172338D02*
X10671084Y-14181862D01*
X10671084Y-14181862D02*
X10680608Y-14200910D01*
X10680608Y-14200910D02*
X10680608Y-14248529D01*
X10680608Y-14248529D02*
X10671084Y-14267576D01*
X10671084Y-14267576D02*
X10661560Y-14277100D01*
X10661560Y-14277100D02*
X10642512Y-14286624D01*
X10642512Y-14286624D02*
X10594893Y-14286624D01*
X10594893Y-14286624D02*
X10575846Y-14277100D01*
X10575846Y-14277100D02*
X10566322Y-14267576D01*
X10747274Y-14086624D02*
X10880608Y-14086624D01*
X10880608Y-14086624D02*
X10794893Y-14286624D01*
X10947274Y-14086624D02*
X10947274Y-14124719D01*
X11023465Y-14086624D02*
X11023465Y-14124719D01*
X11286322Y-14362814D02*
X11276798Y-14353290D01*
X11276798Y-14353290D02*
X11257750Y-14324719D01*
X11257750Y-14324719D02*
X11248227Y-14305671D01*
X11248227Y-14305671D02*
X11238703Y-14277100D01*
X11238703Y-14277100D02*
X11229179Y-14229481D01*
X11229179Y-14229481D02*
X11229179Y-14191386D01*
X11229179Y-14191386D02*
X11238703Y-14143767D01*
X11238703Y-14143767D02*
X11248227Y-14115195D01*
X11248227Y-14115195D02*
X11257750Y-14096148D01*
X11257750Y-14096148D02*
X11276798Y-14067576D01*
X11276798Y-14067576D02*
X11286322Y-14058052D01*
X11343465Y-14086624D02*
X11476798Y-14086624D01*
X11476798Y-14086624D02*
X11391084Y-14286624D01*
X11672989Y-14286624D02*
X11672989Y-14086624D01*
X11758703Y-14286624D02*
X11758703Y-14181862D01*
X11758703Y-14181862D02*
X11749179Y-14162814D01*
X11749179Y-14162814D02*
X11730131Y-14153290D01*
X11730131Y-14153290D02*
X11701560Y-14153290D01*
X11701560Y-14153290D02*
X11682512Y-14162814D01*
X11682512Y-14162814D02*
X11672989Y-14172338D01*
X11882512Y-14286624D02*
X11863465Y-14277100D01*
X11863465Y-14277100D02*
X11853941Y-14267576D01*
X11853941Y-14267576D02*
X11844417Y-14248529D01*
X11844417Y-14248529D02*
X11844417Y-14191386D01*
X11844417Y-14191386D02*
X11853941Y-14172338D01*
X11853941Y-14172338D02*
X11863465Y-14162814D01*
X11863465Y-14162814D02*
X11882512Y-14153290D01*
X11882512Y-14153290D02*
X11911084Y-14153290D01*
X11911084Y-14153290D02*
X11930131Y-14162814D01*
X11930131Y-14162814D02*
X11939655Y-14172338D01*
X11939655Y-14172338D02*
X11949179Y-14191386D01*
X11949179Y-14191386D02*
X11949179Y-14248529D01*
X11949179Y-14248529D02*
X11939655Y-14267576D01*
X11939655Y-14267576D02*
X11930131Y-14277100D01*
X11930131Y-14277100D02*
X11911084Y-14286624D01*
X11911084Y-14286624D02*
X11882512Y-14286624D01*
X12063465Y-14286624D02*
X12044417Y-14277100D01*
X12044417Y-14277100D02*
X12034893Y-14258052D01*
X12034893Y-14258052D02*
X12034893Y-14086624D01*
X12215846Y-14277100D02*
X12196798Y-14286624D01*
X12196798Y-14286624D02*
X12158703Y-14286624D01*
X12158703Y-14286624D02*
X12139655Y-14277100D01*
X12139655Y-14277100D02*
X12130131Y-14258052D01*
X12130131Y-14258052D02*
X12130131Y-14181862D01*
X12130131Y-14181862D02*
X12139655Y-14162814D01*
X12139655Y-14162814D02*
X12158703Y-14153290D01*
X12158703Y-14153290D02*
X12196798Y-14153290D01*
X12196798Y-14153290D02*
X12215846Y-14162814D01*
X12215846Y-14162814D02*
X12225370Y-14181862D01*
X12225370Y-14181862D02*
X12225370Y-14200910D01*
X12225370Y-14200910D02*
X12130131Y-14219957D01*
X12301560Y-14277100D02*
X12320608Y-14286624D01*
X12320608Y-14286624D02*
X12358703Y-14286624D01*
X12358703Y-14286624D02*
X12377751Y-14277100D01*
X12377751Y-14277100D02*
X12387274Y-14258052D01*
X12387274Y-14258052D02*
X12387274Y-14248529D01*
X12387274Y-14248529D02*
X12377751Y-14229481D01*
X12377751Y-14229481D02*
X12358703Y-14219957D01*
X12358703Y-14219957D02*
X12330131Y-14219957D01*
X12330131Y-14219957D02*
X12311084Y-14210433D01*
X12311084Y-14210433D02*
X12301560Y-14191386D01*
X12301560Y-14191386D02*
X12301560Y-14181862D01*
X12301560Y-14181862D02*
X12311084Y-14162814D01*
X12311084Y-14162814D02*
X12330131Y-14153290D01*
X12330131Y-14153290D02*
X12358703Y-14153290D01*
X12358703Y-14153290D02*
X12377751Y-14162814D01*
X12453941Y-14362814D02*
X12463465Y-14353290D01*
X12463465Y-14353290D02*
X12482512Y-14324719D01*
X12482512Y-14324719D02*
X12492036Y-14305671D01*
X12492036Y-14305671D02*
X12501560Y-14277100D01*
X12501560Y-14277100D02*
X12511084Y-14229481D01*
X12511084Y-14229481D02*
X12511084Y-14191386D01*
X12511084Y-14191386D02*
X12501560Y-14143767D01*
X12501560Y-14143767D02*
X12492036Y-14115195D01*
X12492036Y-14115195D02*
X12482512Y-14096148D01*
X12482512Y-14096148D02*
X12463465Y-14067576D01*
X12463465Y-14067576D02*
X12453941Y-14058052D01*
D13*
X7821560Y-14477148D02*
G75*
G03*
X7821560Y-14477148I-45000J0D01*
G01*
D11*
X8107274Y-14350624D02*
X8126322Y-14350624D01*
X8126322Y-14350624D02*
X8145369Y-14360148D01*
X8145369Y-14360148D02*
X8154893Y-14369671D01*
X8154893Y-14369671D02*
X8164417Y-14388719D01*
X8164417Y-14388719D02*
X8173941Y-14426814D01*
X8173941Y-14426814D02*
X8173941Y-14474433D01*
X8173941Y-14474433D02*
X8164417Y-14512529D01*
X8164417Y-14512529D02*
X8154893Y-14531576D01*
X8154893Y-14531576D02*
X8145369Y-14541100D01*
X8145369Y-14541100D02*
X8126322Y-14550624D01*
X8126322Y-14550624D02*
X8107274Y-14550624D01*
X8107274Y-14550624D02*
X8088226Y-14541100D01*
X8088226Y-14541100D02*
X8078703Y-14531576D01*
X8078703Y-14531576D02*
X8069179Y-14512529D01*
X8069179Y-14512529D02*
X8059655Y-14474433D01*
X8059655Y-14474433D02*
X8059655Y-14426814D01*
X8059655Y-14426814D02*
X8069179Y-14388719D01*
X8069179Y-14388719D02*
X8078703Y-14369671D01*
X8078703Y-14369671D02*
X8088226Y-14360148D01*
X8088226Y-14360148D02*
X8107274Y-14350624D01*
X8259655Y-14531576D02*
X8269179Y-14541100D01*
X8269179Y-14541100D02*
X8259655Y-14550624D01*
X8259655Y-14550624D02*
X8250131Y-14541100D01*
X8250131Y-14541100D02*
X8259655Y-14531576D01*
X8259655Y-14531576D02*
X8259655Y-14550624D01*
X8364417Y-14550624D02*
X8402512Y-14550624D01*
X8402512Y-14550624D02*
X8421560Y-14541100D01*
X8421560Y-14541100D02*
X8431084Y-14531576D01*
X8431084Y-14531576D02*
X8450131Y-14503005D01*
X8450131Y-14503005D02*
X8459655Y-14464910D01*
X8459655Y-14464910D02*
X8459655Y-14388719D01*
X8459655Y-14388719D02*
X8450131Y-14369671D01*
X8450131Y-14369671D02*
X8440608Y-14360148D01*
X8440608Y-14360148D02*
X8421560Y-14350624D01*
X8421560Y-14350624D02*
X8383465Y-14350624D01*
X8383465Y-14350624D02*
X8364417Y-14360148D01*
X8364417Y-14360148D02*
X8354893Y-14369671D01*
X8354893Y-14369671D02*
X8345369Y-14388719D01*
X8345369Y-14388719D02*
X8345369Y-14436338D01*
X8345369Y-14436338D02*
X8354893Y-14455386D01*
X8354893Y-14455386D02*
X8364417Y-14464910D01*
X8364417Y-14464910D02*
X8383465Y-14474433D01*
X8383465Y-14474433D02*
X8421560Y-14474433D01*
X8421560Y-14474433D02*
X8440608Y-14464910D01*
X8440608Y-14464910D02*
X8450131Y-14455386D01*
X8450131Y-14455386D02*
X8459655Y-14436338D01*
X8583465Y-14350624D02*
X8602512Y-14350624D01*
X8602512Y-14350624D02*
X8621560Y-14360148D01*
X8621560Y-14360148D02*
X8631084Y-14369671D01*
X8631084Y-14369671D02*
X8640608Y-14388719D01*
X8640608Y-14388719D02*
X8650131Y-14426814D01*
X8650131Y-14426814D02*
X8650131Y-14474433D01*
X8650131Y-14474433D02*
X8640608Y-14512529D01*
X8640608Y-14512529D02*
X8631084Y-14531576D01*
X8631084Y-14531576D02*
X8621560Y-14541100D01*
X8621560Y-14541100D02*
X8602512Y-14550624D01*
X8602512Y-14550624D02*
X8583465Y-14550624D01*
X8583465Y-14550624D02*
X8564417Y-14541100D01*
X8564417Y-14541100D02*
X8554893Y-14531576D01*
X8554893Y-14531576D02*
X8545369Y-14512529D01*
X8545369Y-14512529D02*
X8535846Y-14474433D01*
X8535846Y-14474433D02*
X8535846Y-14426814D01*
X8535846Y-14426814D02*
X8545369Y-14388719D01*
X8545369Y-14388719D02*
X8554893Y-14369671D01*
X8554893Y-14369671D02*
X8564417Y-14360148D01*
X8564417Y-14360148D02*
X8583465Y-14350624D01*
X8773941Y-14350624D02*
X8792989Y-14350624D01*
X8792989Y-14350624D02*
X8812036Y-14360148D01*
X8812036Y-14360148D02*
X8821560Y-14369671D01*
X8821560Y-14369671D02*
X8831084Y-14388719D01*
X8831084Y-14388719D02*
X8840608Y-14426814D01*
X8840608Y-14426814D02*
X8840608Y-14474433D01*
X8840608Y-14474433D02*
X8831084Y-14512529D01*
X8831084Y-14512529D02*
X8821560Y-14531576D01*
X8821560Y-14531576D02*
X8812036Y-14541100D01*
X8812036Y-14541100D02*
X8792989Y-14550624D01*
X8792989Y-14550624D02*
X8773941Y-14550624D01*
X8773941Y-14550624D02*
X8754893Y-14541100D01*
X8754893Y-14541100D02*
X8745369Y-14531576D01*
X8745369Y-14531576D02*
X8735846Y-14512529D01*
X8735846Y-14512529D02*
X8726322Y-14474433D01*
X8726322Y-14474433D02*
X8726322Y-14426814D01*
X8726322Y-14426814D02*
X8735846Y-14388719D01*
X8735846Y-14388719D02*
X8745369Y-14369671D01*
X8745369Y-14369671D02*
X8754893Y-14360148D01*
X8754893Y-14360148D02*
X8773941Y-14350624D01*
X8926322Y-14550624D02*
X8926322Y-14417290D01*
X8926322Y-14436338D02*
X8935846Y-14426814D01*
X8935846Y-14426814D02*
X8954893Y-14417290D01*
X8954893Y-14417290D02*
X8983465Y-14417290D01*
X8983465Y-14417290D02*
X9002512Y-14426814D01*
X9002512Y-14426814D02*
X9012036Y-14445862D01*
X9012036Y-14445862D02*
X9012036Y-14550624D01*
X9012036Y-14445862D02*
X9021560Y-14426814D01*
X9021560Y-14426814D02*
X9040608Y-14417290D01*
X9040608Y-14417290D02*
X9069179Y-14417290D01*
X9069179Y-14417290D02*
X9088227Y-14426814D01*
X9088227Y-14426814D02*
X9097750Y-14445862D01*
X9097750Y-14445862D02*
X9097750Y-14550624D01*
X9192989Y-14550624D02*
X9192989Y-14417290D01*
X9192989Y-14436338D02*
X9202512Y-14426814D01*
X9202512Y-14426814D02*
X9221560Y-14417290D01*
X9221560Y-14417290D02*
X9250131Y-14417290D01*
X9250131Y-14417290D02*
X9269179Y-14426814D01*
X9269179Y-14426814D02*
X9278703Y-14445862D01*
X9278703Y-14445862D02*
X9278703Y-14550624D01*
X9278703Y-14445862D02*
X9288227Y-14426814D01*
X9288227Y-14426814D02*
X9307274Y-14417290D01*
X9307274Y-14417290D02*
X9335846Y-14417290D01*
X9335846Y-14417290D02*
X9354893Y-14426814D01*
X9354893Y-14426814D02*
X9364417Y-14445862D01*
X9364417Y-14445862D02*
X9364417Y-14550624D01*
X9722512Y-14341100D02*
X9551084Y-14598243D01*
X9947274Y-14350624D02*
X9966322Y-14350624D01*
X9966322Y-14350624D02*
X9985370Y-14360148D01*
X9985370Y-14360148D02*
X9994893Y-14369671D01*
X9994893Y-14369671D02*
X10004417Y-14388719D01*
X10004417Y-14388719D02*
X10013941Y-14426814D01*
X10013941Y-14426814D02*
X10013941Y-14474433D01*
X10013941Y-14474433D02*
X10004417Y-14512529D01*
X10004417Y-14512529D02*
X9994893Y-14531576D01*
X9994893Y-14531576D02*
X9985370Y-14541100D01*
X9985370Y-14541100D02*
X9966322Y-14550624D01*
X9966322Y-14550624D02*
X9947274Y-14550624D01*
X9947274Y-14550624D02*
X9928227Y-14541100D01*
X9928227Y-14541100D02*
X9918703Y-14531576D01*
X9918703Y-14531576D02*
X9909179Y-14512529D01*
X9909179Y-14512529D02*
X9899655Y-14474433D01*
X9899655Y-14474433D02*
X9899655Y-14426814D01*
X9899655Y-14426814D02*
X9909179Y-14388719D01*
X9909179Y-14388719D02*
X9918703Y-14369671D01*
X9918703Y-14369671D02*
X9928227Y-14360148D01*
X9928227Y-14360148D02*
X9947274Y-14350624D01*
X10099655Y-14531576D02*
X10109179Y-14541100D01*
X10109179Y-14541100D02*
X10099655Y-14550624D01*
X10099655Y-14550624D02*
X10090131Y-14541100D01*
X10090131Y-14541100D02*
X10099655Y-14531576D01*
X10099655Y-14531576D02*
X10099655Y-14550624D01*
X10232989Y-14350624D02*
X10252036Y-14350624D01*
X10252036Y-14350624D02*
X10271084Y-14360148D01*
X10271084Y-14360148D02*
X10280608Y-14369671D01*
X10280608Y-14369671D02*
X10290131Y-14388719D01*
X10290131Y-14388719D02*
X10299655Y-14426814D01*
X10299655Y-14426814D02*
X10299655Y-14474433D01*
X10299655Y-14474433D02*
X10290131Y-14512529D01*
X10290131Y-14512529D02*
X10280608Y-14531576D01*
X10280608Y-14531576D02*
X10271084Y-14541100D01*
X10271084Y-14541100D02*
X10252036Y-14550624D01*
X10252036Y-14550624D02*
X10232989Y-14550624D01*
X10232989Y-14550624D02*
X10213941Y-14541100D01*
X10213941Y-14541100D02*
X10204417Y-14531576D01*
X10204417Y-14531576D02*
X10194893Y-14512529D01*
X10194893Y-14512529D02*
X10185370Y-14474433D01*
X10185370Y-14474433D02*
X10185370Y-14426814D01*
X10185370Y-14426814D02*
X10194893Y-14388719D01*
X10194893Y-14388719D02*
X10204417Y-14369671D01*
X10204417Y-14369671D02*
X10213941Y-14360148D01*
X10213941Y-14360148D02*
X10232989Y-14350624D01*
X10366322Y-14350624D02*
X10490131Y-14350624D01*
X10490131Y-14350624D02*
X10423465Y-14426814D01*
X10423465Y-14426814D02*
X10452036Y-14426814D01*
X10452036Y-14426814D02*
X10471084Y-14436338D01*
X10471084Y-14436338D02*
X10480608Y-14445862D01*
X10480608Y-14445862D02*
X10490131Y-14464910D01*
X10490131Y-14464910D02*
X10490131Y-14512529D01*
X10490131Y-14512529D02*
X10480608Y-14531576D01*
X10480608Y-14531576D02*
X10471084Y-14541100D01*
X10471084Y-14541100D02*
X10452036Y-14550624D01*
X10452036Y-14550624D02*
X10394893Y-14550624D01*
X10394893Y-14550624D02*
X10375846Y-14541100D01*
X10375846Y-14541100D02*
X10366322Y-14531576D01*
X10671084Y-14350624D02*
X10575846Y-14350624D01*
X10575846Y-14350624D02*
X10566322Y-14445862D01*
X10566322Y-14445862D02*
X10575846Y-14436338D01*
X10575846Y-14436338D02*
X10594893Y-14426814D01*
X10594893Y-14426814D02*
X10642512Y-14426814D01*
X10642512Y-14426814D02*
X10661560Y-14436338D01*
X10661560Y-14436338D02*
X10671084Y-14445862D01*
X10671084Y-14445862D02*
X10680608Y-14464910D01*
X10680608Y-14464910D02*
X10680608Y-14512529D01*
X10680608Y-14512529D02*
X10671084Y-14531576D01*
X10671084Y-14531576D02*
X10661560Y-14541100D01*
X10661560Y-14541100D02*
X10642512Y-14550624D01*
X10642512Y-14550624D02*
X10594893Y-14550624D01*
X10594893Y-14550624D02*
X10575846Y-14541100D01*
X10575846Y-14541100D02*
X10566322Y-14531576D01*
X10852036Y-14417290D02*
X10852036Y-14550624D01*
X10804417Y-14341100D02*
X10756798Y-14483957D01*
X10756798Y-14483957D02*
X10880608Y-14483957D01*
X10947274Y-14350624D02*
X10947274Y-14388719D01*
X11023465Y-14350624D02*
X11023465Y-14388719D01*
X11286322Y-14626814D02*
X11276798Y-14617290D01*
X11276798Y-14617290D02*
X11257750Y-14588719D01*
X11257750Y-14588719D02*
X11248227Y-14569671D01*
X11248227Y-14569671D02*
X11238703Y-14541100D01*
X11238703Y-14541100D02*
X11229179Y-14493481D01*
X11229179Y-14493481D02*
X11229179Y-14455386D01*
X11229179Y-14455386D02*
X11238703Y-14407767D01*
X11238703Y-14407767D02*
X11248227Y-14379195D01*
X11248227Y-14379195D02*
X11257750Y-14360148D01*
X11257750Y-14360148D02*
X11276798Y-14331576D01*
X11276798Y-14331576D02*
X11286322Y-14322052D01*
X11400608Y-14350624D02*
X11419655Y-14350624D01*
X11419655Y-14350624D02*
X11438703Y-14360148D01*
X11438703Y-14360148D02*
X11448227Y-14369671D01*
X11448227Y-14369671D02*
X11457750Y-14388719D01*
X11457750Y-14388719D02*
X11467274Y-14426814D01*
X11467274Y-14426814D02*
X11467274Y-14474433D01*
X11467274Y-14474433D02*
X11457750Y-14512529D01*
X11457750Y-14512529D02*
X11448227Y-14531576D01*
X11448227Y-14531576D02*
X11438703Y-14541100D01*
X11438703Y-14541100D02*
X11419655Y-14550624D01*
X11419655Y-14550624D02*
X11400608Y-14550624D01*
X11400608Y-14550624D02*
X11381560Y-14541100D01*
X11381560Y-14541100D02*
X11372036Y-14531576D01*
X11372036Y-14531576D02*
X11362512Y-14512529D01*
X11362512Y-14512529D02*
X11352989Y-14474433D01*
X11352989Y-14474433D02*
X11352989Y-14426814D01*
X11352989Y-14426814D02*
X11362512Y-14388719D01*
X11362512Y-14388719D02*
X11372036Y-14369671D01*
X11372036Y-14369671D02*
X11381560Y-14360148D01*
X11381560Y-14360148D02*
X11400608Y-14350624D01*
X11672989Y-14550624D02*
X11672989Y-14350624D01*
X11758703Y-14550624D02*
X11758703Y-14445862D01*
X11758703Y-14445862D02*
X11749179Y-14426814D01*
X11749179Y-14426814D02*
X11730131Y-14417290D01*
X11730131Y-14417290D02*
X11701560Y-14417290D01*
X11701560Y-14417290D02*
X11682512Y-14426814D01*
X11682512Y-14426814D02*
X11672989Y-14436338D01*
X11882512Y-14550624D02*
X11863465Y-14541100D01*
X11863465Y-14541100D02*
X11853941Y-14531576D01*
X11853941Y-14531576D02*
X11844417Y-14512529D01*
X11844417Y-14512529D02*
X11844417Y-14455386D01*
X11844417Y-14455386D02*
X11853941Y-14436338D01*
X11853941Y-14436338D02*
X11863465Y-14426814D01*
X11863465Y-14426814D02*
X11882512Y-14417290D01*
X11882512Y-14417290D02*
X11911084Y-14417290D01*
X11911084Y-14417290D02*
X11930131Y-14426814D01*
X11930131Y-14426814D02*
X11939655Y-14436338D01*
X11939655Y-14436338D02*
X11949179Y-14455386D01*
X11949179Y-14455386D02*
X11949179Y-14512529D01*
X11949179Y-14512529D02*
X11939655Y-14531576D01*
X11939655Y-14531576D02*
X11930131Y-14541100D01*
X11930131Y-14541100D02*
X11911084Y-14550624D01*
X11911084Y-14550624D02*
X11882512Y-14550624D01*
X12063465Y-14550624D02*
X12044417Y-14541100D01*
X12044417Y-14541100D02*
X12034893Y-14522052D01*
X12034893Y-14522052D02*
X12034893Y-14350624D01*
X12215846Y-14541100D02*
X12196798Y-14550624D01*
X12196798Y-14550624D02*
X12158703Y-14550624D01*
X12158703Y-14550624D02*
X12139655Y-14541100D01*
X12139655Y-14541100D02*
X12130131Y-14522052D01*
X12130131Y-14522052D02*
X12130131Y-14445862D01*
X12130131Y-14445862D02*
X12139655Y-14426814D01*
X12139655Y-14426814D02*
X12158703Y-14417290D01*
X12158703Y-14417290D02*
X12196798Y-14417290D01*
X12196798Y-14417290D02*
X12215846Y-14426814D01*
X12215846Y-14426814D02*
X12225370Y-14445862D01*
X12225370Y-14445862D02*
X12225370Y-14464910D01*
X12225370Y-14464910D02*
X12130131Y-14483957D01*
X12301560Y-14541100D02*
X12320608Y-14550624D01*
X12320608Y-14550624D02*
X12358703Y-14550624D01*
X12358703Y-14550624D02*
X12377751Y-14541100D01*
X12377751Y-14541100D02*
X12387274Y-14522052D01*
X12387274Y-14522052D02*
X12387274Y-14512529D01*
X12387274Y-14512529D02*
X12377751Y-14493481D01*
X12377751Y-14493481D02*
X12358703Y-14483957D01*
X12358703Y-14483957D02*
X12330131Y-14483957D01*
X12330131Y-14483957D02*
X12311084Y-14474433D01*
X12311084Y-14474433D02*
X12301560Y-14455386D01*
X12301560Y-14455386D02*
X12301560Y-14445862D01*
X12301560Y-14445862D02*
X12311084Y-14426814D01*
X12311084Y-14426814D02*
X12330131Y-14417290D01*
X12330131Y-14417290D02*
X12358703Y-14417290D01*
X12358703Y-14417290D02*
X12377751Y-14426814D01*
X12592989Y-14474433D02*
X12745370Y-14474433D01*
X12669179Y-14550624D02*
X12669179Y-14398243D01*
X12989179Y-14436338D02*
X12970131Y-14426814D01*
X12970131Y-14426814D02*
X12960608Y-14417290D01*
X12960608Y-14417290D02*
X12951084Y-14398243D01*
X12951084Y-14398243D02*
X12951084Y-14388719D01*
X12951084Y-14388719D02*
X12960608Y-14369671D01*
X12960608Y-14369671D02*
X12970131Y-14360148D01*
X12970131Y-14360148D02*
X12989179Y-14350624D01*
X12989179Y-14350624D02*
X13027274Y-14350624D01*
X13027274Y-14350624D02*
X13046322Y-14360148D01*
X13046322Y-14360148D02*
X13055846Y-14369671D01*
X13055846Y-14369671D02*
X13065370Y-14388719D01*
X13065370Y-14388719D02*
X13065370Y-14398243D01*
X13065370Y-14398243D02*
X13055846Y-14417290D01*
X13055846Y-14417290D02*
X13046322Y-14426814D01*
X13046322Y-14426814D02*
X13027274Y-14436338D01*
X13027274Y-14436338D02*
X12989179Y-14436338D01*
X12989179Y-14436338D02*
X12970131Y-14445862D01*
X12970131Y-14445862D02*
X12960608Y-14455386D01*
X12960608Y-14455386D02*
X12951084Y-14474433D01*
X12951084Y-14474433D02*
X12951084Y-14512529D01*
X12951084Y-14512529D02*
X12960608Y-14531576D01*
X12960608Y-14531576D02*
X12970131Y-14541100D01*
X12970131Y-14541100D02*
X12989179Y-14550624D01*
X12989179Y-14550624D02*
X13027274Y-14550624D01*
X13027274Y-14550624D02*
X13046322Y-14541100D01*
X13046322Y-14541100D02*
X13055846Y-14531576D01*
X13055846Y-14531576D02*
X13065370Y-14512529D01*
X13065370Y-14512529D02*
X13065370Y-14474433D01*
X13065370Y-14474433D02*
X13055846Y-14455386D01*
X13055846Y-14455386D02*
X13046322Y-14445862D01*
X13046322Y-14445862D02*
X13027274Y-14436338D01*
X13261560Y-14541100D02*
X13280608Y-14550624D01*
X13280608Y-14550624D02*
X13318703Y-14550624D01*
X13318703Y-14550624D02*
X13337751Y-14541100D01*
X13337751Y-14541100D02*
X13347274Y-14522052D01*
X13347274Y-14522052D02*
X13347274Y-14512529D01*
X13347274Y-14512529D02*
X13337751Y-14493481D01*
X13337751Y-14493481D02*
X13318703Y-14483957D01*
X13318703Y-14483957D02*
X13290131Y-14483957D01*
X13290131Y-14483957D02*
X13271084Y-14474433D01*
X13271084Y-14474433D02*
X13261560Y-14455386D01*
X13261560Y-14455386D02*
X13261560Y-14445862D01*
X13261560Y-14445862D02*
X13271084Y-14426814D01*
X13271084Y-14426814D02*
X13290131Y-14417290D01*
X13290131Y-14417290D02*
X13318703Y-14417290D01*
X13318703Y-14417290D02*
X13337751Y-14426814D01*
X13461560Y-14550624D02*
X13442512Y-14541100D01*
X13442512Y-14541100D02*
X13432989Y-14522052D01*
X13432989Y-14522052D02*
X13432989Y-14350624D01*
X13566322Y-14550624D02*
X13547274Y-14541100D01*
X13547274Y-14541100D02*
X13537751Y-14531576D01*
X13537751Y-14531576D02*
X13528227Y-14512529D01*
X13528227Y-14512529D02*
X13528227Y-14455386D01*
X13528227Y-14455386D02*
X13537751Y-14436338D01*
X13537751Y-14436338D02*
X13547274Y-14426814D01*
X13547274Y-14426814D02*
X13566322Y-14417290D01*
X13566322Y-14417290D02*
X13594893Y-14417290D01*
X13594893Y-14417290D02*
X13613941Y-14426814D01*
X13613941Y-14426814D02*
X13623465Y-14436338D01*
X13623465Y-14436338D02*
X13632989Y-14455386D01*
X13632989Y-14455386D02*
X13632989Y-14512529D01*
X13632989Y-14512529D02*
X13623465Y-14531576D01*
X13623465Y-14531576D02*
X13613941Y-14541100D01*
X13613941Y-14541100D02*
X13594893Y-14550624D01*
X13594893Y-14550624D02*
X13566322Y-14550624D01*
X13690132Y-14417290D02*
X13766322Y-14417290D01*
X13718703Y-14350624D02*
X13718703Y-14522052D01*
X13718703Y-14522052D02*
X13728227Y-14541100D01*
X13728227Y-14541100D02*
X13747274Y-14550624D01*
X13747274Y-14550624D02*
X13766322Y-14550624D01*
X13823465Y-14541100D02*
X13842512Y-14550624D01*
X13842512Y-14550624D02*
X13880608Y-14550624D01*
X13880608Y-14550624D02*
X13899655Y-14541100D01*
X13899655Y-14541100D02*
X13909179Y-14522052D01*
X13909179Y-14522052D02*
X13909179Y-14512529D01*
X13909179Y-14512529D02*
X13899655Y-14493481D01*
X13899655Y-14493481D02*
X13880608Y-14483957D01*
X13880608Y-14483957D02*
X13852036Y-14483957D01*
X13852036Y-14483957D02*
X13832989Y-14474433D01*
X13832989Y-14474433D02*
X13823465Y-14455386D01*
X13823465Y-14455386D02*
X13823465Y-14445862D01*
X13823465Y-14445862D02*
X13832989Y-14426814D01*
X13832989Y-14426814D02*
X13852036Y-14417290D01*
X13852036Y-14417290D02*
X13880608Y-14417290D01*
X13880608Y-14417290D02*
X13899655Y-14426814D01*
X13975846Y-14626814D02*
X13985370Y-14617290D01*
X13985370Y-14617290D02*
X14004417Y-14588719D01*
X14004417Y-14588719D02*
X14013941Y-14569671D01*
X14013941Y-14569671D02*
X14023465Y-14541100D01*
X14023465Y-14541100D02*
X14032989Y-14493481D01*
X14032989Y-14493481D02*
X14032989Y-14455386D01*
X14032989Y-14455386D02*
X14023465Y-14407767D01*
X14023465Y-14407767D02*
X14013941Y-14379195D01*
X14013941Y-14379195D02*
X14004417Y-14360148D01*
X14004417Y-14360148D02*
X13985370Y-14331576D01*
X13985370Y-14331576D02*
X13975846Y-14322052D01*
D10*
X7771560Y-14691148D02*
X7771560Y-14791148D01*
X7721560Y-14741148D02*
X7821560Y-14741148D01*
D11*
X8173941Y-14814624D02*
X8059655Y-14814624D01*
X8116798Y-14814624D02*
X8116798Y-14614624D01*
X8116798Y-14614624D02*
X8097750Y-14643195D01*
X8097750Y-14643195D02*
X8078703Y-14662243D01*
X8078703Y-14662243D02*
X8059655Y-14671767D01*
X8259655Y-14795576D02*
X8269179Y-14805100D01*
X8269179Y-14805100D02*
X8259655Y-14814624D01*
X8259655Y-14814624D02*
X8250131Y-14805100D01*
X8250131Y-14805100D02*
X8259655Y-14795576D01*
X8259655Y-14795576D02*
X8259655Y-14814624D01*
X8392988Y-14614624D02*
X8412036Y-14614624D01*
X8412036Y-14614624D02*
X8431084Y-14624148D01*
X8431084Y-14624148D02*
X8440608Y-14633671D01*
X8440608Y-14633671D02*
X8450131Y-14652719D01*
X8450131Y-14652719D02*
X8459655Y-14690814D01*
X8459655Y-14690814D02*
X8459655Y-14738433D01*
X8459655Y-14738433D02*
X8450131Y-14776529D01*
X8450131Y-14776529D02*
X8440608Y-14795576D01*
X8440608Y-14795576D02*
X8431084Y-14805100D01*
X8431084Y-14805100D02*
X8412036Y-14814624D01*
X8412036Y-14814624D02*
X8392988Y-14814624D01*
X8392988Y-14814624D02*
X8373941Y-14805100D01*
X8373941Y-14805100D02*
X8364417Y-14795576D01*
X8364417Y-14795576D02*
X8354893Y-14776529D01*
X8354893Y-14776529D02*
X8345369Y-14738433D01*
X8345369Y-14738433D02*
X8345369Y-14690814D01*
X8345369Y-14690814D02*
X8354893Y-14652719D01*
X8354893Y-14652719D02*
X8364417Y-14633671D01*
X8364417Y-14633671D02*
X8373941Y-14624148D01*
X8373941Y-14624148D02*
X8392988Y-14614624D01*
X8583465Y-14614624D02*
X8602512Y-14614624D01*
X8602512Y-14614624D02*
X8621560Y-14624148D01*
X8621560Y-14624148D02*
X8631084Y-14633671D01*
X8631084Y-14633671D02*
X8640608Y-14652719D01*
X8640608Y-14652719D02*
X8650131Y-14690814D01*
X8650131Y-14690814D02*
X8650131Y-14738433D01*
X8650131Y-14738433D02*
X8640608Y-14776529D01*
X8640608Y-14776529D02*
X8631084Y-14795576D01*
X8631084Y-14795576D02*
X8621560Y-14805100D01*
X8621560Y-14805100D02*
X8602512Y-14814624D01*
X8602512Y-14814624D02*
X8583465Y-14814624D01*
X8583465Y-14814624D02*
X8564417Y-14805100D01*
X8564417Y-14805100D02*
X8554893Y-14795576D01*
X8554893Y-14795576D02*
X8545369Y-14776529D01*
X8545369Y-14776529D02*
X8535846Y-14738433D01*
X8535846Y-14738433D02*
X8535846Y-14690814D01*
X8535846Y-14690814D02*
X8545369Y-14652719D01*
X8545369Y-14652719D02*
X8554893Y-14633671D01*
X8554893Y-14633671D02*
X8564417Y-14624148D01*
X8564417Y-14624148D02*
X8583465Y-14614624D01*
X8773941Y-14614624D02*
X8792989Y-14614624D01*
X8792989Y-14614624D02*
X8812036Y-14624148D01*
X8812036Y-14624148D02*
X8821560Y-14633671D01*
X8821560Y-14633671D02*
X8831084Y-14652719D01*
X8831084Y-14652719D02*
X8840608Y-14690814D01*
X8840608Y-14690814D02*
X8840608Y-14738433D01*
X8840608Y-14738433D02*
X8831084Y-14776529D01*
X8831084Y-14776529D02*
X8821560Y-14795576D01*
X8821560Y-14795576D02*
X8812036Y-14805100D01*
X8812036Y-14805100D02*
X8792989Y-14814624D01*
X8792989Y-14814624D02*
X8773941Y-14814624D01*
X8773941Y-14814624D02*
X8754893Y-14805100D01*
X8754893Y-14805100D02*
X8745369Y-14795576D01*
X8745369Y-14795576D02*
X8735846Y-14776529D01*
X8735846Y-14776529D02*
X8726322Y-14738433D01*
X8726322Y-14738433D02*
X8726322Y-14690814D01*
X8726322Y-14690814D02*
X8735846Y-14652719D01*
X8735846Y-14652719D02*
X8745369Y-14633671D01*
X8745369Y-14633671D02*
X8754893Y-14624148D01*
X8754893Y-14624148D02*
X8773941Y-14614624D01*
X8926322Y-14814624D02*
X8926322Y-14681290D01*
X8926322Y-14700338D02*
X8935846Y-14690814D01*
X8935846Y-14690814D02*
X8954893Y-14681290D01*
X8954893Y-14681290D02*
X8983465Y-14681290D01*
X8983465Y-14681290D02*
X9002512Y-14690814D01*
X9002512Y-14690814D02*
X9012036Y-14709862D01*
X9012036Y-14709862D02*
X9012036Y-14814624D01*
X9012036Y-14709862D02*
X9021560Y-14690814D01*
X9021560Y-14690814D02*
X9040608Y-14681290D01*
X9040608Y-14681290D02*
X9069179Y-14681290D01*
X9069179Y-14681290D02*
X9088227Y-14690814D01*
X9088227Y-14690814D02*
X9097750Y-14709862D01*
X9097750Y-14709862D02*
X9097750Y-14814624D01*
X9192989Y-14814624D02*
X9192989Y-14681290D01*
X9192989Y-14700338D02*
X9202512Y-14690814D01*
X9202512Y-14690814D02*
X9221560Y-14681290D01*
X9221560Y-14681290D02*
X9250131Y-14681290D01*
X9250131Y-14681290D02*
X9269179Y-14690814D01*
X9269179Y-14690814D02*
X9278703Y-14709862D01*
X9278703Y-14709862D02*
X9278703Y-14814624D01*
X9278703Y-14709862D02*
X9288227Y-14690814D01*
X9288227Y-14690814D02*
X9307274Y-14681290D01*
X9307274Y-14681290D02*
X9335846Y-14681290D01*
X9335846Y-14681290D02*
X9354893Y-14690814D01*
X9354893Y-14690814D02*
X9364417Y-14709862D01*
X9364417Y-14709862D02*
X9364417Y-14814624D01*
X9722512Y-14605100D02*
X9551084Y-14862243D01*
X9947274Y-14614624D02*
X9966322Y-14614624D01*
X9966322Y-14614624D02*
X9985370Y-14624148D01*
X9985370Y-14624148D02*
X9994893Y-14633671D01*
X9994893Y-14633671D02*
X10004417Y-14652719D01*
X10004417Y-14652719D02*
X10013941Y-14690814D01*
X10013941Y-14690814D02*
X10013941Y-14738433D01*
X10013941Y-14738433D02*
X10004417Y-14776529D01*
X10004417Y-14776529D02*
X9994893Y-14795576D01*
X9994893Y-14795576D02*
X9985370Y-14805100D01*
X9985370Y-14805100D02*
X9966322Y-14814624D01*
X9966322Y-14814624D02*
X9947274Y-14814624D01*
X9947274Y-14814624D02*
X9928227Y-14805100D01*
X9928227Y-14805100D02*
X9918703Y-14795576D01*
X9918703Y-14795576D02*
X9909179Y-14776529D01*
X9909179Y-14776529D02*
X9899655Y-14738433D01*
X9899655Y-14738433D02*
X9899655Y-14690814D01*
X9899655Y-14690814D02*
X9909179Y-14652719D01*
X9909179Y-14652719D02*
X9918703Y-14633671D01*
X9918703Y-14633671D02*
X9928227Y-14624148D01*
X9928227Y-14624148D02*
X9947274Y-14614624D01*
X10099655Y-14795576D02*
X10109179Y-14805100D01*
X10109179Y-14805100D02*
X10099655Y-14814624D01*
X10099655Y-14814624D02*
X10090131Y-14805100D01*
X10090131Y-14805100D02*
X10099655Y-14795576D01*
X10099655Y-14795576D02*
X10099655Y-14814624D01*
X10232989Y-14614624D02*
X10252036Y-14614624D01*
X10252036Y-14614624D02*
X10271084Y-14624148D01*
X10271084Y-14624148D02*
X10280608Y-14633671D01*
X10280608Y-14633671D02*
X10290131Y-14652719D01*
X10290131Y-14652719D02*
X10299655Y-14690814D01*
X10299655Y-14690814D02*
X10299655Y-14738433D01*
X10299655Y-14738433D02*
X10290131Y-14776529D01*
X10290131Y-14776529D02*
X10280608Y-14795576D01*
X10280608Y-14795576D02*
X10271084Y-14805100D01*
X10271084Y-14805100D02*
X10252036Y-14814624D01*
X10252036Y-14814624D02*
X10232989Y-14814624D01*
X10232989Y-14814624D02*
X10213941Y-14805100D01*
X10213941Y-14805100D02*
X10204417Y-14795576D01*
X10204417Y-14795576D02*
X10194893Y-14776529D01*
X10194893Y-14776529D02*
X10185370Y-14738433D01*
X10185370Y-14738433D02*
X10185370Y-14690814D01*
X10185370Y-14690814D02*
X10194893Y-14652719D01*
X10194893Y-14652719D02*
X10204417Y-14633671D01*
X10204417Y-14633671D02*
X10213941Y-14624148D01*
X10213941Y-14624148D02*
X10232989Y-14614624D01*
X10366322Y-14614624D02*
X10490131Y-14614624D01*
X10490131Y-14614624D02*
X10423465Y-14690814D01*
X10423465Y-14690814D02*
X10452036Y-14690814D01*
X10452036Y-14690814D02*
X10471084Y-14700338D01*
X10471084Y-14700338D02*
X10480608Y-14709862D01*
X10480608Y-14709862D02*
X10490131Y-14728910D01*
X10490131Y-14728910D02*
X10490131Y-14776529D01*
X10490131Y-14776529D02*
X10480608Y-14795576D01*
X10480608Y-14795576D02*
X10471084Y-14805100D01*
X10471084Y-14805100D02*
X10452036Y-14814624D01*
X10452036Y-14814624D02*
X10394893Y-14814624D01*
X10394893Y-14814624D02*
X10375846Y-14805100D01*
X10375846Y-14805100D02*
X10366322Y-14795576D01*
X10585370Y-14814624D02*
X10623465Y-14814624D01*
X10623465Y-14814624D02*
X10642512Y-14805100D01*
X10642512Y-14805100D02*
X10652036Y-14795576D01*
X10652036Y-14795576D02*
X10671084Y-14767005D01*
X10671084Y-14767005D02*
X10680608Y-14728910D01*
X10680608Y-14728910D02*
X10680608Y-14652719D01*
X10680608Y-14652719D02*
X10671084Y-14633671D01*
X10671084Y-14633671D02*
X10661560Y-14624148D01*
X10661560Y-14624148D02*
X10642512Y-14614624D01*
X10642512Y-14614624D02*
X10604417Y-14614624D01*
X10604417Y-14614624D02*
X10585370Y-14624148D01*
X10585370Y-14624148D02*
X10575846Y-14633671D01*
X10575846Y-14633671D02*
X10566322Y-14652719D01*
X10566322Y-14652719D02*
X10566322Y-14700338D01*
X10566322Y-14700338D02*
X10575846Y-14719386D01*
X10575846Y-14719386D02*
X10585370Y-14728910D01*
X10585370Y-14728910D02*
X10604417Y-14738433D01*
X10604417Y-14738433D02*
X10642512Y-14738433D01*
X10642512Y-14738433D02*
X10661560Y-14728910D01*
X10661560Y-14728910D02*
X10671084Y-14719386D01*
X10671084Y-14719386D02*
X10680608Y-14700338D01*
X10852036Y-14681290D02*
X10852036Y-14814624D01*
X10804417Y-14605100D02*
X10756798Y-14747957D01*
X10756798Y-14747957D02*
X10880608Y-14747957D01*
X10947274Y-14614624D02*
X10947274Y-14652719D01*
X11023465Y-14614624D02*
X11023465Y-14652719D01*
X11286322Y-14890814D02*
X11276798Y-14881290D01*
X11276798Y-14881290D02*
X11257750Y-14852719D01*
X11257750Y-14852719D02*
X11248227Y-14833671D01*
X11248227Y-14833671D02*
X11238703Y-14805100D01*
X11238703Y-14805100D02*
X11229179Y-14757481D01*
X11229179Y-14757481D02*
X11229179Y-14719386D01*
X11229179Y-14719386D02*
X11238703Y-14671767D01*
X11238703Y-14671767D02*
X11248227Y-14643195D01*
X11248227Y-14643195D02*
X11257750Y-14624148D01*
X11257750Y-14624148D02*
X11276798Y-14595576D01*
X11276798Y-14595576D02*
X11286322Y-14586052D01*
X11391084Y-14700338D02*
X11372036Y-14690814D01*
X11372036Y-14690814D02*
X11362512Y-14681290D01*
X11362512Y-14681290D02*
X11352989Y-14662243D01*
X11352989Y-14662243D02*
X11352989Y-14652719D01*
X11352989Y-14652719D02*
X11362512Y-14633671D01*
X11362512Y-14633671D02*
X11372036Y-14624148D01*
X11372036Y-14624148D02*
X11391084Y-14614624D01*
X11391084Y-14614624D02*
X11429179Y-14614624D01*
X11429179Y-14614624D02*
X11448227Y-14624148D01*
X11448227Y-14624148D02*
X11457750Y-14633671D01*
X11457750Y-14633671D02*
X11467274Y-14652719D01*
X11467274Y-14652719D02*
X11467274Y-14662243D01*
X11467274Y-14662243D02*
X11457750Y-14681290D01*
X11457750Y-14681290D02*
X11448227Y-14690814D01*
X11448227Y-14690814D02*
X11429179Y-14700338D01*
X11429179Y-14700338D02*
X11391084Y-14700338D01*
X11391084Y-14700338D02*
X11372036Y-14709862D01*
X11372036Y-14709862D02*
X11362512Y-14719386D01*
X11362512Y-14719386D02*
X11352989Y-14738433D01*
X11352989Y-14738433D02*
X11352989Y-14776529D01*
X11352989Y-14776529D02*
X11362512Y-14795576D01*
X11362512Y-14795576D02*
X11372036Y-14805100D01*
X11372036Y-14805100D02*
X11391084Y-14814624D01*
X11391084Y-14814624D02*
X11429179Y-14814624D01*
X11429179Y-14814624D02*
X11448227Y-14805100D01*
X11448227Y-14805100D02*
X11457750Y-14795576D01*
X11457750Y-14795576D02*
X11467274Y-14776529D01*
X11467274Y-14776529D02*
X11467274Y-14738433D01*
X11467274Y-14738433D02*
X11457750Y-14719386D01*
X11457750Y-14719386D02*
X11448227Y-14709862D01*
X11448227Y-14709862D02*
X11429179Y-14700338D01*
X11591084Y-14614624D02*
X11610131Y-14614624D01*
X11610131Y-14614624D02*
X11629179Y-14624148D01*
X11629179Y-14624148D02*
X11638703Y-14633671D01*
X11638703Y-14633671D02*
X11648227Y-14652719D01*
X11648227Y-14652719D02*
X11657750Y-14690814D01*
X11657750Y-14690814D02*
X11657750Y-14738433D01*
X11657750Y-14738433D02*
X11648227Y-14776529D01*
X11648227Y-14776529D02*
X11638703Y-14795576D01*
X11638703Y-14795576D02*
X11629179Y-14805100D01*
X11629179Y-14805100D02*
X11610131Y-14814624D01*
X11610131Y-14814624D02*
X11591084Y-14814624D01*
X11591084Y-14814624D02*
X11572036Y-14805100D01*
X11572036Y-14805100D02*
X11562512Y-14795576D01*
X11562512Y-14795576D02*
X11552989Y-14776529D01*
X11552989Y-14776529D02*
X11543465Y-14738433D01*
X11543465Y-14738433D02*
X11543465Y-14690814D01*
X11543465Y-14690814D02*
X11552989Y-14652719D01*
X11552989Y-14652719D02*
X11562512Y-14633671D01*
X11562512Y-14633671D02*
X11572036Y-14624148D01*
X11572036Y-14624148D02*
X11591084Y-14614624D01*
X11863465Y-14814624D02*
X11863465Y-14614624D01*
X11949179Y-14814624D02*
X11949179Y-14709862D01*
X11949179Y-14709862D02*
X11939655Y-14690814D01*
X11939655Y-14690814D02*
X11920608Y-14681290D01*
X11920608Y-14681290D02*
X11892036Y-14681290D01*
X11892036Y-14681290D02*
X11872989Y-14690814D01*
X11872989Y-14690814D02*
X11863465Y-14700338D01*
X12072989Y-14814624D02*
X12053941Y-14805100D01*
X12053941Y-14805100D02*
X12044417Y-14795576D01*
X12044417Y-14795576D02*
X12034893Y-14776529D01*
X12034893Y-14776529D02*
X12034893Y-14719386D01*
X12034893Y-14719386D02*
X12044417Y-14700338D01*
X12044417Y-14700338D02*
X12053941Y-14690814D01*
X12053941Y-14690814D02*
X12072989Y-14681290D01*
X12072989Y-14681290D02*
X12101560Y-14681290D01*
X12101560Y-14681290D02*
X12120608Y-14690814D01*
X12120608Y-14690814D02*
X12130131Y-14700338D01*
X12130131Y-14700338D02*
X12139655Y-14719386D01*
X12139655Y-14719386D02*
X12139655Y-14776529D01*
X12139655Y-14776529D02*
X12130131Y-14795576D01*
X12130131Y-14795576D02*
X12120608Y-14805100D01*
X12120608Y-14805100D02*
X12101560Y-14814624D01*
X12101560Y-14814624D02*
X12072989Y-14814624D01*
X12253941Y-14814624D02*
X12234893Y-14805100D01*
X12234893Y-14805100D02*
X12225370Y-14786052D01*
X12225370Y-14786052D02*
X12225370Y-14614624D01*
X12406322Y-14805100D02*
X12387274Y-14814624D01*
X12387274Y-14814624D02*
X12349179Y-14814624D01*
X12349179Y-14814624D02*
X12330131Y-14805100D01*
X12330131Y-14805100D02*
X12320608Y-14786052D01*
X12320608Y-14786052D02*
X12320608Y-14709862D01*
X12320608Y-14709862D02*
X12330131Y-14690814D01*
X12330131Y-14690814D02*
X12349179Y-14681290D01*
X12349179Y-14681290D02*
X12387274Y-14681290D01*
X12387274Y-14681290D02*
X12406322Y-14690814D01*
X12406322Y-14690814D02*
X12415846Y-14709862D01*
X12415846Y-14709862D02*
X12415846Y-14728910D01*
X12415846Y-14728910D02*
X12320608Y-14747957D01*
X12492036Y-14805100D02*
X12511084Y-14814624D01*
X12511084Y-14814624D02*
X12549179Y-14814624D01*
X12549179Y-14814624D02*
X12568227Y-14805100D01*
X12568227Y-14805100D02*
X12577751Y-14786052D01*
X12577751Y-14786052D02*
X12577751Y-14776529D01*
X12577751Y-14776529D02*
X12568227Y-14757481D01*
X12568227Y-14757481D02*
X12549179Y-14747957D01*
X12549179Y-14747957D02*
X12520608Y-14747957D01*
X12520608Y-14747957D02*
X12501560Y-14738433D01*
X12501560Y-14738433D02*
X12492036Y-14719386D01*
X12492036Y-14719386D02*
X12492036Y-14709862D01*
X12492036Y-14709862D02*
X12501560Y-14690814D01*
X12501560Y-14690814D02*
X12520608Y-14681290D01*
X12520608Y-14681290D02*
X12549179Y-14681290D01*
X12549179Y-14681290D02*
X12568227Y-14690814D01*
X12644417Y-14890814D02*
X12653941Y-14881290D01*
X12653941Y-14881290D02*
X12672989Y-14852719D01*
X12672989Y-14852719D02*
X12682512Y-14833671D01*
X12682512Y-14833671D02*
X12692036Y-14805100D01*
X12692036Y-14805100D02*
X12701560Y-14757481D01*
X12701560Y-14757481D02*
X12701560Y-14719386D01*
X12701560Y-14719386D02*
X12692036Y-14671767D01*
X12692036Y-14671767D02*
X12682512Y-14643195D01*
X12682512Y-14643195D02*
X12672989Y-14624148D01*
X12672989Y-14624148D02*
X12653941Y-14595576D01*
X12653941Y-14595576D02*
X12644417Y-14586052D01*
D14*
X7799614Y-15058132D02*
X7799614Y-14952164D01*
X7693646Y-14952164D01*
X7693646Y-15058132D01*
X7799614Y-15058132D01*
D11*
X8173941Y-15078624D02*
X8059655Y-15078624D01*
X8116798Y-15078624D02*
X8116798Y-14878624D01*
X8116798Y-14878624D02*
X8097750Y-14907195D01*
X8097750Y-14907195D02*
X8078703Y-14926243D01*
X8078703Y-14926243D02*
X8059655Y-14935767D01*
X8259655Y-15059576D02*
X8269179Y-15069100D01*
X8269179Y-15069100D02*
X8259655Y-15078624D01*
X8259655Y-15078624D02*
X8250131Y-15069100D01*
X8250131Y-15069100D02*
X8259655Y-15059576D01*
X8259655Y-15059576D02*
X8259655Y-15078624D01*
X8440608Y-14945290D02*
X8440608Y-15078624D01*
X8392988Y-14869100D02*
X8345369Y-15011957D01*
X8345369Y-15011957D02*
X8469179Y-15011957D01*
X8554893Y-15078624D02*
X8592988Y-15078624D01*
X8592988Y-15078624D02*
X8612036Y-15069100D01*
X8612036Y-15069100D02*
X8621560Y-15059576D01*
X8621560Y-15059576D02*
X8640608Y-15031005D01*
X8640608Y-15031005D02*
X8650131Y-14992910D01*
X8650131Y-14992910D02*
X8650131Y-14916719D01*
X8650131Y-14916719D02*
X8640608Y-14897671D01*
X8640608Y-14897671D02*
X8631084Y-14888148D01*
X8631084Y-14888148D02*
X8612036Y-14878624D01*
X8612036Y-14878624D02*
X8573941Y-14878624D01*
X8573941Y-14878624D02*
X8554893Y-14888148D01*
X8554893Y-14888148D02*
X8545369Y-14897671D01*
X8545369Y-14897671D02*
X8535846Y-14916719D01*
X8535846Y-14916719D02*
X8535846Y-14964338D01*
X8535846Y-14964338D02*
X8545369Y-14983386D01*
X8545369Y-14983386D02*
X8554893Y-14992910D01*
X8554893Y-14992910D02*
X8573941Y-15002433D01*
X8573941Y-15002433D02*
X8612036Y-15002433D01*
X8612036Y-15002433D02*
X8631084Y-14992910D01*
X8631084Y-14992910D02*
X8640608Y-14983386D01*
X8640608Y-14983386D02*
X8650131Y-14964338D01*
X8745369Y-15078624D02*
X8783465Y-15078624D01*
X8783465Y-15078624D02*
X8802512Y-15069100D01*
X8802512Y-15069100D02*
X8812036Y-15059576D01*
X8812036Y-15059576D02*
X8831084Y-15031005D01*
X8831084Y-15031005D02*
X8840608Y-14992910D01*
X8840608Y-14992910D02*
X8840608Y-14916719D01*
X8840608Y-14916719D02*
X8831084Y-14897671D01*
X8831084Y-14897671D02*
X8821560Y-14888148D01*
X8821560Y-14888148D02*
X8802512Y-14878624D01*
X8802512Y-14878624D02*
X8764417Y-14878624D01*
X8764417Y-14878624D02*
X8745369Y-14888148D01*
X8745369Y-14888148D02*
X8735846Y-14897671D01*
X8735846Y-14897671D02*
X8726322Y-14916719D01*
X8726322Y-14916719D02*
X8726322Y-14964338D01*
X8726322Y-14964338D02*
X8735846Y-14983386D01*
X8735846Y-14983386D02*
X8745369Y-14992910D01*
X8745369Y-14992910D02*
X8764417Y-15002433D01*
X8764417Y-15002433D02*
X8802512Y-15002433D01*
X8802512Y-15002433D02*
X8821560Y-14992910D01*
X8821560Y-14992910D02*
X8831084Y-14983386D01*
X8831084Y-14983386D02*
X8840608Y-14964338D01*
X8926322Y-15078624D02*
X8926322Y-14945290D01*
X8926322Y-14964338D02*
X8935846Y-14954814D01*
X8935846Y-14954814D02*
X8954893Y-14945290D01*
X8954893Y-14945290D02*
X8983465Y-14945290D01*
X8983465Y-14945290D02*
X9002512Y-14954814D01*
X9002512Y-14954814D02*
X9012036Y-14973862D01*
X9012036Y-14973862D02*
X9012036Y-15078624D01*
X9012036Y-14973862D02*
X9021560Y-14954814D01*
X9021560Y-14954814D02*
X9040608Y-14945290D01*
X9040608Y-14945290D02*
X9069179Y-14945290D01*
X9069179Y-14945290D02*
X9088227Y-14954814D01*
X9088227Y-14954814D02*
X9097750Y-14973862D01*
X9097750Y-14973862D02*
X9097750Y-15078624D01*
X9192989Y-15078624D02*
X9192989Y-14945290D01*
X9192989Y-14964338D02*
X9202512Y-14954814D01*
X9202512Y-14954814D02*
X9221560Y-14945290D01*
X9221560Y-14945290D02*
X9250131Y-14945290D01*
X9250131Y-14945290D02*
X9269179Y-14954814D01*
X9269179Y-14954814D02*
X9278703Y-14973862D01*
X9278703Y-14973862D02*
X9278703Y-15078624D01*
X9278703Y-14973862D02*
X9288227Y-14954814D01*
X9288227Y-14954814D02*
X9307274Y-14945290D01*
X9307274Y-14945290D02*
X9335846Y-14945290D01*
X9335846Y-14945290D02*
X9354893Y-14954814D01*
X9354893Y-14954814D02*
X9364417Y-14973862D01*
X9364417Y-14973862D02*
X9364417Y-15078624D01*
X9722512Y-14869100D02*
X9551084Y-15126243D01*
X9947274Y-14878624D02*
X9966322Y-14878624D01*
X9966322Y-14878624D02*
X9985370Y-14888148D01*
X9985370Y-14888148D02*
X9994893Y-14897671D01*
X9994893Y-14897671D02*
X10004417Y-14916719D01*
X10004417Y-14916719D02*
X10013941Y-14954814D01*
X10013941Y-14954814D02*
X10013941Y-15002433D01*
X10013941Y-15002433D02*
X10004417Y-15040529D01*
X10004417Y-15040529D02*
X9994893Y-15059576D01*
X9994893Y-15059576D02*
X9985370Y-15069100D01*
X9985370Y-15069100D02*
X9966322Y-15078624D01*
X9966322Y-15078624D02*
X9947274Y-15078624D01*
X9947274Y-15078624D02*
X9928227Y-15069100D01*
X9928227Y-15069100D02*
X9918703Y-15059576D01*
X9918703Y-15059576D02*
X9909179Y-15040529D01*
X9909179Y-15040529D02*
X9899655Y-15002433D01*
X9899655Y-15002433D02*
X9899655Y-14954814D01*
X9899655Y-14954814D02*
X9909179Y-14916719D01*
X9909179Y-14916719D02*
X9918703Y-14897671D01*
X9918703Y-14897671D02*
X9928227Y-14888148D01*
X9928227Y-14888148D02*
X9947274Y-14878624D01*
X10099655Y-15059576D02*
X10109179Y-15069100D01*
X10109179Y-15069100D02*
X10099655Y-15078624D01*
X10099655Y-15078624D02*
X10090131Y-15069100D01*
X10090131Y-15069100D02*
X10099655Y-15059576D01*
X10099655Y-15059576D02*
X10099655Y-15078624D01*
X10232989Y-14878624D02*
X10252036Y-14878624D01*
X10252036Y-14878624D02*
X10271084Y-14888148D01*
X10271084Y-14888148D02*
X10280608Y-14897671D01*
X10280608Y-14897671D02*
X10290131Y-14916719D01*
X10290131Y-14916719D02*
X10299655Y-14954814D01*
X10299655Y-14954814D02*
X10299655Y-15002433D01*
X10299655Y-15002433D02*
X10290131Y-15040529D01*
X10290131Y-15040529D02*
X10280608Y-15059576D01*
X10280608Y-15059576D02*
X10271084Y-15069100D01*
X10271084Y-15069100D02*
X10252036Y-15078624D01*
X10252036Y-15078624D02*
X10232989Y-15078624D01*
X10232989Y-15078624D02*
X10213941Y-15069100D01*
X10213941Y-15069100D02*
X10204417Y-15059576D01*
X10204417Y-15059576D02*
X10194893Y-15040529D01*
X10194893Y-15040529D02*
X10185370Y-15002433D01*
X10185370Y-15002433D02*
X10185370Y-14954814D01*
X10185370Y-14954814D02*
X10194893Y-14916719D01*
X10194893Y-14916719D02*
X10204417Y-14897671D01*
X10204417Y-14897671D02*
X10213941Y-14888148D01*
X10213941Y-14888148D02*
X10232989Y-14878624D01*
X10480608Y-14878624D02*
X10385370Y-14878624D01*
X10385370Y-14878624D02*
X10375846Y-14973862D01*
X10375846Y-14973862D02*
X10385370Y-14964338D01*
X10385370Y-14964338D02*
X10404417Y-14954814D01*
X10404417Y-14954814D02*
X10452036Y-14954814D01*
X10452036Y-14954814D02*
X10471084Y-14964338D01*
X10471084Y-14964338D02*
X10480608Y-14973862D01*
X10480608Y-14973862D02*
X10490131Y-14992910D01*
X10490131Y-14992910D02*
X10490131Y-15040529D01*
X10490131Y-15040529D02*
X10480608Y-15059576D01*
X10480608Y-15059576D02*
X10471084Y-15069100D01*
X10471084Y-15069100D02*
X10452036Y-15078624D01*
X10452036Y-15078624D02*
X10404417Y-15078624D01*
X10404417Y-15078624D02*
X10385370Y-15069100D01*
X10385370Y-15069100D02*
X10375846Y-15059576D01*
X10585370Y-15078624D02*
X10623465Y-15078624D01*
X10623465Y-15078624D02*
X10642512Y-15069100D01*
X10642512Y-15069100D02*
X10652036Y-15059576D01*
X10652036Y-15059576D02*
X10671084Y-15031005D01*
X10671084Y-15031005D02*
X10680608Y-14992910D01*
X10680608Y-14992910D02*
X10680608Y-14916719D01*
X10680608Y-14916719D02*
X10671084Y-14897671D01*
X10671084Y-14897671D02*
X10661560Y-14888148D01*
X10661560Y-14888148D02*
X10642512Y-14878624D01*
X10642512Y-14878624D02*
X10604417Y-14878624D01*
X10604417Y-14878624D02*
X10585370Y-14888148D01*
X10585370Y-14888148D02*
X10575846Y-14897671D01*
X10575846Y-14897671D02*
X10566322Y-14916719D01*
X10566322Y-14916719D02*
X10566322Y-14964338D01*
X10566322Y-14964338D02*
X10575846Y-14983386D01*
X10575846Y-14983386D02*
X10585370Y-14992910D01*
X10585370Y-14992910D02*
X10604417Y-15002433D01*
X10604417Y-15002433D02*
X10642512Y-15002433D01*
X10642512Y-15002433D02*
X10661560Y-14992910D01*
X10661560Y-14992910D02*
X10671084Y-14983386D01*
X10671084Y-14983386D02*
X10680608Y-14964338D01*
X10804417Y-14878624D02*
X10823465Y-14878624D01*
X10823465Y-14878624D02*
X10842512Y-14888148D01*
X10842512Y-14888148D02*
X10852036Y-14897671D01*
X10852036Y-14897671D02*
X10861560Y-14916719D01*
X10861560Y-14916719D02*
X10871084Y-14954814D01*
X10871084Y-14954814D02*
X10871084Y-15002433D01*
X10871084Y-15002433D02*
X10861560Y-15040529D01*
X10861560Y-15040529D02*
X10852036Y-15059576D01*
X10852036Y-15059576D02*
X10842512Y-15069100D01*
X10842512Y-15069100D02*
X10823465Y-15078624D01*
X10823465Y-15078624D02*
X10804417Y-15078624D01*
X10804417Y-15078624D02*
X10785370Y-15069100D01*
X10785370Y-15069100D02*
X10775846Y-15059576D01*
X10775846Y-15059576D02*
X10766322Y-15040529D01*
X10766322Y-15040529D02*
X10756798Y-15002433D01*
X10756798Y-15002433D02*
X10756798Y-14954814D01*
X10756798Y-14954814D02*
X10766322Y-14916719D01*
X10766322Y-14916719D02*
X10775846Y-14897671D01*
X10775846Y-14897671D02*
X10785370Y-14888148D01*
X10785370Y-14888148D02*
X10804417Y-14878624D01*
X10947274Y-14878624D02*
X10947274Y-14916719D01*
X11023465Y-14878624D02*
X11023465Y-14916719D01*
X11286322Y-15154814D02*
X11276798Y-15145290D01*
X11276798Y-15145290D02*
X11257750Y-15116719D01*
X11257750Y-15116719D02*
X11248227Y-15097671D01*
X11248227Y-15097671D02*
X11238703Y-15069100D01*
X11238703Y-15069100D02*
X11229179Y-15021481D01*
X11229179Y-15021481D02*
X11229179Y-14983386D01*
X11229179Y-14983386D02*
X11238703Y-14935767D01*
X11238703Y-14935767D02*
X11248227Y-14907195D01*
X11248227Y-14907195D02*
X11257750Y-14888148D01*
X11257750Y-14888148D02*
X11276798Y-14859576D01*
X11276798Y-14859576D02*
X11286322Y-14850052D01*
X11343465Y-14878624D02*
X11476798Y-14878624D01*
X11476798Y-14878624D02*
X11391084Y-15078624D01*
X11543465Y-14897671D02*
X11552989Y-14888148D01*
X11552989Y-14888148D02*
X11572036Y-14878624D01*
X11572036Y-14878624D02*
X11619655Y-14878624D01*
X11619655Y-14878624D02*
X11638703Y-14888148D01*
X11638703Y-14888148D02*
X11648227Y-14897671D01*
X11648227Y-14897671D02*
X11657750Y-14916719D01*
X11657750Y-14916719D02*
X11657750Y-14935767D01*
X11657750Y-14935767D02*
X11648227Y-14964338D01*
X11648227Y-14964338D02*
X11533941Y-15078624D01*
X11533941Y-15078624D02*
X11657750Y-15078624D01*
X11863465Y-15078624D02*
X11863465Y-14878624D01*
X11949179Y-15078624D02*
X11949179Y-14973862D01*
X11949179Y-14973862D02*
X11939655Y-14954814D01*
X11939655Y-14954814D02*
X11920608Y-14945290D01*
X11920608Y-14945290D02*
X11892036Y-14945290D01*
X11892036Y-14945290D02*
X11872989Y-14954814D01*
X11872989Y-14954814D02*
X11863465Y-14964338D01*
X12072989Y-15078624D02*
X12053941Y-15069100D01*
X12053941Y-15069100D02*
X12044417Y-15059576D01*
X12044417Y-15059576D02*
X12034893Y-15040529D01*
X12034893Y-15040529D02*
X12034893Y-14983386D01*
X12034893Y-14983386D02*
X12044417Y-14964338D01*
X12044417Y-14964338D02*
X12053941Y-14954814D01*
X12053941Y-14954814D02*
X12072989Y-14945290D01*
X12072989Y-14945290D02*
X12101560Y-14945290D01*
X12101560Y-14945290D02*
X12120608Y-14954814D01*
X12120608Y-14954814D02*
X12130131Y-14964338D01*
X12130131Y-14964338D02*
X12139655Y-14983386D01*
X12139655Y-14983386D02*
X12139655Y-15040529D01*
X12139655Y-15040529D02*
X12130131Y-15059576D01*
X12130131Y-15059576D02*
X12120608Y-15069100D01*
X12120608Y-15069100D02*
X12101560Y-15078624D01*
X12101560Y-15078624D02*
X12072989Y-15078624D01*
X12253941Y-15078624D02*
X12234893Y-15069100D01*
X12234893Y-15069100D02*
X12225370Y-15050052D01*
X12225370Y-15050052D02*
X12225370Y-14878624D01*
X12406322Y-15069100D02*
X12387274Y-15078624D01*
X12387274Y-15078624D02*
X12349179Y-15078624D01*
X12349179Y-15078624D02*
X12330131Y-15069100D01*
X12330131Y-15069100D02*
X12320608Y-15050052D01*
X12320608Y-15050052D02*
X12320608Y-14973862D01*
X12320608Y-14973862D02*
X12330131Y-14954814D01*
X12330131Y-14954814D02*
X12349179Y-14945290D01*
X12349179Y-14945290D02*
X12387274Y-14945290D01*
X12387274Y-14945290D02*
X12406322Y-14954814D01*
X12406322Y-14954814D02*
X12415846Y-14973862D01*
X12415846Y-14973862D02*
X12415846Y-14992910D01*
X12415846Y-14992910D02*
X12320608Y-15011957D01*
X12492036Y-15069100D02*
X12511084Y-15078624D01*
X12511084Y-15078624D02*
X12549179Y-15078624D01*
X12549179Y-15078624D02*
X12568227Y-15069100D01*
X12568227Y-15069100D02*
X12577751Y-15050052D01*
X12577751Y-15050052D02*
X12577751Y-15040529D01*
X12577751Y-15040529D02*
X12568227Y-15021481D01*
X12568227Y-15021481D02*
X12549179Y-15011957D01*
X12549179Y-15011957D02*
X12520608Y-15011957D01*
X12520608Y-15011957D02*
X12501560Y-15002433D01*
X12501560Y-15002433D02*
X12492036Y-14983386D01*
X12492036Y-14983386D02*
X12492036Y-14973862D01*
X12492036Y-14973862D02*
X12501560Y-14954814D01*
X12501560Y-14954814D02*
X12520608Y-14945290D01*
X12520608Y-14945290D02*
X12549179Y-14945290D01*
X12549179Y-14945290D02*
X12568227Y-14954814D01*
X12644417Y-15154814D02*
X12653941Y-15145290D01*
X12653941Y-15145290D02*
X12672989Y-15116719D01*
X12672989Y-15116719D02*
X12682512Y-15097671D01*
X12682512Y-15097671D02*
X12692036Y-15069100D01*
X12692036Y-15069100D02*
X12701560Y-15021481D01*
X12701560Y-15021481D02*
X12701560Y-14983386D01*
X12701560Y-14983386D02*
X12692036Y-14935767D01*
X12692036Y-14935767D02*
X12682512Y-14907195D01*
X12682512Y-14907195D02*
X12672989Y-14888148D01*
X12672989Y-14888148D02*
X12653941Y-14859576D01*
X12653941Y-14859576D02*
X12644417Y-14850052D01*
M02*
