%TF.GenerationSoftware,KiCad,Pcbnew,(7.0.0)*%
%TF.CreationDate,2023-03-01T21:35:25+09:00*%
%TF.ProjectId,keyboard_pcb,6b657962-6f61-4726-945f-7063622e6b69,rev1.0*%
%TF.SameCoordinates,Original*%
%TF.FileFunction,Profile,NP*%
%FSLAX46Y46*%
G04 Gerber Fmt 4.6, Leading zero omitted, Abs format (unit mm)*
G04 Created by KiCad (PCBNEW (7.0.0)) date 2023-03-01 21:35:25*
%MOMM*%
%LPD*%
G01*
G04 APERTURE LIST*
%TA.AperFunction,Profile*%
%ADD10C,0.100000*%
%TD*%
G04 APERTURE END LIST*
D10*
X173525000Y-47365600D02*
X173525000Y-49362799D01*
X182900000Y-69900000D02*
X182900000Y-64300000D01*
X202800000Y-52200000D02*
G75*
G03*
X201000000Y-50400000I-1800000J0D01*
G01*
X79275001Y-113532600D02*
X106500000Y-113541387D01*
X190821688Y-134962630D02*
X202434044Y-115487896D01*
X79265600Y-56373199D02*
G75*
G03*
X78265599Y-57373201I0J-1000001D01*
G01*
X135436907Y-43381892D02*
G75*
G03*
X136436908Y-44381893I999993J-8D01*
G01*
X192100000Y-70900000D02*
X183900000Y-70900000D01*
X131437200Y-125953200D02*
X143787732Y-125159954D01*
X172525000Y-46365599D02*
X155475000Y-46388493D01*
X154475001Y-45359000D02*
G75*
G03*
X153475000Y-44358999I-1000001J0D01*
G01*
X183900000Y-63300000D02*
G75*
G03*
X182900000Y-64300000I0J-1000000D01*
G01*
X128736979Y-124644091D02*
G75*
G03*
X106496557Y-113562487I-28998979J-30341309D01*
G01*
X116375000Y-40380600D02*
X116375000Y-43368400D01*
X201000000Y-50400000D02*
X174525000Y-50362800D01*
X135436908Y-43381892D02*
X135438492Y-40376508D01*
X192100000Y-70900000D02*
G75*
G03*
X193100000Y-69900000I0J1000000D01*
G01*
X115374999Y-44368400D02*
G75*
G03*
X116375000Y-43368400I1J1000000D01*
G01*
X96324999Y-56382600D02*
G75*
G03*
X97325000Y-55382600I1J1000000D01*
G01*
X193092893Y-64300000D02*
X193100000Y-69900000D01*
X173525001Y-47365600D02*
G75*
G03*
X172525000Y-46365599I-1000001J0D01*
G01*
X202434044Y-115487896D02*
G75*
G03*
X202800000Y-114400000I-1434044J1087896D01*
G01*
X135438493Y-40376508D02*
G75*
G03*
X134438492Y-39376507I-999993J8D01*
G01*
X97325000Y-45380308D02*
X97325000Y-55382600D01*
X96324999Y-56382600D02*
X79265600Y-56373201D01*
X78275000Y-112532600D02*
G75*
G03*
X79275001Y-113532600I1000000J0D01*
G01*
X154475000Y-45359000D02*
X154500400Y-45638400D01*
X202800000Y-114400000D02*
X202800000Y-113200000D01*
X182117131Y-132359953D02*
X189501600Y-135681400D01*
X98325001Y-44380300D02*
G75*
G03*
X97325000Y-45380308I-1J-1000000D01*
G01*
X78265599Y-57373201D02*
X78275000Y-112532600D01*
X193092900Y-64300000D02*
G75*
G03*
X192092893Y-63300000I-1000000J0D01*
G01*
X182900000Y-69900000D02*
G75*
G03*
X183900000Y-70900000I1000000J0D01*
G01*
X128736979Y-124644091D02*
G75*
G03*
X131436757Y-125929583I4503621J5980691D01*
G01*
X154500406Y-45638399D02*
G75*
G03*
X155475000Y-46394623I974594J249899D01*
G01*
X134438492Y-39376507D02*
X117375001Y-39380600D01*
X183900000Y-63300000D02*
X192092893Y-63300000D01*
X115374999Y-44368400D02*
X98325001Y-44380308D01*
X202800000Y-113200000D02*
X202800000Y-52200000D01*
X173525000Y-49362799D02*
G75*
G03*
X174525000Y-50362800I1000000J-1D01*
G01*
X189501600Y-135681411D02*
G75*
G03*
X190833322Y-134970264I14300J1575711D01*
G01*
X153475000Y-44358999D02*
X136436908Y-44381893D01*
X117375001Y-39380600D02*
G75*
G03*
X116375000Y-40380600I-1J-1000000D01*
G01*
X182117130Y-132359955D02*
G75*
G03*
X143787732Y-125159955I-32005470J-64758195D01*
G01*
M02*
