0
SECTION
2
HEADER
9
$INSUNITS
70
4
0
ENDSEC
0
SECTION
2
TABLES
0
TABLE
2
LTYPE
0
LTYPE
72
65
70
64
2
CONTINUOUS
3
______
73
0
40
0
0
ENDTAB
0
TABLE
2
LAYER
0
ENDTAB
0
ENDSEC
0
SECTION
2
ENTITIES
0
LINE
8
0
10
46.3353298
20
-132.9133192
11
64.2480337
21
-83.6985698
0
LINE
8
0
10
65.8126675
20
-82.4075325
11
84.7508952
21
-79.3895078
0
LINE
8
0
10
85.2217257
20
-79.3706849
11
103.3379766
21
-80.7887942
0
LINE
8
0
10
103.8659376
20
-80.9033095
11
124.0268232
21
-88.2412718
0
LINE
8
0
10
124.504874
20
-88.4929148
11
153.4545089
21
-109.1608749
0
LINE
8
0
10
154.1718031
20
-111.4726573
11
149.8543006
21
-123.334898
0
LINE
8
0
10
151.7336859
20
-126.0189382
11
165.7941181
21
-126.0189382
0
LINE
8
0
10
167.6735034
20
-123.334898
11
163.3560009
21
-111.4726573
0
LINE
8
0
10
164.0732951
20
-109.1608749
11
193.02293
21
-88.4929148
0
LINE
8
0
10
193.5009808
20
-88.2412718
11
213.6618664
21
-80.9033095
0
LINE
8
0
10
214.1898274
20
-80.7887942
11
232.3060783
21
-79.3706849
0
LINE
8
0
10
232.7769088
20
-79.3895078
11
251.7151365
21
-82.4075325
0
LINE
8
0
10
253.2797703
20
-83.6985698
11
271.1924742
21
-132.9133192
0
LINE
8
0
10
270.5476448
20
-135.1708499
11
228.1015862
21
-168.4738986
0
LINE
8
0
10
227.8517672
20
-168.641182
11
177.1497883
21
-197.3227379
0
LINE
8
0
10
174.7508379
20
-196.9961777
11
168.6337719
21
-190.8791117
0
LINE
8
0
10
167.2195583
20
-190.2933253
11
150.3082457
21
-190.2933253
0
LINE
8
0
10
148.8940321
20
-190.8791117
11
142.7769661
21
-196.9961777
0
LINE
8
0
10
140.3780157
20
-197.3227379
11
89.6760368
21
-168.641182
0
LINE
8
0
10
89.4262178
20
-168.4738986
11
46.9801592
21
-135.1708499
0
ARC
8
0
10
66.1274189
20
-84.3826101
40
2
50
99.0546052
51
160.0000019
0
ARC
8
0
10
85.0656466
20
-81.3645854
40
2
50
85.5241094
51
99.0546052
0
ARC
8
0
10
103.1818974
20
-82.7826947
40
2
50
70.0000019
51
85.5241094
0
ARC
8
0
10
123.342783
20
-90.120657
40
2
50
54.4758896
51
70.0000019
0
ARC
8
0
10
152.2924179
20
-110.7886171
40
2
50
340.0000019
51
54.4758896
0
ARC
8
0
10
151.7336859
20
-124.0189382
40
2
50
160.0000019
51
270
0
ARC
8
0
10
165.7941181
20
-124.0189382
40
2
50
270
51
19.9999981
0
ARC
8
0
10
165.2353861
20
-110.7886171
40
2
50
125.5241104
51
199.9999981
0
ARC
8
0
10
194.185021
20
-90.120657
40
2
50
109.9999981
51
125.5241104
0
ARC
8
0
10
214.3459066
20
-82.7826947
40
2
50
94.4758906
51
109.9999981
0
ARC
8
0
10
232.4621574
20
-81.3645854
40
2
50
80.9453948
51
94.4758906
0
ARC
8
0
10
251.4003851
20
-84.3826101
40
2
50
19.9999981
51
80.9453948
0
ARC
8
0
10
269.313089
20
-133.5973595
40
2
50
308.1176233
51
19.9999981
0
ARC
8
0
10
226.8670304
20
-166.9004082
40
2
50
299.4963689
51
308.1176233
0
ARC
8
0
10
176.1650515
20
-195.5819641
40
2
50
225
51
299.4963689
0
ARC
8
0
10
167.2195583
20
-192.2933253
40
2
50
45
51
90
0
ARC
8
0
10
150.3082457
20
-192.2933253
40
2
50
90
51
135
0
ARC
8
0
10
141.3627525
20
-195.5819641
40
2
50
240.5036311
51
315
0
ARC
8
0
10
90.6607736
20
-166.9004082
40
2
50
231.8823767
51
240.5036311
0
ARC
8
0
10
48.214715
20
-133.5973595
40
2
50
160.0000019
51
231.8823767
0
ENDSEC
0
EOF