0
SECTION
2
HEADER
9
$INSUNITS
70
4
0
ENDSEC
0
SECTION
2
TABLES
0
TABLE
2
LTYPE
0
LTYPE
72
65
70
64
2
CONTINUOUS
3
______
73
0
40
0
0
ENDTAB
0
TABLE
2
LAYER
0
ENDTAB
0
ENDSEC
0
SECTION
2
ENTITIES
0
LINE
8
0
10
46.3353298
20
-132.9133192
11
64.2480337
21
-83.6985698
0
LINE
8
0
10
65.8126675
20
-82.4075325
11
84.7508952
21
-79.3895078
0
LINE
8
0
10
85.2217257
20
-79.3706849
11
103.3379766
21
-80.7887942
0
LINE
8
0
10
103.8659376
20
-80.9033095
11
124.0268232
21
-88.2412718
0
LINE
8
0
10
124.504874
20
-88.4929148
11
153.4545089
21
-109.1608749
0
LINE
8
0
10
154.1718031
20
-111.4726573
11
149.8543006
21
-123.334898
0
LINE
8
0
10
151.7336859
20
-126.0189382
11
165.7941181
21
-126.0189382
0
LINE
8
0
10
167.6735034
20
-123.334898
11
163.3560009
21
-111.4726573
0
LINE
8
0
10
164.0732951
20
-109.1608749
11
193.02293
21
-88.4929148
0
LINE
8
0
10
193.5009808
20
-88.2412718
11
213.6618664
21
-80.9033095
0
LINE
8
0
10
214.1898274
20
-80.7887942
11
232.3060783
21
-79.3706849
0
LINE
8
0
10
232.7769088
20
-79.3895078
11
251.7151365
21
-82.4075325
0
LINE
8
0
10
253.2797703
20
-83.6985698
11
271.1924742
21
-132.9133192
0
LINE
8
0
10
270.5476448
20
-135.1708499
11
228.1015862
21
-168.4738986
0
LINE
8
0
10
227.8517672
20
-168.641182
11
177.1497883
21
-197.3227379
0
LINE
8
0
10
174.7508379
20
-196.9961777
11
168.6337719
21
-190.8791117
0
LINE
8
0
10
167.2195583
20
-190.2933253
11
150.3082457
21
-190.2933253
0
LINE
8
0
10
148.8940321
20
-190.8791117
11
142.7769661
21
-196.9961777
0
LINE
8
0
10
140.3780157
20
-197.3227379
11
89.6760368
21
-168.641182
0
LINE
8
0
10
89.4262178
20
-168.4738986
11
46.9801592
21
-135.1708499
0
ARC
8
0
10
66.1274189
20
-84.3826101
40
2
50
99.0546052
51
160.0000019
0
ARC
8
0
10
85.0656466
20
-81.3645854
40
2
50
85.5241094
51
99.0546052
0
ARC
8
0
10
103.1818974
20
-82.7826947
40
2
50
70.0000019
51
85.5241094
0
ARC
8
0
10
123.342783
20
-90.120657
40
2
50
54.4758896
51
70.0000019
0
ARC
8
0
10
152.2924179
20
-110.7886171
40
2
50
340.0000019
51
54.4758896
0
ARC
8
0
10
151.7336859
20
-124.0189382
40
2
50
160.0000019
51
270
0
ARC
8
0
10
165.7941181
20
-124.0189382
40
2
50
270
51
19.9999981
0
ARC
8
0
10
165.2353861
20
-110.7886171
40
2
50
125.5241104
51
199.9999981
0
ARC
8
0
10
194.185021
20
-90.120657
40
2
50
109.9999981
51
125.5241104
0
ARC
8
0
10
214.3459066
20
-82.7826947
40
2
50
94.4758906
51
109.9999981
0
ARC
8
0
10
232.4621574
20
-81.3645854
40
2
50
80.9453948
51
94.4758906
0
ARC
8
0
10
251.4003851
20
-84.3826101
40
2
50
19.9999981
51
80.9453948
0
ARC
8
0
10
269.313089
20
-133.5973595
40
2
50
308.1176233
51
19.9999981
0
ARC
8
0
10
226.8670304
20
-166.9004082
40
2
50
299.4963689
51
308.1176233
0
ARC
8
0
10
176.1650515
20
-195.5819641
40
2
50
225
51
299.4963689
0
ARC
8
0
10
167.2195583
20
-192.2933253
40
2
50
45
51
90
0
ARC
8
0
10
150.3082457
20
-192.2933253
40
2
50
90
51
135
0
ARC
8
0
10
141.3627525
20
-195.5819641
40
2
50
240.5036311
51
315
0
ARC
8
0
10
90.6607736
20
-166.9004082
40
2
50
231.8823767
51
240.5036311
0
ARC
8
0
10
48.214715
20
-133.5973595
40
2
50
160.0000019
51
231.8823767
0
LINE
8
0
10
48.7232711
20
-132.9310643
11
65.1678919
21
-138.9164168
0
LINE
8
0
10
65.1678919
20
-138.9164168
11
70.8112243
21
-123.4114885
0
LINE
8
0
10
70.8112243
20
-123.4114885
11
54.3666035
21
-117.426136
0
LINE
8
0
10
54.3666035
20
-117.426136
11
48.7232711
21
-132.9310643
0
LINE
8
0
10
54.5376136
20
-116.9562898
11
70.9822344
21
-122.9416423
0
LINE
8
0
10
70.9822344
20
-122.9416423
11
76.6255668
21
-107.436714
0
LINE
8
0
10
76.6255668
20
-107.436714
11
60.180946
21
-101.4513615
0
LINE
8
0
10
60.180946
20
-101.4513615
11
54.5376136
21
-116.9562898
0
LINE
8
0
10
60.351956
20
-100.9815152
11
76.7965768
21
-106.9668677
0
LINE
8
0
10
76.7965768
20
-106.9668677
11
82.4399092
21
-91.4619394
0
LINE
8
0
10
82.4399092
20
-91.4619394
11
65.9952884
21
-85.4765869
0
LINE
8
0
10
65.9952884
20
-85.4765869
11
60.351956
21
-100.9815152
0
LINE
8
0
10
69.0579398
20
-129.6905007
11
85.5025606
21
-135.6758532
0
LINE
8
0
10
85.5025606
20
-135.6758532
11
91.145893
21
-120.1709249
0
LINE
8
0
10
91.145893
20
-120.1709249
11
74.7012722
21
-114.1855724
0
LINE
8
0
10
74.7012722
20
-114.1855724
11
69.0579398
21
-129.6905007
0
LINE
8
0
10
74.8722822
20
-113.7157261
11
91.316903
21
-119.7010786
0
LINE
8
0
10
91.316903
20
-119.7010786
11
96.9602354
21
-104.1961503
0
LINE
8
0
10
96.9602354
20
-104.1961503
11
80.5156146
21
-98.2107978
0
LINE
8
0
10
80.5156146
20
-98.2107978
11
74.8722822
21
-113.7157261
0
LINE
8
0
10
80.6866246
20
-97.7409516
11
97.1312454
21
-103.7263041
0
LINE
8
0
10
97.1312454
20
-103.7263041
11
102.7745778
21
-88.2213758
0
LINE
8
0
10
102.7745778
20
-88.2213758
11
86.329957
21
-82.2360233
0
LINE
8
0
10
86.329957
20
-82.2360233
11
80.6866246
21
-97.7409516
0
LINE
8
0
10
87.6825076
20
-131.1484002
11
104.1271284
21
-137.1337527
0
LINE
8
0
10
104.1271284
20
-137.1337527
11
109.7704608
21
-121.6288244
0
LINE
8
0
10
109.7704608
20
-121.6288244
11
93.32584
21
-115.6434719
0
LINE
8
0
10
93.32584
20
-115.6434719
11
87.6825076
21
-131.1484002
0
LINE
8
0
10
93.4968501
20
-115.1736256
11
109.9414709
21
-121.1589781
0
LINE
8
0
10
109.9414709
20
-121.1589781
11
115.5848033
21
-105.6540498
0
LINE
8
0
10
115.5848033
20
-105.6540498
11
99.1401825
21
-99.6686973
0
LINE
8
0
10
99.1401825
20
-99.6686973
11
93.4968501
21
-115.1736256
0
LINE
8
0
10
99.3111925
20
-99.1988511
11
115.7558133
21
-105.1842036
0
LINE
8
0
10
115.7558133
20
-105.1842036
11
121.3991457
21
-89.6792753
0
LINE
8
0
10
121.3991457
20
-89.6792753
11
104.9545249
21
-83.6939228
0
LINE
8
0
10
104.9545249
20
-83.6939228
11
99.3111925
21
-99.1988511
0
LINE
8
0
10
102.8868741
20
-142.0032258
11
119.3314949
21
-147.9885783
0
LINE
8
0
10
119.3314949
20
-147.9885783
11
124.9748273
21
-132.48365
0
LINE
8
0
10
124.9748273
20
-132.48365
11
108.5302065
21
-126.4982975
0
LINE
8
0
10
108.5302065
20
-126.4982975
11
102.8868741
21
-142.0032258
0
LINE
8
0
10
108.7012165
20
-126.0284513
11
125.1458373
21
-132.0138038
0
LINE
8
0
10
125.1458373
20
-132.0138038
11
130.7891697
21
-116.5088755
0
LINE
8
0
10
130.7891697
20
-116.5088755
11
114.3445489
21
-110.523523
0
LINE
8
0
10
114.3445489
20
-110.523523
11
108.7012165
21
-126.0284513
0
LINE
8
0
10
114.515559
20
-110.0536767
11
130.9601798
21
-116.0390292
0
LINE
8
0
10
130.9601798
20
-116.0390292
11
136.6035122
21
-100.5341009
0
LINE
8
0
10
136.6035122
20
-100.5341009
11
120.1588914
21
-94.5487484
0
LINE
8
0
10
120.1588914
20
-94.5487484
11
114.515559
21
-110.0536767
0
LINE
8
0
10
118.0912406
20
-152.8580515
11
134.5358614
21
-158.843404
0
LINE
8
0
10
134.5358614
20
-158.843404
11
140.1791938
21
-143.3384757
0
LINE
8
0
10
140.1791938
20
-143.3384757
11
123.734573
21
-137.3531232
0
LINE
8
0
10
123.734573
20
-137.3531232
11
118.0912406
21
-152.8580515
0
LINE
8
0
10
123.905583
20
-136.883277
11
140.3502038
21
-142.8686295
0
LINE
8
0
10
140.3502038
20
-142.8686295
11
145.9935362
21
-127.3637012
0
LINE
8
0
10
145.9935362
20
-127.3637012
11
129.5489154
21
-121.3783487
0
LINE
8
0
10
129.5489154
20
-121.3783487
11
123.905583
21
-136.883277
0
LINE
8
0
10
129.7199254
20
-120.9085024
11
146.1645462
21
-126.8938549
0
LINE
8
0
10
146.1645462
20
-126.8938549
11
151.8078786
21
-111.3889266
0
LINE
8
0
10
151.8078786
20
-111.3889266
11
135.3632578
21
-105.4035741
0
LINE
8
0
10
135.3632578
20
-105.4035741
11
129.7199254
21
-120.9085024
0
LINE
8
0
10
92.3004986
20
-166.9759652
11
109.2042006
21
-171.5052985
0
LINE
8
0
10
109.2042006
20
-171.5052985
11
113.4747148
21
-155.5675224
0
LINE
8
0
10
113.4747148
20
-155.5675224
11
96.5710128
21
-151.0381891
0
LINE
8
0
10
96.5710128
20
-151.0381891
11
92.3004986
21
-166.9759652
0
LINE
8
0
10
112.203543
20
-172.6767439
11
128.0639293
21
-180.0725634
0
LINE
8
0
10
128.0639293
20
-180.0725634
11
135.0371306
21
-165.1184849
0
LINE
8
0
10
135.0371306
20
-165.1184849
11
119.1767443
21
-157.7226654
0
LINE
8
0
10
119.1767443
20
-157.7226654
11
112.203543
21
-172.6767439
0
LINE
8
0
10
130.034382
20
-182.5151507
11
142.4087507
21
-194.8895194
0
LINE
8
0
10
142.4087507
20
-194.8895194
11
154.0760126
21
-183.2222575
0
LINE
8
0
10
154.0760126
20
-183.2222575
11
141.7016439
21
-170.8478888
0
LINE
8
0
10
141.7016439
20
-170.8478888
11
130.034382
21
-182.5151507
0
LINE
8
0
10
252.3599121
20
-138.9164168
11
268.8045329
21
-132.9310643
0
LINE
8
0
10
268.8045329
20
-132.9310643
11
263.1612005
21
-117.426136
0
LINE
8
0
10
263.1612005
20
-117.426136
11
246.7165797
21
-123.4114885
0
LINE
8
0
10
246.7165797
20
-123.4114885
11
252.3599121
21
-138.9164168
0
LINE
8
0
10
246.5455696
20
-122.9416423
11
262.9901904
21
-116.9562898
0
LINE
8
0
10
262.9901904
20
-116.9562898
11
257.346858
21
-101.4513615
0
LINE
8
0
10
257.346858
20
-101.4513615
11
240.9022372
21
-107.436714
0
LINE
8
0
10
240.9022372
20
-107.436714
11
246.5455696
21
-122.9416423
0
LINE
8
0
10
240.7312272
20
-106.9668677
11
257.175848
21
-100.9815152
0
LINE
8
0
10
257.175848
20
-100.9815152
11
251.5325156
21
-85.4765869
0
LINE
8
0
10
251.5325156
20
-85.4765869
11
235.0878948
21
-91.4619394
0
LINE
8
0
10
235.0878948
20
-91.4619394
11
240.7312272
21
-106.9668677
0
LINE
8
0
10
232.0252434
20
-135.6758532
11
248.4698642
21
-129.6905007
0
LINE
8
0
10
248.4698642
20
-129.6905007
11
242.8265318
21
-114.1855724
0
LINE
8
0
10
242.8265318
20
-114.1855724
11
226.381911
21
-120.1709249
0
LINE
8
0
10
226.381911
20
-120.1709249
11
232.0252434
21
-135.6758532
0
LINE
8
0
10
226.210901
20
-119.7010786
11
242.6555218
21
-113.7157261
0
LINE
8
0
10
242.6555218
20
-113.7157261
11
237.0121894
21
-98.2107978
0
LINE
8
0
10
237.0121894
20
-98.2107978
11
220.5675686
21
-104.1961503
0
LINE
8
0
10
220.5675686
20
-104.1961503
11
226.210901
21
-119.7010786
0
LINE
8
0
10
220.3965586
20
-103.7263041
11
236.8411794
21
-97.7409516
0
LINE
8
0
10
236.8411794
20
-97.7409516
11
231.197847
21
-82.2360233
0
LINE
8
0
10
231.197847
20
-82.2360233
11
214.7532262
21
-88.2213758
0
LINE
8
0
10
214.7532262
20
-88.2213758
11
220.3965586
21
-103.7263041
0
LINE
8
0
10
213.4006756
20
-137.1337527
11
229.8452964
21
-131.1484002
0
LINE
8
0
10
229.8452964
20
-131.1484002
11
224.201964
21
-115.6434719
0
LINE
8
0
10
224.201964
20
-115.6434719
11
207.7573432
21
-121.6288244
0
LINE
8
0
10
207.7573432
20
-121.6288244
11
213.4006756
21
-137.1337527
0
LINE
8
0
10
207.5863331
20
-121.1589781
11
224.0309539
21
-115.1736256
0
LINE
8
0
10
224.0309539
20
-115.1736256
11
218.3876215
21
-99.6686973
0
LINE
8
0
10
218.3876215
20
-99.6686973
11
201.9430007
21
-105.6540498
0
LINE
8
0
10
201.9430007
20
-105.6540498
11
207.5863331
21
-121.1589781
0
LINE
8
0
10
201.7719907
20
-105.1842036
11
218.2166115
21
-99.1988511
0
LINE
8
0
10
218.2166115
20
-99.1988511
11
212.5732791
21
-83.6939228
0
LINE
8
0
10
212.5732791
20
-83.6939228
11
196.1286583
21
-89.6792753
0
LINE
8
0
10
196.1286583
20
-89.6792753
11
201.7719907
21
-105.1842036
0
LINE
8
0
10
198.1963091
20
-147.9885783
11
214.6409299
21
-142.0032258
0
LINE
8
0
10
214.6409299
20
-142.0032258
11
208.9975975
21
-126.4982975
0
LINE
8
0
10
208.9975975
20
-126.4982975
11
192.5529767
21
-132.48365
0
LINE
8
0
10
192.5529767
20
-132.48365
11
198.1963091
21
-147.9885783
0
LINE
8
0
10
192.3819667
20
-132.0138038
11
208.8265875
21
-126.0284513
0
LINE
8
0
10
208.8265875
20
-126.0284513
11
203.1832551
21
-110.523523
0
LINE
8
0
10
203.1832551
20
-110.523523
11
186.7386343
21
-116.5088755
0
LINE
8
0
10
186.7386343
20
-116.5088755
11
192.3819667
21
-132.0138038
0
LINE
8
0
10
186.5676242
20
-116.0390292
11
203.012245
21
-110.0536767
0
LINE
8
0
10
203.012245
20
-110.0536767
11
197.3689126
21
-94.5487484
0
LINE
8
0
10
197.3689126
20
-94.5487484
11
180.9242918
21
-100.5341009
0
LINE
8
0
10
180.9242918
20
-100.5341009
11
186.5676242
21
-116.0390292
0
LINE
8
0
10
182.9919426
20
-158.843404
11
199.4365634
21
-152.8580515
0
LINE
8
0
10
199.4365634
20
-152.8580515
11
193.793231
21
-137.3531232
0
LINE
8
0
10
193.793231
20
-137.3531232
11
177.3486102
21
-143.3384757
0
LINE
8
0
10
177.3486102
20
-143.3384757
11
182.9919426
21
-158.843404
0
LINE
8
0
10
177.1776002
20
-142.8686295
11
193.622221
21
-136.883277
0
LINE
8
0
10
193.622221
20
-136.883277
11
187.9788886
21
-121.3783487
0
LINE
8
0
10
187.9788886
20
-121.3783487
11
171.5342678
21
-127.3637012
0
LINE
8
0
10
171.5342678
20
-127.3637012
11
177.1776002
21
-142.8686295
0
LINE
8
0
10
171.3632578
20
-126.8938549
11
187.8078786
21
-120.9085024
0
LINE
8
0
10
187.8078786
20
-120.9085024
11
182.1645462
21
-105.4035741
0
LINE
8
0
10
182.1645462
20
-105.4035741
11
165.7199254
21
-111.3889266
0
LINE
8
0
10
165.7199254
20
-111.3889266
11
171.3632578
21
-126.8938549
0
LINE
8
0
10
208.3236034
20
-171.5052985
11
225.2273054
21
-166.9759652
0
LINE
8
0
10
225.2273054
20
-166.9759652
11
220.9567912
21
-151.0381891
0
LINE
8
0
10
220.9567912
20
-151.0381891
11
204.0530892
21
-155.5675224
0
LINE
8
0
10
204.0530892
20
-155.5675224
11
208.3236034
21
-171.5052985
0
LINE
8
0
10
189.4638747
20
-180.0725634
11
205.324261
21
-172.6767439
0
LINE
8
0
10
205.324261
20
-172.6767439
11
198.3510597
21
-157.7226654
0
LINE
8
0
10
198.3510597
20
-157.7226654
11
182.4906734
21
-165.1184849
0
LINE
8
0
10
182.4906734
20
-165.1184849
11
189.4638747
21
-180.0725634
0
LINE
8
0
10
175.1190533
20
-194.8895194
11
187.493422
21
-182.5151507
0
LINE
8
0
10
187.493422
20
-182.5151507
11
175.8261601
21
-170.8478888
0
LINE
8
0
10
175.8261601
20
-170.8478888
11
163.4517914
21
-183.2222575
0
LINE
8
0
10
163.4517914
20
-183.2222575
11
175.1190533
21
-194.8895194
0
ENDSEC
0
EOF