0
SECTION
2
HEADER
9
$INSUNITS
70
4
0
ENDSEC
0
SECTION
2
TABLES
0
TABLE
2
LTYPE
0
LTYPE
72
65
70
64
2
CONTINUOUS
3
______
73
0
40
0
0
ENDTAB
0
TABLE
2
LAYER
0
ENDTAB
0
ENDSEC
0
SECTION
2
ENTITIES
0
LINE
8
0
10
43.7709519
20
-134.1112807
11
63.0526887
21
-81.1351443
0
LINE
8
0
10
64.6173225
20
-79.844107
11
83.5555502
21
-76.8260823
0
LINE
8
0
10
84.0263807
20
-76.8072594
11
102.1426316
21
-78.2253687
0
LINE
8
0
10
102.6705926
20
-78.339884
11
126.5902488
21
-87.0459268
0
LINE
8
0
10
127.0682996
20
-87.2975698
11
156.0179345
21
-107.9655299
0
LINE
8
0
10
156.7352287
20
-110.2773123
11
152.4177262
21
-122.139553
0
LINE
8
0
10
154.2971115
20
-124.8235932
11
163.2306925
21
-124.8235932
0
LINE
8
0
10
165.1100778
20
-122.139553
11
160.7925753
21
-110.2773123
0
LINE
8
0
10
161.5098695
20
-107.9655299
11
190.4595044
21
-87.2975698
0
LINE
8
0
10
190.9375552
20
-87.0459268
11
214.8572114
21
-78.339884
0
LINE
8
0
10
215.3851724
20
-78.2253687
11
233.5014233
21
-76.8072594
0
LINE
8
0
10
233.9722538
20
-76.8260823
11
252.9104815
21
-79.844107
0
LINE
8
0
10
254.4751153
20
-81.1351443
11
273.7568521
21
-134.1112807
0
LINE
8
0
10
273.1148942
20
-136.366554
11
230.5520364
21
-169.8870051
0
LINE
8
0
10
230.3000355
20
-170.0561557
11
177.1500356
21
-200.1503326
0
LINE
8
0
10
174.7503956
20
-199.8241626
11
167.2195583
21
-192.2933253
0
LINE
8
0
10
165.8053447
20
-191.7075389
11
151.7224593
21
-191.7075389
0
LINE
8
0
10
150.3082457
20
-192.2933253
11
142.7774084
21
-199.8241626
0
LINE
8
0
10
140.3777684
20
-200.1503326
11
87.2277685
21
-170.0561557
0
LINE
8
0
10
86.9757676
20
-169.8870051
11
44.4129098
21
-136.366554
0
ARC
8
0
10
64.9320739
20
-81.8191846
40
2
50
99.0546052
51
160.0000019
0
ARC
8
0
10
83.8703016
20
-78.8011599
40
2
50
85.5241094
51
99.0546052
0
ARC
8
0
10
101.9865524
20
-80.2192692
40
2
50
70.0000019
51
85.5241094
0
ARC
8
0
10
125.9062086
20
-88.925312
40
2
50
54.4758896
51
70.0000019
0
ARC
8
0
10
154.8558435
20
-109.5932721
40
2
50
340.0000019
51
54.4758896
0
ARC
8
0
10
154.2971115
20
-122.8235932
40
2
50
160.0000019
51
270
0
ARC
8
0
10
163.2306925
20
-122.8235932
40
2
50
270
51
19.9999981
0
ARC
8
0
10
162.6719605
20
-109.5932721
40
2
50
125.5241104
51
199.9999981
0
ARC
8
0
10
191.6215954
20
-88.925312
40
2
50
109.9999981
51
125.5241104
0
ARC
8
0
10
215.5412516
20
-80.2192692
40
2
50
94.4758906
51
109.9999981
0
ARC
8
0
10
233.6575024
20
-78.8011599
40
2
50
80.9453948
51
94.4758906
0
ARC
8
0
10
252.5957301
20
-81.8191846
40
2
50
19.9999981
51
80.9453948
0
ARC
8
0
10
271.8774669
20
-134.7953209
40
2
50
308.2222608
51
19.9999981
0
ARC
8
0
10
229.3146091
20
-168.3157721
40
2
50
299.5190678
51
308.2222608
0
ARC
8
0
10
176.1646092
20
-198.409949
40
2
50
225
51
299.5190678
0
ARC
8
0
10
165.8053447
20
-193.7075389
40
2
50
45
51
90
0
ARC
8
0
10
151.7224593
20
-193.7075389
40
2
50
90
51
135
0
ARC
8
0
10
141.3631948
20
-198.409949
40
2
50
240.4809322
51
315
0
ARC
8
0
10
88.2131949
20
-168.3157721
40
2
50
231.7777392
51
240.4809322
0
ARC
8
0
10
45.6503371
20
-134.7953209
40
2
50
160.0000019
51
231.7777392
0
ENDSEC
0
EOF