<?xml version="1.0" standalone="no"?>
 <!DOCTYPE svg PUBLIC "-//W3C//DTD SVG 1.1//EN" 
 "http://www.w3.org/Graphics/SVG/1.1/DTD/svg11.dtd"> 
<svg
  xmlns:svg="http://www.w3.org/2000/svg"
  xmlns="http://www.w3.org/2000/svg"
  xmlns:xlink="http://www.w3.org/1999/xlink"
  version="1.1"
  width="297.0022mm" height="210.0072mm" viewBox="0.0000 0.0000 297.0022 210.0072">
<title>SVG Image created as lazyboy36-B_Silkscreen.svg date 2024/04/02 21:51:48 </title>
  <desc>Image generated by PCBNEW </desc>
<g style="fill:#000000; fill-opacity:1.0000;stroke:#000000; stroke-opacity:1.0000;
stroke-linecap:round; stroke-linejoin:round;"
 transform="translate(0 0) scale(1 1)">
</g>
<g style="fill:none; 
stroke:#000000; stroke-width:0.1500; stroke-opacity:1; 
stroke-linecap:round; stroke-linejoin:round;">
<path d="M177.0022 166.0072
L285.0022 166.0072
L285.0022 198.0072
L177.0022 198.0072
L177.0022 166.0072
" />
</g>
<g style="fill:none; 
stroke:#000000; stroke-width:0.1500; stroke-opacity:1; 
stroke-linecap:round; stroke-linejoin:round;">
<path d="M10.0000 10.0000
L287.0022 10.0000
L287.0022 200.0072
L10.0000 200.0072
L10.0000 10.0000
" />
</g>
<g style="fill:none; 
stroke:#000000; stroke-width:0.1500; stroke-opacity:1; 
stroke-linecap:round; stroke-linejoin:round;">
<path d="M12.0000 12.0000
L285.0022 12.0000
L285.0022 198.0072
L12.0000 198.0072
L12.0000 12.0000
" />
</g>
<g style="fill:none; 
stroke:#000000; stroke-width:0.1500; stroke-opacity:1; 
stroke-linecap:round; stroke-linejoin:round;">
<path d="M60.0000 12.0000
L60.0000 10.0000
" />
</g>
<g style="fill:none; 
stroke:#000000; stroke-width:0.1500; stroke-opacity:1; 
stroke-linecap:round; stroke-linejoin:round;">
<path d="M110.0000 12.0000
L110.0000 10.0000
" />
</g>
<g style="fill:none; 
stroke:#000000; stroke-width:0.1500; stroke-opacity:1; 
stroke-linecap:round; stroke-linejoin:round;">
<path d="M160.0000 12.0000
L160.0000 10.0000
" />
</g>
<g style="fill:none; 
stroke:#000000; stroke-width:0.1500; stroke-opacity:1; 
stroke-linecap:round; stroke-linejoin:round;">
<path d="M210.0000 12.0000
L210.0000 10.0000
" />
</g>
<g style="fill:none; 
stroke:#000000; stroke-width:0.1500; stroke-opacity:1; 
stroke-linecap:round; stroke-linejoin:round;">
<path d="M260.0000 12.0000
L260.0000 10.0000
" />
</g>
<g style="fill:none; 
stroke:#000000; stroke-width:0.1500; stroke-opacity:1; 
stroke-linecap:round; stroke-linejoin:round;">
<text x="35.0000" y="11.6500"
textLength="1.4281" font-size="1.7333" lengthAdjust="spacingAndGlyphs"
text-anchor="start" opacity="0">1</text>
<g class="stroked-text"><desc>1</desc>
<path d="M36.0892 11.5936
L35.3463 11.5936
" />
<path d="M35.7177 11.5936
L35.7177 10.2936
" />
<path d="M35.7177 10.2936
L35.5939 10.4793
" />
<path d="M35.5939 10.4793
L35.4701 10.6031
" />
<path d="M35.4701 10.6031
L35.3463 10.6650
" />
</g></g>
<g style="fill:none; 
stroke:#000000; stroke-width:0.1500; stroke-opacity:1; 
stroke-linecap:round; stroke-linejoin:round;">
<text x="85.0000" y="11.6500"
textLength="1.4281" font-size="1.7333" lengthAdjust="spacingAndGlyphs"
text-anchor="start" opacity="0">2</text>
<g class="stroked-text"><desc>2</desc>
<path d="M85.3463 10.4174
L85.4082 10.3555
" />
<path d="M85.4082 10.3555
L85.5320 10.2936
" />
<path d="M85.5320 10.2936
L85.8415 10.2936
" />
<path d="M85.8415 10.2936
L85.9654 10.3555
" />
<path d="M85.9654 10.3555
L86.0273 10.4174
" />
<path d="M86.0273 10.4174
L86.0892 10.5412
" />
<path d="M86.0892 10.5412
L86.0892 10.6650
" />
<path d="M86.0892 10.6650
L86.0273 10.8507
" />
<path d="M86.0273 10.8507
L85.2844 11.5936
" />
<path d="M85.2844 11.5936
L86.0892 11.5936
" />
</g></g>
<g style="fill:none; 
stroke:#000000; stroke-width:0.1500; stroke-opacity:1; 
stroke-linecap:round; stroke-linejoin:round;">
<text x="135.0000" y="11.6500"
textLength="1.4281" font-size="1.7333" lengthAdjust="spacingAndGlyphs"
text-anchor="start" opacity="0">3</text>
<g class="stroked-text"><desc>3</desc>
<path d="M135.2844 10.2936
L136.0892 10.2936
" />
<path d="M136.0892 10.2936
L135.6558 10.7888
" />
<path d="M135.6558 10.7888
L135.8415 10.7888
" />
<path d="M135.8415 10.7888
L135.9654 10.8507
" />
<path d="M135.9654 10.8507
L136.0273 10.9127
" />
<path d="M136.0273 10.9127
L136.0892 11.0365
" />
<path d="M136.0892 11.0365
L136.0892 11.3460
" />
<path d="M136.0892 11.3460
L136.0273 11.4698
" />
<path d="M136.0273 11.4698
L135.9654 11.5317
" />
<path d="M135.9654 11.5317
L135.8415 11.5936
" />
<path d="M135.8415 11.5936
L135.4701 11.5936
" />
<path d="M135.4701 11.5936
L135.3463 11.5317
" />
<path d="M135.3463 11.5317
L135.2844 11.4698
" />
</g></g>
<g style="fill:none; 
stroke:#000000; stroke-width:0.1500; stroke-opacity:1; 
stroke-linecap:round; stroke-linejoin:round;">
<text x="185.0000" y="11.6500"
textLength="1.4281" font-size="1.7333" lengthAdjust="spacingAndGlyphs"
text-anchor="start" opacity="0">4</text>
<g class="stroked-text"><desc>4</desc>
<path d="M185.9654 10.7269
L185.9654 11.5936
" />
<path d="M185.6558 10.2317
L185.3463 11.1603
" />
<path d="M185.3463 11.1603
L186.1511 11.1603
" />
</g></g>
<g style="fill:none; 
stroke:#000000; stroke-width:0.1500; stroke-opacity:1; 
stroke-linecap:round; stroke-linejoin:round;">
<text x="235.0000" y="11.6500"
textLength="1.4281" font-size="1.7333" lengthAdjust="spacingAndGlyphs"
text-anchor="start" opacity="0">5</text>
<g class="stroked-text"><desc>5</desc>
<path d="M236.0273 10.2936
L235.4082 10.2936
" />
<path d="M235.4082 10.2936
L235.3463 10.9127
" />
<path d="M235.3463 10.9127
L235.4082 10.8507
" />
<path d="M235.4082 10.8507
L235.5320 10.7888
" />
<path d="M235.5320 10.7888
L235.8415 10.7888
" />
<path d="M235.8415 10.7888
L235.9654 10.8507
" />
<path d="M235.9654 10.8507
L236.0273 10.9127
" />
<path d="M236.0273 10.9127
L236.0892 11.0365
" />
<path d="M236.0892 11.0365
L236.0892 11.3460
" />
<path d="M236.0892 11.3460
L236.0273 11.4698
" />
<path d="M236.0273 11.4698
L235.9654 11.5317
" />
<path d="M235.9654 11.5317
L235.8415 11.5936
" />
<path d="M235.8415 11.5936
L235.5320 11.5936
" />
<path d="M235.5320 11.5936
L235.4082 11.5317
" />
<path d="M235.4082 11.5317
L235.3463 11.4698
" />
</g></g>
<g style="fill:none; 
stroke:#000000; stroke-width:0.1500; stroke-opacity:1; 
stroke-linecap:round; stroke-linejoin:round;">
<text x="285.0000" y="11.6500"
textLength="1.4281" font-size="1.7333" lengthAdjust="spacingAndGlyphs"
text-anchor="start" opacity="0">6</text>
<g class="stroked-text"><desc>6</desc>
<path d="M285.9654 10.2936
L285.7177 10.2936
" />
<path d="M285.7177 10.2936
L285.5939 10.3555
" />
<path d="M285.5939 10.3555
L285.5320 10.4174
" />
<path d="M285.5320 10.4174
L285.4082 10.6031
" />
<path d="M285.4082 10.6031
L285.3463 10.8507
" />
<path d="M285.3463 10.8507
L285.3463 11.3460
" />
<path d="M285.3463 11.3460
L285.4082 11.4698
" />
<path d="M285.4082 11.4698
L285.4701 11.5317
" />
<path d="M285.4701 11.5317
L285.5939 11.5936
" />
<path d="M285.5939 11.5936
L285.8415 11.5936
" />
<path d="M285.8415 11.5936
L285.9654 11.5317
" />
<path d="M285.9654 11.5317
L286.0273 11.4698
" />
<path d="M286.0273 11.4698
L286.0892 11.3460
" />
<path d="M286.0892 11.3460
L286.0892 11.0365
" />
<path d="M286.0892 11.0365
L286.0273 10.9127
" />
<path d="M286.0273 10.9127
L285.9654 10.8507
" />
<path d="M285.9654 10.8507
L285.8415 10.7888
" />
<path d="M285.8415 10.7888
L285.5939 10.7888
" />
<path d="M285.5939 10.7888
L285.4701 10.8507
" />
<path d="M285.4701 10.8507
L285.4082 10.9127
" />
<path d="M285.4082 10.9127
L285.3463 11.0365
" />
</g></g>
<g style="fill:none; 
stroke:#000000; stroke-width:0.1500; stroke-opacity:1; 
stroke-linecap:round; stroke-linejoin:round;">
<path d="M60.0000 198.0072
L60.0000 200.0072
" />
</g>
<g style="fill:none; 
stroke:#000000; stroke-width:0.1500; stroke-opacity:1; 
stroke-linecap:round; stroke-linejoin:round;">
<path d="M110.0000 198.0072
L110.0000 200.0072
" />
</g>
<g style="fill:none; 
stroke:#000000; stroke-width:0.1500; stroke-opacity:1; 
stroke-linecap:round; stroke-linejoin:round;">
<path d="M160.0000 198.0072
L160.0000 200.0072
" />
</g>
<g style="fill:none; 
stroke:#000000; stroke-width:0.1500; stroke-opacity:1; 
stroke-linecap:round; stroke-linejoin:round;">
<path d="M210.0000 198.0072
L210.0000 200.0072
" />
</g>
<g style="fill:none; 
stroke:#000000; stroke-width:0.1500; stroke-opacity:1; 
stroke-linecap:round; stroke-linejoin:round;">
<path d="M260.0000 198.0072
L260.0000 200.0072
" />
</g>
<g style="fill:none; 
stroke:#000000; stroke-width:0.1500; stroke-opacity:1; 
stroke-linecap:round; stroke-linejoin:round;">
<text x="35.0000" y="199.6572"
textLength="1.4281" font-size="1.7333" lengthAdjust="spacingAndGlyphs"
text-anchor="start" opacity="0">1</text>
<g class="stroked-text"><desc>1</desc>
<path d="M36.0892 199.6008
L35.3463 199.6008
" />
<path d="M35.7177 199.6008
L35.7177 198.3008
" />
<path d="M35.7177 198.3008
L35.5939 198.4865
" />
<path d="M35.5939 198.4865
L35.4701 198.6103
" />
<path d="M35.4701 198.6103
L35.3463 198.6722
" />
</g></g>
<g style="fill:none; 
stroke:#000000; stroke-width:0.1500; stroke-opacity:1; 
stroke-linecap:round; stroke-linejoin:round;">
<text x="85.0000" y="199.6572"
textLength="1.4281" font-size="1.7333" lengthAdjust="spacingAndGlyphs"
text-anchor="start" opacity="0">2</text>
<g class="stroked-text"><desc>2</desc>
<path d="M85.3463 198.4246
L85.4082 198.3627
" />
<path d="M85.4082 198.3627
L85.5320 198.3008
" />
<path d="M85.5320 198.3008
L85.8415 198.3008
" />
<path d="M85.8415 198.3008
L85.9654 198.3627
" />
<path d="M85.9654 198.3627
L86.0273 198.4246
" />
<path d="M86.0273 198.4246
L86.0892 198.5484
" />
<path d="M86.0892 198.5484
L86.0892 198.6722
" />
<path d="M86.0892 198.6722
L86.0273 198.8579
" />
<path d="M86.0273 198.8579
L85.2844 199.6008
" />
<path d="M85.2844 199.6008
L86.0892 199.6008
" />
</g></g>
<g style="fill:none; 
stroke:#000000; stroke-width:0.1500; stroke-opacity:1; 
stroke-linecap:round; stroke-linejoin:round;">
<text x="135.0000" y="199.6572"
textLength="1.4281" font-size="1.7333" lengthAdjust="spacingAndGlyphs"
text-anchor="start" opacity="0">3</text>
<g class="stroked-text"><desc>3</desc>
<path d="M135.2844 198.3008
L136.0892 198.3008
" />
<path d="M136.0892 198.3008
L135.6558 198.7960
" />
<path d="M135.6558 198.7960
L135.8415 198.7960
" />
<path d="M135.8415 198.7960
L135.9654 198.8579
" />
<path d="M135.9654 198.8579
L136.0273 198.9199
" />
<path d="M136.0273 198.9199
L136.0892 199.0437
" />
<path d="M136.0892 199.0437
L136.0892 199.3532
" />
<path d="M136.0892 199.3532
L136.0273 199.4770
" />
<path d="M136.0273 199.4770
L135.9654 199.5389
" />
<path d="M135.9654 199.5389
L135.8415 199.6008
" />
<path d="M135.8415 199.6008
L135.4701 199.6008
" />
<path d="M135.4701 199.6008
L135.3463 199.5389
" />
<path d="M135.3463 199.5389
L135.2844 199.4770
" />
</g></g>
<g style="fill:none; 
stroke:#000000; stroke-width:0.1500; stroke-opacity:1; 
stroke-linecap:round; stroke-linejoin:round;">
<text x="185.0000" y="199.6572"
textLength="1.4281" font-size="1.7333" lengthAdjust="spacingAndGlyphs"
text-anchor="start" opacity="0">4</text>
<g class="stroked-text"><desc>4</desc>
<path d="M185.9654 198.7341
L185.9654 199.6008
" />
<path d="M185.6558 198.2389
L185.3463 199.1675
" />
<path d="M185.3463 199.1675
L186.1511 199.1675
" />
</g></g>
<g style="fill:none; 
stroke:#000000; stroke-width:0.1500; stroke-opacity:1; 
stroke-linecap:round; stroke-linejoin:round;">
<text x="235.0000" y="199.6572"
textLength="1.4281" font-size="1.7333" lengthAdjust="spacingAndGlyphs"
text-anchor="start" opacity="0">5</text>
<g class="stroked-text"><desc>5</desc>
<path d="M236.0273 198.3008
L235.4082 198.3008
" />
<path d="M235.4082 198.3008
L235.3463 198.9199
" />
<path d="M235.3463 198.9199
L235.4082 198.8579
" />
<path d="M235.4082 198.8579
L235.5320 198.7960
" />
<path d="M235.5320 198.7960
L235.8415 198.7960
" />
<path d="M235.8415 198.7960
L235.9654 198.8579
" />
<path d="M235.9654 198.8579
L236.0273 198.9199
" />
<path d="M236.0273 198.9199
L236.0892 199.0437
" />
<path d="M236.0892 199.0437
L236.0892 199.3532
" />
<path d="M236.0892 199.3532
L236.0273 199.4770
" />
<path d="M236.0273 199.4770
L235.9654 199.5389
" />
<path d="M235.9654 199.5389
L235.8415 199.6008
" />
<path d="M235.8415 199.6008
L235.5320 199.6008
" />
<path d="M235.5320 199.6008
L235.4082 199.5389
" />
<path d="M235.4082 199.5389
L235.3463 199.4770
" />
</g></g>
<g style="fill:none; 
stroke:#000000; stroke-width:0.1500; stroke-opacity:1; 
stroke-linecap:round; stroke-linejoin:round;">
<text x="285.0000" y="199.6572"
textLength="1.4281" font-size="1.7333" lengthAdjust="spacingAndGlyphs"
text-anchor="start" opacity="0">6</text>
<g class="stroked-text"><desc>6</desc>
<path d="M285.9654 198.3008
L285.7177 198.3008
" />
<path d="M285.7177 198.3008
L285.5939 198.3627
" />
<path d="M285.5939 198.3627
L285.5320 198.4246
" />
<path d="M285.5320 198.4246
L285.4082 198.6103
" />
<path d="M285.4082 198.6103
L285.3463 198.8579
" />
<path d="M285.3463 198.8579
L285.3463 199.3532
" />
<path d="M285.3463 199.3532
L285.4082 199.4770
" />
<path d="M285.4082 199.4770
L285.4701 199.5389
" />
<path d="M285.4701 199.5389
L285.5939 199.6008
" />
<path d="M285.5939 199.6008
L285.8415 199.6008
" />
<path d="M285.8415 199.6008
L285.9654 199.5389
" />
<path d="M285.9654 199.5389
L286.0273 199.4770
" />
<path d="M286.0273 199.4770
L286.0892 199.3532
" />
<path d="M286.0892 199.3532
L286.0892 199.0437
" />
<path d="M286.0892 199.0437
L286.0273 198.9199
" />
<path d="M286.0273 198.9199
L285.9654 198.8579
" />
<path d="M285.9654 198.8579
L285.8415 198.7960
" />
<path d="M285.8415 198.7960
L285.5939 198.7960
" />
<path d="M285.5939 198.7960
L285.4701 198.8579
" />
<path d="M285.4701 198.8579
L285.4082 198.9199
" />
<path d="M285.4082 198.9199
L285.3463 199.0437
" />
</g></g>
<g style="fill:none; 
stroke:#000000; stroke-width:0.1500; stroke-opacity:1; 
stroke-linecap:round; stroke-linejoin:round;">
<path d="M10.0000 60.0000
L12.0000 60.0000
" />
</g>
<g style="fill:none; 
stroke:#000000; stroke-width:0.1500; stroke-opacity:1; 
stroke-linecap:round; stroke-linejoin:round;">
<path d="M10.0000 110.0000
L12.0000 110.0000
" />
</g>
<g style="fill:none; 
stroke:#000000; stroke-width:0.1500; stroke-opacity:1; 
stroke-linecap:round; stroke-linejoin:round;">
<path d="M10.0000 160.0000
L12.0000 160.0000
" />
</g>
<g style="fill:none; 
stroke:#000000; stroke-width:0.1500; stroke-opacity:1; 
stroke-linecap:round; stroke-linejoin:round;">
<text x="11.0000" y="35.6500"
textLength="1.3043" font-size="1.7333" lengthAdjust="spacingAndGlyphs"
text-anchor="middle" opacity="0">A</text>
<g class="stroked-text"><desc>A</desc>
<path d="M10.6905 35.2222
L11.3095 35.2222
" />
<path d="M10.5667 35.5936
L11.0000 34.2936
" />
<path d="M11.0000 34.2936
L11.4333 35.5936
" />
</g></g>
<g style="fill:none; 
stroke:#000000; stroke-width:0.1500; stroke-opacity:1; 
stroke-linecap:round; stroke-linejoin:round;">
<text x="11.0000" y="85.6500"
textLength="1.4900" font-size="1.7333" lengthAdjust="spacingAndGlyphs"
text-anchor="middle" opacity="0">B</text>
<g class="stroked-text"><desc>B</desc>
<path d="M11.0929 84.9127
L11.2786 84.9746
" />
<path d="M11.2786 84.9746
L11.3405 85.0365
" />
<path d="M11.3405 85.0365
L11.4024 85.1603
" />
<path d="M11.4024 85.1603
L11.4024 85.3460
" />
<path d="M11.4024 85.3460
L11.3405 85.4698
" />
<path d="M11.3405 85.4698
L11.2786 85.5317
" />
<path d="M11.2786 85.5317
L11.1548 85.5936
" />
<path d="M11.1548 85.5936
L10.6595 85.5936
" />
<path d="M10.6595 85.5936
L10.6595 84.2936
" />
<path d="M10.6595 84.2936
L11.0929 84.2936
" />
<path d="M11.0929 84.2936
L11.2167 84.3555
" />
<path d="M11.2167 84.3555
L11.2786 84.4174
" />
<path d="M11.2786 84.4174
L11.3405 84.5412
" />
<path d="M11.3405 84.5412
L11.3405 84.6650
" />
<path d="M11.3405 84.6650
L11.2786 84.7888
" />
<path d="M11.2786 84.7888
L11.2167 84.8507
" />
<path d="M11.2167 84.8507
L11.0929 84.9127
" />
<path d="M11.0929 84.9127
L10.6595 84.9127
" />
</g></g>
<g style="fill:none; 
stroke:#000000; stroke-width:0.1500; stroke-opacity:1; 
stroke-linecap:round; stroke-linejoin:round;">
<text x="11.0000" y="135.6500"
textLength="1.4900" font-size="1.7333" lengthAdjust="spacingAndGlyphs"
text-anchor="middle" opacity="0">C</text>
<g class="stroked-text"><desc>C</desc>
<path d="M11.4024 135.4698
L11.3405 135.5317
" />
<path d="M11.3405 135.5317
L11.1548 135.5936
" />
<path d="M11.1548 135.5936
L11.0310 135.5936
" />
<path d="M11.0310 135.5936
L10.8452 135.5317
" />
<path d="M10.8452 135.5317
L10.7214 135.4079
" />
<path d="M10.7214 135.4079
L10.6595 135.2841
" />
<path d="M10.6595 135.2841
L10.5976 135.0365
" />
<path d="M10.5976 135.0365
L10.5976 134.8507
" />
<path d="M10.5976 134.8507
L10.6595 134.6031
" />
<path d="M10.6595 134.6031
L10.7214 134.4793
" />
<path d="M10.7214 134.4793
L10.8452 134.3555
" />
<path d="M10.8452 134.3555
L11.0310 134.2936
" />
<path d="M11.0310 134.2936
L11.1548 134.2936
" />
<path d="M11.1548 134.2936
L11.3405 134.3555
" />
<path d="M11.3405 134.3555
L11.4024 134.4174
" />
</g></g>
<g style="fill:none; 
stroke:#000000; stroke-width:0.1500; stroke-opacity:1; 
stroke-linecap:round; stroke-linejoin:round;">
<text x="11.0000" y="185.6500"
textLength="1.4900" font-size="1.7333" lengthAdjust="spacingAndGlyphs"
text-anchor="middle" opacity="0">D</text>
<g class="stroked-text"><desc>D</desc>
<path d="M10.6595 185.5936
L10.6595 184.2936
" />
<path d="M10.6595 184.2936
L10.9690 184.2936
" />
<path d="M10.9690 184.2936
L11.1548 184.3555
" />
<path d="M11.1548 184.3555
L11.2786 184.4793
" />
<path d="M11.2786 184.4793
L11.3405 184.6031
" />
<path d="M11.3405 184.6031
L11.4024 184.8507
" />
<path d="M11.4024 184.8507
L11.4024 185.0365
" />
<path d="M11.4024 185.0365
L11.3405 185.2841
" />
<path d="M11.3405 185.2841
L11.2786 185.4079
" />
<path d="M11.2786 185.4079
L11.1548 185.5317
" />
<path d="M11.1548 185.5317
L10.9690 185.5936
" />
<path d="M10.9690 185.5936
L10.6595 185.5936
" />
</g></g>
<g style="fill:none; 
stroke:#000000; stroke-width:0.1500; stroke-opacity:1; 
stroke-linecap:round; stroke-linejoin:round;">
<path d="M287.0022 60.0000
L285.0022 60.0000
" />
</g>
<g style="fill:none; 
stroke:#000000; stroke-width:0.1500; stroke-opacity:1; 
stroke-linecap:round; stroke-linejoin:round;">
<path d="M287.0022 110.0000
L285.0022 110.0000
" />
</g>
<g style="fill:none; 
stroke:#000000; stroke-width:0.1500; stroke-opacity:1; 
stroke-linecap:round; stroke-linejoin:round;">
<path d="M287.0022 160.0000
L285.0022 160.0000
" />
</g>
<g style="fill:none; 
stroke:#000000; stroke-width:0.1500; stroke-opacity:1; 
stroke-linecap:round; stroke-linejoin:round;">
<text x="286.0022" y="35.6500"
textLength="1.3043" font-size="1.7333" lengthAdjust="spacingAndGlyphs"
text-anchor="middle" opacity="0">A</text>
<g class="stroked-text"><desc>A</desc>
<path d="M285.6927 35.2222
L286.3117 35.2222
" />
<path d="M285.5689 35.5936
L286.0022 34.2936
" />
<path d="M286.0022 34.2936
L286.4355 35.5936
" />
</g></g>
<g style="fill:none; 
stroke:#000000; stroke-width:0.1500; stroke-opacity:1; 
stroke-linecap:round; stroke-linejoin:round;">
<text x="286.0022" y="85.6500"
textLength="1.4900" font-size="1.7333" lengthAdjust="spacingAndGlyphs"
text-anchor="middle" opacity="0">B</text>
<g class="stroked-text"><desc>B</desc>
<path d="M286.0951 84.9127
L286.2808 84.9746
" />
<path d="M286.2808 84.9746
L286.3427 85.0365
" />
<path d="M286.3427 85.0365
L286.4046 85.1603
" />
<path d="M286.4046 85.1603
L286.4046 85.3460
" />
<path d="M286.4046 85.3460
L286.3427 85.4698
" />
<path d="M286.3427 85.4698
L286.2808 85.5317
" />
<path d="M286.2808 85.5317
L286.1570 85.5936
" />
<path d="M286.1570 85.5936
L285.6617 85.5936
" />
<path d="M285.6617 85.5936
L285.6617 84.2936
" />
<path d="M285.6617 84.2936
L286.0951 84.2936
" />
<path d="M286.0951 84.2936
L286.2189 84.3555
" />
<path d="M286.2189 84.3555
L286.2808 84.4174
" />
<path d="M286.2808 84.4174
L286.3427 84.5412
" />
<path d="M286.3427 84.5412
L286.3427 84.6650
" />
<path d="M286.3427 84.6650
L286.2808 84.7888
" />
<path d="M286.2808 84.7888
L286.2189 84.8507
" />
<path d="M286.2189 84.8507
L286.0951 84.9127
" />
<path d="M286.0951 84.9127
L285.6617 84.9127
" />
</g></g>
<g style="fill:none; 
stroke:#000000; stroke-width:0.1500; stroke-opacity:1; 
stroke-linecap:round; stroke-linejoin:round;">
<text x="286.0022" y="135.6500"
textLength="1.4900" font-size="1.7333" lengthAdjust="spacingAndGlyphs"
text-anchor="middle" opacity="0">C</text>
<g class="stroked-text"><desc>C</desc>
<path d="M286.4046 135.4698
L286.3427 135.5317
" />
<path d="M286.3427 135.5317
L286.1570 135.5936
" />
<path d="M286.1570 135.5936
L286.0332 135.5936
" />
<path d="M286.0332 135.5936
L285.8474 135.5317
" />
<path d="M285.8474 135.5317
L285.7236 135.4079
" />
<path d="M285.7236 135.4079
L285.6617 135.2841
" />
<path d="M285.6617 135.2841
L285.5998 135.0365
" />
<path d="M285.5998 135.0365
L285.5998 134.8507
" />
<path d="M285.5998 134.8507
L285.6617 134.6031
" />
<path d="M285.6617 134.6031
L285.7236 134.4793
" />
<path d="M285.7236 134.4793
L285.8474 134.3555
" />
<path d="M285.8474 134.3555
L286.0332 134.2936
" />
<path d="M286.0332 134.2936
L286.1570 134.2936
" />
<path d="M286.1570 134.2936
L286.3427 134.3555
" />
<path d="M286.3427 134.3555
L286.4046 134.4174
" />
</g></g>
<g style="fill:none; 
stroke:#000000; stroke-width:0.1500; stroke-opacity:1; 
stroke-linecap:round; stroke-linejoin:round;">
<text x="286.0022" y="185.6500"
textLength="1.4900" font-size="1.7333" lengthAdjust="spacingAndGlyphs"
text-anchor="middle" opacity="0">D</text>
<g class="stroked-text"><desc>D</desc>
<path d="M285.6617 185.5936
L285.6617 184.2936
" />
<path d="M285.6617 184.2936
L285.9712 184.2936
" />
<path d="M285.9712 184.2936
L286.1570 184.3555
" />
<path d="M286.1570 184.3555
L286.2808 184.4793
" />
<path d="M286.2808 184.4793
L286.3427 184.6031
" />
<path d="M286.3427 184.6031
L286.4046 184.8507
" />
<path d="M286.4046 184.8507
L286.4046 185.0365
" />
<path d="M286.4046 185.0365
L286.3427 185.2841
" />
<path d="M286.3427 185.2841
L286.2808 185.4079
" />
<path d="M286.2808 185.4079
L286.1570 185.5317
" />
<path d="M286.1570 185.5317
L285.9712 185.5936
" />
<path d="M285.9712 185.5936
L285.6617 185.5936
" />
</g></g>
<g style="fill:none; 
stroke:#000000; stroke-width:0.1500; stroke-opacity:1; 
stroke-linecap:round; stroke-linejoin:round;">
<text x="200.0022" y="193.8572"
textLength="7.0071" font-size="2.0000" lengthAdjust="spacingAndGlyphs"
text-anchor="start" opacity="0">Date: </text>
<g class="stroked-text"><desc>Date: </desc>
<path d="M200.4580 193.7933
L200.4580 192.2933
" />
<path d="M200.4580 192.2933
L200.8152 192.2933
" />
<path d="M200.8152 192.2933
L201.0295 192.3648
" />
<path d="M201.0295 192.3648
L201.1723 192.5076
" />
<path d="M201.1723 192.5076
L201.2437 192.6505
" />
<path d="M201.2437 192.6505
L201.3152 192.9362
" />
<path d="M201.3152 192.9362
L201.3152 193.1505
" />
<path d="M201.3152 193.1505
L201.2437 193.4362
" />
<path d="M201.2437 193.4362
L201.1723 193.5790
" />
<path d="M201.1723 193.5790
L201.0295 193.7219
" />
<path d="M201.0295 193.7219
L200.8152 193.7933
" />
<path d="M200.8152 193.7933
L200.4580 193.7933
" />
<path d="M202.6009 193.7933
L202.6009 193.0076
" />
<path d="M202.6009 193.0076
L202.5295 192.8648
" />
<path d="M202.5295 192.8648
L202.3866 192.7933
" />
<path d="M202.3866 192.7933
L202.1009 192.7933
" />
<path d="M202.1009 192.7933
L201.9580 192.8648
" />
<path d="M202.6009 193.7219
L202.4580 193.7933
" />
<path d="M202.4580 193.7933
L202.1009 193.7933
" />
<path d="M202.1009 193.7933
L201.9580 193.7219
" />
<path d="M201.9580 193.7219
L201.8866 193.5790
" />
<path d="M201.8866 193.5790
L201.8866 193.4362
" />
<path d="M201.8866 193.4362
L201.9580 193.2933
" />
<path d="M201.9580 193.2933
L202.1009 193.2219
" />
<path d="M202.1009 193.2219
L202.4580 193.2219
" />
<path d="M202.4580 193.2219
L202.6009 193.1505
" />
<path d="M203.1009 192.7933
L203.6723 192.7933
" />
<path d="M203.3152 192.2933
L203.3152 193.5790
" />
<path d="M203.3152 193.5790
L203.3866 193.7219
" />
<path d="M203.3866 193.7219
L203.5295 193.7933
" />
<path d="M203.5295 193.7933
L203.6723 193.7933
" />
<path d="M204.7437 193.7219
L204.6009 193.7933
" />
<path d="M204.6009 193.7933
L204.3152 193.7933
" />
<path d="M204.3152 193.7933
L204.1723 193.7219
" />
<path d="M204.1723 193.7219
L204.1009 193.5790
" />
<path d="M204.1009 193.5790
L204.1009 193.0076
" />
<path d="M204.1009 193.0076
L204.1723 192.8648
" />
<path d="M204.1723 192.8648
L204.3152 192.7933
" />
<path d="M204.3152 192.7933
L204.6009 192.7933
" />
<path d="M204.6009 192.7933
L204.7437 192.8648
" />
<path d="M204.7437 192.8648
L204.8152 193.0076
" />
<path d="M204.8152 193.0076
L204.8152 193.1505
" />
<path d="M204.8152 193.1505
L204.1009 193.2933
" />
<path d="M205.4580 193.6505
L205.5295 193.7219
" />
<path d="M205.5295 193.7219
L205.4580 193.7933
" />
<path d="M205.4580 193.7933
L205.3866 193.7219
" />
<path d="M205.3866 193.7219
L205.4580 193.6505
" />
<path d="M205.4580 193.6505
L205.4580 193.7933
" />
<path d="M205.4580 192.8648
L205.5295 192.9362
" />
<path d="M205.5295 192.9362
L205.4580 193.0076
" />
<path d="M205.4580 193.0076
L205.3866 192.9362
" />
<path d="M205.3866 192.9362
L205.4580 192.8648
" />
<path d="M205.4580 192.8648
L205.4580 193.0076
" />
</g></g>
<g style="fill:none; 
stroke:#000000; stroke-width:0.1500; stroke-opacity:1; 
stroke-linecap:round; stroke-linejoin:round;">
<path d="M177.0022 194.5072
L285.0022 194.5072
" />
</g>
<g style="fill:none; 
stroke:#000000; stroke-width:0.1500; stroke-opacity:1; 
stroke-linecap:round; stroke-linejoin:round;">
<text x="178.0022" y="196.6572"
textLength="20.8643" font-size="2.0000" lengthAdjust="spacingAndGlyphs"
text-anchor="start" opacity="0">KiCad E.D.A. 8.0.1</text>
<g class="stroked-text"><desc>KiCad E.D.A. 8.0.1</desc>
<path d="M178.4580 196.5933
L178.4580 195.0933
" />
<path d="M179.3152 196.5933
L178.6723 195.7362
" />
<path d="M179.3152 195.0933
L178.4580 195.9505
" />
<path d="M179.9580 196.5933
L179.9580 195.5933
" />
<path d="M179.9580 195.0933
L179.8866 195.1648
" />
<path d="M179.8866 195.1648
L179.9580 195.2362
" />
<path d="M179.9580 195.2362
L180.0295 195.1648
" />
<path d="M180.0295 195.1648
L179.9580 195.0933
" />
<path d="M179.9580 195.0933
L179.9580 195.2362
" />
<path d="M181.5295 196.4505
L181.4580 196.5219
" />
<path d="M181.4580 196.5219
L181.2437 196.5933
" />
<path d="M181.2437 196.5933
L181.1009 196.5933
" />
<path d="M181.1009 196.5933
L180.8866 196.5219
" />
<path d="M180.8866 196.5219
L180.7437 196.3790
" />
<path d="M180.7437 196.3790
L180.6723 196.2362
" />
<path d="M180.6723 196.2362
L180.6009 195.9505
" />
<path d="M180.6009 195.9505
L180.6009 195.7362
" />
<path d="M180.6009 195.7362
L180.6723 195.4505
" />
<path d="M180.6723 195.4505
L180.7437 195.3076
" />
<path d="M180.7437 195.3076
L180.8866 195.1648
" />
<path d="M180.8866 195.1648
L181.1009 195.0933
" />
<path d="M181.1009 195.0933
L181.2437 195.0933
" />
<path d="M181.2437 195.0933
L181.4580 195.1648
" />
<path d="M181.4580 195.1648
L181.5295 195.2362
" />
<path d="M182.8152 196.5933
L182.8152 195.8076
" />
<path d="M182.8152 195.8076
L182.7437 195.6648
" />
<path d="M182.7437 195.6648
L182.6009 195.5933
" />
<path d="M182.6009 195.5933
L182.3152 195.5933
" />
<path d="M182.3152 195.5933
L182.1723 195.6648
" />
<path d="M182.8152 196.5219
L182.6723 196.5933
" />
<path d="M182.6723 196.5933
L182.3152 196.5933
" />
<path d="M182.3152 196.5933
L182.1723 196.5219
" />
<path d="M182.1723 196.5219
L182.1009 196.3790
" />
<path d="M182.1009 196.3790
L182.1009 196.2362
" />
<path d="M182.1009 196.2362
L182.1723 196.0933
" />
<path d="M182.1723 196.0933
L182.3152 196.0219
" />
<path d="M182.3152 196.0219
L182.6723 196.0219
" />
<path d="M182.6723 196.0219
L182.8152 195.9505
" />
<path d="M184.1723 196.5933
L184.1723 195.0933
" />
<path d="M184.1723 196.5219
L184.0295 196.5933
" />
<path d="M184.0295 196.5933
L183.7437 196.5933
" />
<path d="M183.7437 196.5933
L183.6009 196.5219
" />
<path d="M183.6009 196.5219
L183.5295 196.4505
" />
<path d="M183.5295 196.4505
L183.4580 196.3076
" />
<path d="M183.4580 196.3076
L183.4580 195.8790
" />
<path d="M183.4580 195.8790
L183.5295 195.7362
" />
<path d="M183.5295 195.7362
L183.6009 195.6648
" />
<path d="M183.6009 195.6648
L183.7437 195.5933
" />
<path d="M183.7437 195.5933
L184.0295 195.5933
" />
<path d="M184.0295 195.5933
L184.1723 195.6648
" />
<path d="M186.0295 195.8076
L186.5295 195.8076
" />
<path d="M186.7437 196.5933
L186.0295 196.5933
" />
<path d="M186.0295 196.5933
L186.0295 195.0933
" />
<path d="M186.0295 195.0933
L186.7437 195.0933
" />
<path d="M187.3866 196.4505
L187.4580 196.5219
" />
<path d="M187.4580 196.5219
L187.3866 196.5933
" />
<path d="M187.3866 196.5933
L187.3152 196.5219
" />
<path d="M187.3152 196.5219
L187.3866 196.4505
" />
<path d="M187.3866 196.4505
L187.3866 196.5933
" />
<path d="M188.1009 196.5933
L188.1009 195.0933
" />
<path d="M188.1009 195.0933
L188.4580 195.0933
" />
<path d="M188.4580 195.0933
L188.6723 195.1648
" />
<path d="M188.6723 195.1648
L188.8152 195.3076
" />
<path d="M188.8152 195.3076
L188.8866 195.4505
" />
<path d="M188.8866 195.4505
L188.9580 195.7362
" />
<path d="M188.9580 195.7362
L188.9580 195.9505
" />
<path d="M188.9580 195.9505
L188.8866 196.2362
" />
<path d="M188.8866 196.2362
L188.8152 196.3790
" />
<path d="M188.8152 196.3790
L188.6723 196.5219
" />
<path d="M188.6723 196.5219
L188.4580 196.5933
" />
<path d="M188.4580 196.5933
L188.1009 196.5933
" />
<path d="M189.6009 196.4505
L189.6723 196.5219
" />
<path d="M189.6723 196.5219
L189.6009 196.5933
" />
<path d="M189.6009 196.5933
L189.5295 196.5219
" />
<path d="M189.5295 196.5219
L189.6009 196.4505
" />
<path d="M189.6009 196.4505
L189.6009 196.5933
" />
<path d="M190.2437 196.1648
L190.9580 196.1648
" />
<path d="M190.1009 196.5933
L190.6009 195.0933
" />
<path d="M190.6009 195.0933
L191.1009 196.5933
" />
<path d="M191.6009 196.4505
L191.6723 196.5219
" />
<path d="M191.6723 196.5219
L191.6009 196.5933
" />
<path d="M191.6009 196.5933
L191.5295 196.5219
" />
<path d="M191.5295 196.5219
L191.6009 196.4505
" />
<path d="M191.6009 196.4505
L191.6009 196.5933
" />
<path d="M193.6723 195.7362
L193.5295 195.6648
" />
<path d="M193.5295 195.6648
L193.4580 195.5933
" />
<path d="M193.4580 195.5933
L193.3866 195.4505
" />
<path d="M193.3866 195.4505
L193.3866 195.3790
" />
<path d="M193.3866 195.3790
L193.4580 195.2362
" />
<path d="M193.4580 195.2362
L193.5295 195.1648
" />
<path d="M193.5295 195.1648
L193.6723 195.0933
" />
<path d="M193.6723 195.0933
L193.9580 195.0933
" />
<path d="M193.9580 195.0933
L194.1009 195.1648
" />
<path d="M194.1009 195.1648
L194.1723 195.2362
" />
<path d="M194.1723 195.2362
L194.2437 195.3790
" />
<path d="M194.2437 195.3790
L194.2437 195.4505
" />
<path d="M194.2437 195.4505
L194.1723 195.5933
" />
<path d="M194.1723 195.5933
L194.1009 195.6648
" />
<path d="M194.1009 195.6648
L193.9580 195.7362
" />
<path d="M193.9580 195.7362
L193.6723 195.7362
" />
<path d="M193.6723 195.7362
L193.5295 195.8076
" />
<path d="M193.5295 195.8076
L193.4580 195.8790
" />
<path d="M193.4580 195.8790
L193.3866 196.0219
" />
<path d="M193.3866 196.0219
L193.3866 196.3076
" />
<path d="M193.3866 196.3076
L193.4580 196.4505
" />
<path d="M193.4580 196.4505
L193.5295 196.5219
" />
<path d="M193.5295 196.5219
L193.6723 196.5933
" />
<path d="M193.6723 196.5933
L193.9580 196.5933
" />
<path d="M193.9580 196.5933
L194.1009 196.5219
" />
<path d="M194.1009 196.5219
L194.1723 196.4505
" />
<path d="M194.1723 196.4505
L194.2437 196.3076
" />
<path d="M194.2437 196.3076
L194.2437 196.0219
" />
<path d="M194.2437 196.0219
L194.1723 195.8790
" />
<path d="M194.1723 195.8790
L194.1009 195.8076
" />
<path d="M194.1009 195.8076
L193.9580 195.7362
" />
<path d="M194.8866 196.4505
L194.9580 196.5219
" />
<path d="M194.9580 196.5219
L194.8866 196.5933
" />
<path d="M194.8866 196.5933
L194.8152 196.5219
" />
<path d="M194.8152 196.5219
L194.8866 196.4505
" />
<path d="M194.8866 196.4505
L194.8866 196.5933
" />
<path d="M195.8866 195.0933
L196.0295 195.0933
" />
<path d="M196.0295 195.0933
L196.1723 195.1648
" />
<path d="M196.1723 195.1648
L196.2437 195.2362
" />
<path d="M196.2437 195.2362
L196.3152 195.3790
" />
<path d="M196.3152 195.3790
L196.3866 195.6648
" />
<path d="M196.3866 195.6648
L196.3866 196.0219
" />
<path d="M196.3866 196.0219
L196.3152 196.3076
" />
<path d="M196.3152 196.3076
L196.2437 196.4505
" />
<path d="M196.2437 196.4505
L196.1723 196.5219
" />
<path d="M196.1723 196.5219
L196.0295 196.5933
" />
<path d="M196.0295 196.5933
L195.8866 196.5933
" />
<path d="M195.8866 196.5933
L195.7437 196.5219
" />
<path d="M195.7437 196.5219
L195.6723 196.4505
" />
<path d="M195.6723 196.4505
L195.6009 196.3076
" />
<path d="M195.6009 196.3076
L195.5295 196.0219
" />
<path d="M195.5295 196.0219
L195.5295 195.6648
" />
<path d="M195.5295 195.6648
L195.6009 195.3790
" />
<path d="M195.6009 195.3790
L195.6723 195.2362
" />
<path d="M195.6723 195.2362
L195.7437 195.1648
" />
<path d="M195.7437 195.1648
L195.8866 195.0933
" />
<path d="M197.0295 196.4505
L197.1009 196.5219
" />
<path d="M197.1009 196.5219
L197.0295 196.5933
" />
<path d="M197.0295 196.5933
L196.9580 196.5219
" />
<path d="M196.9580 196.5219
L197.0295 196.4505
" />
<path d="M197.0295 196.4505
L197.0295 196.5933
" />
<path d="M198.5295 196.5933
L197.6723 196.5933
" />
<path d="M198.1009 196.5933
L198.1009 195.0933
" />
<path d="M198.1009 195.0933
L197.9580 195.3076
" />
<path d="M197.9580 195.3076
L197.8152 195.4505
" />
<path d="M197.8152 195.4505
L197.6723 195.5219
" />
</g></g>
<g style="fill:none; 
stroke:#000000; stroke-width:0.1500; stroke-opacity:1; 
stroke-linecap:round; stroke-linejoin:round;">
<path d="M177.0022 191.5072
L285.0022 191.5072
" />
</g>
<g style="fill:none; 
stroke:#000000; stroke-width:0.3000; stroke-opacity:1; 
stroke-linecap:round; stroke-linejoin:round;">
<text x="263.0022" y="193.8572"
textLength="6.3857" font-size="2.0000" lengthAdjust="spacingAndGlyphs"
text-anchor="start" opacity="0">Rev: </text>
<g class="stroked-text"><desc>Rev: </desc>
<path d="M264.4139 193.7855
L263.9139 193.0712
" />
<path d="M263.5567 193.7855
L263.5567 192.2855
" />
<path d="M263.5567 192.2855
L264.1281 192.2855
" />
<path d="M264.1281 192.2855
L264.2710 192.3570
" />
<path d="M264.2710 192.3570
L264.3424 192.4284
" />
<path d="M264.3424 192.4284
L264.4139 192.5712
" />
<path d="M264.4139 192.5712
L264.4139 192.7855
" />
<path d="M264.4139 192.7855
L264.3424 192.9284
" />
<path d="M264.3424 192.9284
L264.2710 192.9998
" />
<path d="M264.2710 192.9998
L264.1281 193.0712
" />
<path d="M264.1281 193.0712
L263.5567 193.0712
" />
<path d="M265.6281 193.7141
L265.4853 193.7855
" />
<path d="M265.4853 193.7855
L265.1996 193.7855
" />
<path d="M265.1996 193.7855
L265.0567 193.7141
" />
<path d="M265.0567 193.7141
L264.9853 193.5712
" />
<path d="M264.9853 193.5712
L264.9853 192.9998
" />
<path d="M264.9853 192.9998
L265.0567 192.8570
" />
<path d="M265.0567 192.8570
L265.1996 192.7855
" />
<path d="M265.1996 192.7855
L265.4853 192.7855
" />
<path d="M265.4853 192.7855
L265.6281 192.8570
" />
<path d="M265.6281 192.8570
L265.6996 192.9998
" />
<path d="M265.6996 192.9998
L265.6996 193.1427
" />
<path d="M265.6996 193.1427
L264.9853 193.2855
" />
<path d="M266.1996 192.7855
L266.5567 193.7855
" />
<path d="M266.5567 193.7855
L266.9139 192.7855
" />
<path d="M267.4853 193.6427
L267.5567 193.7141
" />
<path d="M267.5567 193.7141
L267.4853 193.7855
" />
<path d="M267.4853 193.7855
L267.4139 193.7141
" />
<path d="M267.4139 193.7141
L267.4853 193.6427
" />
<path d="M267.4853 193.6427
L267.4853 193.7855
" />
<path d="M267.4853 192.8570
L267.5567 192.9284
" />
<path d="M267.5567 192.9284
L267.4853 192.9998
" />
<path d="M267.4853 192.9998
L267.4139 192.9284
" />
<path d="M267.4139 192.9284
L267.4853 192.8570
" />
<path d="M267.4853 192.8570
L267.4853 192.9998
" />
</g></g>
<g style="fill:none; 
stroke:#000000; stroke-width:0.1500; stroke-opacity:1; 
stroke-linecap:round; stroke-linejoin:round;">
<text x="178.0022" y="193.8572"
textLength="9.3643" font-size="2.0000" lengthAdjust="spacingAndGlyphs"
text-anchor="start" opacity="0">Size: A4</text>
<g class="stroked-text"><desc>Size: A4</desc>
<path d="M178.3866 193.7219
L178.6009 193.7933
" />
<path d="M178.6009 193.7933
L178.9580 193.7933
" />
<path d="M178.9580 193.7933
L179.1009 193.7219
" />
<path d="M179.1009 193.7219
L179.1723 193.6505
" />
<path d="M179.1723 193.6505
L179.2437 193.5076
" />
<path d="M179.2437 193.5076
L179.2437 193.3648
" />
<path d="M179.2437 193.3648
L179.1723 193.2219
" />
<path d="M179.1723 193.2219
L179.1009 193.1505
" />
<path d="M179.1009 193.1505
L178.9580 193.0790
" />
<path d="M178.9580 193.0790
L178.6723 193.0076
" />
<path d="M178.6723 193.0076
L178.5295 192.9362
" />
<path d="M178.5295 192.9362
L178.4580 192.8648
" />
<path d="M178.4580 192.8648
L178.3866 192.7219
" />
<path d="M178.3866 192.7219
L178.3866 192.5790
" />
<path d="M178.3866 192.5790
L178.4580 192.4362
" />
<path d="M178.4580 192.4362
L178.5295 192.3648
" />
<path d="M178.5295 192.3648
L178.6723 192.2933
" />
<path d="M178.6723 192.2933
L179.0295 192.2933
" />
<path d="M179.0295 192.2933
L179.2437 192.3648
" />
<path d="M179.8866 193.7933
L179.8866 192.7933
" />
<path d="M179.8866 192.2933
L179.8152 192.3648
" />
<path d="M179.8152 192.3648
L179.8866 192.4362
" />
<path d="M179.8866 192.4362
L179.9580 192.3648
" />
<path d="M179.9580 192.3648
L179.8866 192.2933
" />
<path d="M179.8866 192.2933
L179.8866 192.4362
" />
<path d="M180.4580 192.7933
L181.2437 192.7933
" />
<path d="M181.2437 192.7933
L180.4580 193.7933
" />
<path d="M180.4580 193.7933
L181.2437 193.7933
" />
<path d="M182.3866 193.7219
L182.2437 193.7933
" />
<path d="M182.2437 193.7933
L181.9580 193.7933
" />
<path d="M181.9580 193.7933
L181.8152 193.7219
" />
<path d="M181.8152 193.7219
L181.7437 193.5790
" />
<path d="M181.7437 193.5790
L181.7437 193.0076
" />
<path d="M181.7437 193.0076
L181.8152 192.8648
" />
<path d="M181.8152 192.8648
L181.9580 192.7933
" />
<path d="M181.9580 192.7933
L182.2437 192.7933
" />
<path d="M182.2437 192.7933
L182.3866 192.8648
" />
<path d="M182.3866 192.8648
L182.4580 193.0076
" />
<path d="M182.4580 193.0076
L182.4580 193.1505
" />
<path d="M182.4580 193.1505
L181.7437 193.2933
" />
<path d="M183.1009 193.6505
L183.1723 193.7219
" />
<path d="M183.1723 193.7219
L183.1009 193.7933
" />
<path d="M183.1009 193.7933
L183.0295 193.7219
" />
<path d="M183.0295 193.7219
L183.1009 193.6505
" />
<path d="M183.1009 193.6505
L183.1009 193.7933
" />
<path d="M183.1009 192.8648
L183.1723 192.9362
" />
<path d="M183.1723 192.9362
L183.1009 193.0076
" />
<path d="M183.1009 193.0076
L183.0295 192.9362
" />
<path d="M183.0295 192.9362
L183.1009 192.8648
" />
<path d="M183.1009 192.8648
L183.1009 193.0076
" />
<path d="M184.8866 193.3648
L185.6009 193.3648
" />
<path d="M184.7437 193.7933
L185.2437 192.2933
" />
<path d="M185.2437 192.2933
L185.7437 193.7933
" />
<path d="M186.8866 192.7933
L186.8866 193.7933
" />
<path d="M186.5295 192.2219
L186.1723 193.2933
" />
<path d="M186.1723 193.2933
L187.1009 193.2933
" />
</g></g>
<g style="fill:none; 
stroke:#000000; stroke-width:0.1500; stroke-opacity:1; 
stroke-linecap:round; stroke-linejoin:round;">
<text x="263.0022" y="196.6572"
textLength="8.5071" font-size="2.0000" lengthAdjust="spacingAndGlyphs"
text-anchor="start" opacity="0">Id: 1/1</text>
<g class="stroked-text"><desc>Id: 1/1</desc>
<path d="M263.4580 196.5933
L263.4580 195.0933
" />
<path d="M264.8152 196.5933
L264.8152 195.0933
" />
<path d="M264.8152 196.5219
L264.6723 196.5933
" />
<path d="M264.6723 196.5933
L264.3866 196.5933
" />
<path d="M264.3866 196.5933
L264.2437 196.5219
" />
<path d="M264.2437 196.5219
L264.1723 196.4505
" />
<path d="M264.1723 196.4505
L264.1009 196.3076
" />
<path d="M264.1009 196.3076
L264.1009 195.8790
" />
<path d="M264.1009 195.8790
L264.1723 195.7362
" />
<path d="M264.1723 195.7362
L264.2437 195.6648
" />
<path d="M264.2437 195.6648
L264.3866 195.5933
" />
<path d="M264.3866 195.5933
L264.6723 195.5933
" />
<path d="M264.6723 195.5933
L264.8152 195.6648
" />
<path d="M265.5295 196.4505
L265.6009 196.5219
" />
<path d="M265.6009 196.5219
L265.5295 196.5933
" />
<path d="M265.5295 196.5933
L265.4580 196.5219
" />
<path d="M265.4580 196.5219
L265.5295 196.4505
" />
<path d="M265.5295 196.4505
L265.5295 196.5933
" />
<path d="M265.5295 195.6648
L265.6009 195.7362
" />
<path d="M265.6009 195.7362
L265.5295 195.8076
" />
<path d="M265.5295 195.8076
L265.4580 195.7362
" />
<path d="M265.4580 195.7362
L265.5295 195.6648
" />
<path d="M265.5295 195.6648
L265.5295 195.8076
" />
<path d="M268.1723 196.5933
L267.3152 196.5933
" />
<path d="M267.7437 196.5933
L267.7437 195.0933
" />
<path d="M267.7437 195.0933
L267.6009 195.3076
" />
<path d="M267.6009 195.3076
L267.4580 195.4505
" />
<path d="M267.4580 195.4505
L267.3152 195.5219
" />
<path d="M269.8866 195.0219
L268.6009 196.9505
" />
<path d="M271.1723 196.5933
L270.3152 196.5933
" />
<path d="M270.7437 196.5933
L270.7437 195.0933
" />
<path d="M270.7437 195.0933
L270.6009 195.3076
" />
<path d="M270.6009 195.3076
L270.4580 195.4505
" />
<path d="M270.4580 195.4505
L270.3152 195.5219
" />
</g></g>
<g style="fill:none; 
stroke:#000000; stroke-width:0.1500; stroke-opacity:1; 
stroke-linecap:round; stroke-linejoin:round;">
<path d="M177.0022 187.5072
L285.0022 187.5072
" />
</g>
<g style="fill:none; 
stroke:#000000; stroke-width:0.4000; stroke-opacity:1; 
stroke-linecap:round; stroke-linejoin:round;">
<text x="178.0022" y="190.3072"
textLength="9.6571" font-size="2.6667" lengthAdjust="spacingAndGlyphs"
text-anchor="start" opacity="0">Title: </text>
<g class="stroked-text"><desc>Title: </desc>
<path d="M178.6939 188.2116
L179.8368 188.2116
" />
<path d="M179.0154 190.2116
L179.2654 188.2116
" />
<path d="M180.2535 190.2116
L180.4201 188.8783
" />
<path d="M180.5035 188.2116
L180.3963 188.3069
" />
<path d="M180.3963 188.3069
L180.4796 188.4021
" />
<path d="M180.4796 188.4021
L180.5868 188.3069
" />
<path d="M180.5868 188.3069
L180.5035 188.2116
" />
<path d="M180.5035 188.2116
L180.4796 188.4021
" />
<path d="M181.0868 188.8783
L181.8487 188.8783
" />
<path d="M181.4558 188.2116
L181.2415 189.9259
" />
<path d="M181.2415 189.9259
L181.3130 190.1164
" />
<path d="M181.3130 190.1164
L181.4915 190.2116
" />
<path d="M181.4915 190.2116
L181.6820 190.2116
" />
<path d="M182.6344 190.2116
L182.4558 190.1164
" />
<path d="M182.4558 190.1164
L182.3844 189.9259
" />
<path d="M182.3844 189.9259
L182.5987 188.2116
" />
<path d="M184.1701 190.1164
L183.9677 190.2116
" />
<path d="M183.9677 190.2116
L183.5868 190.2116
" />
<path d="M183.5868 190.2116
L183.4082 190.1164
" />
<path d="M183.4082 190.1164
L183.3368 189.9259
" />
<path d="M183.3368 189.9259
L183.4320 189.1640
" />
<path d="M183.4320 189.1640
L183.5511 188.9735
" />
<path d="M183.5511 188.9735
L183.7535 188.8783
" />
<path d="M183.7535 188.8783
L184.1344 188.8783
" />
<path d="M184.1344 188.8783
L184.3130 188.9735
" />
<path d="M184.3130 188.9735
L184.3844 189.1640
" />
<path d="M184.3844 189.1640
L184.3606 189.3545
" />
<path d="M184.3606 189.3545
L183.3844 189.5450
" />
<path d="M185.1344 190.0212
L185.2177 190.1164
" />
<path d="M185.2177 190.1164
L185.1106 190.2116
" />
<path d="M185.1106 190.2116
L185.0273 190.1164
" />
<path d="M185.0273 190.1164
L185.1344 190.0212
" />
<path d="M185.1344 190.0212
L185.1106 190.2116
" />
<path d="M185.2654 188.9735
L185.3487 189.0688
" />
<path d="M185.3487 189.0688
L185.2415 189.1640
" />
<path d="M185.2415 189.1640
L185.1582 189.0688
" />
<path d="M185.1582 189.0688
L185.2654 188.9735
" />
<path d="M185.2654 188.9735
L185.2415 189.1640
" />
</g></g>
<g style="fill:none; 
stroke:#000000; stroke-width:0.1500; stroke-opacity:1; 
stroke-linecap:round; stroke-linejoin:round;">
<text x="178.0022" y="186.4572"
textLength="29.0786" font-size="2.0000" lengthAdjust="spacingAndGlyphs"
text-anchor="start" opacity="0">File: lazyboy36.kicad_pcb</text>
<g class="stroked-text"><desc>File: lazyboy36.kicad_pcb</desc>
<path d="M178.9580 185.6076
L178.4580 185.6076
" />
<path d="M178.4580 186.3933
L178.4580 184.8933
" />
<path d="M178.4580 184.8933
L179.1723 184.8933
" />
<path d="M179.7437 186.3933
L179.7437 185.3933
" />
<path d="M179.7437 184.8933
L179.6723 184.9648
" />
<path d="M179.6723 184.9648
L179.7437 185.0362
" />
<path d="M179.7437 185.0362
L179.8152 184.9648
" />
<path d="M179.8152 184.9648
L179.7437 184.8933
" />
<path d="M179.7437 184.8933
L179.7437 185.0362
" />
<path d="M180.6723 186.3933
L180.5295 186.3219
" />
<path d="M180.5295 186.3219
L180.4580 186.1790
" />
<path d="M180.4580 186.1790
L180.4580 184.8933
" />
<path d="M181.8152 186.3219
L181.6723 186.3933
" />
<path d="M181.6723 186.3933
L181.3866 186.3933
" />
<path d="M181.3866 186.3933
L181.2437 186.3219
" />
<path d="M181.2437 186.3219
L181.1723 186.1790
" />
<path d="M181.1723 186.1790
L181.1723 185.6076
" />
<path d="M181.1723 185.6076
L181.2437 185.4648
" />
<path d="M181.2437 185.4648
L181.3866 185.3933
" />
<path d="M181.3866 185.3933
L181.6723 185.3933
" />
<path d="M181.6723 185.3933
L181.8152 185.4648
" />
<path d="M181.8152 185.4648
L181.8866 185.6076
" />
<path d="M181.8866 185.6076
L181.8866 185.7505
" />
<path d="M181.8866 185.7505
L181.1723 185.8933
" />
<path d="M182.5295 186.2505
L182.6009 186.3219
" />
<path d="M182.6009 186.3219
L182.5295 186.3933
" />
<path d="M182.5295 186.3933
L182.4580 186.3219
" />
<path d="M182.4580 186.3219
L182.5295 186.2505
" />
<path d="M182.5295 186.2505
L182.5295 186.3933
" />
<path d="M182.5295 185.4648
L182.6009 185.5362
" />
<path d="M182.6009 185.5362
L182.5295 185.6076
" />
<path d="M182.5295 185.6076
L182.4580 185.5362
" />
<path d="M182.4580 185.5362
L182.5295 185.4648
" />
<path d="M182.5295 185.4648
L182.5295 185.6076
" />
<path d="M184.6009 186.3933
L184.4580 186.3219
" />
<path d="M184.4580 186.3219
L184.3866 186.1790
" />
<path d="M184.3866 186.1790
L184.3866 184.8933
" />
<path d="M185.8152 186.3933
L185.8152 185.6076
" />
<path d="M185.8152 185.6076
L185.7437 185.4648
" />
<path d="M185.7437 185.4648
L185.6009 185.3933
" />
<path d="M185.6009 185.3933
L185.3152 185.3933
" />
<path d="M185.3152 185.3933
L185.1723 185.4648
" />
<path d="M185.8152 186.3219
L185.6723 186.3933
" />
<path d="M185.6723 186.3933
L185.3152 186.3933
" />
<path d="M185.3152 186.3933
L185.1723 186.3219
" />
<path d="M185.1723 186.3219
L185.1009 186.1790
" />
<path d="M185.1009 186.1790
L185.1009 186.0362
" />
<path d="M185.1009 186.0362
L185.1723 185.8933
" />
<path d="M185.1723 185.8933
L185.3152 185.8219
" />
<path d="M185.3152 185.8219
L185.6723 185.8219
" />
<path d="M185.6723 185.8219
L185.8152 185.7505
" />
<path d="M186.3866 185.3933
L187.1723 185.3933
" />
<path d="M187.1723 185.3933
L186.3866 186.3933
" />
<path d="M186.3866 186.3933
L187.1723 186.3933
" />
<path d="M187.6009 185.3933
L187.9580 186.3933
" />
<path d="M188.3152 185.3933
L187.9580 186.3933
" />
<path d="M187.9580 186.3933
L187.8152 186.7505
" />
<path d="M187.8152 186.7505
L187.7437 186.8219
" />
<path d="M187.7437 186.8219
L187.6009 186.8933
" />
<path d="M188.8866 186.3933
L188.8866 184.8933
" />
<path d="M188.8866 185.4648
L189.0295 185.3933
" />
<path d="M189.0295 185.3933
L189.3152 185.3933
" />
<path d="M189.3152 185.3933
L189.4580 185.4648
" />
<path d="M189.4580 185.4648
L189.5295 185.5362
" />
<path d="M189.5295 185.5362
L189.6009 185.6790
" />
<path d="M189.6009 185.6790
L189.6009 186.1076
" />
<path d="M189.6009 186.1076
L189.5295 186.2505
" />
<path d="M189.5295 186.2505
L189.4580 186.3219
" />
<path d="M189.4580 186.3219
L189.3152 186.3933
" />
<path d="M189.3152 186.3933
L189.0295 186.3933
" />
<path d="M189.0295 186.3933
L188.8866 186.3219
" />
<path d="M190.4580 186.3933
L190.3152 186.3219
" />
<path d="M190.3152 186.3219
L190.2437 186.2505
" />
<path d="M190.2437 186.2505
L190.1723 186.1076
" />
<path d="M190.1723 186.1076
L190.1723 185.6790
" />
<path d="M190.1723 185.6790
L190.2437 185.5362
" />
<path d="M190.2437 185.5362
L190.3152 185.4648
" />
<path d="M190.3152 185.4648
L190.4580 185.3933
" />
<path d="M190.4580 185.3933
L190.6723 185.3933
" />
<path d="M190.6723 185.3933
L190.8152 185.4648
" />
<path d="M190.8152 185.4648
L190.8866 185.5362
" />
<path d="M190.8866 185.5362
L190.9580 185.6790
" />
<path d="M190.9580 185.6790
L190.9580 186.1076
" />
<path d="M190.9580 186.1076
L190.8866 186.2505
" />
<path d="M190.8866 186.2505
L190.8152 186.3219
" />
<path d="M190.8152 186.3219
L190.6723 186.3933
" />
<path d="M190.6723 186.3933
L190.4580 186.3933
" />
<path d="M191.4580 185.3933
L191.8152 186.3933
" />
<path d="M192.1723 185.3933
L191.8152 186.3933
" />
<path d="M191.8152 186.3933
L191.6723 186.7505
" />
<path d="M191.6723 186.7505
L191.6009 186.8219
" />
<path d="M191.6009 186.8219
L191.4580 186.8933
" />
<path d="M192.6009 184.8933
L193.5295 184.8933
" />
<path d="M193.5295 184.8933
L193.0295 185.4648
" />
<path d="M193.0295 185.4648
L193.2437 185.4648
" />
<path d="M193.2437 185.4648
L193.3866 185.5362
" />
<path d="M193.3866 185.5362
L193.4580 185.6076
" />
<path d="M193.4580 185.6076
L193.5295 185.7505
" />
<path d="M193.5295 185.7505
L193.5295 186.1076
" />
<path d="M193.5295 186.1076
L193.4580 186.2505
" />
<path d="M193.4580 186.2505
L193.3866 186.3219
" />
<path d="M193.3866 186.3219
L193.2437 186.3933
" />
<path d="M193.2437 186.3933
L192.8152 186.3933
" />
<path d="M192.8152 186.3933
L192.6723 186.3219
" />
<path d="M192.6723 186.3219
L192.6009 186.2505
" />
<path d="M194.8152 184.8933
L194.5295 184.8933
" />
<path d="M194.5295 184.8933
L194.3866 184.9648
" />
<path d="M194.3866 184.9648
L194.3152 185.0362
" />
<path d="M194.3152 185.0362
L194.1723 185.2505
" />
<path d="M194.1723 185.2505
L194.1009 185.5362
" />
<path d="M194.1009 185.5362
L194.1009 186.1076
" />
<path d="M194.1009 186.1076
L194.1723 186.2505
" />
<path d="M194.1723 186.2505
L194.2437 186.3219
" />
<path d="M194.2437 186.3219
L194.3866 186.3933
" />
<path d="M194.3866 186.3933
L194.6723 186.3933
" />
<path d="M194.6723 186.3933
L194.8152 186.3219
" />
<path d="M194.8152 186.3219
L194.8866 186.2505
" />
<path d="M194.8866 186.2505
L194.9580 186.1076
" />
<path d="M194.9580 186.1076
L194.9580 185.7505
" />
<path d="M194.9580 185.7505
L194.8866 185.6076
" />
<path d="M194.8866 185.6076
L194.8152 185.5362
" />
<path d="M194.8152 185.5362
L194.6723 185.4648
" />
<path d="M194.6723 185.4648
L194.3866 185.4648
" />
<path d="M194.3866 185.4648
L194.2437 185.5362
" />
<path d="M194.2437 185.5362
L194.1723 185.6076
" />
<path d="M194.1723 185.6076
L194.1009 185.7505
" />
<path d="M195.6009 186.2505
L195.6723 186.3219
" />
<path d="M195.6723 186.3219
L195.6009 186.3933
" />
<path d="M195.6009 186.3933
L195.5295 186.3219
" />
<path d="M195.5295 186.3219
L195.6009 186.2505
" />
<path d="M195.6009 186.2505
L195.6009 186.3933
" />
<path d="M196.3152 186.3933
L196.3152 184.8933
" />
<path d="M196.4580 185.8219
L196.8866 186.3933
" />
<path d="M196.8866 185.3933
L196.3152 185.9648
" />
<path d="M197.5295 186.3933
L197.5295 185.3933
" />
<path d="M197.5295 184.8933
L197.4580 184.9648
" />
<path d="M197.4580 184.9648
L197.5295 185.0362
" />
<path d="M197.5295 185.0362
L197.6009 184.9648
" />
<path d="M197.6009 184.9648
L197.5295 184.8933
" />
<path d="M197.5295 184.8933
L197.5295 185.0362
" />
<path d="M198.8866 186.3219
L198.7437 186.3933
" />
<path d="M198.7437 186.3933
L198.4580 186.3933
" />
<path d="M198.4580 186.3933
L198.3152 186.3219
" />
<path d="M198.3152 186.3219
L198.2437 186.2505
" />
<path d="M198.2437 186.2505
L198.1723 186.1076
" />
<path d="M198.1723 186.1076
L198.1723 185.6790
" />
<path d="M198.1723 185.6790
L198.2437 185.5362
" />
<path d="M198.2437 185.5362
L198.3152 185.4648
" />
<path d="M198.3152 185.4648
L198.4580 185.3933
" />
<path d="M198.4580 185.3933
L198.7437 185.3933
" />
<path d="M198.7437 185.3933
L198.8866 185.4648
" />
<path d="M200.1723 186.3933
L200.1723 185.6076
" />
<path d="M200.1723 185.6076
L200.1009 185.4648
" />
<path d="M200.1009 185.4648
L199.9580 185.3933
" />
<path d="M199.9580 185.3933
L199.6723 185.3933
" />
<path d="M199.6723 185.3933
L199.5295 185.4648
" />
<path d="M200.1723 186.3219
L200.0295 186.3933
" />
<path d="M200.0295 186.3933
L199.6723 186.3933
" />
<path d="M199.6723 186.3933
L199.5295 186.3219
" />
<path d="M199.5295 186.3219
L199.4580 186.1790
" />
<path d="M199.4580 186.1790
L199.4580 186.0362
" />
<path d="M199.4580 186.0362
L199.5295 185.8933
" />
<path d="M199.5295 185.8933
L199.6723 185.8219
" />
<path d="M199.6723 185.8219
L200.0295 185.8219
" />
<path d="M200.0295 185.8219
L200.1723 185.7505
" />
<path d="M201.5295 186.3933
L201.5295 184.8933
" />
<path d="M201.5295 186.3219
L201.3866 186.3933
" />
<path d="M201.3866 186.3933
L201.1009 186.3933
" />
<path d="M201.1009 186.3933
L200.9580 186.3219
" />
<path d="M200.9580 186.3219
L200.8866 186.2505
" />
<path d="M200.8866 186.2505
L200.8152 186.1076
" />
<path d="M200.8152 186.1076
L200.8152 185.6790
" />
<path d="M200.8152 185.6790
L200.8866 185.5362
" />
<path d="M200.8866 185.5362
L200.9580 185.4648
" />
<path d="M200.9580 185.4648
L201.1009 185.3933
" />
<path d="M201.1009 185.3933
L201.3866 185.3933
" />
<path d="M201.3866 185.3933
L201.5295 185.4648
" />
<path d="M201.8866 186.5362
L203.0295 186.5362
" />
<path d="M203.3866 185.3933
L203.3866 186.8933
" />
<path d="M203.3866 185.4648
L203.5295 185.3933
" />
<path d="M203.5295 185.3933
L203.8152 185.3933
" />
<path d="M203.8152 185.3933
L203.9580 185.4648
" />
<path d="M203.9580 185.4648
L204.0295 185.5362
" />
<path d="M204.0295 185.5362
L204.1009 185.6790
" />
<path d="M204.1009 185.6790
L204.1009 186.1076
" />
<path d="M204.1009 186.1076
L204.0295 186.2505
" />
<path d="M204.0295 186.2505
L203.9580 186.3219
" />
<path d="M203.9580 186.3219
L203.8152 186.3933
" />
<path d="M203.8152 186.3933
L203.5295 186.3933
" />
<path d="M203.5295 186.3933
L203.3866 186.3219
" />
<path d="M205.3866 186.3219
L205.2437 186.3933
" />
<path d="M205.2437 186.3933
L204.9580 186.3933
" />
<path d="M204.9580 186.3933
L204.8152 186.3219
" />
<path d="M204.8152 186.3219
L204.7437 186.2505
" />
<path d="M204.7437 186.2505
L204.6723 186.1076
" />
<path d="M204.6723 186.1076
L204.6723 185.6790
" />
<path d="M204.6723 185.6790
L204.7437 185.5362
" />
<path d="M204.7437 185.5362
L204.8152 185.4648
" />
<path d="M204.8152 185.4648
L204.9580 185.3933
" />
<path d="M204.9580 185.3933
L205.2437 185.3933
" />
<path d="M205.2437 185.3933
L205.3866 185.4648
" />
<path d="M206.0295 186.3933
L206.0295 184.8933
" />
<path d="M206.0295 185.4648
L206.1723 185.3933
" />
<path d="M206.1723 185.3933
L206.4580 185.3933
" />
<path d="M206.4580 185.3933
L206.6009 185.4648
" />
<path d="M206.6009 185.4648
L206.6723 185.5362
" />
<path d="M206.6723 185.5362
L206.7437 185.6790
" />
<path d="M206.7437 185.6790
L206.7437 186.1076
" />
<path d="M206.7437 186.1076
L206.6723 186.2505
" />
<path d="M206.6723 186.2505
L206.6009 186.3219
" />
<path d="M206.6009 186.3219
L206.4580 186.3933
" />
<path d="M206.4580 186.3933
L206.1723 186.3933
" />
<path d="M206.1723 186.3933
L206.0295 186.3219
" />
</g></g>
<g style="fill:none; 
stroke:#000000; stroke-width:0.1500; stroke-opacity:1; 
stroke-linecap:round; stroke-linejoin:round;">
<path d="M177.0022 181.5072
L285.0022 181.5072
" />
</g>
<g style="fill:none; 
stroke:#000000; stroke-width:0.1500; stroke-opacity:1; 
stroke-linecap:round; stroke-linejoin:round;">
<text x="178.0022" y="183.7572"
textLength="8.2214" font-size="2.0000" lengthAdjust="spacingAndGlyphs"
text-anchor="start" opacity="0">Sheet: </text>
<g class="stroked-text"><desc>Sheet: </desc>
<path d="M178.3866 183.6219
L178.6009 183.6933
" />
<path d="M178.6009 183.6933
L178.9580 183.6933
" />
<path d="M178.9580 183.6933
L179.1009 183.6219
" />
<path d="M179.1009 183.6219
L179.1723 183.5505
" />
<path d="M179.1723 183.5505
L179.2437 183.4076
" />
<path d="M179.2437 183.4076
L179.2437 183.2648
" />
<path d="M179.2437 183.2648
L179.1723 183.1219
" />
<path d="M179.1723 183.1219
L179.1009 183.0505
" />
<path d="M179.1009 183.0505
L178.9580 182.9790
" />
<path d="M178.9580 182.9790
L178.6723 182.9076
" />
<path d="M178.6723 182.9076
L178.5295 182.8362
" />
<path d="M178.5295 182.8362
L178.4580 182.7648
" />
<path d="M178.4580 182.7648
L178.3866 182.6219
" />
<path d="M178.3866 182.6219
L178.3866 182.4790
" />
<path d="M178.3866 182.4790
L178.4580 182.3362
" />
<path d="M178.4580 182.3362
L178.5295 182.2648
" />
<path d="M178.5295 182.2648
L178.6723 182.1933
" />
<path d="M178.6723 182.1933
L179.0295 182.1933
" />
<path d="M179.0295 182.1933
L179.2437 182.2648
" />
<path d="M179.8866 183.6933
L179.8866 182.1933
" />
<path d="M180.5295 183.6933
L180.5295 182.9076
" />
<path d="M180.5295 182.9076
L180.4580 182.7648
" />
<path d="M180.4580 182.7648
L180.3152 182.6933
" />
<path d="M180.3152 182.6933
L180.1009 182.6933
" />
<path d="M180.1009 182.6933
L179.9580 182.7648
" />
<path d="M179.9580 182.7648
L179.8866 182.8362
" />
<path d="M181.8152 183.6219
L181.6723 183.6933
" />
<path d="M181.6723 183.6933
L181.3866 183.6933
" />
<path d="M181.3866 183.6933
L181.2437 183.6219
" />
<path d="M181.2437 183.6219
L181.1723 183.4790
" />
<path d="M181.1723 183.4790
L181.1723 182.9076
" />
<path d="M181.1723 182.9076
L181.2437 182.7648
" />
<path d="M181.2437 182.7648
L181.3866 182.6933
" />
<path d="M181.3866 182.6933
L181.6723 182.6933
" />
<path d="M181.6723 182.6933
L181.8152 182.7648
" />
<path d="M181.8152 182.7648
L181.8866 182.9076
" />
<path d="M181.8866 182.9076
L181.8866 183.0505
" />
<path d="M181.8866 183.0505
L181.1723 183.1933
" />
<path d="M183.1009 183.6219
L182.9580 183.6933
" />
<path d="M182.9580 183.6933
L182.6723 183.6933
" />
<path d="M182.6723 183.6933
L182.5295 183.6219
" />
<path d="M182.5295 183.6219
L182.4580 183.4790
" />
<path d="M182.4580 183.4790
L182.4580 182.9076
" />
<path d="M182.4580 182.9076
L182.5295 182.7648
" />
<path d="M182.5295 182.7648
L182.6723 182.6933
" />
<path d="M182.6723 182.6933
L182.9580 182.6933
" />
<path d="M182.9580 182.6933
L183.1009 182.7648
" />
<path d="M183.1009 182.7648
L183.1723 182.9076
" />
<path d="M183.1723 182.9076
L183.1723 183.0505
" />
<path d="M183.1723 183.0505
L182.4580 183.1933
" />
<path d="M183.6009 182.6933
L184.1723 182.6933
" />
<path d="M183.8152 182.1933
L183.8152 183.4790
" />
<path d="M183.8152 183.4790
L183.8866 183.6219
" />
<path d="M183.8866 183.6219
L184.0295 183.6933
" />
<path d="M184.0295 183.6933
L184.1723 183.6933
" />
<path d="M184.6723 183.5505
L184.7437 183.6219
" />
<path d="M184.7437 183.6219
L184.6723 183.6933
" />
<path d="M184.6723 183.6933
L184.6009 183.6219
" />
<path d="M184.6009 183.6219
L184.6723 183.5505
" />
<path d="M184.6723 183.5505
L184.6723 183.6933
" />
<path d="M184.6723 182.7648
L184.7437 182.8362
" />
<path d="M184.7437 182.8362
L184.6723 182.9076
" />
<path d="M184.6723 182.9076
L184.6009 182.8362
" />
<path d="M184.6009 182.8362
L184.6723 182.7648
" />
<path d="M184.6723 182.7648
L184.6723 182.9076
" />
</g></g>
<g style="fill:none; 
stroke:#000000; stroke-width:0.3000; stroke-opacity:1; 
stroke-linecap:round; stroke-linejoin:round;">
<text x="178.0022" y="180.7572"
textLength="0.9000" font-size="2.0000" lengthAdjust="spacingAndGlyphs"
text-anchor="start" opacity="0"></text>
<g class="stroked-text"><desc></desc>
</g></g>
<g style="fill:none; 
stroke:#000000; stroke-width:0.1500; stroke-opacity:1; 
stroke-linecap:round; stroke-linejoin:round;">
<text x="178.0022" y="177.7572"
textLength="0.4500" font-size="2.0000" lengthAdjust="spacingAndGlyphs"
text-anchor="start" opacity="0"></text>
<g class="stroked-text"><desc></desc>
</g></g>
<g style="fill:none; 
stroke:#000000; stroke-width:0.1500; stroke-opacity:1; 
stroke-linecap:round; stroke-linejoin:round;">
<text x="178.0022" y="174.7572"
textLength="0.4500" font-size="2.0000" lengthAdjust="spacingAndGlyphs"
text-anchor="start" opacity="0"></text>
<g class="stroked-text"><desc></desc>
</g></g>
<g style="fill:none; 
stroke:#000000; stroke-width:0.1500; stroke-opacity:1; 
stroke-linecap:round; stroke-linejoin:round;">
<text x="178.0022" y="171.7572"
textLength="0.4500" font-size="2.0000" lengthAdjust="spacingAndGlyphs"
text-anchor="start" opacity="0"></text>
<g class="stroked-text"><desc></desc>
</g></g>
<g style="fill:none; 
stroke:#000000; stroke-width:0.1500; stroke-opacity:1; 
stroke-linecap:round; stroke-linejoin:round;">
<text x="178.0022" y="168.7572"
textLength="0.4500" font-size="2.0000" lengthAdjust="spacingAndGlyphs"
text-anchor="start" opacity="0"></text>
<g class="stroked-text"><desc></desc>
</g></g>
<g style="fill:none; 
stroke:#000000; stroke-width:0.1500; stroke-opacity:1; 
stroke-linecap:round; stroke-linejoin:round;">
<path d="M197.0022 191.5072
L197.0022 194.5072
" />
</g>
<g style="fill:none; 
stroke:#000000; stroke-width:0.1500; stroke-opacity:1; 
stroke-linecap:round; stroke-linejoin:round;">
<path d="M261.0022 191.5072
L261.0022 198.0072
" />
</g>
<g style="fill:none; 
stroke:#E8B2A7; stroke-width:0.1200; stroke-opacity:1; 
stroke-linecap:round; stroke-linejoin:round;">
<path d="M14.6907 108.8858
L14.9366 107.9681
" />
<path d="M14.6907 108.8858
L16.6226 109.4034
" />
<path d="M15.9072 104.3459
L15.6613 105.2635
" />
<path d="M15.9072 104.3459
L17.8390 104.8635
" />
<path d="M26.2033 113.0576
L24.5612 112.6176
" />
<path d="M26.2033 113.0576
L26.4362 112.1882
" />
<path d="M27.4197 108.5177
L25.7776 108.0777
" />
<path d="M27.4197 108.5177
L27.1738 109.4353
" />
<path d="M82.8602 75.2844
L83.1061 74.3668
" />
<path d="M82.8602 75.2844
L84.7921 75.8020
" />
<path d="M84.0767 70.7445
L83.8308 71.6622
" />
<path d="M84.0767 70.7445
L86.0085 71.2622
" />
<path d="M94.3727 79.4562
L92.7307 79.0162
" />
<path d="M94.3727 79.4562
L94.6057 78.5869
" />
<path d="M95.5892 74.9163
L93.9471 74.4764
" />
<path d="M95.5892 74.9163
L95.3433 75.8340
" />
<path d="M72.9992 112.0862
L73.2451 111.1685
" />
<path d="M72.9992 112.0862
L74.9311 112.6038
" />
<path d="M74.2157 107.5463
L73.9698 108.4639
" />
<path d="M74.2157 107.5463
L76.1475 108.0639
" />
<path d="M84.5117 116.2580
L82.8697 115.8180
" />
<path d="M84.5117 116.2580
L84.7447 115.3886
" />
<path d="M85.7282 111.7181
L84.0861 111.2781
" />
<path d="M85.7282 111.7181
L85.4823 112.6357
" />
<path d="M246.0531 101.3089
L246.2990 102.2265
" />
<path d="M246.0531 101.3089
L247.9850 100.7913
" />
<path d="M247.2696 105.8487
L247.0237 104.9311
" />
<path d="M247.2696 105.8487
L249.2014 105.3311
" />
<path d="M258.1092 99.1655
L256.4671 99.6055
" />
<path d="M258.1092 99.1655
L258.3551 100.0832
" />
<path d="M259.3256 103.7054
L257.6836 104.1454
" />
<path d="M259.3256 103.7054
L259.0927 102.8360
" />
<path d="M90.8825 118.9485
L91.1283 118.0309
" />
<path d="M90.8825 118.9485
L92.8143 119.4661
" />
<path d="M92.0989 114.4087
L91.8530 115.3263
" />
<path d="M92.0989 114.4087
L94.0308 114.9263
" />
<path d="M102.3950 123.1203
L100.7529 122.6803
" />
<path d="M102.3950 123.1203
L102.6279 122.2510
" />
<path d="M103.6114 118.5805
L101.9694 118.1405
" />
<path d="M103.6114 118.5805
L103.3656 119.4981
" />
<path d="M191.3681 118.0323
L191.6140 118.9499
" />
<path d="M191.3681 118.0323
L193.3000 117.5146
" />
<path d="M192.5846 122.5721
L192.3387 121.6545
" />
<path d="M192.5846 122.5721
L194.5164 122.0545
" />
<path d="M203.4242 115.8889
L201.7821 116.3289
" />
<path d="M203.4242 115.8889
L203.6700 116.8065
" />
<path d="M204.6406 120.4287
L202.9985 120.8687
" />
<path d="M204.6406 120.4287
L204.4077 119.5594
" />
<path d="M186.4376 99.6314
L186.6835 100.5490
" />
<path d="M186.4376 99.6314
L188.3695 99.1137
" />
<path d="M187.6541 104.1712
L187.4082 103.2536
" />
<path d="M187.6541 104.1712
L189.5859 103.6536
" />
<path d="M198.4937 97.4880
L196.8516 97.9280
" />
<path d="M198.4937 97.4880
L198.7395 98.4056
" />
<path d="M199.7101 102.0279
L198.0680 102.4678
" />
<path d="M199.7101 102.0279
L199.4772 101.1585
" />
<path d="M77.9297 93.6853
L78.1756 92.7676
" />
<path d="M77.9297 93.6853
L79.8616 94.2029
" />
<path d="M79.1462 89.1454
L78.9003 90.0630
" />
<path d="M79.1462 89.1454
L81.0780 89.6631
" />
<path d="M89.4422 97.8571
L87.8002 97.4171
" />
<path d="M89.4422 97.8571
L89.6752 96.9877
" />
<path d="M90.6587 93.3172
L89.0166 92.8772
" />
<path d="M90.6587 93.3172
L90.4128 94.2349
" />
<path d="M236.1921 64.5071
L236.4380 65.4248
" />
<path d="M236.1921 64.5071
L238.1240 63.9895
" />
<path d="M237.4086 69.0470
L237.1627 68.1293
" />
<path d="M237.4086 69.0470
L239.3404 68.5293
" />
<path d="M248.2482 62.3638
L246.6061 62.8037
" />
<path d="M248.2482 62.3638
L248.4941 63.2814
" />
<path d="M249.4646 66.9036
L247.8226 67.3436
" />
<path d="M249.4646 66.9036
L249.2317 66.0343
" />
<path d="M41.1279 83.8243
L41.3738 82.9066
" />
<path d="M41.1279 83.8243
L43.0598 84.3419
" />
<path d="M42.3444 79.2844
L42.0985 80.2020
" />
<path d="M42.3444 79.2844
L44.2762 79.8020
" />
<path d="M52.6405 87.9961
L50.9984 87.5561
" />
<path d="M52.6405 87.9961
L52.8734 87.1267
" />
<path d="M53.8569 83.4562
L52.2148 83.0162
" />
<path d="M53.8569 83.4562
L53.6110 84.3739
" />
<path d="M24.5517 72.0840
L24.7976 71.1664
" />
<path d="M24.5517 72.0840
L26.4836 72.6016
" />
<path d="M25.7682 67.5441
L25.5223 68.4618
" />
<path d="M25.7682 67.5441
L27.7000 68.0618
" />
<path d="M36.0643 76.2558
L34.4222 75.8158
" />
<path d="M36.0643 76.2558
L36.2972 75.3865
" />
<path d="M37.2807 71.7159
L35.6386 71.2760
" />
<path d="M37.2807 71.7159
L37.0348 72.6336
" />
<path d="M181.5071 81.2305
L181.7530 82.1481
" />
<path d="M181.5071 81.2305
L183.4390 80.7128
" />
<path d="M182.7236 85.7703
L182.4777 84.8527
" />
<path d="M182.7236 85.7703
L184.6554 85.2527
" />
<path d="M193.5632 79.0871
L191.9211 79.5271
" />
<path d="M193.5632 79.0871
L193.8090 80.0047
" />
<path d="M194.7796 83.6270
L193.1375 84.0670
" />
<path d="M194.7796 83.6270
L194.5467 82.7576
" />
<path d="M257.6988 71.1677
L257.9447 72.0854
" />
<path d="M257.6988 71.1677
L259.6307 70.6501
" />
<path d="M258.9153 75.7076
L258.6694 74.7900
" />
<path d="M258.9153 75.7076
L260.8471 75.1899
" />
<path d="M269.7549 69.0244
L268.1128 69.4644
" />
<path d="M269.7549 69.0244
L270.0008 69.9420
" />
<path d="M270.9713 73.5642
L269.3293 74.0042
" />
<path d="M270.9713 73.5642
L270.7384 72.6949
" />
<path d="M204.3209 92.7690
L204.5667 93.6866
" />
<path d="M204.3209 92.7690
L206.2527 92.2514
" />
<path d="M205.5373 97.3089
L205.2914 96.3912
" />
<path d="M205.5373 97.3089
L207.4692 96.7912
" />
<path d="M216.3769 90.6256
L214.7348 91.0656
" />
<path d="M216.3769 90.6256
L216.6228 91.5433
" />
<path d="M217.5934 95.1655
L215.9513 95.6055
" />
<path d="M217.5934 95.1655
L217.3604 94.2962
" />
<path d="M194.9144 140.8664
L195.3158 141.7274
" />
<path d="M194.9144 140.8664
L196.7270 140.0211
" />
<path d="M196.9007 145.1260
L196.4992 144.2650
" />
<path d="M196.9007 145.1260
L198.7133 144.2808
" />
<path d="M206.4151 136.6621
L204.8743 137.3805
" />
<path d="M206.4151 136.6621
L206.8165 137.5231
" />
<path d="M208.4014 140.9217
L206.8606 141.6402
" />
<path d="M208.4014 140.9217
L208.0210 140.1060
" />
<path d="M226.3582 101.4098
L226.6040 102.3274
" />
<path d="M226.3582 101.4098
L228.2900 100.8921
" />
<path d="M227.5746 105.9496
L227.3287 105.0320
" />
<path d="M227.5746 105.9496
L229.5065 105.4320
" />
<path d="M238.4142 99.2664
L236.7721 99.7064
" />
<path d="M238.4142 99.2664
L238.6601 100.1840
" />
<path d="M239.6307 103.8063
L237.9886 104.2462
" />
<path d="M239.6307 103.8063
L239.3977 102.9369
" />
<path d="M65.7534 65.5242
L65.9993 64.6066
" />
<path d="M65.7534 65.5242
L67.6853 66.0419
" />
<path d="M66.9699 60.9844
L66.7240 61.9020
" />
<path d="M66.9699 60.9844
L68.9017 61.5020
" />
<path d="M77.2660 69.6961
L75.6239 69.2561
" />
<path d="M77.2660 69.6961
L77.4989 68.8267
" />
<path d="M78.4824 65.1562
L76.8403 64.7162
" />
<path d="M78.4824 65.1562
L78.2365 66.0738
" />
<path d="M67.4855 135.0765
L67.6505 134.1409
" />
<path d="M67.4855 135.0765
L69.4551 135.4238
" />
<path d="M68.3017 130.4479
L68.1367 131.3834
" />
<path d="M68.3017 130.4479
L70.2713 130.7952
" />
<path d="M79.3178 138.2290
L77.6437 137.9338
" />
<path d="M79.3178 138.2290
L79.4741 137.3427
" />
<path d="M80.1340 133.6004
L78.4598 133.3052
" />
<path d="M80.1340 133.6004
L79.9690 134.5360
" />
<path d="M87.4010 139.2092
L87.8025 138.3482
" />
<path d="M87.4010 139.2092
L89.2136 140.0545
" />
<path d="M89.3873 134.9496
L88.9858 135.8106
" />
<path d="M89.3873 134.9496
L91.1999 135.7948
" />
<path d="M98.0142 145.3168
L96.4735 144.5984
" />
<path d="M98.0142 145.3168
L98.3946 144.5011
" />
<path d="M100.0005 141.0572
L98.4598 140.3387
" />
<path d="M100.0005 141.0572
L99.5990 141.9182
" />
<path d="M55.8924 102.3260
L56.1383 101.4084
" />
<path d="M55.8924 102.3260
L57.8243 102.8437
" />
<path d="M57.1089 97.7862
L56.8630 98.7038
" />
<path d="M57.1089 97.7862
L59.0407 98.3038
" />
<path d="M67.4049 106.4978
L65.7629 106.0578
" />
<path d="M67.4049 106.4978
L67.6379 105.6285
" />
<path d="M68.6214 101.9580
L66.9793 101.5180
" />
<path d="M68.6214 101.9580
L68.3755 102.8756
" />
<path d="M36.1974 102.2251
L36.4433 101.3075
" />
<path d="M36.1974 102.2251
L38.1293 102.7428
" />
<path d="M37.4139 97.6853
L37.1680 98.6029
" />
<path d="M37.4139 97.6853
L39.3457 98.2029
" />
<path d="M47.7100 106.3970
L46.0679 105.9570
" />
<path d="M47.7100 106.3970
L47.9429 105.5276
" />
<path d="M48.9264 101.8571
L47.2843 101.4171
" />
<path d="M48.9264 101.8571
L48.6805 102.7747
" />
<path d="M177.8508 154.3142
L178.4614 155.0420
" />
<path d="M177.8508 154.3142
L179.3828 153.0286
" />
<path d="M180.8719 157.9146
L180.2612 157.1869
" />
<path d="M180.8719 157.9146
L182.4039 156.6291
" />
<path d="M187.8714 147.2766
L186.5691 148.3693
" />
<path d="M187.8714 147.2766
L188.4821 148.0043
" />
<path d="M190.8925 150.8770
L189.5903 151.9697
" />
<path d="M190.8925 150.8770
L190.3140 150.1875
" />
<path d="M241.1226 82.9080
L241.3685 83.8256
" />
<path d="M241.1226 82.9080
L243.0545 82.3904
" />
<path d="M242.3391 87.4479
L242.0932 86.5302
" />
<path d="M242.3391 87.4479
L244.2709 86.9302
" />
<path d="M253.1787 80.7646
L251.5366 81.2046
" />
<path d="M253.1787 80.7646
L253.4246 81.6823
" />
<path d="M254.3951 85.3045
L252.7531 85.7445
" />
<path d="M254.3951 85.3045
L254.1622 84.4352
" />
<path d="M199.3904 74.3681
L199.6362 75.2858
" />
<path d="M199.3904 74.3681
L201.3222 73.8505
" />
<path d="M200.6068 78.9080
L200.3609 77.9904
" />
<path d="M200.6068 78.9080
L202.5387 78.3903
" />
<path d="M211.4464 72.2248
L209.8043 72.6648
" />
<path d="M211.4464 72.2248
L211.6923 73.1424
" />
<path d="M212.6629 76.7646
L211.0208 77.2046
" />
<path d="M212.6629 76.7646
L212.4299 75.8953
" />
<path d="M60.8229 83.9251
L61.0688 83.0075
" />
<path d="M60.8229 83.9251
L62.7548 84.4428
" />
<path d="M62.0394 79.3853
L61.7935 80.3029
" />
<path d="M62.0394 79.3853
L63.9712 79.9029
" />
<path d="M72.3355 88.0970
L70.6934 87.6570
" />
<path d="M72.3355 88.0970
L72.5684 87.2276
" />
<path d="M73.5519 83.5571
L71.9098 83.1171
" />
<path d="M73.5519 83.5571
L73.3060 84.4747
" />
<path d="M46.0584 65.4234
L46.3043 64.5057
" />
<path d="M46.0584 65.4234
L47.9903 65.9410
" />
<path d="M47.2749 60.8835
L47.0290 61.8012
" />
<path d="M47.2749 60.8835
L49.2067 61.4012
" />
<path d="M57.5710 69.5952
L55.9289 69.1552
" />
<path d="M57.5710 69.5952
L57.8039 68.7259
" />
<path d="M58.7874 65.0553
L57.1454 64.6153
" />
<path d="M58.7874 65.0553
L58.5415 65.9730
" />
<path d="M105.3935 148.9155
L106.0041 148.1877
" />
<path d="M105.3935 148.9155
L106.9256 150.2010
" />
<path d="M108.4146 145.3151
L107.8040 146.0428
" />
<path d="M108.4146 145.3151
L109.9467 146.6006
" />
<path d="M114.0643 157.5618
L112.7620 156.4691
" />
<path d="M114.0643 157.5618
L114.6428 156.8724
" />
<path d="M117.0854 153.9614
L115.7831 152.8687
" />
<path d="M117.0854 153.9614
L116.4748 154.6892
" />
<path d="M221.4276 83.0089
L221.6735 83.9265
" />
<path d="M221.4276 83.0089
L223.3595 82.4912
" />
<path d="M222.6441 87.5487
L222.3982 86.6311
" />
<path d="M222.6441 87.5487
L224.5759 87.0311
" />
<path d="M233.4837 80.8655
L231.8416 81.3055
" />
<path d="M233.4837 80.8655
L233.7296 81.7831
" />
<path d="M234.7002 85.4054
L233.0581 85.8454
" />
<path d="M234.7002 85.4054
L234.4672 84.5360
" />
<path d="M95.8130 100.5476
L96.0588 99.6300
" />
<path d="M95.8130 100.5476
L97.7448 101.0653
" />
<path d="M97.0294 96.0078
L96.7835 96.9254
" />
<path d="M97.0294 96.0078
L98.9613 96.5254
" />
<path d="M107.3255 104.7194
L105.6834 104.2794
" />
<path d="M107.3255 104.7194
L107.5584 103.8501
" />
<path d="M108.5419 100.1796
L106.8999 99.7396
" />
<path d="M108.5419 100.1796
L108.2961 101.0972
" />
<path d="M19.6212 90.4849
L19.8671 89.5672
" />
<path d="M19.6212 90.4849
L21.5531 91.0025
" />
<path d="M20.8377 85.9450
L20.5918 86.8626
" />
<path d="M20.8377 85.9450
L22.7695 86.4627
" />
<path d="M31.1338 94.6567
L29.4917 94.2167
" />
<path d="M31.1338 94.6567
L31.3667 93.7874
" />
<path d="M32.3502 90.1168
L30.7081 89.6768
" />
<path d="M32.3502 90.1168
L32.1043 91.0345
" />
<path d="M209.2514 111.1699
L209.4972 112.0875
" />
<path d="M209.2514 111.1699
L211.1832 110.6523
" />
<path d="M210.4678 115.7098
L210.2219 114.7921
" />
<path d="M210.4678 115.7098
L212.3997 115.1921
" />
<path d="M221.3074 109.0265
L219.6653 109.4665
" />
<path d="M221.3074 109.0265
L221.5533 109.9442
" />
<path d="M222.5239 113.5664
L220.8818 114.0064
" />
<path d="M222.5239 113.5664
L222.2909 112.6971
" />
<path d="M262.6293 89.5686
L262.8752 90.4862
" />
<path d="M262.6293 89.5686
L264.5612 89.0510
" />
<path d="M263.8458 94.1085
L263.5999 93.1908
" />
<path d="M263.8458 94.1085
L265.7776 93.5908
" />
<path d="M274.6854 87.4252
L273.0433 87.8652
" />
<path d="M274.6854 87.4252
L274.9313 88.3429
" />
<path d="M275.9019 91.9651
L274.2598 92.4051
" />
<path d="M275.9019 91.9651
L275.6689 91.0958
" />
<path d="M267.5598 107.9695
L267.8057 108.8871
" />
<path d="M267.5598 107.9695
L269.4917 107.4519
" />
<path d="M268.7763 112.5094
L268.5304 111.5917
" />
<path d="M268.7763 112.5094
L270.7081 111.9917
" />
<path d="M279.6159 105.8261
L277.9738 106.2661
" />
<path d="M279.6159 105.8261
L279.8618 106.7438
" />
<path d="M280.8324 110.3660
L279.1903 110.8060
" />
<path d="M280.8324 110.3660
L280.5994 109.4967
" />
<path d="M216.4971 64.6080
L216.7430 65.5256
" />
<path d="M216.4971 64.6080
L218.4290 64.0904
" />
<path d="M217.7136 69.1478
L217.4677 68.2302
" />
<path d="M217.7136 69.1478
L219.6454 68.6302
" />
<path d="M228.5532 62.4646
L226.9111 62.9046
" />
<path d="M228.5532 62.4646
L228.7991 63.3823
" />
<path d="M229.7696 67.0045
L228.1276 67.4445
" />
<path d="M229.7696 67.0045
L229.5367 66.1351
" />
<path d="M100.7435 82.1467
L100.9893 81.2291
" />
<path d="M100.7435 82.1467
L102.6753 82.6644
" />
<path d="M101.9599 77.6069
L101.7140 78.5245
" />
<path d="M101.9599 77.6069
L103.8918 78.1245
" />
<path d="M112.2560 86.3186
L110.6139 85.8786
" />
<path d="M112.2560 86.3186
L112.4889 85.4492
" />
<path d="M113.4724 81.7787
L111.8304 81.3387
" />
<path d="M113.4724 81.7787
L113.2266 82.6963
" />
<path d="M214.9010 132.8791
L215.0660 133.8147
" />
<path d="M214.9010 132.8791
L216.8706 132.5318
" />
<path d="M215.7171 137.5077
L215.5522 136.5721
" />
<path d="M215.7171 137.5077
L217.6868 137.1604
" />
<path d="M227.0980 131.7946
L225.4238 132.0898
" />
<path d="M227.0980 131.7946
L227.2629 132.7302
" />
<path d="M227.9141 136.4232
L226.2400 136.7184
" />
<path d="M227.9141 136.4232
L227.7578 135.5369
" />
<path d="M192.0388 109.1914
L192.5647 111.1542
" />
<path d="M192.5647 111.1542
L193.9141 110.7926
" />
<path d="M193.3882 108.8299
L192.0388 109.1914
" />
</g>
<g style="fill:none; 
stroke:#E8B2A7; stroke-width:0.1500; stroke-opacity:1; 
stroke-linecap:round; stroke-linejoin:round;">
<path d="M195.6149 108.7674
L195.8737 109.7333
" />
<path d="M195.8409 109.2245
L196.5808 108.5086
" />
<path d="M196.5808 108.5086
L196.8396 109.4745
" />
<path d="M196.8396 109.4745
L195.8409 109.2245
" />
</g>
<g style="fill:none; 
stroke:#E8B2A7; stroke-width:0.1200; stroke-opacity:1; 
stroke-linecap:round; stroke-linejoin:round;">
<path d="M204.9915 83.9282
L205.5175 85.8909
" />
<path d="M205.5175 85.8909
L206.8669 85.5294
" />
<path d="M206.3409 83.5666
L204.9915 83.9282
" />
</g>
<g style="fill:none; 
stroke:#E8B2A7; stroke-width:0.1500; stroke-opacity:1; 
stroke-linecap:round; stroke-linejoin:round;">
<path d="M208.5676 83.5042
L208.8265 84.4701
" />
<path d="M208.7936 83.9613
L209.5336 83.2454
" />
<path d="M209.5336 83.2454
L209.7924 84.2113
" />
<path d="M209.7924 84.2113
L208.7936 83.9613
" />
</g>
<g style="fill:none; 
stroke:#E8B2A7; stroke-width:0.1200; stroke-opacity:1; 
stroke-linecap:round; stroke-linejoin:round;">
<path d="M72.2930 124.7199
L73.6687 124.9625
" />
<path d="M72.6458 122.7188
L72.2930 124.7199
" />
<path d="M74.0216 122.9614
L72.6458 122.7188
" />
</g>
<g style="fill:none; 
stroke:#E8B2A7; stroke-width:0.1500; stroke-opacity:1; 
stroke-linecap:round; stroke-linejoin:round;">
<path d="M76.0661 123.8458
L75.8924 124.8307
" />
<path d="M76.0777 124.3556
L77.0509 124.0195
" />
<path d="M76.8772 125.0043
L76.0777 124.3556
" />
<path d="M77.0509 124.0195
L76.8772 125.0043
" />
</g>
<g style="fill:none; 
stroke:#E8B2A7; stroke-width:0.1200; stroke-opacity:1; 
stroke-linecap:round; stroke-linejoin:round;">
<path d="M174.7233 146.0183
L176.0294 147.5749
" />
<path d="M175.7935 145.1203
L174.7233 146.0183
" />
<path d="M176.0294 147.5749
L177.0996 146.6769
" />
</g>
<g style="fill:none; 
stroke:#E8B2A7; stroke-width:0.1500; stroke-opacity:1; 
stroke-linecap:round; stroke-linejoin:round;">
<path d="M177.7852 144.1227
L178.4279 144.8887
" />
<path d="M178.1832 144.4414
L178.5512 143.4799
" />
<path d="M178.5512 143.4799
L179.1940 144.2459
" />
<path d="M179.1940 144.2459
L178.1832 144.4414
" />
</g>
<g style="fill:none; 
stroke:#E8B2A7; stroke-width:0.1200; stroke-opacity:1; 
stroke-linecap:round; stroke-linejoin:round;">
<path d="M200.0610 65.5273
L200.5870 67.4901
" />
<path d="M200.5870 67.4901
L201.9364 67.1285
" />
<path d="M201.4104 65.1657
L200.0610 65.5273
" />
</g>
<g style="fill:none; 
stroke:#E8B2A7; stroke-width:0.1500; stroke-opacity:1; 
stroke-linecap:round; stroke-linejoin:round;">
<path d="M203.6371 65.1033
L203.8960 66.0692
" />
<path d="M203.8631 65.5604
L204.6031 64.8445
" />
<path d="M204.6031 64.8445
L204.8619 65.8104
" />
<path d="M204.8619 65.8104
L203.8631 65.5604
" />
</g>
<g style="fill:none; 
stroke:#E8B2A7; stroke-width:0.1200; stroke-opacity:1; 
stroke-linecap:round; stroke-linejoin:round;">
<path d="M268.2305 99.1287
L268.7564 101.0914
" />
<path d="M268.7564 101.0914
L270.1058 100.7299
" />
<path d="M269.5799 98.7671
L268.2305 99.1287
" />
</g>
<g style="fill:none; 
stroke:#E8B2A7; stroke-width:0.1500; stroke-opacity:1; 
stroke-linecap:round; stroke-linejoin:round;">
<path d="M271.8066 98.7047
L272.0655 99.6706
" />
<path d="M272.0326 99.1617
L272.7726 98.4458
" />
<path d="M272.7726 98.4458
L273.0314 99.4118
" />
<path d="M273.0314 99.4118
L272.0326 99.1617
" />
</g>
<g style="fill:none; 
stroke:#E8B2A7; stroke-width:0.1200; stroke-opacity:1; 
stroke-linecap:round; stroke-linejoin:round;">
<path d="M263.3000 80.7278
L263.8259 82.6906
" />
<path d="M263.8259 82.6906
L265.1753 82.3290
" />
<path d="M264.6494 80.3662
L263.3000 80.7278
" />
</g>
<g style="fill:none; 
stroke:#E8B2A7; stroke-width:0.1500; stroke-opacity:1; 
stroke-linecap:round; stroke-linejoin:round;">
<path d="M266.8761 80.3038
L267.1350 81.2697
" />
<path d="M267.1021 80.7609
L267.8421 80.0450
" />
<path d="M267.8421 80.0450
L268.1009 81.0109
" />
<path d="M268.1009 81.0109
L267.1021 80.7609
" />
</g>
<g style="fill:none; 
stroke:#E8B2A7; stroke-width:0.1200; stroke-opacity:1; 
stroke-linecap:round; stroke-linejoin:round;">
<path d="M78.6910 102.1880
L80.0404 102.5496
" />
<path d="M79.2169 100.2253
L78.6910 102.1880
" />
<path d="M80.5663 100.5868
L79.2169 100.2253
" />
</g>
<g style="fill:none; 
stroke:#E8B2A7; stroke-width:0.1500; stroke-opacity:1; 
stroke-linecap:round; stroke-linejoin:round;">
<path d="M82.4931 102.1550
L83.4918 101.9049
" />
<path d="M82.5259 101.6461
L82.2671 102.6120
" />
<path d="M83.2330 102.8709
L82.4931 102.1550
" />
<path d="M83.4918 101.9049
L83.2330 102.8709
" />
</g>
<g style="fill:none; 
stroke:#E8B2A7; stroke-width:0.1200; stroke-opacity:1; 
stroke-linecap:round; stroke-linejoin:round;">
<path d="M222.0983 74.1681
L222.6242 76.1308
" />
<path d="M222.6242 76.1308
L223.9736 75.7692
" />
<path d="M223.4477 73.8065
L222.0983 74.1681
" />
</g>
<g style="fill:none; 
stroke:#E8B2A7; stroke-width:0.1500; stroke-opacity:1; 
stroke-linecap:round; stroke-linejoin:round;">
<path d="M225.6744 73.7440
L225.9333 74.7100
" />
<path d="M225.9004 74.2011
L226.6404 73.4852
" />
<path d="M226.6404 73.4852
L226.8992 74.4511
" />
<path d="M226.8992 74.4511
L225.9004 74.2011
" />
</g>
<g style="fill:none; 
stroke:#E8B2A7; stroke-width:0.1200; stroke-opacity:1; 
stroke-linecap:round; stroke-linejoin:round;">
<path d="M236.8628 55.6663
L237.3887 57.6291
" />
<path d="M237.3887 57.6291
L238.7381 57.2675
" />
<path d="M238.2122 55.3047
L236.8628 55.6663
" />
</g>
<g style="fill:none; 
stroke:#E8B2A7; stroke-width:0.1500; stroke-opacity:1; 
stroke-linecap:round; stroke-linejoin:round;">
<path d="M240.4389 55.2423
L240.6977 56.2082
" />
<path d="M240.6649 55.6994
L241.4048 54.9835
" />
<path d="M241.4048 54.9835
L241.6637 55.9494
" />
<path d="M241.6637 55.9494
L240.6649 55.6994
" />
</g>
<g style="fill:none; 
stroke:#E8B2A7; stroke-width:0.1200; stroke-opacity:1; 
stroke-linecap:round; stroke-linejoin:round;">
<path d="M194.0396 132.0434
L194.8984 133.8850
" />
<path d="M194.8984 133.8850
L196.1645 133.2946
" />
<path d="M195.3058 131.4530
L194.0396 132.0434
" />
</g>
<g style="fill:none; 
stroke:#E8B2A7; stroke-width:0.1500; stroke-opacity:1; 
stroke-linecap:round; stroke-linejoin:round;">
<path d="M197.4878 131.0048
L197.9104 131.9112
" />
<path d="M197.7897 131.4157
L198.3941 130.5822
" />
<path d="M198.3941 130.5822
L198.8167 131.4885
" />
<path d="M198.8167 131.4885
L197.7897 131.4157
" />
</g>
<g style="fill:none; 
stroke:#E8B2A7; stroke-width:0.1200; stroke-opacity:1; 
stroke-linecap:round; stroke-linejoin:round;">
<path d="M46.8197 73.9261
L48.1691 74.2877
" />
<path d="M47.3456 71.9634
L46.8197 73.9261
" />
<path d="M48.6950 72.3249
L47.3456 71.9634
" />
</g>
<g style="fill:none; 
stroke:#E8B2A7; stroke-width:0.1500; stroke-opacity:1; 
stroke-linecap:round; stroke-linejoin:round;">
<path d="M50.6218 73.8931
L51.6206 73.6430
" />
<path d="M50.6546 73.3842
L50.3958 74.3501
" />
<path d="M51.3617 74.6090
L50.6218 73.8931
" />
<path d="M51.6206 73.6430
L51.3617 74.6090
" />
</g>
<g style="fill:none; 
stroke:#E8B2A7; stroke-width:0.1200; stroke-opacity:1; 
stroke-linecap:round; stroke-linejoin:round;">
<path d="M209.9220 102.3291
L210.4480 104.2918
" />
<path d="M210.4480 104.2918
L211.7974 103.9303
" />
<path d="M211.2714 101.9675
L209.9220 102.3291
" />
</g>
<g style="fill:none; 
stroke:#E8B2A7; stroke-width:0.1500; stroke-opacity:1; 
stroke-linecap:round; stroke-linejoin:round;">
<path d="M213.4981 101.9051
L213.7570 102.8710
" />
<path d="M213.7241 102.3621
L214.4641 101.6462
" />
<path d="M214.4641 101.6462
L214.7229 102.6122
" />
<path d="M214.7229 102.6122
L213.7241 102.3621
" />
</g>
<g style="fill:none; 
stroke:#E8B2A7; stroke-width:0.1200; stroke-opacity:1; 
stroke-linecap:round; stroke-linejoin:round;">
<path d="M106.4352 72.2486
L107.7846 72.6102
" />
<path d="M106.9611 70.2858
L106.4352 72.2486
" />
<path d="M108.3105 70.6474
L106.9611 70.2858
" />
</g>
<g style="fill:none; 
stroke:#E8B2A7; stroke-width:0.1500; stroke-opacity:1; 
stroke-linecap:round; stroke-linejoin:round;">
<path d="M110.2373 72.2155
L111.2361 71.9655
" />
<path d="M110.2702 71.7067
L110.0113 72.6726
" />
<path d="M110.9773 72.9314
L110.2373 72.2155
" />
<path d="M111.2361 71.9655
L110.9773 72.9314
" />
</g>
<g style="fill:none; 
stroke:#E8B2A7; stroke-width:0.1200; stroke-opacity:1; 
stroke-linecap:round; stroke-linejoin:round;">
<path d="M227.0288 92.5689
L227.5547 94.5317
" />
<path d="M227.5547 94.5317
L228.9041 94.1701
" />
<path d="M228.3782 92.2074
L227.0288 92.5689
" />
</g>
<g style="fill:none; 
stroke:#E8B2A7; stroke-width:0.1500; stroke-opacity:1; 
stroke-linecap:round; stroke-linejoin:round;">
<path d="M230.6049 92.1449
L230.8638 93.1109
" />
<path d="M230.8309 92.6020
L231.5709 91.8861
" />
<path d="M231.5709 91.8861
L231.8297 92.8520
" />
<path d="M231.8297 92.8520
L230.8309 92.6020
" />
</g>
<g style="fill:none; 
stroke:#E8B2A7; stroke-width:0.1200; stroke-opacity:1; 
stroke-linecap:round; stroke-linejoin:round;">
<path d="M88.5520 65.3862
L89.9014 65.7478
" />
<path d="M89.0779 63.4235
L88.5520 65.3862
" />
<path d="M90.4273 63.7851
L89.0779 63.4235
" />
</g>
<g style="fill:none; 
stroke:#E8B2A7; stroke-width:0.1500; stroke-opacity:1; 
stroke-linecap:round; stroke-linejoin:round;">
<path d="M92.3541 65.3532
L93.3528 65.1032
" />
<path d="M92.3869 64.8443
L92.1281 65.8103
" />
<path d="M93.0940 66.0691
L92.3541 65.3532
" />
<path d="M93.3528 65.1032
L93.0940 66.0691
" />
</g>
<g style="fill:none; 
stroke:#E8B2A7; stroke-width:0.1200; stroke-opacity:1; 
stroke-linecap:round; stroke-linejoin:round;">
<path d="M66.5147 74.0270
L67.8641 74.3886
" />
<path d="M67.0406 72.0642
L66.5147 74.0270
" />
<path d="M68.3900 72.4258
L67.0406 72.0642
" />
</g>
<g style="fill:none; 
stroke:#E8B2A7; stroke-width:0.1500; stroke-opacity:1; 
stroke-linecap:round; stroke-linejoin:round;">
<path d="M70.3168 73.9939
L71.3155 73.7439
" />
<path d="M70.3496 73.4851
L70.0908 74.4510
" />
<path d="M71.0567 74.7098
L70.3168 73.9939
" />
<path d="M71.3155 73.7439
L71.0567 74.7098
" />
</g>
<g style="fill:none; 
stroke:#E8B2A7; stroke-width:0.1200; stroke-opacity:1; 
stroke-linecap:round; stroke-linejoin:round;">
<path d="M246.7238 92.4681
L247.2497 94.4308
" />
<path d="M247.2497 94.4308
L248.5991 94.0693
" />
<path d="M248.0732 92.1065
L246.7238 92.4681
" />
</g>
<g style="fill:none; 
stroke:#E8B2A7; stroke-width:0.1500; stroke-opacity:1; 
stroke-linecap:round; stroke-linejoin:round;">
<path d="M250.2999 92.0441
L250.5587 93.0100
" />
<path d="M250.5259 92.5011
L251.2658 91.7852
" />
<path d="M251.2658 91.7852
L251.5247 92.7512
" />
<path d="M251.5247 92.7512
L250.5259 92.5011
" />
</g>
<g style="fill:none; 
stroke:#E8B2A7; stroke-width:0.1200; stroke-opacity:1; 
stroke-linecap:round; stroke-linejoin:round;">
<path d="M114.7351 142.3502
L115.8053 143.2481
" />
<path d="M116.0413 140.7936
L114.7351 142.3502
" />
<path d="M117.1114 141.6915
L116.0413 140.7936
" />
</g>
<g style="fill:none; 
stroke:#E8B2A7; stroke-width:0.1500; stroke-opacity:1; 
stroke-linecap:round; stroke-linejoin:round;">
<path d="M118.1950 143.9270
L119.2058 144.1225
" />
<path d="M118.4398 143.4797
L117.7970 144.2458
" />
<path d="M118.5630 144.8886
L118.1950 143.9270
" />
<path d="M119.2058 144.1225
L118.5630 144.8886
" />
</g>
<g style="fill:none; 
stroke:#E8B2A7; stroke-width:0.1200; stroke-opacity:1; 
stroke-linecap:round; stroke-linejoin:round;">
<path d="M51.7502 55.5252
L53.0996 55.8868
" />
<path d="M52.2761 53.5625
L51.7502 55.5252
" />
<path d="M53.6255 53.9241
L52.2761 53.5625
" />
</g>
<g style="fill:none; 
stroke:#E8B2A7; stroke-width:0.1500; stroke-opacity:1; 
stroke-linecap:round; stroke-linejoin:round;">
<path d="M55.5523 55.4922
L56.5511 55.2421
" />
<path d="M55.5851 54.9833
L55.3263 55.9493
" />
<path d="M56.2922 56.2081
L55.5523 55.4922
" />
<path d="M56.5511 55.2421
L56.2922 56.2081
" />
</g>
<g style="fill:none; 
stroke:#E8B2A7; stroke-width:0.1200; stroke-opacity:1; 
stroke-linecap:round; stroke-linejoin:round;">
<path d="M61.5842 92.4279
L62.9336 92.7895
" />
<path d="M62.1101 90.4651
L61.5842 92.4279
" />
<path d="M63.4595 90.8267
L62.1101 90.4651
" />
</g>
<g style="fill:none; 
stroke:#E8B2A7; stroke-width:0.1500; stroke-opacity:1; 
stroke-linecap:round; stroke-linejoin:round;">
<path d="M65.3863 92.3948
L66.3850 92.1448
" />
<path d="M65.4191 91.8860
L65.1603 92.8519
" />
<path d="M66.1262 93.1107
L65.3863 92.3948
" />
<path d="M66.3850 92.1448
L66.1262 93.1107
" />
</g>
<g style="fill:none; 
stroke:#E8B2A7; stroke-width:0.1200; stroke-opacity:1; 
stroke-linecap:round; stroke-linejoin:round;">
<path d="M96.5742 109.0504
L97.9236 109.4119
" />
<path d="M97.1001 107.0876
L96.5742 109.0504
" />
<path d="M98.4495 107.4492
L97.1001 107.0876
" />
</g>
<g style="fill:none; 
stroke:#E8B2A7; stroke-width:0.1500; stroke-opacity:1; 
stroke-linecap:round; stroke-linejoin:round;">
<path d="M100.3763 109.0173
L101.3751 108.7673
" />
<path d="M100.4092 108.5085
L100.1503 109.4744
" />
<path d="M101.1163 109.7332
L100.3763 109.0173
" />
<path d="M101.3751 108.7673
L101.1163 109.7332
" />
</g>
<g style="fill:none; 
stroke:#E8B2A7; stroke-width:0.1200; stroke-opacity:1; 
stroke-linecap:round; stroke-linejoin:round;">
<path d="M258.3695 62.3269
L258.8954 64.2897
" />
<path d="M258.8954 64.2897
L260.2448 63.9281
" />
<path d="M259.7189 61.9653
L258.3695 62.3269
" />
</g>
<g style="fill:none; 
stroke:#E8B2A7; stroke-width:0.1500; stroke-opacity:1; 
stroke-linecap:round; stroke-linejoin:round;">
<path d="M261.9456 61.9029
L262.2045 62.8688
" />
<path d="M262.1716 62.3600
L262.9116 61.6441
" />
<path d="M262.9116 61.6441
L263.1704 62.6100
" />
<path d="M263.1704 62.6100
L262.1716 62.3600
" />
</g>
<g style="fill:none; 
stroke:#E8B2A7; stroke-width:0.1200; stroke-opacity:1; 
stroke-linecap:round; stroke-linejoin:round;">
<path d="M41.8892 92.3270
L43.2386 92.6886
" />
<path d="M42.4151 90.3643
L41.8892 92.3270
" />
<path d="M43.7645 90.7258
L42.4151 90.3643
" />
</g>
<g style="fill:none; 
stroke:#E8B2A7; stroke-width:0.1500; stroke-opacity:1; 
stroke-linecap:round; stroke-linejoin:round;">
<path d="M45.6913 92.2939
L46.6901 92.0439
" />
<path d="M45.7241 91.7851
L45.4653 92.7510
" />
<path d="M46.4312 93.0098
L45.6913 92.2939
" />
<path d="M46.6901 92.0439
L46.4312 93.0098
" />
</g>
<g style="fill:none; 
stroke:#E8B2A7; stroke-width:0.1200; stroke-opacity:1; 
stroke-linecap:round; stroke-linejoin:round;">
<path d="M101.5047 90.6495
L102.8541 91.0111
" />
<path d="M102.0306 88.6867
L101.5047 90.6495
" />
<path d="M103.3800 89.0483
L102.0306 88.6867
" />
</g>
<g style="fill:none; 
stroke:#E8B2A7; stroke-width:0.1500; stroke-opacity:1; 
stroke-linecap:round; stroke-linejoin:round;">
<path d="M105.3068 90.6164
L106.3056 90.3664
" />
<path d="M105.3397 90.1076
L105.0808 91.0735
" />
<path d="M106.0468 91.3323
L105.3068 90.6164
" />
<path d="M106.3056 90.3664
L106.0468 91.3323
" />
</g>
<g style="fill:none; 
stroke:#E8B2A7; stroke-width:0.1200; stroke-opacity:1; 
stroke-linecap:round; stroke-linejoin:round;">
<path d="M20.3825 98.9876
L21.7319 99.3492
" />
<path d="M20.9084 97.0249
L20.3825 98.9876
" />
<path d="M22.2578 97.3864
L20.9084 97.0249
" />
</g>
<g style="fill:none; 
stroke:#E8B2A7; stroke-width:0.1500; stroke-opacity:1; 
stroke-linecap:round; stroke-linejoin:round;">
<path d="M24.1846 98.9546
L25.1833 98.7045
" />
<path d="M24.2174 98.4457
L23.9586 99.4116
" />
<path d="M24.9245 99.6705
L24.1846 98.9546
" />
<path d="M25.1833 98.7045
L24.9245 99.6705
" />
</g>
<g style="fill:none; 
stroke:#E8B2A7; stroke-width:0.1200; stroke-opacity:1; 
stroke-linecap:round; stroke-linejoin:round;">
<path d="M187.1083 90.7905
L187.6342 92.7533
" />
<path d="M187.6342 92.7533
L188.9836 92.3917
" />
<path d="M188.4577 90.4290
L187.1083 90.7905
" />
</g>
<g style="fill:none; 
stroke:#E8B2A7; stroke-width:0.1500; stroke-opacity:1; 
stroke-linecap:round; stroke-linejoin:round;">
<path d="M190.6844 90.3665
L190.9432 91.3325
" />
<path d="M190.9104 90.8236
L191.6503 90.1077
" />
<path d="M191.6503 90.1077
L191.9091 91.0736
" />
<path d="M191.9091 91.0736
L190.9104 90.8236
" />
</g>
<g style="fill:none; 
stroke:#E8B2A7; stroke-width:0.1200; stroke-opacity:1; 
stroke-linecap:round; stroke-linejoin:round;">
<path d="M241.7933 74.0672
L242.3192 76.0299
" />
<path d="M242.3192 76.0299
L243.6686 75.6684
" />
<path d="M243.1427 73.7056
L241.7933 74.0672
" />
</g>
<g style="fill:none; 
stroke:#E8B2A7; stroke-width:0.1500; stroke-opacity:1; 
stroke-linecap:round; stroke-linejoin:round;">
<path d="M245.3694 73.6432
L245.6282 74.6091
" />
<path d="M245.5954 74.1003
L246.3353 73.3844
" />
<path d="M246.3353 73.3844
L246.5942 74.3503
" />
<path d="M246.5942 74.3503
L245.5954 74.1003
" />
</g>
<g style="fill:none; 
stroke:#E8B2A7; stroke-width:0.1200; stroke-opacity:1; 
stroke-linecap:round; stroke-linejoin:round;">
<path d="M94.7251 130.4498
L95.9912 131.0402
" />
<path d="M95.5839 128.6082
L94.7251 130.4498
" />
<path d="M96.8500 129.1986
L95.5839 128.6082
" />
</g>
<g style="fill:none; 
stroke:#E8B2A7; stroke-width:0.1500; stroke-opacity:1; 
stroke-linecap:round; stroke-linejoin:round;">
<path d="M98.4752 131.0775
L99.5022 131.0047
" />
<path d="M98.5959 130.5821
L98.1733 131.4884
" />
<path d="M99.0796 131.9110
L98.4752 131.0775
" />
<path d="M99.5022 131.0047
L99.0796 131.9110
" />
</g>
<g style="fill:none; 
stroke:#E8B2A7; stroke-width:0.1200; stroke-opacity:1; 
stroke-linecap:round; stroke-linejoin:round;">
<path d="M83.6215 83.7871
L84.9709 84.1487
" />
<path d="M84.1474 81.8244
L83.6215 83.7871
" />
<path d="M85.4968 82.1859
L84.1474 81.8244
" />
</g>
<g style="fill:none; 
stroke:#E8B2A7; stroke-width:0.1500; stroke-opacity:1; 
stroke-linecap:round; stroke-linejoin:round;">
<path d="M87.4236 83.7541
L88.4223 83.5040
" />
<path d="M87.4564 83.2452
L87.1976 84.2111
" />
<path d="M88.1635 84.4700
L87.4236 83.7541
" />
<path d="M88.4223 83.5040
L88.1635 84.4700
" />
</g>
<g style="fill:none; 
stroke:#E8B2A7; stroke-width:0.1200; stroke-opacity:1; 
stroke-linecap:round; stroke-linejoin:round;">
<path d="M30.2435 62.1858
L31.5929 62.5474
" />
<path d="M30.7694 60.2231
L30.2435 62.1858
" />
<path d="M32.1188 60.5847
L30.7694 60.2231
" />
</g>
<g style="fill:none; 
stroke:#E8B2A7; stroke-width:0.1500; stroke-opacity:1; 
stroke-linecap:round; stroke-linejoin:round;">
<path d="M34.0456 62.1528
L35.0443 61.9028
" />
<path d="M34.0784 61.6439
L33.8196 62.6099
" />
<path d="M34.7855 62.8687
L34.0456 62.1528
" />
<path d="M35.0443 61.9028
L34.7855 62.8687
" />
</g>
<g style="fill:none; 
stroke:#E8B2A7; stroke-width:0.1200; stroke-opacity:1; 
stroke-linecap:round; stroke-linejoin:round;">
<path d="M71.4452 55.6261
L72.7946 55.9877
" />
<path d="M71.9711 53.6634
L71.4452 55.6261
" />
<path d="M73.3205 54.0249
L71.9711 53.6634
" />
</g>
<g style="fill:none; 
stroke:#E8B2A7; stroke-width:0.1500; stroke-opacity:1; 
stroke-linecap:round; stroke-linejoin:round;">
<path d="M75.2473 55.5930
L76.2460 55.3430
" />
<path d="M75.2801 55.0842
L75.0213 56.0501
" />
<path d="M75.9872 56.3089
L75.2473 55.5930
" />
<path d="M76.2460 55.3430
L75.9872 56.3089
" />
</g>
<g style="fill:none; 
stroke:#E8B2A7; stroke-width:0.1200; stroke-opacity:1; 
stroke-linecap:round; stroke-linejoin:round;">
<path d="M217.1678 55.7672
L217.6937 57.7299
" />
<path d="M217.6937 57.7299
L219.0431 57.3684
" />
<path d="M218.5172 55.4056
L217.1678 55.7672
" />
</g>
<g style="fill:none; 
stroke:#E8B2A7; stroke-width:0.1500; stroke-opacity:1; 
stroke-linecap:round; stroke-linejoin:round;">
<path d="M220.7439 55.3432
L221.0028 56.3091
" />
<path d="M220.9699 55.8002
L221.7099 55.0843
" />
<path d="M221.7099 55.0843
L221.9687 56.0503
" />
<path d="M221.9687 56.0503
L220.9699 55.8002
" />
</g>
<g style="fill:none; 
stroke:#E8B2A7; stroke-width:0.1200; stroke-opacity:1; 
stroke-linecap:round; stroke-linejoin:round;">
<path d="M216.3396 124.1304
L216.6925 126.1315
" />
<path d="M216.6925 126.1315
L218.0683 125.8889
" />
<path d="M217.7154 123.8878
L216.3396 124.1304
" />
</g>
<g style="fill:none; 
stroke:#E8B2A7; stroke-width:0.1500; stroke-opacity:1; 
stroke-linecap:round; stroke-linejoin:round;">
<path d="M219.9391 124.0196
L220.1128 125.0044
" />
<path d="M220.1244 124.4947
L220.9239 123.8460
" />
<path d="M220.9239 123.8460
L221.0976 124.8308
" />
<path d="M221.0976 124.8308
L220.1244 124.4947
" />
</g>
<g style="fill:none; 
stroke:#E8B2A7; stroke-width:0.1200; stroke-opacity:1; 
stroke-linecap:round; stroke-linejoin:round;">
<path d="M25.3130 80.5867
L26.6624 80.9483
" />
<path d="M25.8389 78.6240
L25.3130 80.5867
" />
<path d="M27.1883 78.9855
L25.8389 78.6240
" />
</g>
<g style="fill:none; 
stroke:#E8B2A7; stroke-width:0.1500; stroke-opacity:1; 
stroke-linecap:round; stroke-linejoin:round;">
<path d="M29.1151 80.5537
L30.1138 80.3036
" />
<path d="M29.1479 80.0448
L28.8891 81.0108
" />
<path d="M29.8550 81.2696
L29.1151 80.5537
" />
<path d="M30.1138 80.3036
L29.8550 81.2696
" />
</g>
<g style="fill:none; 
stroke:#E8B2A7; stroke-width:0.1200; stroke-opacity:1; 
stroke-linecap:round; stroke-linejoin:round;">
<path d="M182.1778 72.3897
L182.7037 74.3524
" />
<path d="M182.7037 74.3524
L184.0531 73.9908
" />
<path d="M183.5272 72.0281
L182.1778 72.3897
" />
</g>
<g style="fill:none; 
stroke:#E8B2A7; stroke-width:0.1500; stroke-opacity:1; 
stroke-linecap:round; stroke-linejoin:round;">
<path d="M185.7539 71.9656
L186.0127 72.9316
" />
<path d="M185.9799 72.4227
L186.7198 71.7068
" />
<path d="M186.7198 71.7068
L186.9786 72.6727
" />
<path d="M186.9786 72.6727
L185.9799 72.4227
" />
</g>
<g style="fill:none; 
stroke:#D0D2CD; stroke-width:0.0500; stroke-opacity:1; 
stroke-linecap:round; stroke-linejoin:round;">
<path d="M232.4000 137.1000
L286.2945 110.1528
" />
<path d="M157.5000 71.3000
L154.5000 71.3000
" />
<path d="M230.7000 53.7000
L229.4000 48.8500
" />
<path d="M249.1000 48.7500
L230.7000 53.7000
" />
<path d="M229.4000 48.8500
L211.0000 53.8000
" />
<path d="M142.6500 71.3000
L142.6500 101.3000
" />
<path d="M211.0000 53.8000
L212.2500 58.6000
" />
<path d="M10.7052 110.1535
L64.5500 137.0500
" />
<path d="M103.1000 63.5500
L102.6000 65.4500
" />
<path d="M176.0000 70.4000
L157.5000 71.3000
" />
<path d="M286.2945 110.1528
L271.5657 55.1403
" />
<path d="M102.6000 65.4500
L121.0000 70.4000
" />
<path d="M139.6500 71.3000
L142.6500 71.3000
" />
<path d="M66.3000 53.7000
L67.6000 48.8500
" />
<path d="M67.6000 48.8500
L86.0000 53.8000
" />
<path d="M25.4343 55.1403
L44.8000 60.3500
" />
<path d="M194.4000 65.4500
L176.0000 70.4000
" />
<path d="M25.4343 55.1403
L10.7052 110.1535
" />
<path d="M128.7000 146.8500
L168.3000 146.8500
" />
<path d="M154.5000 101.3000
L142.6500 101.3000
" />
<path d="M154.5000 71.3000
L154.5000 101.3000
" />
<path d="M117.3549 161.8756
L128.7000 146.8500
" />
<path d="M44.8000 60.3500
L47.9000 48.7500
" />
<path d="M252.2000 60.3500
L249.1000 48.7500
" />
<path d="M47.9000 48.7500
L66.3000 53.7000
" />
<path d="M168.3000 146.8500
L179.6449 161.8752
" />
<path d="M64.5500 137.0500
L117.3549 161.8756
" />
<path d="M179.6449 161.8752
L232.4000 137.1000
" />
<path d="M84.7000 58.6000
L103.1000 63.5500
" />
<path d="M139.6500 71.3000
L121.0000 70.4000
" />
<path d="M212.2500 58.6000
L193.9000 63.5500
" />
<path d="M86.0000 53.8000
L84.7000 58.6000
" />
<path d="M193.9000 63.5500
L194.4000 65.4500
" />
<path d="M271.5657 55.1403
L252.2000 60.3500
" />
</g> 
</svg>
