M48
; DRILL file {KiCad (7.0.0)} date Wed Mar  1 21:35:36 2023
; FORMAT={-:-/ absolute / metric / decimal}
; #@! TF.CreationDate,2023-03-01T21:35:36+09:00
; #@! TF.GenerationSoftware,Kicad,Pcbnew,(7.0.0)
; #@! TF.FileFunction,Plated,1,2,PTH
FMAT,2
METRIC
; #@! TA.AperFunction,Plated,PTH,ViaDrill
T1C0.400
; #@! TA.AperFunction,Plated,PTH,ComponentDrill
T2C0.900
; #@! TA.AperFunction,Plated,PTH,ComponentDrill
T3C1.000
; #@! TA.AperFunction,Plated,PTH,ComponentDrill
T4C1.499
%
G90
G05
T1
X176.0Y-69.8
X176.3Y-86.7
X176.75Y-65.85
X177.1Y-82.5
X190.45Y-72.75
X199.93Y-84.85
X199.98Y-56.76
T3
X179.035Y-53.02
X179.035Y-55.56
X179.035Y-58.1
X179.035Y-60.64
X179.035Y-63.18
X179.035Y-65.72
X179.035Y-68.26
X179.035Y-70.8
X179.035Y-73.34
X179.035Y-75.88
X179.035Y-78.42
X179.035Y-80.96
X179.035Y-83.5
X179.035Y-86.04
X179.035Y-88.58
X179.035Y-91.12
X179.035Y-93.66
X179.035Y-96.2
X179.035Y-98.74
X179.035Y-101.28
X181.695Y-53.0
X181.695Y-55.54
X181.695Y-58.08
X181.695Y-60.62
X181.695Y-63.16
X181.695Y-65.7
X181.695Y-68.24
X181.695Y-70.78
X181.695Y-73.32
X181.695Y-75.86
X181.695Y-78.4
X181.695Y-80.94
X181.695Y-83.48
X181.695Y-86.02
X181.695Y-88.56
X181.695Y-91.1
X181.695Y-93.64
X181.695Y-96.18
X181.695Y-98.72
X181.695Y-101.26
X194.275Y-53.02
X194.275Y-55.56
X194.275Y-58.1
X194.275Y-60.64
X194.275Y-63.18
X194.275Y-65.72
X194.275Y-68.26
X194.275Y-70.8
X194.275Y-73.34
X194.275Y-75.88
X194.275Y-78.42
X194.275Y-80.96
X194.275Y-83.5
X194.275Y-86.04
X194.275Y-88.58
X194.275Y-91.12
X194.275Y-93.66
X194.275Y-96.2
X194.275Y-98.74
X194.275Y-101.28
X196.935Y-53.0
X196.935Y-55.54
X196.935Y-58.08
X196.935Y-60.62
X196.935Y-63.16
X196.935Y-65.7
X196.935Y-68.24
X196.935Y-70.78
X196.935Y-73.32
X196.935Y-75.86
X196.935Y-78.4
X196.935Y-80.94
X196.935Y-83.48
X196.935Y-86.02
X196.935Y-88.56
X196.935Y-91.1
X196.935Y-93.64
X196.935Y-96.18
X196.935Y-98.72
X196.935Y-101.26
T4
X83.99Y-63.36
X83.99Y-82.41
X83.99Y-101.46
X85.26Y-60.82
X85.26Y-79.87
X85.26Y-98.92
X90.34Y-60.82
X90.34Y-79.87
X90.34Y-98.92
X91.61Y-63.36
X91.61Y-82.41
X91.61Y-101.46
X103.04Y-51.36
X103.04Y-70.41
X103.04Y-89.46
X104.31Y-48.82
X104.31Y-67.87
X104.31Y-86.92
X109.39Y-48.82
X109.39Y-67.87
X109.39Y-86.92
X110.66Y-51.36
X110.66Y-70.41
X110.66Y-89.46
X122.09Y-46.36
X122.09Y-65.41
X122.09Y-84.46
X123.36Y-43.82
X123.36Y-62.87
X123.36Y-81.92
X128.44Y-43.82
X128.44Y-62.87
X128.44Y-81.92
X129.71Y-46.36
X129.71Y-65.41
X129.71Y-84.46
X135.933Y-112.852
X136.977Y-110.211
X141.14Y-51.36
X141.14Y-70.41
X141.14Y-89.46
X142.038Y-109.768
X142.41Y-48.82
X142.41Y-67.87
X142.41Y-86.92
X143.524Y-112.188
X147.49Y-48.82
X147.49Y-67.87
X147.49Y-86.92
X148.76Y-51.36
X148.76Y-70.41
X148.76Y-89.46
X159.689Y-112.887
X160.19Y-53.36
X160.19Y-72.41
X160.19Y-91.46
X161.381Y-110.606
X161.46Y-50.82
X161.46Y-69.87
X161.46Y-88.92
X166.384Y-111.488
X166.54Y-50.82
X166.54Y-69.87
X166.54Y-88.92
X167.193Y-114.21
X167.81Y-53.36
X167.81Y-72.41
X167.81Y-91.46
X182.67Y-119.138
X184.895Y-117.373
X189.499Y-119.519
X189.576Y-122.358
T2
G00X191.75Y-107.8
M15
G01X191.35Y-107.8
M16
G05
G00X191.75Y-110.3
M15
G01X191.35Y-110.3
M16
G05
G00X192.85Y-105.7
M15
G01X192.45Y-105.7
M16
G05
G00X192.85Y-112.4
M15
G01X192.45Y-112.4
M16
G05
G00X196.85Y-105.7
M15
G01X196.45Y-105.7
M16
G05
G00X196.85Y-112.4
M15
G01X196.45Y-112.4
M16
G05
G00X199.85Y-105.7
M15
G01X199.45Y-105.7
M16
G05
G00X199.85Y-112.4
M15
G01X199.45Y-112.4
M16
G05
T0
M30
