0
SECTION
2
HEADER
9
$INSUNITS
70
4
0
ENDSEC
0
SECTION
2
TABLES
0
TABLE
2
LTYPE
0
LTYPE
72
65
70
64
2
CONTINUOUS
3
______
73
0
40
0
0
ENDTAB
0
TABLE
2
LAYER
0
ENDTAB
0
ENDSEC
0
SECTION
2
ENTITIES
0
LINE
8
0
10
45.8394174
20
-134.2758273
11
66.512655
21
-141.8002705
0
LINE
8
0
10
66.512655
20
-141.8002705
11
69.9328565
21
-132.4033443
0
LINE
8
0
10
45.8394174
20
-134.2758273
11
64.6505253
21
-82.5927332
0
LINE
8
0
10
81.5649925
20
-88.7490958
11
64.6505253
21
-82.5927332
0
LINE
8
0
10
69.9328565
20
-132.4033443
11
86.8473237
21
-138.5597069
0
LINE
8
0
10
86.8473237
20
-138.5597069
11
88.5574244
21
-133.8612438
0
LINE
8
0
10
101.8996611
20
-85.5085322
11
84.9851939
21
-79.3521696
0
LINE
8
0
10
84.9851939
20
-79.3521696
11
81.5649925
21
-88.7490958
0
LINE
8
0
10
88.5574244
20
-133.8612438
11
101.7131211
21
-138.6495258
0
LINE
8
0
10
122.5728987
20
-93.0329753
11
124.2829994
21
-88.3345123
0
LINE
8
0
10
124.2829994
20
-88.3345123
11
103.6097618
21
-80.8100691
0
LINE
8
0
10
103.6097618
20
-80.8100691
11
101.8996611
21
-85.5085322
0
LINE
8
0
10
100.0030204
20
-143.3479888
11
116.9174876
21
-149.5043514
0
LINE
8
0
10
101.7131211
20
-138.6495258
11
100.0030204
21
-143.3479888
0
LINE
8
0
10
137.7772652
20
-103.887801
11
139.4873659
21
-99.1893379
0
LINE
8
0
10
139.4873659
20
-99.1893379
11
122.5728987
21
-93.0329753
0
LINE
8
0
10
116.0842428
20
-154.5219639
11
117.8816037
21
-155.1761498
0
LINE
8
0
10
123.158449
20
-157.0967645
11
135.8806245
21
-161.7272577
0
LINE
8
0
10
135.8806245
20
-161.7272577
11
154.6917323
21
-110.0441636
0
LINE
8
0
10
116.9174876
20
-149.5043514
11
115.3733321
21
-153.7468839
0
LINE
8
0
10
154.6917323
20
-110.0441636
11
137.7772652
21
-103.887801
0
LINE
8
0
10
89.5448226
20
-168.5669555
11
109.5769707
21
-173.9345534
0
LINE
8
0
10
113.2442338
20
-165.1210218
11
116.0842428
21
-154.5219639
0
LINE
8
0
10
115.3733321
20
-153.7468839
11
94.9800226
21
-148.2825131
0
LINE
8
0
10
94.9800226
20
-148.2825131
11
89.5448226
21
-168.5669555
0
LINE
8
0
10
109.5769707
20
-173.9345534
11
127.2103971
21
-182.1571551
0
LINE
8
0
10
131.6400492
20
-177.727503
11
138.0272142
21
-164.0301835
0
LINE
8
0
10
138.0272142
20
-164.0301835
11
123.158449
21
-157.0967645
0
LINE
8
0
10
117.8816037
20
-155.1761498
11
113.2442338
21
-165.1210218
0
LINE
8
0
10
126.8524015
20
-182.5151507
11
142.4087507
21
-198.0714999
0
LINE
8
0
10
142.4087507
20
-198.0714999
11
157.2579931
21
-183.2222575
0
LINE
8
0
10
157.2579931
20
-183.2222575
11
141.7016439
21
-167.6659083
0
LINE
8
0
10
141.7016439
20
-167.6659083
11
131.6400492
21
-177.727503
0
LINE
8
0
10
127.2103971
20
-182.1571551
11
126.8524015
21
-182.5151507
0
LINE
8
0
10
251.015149
20
-141.8002705
11
271.6883866
21
-134.2758273
0
LINE
8
0
10
252.8772787
20
-82.5927332
11
271.6883866
21
-134.2758273
0
LINE
8
0
10
247.5949475
20
-132.4033443
11
251.015149
21
-141.8002705
0
LINE
8
0
10
252.8772787
20
-82.5927332
11
235.9628115
21
-88.7490958
0
LINE
8
0
10
230.6804803
20
-138.5597069
11
247.5949475
21
-132.4033443
0
LINE
8
0
10
228.9703796
20
-133.8612438
11
230.6804803
21
-138.5597069
0
LINE
8
0
10
235.9628115
20
-88.7490958
11
232.5426101
21
-79.3521696
0
LINE
8
0
10
232.5426101
20
-79.3521696
11
215.6281429
21
-85.5085322
0
LINE
8
0
10
215.8146829
20
-138.6495258
11
228.9703796
21
-133.8612438
0
LINE
8
0
10
215.6281429
20
-85.5085322
11
213.9180422
21
-80.8100691
0
LINE
8
0
10
213.9180422
20
-80.8100691
11
193.2448046
21
-88.3345123
0
LINE
8
0
10
193.2448046
20
-88.3345123
11
194.9549053
21
-93.0329753
0
LINE
8
0
10
200.6103164
20
-149.5043514
11
217.5247836
21
-143.3479888
0
LINE
8
0
10
217.5247836
20
-143.3479888
11
215.8146829
21
-138.6495258
0
LINE
8
0
10
194.9549053
20
-93.0329753
11
178.0404381
21
-99.1893379
0
LINE
8
0
10
178.0404381
20
-99.1893379
11
179.7505388
21
-103.887801
0
LINE
8
0
10
181.6471795
20
-161.7272577
11
194.369355
21
-157.0967645
0
LINE
8
0
10
199.6462003
20
-155.1761498
11
201.4435612
21
-154.5219639
0
LINE
8
0
10
202.1544719
20
-153.7468839
11
200.6103164
21
-149.5043514
0
LINE
8
0
10
162.8360717
20
-110.0441636
11
181.6471795
21
-161.7272577
0
LINE
8
0
10
179.7505388
20
-103.887801
11
162.8360717
21
-110.0441636
0
LINE
8
0
10
207.9508333
20
-173.9345534
11
227.9829814
21
-168.5669555
0
LINE
8
0
10
227.9829814
20
-168.5669555
11
222.5477814
21
-148.2825131
0
LINE
8
0
10
222.5477814
20
-148.2825131
11
202.1544719
21
-153.7468839
0
LINE
8
0
10
201.4435612
20
-154.5219639
11
204.2835702
21
-165.1210218
0
LINE
8
0
10
190.3174069
20
-182.1571551
11
207.9508333
21
-173.9345534
0
LINE
8
0
10
204.2835702
20
-165.1210218
11
199.6462003
21
-155.1761498
0
LINE
8
0
10
194.369355
20
-157.0967645
11
179.5005898
21
-164.0301835
0
LINE
8
0
10
179.5005898
20
-164.0301835
11
185.8877548
21
-177.727503
0
LINE
8
0
10
175.1190533
20
-198.0714999
11
190.6754025
21
-182.5151507
0
LINE
8
0
10
190.6754025
20
-182.5151507
11
190.3174069
21
-182.1571551
0
LINE
8
0
10
185.8877548
20
-177.727503
11
175.8261601
21
-167.6659083
0
LINE
8
0
10
175.8261601
20
-167.6659083
11
160.2698109
21
-183.2222575
0
LINE
8
0
10
160.2698109
20
-183.2222575
11
175.1190533
21
-198.0714999
0
ENDSEC
0
EOF