%TF.GenerationSoftware,KiCad,Pcbnew,8.0.1*%
%TF.CreationDate,2024-04-02T20:58:04+09:00*%
%TF.ProjectId,lazyboy36,6c617a79-626f-4793-9336-2e6b69636164,rev?*%
%TF.SameCoordinates,Original*%
%TF.FileFunction,Drillmap*%
%TF.FilePolarity,Positive*%
%FSLAX45Y45*%
G04 Gerber Fmt 4.5, Leading zero omitted, Abs format (unit mm)*
G04 Created by KiCad (PCBNEW 8.0.1) date 2024-04-02 20:58:04*
%MOMM*%
%LPD*%
G01*
G04 APERTURE LIST*
%ADD10C,0.050000*%
%ADD11C,0.200000*%
%ADD12C,0.525000*%
G04 APERTURE END LIST*
D10*
X19440000Y-6545000D02*
X17600000Y-7040000D01*
X19390000Y-6355000D02*
X19440000Y-6545000D01*
X21225000Y-5860000D02*
X19390000Y-6355000D01*
X14265000Y-7130000D02*
X14265000Y-9880005D01*
X15450000Y-9880000D02*
X14265000Y-9880005D01*
X15450000Y-7130000D02*
X15450000Y-9880000D01*
X13965000Y-7130000D02*
X14265000Y-7130000D01*
X15750000Y-7130000D02*
X15450000Y-7130000D01*
X13965000Y-7130000D02*
X12100000Y-7040000D01*
X17600000Y-7040000D02*
X15750000Y-7130000D01*
X21100000Y-5380000D02*
X21225000Y-5860000D01*
X22940000Y-4885000D02*
X21100000Y-5380000D01*
X23070000Y-5370000D02*
X22940000Y-4885000D01*
X24910000Y-4875000D02*
X23070000Y-5370000D01*
X25220000Y-6035000D02*
X24910000Y-4875000D01*
X27156570Y-5514032D02*
X25220000Y-6035000D01*
X28629445Y-11015284D02*
X27156570Y-5514032D01*
X23240000Y-13710000D02*
X28629445Y-11015284D01*
X17964490Y-16187520D02*
X23240000Y-13710000D01*
X16830000Y-14685000D02*
X17964490Y-16187520D01*
X12870000Y-14685000D02*
X16830000Y-14685000D01*
X11735491Y-16187560D02*
X12870000Y-14685000D01*
X6455000Y-13705000D02*
X11735491Y-16187560D01*
X1070521Y-11015351D02*
X6455000Y-13705000D01*
X2543430Y-5514032D02*
X1070521Y-11015351D01*
X10260000Y-6545000D02*
X12100000Y-7040000D01*
X10310000Y-6355000D02*
X10260000Y-6545000D01*
X8470000Y-5860000D02*
X10310000Y-6355000D01*
X8600000Y-5380000D02*
X8470000Y-5860000D01*
X6760000Y-4885000D02*
X8600000Y-5380000D01*
X6630000Y-5370000D02*
X6760000Y-4885000D01*
X4790000Y-4875000D02*
X6630000Y-5370000D01*
X4480000Y-6035000D02*
X4790000Y-4875000D01*
X2543430Y-5514032D02*
X4480000Y-6035000D01*
X42525000Y-6530000D02*
X70790000Y-6530000D01*
X70790000Y-20960000D01*
X42525000Y-20960000D01*
X42525000Y-6530000D01*
D11*
D12*
X2065187Y-10126271D02*
X2590187Y-10651271D01*
X2590187Y-10126271D02*
X2065187Y-10651271D01*
X2558238Y-8286183D02*
X3083237Y-8811183D01*
X3083237Y-8286183D02*
X2558238Y-8811183D01*
X3051288Y-6446094D02*
X3576288Y-6971094D01*
X3576288Y-6446094D02*
X3051288Y-6971094D01*
X4215859Y-9460211D02*
X4740859Y-9985211D01*
X4740859Y-9460211D02*
X4215859Y-9985211D01*
X4708909Y-7620122D02*
X5233909Y-8145122D01*
X5233909Y-7620122D02*
X4708909Y-8145122D01*
X5201959Y-5780033D02*
X5726959Y-6305033D01*
X5726959Y-5780033D02*
X5201959Y-6305033D01*
X6185357Y-9470298D02*
X6710357Y-9995298D01*
X6710357Y-9470298D02*
X6185357Y-9995298D01*
X6678407Y-7630209D02*
X7203407Y-8155209D01*
X7203407Y-7630209D02*
X6678407Y-8155209D01*
X7171458Y-5790121D02*
X7696458Y-6315121D01*
X7696458Y-5790121D02*
X7171458Y-6315121D01*
X7297840Y-12672412D02*
X7822840Y-13197412D01*
X7822840Y-12672412D02*
X7297840Y-13197412D01*
X7896036Y-10446311D02*
X8421036Y-10971311D01*
X8421036Y-10446311D02*
X7896036Y-10971311D01*
X8389087Y-8606223D02*
X8914087Y-9131223D01*
X8914087Y-8606223D02*
X8389087Y-9131223D01*
X8882137Y-6766134D02*
X9407137Y-7291134D01*
X9407137Y-6766134D02*
X8882137Y-7291134D01*
X9409962Y-13315310D02*
X9934962Y-13840310D01*
X9934962Y-13315310D02*
X9409962Y-13840310D01*
X9684361Y-11132547D02*
X10209361Y-11657547D01*
X10209361Y-11132547D02*
X9684361Y-11657547D01*
X10177411Y-9292458D02*
X10702411Y-9817458D01*
X10702411Y-9292458D02*
X10177411Y-9817458D01*
X10670462Y-7452369D02*
X11195462Y-7977369D01*
X11195462Y-7452369D02*
X10670462Y-7977369D01*
X11266246Y-14538937D02*
X11791246Y-15063937D01*
X11791246Y-14538937D02*
X11266246Y-15063937D01*
X17907752Y-14538950D02*
X18432752Y-15063950D01*
X18432752Y-14538950D02*
X17907752Y-15063950D01*
X18503536Y-7452383D02*
X19028536Y-7977383D01*
X19028536Y-7452383D02*
X18503536Y-7977383D01*
X18996586Y-9292471D02*
X19521586Y-9817471D01*
X19521586Y-9292471D02*
X18996586Y-9817471D01*
X19489637Y-11132560D02*
X20014637Y-11657560D01*
X20014637Y-11132560D02*
X19489637Y-11657560D01*
X19764035Y-13315323D02*
X20289035Y-13840323D01*
X20289035Y-13315323D02*
X19764035Y-13840323D01*
X20291861Y-6766147D02*
X20816861Y-7291147D01*
X20816861Y-6766147D02*
X20291861Y-7291147D01*
X20784911Y-8606236D02*
X21309911Y-9131236D01*
X21309911Y-8606236D02*
X20784911Y-9131236D01*
X21277962Y-10446325D02*
X21802962Y-10971325D01*
X21802962Y-10446325D02*
X21277962Y-10971325D01*
X21876158Y-12672425D02*
X22401158Y-13197425D01*
X22401158Y-12672425D02*
X21876158Y-13197425D01*
X22002540Y-5790134D02*
X22527540Y-6315134D01*
X22527540Y-5790134D02*
X22002540Y-6315134D01*
X22495590Y-7630223D02*
X23020590Y-8155223D01*
X23020590Y-7630223D02*
X22495590Y-8155223D01*
X22988641Y-9470311D02*
X23513641Y-9995311D01*
X23513641Y-9470311D02*
X22988641Y-9995311D01*
X23972038Y-5780047D02*
X24497038Y-6305047D01*
X24497038Y-5780047D02*
X23972038Y-6305047D01*
X24465089Y-7620135D02*
X24990089Y-8145135D01*
X24990089Y-7620135D02*
X24465089Y-8145135D01*
X24958139Y-9460224D02*
X25483139Y-9985224D01*
X25483139Y-9460224D02*
X24958139Y-9985224D01*
X26122710Y-6446107D02*
X26647710Y-6971107D01*
X26647710Y-6446107D02*
X26122710Y-6971107D01*
X26615760Y-8286196D02*
X27140760Y-8811196D01*
X27140760Y-8286196D02*
X26615760Y-8811196D01*
X27108810Y-10126285D02*
X27633810Y-10651285D01*
X27633810Y-10126285D02*
X27108810Y-10651285D01*
D11*
X1328798Y-21273984D02*
X1328798Y-21073984D01*
X1328798Y-21073984D02*
X1376417Y-21073984D01*
X1376417Y-21073984D02*
X1404989Y-21083508D01*
X1404989Y-21083508D02*
X1424036Y-21102555D01*
X1424036Y-21102555D02*
X1433560Y-21121603D01*
X1433560Y-21121603D02*
X1443084Y-21159698D01*
X1443084Y-21159698D02*
X1443084Y-21188270D01*
X1443084Y-21188270D02*
X1433560Y-21226365D01*
X1433560Y-21226365D02*
X1424036Y-21245412D01*
X1424036Y-21245412D02*
X1404989Y-21264460D01*
X1404989Y-21264460D02*
X1376417Y-21273984D01*
X1376417Y-21273984D02*
X1328798Y-21273984D01*
X1528798Y-21273984D02*
X1528798Y-21140650D01*
X1528798Y-21178746D02*
X1538322Y-21159698D01*
X1538322Y-21159698D02*
X1547846Y-21150174D01*
X1547846Y-21150174D02*
X1566893Y-21140650D01*
X1566893Y-21140650D02*
X1585941Y-21140650D01*
X1652608Y-21273984D02*
X1652608Y-21140650D01*
X1652608Y-21073984D02*
X1643084Y-21083508D01*
X1643084Y-21083508D02*
X1652608Y-21093031D01*
X1652608Y-21093031D02*
X1662131Y-21083508D01*
X1662131Y-21083508D02*
X1652608Y-21073984D01*
X1652608Y-21073984D02*
X1652608Y-21093031D01*
X1776417Y-21273984D02*
X1757369Y-21264460D01*
X1757369Y-21264460D02*
X1747846Y-21245412D01*
X1747846Y-21245412D02*
X1747846Y-21073984D01*
X1881179Y-21273984D02*
X1862131Y-21264460D01*
X1862131Y-21264460D02*
X1852608Y-21245412D01*
X1852608Y-21245412D02*
X1852608Y-21073984D01*
X2109751Y-21273984D02*
X2109751Y-21073984D01*
X2109751Y-21073984D02*
X2176417Y-21216841D01*
X2176417Y-21216841D02*
X2243084Y-21073984D01*
X2243084Y-21073984D02*
X2243084Y-21273984D01*
X2424036Y-21273984D02*
X2424036Y-21169222D01*
X2424036Y-21169222D02*
X2414512Y-21150174D01*
X2414512Y-21150174D02*
X2395465Y-21140650D01*
X2395465Y-21140650D02*
X2357370Y-21140650D01*
X2357370Y-21140650D02*
X2338322Y-21150174D01*
X2424036Y-21264460D02*
X2404989Y-21273984D01*
X2404989Y-21273984D02*
X2357370Y-21273984D01*
X2357370Y-21273984D02*
X2338322Y-21264460D01*
X2338322Y-21264460D02*
X2328798Y-21245412D01*
X2328798Y-21245412D02*
X2328798Y-21226365D01*
X2328798Y-21226365D02*
X2338322Y-21207317D01*
X2338322Y-21207317D02*
X2357370Y-21197793D01*
X2357370Y-21197793D02*
X2404989Y-21197793D01*
X2404989Y-21197793D02*
X2424036Y-21188270D01*
X2519274Y-21140650D02*
X2519274Y-21340650D01*
X2519274Y-21150174D02*
X2538322Y-21140650D01*
X2538322Y-21140650D02*
X2576417Y-21140650D01*
X2576417Y-21140650D02*
X2595465Y-21150174D01*
X2595465Y-21150174D02*
X2604989Y-21159698D01*
X2604989Y-21159698D02*
X2614512Y-21178746D01*
X2614512Y-21178746D02*
X2614512Y-21235889D01*
X2614512Y-21235889D02*
X2604989Y-21254936D01*
X2604989Y-21254936D02*
X2595465Y-21264460D01*
X2595465Y-21264460D02*
X2576417Y-21273984D01*
X2576417Y-21273984D02*
X2538322Y-21273984D01*
X2538322Y-21273984D02*
X2519274Y-21264460D01*
X2700227Y-21254936D02*
X2709751Y-21264460D01*
X2709751Y-21264460D02*
X2700227Y-21273984D01*
X2700227Y-21273984D02*
X2690703Y-21264460D01*
X2690703Y-21264460D02*
X2700227Y-21254936D01*
X2700227Y-21254936D02*
X2700227Y-21273984D01*
X2700227Y-21150174D02*
X2709751Y-21159698D01*
X2709751Y-21159698D02*
X2700227Y-21169222D01*
X2700227Y-21169222D02*
X2690703Y-21159698D01*
X2690703Y-21159698D02*
X2700227Y-21150174D01*
X2700227Y-21150174D02*
X2700227Y-21169222D01*
X868021Y-21502500D02*
X1068021Y-21702500D01*
X1068021Y-21502500D02*
X868021Y-21702500D01*
X1424036Y-21493984D02*
X1328798Y-21493984D01*
X1328798Y-21493984D02*
X1319274Y-21589222D01*
X1319274Y-21589222D02*
X1328798Y-21579698D01*
X1328798Y-21579698D02*
X1347846Y-21570174D01*
X1347846Y-21570174D02*
X1395465Y-21570174D01*
X1395465Y-21570174D02*
X1414512Y-21579698D01*
X1414512Y-21579698D02*
X1424036Y-21589222D01*
X1424036Y-21589222D02*
X1433560Y-21608270D01*
X1433560Y-21608270D02*
X1433560Y-21655889D01*
X1433560Y-21655889D02*
X1424036Y-21674936D01*
X1424036Y-21674936D02*
X1414512Y-21684460D01*
X1414512Y-21684460D02*
X1395465Y-21693984D01*
X1395465Y-21693984D02*
X1347846Y-21693984D01*
X1347846Y-21693984D02*
X1328798Y-21684460D01*
X1328798Y-21684460D02*
X1319274Y-21674936D01*
X1519274Y-21674936D02*
X1528798Y-21684460D01*
X1528798Y-21684460D02*
X1519274Y-21693984D01*
X1519274Y-21693984D02*
X1509750Y-21684460D01*
X1509750Y-21684460D02*
X1519274Y-21674936D01*
X1519274Y-21674936D02*
X1519274Y-21693984D01*
X1604989Y-21513031D02*
X1614512Y-21503508D01*
X1614512Y-21503508D02*
X1633560Y-21493984D01*
X1633560Y-21493984D02*
X1681179Y-21493984D01*
X1681179Y-21493984D02*
X1700227Y-21503508D01*
X1700227Y-21503508D02*
X1709750Y-21513031D01*
X1709750Y-21513031D02*
X1719274Y-21532079D01*
X1719274Y-21532079D02*
X1719274Y-21551127D01*
X1719274Y-21551127D02*
X1709750Y-21579698D01*
X1709750Y-21579698D02*
X1595465Y-21693984D01*
X1595465Y-21693984D02*
X1719274Y-21693984D01*
X1900227Y-21493984D02*
X1804989Y-21493984D01*
X1804989Y-21493984D02*
X1795465Y-21589222D01*
X1795465Y-21589222D02*
X1804989Y-21579698D01*
X1804989Y-21579698D02*
X1824036Y-21570174D01*
X1824036Y-21570174D02*
X1871655Y-21570174D01*
X1871655Y-21570174D02*
X1890703Y-21579698D01*
X1890703Y-21579698D02*
X1900227Y-21589222D01*
X1900227Y-21589222D02*
X1909750Y-21608270D01*
X1909750Y-21608270D02*
X1909750Y-21655889D01*
X1909750Y-21655889D02*
X1900227Y-21674936D01*
X1900227Y-21674936D02*
X1890703Y-21684460D01*
X1890703Y-21684460D02*
X1871655Y-21693984D01*
X1871655Y-21693984D02*
X1824036Y-21693984D01*
X1824036Y-21693984D02*
X1804989Y-21684460D01*
X1804989Y-21684460D02*
X1795465Y-21674936D01*
X2033560Y-21493984D02*
X2052608Y-21493984D01*
X2052608Y-21493984D02*
X2071655Y-21503508D01*
X2071655Y-21503508D02*
X2081179Y-21513031D01*
X2081179Y-21513031D02*
X2090703Y-21532079D01*
X2090703Y-21532079D02*
X2100227Y-21570174D01*
X2100227Y-21570174D02*
X2100227Y-21617793D01*
X2100227Y-21617793D02*
X2090703Y-21655889D01*
X2090703Y-21655889D02*
X2081179Y-21674936D01*
X2081179Y-21674936D02*
X2071655Y-21684460D01*
X2071655Y-21684460D02*
X2052608Y-21693984D01*
X2052608Y-21693984D02*
X2033560Y-21693984D01*
X2033560Y-21693984D02*
X2014512Y-21684460D01*
X2014512Y-21684460D02*
X2004989Y-21674936D01*
X2004989Y-21674936D02*
X1995465Y-21655889D01*
X1995465Y-21655889D02*
X1985941Y-21617793D01*
X1985941Y-21617793D02*
X1985941Y-21570174D01*
X1985941Y-21570174D02*
X1995465Y-21532079D01*
X1995465Y-21532079D02*
X2004989Y-21513031D01*
X2004989Y-21513031D02*
X2014512Y-21503508D01*
X2014512Y-21503508D02*
X2033560Y-21493984D01*
X2185941Y-21693984D02*
X2185941Y-21560650D01*
X2185941Y-21579698D02*
X2195465Y-21570174D01*
X2195465Y-21570174D02*
X2214512Y-21560650D01*
X2214512Y-21560650D02*
X2243084Y-21560650D01*
X2243084Y-21560650D02*
X2262132Y-21570174D01*
X2262132Y-21570174D02*
X2271655Y-21589222D01*
X2271655Y-21589222D02*
X2271655Y-21693984D01*
X2271655Y-21589222D02*
X2281179Y-21570174D01*
X2281179Y-21570174D02*
X2300227Y-21560650D01*
X2300227Y-21560650D02*
X2328798Y-21560650D01*
X2328798Y-21560650D02*
X2347846Y-21570174D01*
X2347846Y-21570174D02*
X2357370Y-21589222D01*
X2357370Y-21589222D02*
X2357370Y-21693984D01*
X2452608Y-21693984D02*
X2452608Y-21560650D01*
X2452608Y-21579698D02*
X2462132Y-21570174D01*
X2462132Y-21570174D02*
X2481179Y-21560650D01*
X2481179Y-21560650D02*
X2509751Y-21560650D01*
X2509751Y-21560650D02*
X2528798Y-21570174D01*
X2528798Y-21570174D02*
X2538322Y-21589222D01*
X2538322Y-21589222D02*
X2538322Y-21693984D01*
X2538322Y-21589222D02*
X2547846Y-21570174D01*
X2547846Y-21570174D02*
X2566893Y-21560650D01*
X2566893Y-21560650D02*
X2595465Y-21560650D01*
X2595465Y-21560650D02*
X2614513Y-21570174D01*
X2614513Y-21570174D02*
X2624036Y-21589222D01*
X2624036Y-21589222D02*
X2624036Y-21693984D01*
X3014512Y-21484460D02*
X2843084Y-21741603D01*
X3271655Y-21493984D02*
X3290703Y-21493984D01*
X3290703Y-21493984D02*
X3309751Y-21503508D01*
X3309751Y-21503508D02*
X3319274Y-21513031D01*
X3319274Y-21513031D02*
X3328798Y-21532079D01*
X3328798Y-21532079D02*
X3338322Y-21570174D01*
X3338322Y-21570174D02*
X3338322Y-21617793D01*
X3338322Y-21617793D02*
X3328798Y-21655889D01*
X3328798Y-21655889D02*
X3319274Y-21674936D01*
X3319274Y-21674936D02*
X3309751Y-21684460D01*
X3309751Y-21684460D02*
X3290703Y-21693984D01*
X3290703Y-21693984D02*
X3271655Y-21693984D01*
X3271655Y-21693984D02*
X3252608Y-21684460D01*
X3252608Y-21684460D02*
X3243084Y-21674936D01*
X3243084Y-21674936D02*
X3233560Y-21655889D01*
X3233560Y-21655889D02*
X3224036Y-21617793D01*
X3224036Y-21617793D02*
X3224036Y-21570174D01*
X3224036Y-21570174D02*
X3233560Y-21532079D01*
X3233560Y-21532079D02*
X3243084Y-21513031D01*
X3243084Y-21513031D02*
X3252608Y-21503508D01*
X3252608Y-21503508D02*
X3271655Y-21493984D01*
X3424036Y-21674936D02*
X3433560Y-21684460D01*
X3433560Y-21684460D02*
X3424036Y-21693984D01*
X3424036Y-21693984D02*
X3414513Y-21684460D01*
X3414513Y-21684460D02*
X3424036Y-21674936D01*
X3424036Y-21674936D02*
X3424036Y-21693984D01*
X3509751Y-21513031D02*
X3519274Y-21503508D01*
X3519274Y-21503508D02*
X3538322Y-21493984D01*
X3538322Y-21493984D02*
X3585941Y-21493984D01*
X3585941Y-21493984D02*
X3604989Y-21503508D01*
X3604989Y-21503508D02*
X3614513Y-21513031D01*
X3614513Y-21513031D02*
X3624036Y-21532079D01*
X3624036Y-21532079D02*
X3624036Y-21551127D01*
X3624036Y-21551127D02*
X3614513Y-21579698D01*
X3614513Y-21579698D02*
X3500227Y-21693984D01*
X3500227Y-21693984D02*
X3624036Y-21693984D01*
X3747846Y-21493984D02*
X3766894Y-21493984D01*
X3766894Y-21493984D02*
X3785941Y-21503508D01*
X3785941Y-21503508D02*
X3795465Y-21513031D01*
X3795465Y-21513031D02*
X3804989Y-21532079D01*
X3804989Y-21532079D02*
X3814513Y-21570174D01*
X3814513Y-21570174D02*
X3814513Y-21617793D01*
X3814513Y-21617793D02*
X3804989Y-21655889D01*
X3804989Y-21655889D02*
X3795465Y-21674936D01*
X3795465Y-21674936D02*
X3785941Y-21684460D01*
X3785941Y-21684460D02*
X3766894Y-21693984D01*
X3766894Y-21693984D02*
X3747846Y-21693984D01*
X3747846Y-21693984D02*
X3728798Y-21684460D01*
X3728798Y-21684460D02*
X3719274Y-21674936D01*
X3719274Y-21674936D02*
X3709751Y-21655889D01*
X3709751Y-21655889D02*
X3700227Y-21617793D01*
X3700227Y-21617793D02*
X3700227Y-21570174D01*
X3700227Y-21570174D02*
X3709751Y-21532079D01*
X3709751Y-21532079D02*
X3719274Y-21513031D01*
X3719274Y-21513031D02*
X3728798Y-21503508D01*
X3728798Y-21503508D02*
X3747846Y-21493984D01*
X3985941Y-21493984D02*
X3947846Y-21493984D01*
X3947846Y-21493984D02*
X3928798Y-21503508D01*
X3928798Y-21503508D02*
X3919274Y-21513031D01*
X3919274Y-21513031D02*
X3900227Y-21541603D01*
X3900227Y-21541603D02*
X3890703Y-21579698D01*
X3890703Y-21579698D02*
X3890703Y-21655889D01*
X3890703Y-21655889D02*
X3900227Y-21674936D01*
X3900227Y-21674936D02*
X3909751Y-21684460D01*
X3909751Y-21684460D02*
X3928798Y-21693984D01*
X3928798Y-21693984D02*
X3966894Y-21693984D01*
X3966894Y-21693984D02*
X3985941Y-21684460D01*
X3985941Y-21684460D02*
X3995465Y-21674936D01*
X3995465Y-21674936D02*
X4004989Y-21655889D01*
X4004989Y-21655889D02*
X4004989Y-21608270D01*
X4004989Y-21608270D02*
X3995465Y-21589222D01*
X3995465Y-21589222D02*
X3985941Y-21579698D01*
X3985941Y-21579698D02*
X3966894Y-21570174D01*
X3966894Y-21570174D02*
X3928798Y-21570174D01*
X3928798Y-21570174D02*
X3909751Y-21579698D01*
X3909751Y-21579698D02*
X3900227Y-21589222D01*
X3900227Y-21589222D02*
X3890703Y-21608270D01*
X4071655Y-21493984D02*
X4204989Y-21493984D01*
X4204989Y-21493984D02*
X4119274Y-21693984D01*
X4271656Y-21493984D02*
X4271656Y-21532079D01*
X4347846Y-21493984D02*
X4347846Y-21532079D01*
X4643084Y-21770174D02*
X4633560Y-21760650D01*
X4633560Y-21760650D02*
X4614513Y-21732079D01*
X4614513Y-21732079D02*
X4604989Y-21713031D01*
X4604989Y-21713031D02*
X4595465Y-21684460D01*
X4595465Y-21684460D02*
X4585941Y-21636841D01*
X4585941Y-21636841D02*
X4585941Y-21598746D01*
X4585941Y-21598746D02*
X4595465Y-21551127D01*
X4595465Y-21551127D02*
X4604989Y-21522555D01*
X4604989Y-21522555D02*
X4614513Y-21503508D01*
X4614513Y-21503508D02*
X4633560Y-21474936D01*
X4633560Y-21474936D02*
X4643084Y-21465412D01*
X4700227Y-21493984D02*
X4824037Y-21493984D01*
X4824037Y-21493984D02*
X4757370Y-21570174D01*
X4757370Y-21570174D02*
X4785941Y-21570174D01*
X4785941Y-21570174D02*
X4804989Y-21579698D01*
X4804989Y-21579698D02*
X4814513Y-21589222D01*
X4814513Y-21589222D02*
X4824037Y-21608270D01*
X4824037Y-21608270D02*
X4824037Y-21655889D01*
X4824037Y-21655889D02*
X4814513Y-21674936D01*
X4814513Y-21674936D02*
X4804989Y-21684460D01*
X4804989Y-21684460D02*
X4785941Y-21693984D01*
X4785941Y-21693984D02*
X4728798Y-21693984D01*
X4728798Y-21693984D02*
X4709751Y-21684460D01*
X4709751Y-21684460D02*
X4700227Y-21674936D01*
X4995465Y-21493984D02*
X4957370Y-21493984D01*
X4957370Y-21493984D02*
X4938322Y-21503508D01*
X4938322Y-21503508D02*
X4928798Y-21513031D01*
X4928798Y-21513031D02*
X4909751Y-21541603D01*
X4909751Y-21541603D02*
X4900227Y-21579698D01*
X4900227Y-21579698D02*
X4900227Y-21655889D01*
X4900227Y-21655889D02*
X4909751Y-21674936D01*
X4909751Y-21674936D02*
X4919275Y-21684460D01*
X4919275Y-21684460D02*
X4938322Y-21693984D01*
X4938322Y-21693984D02*
X4976418Y-21693984D01*
X4976418Y-21693984D02*
X4995465Y-21684460D01*
X4995465Y-21684460D02*
X5004989Y-21674936D01*
X5004989Y-21674936D02*
X5014513Y-21655889D01*
X5014513Y-21655889D02*
X5014513Y-21608270D01*
X5014513Y-21608270D02*
X5004989Y-21589222D01*
X5004989Y-21589222D02*
X4995465Y-21579698D01*
X4995465Y-21579698D02*
X4976418Y-21570174D01*
X4976418Y-21570174D02*
X4938322Y-21570174D01*
X4938322Y-21570174D02*
X4919275Y-21579698D01*
X4919275Y-21579698D02*
X4909751Y-21589222D01*
X4909751Y-21589222D02*
X4900227Y-21608270D01*
X5252608Y-21693984D02*
X5252608Y-21493984D01*
X5338322Y-21693984D02*
X5338322Y-21589222D01*
X5338322Y-21589222D02*
X5328799Y-21570174D01*
X5328799Y-21570174D02*
X5309751Y-21560650D01*
X5309751Y-21560650D02*
X5281179Y-21560650D01*
X5281179Y-21560650D02*
X5262132Y-21570174D01*
X5262132Y-21570174D02*
X5252608Y-21579698D01*
X5462132Y-21693984D02*
X5443084Y-21684460D01*
X5443084Y-21684460D02*
X5433560Y-21674936D01*
X5433560Y-21674936D02*
X5424037Y-21655889D01*
X5424037Y-21655889D02*
X5424037Y-21598746D01*
X5424037Y-21598746D02*
X5433560Y-21579698D01*
X5433560Y-21579698D02*
X5443084Y-21570174D01*
X5443084Y-21570174D02*
X5462132Y-21560650D01*
X5462132Y-21560650D02*
X5490703Y-21560650D01*
X5490703Y-21560650D02*
X5509751Y-21570174D01*
X5509751Y-21570174D02*
X5519275Y-21579698D01*
X5519275Y-21579698D02*
X5528799Y-21598746D01*
X5528799Y-21598746D02*
X5528799Y-21655889D01*
X5528799Y-21655889D02*
X5519275Y-21674936D01*
X5519275Y-21674936D02*
X5509751Y-21684460D01*
X5509751Y-21684460D02*
X5490703Y-21693984D01*
X5490703Y-21693984D02*
X5462132Y-21693984D01*
X5643084Y-21693984D02*
X5624037Y-21684460D01*
X5624037Y-21684460D02*
X5614513Y-21665412D01*
X5614513Y-21665412D02*
X5614513Y-21493984D01*
X5795465Y-21684460D02*
X5776418Y-21693984D01*
X5776418Y-21693984D02*
X5738322Y-21693984D01*
X5738322Y-21693984D02*
X5719275Y-21684460D01*
X5719275Y-21684460D02*
X5709751Y-21665412D01*
X5709751Y-21665412D02*
X5709751Y-21589222D01*
X5709751Y-21589222D02*
X5719275Y-21570174D01*
X5719275Y-21570174D02*
X5738322Y-21560650D01*
X5738322Y-21560650D02*
X5776418Y-21560650D01*
X5776418Y-21560650D02*
X5795465Y-21570174D01*
X5795465Y-21570174D02*
X5804989Y-21589222D01*
X5804989Y-21589222D02*
X5804989Y-21608270D01*
X5804989Y-21608270D02*
X5709751Y-21627317D01*
X5881179Y-21684460D02*
X5900227Y-21693984D01*
X5900227Y-21693984D02*
X5938322Y-21693984D01*
X5938322Y-21693984D02*
X5957370Y-21684460D01*
X5957370Y-21684460D02*
X5966894Y-21665412D01*
X5966894Y-21665412D02*
X5966894Y-21655889D01*
X5966894Y-21655889D02*
X5957370Y-21636841D01*
X5957370Y-21636841D02*
X5938322Y-21627317D01*
X5938322Y-21627317D02*
X5909751Y-21627317D01*
X5909751Y-21627317D02*
X5890703Y-21617793D01*
X5890703Y-21617793D02*
X5881179Y-21598746D01*
X5881179Y-21598746D02*
X5881179Y-21589222D01*
X5881179Y-21589222D02*
X5890703Y-21570174D01*
X5890703Y-21570174D02*
X5909751Y-21560650D01*
X5909751Y-21560650D02*
X5938322Y-21560650D01*
X5938322Y-21560650D02*
X5957370Y-21570174D01*
X6033560Y-21770174D02*
X6043084Y-21760650D01*
X6043084Y-21760650D02*
X6062132Y-21732079D01*
X6062132Y-21732079D02*
X6071656Y-21713031D01*
X6071656Y-21713031D02*
X6081179Y-21684460D01*
X6081179Y-21684460D02*
X6090703Y-21636841D01*
X6090703Y-21636841D02*
X6090703Y-21598746D01*
X6090703Y-21598746D02*
X6081179Y-21551127D01*
X6081179Y-21551127D02*
X6071656Y-21522555D01*
X6071656Y-21522555D02*
X6062132Y-21503508D01*
X6062132Y-21503508D02*
X6043084Y-21474936D01*
X6043084Y-21474936D02*
X6033560Y-21465412D01*
X6395465Y-21770174D02*
X6385941Y-21760650D01*
X6385941Y-21760650D02*
X6366894Y-21732079D01*
X6366894Y-21732079D02*
X6357370Y-21713031D01*
X6357370Y-21713031D02*
X6347846Y-21684460D01*
X6347846Y-21684460D02*
X6338322Y-21636841D01*
X6338322Y-21636841D02*
X6338322Y-21598746D01*
X6338322Y-21598746D02*
X6347846Y-21551127D01*
X6347846Y-21551127D02*
X6357370Y-21522555D01*
X6357370Y-21522555D02*
X6366894Y-21503508D01*
X6366894Y-21503508D02*
X6385941Y-21474936D01*
X6385941Y-21474936D02*
X6395465Y-21465412D01*
X6471656Y-21560650D02*
X6471656Y-21693984D01*
X6471656Y-21579698D02*
X6481179Y-21570174D01*
X6481179Y-21570174D02*
X6500227Y-21560650D01*
X6500227Y-21560650D02*
X6528799Y-21560650D01*
X6528799Y-21560650D02*
X6547846Y-21570174D01*
X6547846Y-21570174D02*
X6557370Y-21589222D01*
X6557370Y-21589222D02*
X6557370Y-21693984D01*
X6681179Y-21693984D02*
X6662132Y-21684460D01*
X6662132Y-21684460D02*
X6652608Y-21674936D01*
X6652608Y-21674936D02*
X6643084Y-21655889D01*
X6643084Y-21655889D02*
X6643084Y-21598746D01*
X6643084Y-21598746D02*
X6652608Y-21579698D01*
X6652608Y-21579698D02*
X6662132Y-21570174D01*
X6662132Y-21570174D02*
X6681179Y-21560650D01*
X6681179Y-21560650D02*
X6709751Y-21560650D01*
X6709751Y-21560650D02*
X6728799Y-21570174D01*
X6728799Y-21570174D02*
X6738322Y-21579698D01*
X6738322Y-21579698D02*
X6747846Y-21598746D01*
X6747846Y-21598746D02*
X6747846Y-21655889D01*
X6747846Y-21655889D02*
X6738322Y-21674936D01*
X6738322Y-21674936D02*
X6728799Y-21684460D01*
X6728799Y-21684460D02*
X6709751Y-21693984D01*
X6709751Y-21693984D02*
X6681179Y-21693984D01*
X6804989Y-21560650D02*
X6881179Y-21560650D01*
X6833560Y-21493984D02*
X6833560Y-21665412D01*
X6833560Y-21665412D02*
X6843084Y-21684460D01*
X6843084Y-21684460D02*
X6862132Y-21693984D01*
X6862132Y-21693984D02*
X6881179Y-21693984D01*
X7100227Y-21560650D02*
X7100227Y-21760650D01*
X7100227Y-21570174D02*
X7119275Y-21560650D01*
X7119275Y-21560650D02*
X7157370Y-21560650D01*
X7157370Y-21560650D02*
X7176418Y-21570174D01*
X7176418Y-21570174D02*
X7185941Y-21579698D01*
X7185941Y-21579698D02*
X7195465Y-21598746D01*
X7195465Y-21598746D02*
X7195465Y-21655889D01*
X7195465Y-21655889D02*
X7185941Y-21674936D01*
X7185941Y-21674936D02*
X7176418Y-21684460D01*
X7176418Y-21684460D02*
X7157370Y-21693984D01*
X7157370Y-21693984D02*
X7119275Y-21693984D01*
X7119275Y-21693984D02*
X7100227Y-21684460D01*
X7309751Y-21693984D02*
X7290703Y-21684460D01*
X7290703Y-21684460D02*
X7281180Y-21665412D01*
X7281180Y-21665412D02*
X7281180Y-21493984D01*
X7471656Y-21693984D02*
X7471656Y-21589222D01*
X7471656Y-21589222D02*
X7462132Y-21570174D01*
X7462132Y-21570174D02*
X7443084Y-21560650D01*
X7443084Y-21560650D02*
X7404989Y-21560650D01*
X7404989Y-21560650D02*
X7385941Y-21570174D01*
X7471656Y-21684460D02*
X7452608Y-21693984D01*
X7452608Y-21693984D02*
X7404989Y-21693984D01*
X7404989Y-21693984D02*
X7385941Y-21684460D01*
X7385941Y-21684460D02*
X7376418Y-21665412D01*
X7376418Y-21665412D02*
X7376418Y-21646365D01*
X7376418Y-21646365D02*
X7385941Y-21627317D01*
X7385941Y-21627317D02*
X7404989Y-21617793D01*
X7404989Y-21617793D02*
X7452608Y-21617793D01*
X7452608Y-21617793D02*
X7471656Y-21608270D01*
X7538322Y-21560650D02*
X7614513Y-21560650D01*
X7566894Y-21493984D02*
X7566894Y-21665412D01*
X7566894Y-21665412D02*
X7576418Y-21684460D01*
X7576418Y-21684460D02*
X7595465Y-21693984D01*
X7595465Y-21693984D02*
X7614513Y-21693984D01*
X7757370Y-21684460D02*
X7738322Y-21693984D01*
X7738322Y-21693984D02*
X7700227Y-21693984D01*
X7700227Y-21693984D02*
X7681180Y-21684460D01*
X7681180Y-21684460D02*
X7671656Y-21665412D01*
X7671656Y-21665412D02*
X7671656Y-21589222D01*
X7671656Y-21589222D02*
X7681180Y-21570174D01*
X7681180Y-21570174D02*
X7700227Y-21560650D01*
X7700227Y-21560650D02*
X7738322Y-21560650D01*
X7738322Y-21560650D02*
X7757370Y-21570174D01*
X7757370Y-21570174D02*
X7766894Y-21589222D01*
X7766894Y-21589222D02*
X7766894Y-21608270D01*
X7766894Y-21608270D02*
X7671656Y-21627317D01*
X7938322Y-21693984D02*
X7938322Y-21493984D01*
X7938322Y-21684460D02*
X7919275Y-21693984D01*
X7919275Y-21693984D02*
X7881180Y-21693984D01*
X7881180Y-21693984D02*
X7862132Y-21684460D01*
X7862132Y-21684460D02*
X7852608Y-21674936D01*
X7852608Y-21674936D02*
X7843084Y-21655889D01*
X7843084Y-21655889D02*
X7843084Y-21598746D01*
X7843084Y-21598746D02*
X7852608Y-21579698D01*
X7852608Y-21579698D02*
X7862132Y-21570174D01*
X7862132Y-21570174D02*
X7881180Y-21560650D01*
X7881180Y-21560650D02*
X7919275Y-21560650D01*
X7919275Y-21560650D02*
X7938322Y-21570174D01*
X8014513Y-21770174D02*
X8024037Y-21760650D01*
X8024037Y-21760650D02*
X8043084Y-21732079D01*
X8043084Y-21732079D02*
X8052608Y-21713031D01*
X8052608Y-21713031D02*
X8062132Y-21684460D01*
X8062132Y-21684460D02*
X8071656Y-21636841D01*
X8071656Y-21636841D02*
X8071656Y-21598746D01*
X8071656Y-21598746D02*
X8062132Y-21551127D01*
X8062132Y-21551127D02*
X8052608Y-21522555D01*
X8052608Y-21522555D02*
X8043084Y-21503508D01*
X8043084Y-21503508D02*
X8024037Y-21474936D01*
X8024037Y-21474936D02*
X8014513Y-21465412D01*
M02*
